<svg width="20" height="20" viewBox="0 0 20 20" fill="none" xmlns="http://www.w3.org/2000/svg">
<path fill-rule="evenodd" clip-rule="evenodd" d="M13.9854 1.25002C12.6721 1.25 11.8088 1.40196 10.8214 1.86226C10.5299 1.99815 10.2522 2.15621 9.98941 2.33608C9.73997 2.16833 9.47695 2.01941 9.20134 1.88958C8.19608 1.41606 7.28993 1.25 6.02273 1.25C2.54812 1.25 0 4.01701 0 7.5999C0 10.2849 1.54567 12.8352 4.38969 15.2713C5.86257 16.5329 7.73871 17.7785 9.09137 18.4456L10 18.8937L10.9086 18.4456C12.2613 17.7785 14.1374 16.5329 15.6103 15.2713C18.4543 12.8352 20 10.2849 20 7.5999C20 4.05266 17.4299 1.2636 13.9854 1.25002ZM17.5 7.5999C17.5 9.42982 16.3265 11.3661 13.984 13.3726C12.7404 14.4379 11.1526 15.5052 10 16.1036C8.84741 15.5052 7.25963 14.4379 6.01604 13.3726C3.67353 11.3661 2.5 9.42982 2.5 7.5999C2.5 5.35381 3.97694 3.75 6.02273 3.75C6.94781 3.75 7.49843 3.85091 8.13599 4.15123C8.50402 4.32459 8.82696 4.55186 9.10573 4.83508L10.0042 5.74789L10.8949 4.82746C11.1799 4.53294 11.5068 4.30102 11.8776 4.12815C12.4947 3.8405 13.0089 3.75 13.9804 3.75001C15.998 3.75797 17.5 5.38801 17.5 7.5999Z" fill="#2CA1C6"/>
</svg>
