<svg width="16" height="16" viewBox="0 0 16 16" fill="none" xmlns="http://www.w3.org/2000/svg">
<path fill-rule="evenodd" clip-rule="evenodd" d="M9.99986 4.66667H11.3332V8C11.3332 9.64729 11.4595 10 11.9999 10C12.8694 10 13.3332 9.58877 13.3332 8C13.3332 4.47377 11.5646 2.66667 7.99995 2.66667C5.69058 2.66696 3.64377 4.15351 2.9291 6.3495C2.21442 8.5455 2.99427 10.952 4.86113 12.3114C6.72798 13.6708 9.25766 13.6743 11.1282 12.32L11.9101 13.4C9.57192 15.0928 6.40982 15.0885 4.07626 13.3892C1.74269 11.69 0.767875 8.68187 1.66122 5.93688C2.55456 3.19189 5.11308 1.33369 7.99986 1.33333C12.3074 1.33333 14.6665 3.74373 14.6665 8C14.6665 10.3632 13.5725 11.3333 11.9999 11.3333C11.1039 11.3333 10.5912 11.0445 10.3097 10.4032C9.71062 10.9792 8.89659 11.3333 7.99985 11.3333C6.1589 11.3333 4.66652 9.84095 4.66652 8C4.66652 6.15905 6.1589 4.66667 7.99985 4.66667C8.75026 4.66667 9.44275 4.91463 9.99986 5.33309V4.66667ZM9.99985 8C9.99985 9.10457 9.10442 10 7.99985 10C6.89528 10 5.99985 9.10457 5.99985 8C5.99985 6.89543 6.89528 6 7.99985 6C9.10442 6 9.99985 6.89543 9.99985 8Z" fill="#2CA1C6"/>
</svg>
