<svg width="68" height="68" viewBox="0 0 68 68" fill="none" xmlns="http://www.w3.org/2000/svg">
<g filter="url(#filter0_d)">
<circle cx="34" cy="30" r="24" fill="#2CA1C6"/>
<path d="M44 29.7427C44 35.1231 39.6044 39.4848 34.181 39.4848C32.4599 39.4848 30.8432 39.0446 29.4358 38.2737L24 40L25.7719 34.7716C24.8785 33.3042 24.3639 31.5812 24.3639 29.7421C24.3646 24.3617 28.7589 20 34.1823 20C39.605 20.0013 44 24.3623 44 29.7427ZM34.1803 21.5535C29.6289 21.5535 25.9265 25.2278 25.9265 29.7447C25.9265 31.5368 26.5108 33.1959 27.4989 34.5459L26.4685 37.587L29.6393 36.5794C30.9436 37.435 32.5043 37.9333 34.1803 37.9333C38.7318 37.9333 42.4355 34.2596 42.4355 29.7427C42.4368 25.2278 38.7324 21.5535 34.1803 21.5535ZM39.1394 31.9868C39.0781 31.8883 38.9177 31.8283 38.6777 31.7084C38.4383 31.5884 37.2533 31.0112 37.0336 30.9329C36.8118 30.8527 36.6514 30.8123 36.491 31.0516C36.3325 31.291 35.8707 31.8284 35.7292 31.9888C35.589 32.1486 35.4488 32.1688 35.2081 32.0507C34.9675 31.9294 34.1914 31.679 33.2719 30.8658C32.5564 30.2318 32.0732 29.4512 31.9336 29.2119C31.7921 28.9732 31.9193 28.844 32.0386 28.7253C32.1462 28.6177 32.2793 28.4462 32.3999 28.306C32.5206 28.1671 32.5603 28.0686 32.6406 27.9088C32.7195 27.749 32.6797 27.6101 32.6203 27.4895C32.5603 27.3695 32.0797 26.1956 31.8782 25.7175C31.678 25.2402 31.4777 25.3191 31.3369 25.3191C31.1967 25.3191 31.0362 25.2995 30.8758 25.2995C30.7154 25.2995 30.4545 25.3576 30.2347 25.5969C30.0149 25.8362 29.3928 26.4134 29.3928 27.5886C29.3928 28.7651 30.2543 29.8992 30.3749 30.0584C30.4962 30.2168 32.0406 32.7075 34.4868 33.6635C36.9344 34.619 36.9344 34.3001 37.3753 34.2596C37.8175 34.2192 38.7996 33.6825 38.9992 33.1255C39.2001 32.566 39.2001 32.0866 39.1394 31.9868Z" fill="white"/>
</g>
<defs>
<filter id="filter0_d" x="0" y="0" width="68" height="68" filterUnits="userSpaceOnUse" color-interpolation-filters="sRGB">
<feFlood flood-opacity="0" result="BackgroundImageFix"/>
<feColorMatrix in="SourceAlpha" type="matrix" values="0 0 0 0 0 0 0 0 0 0 0 0 0 0 0 0 0 0 127 0"/>
<feOffset dy="4"/>
<feGaussianBlur stdDeviation="5"/>
<feColorMatrix type="matrix" values="0 0 0 0 0.172549 0 0 0 0 0.631373 0 0 0 0 0.776471 0 0 0 0.15 0"/>
<feBlend mode="normal" in2="BackgroundImageFix" result="effect1_dropShadow"/>
<feBlend mode="normal" in="SourceGraphic" in2="effect1_dropShadow" result="shape"/>
</filter>
</defs>
</svg>
