<svg width="68" height="68" viewBox="0 0 68 68" fill="none" xmlns="http://www.w3.org/2000/svg">
<g filter="url(#filter0_d)">
<g filter="url(#filter1_d)">
<circle cx="34" cy="30" r="24" fill="#2CA1C6"/>
</g>
<path fill-rule="evenodd" clip-rule="evenodd" d="M33.0884 27.0706C33.5028 26.5121 33.6515 25.9235 33.1827 25.4039C32.1309 23.932 31.4235 23.0219 30.9798 22.5836C30.1362 21.7502 28.7485 21.863 28.0179 22.5828C27.6255 22.9695 27.4927 23.1023 27.0898 23.5115C24.8455 25.757 26.2142 30.5039 29.8526 34.146C33.4903 37.7872 38.2367 39.1566 40.4857 36.9063C40.8575 36.5479 41.1723 36.233 41.4206 35.9705C42.1365 35.2138 42.2452 33.8873 41.4159 33.0256C40.9907 32.5838 40.1227 31.9105 38.589 30.8134C38.1192 30.3934 37.5623 30.4844 37.0516 30.8194C36.806 30.9806 36.6272 31.1436 36.2897 31.4815L35.6768 32.0947C35.596 32.1755 34.4998 31.6265 33.4357 30.5614C32.371 29.4956 31.8224 28.3994 31.9028 28.319L32.5161 27.7053C32.6232 27.5981 32.6744 27.5462 32.7401 27.4772C32.8769 27.3335 32.9901 27.203 33.0884 27.0706ZM36.8074 33.226L37.4204 32.6126C37.6062 32.4267 37.7266 32.3124 37.8245 32.2335C39.1681 33.1984 39.9463 33.8051 40.2641 34.1353C40.4549 34.3336 40.4253 34.6954 40.2594 34.8707C40.0298 35.1134 39.7316 35.4118 39.3655 35.7649C37.9113 37.2198 34.0798 36.1143 30.9835 33.015C27.8862 29.9147 26.7813 26.0826 28.2246 24.6385C28.6259 24.231 28.7531 24.1039 29.1399 23.7228C29.2849 23.5799 29.6799 23.5478 29.8564 23.7221C30.198 24.0595 30.8317 24.8709 31.7639 26.1695C31.7156 26.2294 31.6553 26.2971 31.582 26.3742C31.5282 26.4307 31.4833 26.4762 31.3853 26.5744L30.7725 27.1875C29.7301 28.2298 30.6178 30.0038 32.3048 31.6924C33.9907 33.3799 35.7653 34.2687 36.8074 33.226Z" fill="white"/>
</g>
<defs>
<filter id="filter0_d" x="0" y="0" width="68" height="68" filterUnits="userSpaceOnUse" color-interpolation-filters="sRGB">
<feFlood flood-opacity="0" result="BackgroundImageFix"/>
<feColorMatrix in="SourceAlpha" type="matrix" values="0 0 0 0 0 0 0 0 0 0 0 0 0 0 0 0 0 0 127 0"/>
<feOffset dy="4"/>
<feGaussianBlur stdDeviation="5"/>
<feColorMatrix type="matrix" values="0 0 0 0 0.172549 0 0 0 0 0.631373 0 0 0 0 0.776471 0 0 0 0.15 0"/>
<feBlend mode="normal" in2="BackgroundImageFix" result="effect1_dropShadow"/>
<feBlend mode="normal" in="SourceGraphic" in2="effect1_dropShadow" result="shape"/>
</filter>
<filter id="filter1_d" x="0" y="0" width="68" height="68" filterUnits="userSpaceOnUse" color-interpolation-filters="sRGB">
<feFlood flood-opacity="0" result="BackgroundImageFix"/>
<feColorMatrix in="SourceAlpha" type="matrix" values="0 0 0 0 0 0 0 0 0 0 0 0 0 0 0 0 0 0 127 0"/>
<feOffset dy="4"/>
<feGaussianBlur stdDeviation="5"/>
<feColorMatrix type="matrix" values="0 0 0 0 0.172549 0 0 0 0 0.631373 0 0 0 0 0.776471 0 0 0 0.15 0"/>
<feBlend mode="normal" in2="BackgroundImageFix" result="effect1_dropShadow"/>
<feBlend mode="normal" in="SourceGraphic" in2="effect1_dropShadow" result="shape"/>
</filter>
</defs>
</svg>
