<svg width="16" height="16" viewBox="0 0 16 16" fill="none" xmlns="http://www.w3.org/2000/svg">
<path fill-rule="evenodd" clip-rule="evenodd" d="M7.23768 5.55863C7.58308 5.09316 7.70693 4.60259 7.31629 4.16957C6.43966 2.94292 5.8501 2.18436 5.4803 1.81906C4.77726 1.12457 3.62074 1.21851 3.01186 1.81846C2.68482 2.14071 2.57411 2.25136 2.23831 2.59244C0.367877 4.46388 1.50856 8.42003 4.54093 11.4554C7.5726 14.49 11.5284 15.6313 13.4027 13.7559C13.7126 13.4572 13.975 13.1947 14.1819 12.976C14.7786 12.3453 14.8691 11.2398 14.1779 10.5216C13.8236 10.1534 13.1002 9.59234 11.822 8.67799C11.4305 8.32792 10.9663 8.40379 10.5407 8.68299C10.336 8.81729 10.187 8.95315 9.9057 9.23474L9.39487 9.74585C9.32759 9.81317 8.41399 9.35564 7.52714 8.46792C6.63981 7.57972 6.1826 6.66607 6.24956 6.59911L6.76075 6.08765C6.85 5.99831 6.89267 5.95506 6.94739 5.89755C7.06139 5.77773 7.15578 5.66899 7.23768 5.55863ZM10.3372 10.6886L10.8481 10.1774C11.0029 10.0225 11.1032 9.92717 11.1849 9.86147C12.3046 10.6656 12.9531 11.1712 13.218 11.4465C13.3771 11.6117 13.3524 11.9132 13.2141 12.0594C13.0228 12.2616 12.7742 12.5103 12.4692 12.8045C11.2571 14.0171 8.06393 13.0958 5.48342 10.5127C2.9021 7.92889 1.98126 4.73521 3.18413 3.53167C3.51857 3.192 3.62453 3.08609 3.9469 2.76845C4.06777 2.64935 4.39701 2.62261 4.54405 2.76786C4.82876 3.0491 5.35689 3.72534 6.13381 4.80757C6.09359 4.8575 6.04335 4.91393 5.98222 4.97818C5.93735 5.02533 5.89997 5.06322 5.81825 5.14502L5.30757 5.65598C4.43881 6.52468 5.17868 8.00316 6.58465 9.41051C7.98965 10.8169 9.46868 11.5576 10.3372 10.6886Z" fill="#2CA1C6"/>
</svg>
