<svg width="12" height="30" viewBox="0 0 12 30" fill="none" xmlns="http://www.w3.org/2000/svg">
<path d="M9.84023 14.04C10.8962 14.04 11.7602 13.176 11.7602 12.12V2.51998C11.7602 1.46398 10.8962 0.599976 9.84023 0.599976H2.16023C1.10423 0.599976 0.240234 1.46398 0.240234 2.51998V12.12C0.240234 13.176 1.10423 14.04 2.16023 14.04H5.36023V15.96H0.880234C0.528234 15.96 0.240234 16.248 0.240234 16.6V19.8C0.240234 20.152 0.528234 20.44 0.880234 20.44H5.36023V28.76C5.36023 29.112 5.64823 29.4 6.00023 29.4C6.35223 29.4 6.64023 29.112 6.64023 28.76V20.44H11.1202C11.4722 20.44 11.7602 20.152 11.7602 19.8V16.6C11.7602 16.248 11.4722 15.96 11.1202 15.96H6.64023V14.04H9.84023ZM10.4802 19.16H1.52023V17.24H10.4802V19.16ZM1.52023 12.12V2.51998C1.52023 2.16798 1.80823 1.87998 2.16023 1.87998H9.84023C10.1922 1.87998 10.4802 2.16798 10.4802 2.51998V12.12C10.4802 12.472 10.1922 12.76 9.84023 12.76H2.16023C1.80823 12.76 1.52023 12.472 1.52023 12.12ZM6.32023 8.27998C7.56823 8.27998 8.56023 7.28798 8.56023 6.03998C8.56023 4.79198 7.56823 3.79998 6.32023 3.79998H4.08023C3.72823 3.79998 3.44023 4.08798 3.44023 4.43998V7.63998V10.2C3.44023 10.552 3.72823 10.84 4.08023 10.84C4.43223 10.84 4.72023 10.552 4.72023 10.2V8.27998H6.32023ZM7.28023 6.03998C7.28023 6.58398 6.86423 6.99998 6.32023 6.99998H4.72023V5.07998H6.32023C6.86423 5.07998 7.28023 5.49598 7.28023 6.03998Z" fill="#2CA1C6"/>
</svg>
