<svg width="19" height="17" viewBox="0 0 19 17" fill="none" xmlns="http://www.w3.org/2000/svg">
<path fill-rule="evenodd" clip-rule="evenodd" d="M4.57009 10.8031C4.60908 10.839 4.62687 10.8908 4.61766 10.9414L3.55065 16.817C3.52747 16.9446 3.66932 17.042 3.79069 16.9817L9.37765 14.2076C9.42584 14.1837 9.48342 14.1837 9.53162 14.2076L15.1186 16.9817C15.2399 17.042 15.3818 16.9446 15.3586 16.817L14.2916 10.9414C14.2824 10.8908 14.3002 10.839 14.3392 10.8031L18.8591 6.64206C18.9573 6.55167 18.9031 6.39417 18.7674 6.37555L12.521 5.51832C12.4671 5.51093 12.4206 5.47896 12.3965 5.43285L9.60299 0.0870965C9.5423 -0.0290321 9.36696 -0.0290322 9.30628 0.0870963L6.5128 5.43285C6.4887 5.47896 6.44212 5.51093 6.38824 5.51832L0.141828 6.37555C0.0061335 6.39417 -0.0480486 6.55166 0.0501405 6.64206L4.57009 10.8031ZM12.5616 10.2577C12.5226 10.2936 12.5048 10.3453 12.514 10.396L13.1614 13.9608C13.1846 14.0884 13.0427 14.1858 12.9214 14.1255L9.53162 12.4424C9.48342 12.4185 9.42584 12.4185 9.37765 12.4424L5.9879 14.1255C5.86653 14.1858 5.72468 14.0884 5.74786 13.9608L6.39524 10.396C6.40445 10.3453 6.38665 10.2936 6.34766 10.2577L3.6053 7.73303C3.50711 7.64263 3.56129 7.48514 3.69698 7.46652L7.48684 6.94641C7.54073 6.93902 7.58731 6.90706 7.61141 6.86094L9.30628 3.61754C9.36696 3.50141 9.5423 3.50141 9.60299 3.61754L11.2979 6.86094C11.322 6.90706 11.3685 6.93902 11.4224 6.94641L15.2123 7.46652C15.348 7.48514 15.4022 7.64263 15.304 7.73303L12.5616 10.2577Z" fill="#2CA1C6"/>
</svg>
