<svg width="186" height="68" viewBox="0 0 186 68" fill="none" xmlns="http://www.w3.org/2000/svg">
<g filter="url(#filter0_d)">
<circle cx="152" cy="30" r="24" fill="#2CA1C6"/>
<path d="M162 29.7427C162 35.1231 157.604 39.4848 152.181 39.4848C150.46 39.4848 148.843 39.0446 147.436 38.2737L142 40L143.772 34.7716C142.878 33.3042 142.364 31.5812 142.364 29.7421C142.365 24.3617 146.759 20 152.182 20C157.605 20.0013 162 24.3623 162 29.7427ZM152.18 21.5535C147.629 21.5535 143.927 25.2278 143.927 29.7447C143.927 31.5368 144.511 33.1959 145.499 34.5459L144.468 37.587L147.639 36.5794C148.944 37.435 150.504 37.9333 152.18 37.9333C156.732 37.9333 160.435 34.2596 160.435 29.7427C160.437 25.2278 156.732 21.5535 152.18 21.5535ZM157.139 31.9868C157.078 31.8883 156.918 31.8283 156.678 31.7084C156.438 31.5884 155.253 31.0112 155.034 30.9329C154.812 30.8527 154.651 30.8123 154.491 31.0516C154.332 31.291 153.871 31.8284 153.729 31.9888C153.589 32.1486 153.449 32.1688 153.208 32.0507C152.967 31.9294 152.191 31.679 151.272 30.8658C150.556 30.2318 150.073 29.4512 149.934 29.2119C149.792 28.9732 149.919 28.844 150.039 28.7253C150.146 28.6177 150.279 28.4462 150.4 28.306C150.521 28.1671 150.56 28.0686 150.641 27.9088C150.719 27.749 150.68 27.6101 150.62 27.4895C150.56 27.3695 150.08 26.1956 149.878 25.7175C149.678 25.2402 149.478 25.3191 149.337 25.3191C149.197 25.3191 149.036 25.2995 148.876 25.2995C148.715 25.2995 148.454 25.3576 148.235 25.5969C148.015 25.8362 147.393 26.4134 147.393 27.5886C147.393 28.7651 148.254 29.8992 148.375 30.0584C148.496 30.2168 150.041 32.7075 152.487 33.6635C154.934 34.619 154.934 34.3001 155.375 34.2596C155.817 34.2192 156.8 33.6825 156.999 33.1255C157.2 32.566 157.2 32.0866 157.139 31.9868Z" fill="white"/>
</g>
<circle cx="24" cy="30" r="24" fill="#2CA1C6"/>
<path fill-rule="evenodd" clip-rule="evenodd" d="M15.7778 22H31.7778C32.7596 22 33.5556 22.7959 33.5556 23.7778V36.2222C33.5556 37.2041 32.7596 38 31.7778 38H15.7778C14.7959 38 14 37.2041 14 36.2222V23.7778C14 22.7959 14.7959 22 15.7778 22ZM15.778 27.8828V36.2222H31.778V27.8831L23.7779 31.8832L15.778 27.8828ZM15.778 25.8951L23.778 29.8955L31.778 25.8955V23.7778H15.778V25.8951Z" fill="white"/>
<g filter="url(#filter1_d)">
<circle cx="88" cy="30" r="24" fill="#2CA1C6"/>
</g>
<path fill-rule="evenodd" clip-rule="evenodd" d="M87.0884 27.0706C87.5028 26.5121 87.6515 25.9235 87.1827 25.4039C86.1309 23.932 85.4235 23.0219 84.9798 22.5836C84.1362 21.7502 82.7485 21.863 82.0179 22.5828C81.6255 22.9695 81.4927 23.1023 81.0898 23.5115C78.8455 25.757 80.2142 30.5039 83.8526 34.146C87.4903 37.7872 92.2367 39.1566 94.4857 36.9063C94.8575 36.5479 95.1723 36.233 95.4206 35.9705C96.1365 35.2138 96.2452 33.8873 95.4159 33.0256C94.9907 32.5838 94.1227 31.9105 92.589 30.8134C92.1192 30.3934 91.5623 30.4844 91.0516 30.8194C90.806 30.9806 90.6272 31.1436 90.2897 31.4815L89.6768 32.0947C89.596 32.1755 88.4998 31.6265 87.4357 30.5614C86.371 29.4956 85.8224 28.3994 85.9028 28.319L86.5161 27.7053C86.6232 27.5981 86.6744 27.5462 86.7401 27.4772C86.8769 27.3335 86.9901 27.203 87.0884 27.0706ZM90.8074 33.226L91.4204 32.6126C91.6062 32.4267 91.7266 32.3124 91.8245 32.2335C93.1681 33.1984 93.9463 33.8051 94.2641 34.1353C94.4549 34.3336 94.4253 34.6954 94.2594 34.8707C94.0298 35.1134 93.7316 35.4118 93.3655 35.7649C91.9113 37.2198 88.0798 36.1143 84.9835 33.015C81.8862 29.9147 80.7813 26.0826 82.2246 24.6385C82.6259 24.231 82.7531 24.1039 83.1399 23.7228C83.2849 23.5799 83.6799 23.5478 83.8564 23.7221C84.198 24.0595 84.8317 24.8709 85.7639 26.1695C85.7156 26.2294 85.6553 26.2971 85.582 26.3742C85.5282 26.4307 85.4833 26.4762 85.3853 26.5744L84.7725 27.1875C83.7301 28.2298 84.6178 30.0038 86.3048 31.6924C87.9907 33.3799 89.7653 34.2687 90.8074 33.226Z" fill="white"/>
<defs>
<filter id="filter0_d" x="118" y="0" width="68" height="68" filterUnits="userSpaceOnUse" color-interpolation-filters="sRGB">
<feFlood flood-opacity="0" result="BackgroundImageFix"/>
<feColorMatrix in="SourceAlpha" type="matrix" values="0 0 0 0 0 0 0 0 0 0 0 0 0 0 0 0 0 0 127 0"/>
<feOffset dy="4"/>
<feGaussianBlur stdDeviation="5"/>
<feColorMatrix type="matrix" values="0 0 0 0 0.172549 0 0 0 0 0.631373 0 0 0 0 0.776471 0 0 0 0.15 0"/>
<feBlend mode="normal" in2="BackgroundImageFix" result="effect1_dropShadow"/>
<feBlend mode="normal" in="SourceGraphic" in2="effect1_dropShadow" result="shape"/>
</filter>
<filter id="filter1_d" x="54" y="0" width="68" height="68" filterUnits="userSpaceOnUse" color-interpolation-filters="sRGB">
<feFlood flood-opacity="0" result="BackgroundImageFix"/>
<feColorMatrix in="SourceAlpha" type="matrix" values="0 0 0 0 0 0 0 0 0 0 0 0 0 0 0 0 0 0 127 0"/>
<feOffset dy="4"/>
<feGaussianBlur stdDeviation="5"/>
<feColorMatrix type="matrix" values="0 0 0 0 0.172549 0 0 0 0 0.631373 0 0 0 0 0.776471 0 0 0 0.15 0"/>
<feBlend mode="normal" in2="BackgroundImageFix" result="effect1_dropShadow"/>
<feBlend mode="normal" in="SourceGraphic" in2="effect1_dropShadow" result="shape"/>
</filter>
</defs>
</svg>
