<svg width="16" height="16" viewBox="0 0 16 16" fill="none" xmlns="http://www.w3.org/2000/svg">
<path fill-rule="evenodd" clip-rule="evenodd" d="M7.99984 15.3333C3.94975 15.3333 0.666504 12.0501 0.666504 8C0.666504 3.94992 3.94975 0.666672 7.99984 0.666672C12.0499 0.666672 15.3332 3.94992 15.3332 8C15.3332 12.0501 12.0499 15.3333 7.99984 15.3333ZM7.99984 14C11.3135 14 13.9998 11.3137 13.9998 8.00001C13.9998 4.6863 11.3135 2.00001 7.99984 2.00001C4.68613 2.00001 1.99984 4.6863 1.99984 8.00001C1.99984 11.3137 4.68613 14 7.99984 14ZM11.3332 7.33334H8.6665V4.00001H7.33317V8.66667H11.3332V7.33334Z" fill="#2CA1C6"/>
</svg>
