<?xml version="1.0" standalone="no"?>
<!DOCTYPE svg PUBLIC "-//W3C//DTD SVG 1.1//EN" "http://www.w3.org/Graphics/SVG/1.1/DTD/svg11.dtd" >
<svg xmlns="http://www.w3.org/2000/svg" xmlns:xlink="http://www.w3.org/1999/xlink" version="1.1">
<metadata>
Created by FontForge 20170731 at Thu May 26 20:57:08 2016
 By Aleksey,,,
Copyright (c) 2012 by Henrik Kubel, A2/SW/HK + A2-TYPE. All rights reserved.
</metadata>
<defs>
<font id="Regular-MediumItalic" horiz-adv-x="430" >
  <font-face 
    font-family="Regular Medium Italic"
    font-weight="560"
    font-style="italic"
    font-stretch="normal"
    units-per-em="1000"
    panose-1="2 0 6 3 4 0 0 9 0 3"
    ascent="750"
    descent="-250"
    x-height="448"
    cap-height="700"
    bbox="-284 -264 1192 964"
    underline-thickness="66"
    underline-position="-409"
    slope="-12"
    unicode-range="U+0020-FB06"
  />
<missing-glyph horiz-adv-x="500" 
d="M292 141v61h17q14 0 14 -18v-26q0 -17 -14 -17h-17zM460 373v20q0 24 -23 24h-9q-24 0 -24 -24v-20q0 -24 24 -24h9q23 0 23 24zM65 202v-160h28v160h30v26h-88v-26h30zM205 107l32 121h-29l-17 -77l-20 77h-30l33 -121v-65h31v65zM380 228v-186h85v27h-55v54h32v27h-32
v52h55v26h-85zM264 228v-186h28v71h24q16 0 26 11.5t10 29.5v33q0 19 -10 30t-26 11h-52zM355 365l79 105q26 33 26 81v16q0 40 -25.5 66t-61.5 26h-17q-36 0 -62 -26t-26 -66v-50h62v42q0 40 33 40h3q31 0 31 -40v-7q-1 -30 -21 -57l-78 -104q-29 -38 -29 -78v-43h192v61
h-122v4q0 9 16 30zM170 347l8 -77h66l-43 387h-118l-43 -387h65l7 77h58zM415 374v18q0 15 14 15h6q14 0 14 -15v-4h-11v1q0 8 -6 8t-6 -8v-12q0 -8 6 -8t6 8v1h11v-4q0 -15 -14 -15h-6q-14 0 -14 15zM0 29v642q0 12 8 20.5t20 8.5h445q11 0 19 -8.5t8 -20.5v-642
q0 -12 -8 -20.5t-19 -8.5h-445q-12 0 -20 8.5t-8 20.5zM146 604l18 -196h-46l18 196h10z" />
    <glyph glyph-name="f_j" unicode="fj" horiz-adv-x="505" 
d="M310 -72l79 455h-190l-66 -383h-77l66 383h-75l12 65h74l25 147q10 58 42 83t73 25l79 -4l-12 -69q-25 5 -45 5q-29 0 -42.5 -10.5t-19.5 -42.5l-22 -134h267l-92 -530q-5 -30 -17 -50t-29.5 -29t-33 -12t-36.5 -3h-66l11 65h42q23 0 36 8t17 31zM399 611q0 25 17.5 43
t43.5 18t43.5 -18t17.5 -43t-17.5 -43t-43.5 -18t-43.5 18t-17.5 43z" />
    <glyph glyph-name="f_i" unicode="fi" horiz-adv-x="505" 
d="M478 448l-78 -448h-77l66 383h-190l-66 -383h-77l66 383h-75l12 65h74l25 147q10 58 42 83t73 25l79 -4l-12 -69q-25 5 -45 5q-29 0 -42.5 -10.5t-19.5 -42.5l-22 -134h267zM400 611q0 25 18 43t43 18t43 -18t18 -43t-18 -43t-43 -18t-43 18t-18 43z" />
    <glyph glyph-name="f_f_f" unicode="fff" horiz-adv-x="823" 
d="M400 448l25 147q10 58 42 83t73 25l79 -4l-12 -69q-25 5 -45 5q-29 0 -42.5 -10.5t-19.5 -42.5l-22 -134h189l25 147q10 58 42 83t73 25l79 -4l-12 -69q-25 5 -45 5q-29 0 -42.5 -10.5t-19.5 -42.5l-22 -134h92l-12 -65h-92l-66 -383h-77l66 383h-190l-66 -383h-77
l66 383h-190l-66 -383h-77l66 383h-75l12 65h74l25 147q10 58 42 83t73 25l79 -4l-12 -69q-25 5 -45 5q-29 0 -42.5 -10.5t-19.5 -42.5l-22 -134h189z" />
    <glyph glyph-name="f_f" unicode="ff" horiz-adv-x="556" 
d="M400 448l25 147q10 58 42 83t73 25l79 -4l-12 -69q-25 5 -45 5q-29 0 -42.5 -10.5t-19.5 -42.5l-22 -134h92l-12 -65h-92l-66 -383h-77l66 383h-190l-66 -383h-77l66 383h-75l12 65h74l25 147q10 58 42 83t73 25l79 -4l-12 -69q-25 5 -45 5q-29 0 -42.5 -10.5
t-19.5 -42.5l-22 -134h189z" />
    <glyph glyph-name=".notdef" horiz-adv-x="500" 
d="M292 141v61h17q14 0 14 -18v-26q0 -17 -14 -17h-17zM460 373v20q0 24 -23 24h-9q-24 0 -24 -24v-20q0 -24 24 -24h9q23 0 23 24zM65 202v-160h28v160h30v26h-88v-26h30zM205 107l32 121h-29l-17 -77l-20 77h-30l33 -121v-65h31v65zM380 228v-186h85v27h-55v54h32v27h-32
v52h55v26h-85zM264 228v-186h28v71h24q16 0 26 11.5t10 29.5v33q0 19 -10 30t-26 11h-52zM355 365l79 105q26 33 26 81v16q0 40 -25.5 66t-61.5 26h-17q-36 0 -62 -26t-26 -66v-50h62v42q0 40 33 40h3q31 0 31 -40v-7q-1 -30 -21 -57l-78 -104q-29 -38 -29 -78v-43h192v61
h-122v4q0 9 16 30zM170 347l8 -77h66l-43 387h-118l-43 -387h65l7 77h58zM415 374v18q0 15 14 15h6q14 0 14 -15v-4h-11v1q0 8 -6 8t-6 -8v-12q0 -8 6 -8t6 8v1h11v-4q0 -15 -14 -15h-6q-14 0 -14 15zM0 29v642q0 12 8 20.5t20 8.5h445q11 0 19 -8.5t8 -20.5v-642
q0 -12 -8 -20.5t-19 -8.5h-445q-12 0 -20 8.5t-8 20.5zM146 604l18 -196h-46l18 196h10z" />
    <glyph glyph-name=".null" horiz-adv-x="0" 
 />
    <glyph glyph-name="nonmarkingreturn" horiz-adv-x="333" 
 />
    <glyph glyph-name="space" unicode=" " horiz-adv-x="200" 
 />
    <glyph glyph-name="exclam" unicode="!" horiz-adv-x="258" 
d="M161 224h-74l81 476h78zM102 -12q-27 0 -46.5 19t-19.5 46t19.5 46t46.5 19t46.5 -19t19.5 -46t-19.5 -46t-46.5 -19z" />
    <glyph glyph-name="quotedbl" unicode="&#x22;" horiz-adv-x="374" 
d="M108 448l44 252h80l-44 -252h-80zM266 448l44 252h80l-44 -252h-80z" />
    <glyph glyph-name="numbersign" unicode="#" horiz-adv-x="530" 
d="M89 428l11 65h86l26 145h68l-25 -145h112l26 145h69l-25 -145h87l-11 -65h-87l-20 -117h87l-11 -65h-87l-26 -145h-69l25 145h-112l-26 -145h-68l25 145h-86l11 65h86l20 117h-86zM244 428l-21 -117h113l21 117h-113z" />
    <glyph glyph-name="dollar" unicode="$" horiz-adv-x="511" 
d="M524 612l-49 -49q-33 41 -78 63l-73 -247l8 -6q72 -57 99.5 -100.5t27.5 -98.5q0 -76 -57 -131t-152 -55q-22 0 -41 3l-24 -84h-65l29 98q-78 28 -132 99l50 52q38 -56 102 -84l80 270l-22 17q-56 43 -85 84.5t-29 90.5q0 84 59.5 131t142.5 47q23 0 42 -4l22 72h64
l-26 -89q67 -27 107 -79zM381 176q0 31 -18 60t-62 65l-72 -245q5 -1 15 -1q65 0 101 35t36 86zM191 537q0 -29 16 -53.5t55 -55.5l10 -8l66 223q-14 2 -21 2q-58 0 -92 -30.5t-34 -77.5z" />
    <glyph glyph-name="percent" unicode="%" horiz-adv-x="765" 
d="M98 557q0 64 45 109.5t109 45.5t109 -45.5t45 -109.5t-45 -109t-109 -45t-109 45t-45 109zM163 557q0 -38 26 -66t63 -28t63 28t26 66q0 39 -26 66.5t-63 27.5t-63 -27.5t-26 -66.5zM713 142q0 -64 -45 -109t-109 -45t-109.5 45t-45.5 109t45.5 109.5t109.5 45.5
t109 -45.5t45 -109.5zM648 142q0 39 -26 66.5t-63 27.5t-63 -27.5t-26 -66.5q0 -38 26 -66t63 -28t63 28t26 66zM716 547l-586 -449l-38 51l585 449z" />
    <glyph glyph-name="ampersand" unicode="&#x26;" horiz-adv-x="631" 
d="M37 164q0 68 37.5 119t119.5 112q-45 67 -45 136q0 76 49 128.5t130 52.5q73 0 118 -41t45 -101q0 -55 -35 -101l-66 17q27 46 27 77q0 37 -24.5 59t-63.5 22q-50 0 -76 -33.5t-26 -81.5q0 -46 28 -89q20 -31 62.5 -89.5t75.5 -100.5l33 -43q54 76 94 162h87
q-72 -137 -137 -220l112 -144l-2 -5h-90l-69 89q-83 -101 -200 -101q-83 0 -133.5 52t-50.5 124zM378 146l-147 196q-64 -54 -89 -90.5t-25 -85.5q0 -45 32.5 -76t73.5 -31q38 0 69 14t46 29t40 44z" />
    <glyph glyph-name="quotesingle" unicode="'" horiz-adv-x="216" 
d="M108 448l44 252h80l-44 -252h-80z" />
    <glyph glyph-name="parenleft" unicode="(" horiz-adv-x="313" 
d="M46 200q0 139 66.5 267.5t181.5 232.5h76l-3 -14q-116 -112 -179 -230.5t-63 -264.5q0 -169 103 -329l-3 -15h-66q-113 176 -113 353z" />
    <glyph glyph-name="parenright" unicode=")" horiz-adv-x="313" 
d="M285 347q0 -139 -66.5 -267.5t-181.5 -232.5h-76l3 14q116 112 179 230.5t63 264.5q0 169 -103 329l3 15h66q113 -176 113 -353z" />
    <glyph glyph-name="asterisk" unicode="*" horiz-adv-x="503" 
d="M279 454l21 -3q11 -114 6 -148q-3 -16 -17.5 -26t-30.5 -7q-17 3 -27.5 17t-7.5 31q6 33 56 136zM411 350q-14 11 -95 108l14 19q103 -39 132 -61q13 -11 15.5 -27.5t-7.5 -30.5q-11 -14 -28 -16.5t-31 8.5zM140 398q-17 -5 -32 2.5t-20 24.5q-5 16 3.5 31.5t23.5 20.5
q24 8 144 12l8 -22q-113 -65 -127 -69zM313 525l-21 3q-11 114 -6 148q3 16 17.5 26t32.5 6q16 -2 26 -16.5t7 -30.5q-6 -33 -56 -136zM452 581q17 5 32 -2.5t20 -24.5q5 -16 -3 -31.5t-24 -20.5q-40 -12 -144 -12l-8 22q6 3 27.5 16t37 22t34 18.5t28.5 12.5zM181 629
q8 -6 22.5 -21.5t26 -29.5t27.5 -33.5t19 -23.5l-14 -19q-110 43 -132 61q-13 10 -15.5 27t7.5 31q11 14 28 16.5t31 -8.5z" />
    <glyph glyph-name="plus" unicode="+" horiz-adv-x="480" 
d="M41 323l12 68h181l32 181h72l-32 -181h181l-12 -68h-181l-31 -179h-72l31 179h-181z" />
    <glyph glyph-name="comma" unicode="," horiz-adv-x="251" 
d="M33 52q0 27 19 46.5t47 19.5q27 0 46 -19t19 -45q0 -25 -19 -50l-91 -112l-58 10l65 97q-28 18 -28 53z" />
    <glyph glyph-name="hyphen" unicode="-" horiz-adv-x="250" 
d="M31 230l11 65h190l-11 -65h-190z" />
    <glyph glyph-name="period" unicode="." horiz-adv-x="249" 
d="M97 -12q-27 0 -46.5 19t-19.5 46t19.5 46t46.5 19t46.5 -19t19.5 -46t-19.5 -46t-46.5 -19z" />
    <glyph glyph-name="slash" unicode="/" horiz-adv-x="387" 
d="M6 0l351 700h69l-351 -700h-69z" />
    <glyph glyph-name="zero" unicode="0" horiz-adv-x="503" 
d="M321 712q172 0 172 -224q0 -62 -16 -155q-60 -345 -249 -345q-173 0 -173 225q0 56 17 156q61 343 249 343zM151 362q-18 -100 -18 -155q0 -149 97 -149q116 0 170 282q17 91 17 153q0 150 -99 150q-60 0 -100.5 -69.5t-66.5 -211.5z" />
    <glyph glyph-name="one" unicode="1" horiz-adv-x="503" 
d="M163 631l12 69h216l-113 -631h135l-12 -69h-350l12 69h136l100 562h-136z" />
    <glyph glyph-name="two" unicode="2" horiz-adv-x="503" 
d="M283 214l-173 -141h322l-12 -73h-421l14 76q122 101 248 207q44 37 60.5 51.5t50.5 51t48 70t14 69.5q0 48 -32.5 83t-89.5 35q-54 0 -91.5 -34t-37.5 -92q0 -25 8 -59l-74 -8q-10 35 -10 68q0 82 54 138t154 56q91 0 145 -54t54 -126q0 -75 -44.5 -138.5t-186.5 -179.5z
" />
    <glyph glyph-name="three" unicode="3" horiz-adv-x="503" 
d="M41 222h78q-7 -33 -7 -56q0 -49 29 -79.5t89 -30.5q63 0 104 52.5t41 126.5q0 61 -39 92.5t-106 31.5q-21 0 -42 -3l12 68l225 206h-294l15 70h374l-15 -80l-226 -204q78 -1 126.5 -50.5t48.5 -124.5q0 -102 -61 -177.5t-163 -75.5q-92 0 -143.5 48.5t-51.5 128.5
q0 29 6 57z" />
    <glyph glyph-name="four" unicode="4" horiz-adv-x="503" 
d="M14 212l13 65l313 423h125l-77 -423h108l-13 -65h-106l-39 -212h-80l38 212h-282zM375 649l-271 -372h205z" />
    <glyph glyph-name="five" unicode="5" horiz-adv-x="503" 
d="M42 222h80q-8 -32 -8 -56q0 -49 29.5 -79.5t89.5 -30.5q67 0 108.5 58t41.5 143q0 125 -118 125q-59 0 -100 -41l-72 9l71 350h348l-13 -73h-282l-43 -208l2 -1q42 33 105 33q89 0 135 -54t46 -140q0 -118 -63.5 -193.5t-165.5 -75.5q-91 0 -144.5 48.5t-53.5 128.5
q0 27 7 57z" />
    <glyph glyph-name="six" unicode="6" horiz-adv-x="503" 
d="M358 698h110q-57 -47 -145 -135.5t-150 -172.5l2 -1q53 39 118 39q72 0 126 -52.5t54 -142.5q0 -109 -66 -177t-166 -68q-90 0 -144.5 56.5t-54.5 147.5q0 234 316 506zM266 363q-66 0 -105 -53t-39 -121q0 -58 31 -95.5t93 -37.5q67 0 107 50t40 123q0 58 -31.5 96
t-95.5 38z" />
    <glyph glyph-name="seven" unicode="7" horiz-adv-x="503" 
d="M189 0h-94l348 627h-333l14 73h415l-12 -68z" />
    <glyph glyph-name="eight" unicode="8" horiz-adv-x="503" 
d="M308 712q83 0 139 -47t56 -128q0 -60 -36.5 -112t-91.5 -72q39 -21 64 -62t25 -89q0 -96 -66.5 -155t-158.5 -59q-93 0 -151 51t-58 133q0 72 41.5 125t101.5 74q-33 20 -53.5 57t-20.5 79q0 89 60.5 147t148.5 58zM293 389q59 0 95.5 42.5t36.5 102.5q0 48 -29.5 78.5
t-89.5 30.5q-61 0 -95.5 -41t-34.5 -102q0 -49 28.5 -80t88.5 -31zM252 325q-58 0 -101.5 -43t-43.5 -104q0 -51 34 -87.5t98 -36.5q65 0 105 45t40 104q0 51 -34.5 86.5t-97.5 35.5z" />
    <glyph glyph-name="nine" unicode="9" horiz-adv-x="503" 
d="M190 2h-110q57 47 145 135.5t150 172.5l-2 1q-50 -37 -118 -37q-72 0 -126 52t-54 141q0 109 66 177t166 68q90 0 144.5 -56.5t54.5 -147.5q0 -234 -316 -506zM282 337q66 0 105 53t39 121q0 58 -31 95.5t-93 37.5q-67 0 -107 -50t-40 -123q0 -58 31.5 -96t95.5 -38z" />
    <glyph glyph-name="colon" unicode=":" horiz-adv-x="257" 
d="M97 -12q-27 0 -46.5 19t-19.5 46t19.5 46t46.5 19t46.5 -19t19.5 -46t-19.5 -46t-46.5 -19zM157 318q-27 0 -46.5 19t-19.5 46t19.5 46t46.5 19t46.5 -19t19.5 -46t-19.5 -46t-46.5 -19z" />
    <glyph glyph-name="semicolon" unicode=";" horiz-adv-x="267" 
d="M38 53q0 27 19.5 46t47.5 19q26 0 45.5 -19t19.5 -45q0 -27 -19 -50l-91 -112l-58 10l65 97q-29 19 -29 54zM163 318q-27 0 -46.5 19t-19.5 46t19.5 46t46.5 19t46.5 -19t19.5 -46t-19.5 -46t-46.5 -19z" />
    <glyph glyph-name="less" unicode="&#x3c;" horiz-adv-x="584" 
d="M560 400l-10 -65h-372l143 -166l-51 -47l-211 248l260 243l46 -49l-175 -164h370z" />
    <glyph glyph-name="equal" unicode="=" horiz-adv-x="480" 
d="M56 418l12 68h434l-12 -68h-434zM23 228l12 68h434l-12 -68h-434z" />
    <glyph glyph-name="greater" unicode="&#x3e;" horiz-adv-x="586" 
d="M76 335l10 65h372l-143 166l51 47l211 -248l-260 -243l-46 49l175 164h-370z" />
    <glyph glyph-name="question" unicode="?" horiz-adv-x="474" 
d="M490 535q0 -86 -53.5 -142.5t-143.5 -64.5l-41 -134h-66l36 198l40 2q64 3 107 41.5t43 100.5q0 48 -30 77t-84 29q-56 0 -88.5 -36.5t-42.5 -96.5l-2 -13h-77q5 95 62 155.5t148 60.5q86 0 139 -49t53 -128zM196 -12q-27 0 -46.5 19t-19.5 46t19.5 46t46.5 19t46.5 -19
t19.5 -46t-19.5 -46t-46.5 -19z" />
    <glyph glyph-name="at" unicode="@" horiz-adv-x="918" 
d="M681 -12q-45 0 -69.5 22t-30.5 53q-26 -33 -67.5 -54t-88.5 -21q-90 0 -146.5 60.5t-56.5 153.5q0 110 68.5 184t163.5 74q52 0 98.5 -26.5t65.5 -75.5l16 90h78l-54 -315q-8 -40 -2 -61.5t30 -21.5q57 0 94 68t37 174q0 126 -92.5 210.5t-228.5 84.5q-151 0 -264 -112.5
t-113 -290.5q0 -145 93 -236.5t240 -91.5q110 0 178 51l105 -14q-124 -100 -285 -100q-180 0 -292 111t-112 277q0 205 129 337t324 132q156 0 271 -102.5t115 -256.5q0 -143 -60.5 -223t-143.5 -80zM460 391q-68 0 -115 -54.5t-47 -130.5q0 -65 38 -107.5t102 -42.5
q68 0 114.5 53t46.5 132q0 65 -38 107.5t-101 42.5z" />
    <glyph glyph-name="A" unicode="A" horiz-adv-x="610" 
d="M437 239h-246l-117 -239h-86l354 700h95l115 -700h-78zM427 308l-46 313h-1l-155 -313h202z" />
    <glyph glyph-name="B" unicode="B" horiz-adv-x="544" 
d="M518 545q0 -63 -35 -110.5t-98 -65.5q53 -17 85 -58t32 -96q0 -95 -68 -155t-180 -60h-206l121 700h166q85 0 134 -46.5t49 -108.5zM186 335l-47 -268h96q85 0 136 37t51 108q0 62 -44 92.5t-111 30.5h-81zM325 632h-88l-39 -230h79q69 0 115.5 33.5t46.5 97.5
q0 48 -33 73.5t-81 25.5z" />
    <glyph glyph-name="C" unicode="C" horiz-adv-x="745" 
d="M738 481h-82q-24 75 -81.5 118.5t-143.5 43.5q-123 0 -205 -90.5t-82 -227.5q0 -114 68.5 -191t183.5 -77q82 0 144 43t99 119h84q-39 -105 -128 -168t-198 -63q-143 0 -237 97t-94 243q0 165 108 274.5t256 109.5q114 0 197 -63.5t111 -167.5z" />
    <glyph glyph-name="D" unicode="D" horiz-adv-x="681" 
d="M662 399q0 -174 -107.5 -286.5t-286.5 -112.5h-220l121 700h175q147 0 232.5 -84t85.5 -217zM139 67h112q151 0 241 89.5t90 247.5q0 109 -70.5 169t-192.5 60h-82z" />
    <glyph glyph-name="E" unicode="E" horiz-adv-x="588" 
d="M638 700l-12 -70h-390l-41 -239h251l-12 -68h-251l-44 -254h390l-12 -69h-469l121 700h469z" />
    <glyph glyph-name="F" unicode="F" horiz-adv-x="552" 
d="M450 304h-269l-53 -304h-80l121 700h449l-12 -70h-369l-44 -257h269z" />
    <glyph glyph-name="G" unicode="G" horiz-adv-x="768" 
d="M389 -12q-143 0 -233 95.5t-90 244.5q0 165 108 274.5t257 109.5q115 0 202.5 -64t115.5 -167h-82q-24 74 -86 118t-149 44q-123 0 -205.5 -90.5t-82.5 -227.5q0 -114 68 -191t183 -77q98 0 166 60t82 122h-169l11 69h249l-53 -308h-71l18 110q-33 -51 -94.5 -86.5
t-144.5 -35.5z" />
    <glyph glyph-name="H" unicode="H" horiz-adv-x="662" 
d="M659 700l-121 -700h-80l56 323h-330l-56 -323h-80l121 700h80l-53 -309h329l54 309h80z" />
    <glyph glyph-name="I" unicode="I" horiz-adv-x="252" 
d="M249 700l-121 -700h-80l121 700h80z" />
    <glyph glyph-name="J" unicode="J" horiz-adv-x="574" 
d="M34 277h78l-5 -32q-12 -77 24.5 -132t116.5 -55q70 0 112 45.5t54 113.5l84 483h80l-85 -493q-17 -98 -81.5 -158.5t-166.5 -60.5q-113 0 -173.5 74.5t-41.5 192.5z" />
    <glyph glyph-name="K" unicode="K" horiz-adv-x="587" 
d="M249 700l-51 -299h30l339 299h105l-385 -334l256 -366h-94l-228 333h-35l-58 -333h-80l121 700h80z" />
    <glyph glyph-name="L" unicode="L" horiz-adv-x="479" 
d="M431 0h-383l121 700h80l-109 -631h303z" />
    <glyph glyph-name="M" unicode="M" horiz-adv-x="816" 
d="M432 121h-82l-119 496l-107 -617h-76l121 700h117l118 -499l286 499h123l-121 -700h-80l107 617z" />
    <glyph glyph-name="N" unicode="N" horiz-adv-x="662" 
d="M231 594l-103 -594h-80l121 700h103l206 -583l101 583h80l-121 -700h-94z" />
    <glyph glyph-name="O" unicode="O" horiz-adv-x="782" 
d="M762 372q0 -164 -108.5 -274t-256.5 -110q-143 0 -237 97t-94 243q0 164 108.5 274t256.5 110q143 0 237 -97t94 -243zM144 325q0 -113 69 -190.5t183 -77.5q123 0 205 90.5t82 227.5q0 113 -68.5 190.5t-182.5 77.5q-123 0 -205.5 -90.5t-82.5 -227.5z" />
    <glyph glyph-name="P" unicode="P" horiz-adv-x="552" 
d="M175 271l-47 -271h-80l121 700h172q99 0 164 -54.5t65 -138.5q0 -107 -69.5 -171.5t-198.5 -64.5h-127zM337 631h-100l-50 -291h119q81 0 132.5 38.5t51.5 120.5q0 60 -42 96t-111 36z" />
    <glyph glyph-name="Q" unicode="Q" horiz-adv-x="782" 
d="M762 372q0 -104 -46.5 -189.5t-124.5 -136.5l30 -44q34 -52 79 -52l56 3v-70q-26 -4 -62 -4q-80 0 -128 72l-40 61q-66 -24 -129 -24q-143 0 -237 97t-94 243q0 164 108.5 274t256.5 110q143 0 237 -97t94 -243zM144 325q0 -113 69 -190.5t183 -77.5q48 0 91 15l-65 100
l60 42l71 -109q60 42 95 113t35 157q0 113 -68.5 190.5t-182.5 77.5q-123 0 -205.5 -90.5t-82.5 -227.5z" />
    <glyph glyph-name="R" unicode="R" horiz-adv-x="595" 
d="M474 0l-166 306h-127l-53 -306h-80l121 700h195q101 0 158 -51t57 -127q0 -30 -9 -59.5t-29 -60t-60 -53.5t-95 -32l177 -317h-89zM193 375h117q80 0 133.5 35.5t53.5 107.5q0 52 -38.5 82.5t-104.5 30.5h-117z" />
    <glyph glyph-name="S" unicode="S" horiz-adv-x="501" 
d="M518 612l-49 -49q-65 82 -158 82q-58 0 -92 -30.5t-34 -77.5q0 -29 16 -53.5t55 -55.5l70 -55q72 -57 99.5 -100.5t27.5 -98.5q0 -76 -57 -131t-152 -55q-144 0 -233 116l50 52q27 -39 75.5 -70t101.5 -31q65 0 101 35t36 86q0 34 -21.5 66t-76.5 74l-56 43
q-56 43 -85 84.5t-29 90.5q0 84 59.5 131t142.5 47q60 0 117 -27t92 -73z" />
    <glyph glyph-name="T" unicode="T" horiz-adv-x="534" 
d="M98 700h507l-12 -69h-213l-109 -631h-80l109 631h-214z" />
    <glyph glyph-name="U" unicode="U" horiz-adv-x="624" 
d="M161 700h79l-78 -455q-13 -77 23.5 -132t117.5 -55q70 0 112 45.5t54 113.5l84 483h75l-84 -494q-17 -98 -79.5 -158t-164.5 -60q-113 0 -173.5 74.5t-41.5 192.5z" />
    <glyph glyph-name="V" unicode="V" horiz-adv-x="607" 
d="M194 0l-82 700h81l61 -617h1l338 617h84l-388 -700h-95z" />
    <glyph glyph-name="W" unicode="W" horiz-adv-x="936" 
d="M503 700h95l32 -617h1l278 617h83l-328 -700h-104l-27 615l-300 -615h-101l-16 700h77l8 -617h1z" />
    <glyph glyph-name="X" unicode="X" horiz-adv-x="581" 
d="M650 700l-292 -351l179 -349h-88l-145 295l-241 -295h-93l295 354l-166 346h85l135 -292l238 292h93z" />
    <glyph glyph-name="Y" unicode="Y" horiz-adv-x="625" 
d="M287 310l-200 390h88l159 -320h1l271 320h94l-333 -387l-55 -313h-79z" />
    <glyph glyph-name="Z" unicode="Z" horiz-adv-x="576" 
d="M518 631h-408l12 69h504l-12 -70l-518 -561h421l-12 -69h-513l12 70z" />
    <glyph glyph-name="bracketleft" unicode="[" horiz-adv-x="336" 
d="M370 630h-140l-123 -714h139l-12 -69h-218l148 853h218z" />
    <glyph glyph-name="backslash" unicode="\" horiz-adv-x="371" 
d="M185 700l112 -700h-69l-110 700h67z" />
    <glyph glyph-name="bracketright" unicode="]" horiz-adv-x="336" 
d="M-26 -153l11 69h139l123 714h-139l13 70h218l-148 -853h-217z" />
    <glyph glyph-name="asciicircum" unicode="^" horiz-adv-x="472" 
d="M34 225l237 475h104l67 -475h-80l-49 402l-197 -402h-82z" />
    <glyph glyph-name="underscore" unicode="_" horiz-adv-x="500" 
d="M-29 -176l10 65h420l-11 -65h-419z" />
    <glyph glyph-name="grave" unicode="`" horiz-adv-x="216" 
d="M175 700l69 -164h-71l-102 164h104z" />
    <glyph glyph-name="a" unicode="a" horiz-adv-x="557" 
d="M450 448h78l-77 -448h-77l12 56q-51 -68 -145 -68q-90 0 -146.5 60.5t-56.5 153.5q0 110 68.5 184t163.5 74q52 0 98.5 -26.5t65.5 -75.5l6 33zM276 391q-68 0 -115 -54.5t-47 -130.5q0 -65 38 -107.5t102 -42.5q68 0 114.5 53t46.5 132q0 65 -38 107.5t-101 42.5z" />
    <glyph glyph-name="b" unicode="b" horiz-adv-x="556" 
d="M106 0h-77l122 700h77l-42 -243l-11 -65q21 30 58.5 49t82.5 19q90 0 146.5 -60.5t56.5 -153.5q0 -110 -68.5 -184t-163.5 -74q-52 0 -98.5 26.5t-65.5 75.5zM281 57q68 0 115 54.5t47 130.5q0 65 -38 107.5t-102 42.5q-68 0 -114.5 -53t-46.5 -132q0 -65 38 -107.5
t101 -42.5z" />
    <glyph glyph-name="c" unicode="c" horiz-adv-x="483" 
d="M382 131l63 -41q-70 -102 -193 -102q-94 0 -154 62.5t-60 158.5q0 103 67.5 177t167.5 74q127 0 184 -98l-65 -41q-42 70 -115 70q-69 0 -115 -54t-46 -134q0 -63 38.5 -104.5t99.5 -41.5q74 0 128 74z" />
    <glyph glyph-name="d" unicode="d" horiz-adv-x="557" 
d="M451 0h-76l10 56q-22 -31 -60.5 -49.5t-83.5 -18.5q-90 0 -146.5 61t-56.5 153q0 111 68.5 184.5t164.5 73.5q52 0 99 -26.5t65 -75.5l30 173l29 169h78zM277 391q-69 0 -115.5 -54t-46.5 -131q0 -65 38 -107.5t101 -42.5q68 0 115 53t47 132q0 65 -38 107.5t-101 42.5z
" />
    <glyph glyph-name="e" unicode="e" horiz-adv-x="514" 
d="M480 246v-46h-365q1 -62 39 -102.5t99 -40.5q71 0 113 57h95q-31 -57 -85.5 -91.5t-120.5 -34.5q-94 0 -155.5 63t-61.5 158q0 103 67.5 177t168.5 74q91 0 148.5 -60.5t57.5 -153.5zM274 391q-55 0 -96 -35t-55 -92h279q-2 56 -37 91.5t-91 35.5z" />
    <glyph glyph-name="f" unicode="f" horiz-adv-x="289" 
d="M133 448l25 147q10 58 42 83t73 25l79 -4l-12 -69q-25 5 -45 5q-29 0 -42.5 -10.5t-19.5 -42.5l-22 -134h92l-12 -65h-92l-66 -383h-77l66 383h-75l12 65h74z" />
    <glyph glyph-name="g" unicode="g" horiz-adv-x="556" 
d="M528 448l-85 -489q-23 -135 -144 -135h-178l12 65h143q39 0 60.5 15t28.5 52l20 100q-22 -31 -60.5 -49.5t-83.5 -18.5q-90 0 -146.5 60.5t-56.5 153.5q0 110 68.5 184t163.5 74q52 0 98.5 -26.5t65.5 -75.5l16 90h78zM276 391q-68 0 -115 -54.5t-47 -130.5
q0 -65 38 -107.5t102 -42.5q68 0 114.5 53t46.5 132q0 65 -38 107.5t-101 42.5z" />
    <glyph glyph-name="h" unicode="h" horiz-adv-x="520" 
d="M161 314l-54 -314h-77l120 700h78l-28 -160l-27 -150q80 70 164 70q73 0 109 -49t23 -126l-49 -285h-78l50 288q8 47 -11.5 75.5t-63.5 28.5q-35 0 -79.5 -23t-76.5 -55z" />
    <glyph glyph-name="i" unicode="i" horiz-adv-x="230" 
d="M202 448l-78 -448h-77l66 383h-69l11 65h147zM124 611q0 25 18 43t43 18t43 -18t18 -43t-18 -43t-43 -18t-43 18t-18 43z" />
    <glyph glyph-name="j" unicode="j" horiz-adv-x="230" 
d="M34 -72l79 455h-69l11 65h147l-92 -530q-5 -30 -17 -50t-29.5 -29t-33 -12t-36.5 -3h-66l11 65h42q23 0 36 8t17 31zM123 611q0 25 17.5 43t43.5 18t43.5 -18t17.5 -43t-17.5 -43t-43.5 -18t-43.5 18t-17.5 43z" />
    <glyph glyph-name="k" unicode="k" horiz-adv-x="463" 
d="M228 700l-73 -422h45l179 170h103l-221 -202l154 -246h-87l-132 213h-53l-36 -213h-77l120 700h78z" />
    <glyph glyph-name="l" unicode="l" horiz-adv-x="213" 
d="M228 700l-121 -700h-77l121 700h77z" />
    <glyph glyph-name="m" unicode="m" horiz-adv-x="812" 
d="M634 0l50 288q8 47 -10.5 75.5t-61.5 28.5q-63 0 -149 -78l-4 -29l-49 -285h-78l50 288q8 47 -10.5 75.5t-61.5 28.5q-63 0 -149 -78l-54 -314h-77l77 448h77l-11 -58q68 70 153 70q49 0 83 -23t44 -61q48 45 87.5 64.5t86.5 19.5q73 0 110 -49t24 -126l-49 -285h-78z
" />
    <glyph glyph-name="n" unicode="n" horiz-adv-x="520" 
d="M184 448l-11 -58q80 70 160 70q73 0 111 -49t25 -126l-49 -285h-78l50 288q8 47 -11.5 75.5t-63.5 28.5q-35 0 -79.5 -23t-76.5 -55l-54 -314h-77l77 448h77z" />
    <glyph glyph-name="o" unicode="o" horiz-adv-x="529" 
d="M253 57q69 0 115.5 54t46.5 134q0 63 -38.5 104.5t-99.5 41.5q-69 0 -115.5 -54t-46.5 -134q0 -63 38.5 -104.5t99.5 -41.5zM255 -12q-94 0 -155.5 63t-61.5 158q0 103 68 177t169 74q94 0 155.5 -63t61.5 -158q0 -103 -68 -177t-169 -74z" />
    <glyph glyph-name="p" unicode="p" horiz-adv-x="557" 
d="M107 448h79l-10 -56q21 30 58.5 49t82.5 19q90 0 146.5 -61t56.5 -153q0 -111 -68.5 -184.5t-164.5 -73.5q-52 0 -98.5 26.5t-64.5 75.5l-46 -266h-79zM282 57q68 0 114.5 54t46.5 131q0 65 -38 107.5t-101 42.5q-68 0 -115 -53t-47 -132q0 -65 38 -107.5t102 -42.5z" />
    <glyph glyph-name="q" unicode="q" horiz-adv-x="556" 
d="M450 448h78l-108 -624h-78l44 232q-51 -68 -145 -68q-90 0 -146.5 60.5t-56.5 153.5q0 110 68.5 184t163.5 74q52 0 98.5 -26.5t65.5 -75.5zM276 391q-68 0 -115 -54.5t-47 -130.5q0 -65 38 -107.5t102 -42.5q68 0 114.5 53t46.5 132q0 65 -38 107.5t-101 42.5z" />
    <glyph glyph-name="r" unicode="r" horiz-adv-x="321" 
d="M341 456l-14 -76h-36q-54 0 -92 -31.5t-52 -118.5l-40 -230h-78l78 448h75l-12 -71q24 40 61.5 60.5t71.5 20.5q25 0 38 -2z" />
    <glyph glyph-name="s" unicode="s" horiz-adv-x="398" 
d="M384 383l-50 -43q-18 25 -49 40.5t-62 15.5q-40 0 -58.5 -17.5t-18.5 -38.5t9.5 -33.5t34.5 -26.5l62 -35q47 -27 69 -55.5t22 -71.5q0 -18 -7.5 -38t-24 -42t-51.5 -36t-83 -14q-53 0 -102 23.5t-75 58.5l50 53q53 -71 131 -71q42 0 65.5 19t23.5 47q0 24 -15.5 40
t-55.5 37l-48 26q-80 43 -80 112q0 56 43 90.5t110 34.5q98 0 160 -75z" />
    <glyph glyph-name="t" unicode="t" horiz-adv-x="299" 
d="M160 635h78l-33 -187h108l-12 -65h-107l-48 -279q-4 -23 6.5 -31t33.5 -8l62 1l-12 -66q-39 -4 -76 -4q-21 0 -37 3t-32.5 12t-23 29t-1.5 50l50 293h-74l12 65h74z" />
    <glyph glyph-name="u" unicode="u" horiz-adv-x="505" 
d="M100 448h78l-46 -266q-12 -54 14 -89.5t87 -35.5q46 0 79 26.5t42 77.5l50 287h77l-52 -304q-11 -68 -65 -112t-135 -44q-86 0 -137.5 53t-36.5 144z" />
    <glyph glyph-name="v" unicode="v" horiz-adv-x="471" 
d="M146 448l57 -380l199 380h88l-245 -448h-98l-84 448h83z" />
    <glyph glyph-name="w" unicode="w" horiz-adv-x="697" 
d="M420 448l42 -380l166 380h81l-205 -448h-100l-39 358l-170 -358h-98l-41 448h77l25 -380l184 380h78z" />
    <glyph glyph-name="x" unicode="x" horiz-adv-x="449" 
d="M-20 0l202 226l-124 222h85l90 -172l145 172h91l-201 -225l127 -223h-83l-93 171l-143 -171h-96z" />
    <glyph glyph-name="y" unicode="y" horiz-adv-x="520" 
d="M137 -111h105q39 0 60.5 15t28.5 52l18 102q-68 -70 -162 -70q-73 0 -110 49t-24 126l49 285h78l-50 -288q-9 -47 9.5 -75.5t62.5 -28.5q73 0 159 78l54 314h77l-83 -489q-23 -135 -144 -135h-140z" />
    <glyph glyph-name="z" unicode="z" horiz-adv-x="428" 
d="M428 448l-11 -65l-315 -318h259l-11 -65h-350l11 65l317 318h-261l11 65h350z" />
    <glyph glyph-name="braceleft" unicode="{" horiz-adv-x="367" 
d="M43 268l11 64h77l64 368h218l-13 -70h-138l-44 -255q-10 -63 -61 -78q45 -18 36 -72l-53 -308h138l-13 -70h-218l73 421h-77z" />
    <glyph glyph-name="bar" unicode="|" horiz-adv-x="234" 
d="M27 -93l148 853h72l-148 -853h-72z" />
    <glyph glyph-name="braceright" unicode="}" horiz-adv-x="367" 
d="M352 332l-11 -64h-77l-74 -421h-217l13 70h137l53 308q9 60 60 75q-44 18 -35 75l44 255h-138l13 70h218l-63 -368h77z" />
    <glyph glyph-name="asciitilde" unicode="~" horiz-adv-x="480" 
d="M110 297h-72l1 5q19 118 115 118q28 0 124.5 -25.5t107.5 -25.5q16 0 23 11.5t12 37.5h72l-1 -5q-19 -118 -115 -118q-28 0 -124.5 25t-107.5 25q-16 0 -23 -11t-12 -37z" />
    <glyph glyph-name="exclamdown" unicode="&#xa1;" horiz-adv-x="232" 
d="M85 224h74l-81 -476h-78zM144 460q27 0 46.5 -19t19.5 -46t-19.5 -46t-46.5 -19t-46.5 19t-19.5 46t19.5 46t46.5 19z" />
    <glyph glyph-name="cent" unicode="&#xa2;" horiz-adv-x="508" 
d="M410 265l63 -41q-70 -102 -193 -102q-21 0 -31 2l-37 -124h-64l41 140q-57 25 -90 79t-33 124q0 103 67.5 177t167.5 74q4 0 11.5 -0.5t11.5 -0.5l32 107h64l-36 -120q66 -25 101 -84l-65 -41q-25 40 -56 56l-95 -320h13q74 0 128 74zM144 337q0 -88 66 -127l94 315
q-69 -1 -114.5 -55t-45.5 -133z" />
    <glyph glyph-name="sterling" unicode="&#xa3;" horiz-adv-x="531" 
d="M87 69q38 36 57 72t19 94q0 25 -10 81h-81l11 64h59q-11 59 -11 100q0 108 59.5 170t154.5 62q89 0 141 -47t52 -132q0 -18 -1 -27l-80 -1q2 18 2 27q0 48 -28.5 78.5t-84.5 30.5q-66 0 -100 -47t-34 -118q0 -31 10 -96h178l-10 -64h-158q29 -155 -67 -247h287l-12 -69
h-427l12 69h62z" />
    <glyph glyph-name="currency" unicode="&#xa4;" horiz-adv-x="743" 
d="M444 641q87 -7 162 -72l103 79l46 -63l-105 -79q46 -83 29 -182q-20 -103 -91 -171l76 -95l-68 -53l-71 95q-96 -51 -183 -43q-86 8 -162 73l-102 -79l-47 63l106 79q-46 81 -29 181q18 100 91 172l-75 95l67 53l72 -95q95 50 181 42zM356 135q88 -8 156.5 49.5
t83.5 146.5q16 91 -30.5 158.5t-134.5 74.5q-89 8 -157 -49t-83 -148q-16 -90 30.5 -157.5t134.5 -74.5z" />
    <glyph glyph-name="yen" unicode="&#xa5;" horiz-adv-x="586" 
d="M61 229l11 64h195l-42 112h-133l12 65h104l-84 230h85l106 -328h4l221 328h90l-164 -230h104l-12 -65h-132l-80 -112h192l-11 -64h-192l-40 -229h-79l40 229h-195z" />
    <glyph glyph-name="brokenbar" unicode="&#xa6;" horiz-adv-x="234" 
d="M185 406h-73l62 354h73zM99 -93h-73l62 354h73z" />
    <glyph glyph-name="section" unicode="&#xa7;" horiz-adv-x="550" 
d="M283 402q-57 -1 -100 -28t-43 -72q0 -28 21 -45.5t62 -31.5l72 -25q57 0 100.5 27t43.5 72q0 28 -21 45.5t-62 31.5zM205 448q-63 41 -63 109q0 69 57.5 112t144.5 43q145 0 217 -87l-55 -52q-25 32 -69 52t-91 20q-58 0 -90.5 -24t-32.5 -59q0 -54 66 -78l99 -36
q135 -50 135 -142q0 -60 -38.5 -101t-110.5 -52q63 -41 63 -109q0 -69 -57.5 -112t-144.5 -43q-145 0 -217 87l55 52q25 -32 69 -52t91 -20q58 0 90.5 24t32.5 59q0 54 -66 78l-99 36q-135 50 -135 142q0 60 38.5 101t110.5 52z" />
    <glyph glyph-name="dieresis" unicode="&#xa8;" horiz-adv-x="296" 
d="M57 584q0 23 17 40.5t40 17.5t40 -17.5t17 -40.5t-17 -40t-40 -17t-40 17t-17 40zM221 584q0 23 17.5 40.5t40.5 17.5t40.5 -17.5t17.5 -40.5t-17.5 -40t-40.5 -17t-40.5 17t-17.5 40z" />
    <glyph glyph-name="copyright" unicode="&#xa9;" horiz-adv-x="828" 
d="M437 564q68 0 118.5 -38t69.5 -103h-63q-31 88 -125 88q-66 0 -108 -45t-42 -113q0 -67 42 -112t108 -45q94 0 125 87h63q-19 -65 -69.5 -102.5t-118.5 -37.5q-89 0 -150 59.5t-61 150.5q0 92 60.5 151.5t150.5 59.5zM437 712q153 0 258.5 -103t105.5 -259t-105.5 -259
t-258.5 -103t-258.5 103t-105.5 259t105.5 259t258.5 103zM437 41q134 0 218 87t84 222t-84 222t-218 87t-218.5 -87t-84.5 -222t84.5 -222t218.5 -87z" />
    <glyph glyph-name="ordfeminine" unicode="&#xaa;" horiz-adv-x="496" 
d="M444 701h67l-66 -380h-65l10 47q-41 -58 -123 -58q-76 0 -124.5 52t-48.5 130q0 94 58.5 157t139.5 63q45 0 84 -22.5t55 -64.5zM297 653q-58 0 -97.5 -46t-39.5 -111q0 -56 32 -92t86 -36q58 0 98 45t40 112q0 55 -32.5 91.5t-86.5 36.5z" />
    <glyph glyph-name="guillemotleft" unicode="&#xab;" horiz-adv-x="447" 
d="M210 239l119 154h92l-126 -159l72 -149h-82zM51 239l119 154h92l-126 -159l73 -149h-83z" />
    <glyph glyph-name="logicalnot" unicode="&#xac;" horiz-adv-x="480" 
d="M51 423l12 68h434l-47 -268h-76l35 200h-358z" />
    <glyph glyph-name="uni00AD" unicode="&#xad;" horiz-adv-x="250" 
 />
    <glyph glyph-name="registered" unicode="&#xae;" horiz-adv-x="828" 
d="M534 148l-99 181h-70v-181h-61v412h140q66 0 103 -30.5t37 -83.5q0 -34 -22 -65.5t-68 -44.5l108 -188h-68zM523 445q0 32 -22.5 48.5t-60.5 16.5h-75v-131h75q37 0 60 17t23 49zM437 712q153 0 258.5 -103t105.5 -259t-105.5 -259t-258.5 -103t-258.5 103t-105.5 259
t105.5 259t258.5 103zM437 41q134 0 218 87t84 222t-84 222t-218 87t-218.5 -87t-84.5 -222t84.5 -222t218.5 -87z" />
    <glyph glyph-name="macron" unicode="&#xaf;" horiz-adv-x="316" 
d="M77 549l11 67h260l-11 -67h-260z" />
    <glyph glyph-name="degree" unicode="&#xb0;" horiz-adv-x="403" 
d="M105 554q-1 65 44.5 111.5t109.5 46.5t109.5 -46.5t46.5 -111.5q-1 -65 -46.5 -111.5t-109.5 -46.5t-109.5 46.5t-44.5 111.5zM174 554q-1 -38 24.5 -65.5t60.5 -27.5t60.5 27.5t26.5 65.5q-1 38 -26.5 65.5t-60.5 27.5t-60.5 -27.5t-24.5 -65.5z" />
    <glyph glyph-name="plusminus" unicode="&#xb1;" horiz-adv-x="480" 
d="M41 323l12 68h181l32 181h72l-32 -181h181l-12 -68h-181l-32 -179h-72l32 179h-181zM-15 0l12 68h433l-12 -68h-433z" />
    <glyph glyph-name="twosuperior" unicode="&#xb2;" 
d="M102 294l11 61q4 4 36 28.5t62 48t43 34.5q47 39 66 67t19 60q0 23 -15.5 39.5t-43.5 16.5q-26 0 -44.5 -17.5t-18.5 -45.5q0 -13 5 -33l-62 -6q-7 25 -7 43q0 48 34.5 82.5t93.5 34.5q58 0 91 -33.5t33 -79.5q0 -49 -25.5 -85t-91.5 -87l-90 -70h167l-11 -58h-252z" />
    <glyph glyph-name="threesuperior" unicode="&#xb3;" 
d="M238 287q-56 0 -89 28.5t-33 77.5q0 15 4 33h65q-4 -24 -4 -30q0 -23 13.5 -38.5t42.5 -15.5q30 0 49.5 24.5t19.5 61.5q0 63 -78 63q-10 0 -26 -2l10 57l115 95h-159l11 59h234l-12 -64l-125 -101q39 -2 68 -31t29 -72q0 -61 -37 -103t-98 -42z" />
    <glyph glyph-name="acute" unicode="&#xb4;" horiz-adv-x="216" 
d="M82 536l87 164h104l-119 -164h-72z" />
    <glyph glyph-name="mu" unicode="&#xb5;" horiz-adv-x="495" 
d="M113 448h77l-46 -266q-10 -55 15.5 -90t86.5 -35q46 0 79 26.5t42 77.5l50 287h77l-52 -304q-12 -68 -66 -112t-135 -44q-40 0 -76 16t-51 43l-38 -223h-71z" />
    <glyph glyph-name="mu" unicode="&#x3bc;" horiz-adv-x="495" 
d="M113 448h77l-46 -266q-10 -55 15.5 -90t86.5 -35q46 0 79 26.5t42 77.5l50 287h77l-52 -304q-12 -68 -66 -112t-135 -44q-40 0 -76 16t-51 43l-38 -223h-71z" />
    <glyph glyph-name="paragraph" unicode="&#xb6;" horiz-adv-x="589" 
d="M86 511q0 81 62 135t148 54h284l-121 -700h-79l109 630h-131l-108 -630h-81l63 363q-71 0 -108.5 42.5t-37.5 105.5z" />
    <glyph glyph-name="periodcentered" unicode="&#xb7;" horiz-adv-x="249" 
d="M82 370q0 28 19 47.5t47 19.5t47.5 -19.5t19.5 -47.5t-19.5 -47t-47.5 -19t-47 19t-19 47z" />
    <glyph glyph-name="cedilla" unicode="&#xb8;" horiz-adv-x="216" 
d="M-44 -136l76 136h94l-89 -136h-81z" />
    <glyph glyph-name="onesuperior" unicode="&#xb9;" 
d="M127 294l9 58h78l52 289h-76l11 59h140l-61 -348h77l-10 -58h-220z" />
    <glyph glyph-name="ordmasculine" unicode="&#xba;" horiz-adv-x="473" 
d="M276 369q59 0 98 46t39 114q0 53 -32.5 88.5t-84.5 35.5q-59 0 -98 -46t-39 -114q0 -53 32.5 -88.5t84.5 -35.5zM277 310q-79 0 -131.5 53.5t-52.5 134.5q0 88 57.5 151t143.5 63q80 0 132.5 -53.5t52.5 -134.5q0 -88 -58 -151t-144 -63z" />
    <glyph glyph-name="guillemotright" unicode="&#xbb;" horiz-adv-x="445" 
d="M242 239l-119 -154h-92l126 159l-72 149h82zM401 239l-119 -154h-92l126 159l-73 149h83z" />
    <glyph glyph-name="onequarter" unicode="&#xbc;" horiz-adv-x="1080" 
d="M954 735l35 -38l-799 -723l-35 38zM95 294l9 58h78l52 289h-76l11 59h140l-61 -348h77l-10 -58h-220zM701 112l10 55l183 239h90l-42 -239h55l-11 -55h-54l-20 -112h-65l20 112h-166zM909 344l-137 -177h105z" />
    <glyph glyph-name="onehalf" unicode="&#xbd;" horiz-adv-x="1080" 
d="M954 735l35 -38l-799 -723l-35 38zM95 294l9 58h78l52 289h-76l11 59h140l-61 -348h77l-10 -58h-220zM702 0l11 61q4 4 36 28.5t62 48t43 34.5q47 39 66 67t19 60q0 23 -15.5 39.5t-43.5 16.5q-26 0 -44.5 -17.5t-18.5 -45.5q0 -13 5 -33l-62 -6q-7 24 -7 43
q0 48 34.5 82.5t93.5 34.5q58 0 91 -33.5t33 -79.5q0 -49 -25.5 -85t-91.5 -87l-90 -70h167l-11 -58h-252z" />
    <glyph glyph-name="threequarters" unicode="&#xbe;" horiz-adv-x="1080" 
d="M954 735l35 -38l-799 -723l-35 38zM701 112l10 55l183 239h90l-42 -239h55l-11 -55h-54l-20 -112h-65l20 112h-166zM909 344l-137 -177h105zM239 287q-56 0 -89 28.5t-33 77.5q0 15 4 33h65q-4 -24 -4 -30q0 -23 13.5 -38.5t42.5 -15.5q30 0 49.5 24.5t19.5 61.5
q0 63 -78 63q-10 0 -26 -2l10 57l115 95h-159l11 59h234l-12 -64l-125 -101q39 -2 68 -31t29 -72q0 -61 -37 -103t-98 -42z" />
    <glyph glyph-name="questiondown" unicode="&#xbf;" horiz-adv-x="467" 
d="M-17 -87q0 86 53.5 142.5t143.5 64.5l41 134h66l-36 -198l-40 -2q-64 -3 -107 -41.5t-43 -100.5q0 -48 30 -77t84 -29q56 0 88.5 36.5t42.5 96.5l2 13h77q-5 -95 -62 -155.5t-148 -60.5q-86 0 -139 49t-53 128zM277 460q27 0 46.5 -19t19.5 -46t-19.5 -46t-46.5 -19
t-46.5 19t-19.5 46t19.5 46t46.5 19z" />
    <glyph glyph-name="Agrave" unicode="&#xc0;" horiz-adv-x="610" 
d="M437 239h-246l-117 -239h-86l354 700h95l115 -700h-78zM427 308l-46 313h-1l-155 -313h202zM353 952l69 -164h-71l-102 164h104z" />
    <glyph glyph-name="Aacute" unicode="&#xc1;" horiz-adv-x="610" 
d="M437 239h-246l-117 -239h-86l354 700h95l115 -700h-78zM427 308l-46 313h-1l-155 -313h202zM377 788l87 164h104l-119 -164h-72z" />
    <glyph glyph-name="Acircumflex" unicode="&#xc2;" horiz-adv-x="610" 
d="M437 239h-246l-117 -239h-86l354 700h95l115 -700h-78zM427 308l-46 313h-1l-155 -313h202zM267 788l116 164h98l60 -164h-75l-40 108l-78 -108h-81z" />
    <glyph glyph-name="Atilde" unicode="&#xc3;" horiz-adv-x="610" 
d="M437 239h-246l-117 -239h-86l354 700h95l115 -700h-78zM427 308l-46 313h-1l-155 -313h202zM316 791h-67q0 1 1.5 13.5t3.5 20t6 21.5t11 23.5t17 19t25 14.5t34 5q23 0 66 -23t56 -23q19 0 27 34l2 10h67q0 -2 -2 -16.5t-3.5 -24.5t-8 -25.5t-15.5 -25.5t-25.5 -17.5
t-38.5 -7.5t-65.5 23t-55.5 23q-25 0 -33 -34z" />
    <glyph glyph-name="Adieresis" unicode="&#xc4;" horiz-adv-x="610" 
d="M437 239h-246l-117 -239h-86l354 700h95l115 -700h-78zM427 308l-46 313h-1l-155 -313h202zM264 836q0 23 17 40.5t40 17.5t40 -17.5t17 -40.5t-17 -40t-40 -17t-40 17t-17 40zM428 836q0 23 17.5 40.5t40.5 17.5t40.5 -17.5t17.5 -40.5t-17.5 -40t-40.5 -17t-40.5 17
t-17.5 40z" />
    <glyph glyph-name="Aring" unicode="&#xc5;" horiz-adv-x="610" 
d="M437 239h-246l-117 -239h-86l354 700h95l115 -700h-78zM427 308l-46 313h-1l-155 -313h202zM403 964q43 0 75 -30.5t32 -74.5t-32 -74.5t-75 -30.5t-75 30.5t-32 74.5t32 74.5t75 30.5zM403 808q21 0 35 14.5t14 36.5t-14 36.5t-35 14.5t-35 -14.5t-14 -36.5t14 -36.5
t35 -14.5z" />
    <glyph glyph-name="AE" unicode="&#xc6;" horiz-adv-x="954" 
d="M1003 700l-11 -70h-386l-41 -239h250l-12 -69h-250l-44 -253h386l-12 -69h-466l56 324h-187l-230 -324h-102l519 700h530zM526 630h-20l-172 -237h151z" />
    <glyph glyph-name="Ccedilla" unicode="&#xc7;" horiz-adv-x="747" 
d="M260 -136l72 130q-118 22 -191.5 114t-73.5 220q0 165 108 274.5t256 109.5q114 0 197 -63.5t111 -167.5h-82q-24 75 -81.5 118.5t-143.5 43.5q-123 0 -205 -90.5t-82 -227.5q0 -114 68.5 -191t183.5 -77q82 0 144 43t99 119h84q-37 -99 -118.5 -160.5t-183.5 -69.5
l-81 -125h-81z" />
    <glyph glyph-name="Egrave" unicode="&#xc8;" horiz-adv-x="588" 
d="M638 700l-12 -70h-390l-41 -239h251l-12 -68h-251l-44 -254h390l-12 -69h-469l121 700h469zM406 952l69 -164h-71l-102 164h104z" />
    <glyph glyph-name="Eacute" unicode="&#xc9;" horiz-adv-x="588" 
d="M638 700l-12 -70h-390l-41 -239h251l-12 -68h-251l-44 -254h390l-12 -69h-469l121 700h469zM375 788l87 164h104l-119 -164h-72z" />
    <glyph glyph-name="Ecircumflex" unicode="&#xca;" horiz-adv-x="588" 
d="M638 700l-12 -70h-390l-41 -239h251l-12 -68h-251l-44 -254h390l-12 -69h-469l121 700h469zM266 788l116 164h98l60 -164h-75l-40 108l-78 -108h-81z" />
    <glyph glyph-name="Edieresis" unicode="&#xcb;" horiz-adv-x="588" 
d="M638 700l-12 -70h-390l-41 -239h251l-12 -68h-251l-44 -254h390l-12 -69h-469l121 700h469zM274 836q0 23 17 40.5t40 17.5t40 -17.5t17 -40.5t-17 -40t-40 -17t-40 17t-17 40zM438 836q0 23 17.5 40.5t40.5 17.5t40.5 -17.5t17.5 -40.5t-17.5 -40t-40.5 -17t-40.5 17
t-17.5 40z" />
    <glyph glyph-name="Igrave" unicode="&#xcc;" horiz-adv-x="252" 
d="M249 700l-121 -700h-80l121 700h80zM169 952l69 -164h-71l-102 164h104z" />
    <glyph glyph-name="Iacute" unicode="&#xcd;" horiz-adv-x="252" 
d="M249 700l-121 -700h-80l121 700h80zM158 788l87 164h104l-119 -164h-72z" />
    <glyph glyph-name="Icircumflex" unicode="&#xce;" horiz-adv-x="252" 
d="M249 700l-121 -700h-80l121 700h80zM78 788l116 164h98l60 -164h-75l-40 108l-78 -108h-81z" />
    <glyph glyph-name="Idieresis" unicode="&#xcf;" horiz-adv-x="252" 
d="M249 700l-121 -700h-80l121 700h80zM91 836q0 23 17 40.5t40 17.5t40 -17.5t17 -40.5t-17 -40t-40 -17t-40 17t-17 40zM255 836q0 23 17.5 40.5t40.5 17.5t40.5 -17.5t17.5 -40.5t-17.5 -40t-40.5 -17t-40.5 17t-17.5 40z" />
    <glyph glyph-name="Eth" unicode="&#xd0;" horiz-adv-x="688" 
d="M49 322l12 70h61l54 308h175q147 0 232.5 -84t85.5 -217q0 -174 -107.5 -286.5t-286.5 -112.5h-220l55 322h-61zM146 67h112q151 0 241 89.5t90 247.5q0 109 -70.5 169t-192.5 60h-82l-42 -241h212l-12 -70h-212z" />
    <glyph glyph-name="Ntilde" unicode="&#xd1;" horiz-adv-x="662" 
d="M231 594l-103 -594h-80l121 700h103l206 -583l101 583h80l-121 -700h-94zM338 791h-67q0 1 1.5 13.5t3.5 20t6 21.5t11 23.5t17 19t25 14.5t34 5q23 0 66 -23t56 -23q19 0 27 34l2 10h67q0 -2 -2 -16.5t-3.5 -24.5t-8 -25.5t-15.5 -25.5t-25.5 -17.5t-38.5 -7.5t-65.5 23
t-55.5 23q-25 0 -33 -34z" />
    <glyph glyph-name="Ograve" unicode="&#xd2;" horiz-adv-x="782" 
d="M762 372q0 -164 -108.5 -274t-256.5 -110q-143 0 -237 97t-94 243q0 164 108.5 274t256.5 110q143 0 237 -97t94 -243zM144 325q0 -113 69 -190.5t183 -77.5q123 0 205 90.5t82 227.5q0 113 -68.5 190.5t-182.5 77.5q-123 0 -205.5 -90.5t-82.5 -227.5zM427 952l69 -164
h-71l-102 164h104z" />
    <glyph glyph-name="Oacute" unicode="&#xd3;" horiz-adv-x="782" 
d="M762 372q0 -164 -108.5 -274t-256.5 -110q-143 0 -237 97t-94 243q0 164 108.5 274t256.5 110q143 0 237 -97t94 -243zM144 325q0 -113 69 -190.5t183 -77.5q123 0 205 90.5t82 227.5q0 113 -68.5 190.5t-182.5 77.5q-123 0 -205.5 -90.5t-82.5 -227.5zM427 788l87 164
h104l-119 -164h-72z" />
    <glyph glyph-name="Ocircumflex" unicode="&#xd4;" horiz-adv-x="782" 
d="M762 372q0 -164 -108.5 -274t-256.5 -110q-143 0 -237 97t-94 243q0 164 108.5 274t256.5 110q143 0 237 -97t94 -243zM144 325q0 -113 69 -190.5t183 -77.5q123 0 205 90.5t82 227.5q0 113 -68.5 190.5t-182.5 77.5q-123 0 -205.5 -90.5t-82.5 -227.5zM313 788l116 164
h98l60 -164h-75l-40 108l-78 -108h-81z" />
    <glyph glyph-name="Otilde" unicode="&#xd5;" horiz-adv-x="782" 
d="M762 372q0 -164 -108.5 -274t-256.5 -110q-143 0 -237 97t-94 243q0 164 108.5 274t256.5 110q143 0 237 -97t94 -243zM144 325q0 -113 69 -190.5t183 -77.5q123 0 205 90.5t82 227.5q0 113 -68.5 190.5t-182.5 77.5q-123 0 -205.5 -90.5t-82.5 -227.5zM360 791h-67
q0 1 1.5 13.5t3.5 20t6 21.5t11 23.5t17 19t25 14.5t34 5q23 0 66 -23t56 -23q19 0 27 34l2 10h67q0 -2 -2 -16.5t-3.5 -24.5t-8 -25.5t-15.5 -25.5t-25.5 -17.5t-38.5 -7.5t-65.5 23t-55.5 23q-25 0 -33 -34z" />
    <glyph glyph-name="Odieresis" unicode="&#xd6;" horiz-adv-x="782" 
d="M762 372q0 -164 -108.5 -274t-256.5 -110q-143 0 -237 97t-94 243q0 164 108.5 274t256.5 110q143 0 237 -97t94 -243zM144 325q0 -113 69 -190.5t183 -77.5q123 0 205 90.5t82 227.5q0 113 -68.5 190.5t-182.5 77.5q-123 0 -205.5 -90.5t-82.5 -227.5zM317 836
q0 23 17 40.5t40 17.5t40 -17.5t17 -40.5t-17 -40t-40 -17t-40 17t-17 40zM481 836q0 23 17.5 40.5t40.5 17.5t40.5 -17.5t17.5 -40.5t-17.5 -40t-40.5 -17t-40.5 17t-17.5 40z" />
    <glyph glyph-name="multiply" unicode="&#xd7;" horiz-adv-x="472" 
d="M72 177l-40 53l184 147l-127 173l54 41l126 -172l181 144l40 -53l-180 -144l125 -173l-54 -41l-127 171z" />
    <glyph glyph-name="Oslash" unicode="&#xd8;" horiz-adv-x="782" 
d="M762 372q0 -164 -108.5 -274t-256.5 -110q-119 0 -208 70l-71 -70h-99l121 119q-74 93 -74 221q0 164 108.5 274t256.5 110q136 0 230 -91l92 91h97l-145 -144q57 -87 57 -196zM144 325q0 -96 49 -166l417 412q-70 72 -178 72q-123 0 -205.5 -90.5t-82.5 -227.5zM683 375
q0 77 -33 139l-410 -405q65 -52 156 -52q123 0 205 90.5t82 227.5z" />
    <glyph glyph-name="Ugrave" unicode="&#xd9;" horiz-adv-x="624" 
d="M161 700h79l-78 -455q-13 -77 23.5 -132t117.5 -55q70 0 112 45.5t54 113.5l84 483h75l-84 -494q-17 -98 -79.5 -158t-164.5 -60q-113 0 -173.5 74.5t-41.5 192.5zM364 952l69 -164h-71l-102 164h104z" />
    <glyph glyph-name="Uacute" unicode="&#xda;" horiz-adv-x="624" 
d="M161 700h79l-78 -455q-13 -77 23.5 -132t117.5 -55q70 0 112 45.5t54 113.5l84 483h75l-84 -494q-17 -98 -79.5 -158t-164.5 -60q-113 0 -173.5 74.5t-41.5 192.5zM355 788l87 164h104l-119 -164h-72z" />
    <glyph glyph-name="Ucircumflex" unicode="&#xdb;" horiz-adv-x="624" 
d="M161 700h79l-78 -455q-13 -77 23.5 -132t117.5 -55q70 0 112 45.5t54 113.5l84 483h75l-84 -494q-17 -98 -79.5 -158t-164.5 -60q-113 0 -173.5 74.5t-41.5 192.5zM266 788l116 164h98l60 -164h-75l-40 108l-78 -108h-81z" />
    <glyph glyph-name="Udieresis" unicode="&#xdc;" horiz-adv-x="624" 
d="M161 700h79l-78 -455q-13 -77 23.5 -132t117.5 -55q70 0 112 45.5t54 113.5l84 483h75l-84 -494q-17 -98 -79.5 -158t-164.5 -60q-113 0 -173.5 74.5t-41.5 192.5zM263 836q0 23 17 40.5t40 17.5t40 -17.5t17 -40.5t-17 -40t-40 -17t-40 17t-17 40zM427 836
q0 23 17.5 40.5t40.5 17.5t40.5 -17.5t17.5 -40.5t-17.5 -40t-40.5 -17t-40.5 17t-17.5 40z" />
    <glyph glyph-name="Yacute" unicode="&#xdd;" horiz-adv-x="625" 
d="M287 310l-200 390h88l159 -320h1l271 320h94l-333 -387l-55 -313h-79zM359 788l87 164h104l-119 -164h-72z" />
    <glyph glyph-name="Thorn" unicode="&#xde;" horiz-adv-x="554" 
d="M226 567h93q98 1 163 -54t65 -139q0 -107 -69.5 -171.5t-198.5 -64.5l-127 -1l-24 -137h-80l121 700h80zM214 498l-50 -291h119q82 0 133.5 38.5t51.5 120.5q0 60 -42.5 96t-110.5 36h-101z" />
    <glyph glyph-name="germandbls" unicode="&#xdf;" horiz-adv-x="498" 
d="M318 700q62 0 110.5 -39.5t48.5 -105.5q0 -38 -22.5 -75.5t-49 -61.5t-49 -48.5t-22.5 -40.5q0 -17 19 -39t42 -40.5t42 -51t19 -68.5q0 -67 -46 -107t-116 -40q-55 0 -89 18l31 62q29 -12 58 -12q36 0 61 19.5t25 58.5q0 20 -12.5 39.5t-31 35.5t-36.5 33.5t-30.5 39.5
t-12.5 47q0 27 23 58t50.5 54.5t50.5 54.5t23 58q0 40 -24.5 61t-65.5 21q-43 0 -76 -29.5t-43 -87.5l-88 -514h-78l89 513q17 101 74 144t126 43z" />
    <glyph glyph-name="agrave" unicode="&#xe0;" horiz-adv-x="557" 
d="M450 448h78l-77 -448h-77l12 56q-51 -68 -145 -68q-90 0 -146.5 60.5t-56.5 153.5q0 110 68.5 184t163.5 74q52 0 98.5 -26.5t65.5 -75.5l6 33zM276 391q-68 0 -115 -54.5t-47 -130.5q0 -65 38 -107.5t102 -42.5q68 0 114.5 53t46.5 132q0 65 -38 107.5t-101 42.5z
M279 700l69 -164h-71l-102 164h104z" />
    <glyph glyph-name="aacute" unicode="&#xe1;" horiz-adv-x="557" 
d="M450 448h78l-77 -448h-77l12 56q-51 -68 -145 -68q-90 0 -146.5 60.5t-56.5 153.5q0 110 68.5 184t163.5 74q52 0 98.5 -26.5t65.5 -75.5l6 33zM276 391q-68 0 -115 -54.5t-47 -130.5q0 -65 38 -107.5t102 -42.5q68 0 114.5 53t46.5 132q0 65 -38 107.5t-101 42.5z
M283 536l87 164h104l-119 -164h-72z" />
    <glyph glyph-name="acircumflex" unicode="&#xe2;" horiz-adv-x="557" 
d="M450 448h78l-77 -448h-77l12 56q-51 -68 -145 -68q-90 0 -146.5 60.5t-56.5 153.5q0 110 68.5 184t163.5 74q52 0 98.5 -26.5t65.5 -75.5l6 33zM276 391q-68 0 -115 -54.5t-47 -130.5q0 -65 38 -107.5t102 -42.5q68 0 114.5 53t46.5 132q0 65 -38 107.5t-101 42.5z
M180 536l116 164h98l60 -164h-75l-40 108l-78 -108h-81z" />
    <glyph glyph-name="atilde" unicode="&#xe3;" horiz-adv-x="557" 
d="M450 448h78l-77 -448h-77l12 56q-51 -68 -145 -68q-90 0 -146.5 60.5t-56.5 153.5q0 110 68.5 184t163.5 74q52 0 98.5 -26.5t65.5 -75.5l6 33zM276 391q-68 0 -115 -54.5t-47 -130.5q0 -65 38 -107.5t102 -42.5q68 0 114.5 53t46.5 132q0 65 -38 107.5t-101 42.5z
M228 539h-67q0 1 1.5 13.5t3.5 20t6 21.5t11 23.5t17 19t25 14.5t34 5q23 0 66 -23t56 -23q19 0 27 34l2 10h67q0 -2 -2 -16.5t-3.5 -24.5t-8 -25.5t-15.5 -25.5t-25.5 -17.5t-38.5 -7.5t-65.5 23t-55.5 23q-25 0 -33 -34z" />
    <glyph glyph-name="adieresis" unicode="&#xe4;" horiz-adv-x="557" 
d="M450 448h78l-77 -448h-77l12 56q-51 -68 -145 -68q-90 0 -146.5 60.5t-56.5 153.5q0 110 68.5 184t163.5 74q52 0 98.5 -26.5t65.5 -75.5l6 33zM276 391q-68 0 -115 -54.5t-47 -130.5q0 -65 38 -107.5t102 -42.5q68 0 114.5 53t46.5 132q0 65 -38 107.5t-101 42.5z
M186 584q0 23 17 40.5t40 17.5t40 -17.5t17 -40.5t-17 -40t-40 -17t-40 17t-17 40zM350 584q0 23 17.5 40.5t40.5 17.5t40.5 -17.5t17.5 -40.5t-17.5 -40t-40.5 -17t-40.5 17t-17.5 40z" />
    <glyph glyph-name="aring" unicode="&#xe5;" horiz-adv-x="557" 
d="M450 448h78l-77 -448h-77l12 56q-51 -68 -145 -68q-90 0 -146.5 60.5t-56.5 153.5q0 110 68.5 184t163.5 74q52 0 98.5 -26.5t65.5 -75.5l6 33zM276 391q-68 0 -115 -54.5t-47 -130.5q0 -65 38 -107.5t102 -42.5q68 0 114.5 53t46.5 132q0 65 -38 107.5t-101 42.5z
M317 712q43 0 75 -30.5t32 -74.5t-32 -74.5t-75 -30.5t-75 30.5t-32 74.5t32 74.5t75 30.5zM317 556q21 0 35 14.5t14 36.5t-14 36.5t-35 14.5t-35 -14.5t-14 -36.5t14 -36.5t35 -14.5z" />
    <glyph glyph-name="ae" unicode="&#xe6;" horiz-adv-x="802" 
d="M768 246v-46h-365q1 -62 39 -102.5t99 -40.5q71 0 113 57h95q-31 -56 -88 -91t-123 -35q-127 0 -186 109q-12 -46 -57 -77.5t-114 -31.5q-71 0 -115.5 41.5t-44.5 99.5q0 68 46 102t124 34h100q52 0 52 55q0 34 -27.5 52.5t-70.5 18.5q-71 0 -141 -47l-29 66
q71 50 176 50q51 0 90 -19t55 -53q61 72 166 72q91 0 147.5 -60t58.5 -154zM193 54q54 0 88.5 39.5t41.5 119.5q-13 -13 -54 -13h-57q-53 0 -81.5 -15t-28.5 -55q0 -33 25 -54.5t66 -21.5zM562 391q-57 0 -98.5 -34t-52.5 -93h279q-5 57 -39 92t-89 35z" />
    <glyph glyph-name="ccedilla" unicode="&#xe7;" horiz-adv-x="485" 
d="M115 -136l74 133q-69 20 -109.5 77t-40.5 135q0 103 67.5 177t167.5 74q127 0 184 -98l-65 -41q-42 70 -115 70q-69 0 -115 -54t-46 -134q0 -63 38.5 -104.5t99.5 -41.5q74 0 128 74l63 -41q-63 -91 -168 -101l-82 -125h-81z" />
    <glyph glyph-name="egrave" unicode="&#xe8;" horiz-adv-x="514" 
d="M480 246v-46h-365q1 -62 39 -102.5t99 -40.5q71 0 113 57h95q-31 -57 -85.5 -91.5t-120.5 -34.5q-94 0 -155.5 63t-61.5 158q0 103 67.5 177t168.5 74q91 0 148.5 -60.5t57.5 -153.5zM274 391q-55 0 -96 -35t-55 -92h279q-2 56 -37 91.5t-91 35.5zM237 700l69 -164h-71
l-102 164h104z" />
    <glyph glyph-name="eacute" unicode="&#xe9;" horiz-adv-x="514" 
d="M480 246v-46h-365q1 -62 39 -102.5t99 -40.5q71 0 113 57h95q-31 -57 -85.5 -91.5t-120.5 -34.5q-94 0 -155.5 63t-61.5 158q0 103 67.5 177t168.5 74q91 0 148.5 -60.5t57.5 -153.5zM274 391q-55 0 -96 -35t-55 -92h279q-2 56 -37 91.5t-91 35.5zM245 536l87 164h104
l-119 -164h-72z" />
    <glyph glyph-name="ecircumflex" unicode="&#xea;" horiz-adv-x="514" 
d="M480 246v-46h-365q1 -62 39 -102.5t99 -40.5q71 0 113 57h95q-31 -57 -85.5 -91.5t-120.5 -34.5q-94 0 -155.5 63t-61.5 158q0 103 67.5 177t168.5 74q91 0 148.5 -60.5t57.5 -153.5zM274 391q-55 0 -96 -35t-55 -92h279q-2 56 -37 91.5t-91 35.5zM151 536l116 164h98
l60 -164h-75l-40 108l-78 -108h-81z" />
    <glyph glyph-name="edieresis" unicode="&#xeb;" horiz-adv-x="514" 
d="M480 246v-46h-365q1 -62 39 -102.5t99 -40.5q71 0 113 57h95q-31 -57 -85.5 -91.5t-120.5 -34.5q-94 0 -155.5 63t-61.5 158q0 103 67.5 177t168.5 74q91 0 148.5 -60.5t57.5 -153.5zM274 391q-55 0 -96 -35t-55 -92h279q-2 56 -37 91.5t-91 35.5zM165 584q0 23 17 40.5
t40 17.5t40 -17.5t17 -40.5t-17 -40t-40 -17t-40 17t-17 40zM329 584q0 23 17.5 40.5t40.5 17.5t40.5 -17.5t17.5 -40.5t-17.5 -40t-40.5 -17t-40.5 17t-17.5 40z" />
    <glyph glyph-name="igrave" unicode="&#xec;" horiz-adv-x="230" 
d="M202 448l-78 -448h-77l66 383h-69l11 65h147zM128 700l69 -164h-71l-102 164h104z" />
    <glyph glyph-name="iacute" unicode="&#xed;" horiz-adv-x="230" 
d="M202 448l-78 -448h-77l66 383h-69l11 65h147zM132 536l87 164h104l-119 -164h-72z" />
    <glyph glyph-name="icircumflex" unicode="&#xee;" horiz-adv-x="230" 
d="M202 448l-78 -448h-77l66 383h-69l11 65h147zM28 536l116 164h98l60 -164h-75l-40 108l-78 -108h-81z" />
    <glyph glyph-name="idieresis" unicode="&#xef;" horiz-adv-x="230" 
d="M202 448l-78 -448h-77l66 383h-69l11 65h147zM32 584q0 23 17 40.5t40 17.5t40 -17.5t17 -40.5t-17 -40t-40 -17t-40 17t-17 40zM196 584q0 23 17.5 40.5t40.5 17.5t40.5 -17.5t17.5 -40.5t-17.5 -40t-40.5 -17t-40.5 17t-17.5 40z" />
    <glyph glyph-name="eth" unicode="&#xf0;" horiz-adv-x="537" 
d="M221 518l-24 51l83 45q-8 10 -80 86h92q21 -17 53 -52l97 53l23 -49l-85 -47q121 -163 121 -319q0 -136 -70.5 -217t-178.5 -81q-93 0 -153.5 62.5t-60.5 158.5q0 103 68.5 177t169.5 74q91 0 130 -55h5q-26 74 -95 165zM253 57q69 0 115.5 54t46.5 134q0 63 -38.5 104.5
t-99.5 41.5q-69 0 -115.5 -54t-46.5 -134q0 -63 38.5 -104.5t99.5 -41.5z" />
    <glyph glyph-name="ntilde" unicode="&#xf1;" horiz-adv-x="520" 
d="M184 448l-11 -58q80 70 160 70q73 0 111 -49t25 -126l-49 -285h-78l50 288q8 47 -11.5 75.5t-63.5 28.5q-35 0 -79.5 -23t-76.5 -55l-54 -314h-77l77 448h77zM219 539h-67q0 1 1.5 13.5t3.5 20t6 21.5t11 23.5t17 19t25 14.5t34 5q23 0 66 -23t56 -23q19 0 27 34l2 10h67
q0 -2 -2 -16.5t-3.5 -24.5t-8 -25.5t-15.5 -25.5t-25.5 -17.5t-38.5 -7.5t-65.5 23t-55.5 23q-25 0 -33 -34z" />
    <glyph glyph-name="ograve" unicode="&#xf2;" horiz-adv-x="529" 
d="M253 57q69 0 115.5 54t46.5 134q0 63 -38.5 104.5t-99.5 41.5q-69 0 -115.5 -54t-46.5 -134q0 -63 38.5 -104.5t99.5 -41.5zM255 -12q-94 0 -155.5 63t-61.5 158q0 103 68 177t169 74q94 0 155.5 -63t61.5 -158q0 -103 -68 -177t-169 -74zM245 700l69 -164h-71l-102 164
h104z" />
    <glyph glyph-name="oacute" unicode="&#xf3;" horiz-adv-x="529" 
d="M253 57q69 0 115.5 54t46.5 134q0 63 -38.5 104.5t-99.5 41.5q-69 0 -115.5 -54t-46.5 -134q0 -63 38.5 -104.5t99.5 -41.5zM255 -12q-94 0 -155.5 63t-61.5 158q0 103 68 177t169 74q94 0 155.5 -63t61.5 -158q0 -103 -68 -177t-169 -74zM265 536l87 164h104l-119 -164
h-72z" />
    <glyph glyph-name="ocircumflex" unicode="&#xf4;" horiz-adv-x="529" 
d="M253 57q69 0 115.5 54t46.5 134q0 63 -38.5 104.5t-99.5 41.5q-69 0 -115.5 -54t-46.5 -134q0 -63 38.5 -104.5t99.5 -41.5zM255 -12q-94 0 -155.5 63t-61.5 158q0 103 68 177t169 74q94 0 155.5 -63t61.5 -158q0 -103 -68 -177t-169 -74zM173 536l116 164h98l60 -164
h-75l-40 108l-78 -108h-81z" />
    <glyph glyph-name="otilde" unicode="&#xf5;" horiz-adv-x="529" 
d="M253 57q69 0 115.5 54t46.5 134q0 63 -38.5 104.5t-99.5 41.5q-69 0 -115.5 -54t-46.5 -134q0 -63 38.5 -104.5t99.5 -41.5zM255 -12q-94 0 -155.5 63t-61.5 158q0 103 68 177t169 74q94 0 155.5 -63t61.5 -158q0 -103 -68 -177t-169 -74zM221 539h-67q0 1 1.5 13.5
t3.5 20t6 21.5t11 23.5t17 19t25 14.5t34 5q23 0 66 -23t56 -23q19 0 27 34l2 10h67q0 -2 -2 -16.5t-3.5 -24.5t-8 -25.5t-15.5 -25.5t-25.5 -17.5t-38.5 -7.5t-65.5 23t-55.5 23q-25 0 -33 -34z" />
    <glyph glyph-name="odieresis" unicode="&#xf6;" horiz-adv-x="529" 
d="M253 57q69 0 115.5 54t46.5 134q0 63 -38.5 104.5t-99.5 41.5q-69 0 -115.5 -54t-46.5 -134q0 -63 38.5 -104.5t99.5 -41.5zM255 -12q-94 0 -155.5 63t-61.5 158q0 103 68 177t169 74q94 0 155.5 -63t61.5 -158q0 -103 -68 -177t-169 -74zM167 584q0 23 17 40.5t40 17.5
t40 -17.5t17 -40.5t-17 -40t-40 -17t-40 17t-17 40zM331 584q0 23 17.5 40.5t40.5 17.5t40.5 -17.5t17.5 -40.5t-17.5 -40t-40.5 -17t-40.5 17t-17.5 40z" />
    <glyph glyph-name="divide" unicode="&#xf7;" horiz-adv-x="480" 
d="M226 519q0 28 19 47.5t47 19.5t47.5 -19.5t19.5 -47.5t-20 -47t-48 -19t-46.5 19t-18.5 47zM41 323l11 68h434l-11 -68h-434zM169 194q0 28 19 47.5t47 19.5t47.5 -19.5t19.5 -47.5t-20 -47t-48 -19t-46.5 19t-18.5 47z" />
    <glyph glyph-name="oslash" unicode="&#xf8;" horiz-adv-x="529" 
d="M255 -12q-77 0 -133 42l-40 -42h-86l83 87q-41 57 -41 134q0 103 68 177t169 74q75 0 132 -43l41 43h86l-84 -87q42 -58 42 -134q0 -103 -68 -177t-169 -74zM115 203q0 -42 16 -74l227 237q-34 25 -81 25q-69 0 -115.5 -54t-46.5 -134zM253 57q69 0 115.5 54t46.5 134
q0 41 -17 73l-226 -236q34 -25 81 -25z" />
    <glyph glyph-name="ugrave" unicode="&#xf9;" horiz-adv-x="504" 
d="M99 448h78l-46 -266q-12 -54 14 -89.5t87 -35.5q46 0 79 26.5t42 77.5l50 287h77l-52 -304q-11 -68 -65 -112t-135 -44q-86 0 -137.5 53t-36.5 144zM258 700l69 -164h-71l-102 164h104z" />
    <glyph glyph-name="uacute" unicode="&#xfa;" horiz-adv-x="504" 
d="M99 448h78l-46 -266q-12 -54 14 -89.5t87 -35.5q46 0 79 26.5t42 77.5l50 287h77l-52 -304q-11 -68 -65 -112t-135 -44q-86 0 -137.5 53t-36.5 144zM258 536l87 164h104l-119 -164h-72z" />
    <glyph glyph-name="ucircumflex" unicode="&#xfb;" horiz-adv-x="504" 
d="M99 448h78l-46 -266q-12 -54 14 -89.5t87 -35.5q46 0 79 26.5t42 77.5l50 287h77l-52 -304q-11 -68 -65 -112t-135 -44q-86 0 -137.5 53t-36.5 144zM156 536l116 164h98l60 -164h-75l-40 108l-78 -108h-81z" />
    <glyph glyph-name="udieresis" unicode="&#xfc;" horiz-adv-x="504" 
d="M99 448h78l-46 -266q-12 -54 14 -89.5t87 -35.5q46 0 79 26.5t42 77.5l50 287h77l-52 -304q-11 -68 -65 -112t-135 -44q-86 0 -137.5 53t-36.5 144zM160 584q0 23 17 40.5t40 17.5t40 -17.5t17 -40.5t-17 -40t-40 -17t-40 17t-17 40zM324 584q0 23 17.5 40.5t40.5 17.5
t40.5 -17.5t17.5 -40.5t-17.5 -40t-40.5 -17t-40.5 17t-17.5 40z" />
    <glyph glyph-name="yacute" unicode="&#xfd;" horiz-adv-x="520" 
d="M137 -111h105q39 0 60.5 15t28.5 52l18 102q-68 -70 -162 -70q-73 0 -110 49t-24 126l49 285h78l-50 -288q-9 -47 9.5 -75.5t62.5 -28.5q73 0 159 78l54 314h77l-83 -489q-23 -135 -144 -135h-140zM273 536l87 164h104l-119 -164h-72z" />
    <glyph glyph-name="thorn" unicode="&#xfe;" horiz-adv-x="557" 
d="M150 700h79l-53 -308q21 30 58.5 49t82.5 19q90 0 146.5 -61t56.5 -153q0 -111 -68.5 -184.5t-164.5 -73.5q-52 0 -98.5 26.5t-64.5 75.5l-46 -266h-79zM282 57q68 0 114.5 54t46.5 131q0 65 -38 107.5t-101 42.5q-68 0 -115 -53t-47 -132q0 -65 38 -107.5t102 -42.5z
" />
    <glyph glyph-name="ydieresis" unicode="&#xff;" horiz-adv-x="520" 
d="M137 -111h105q39 0 60.5 15t28.5 52l18 102q-68 -70 -162 -70q-73 0 -110 49t-24 126l49 285h78l-50 -288q-9 -47 9.5 -75.5t62.5 -28.5q73 0 159 78l54 314h77l-83 -489q-23 -135 -144 -135h-140zM172 584q0 23 17 40.5t40 17.5t40 -17.5t17 -40.5t-17 -40t-40 -17
t-40 17t-17 40zM336 584q0 23 17.5 40.5t40.5 17.5t40.5 -17.5t17.5 -40.5t-17.5 -40t-40.5 -17t-40.5 17t-17.5 40z" />
    <glyph glyph-name="Amacron" unicode="&#x100;" horiz-adv-x="610" 
d="M437 239h-246l-117 -239h-86l354 700h95l115 -700h-78zM427 308l-46 313h-1l-155 -313h202zM272 801l11 67h260l-11 -67h-260z" />
    <glyph glyph-name="amacron" unicode="&#x101;" horiz-adv-x="557" 
d="M450 448h78l-77 -448h-77l12 56q-51 -68 -145 -68q-90 0 -146.5 60.5t-56.5 153.5q0 110 68.5 184t163.5 74q52 0 98.5 -26.5t65.5 -75.5l6 33zM276 391q-68 0 -115 -54.5t-47 -130.5q0 -65 38 -107.5t102 -42.5q68 0 114.5 53t46.5 132q0 65 -38 107.5t-101 42.5z
M207 549l11 67h260l-11 -67h-260z" />
    <glyph glyph-name="Abreve" unicode="&#x102;" horiz-adv-x="610" 
d="M437 239h-246l-117 -239h-86l354 700h95l115 -700h-78zM427 308l-46 313h-1l-155 -313h202zM463 888l9 48h68l-7 -52q-7 -56 -41.5 -84t-84.5 -28q-51 0 -82 31t-22 86l8 47h68l-9 -48q-8 -51 41 -51q43 0 52 51z" />
    <glyph glyph-name="abreve" unicode="&#x103;" horiz-adv-x="557" 
d="M450 448h78l-77 -448h-77l12 56q-51 -68 -145 -68q-90 0 -146.5 60.5t-56.5 153.5q0 110 68.5 184t163.5 74q52 0 98.5 -26.5t65.5 -75.5l6 33zM276 391q-68 0 -115 -54.5t-47 -130.5q0 -65 38 -107.5t102 -42.5q68 0 114.5 53t46.5 132q0 65 -38 107.5t-101 42.5z
M371 636l9 48h68l-7 -52q-7 -56 -41.5 -84t-84.5 -28q-51 0 -82 31t-22 86l8 47h68l-9 -48q-8 -51 41 -51q43 0 52 51z" />
    <glyph glyph-name="Aogonek" unicode="&#x104;" horiz-adv-x="610" 
d="M437 239h-246l-117 -239h-86l354 700h95l115 -700h-17q-52 -33 -79 -57t-27 -48q0 -13 11.5 -21t30.5 -8q29 0 72 14l-8 -53q-38 -18 -85 -18q-42 0 -66.5 20.5t-24.5 54.5q0 77 115 117zM427 308l-46 313h-1l-155 -313h202z" />
    <glyph glyph-name="aogonek" unicode="&#x105;" horiz-adv-x="557" 
d="M450 448h78l-77 -448h-17q-52 -33 -79 -57t-27 -48q0 -13 11.5 -21t30.5 -8q29 0 72 14l-8 -53q-38 -18 -85 -18q-42 0 -66.5 20.5t-24.5 54.5q0 79 116 117l12 55q-51 -68 -145 -68q-90 0 -146.5 60.5t-56.5 153.5q0 110 68.5 184t163.5 74q52 0 98.5 -26.5t65.5 -75.5
l6 33zM276 391q-68 0 -115 -54.5t-47 -130.5q0 -65 38 -107.5t102 -42.5q68 0 114.5 53t46.5 132q0 65 -38 107.5t-101 42.5z" />
    <glyph glyph-name="Cacute" unicode="&#x106;" horiz-adv-x="745" 
d="M738 481h-82q-24 75 -81.5 118.5t-143.5 43.5q-123 0 -205 -90.5t-82 -227.5q0 -114 68.5 -191t183.5 -77q82 0 144 43t99 119h84q-39 -105 -128 -168t-198 -63q-143 0 -237 97t-94 243q0 165 108 274.5t256 109.5q114 0 197 -63.5t111 -167.5zM433 788l87 164h104
l-119 -164h-72z" />
    <glyph glyph-name="cacute" unicode="&#x107;" horiz-adv-x="483" 
d="M382 131l63 -41q-70 -102 -193 -102q-94 0 -154 62.5t-60 158.5q0 103 67.5 177t167.5 74q127 0 184 -98l-65 -41q-42 70 -115 70q-69 0 -115 -54t-46 -134q0 -63 38.5 -104.5t99.5 -41.5q74 0 128 74zM249 536l87 164h104l-119 -164h-72z" />
    <glyph glyph-name="Ccircumflex" unicode="&#x108;" horiz-adv-x="745" 
d="M738 481h-82q-24 75 -81.5 118.5t-143.5 43.5q-123 0 -205 -90.5t-82 -227.5q0 -114 68.5 -191t183.5 -77q82 0 144 43t99 119h84q-39 -105 -128 -168t-198 -63q-143 0 -237 97t-94 243q0 165 108 274.5t256 109.5q114 0 197 -63.5t111 -167.5zM332 788l116 164h98
l60 -164h-75l-40 108l-78 -108h-81z" />
    <glyph glyph-name="ccircumflex" unicode="&#x109;" horiz-adv-x="483" 
d="M382 131l63 -41q-70 -102 -193 -102q-94 0 -154 62.5t-60 158.5q0 103 67.5 177t167.5 74q127 0 184 -98l-65 -41q-42 70 -115 70q-69 0 -115 -54t-46 -134q0 -63 38.5 -104.5t99.5 -41.5q74 0 128 74zM167 536l116 164h98l60 -164h-75l-40 108l-78 -108h-81z" />
    <glyph glyph-name="Cdotaccent" unicode="&#x10a;" horiz-adv-x="745" 
d="M738 481h-82q-24 75 -81.5 118.5t-143.5 43.5q-123 0 -205 -90.5t-82 -227.5q0 -114 68.5 -191t183.5 -77q82 0 144 43t99 119h84q-39 -105 -128 -168t-198 -63q-143 0 -237 97t-94 243q0 165 108 274.5t256 109.5q114 0 197 -63.5t111 -167.5zM527 843q0 -23 -17 -40
t-40 -17t-40.5 17t-17.5 40t17.5 40t40.5 17t40 -17t17 -40z" />
    <glyph glyph-name="cdotaccent" unicode="&#x10b;" horiz-adv-x="483" 
d="M382 131l63 -41q-70 -102 -193 -102q-94 0 -154 62.5t-60 158.5q0 103 67.5 177t167.5 74q127 0 184 -98l-65 -41q-42 70 -115 70q-69 0 -115 -54t-46 -134q0 -63 38.5 -104.5t99.5 -41.5q74 0 128 74zM366 591q0 -23 -17 -40t-40 -17t-40.5 17t-17.5 40t17.5 40t40.5 17
t40 -17t17 -40z" />
    <glyph glyph-name="Ccaron" unicode="&#x10c;" horiz-adv-x="745" 
d="M738 481h-82q-24 75 -81.5 118.5t-143.5 43.5q-123 0 -205 -90.5t-82 -227.5q0 -114 68.5 -191t183.5 -77q82 0 144 43t99 119h84q-39 -105 -128 -168t-198 -63q-143 0 -237 97t-94 243q0 165 108 274.5t256 109.5q114 0 197 -63.5t111 -167.5zM418 788l-60 164h76
l40 -108l78 108h81l-116 -164h-99z" />
    <glyph glyph-name="ccaron" unicode="&#x10d;" horiz-adv-x="483" 
d="M382 131l63 -41q-70 -102 -193 -102q-94 0 -154 62.5t-60 158.5q0 103 67.5 177t167.5 74q127 0 184 -98l-65 -41q-42 70 -115 70q-69 0 -115 -54t-46 -134q0 -63 38.5 -104.5t99.5 -41.5q74 0 128 74zM251 536l-60 164h76l40 -108l78 108h81l-116 -164h-99z" />
    <glyph glyph-name="Dcaron" unicode="&#x10e;" horiz-adv-x="681" 
d="M662 399q0 -174 -107.5 -286.5t-286.5 -112.5h-220l121 700h175q147 0 232.5 -84t85.5 -217zM139 67h112q151 0 241 89.5t90 247.5q0 109 -70.5 169t-192.5 60h-82zM356 788l-60 164h76l40 -108l78 108h81l-116 -164h-99z" />
    <glyph glyph-name="dcaron" unicode="&#x10f;" horiz-adv-x="557" 
d="M451 0h-76l10 56q-22 -31 -60.5 -49.5t-83.5 -18.5q-90 0 -146.5 61t-56.5 153q0 111 68.5 184.5t164.5 73.5q52 0 99 -26.5t65 -75.5l30 173l29 169h78zM277 391q-69 0 -115.5 -54t-46.5 -131q0 -65 38 -107.5t101 -42.5q68 0 115 53t47 132q0 65 -38 107.5t-101 42.5z
M627 652q0 25 17 42.5t43 17.5q24 0 41.5 -17.5t17.5 -40.5t-18 -45l-82 -102l-52 9l58 88q-25 17 -25 48z" />
    <glyph glyph-name="Dcroat" unicode="&#x110;" horiz-adv-x="684" 
d="M11 323l12 68h95l54 309h175q147 0 232.5 -84t85.5 -217q0 -174 -107.5 -286.5t-286.5 -112.5h-220l56 323h-96zM142 67h112q151 0 241 89.5t90 247.5q0 109 -70.5 169t-192.5 60h-82l-42 -242h217l-13 -68h-216z" />
    <glyph glyph-name="dcroat" unicode="&#x111;" horiz-adv-x="557" 
d="M351 544l11 65h116l16 91h78l-16 -91h83l-11 -65h-83l-94 -544h-76l10 56q-22 -31 -60.5 -49.5t-83.5 -18.5q-90 0 -146.5 61t-56.5 153q0 111 68.5 184.5t164.5 73.5q52 0 99 -26.5t65 -75.5l30 173l2 13h-116zM277 391q-69 0 -115.5 -54t-46.5 -131q0 -65 38 -107.5
t101 -42.5q68 0 115 53t47 132q0 65 -38 107.5t-101 42.5z" />
    <glyph glyph-name="Emacron" unicode="&#x112;" horiz-adv-x="588" 
d="M638 700l-12 -70h-390l-41 -239h251l-12 -68h-251l-44 -254h390l-12 -69h-469l121 700h469zM280 801l11 67h260l-11 -67h-260z" />
    <glyph glyph-name="emacron" unicode="&#x113;" horiz-adv-x="514" 
d="M480 246v-46h-365q1 -62 39 -102.5t99 -40.5q71 0 113 57h95q-31 -57 -85.5 -91.5t-120.5 -34.5q-94 0 -155.5 63t-61.5 158q0 103 67.5 177t168.5 74q91 0 148.5 -60.5t57.5 -153.5zM274 391q-55 0 -96 -35t-55 -92h279q-2 56 -37 91.5t-91 35.5zM170 549l11 67h260
l-11 -67h-260z" />
    <glyph glyph-name="Ebreve" unicode="&#x114;" horiz-adv-x="588" 
d="M638 700l-12 -70h-390l-41 -239h251l-12 -68h-251l-44 -254h390l-12 -69h-469l121 700h469zM465 888l9 48h68l-7 -52q-7 -56 -41.5 -84t-84.5 -28q-51 0 -82 31t-22 86l8 47h68l-9 -48q-8 -51 41 -51q43 0 52 51z" />
    <glyph glyph-name="ebreve" unicode="&#x115;" horiz-adv-x="514" 
d="M480 246v-46h-365q1 -62 39 -102.5t99 -40.5q71 0 113 57h95q-31 -57 -85.5 -91.5t-120.5 -34.5q-94 0 -155.5 63t-61.5 158q0 103 67.5 177t168.5 74q91 0 148.5 -60.5t57.5 -153.5zM274 391q-55 0 -96 -35t-55 -92h279q-2 56 -37 91.5t-91 35.5zM355 636l9 48h68
l-7 -52q-7 -56 -41.5 -84t-84.5 -28q-51 0 -82 31t-22 86l8 47h68l-9 -48q-8 -51 41 -51q43 0 52 51z" />
    <glyph glyph-name="Edotaccent" unicode="&#x116;" horiz-adv-x="588" 
d="M638 700l-12 -70h-390l-41 -239h251l-12 -68h-251l-44 -254h390l-12 -69h-469l121 700h469zM470 843q0 -23 -17 -40t-40 -17t-40.5 17t-17.5 40t17.5 40t40.5 17t40 -17t17 -40z" />
    <glyph glyph-name="edotaccent" unicode="&#x117;" horiz-adv-x="514" 
d="M480 246v-46h-365q1 -62 39 -102.5t99 -40.5q71 0 113 57h95q-31 -57 -85.5 -91.5t-120.5 -34.5q-94 0 -155.5 63t-61.5 158q0 103 67.5 177t168.5 74q91 0 148.5 -60.5t57.5 -153.5zM274 391q-55 0 -96 -35t-55 -92h279q-2 56 -37 91.5t-91 35.5zM367 591q0 -23 -17 -40
t-40 -17t-40.5 17t-17.5 40t17.5 40t40.5 17t40 -17t17 -40z" />
    <glyph glyph-name="Eogonek" unicode="&#x118;" horiz-adv-x="588" 
d="M638 700l-12 -70h-390l-41 -239h251l-12 -68h-251l-44 -254h390l-12 -69h-69q-52 -33 -79 -57t-27 -48q0 -13 11.5 -21t30.5 -8q29 0 72 14l-8 -53q-38 -18 -85 -18q-42 0 -66.5 20.5t-24.5 54.5q0 77 112 116h-336l121 700h469z" />
    <glyph glyph-name="eogonek" unicode="&#x119;" horiz-adv-x="518" 
d="M482 246v-46h-365q1 -62 39 -102.5t99 -40.5q71 0 113 57h95q-28 -52 -76.5 -85.5t-108.5 -39.5q-89 -57 -89 -94q0 -13 11.5 -21t30.5 -8q29 0 72 14l-8 -53q-38 -18 -85 -18q-42 0 -66.5 20.5t-24.5 54.5q0 70 93 109q-77 14 -124.5 73.5t-47.5 142.5q0 103 67.5 177
t168.5 74q91 0 148.5 -60.5t57.5 -153.5zM276 391q-55 0 -96 -35t-55 -92h279q-2 56 -37 91.5t-91 35.5z" />
    <glyph glyph-name="Ecaron" unicode="&#x11a;" horiz-adv-x="588" 
d="M638 700l-12 -70h-390l-41 -239h251l-12 -68h-251l-44 -254h390l-12 -69h-469l121 700h469zM353 788l-60 164h76l40 -108l78 108h81l-116 -164h-99z" />
    <glyph glyph-name="ecaron" unicode="&#x11b;" horiz-adv-x="514" 
d="M480 246v-46h-365q1 -62 39 -102.5t99 -40.5q71 0 113 57h95q-31 -57 -85.5 -91.5t-120.5 -34.5q-94 0 -155.5 63t-61.5 158q0 103 67.5 177t168.5 74q91 0 148.5 -60.5t57.5 -153.5zM274 391q-55 0 -96 -35t-55 -92h279q-2 56 -37 91.5t-91 35.5zM244 536l-60 164h76
l40 -108l78 108h81l-116 -164h-99z" />
    <glyph glyph-name="Gcircumflex" unicode="&#x11c;" horiz-adv-x="768" 
d="M389 -12q-143 0 -233 95.5t-90 244.5q0 165 108 274.5t257 109.5q115 0 202.5 -64t115.5 -167h-82q-24 74 -86 118t-149 44q-123 0 -205.5 -90.5t-82.5 -227.5q0 -114 68 -191t183 -77q98 0 166 60t82 122h-169l11 69h249l-53 -308h-71l18 110q-33 -51 -94.5 -86.5
t-144.5 -35.5zM319 788l116 164h98l60 -164h-75l-40 108l-78 -108h-81z" />
    <glyph glyph-name="gcircumflex" unicode="&#x11d;" horiz-adv-x="556" 
d="M528 448l-85 -489q-23 -135 -144 -135h-178l12 65h143q39 0 60.5 15t28.5 52l20 100q-22 -31 -60.5 -49.5t-83.5 -18.5q-90 0 -146.5 60.5t-56.5 153.5q0 110 68.5 184t163.5 74q52 0 98.5 -26.5t65.5 -75.5l16 90h78zM276 391q-68 0 -115 -54.5t-47 -130.5
q0 -65 38 -107.5t102 -42.5q68 0 114.5 53t46.5 132q0 65 -38 107.5t-101 42.5zM171 536l116 164h98l60 -164h-75l-40 108l-78 -108h-81z" />
    <glyph glyph-name="Gbreve" unicode="&#x11e;" horiz-adv-x="768" 
d="M389 -12q-143 0 -233 95.5t-90 244.5q0 165 108 274.5t257 109.5q115 0 202.5 -64t115.5 -167h-82q-24 74 -86 118t-149 44q-123 0 -205.5 -90.5t-82.5 -227.5q0 -114 68 -191t183 -77q98 0 166 60t82 122h-169l11 69h249l-53 -308h-71l18 110q-33 -51 -94.5 -86.5
t-144.5 -35.5zM512 888l9 48h68l-7 -52q-7 -56 -41.5 -84t-84.5 -28t-81.5 31t-22.5 86l8 47h68l-9 -48q-4 -23 6.5 -37t34.5 -14q44 0 52 51z" />
    <glyph glyph-name="gbreve" unicode="&#x11f;" horiz-adv-x="556" 
d="M528 448l-85 -489q-23 -135 -144 -135h-178l12 65h143q39 0 60.5 15t28.5 52l20 100q-22 -31 -60.5 -49.5t-83.5 -18.5q-90 0 -146.5 60.5t-56.5 153.5q0 110 68.5 184t163.5 74q52 0 98.5 -26.5t65.5 -75.5l16 90h78zM276 391q-68 0 -115 -54.5t-47 -130.5
q0 -65 38 -107.5t102 -42.5q68 0 114.5 53t46.5 132q0 65 -38 107.5t-101 42.5zM366 636l9 48h68l-7 -52q-7 -56 -41.5 -84t-84.5 -28t-81.5 31t-22.5 86l8 47h68l-9 -48q-4 -23 6.5 -37t34.5 -14q44 0 52 51z" />
    <glyph glyph-name="Gdotaccent" unicode="&#x120;" horiz-adv-x="768" 
d="M389 -12q-143 0 -233 95.5t-90 244.5q0 165 108 274.5t257 109.5q115 0 202.5 -64t115.5 -167h-82q-24 74 -86 118t-149 44q-123 0 -205.5 -90.5t-82.5 -227.5q0 -114 68 -191t183 -77q98 0 166 60t82 122h-169l11 69h249l-53 -308h-71l18 110q-33 -51 -94.5 -86.5
t-144.5 -35.5zM518 843q0 -23 -17 -40t-40 -17t-40.5 17t-17.5 40t17.5 40t40.5 17t40 -17t17 -40z" />
    <glyph glyph-name="gdotaccent" unicode="&#x121;" horiz-adv-x="556" 
d="M528 448l-85 -489q-23 -135 -144 -135h-178l12 65h143q39 0 60.5 15t28.5 52l20 100q-22 -31 -60.5 -49.5t-83.5 -18.5q-90 0 -146.5 60.5t-56.5 153.5q0 110 68.5 184t163.5 74q52 0 98.5 -26.5t65.5 -75.5l16 90h78zM276 391q-68 0 -115 -54.5t-47 -130.5
q0 -65 38 -107.5t102 -42.5q68 0 114.5 53t46.5 132q0 65 -38 107.5t-101 42.5zM367 591q0 -23 -17 -40t-40 -17t-40.5 17t-17.5 40t17.5 40t40.5 17t40 -17t17 -40z" />
    <glyph glyph-name="Gcommaaccent" unicode="&#x122;" horiz-adv-x="768" 
d="M389 -12q-143 0 -233 95.5t-90 244.5q0 165 108 274.5t257 109.5q115 0 202.5 -64t115.5 -167h-82q-24 74 -86 118t-149 44q-123 0 -205.5 -90.5t-82.5 -227.5q0 -114 68 -191t183 -77q98 0 166 60t82 122h-169l11 69h249l-53 -308h-71l18 110q-33 -51 -94.5 -86.5
t-144.5 -35.5zM241 -107q0 25 17 42.5t43 17.5q24 0 41.5 -17.5t17.5 -40.5t-18 -45l-82 -102l-52 9l58 88q-25 17 -25 48z" />
    <glyph glyph-name="gcommaaccent" unicode="&#x123;" horiz-adv-x="556" 
d="M528 448l-85 -489q-23 -135 -144 -135h-178l12 65h143q39 0 60.5 15t28.5 52l20 100q-22 -31 -60.5 -49.5t-83.5 -18.5q-90 0 -146.5 60.5t-56.5 153.5q0 110 68.5 184t163.5 74q52 0 98.5 -26.5t65.5 -75.5l16 90h78zM276 391q-68 0 -115 -54.5t-47 -130.5
q0 -65 38 -107.5t102 -42.5q68 0 114.5 53t46.5 132q0 65 -38 107.5t-101 42.5zM389 587q0 -25 -17 -42.5t-43 -17.5q-24 0 -41.5 17.5t-17.5 40.5t18 45l82 102l52 -9l-58 -88q25 -17 25 -48z" />
    <glyph glyph-name="Hcircumflex" unicode="&#x124;" horiz-adv-x="662" 
d="M659 700l-121 -700h-80l56 323h-330l-56 -323h-80l121 700h80l-53 -309h329l54 309h80zM280 788l116 164h98l60 -164h-75l-40 108l-78 -108h-81z" />
    <glyph glyph-name="hcircumflex" unicode="&#x125;" horiz-adv-x="520" 
d="M161 314l-54 -314h-77l120 700h78l-28 -160l-27 -150q80 70 164 70q73 0 109 -49t23 -126l-49 -285h-78l50 288q8 47 -11.5 75.5t-63.5 28.5q-35 0 -79.5 -23t-76.5 -55zM201 788l116 164h98l60 -164h-75l-40 108l-78 -108h-81z" />
    <glyph glyph-name="Hbar" unicode="&#x126;" horiz-adv-x="667" 
d="M662 700l-22 -127h92l-12 -66h-92l-87 -507h-80l56 323h-330l-56 -323h-80l87 507h-89l11 66h90l22 127h80l-22 -127h330l22 127h80zM199 391h329l20 116h-329z" />
    <glyph glyph-name="hbar" unicode="&#x127;" horiz-adv-x="520" 
d="M51 544l11 65h72l16 91h78l-16 -91h127l-11 -65h-128v-4l-27 -150q80 70 164 70q73 0 109 -49t23 -126l-49 -285h-78l50 288q8 47 -11.5 75.5t-63.5 28.5q-35 0 -79.5 -23t-76.5 -55l-54 -314h-77l93 544h-72z" />
    <glyph glyph-name="Itilde" unicode="&#x128;" horiz-adv-x="252" 
d="M249 700l-121 -700h-80l121 700h80zM142 791h-67q0 1 1.5 13.5t3.5 20t6 21.5t11 23.5t17 19t25 14.5t34 5q23 0 66 -23t56 -23q19 0 27 34l2 10h67q0 -2 -2 -16.5t-3.5 -24.5t-8 -25.5t-15.5 -25.5t-25.5 -17.5t-38.5 -7.5t-65.5 23t-55.5 23q-25 0 -33 -34z" />
    <glyph glyph-name="itilde" unicode="&#x129;" horiz-adv-x="230" 
d="M202 448l-78 -448h-77l66 383h-69l11 65h147zM82 539h-67q0 1 1.5 13.5t3.5 20t6 21.5t11 23.5t17 19t25 14.5t34 5q23 0 66 -23t56 -23q19 0 27 34l2 10h67q0 -2 -2 -16.5t-3.5 -24.5t-8 -25.5t-15.5 -25.5t-25.5 -17.5t-38.5 -7.5t-65.5 23t-55.5 23q-25 0 -33 -34z
" />
    <glyph glyph-name="Imacron" unicode="&#x12a;" horiz-adv-x="252" 
d="M249 700l-121 -700h-80l121 700h80zM94 801l11 67h260l-11 -67h-260z" />
    <glyph glyph-name="imacron" unicode="&#x12b;" horiz-adv-x="230" 
d="M202 448l-78 -448h-77l66 383h-69l11 65h147zM23 549l11 67h260l-11 -67h-260z" />
    <glyph glyph-name="Ibreve" unicode="&#x12c;" horiz-adv-x="252" 
d="M249 700l-121 -700h-80l121 700h80zM277 888l9 48h68l-7 -52q-7 -56 -41.5 -84t-84.5 -28q-51 0 -82 31t-22 86l8 47h68l-9 -48q-8 -51 41 -51q43 0 52 51z" />
    <glyph glyph-name="ibreve" unicode="&#x12d;" horiz-adv-x="230" 
d="M202 448l-78 -448h-77l66 383h-69l11 65h147zM227 636l9 48h68l-7 -52q-7 -56 -41.5 -84t-84.5 -28q-51 0 -82 31t-22 86l8 47h68l-9 -48q-8 -51 41 -51q43 0 52 51z" />
    <glyph glyph-name="Iogonek" unicode="&#x12e;" horiz-adv-x="252" 
d="M249 700l-121 -700h-17q-52 -33 -79 -57t-27 -48q0 -13 11.5 -21t30.5 -8q29 0 72 14l-8 -53q-38 -18 -85 -18q-42 0 -66.5 20.5t-24.5 54.5q0 44 31 71t82 45l121 700h80z" />
    <glyph glyph-name="iogonek" unicode="&#x12f;" horiz-adv-x="230" 
d="M202 448l-78 -448h-11q-52 -33 -79 -57t-27 -48q0 -13 11.5 -21t30.5 -8q29 0 72 14l-8 -53q-38 -18 -85 -18q-42 0 -66.5 20.5t-24.5 54.5q0 76 112 116h-2l66 383h-69l11 65h147zM124 611q0 25 18 43t43 18t43 -18t18 -43t-18 -43t-43 -18t-43 18t-18 43z" />
    <glyph glyph-name="Idotaccent" unicode="&#x130;" horiz-adv-x="252" 
d="M249 700l-121 -700h-80l121 700h80zM290 843q0 -23 -17 -40t-40 -17t-40.5 17t-17.5 40t17.5 40t40.5 17t40 -17t17 -40z" />
    <glyph glyph-name="dotlessi" unicode="&#x131;" horiz-adv-x="230" 
d="M202 448l-78 -448h-77l66 383h-69l11 65h147z" />
    <glyph glyph-name="IJ" unicode="&#x132;" horiz-adv-x="826" 
d="M249 700l-121 -700h-80l121 700h80zM286 277h78l-5 -32q-12 -77 24.5 -132t116.5 -55q70 0 112 45.5t54 113.5l84 483h80l-85 -493q-17 -98 -81.5 -158.5t-166.5 -60.5q-113 0 -173.5 74.5t-41.5 192.5z" />
    <glyph glyph-name="ij" unicode="&#x133;" horiz-adv-x="460" 
d="M202 448l-78 -448h-77l66 383h-69l11 65h147zM124 611q0 25 18 43t43 18t43 -18t18 -43t-18 -43t-43 -18t-43 18t-18 43zM264 -72l79 455h-69l11 65h147l-92 -530q-5 -30 -17 -50t-29.5 -29t-33 -12t-36.5 -3h-66l11 65h42q23 0 36 8t17 31zM353 611q0 25 17.5 43
t43.5 18t43.5 -18t17.5 -43t-17.5 -43t-43.5 -18t-43.5 18t-17.5 43z" />
    <glyph glyph-name="Jcircumflex" unicode="&#x134;" horiz-adv-x="574" 
d="M34 277h78l-5 -32q-12 -77 24.5 -132t116.5 -55q70 0 112 45.5t54 113.5l84 483h80l-85 -493q-17 -98 -81.5 -158.5t-166.5 -60.5q-113 0 -173.5 74.5t-41.5 192.5zM251 788l116 164h98l60 -164h-75l-40 108l-78 -108h-81z" />
    <glyph glyph-name="jcircumflex" unicode="&#x135;" horiz-adv-x="230" 
d="M34 -72l79 455h-69l11 65h147l-92 -530q-5 -30 -17 -50t-29.5 -29t-33 -12t-36.5 -3h-66l11 65h42q23 0 36 8t17 31zM21 536l116 164h98l60 -164h-75l-40 108l-78 -108h-81z" />
    <glyph glyph-name="Kcommaaccent" unicode="&#x136;" horiz-adv-x="587" 
d="M249 700l-51 -299h30l339 299h105l-385 -334l256 -366h-94l-228 333h-35l-58 -333h-80l121 700h80zM193 -107q0 25 17 42.5t43 17.5q24 0 41.5 -17.5t17.5 -40.5t-18 -45l-82 -102l-52 9l58 88q-25 17 -25 48z" />
    <glyph glyph-name="kcommaaccent" unicode="&#x137;" horiz-adv-x="463" 
d="M228 700l-73 -422h45l179 170h103l-221 -202l154 -246h-87l-132 213h-53l-36 -213h-77l120 700h78zM136 -107q0 25 17 42.5t43 17.5q24 0 41.5 -17.5t17.5 -40.5t-18 -45l-82 -102l-52 9l58 88q-25 17 -25 48z" />
    <glyph glyph-name="kgreenlandic" unicode="&#x138;" horiz-adv-x="499" 
d="M187 448l-34 -190h46l213 190h109l-255 -221l183 -227h-100l-151 193h-56l-34 -193h-79l79 448h79z" />
    <glyph glyph-name="Lacute" unicode="&#x139;" horiz-adv-x="479" 
d="M431 0h-383l121 700h80l-109 -631h303zM233 788l87 164h104l-119 -164h-72z" />
    <glyph glyph-name="lacute" unicode="&#x13a;" horiz-adv-x="213" 
d="M228 700l-121 -700h-77l121 700h77zM169 788l87 164h104l-119 -164h-72z" />
    <glyph glyph-name="Lcommaaccent" unicode="&#x13b;" horiz-adv-x="479" 
d="M431 0h-383l121 700h80l-109 -631h303zM154 -107q0 25 17 42.5t43 17.5q24 0 41.5 -17.5t17.5 -40.5t-18 -45l-82 -102l-52 9l58 88q-25 17 -25 48z" />
    <glyph glyph-name="lcommaaccent" unicode="&#x13c;" horiz-adv-x="213" 
d="M228 700l-121 -700h-77l121 700h77zM-14 -107q0 25 17 42.5t43 17.5q24 0 41.5 -17.5t17.5 -40.5t-18 -45l-82 -102l-52 9l58 88q-25 17 -25 48z" />
    <glyph glyph-name="Lcaron" unicode="&#x13d;" horiz-adv-x="480" 
d="M431 0h-383l121 700h80l-109 -631h303zM374 652q0 25 17 42.5t43 17.5q24 0 41.5 -17.5t17.5 -40.5t-18 -45l-82 -102l-52 9l58 88q-25 17 -25 48z" />
    <glyph glyph-name="lcaron" unicode="&#x13e;" horiz-adv-x="213" 
d="M228 700l-121 -700h-77l121 700h77zM283 652q0 25 17 42.5t43 17.5q24 0 41.5 -17.5t17.5 -40.5t-18 -45l-82 -102l-52 9l58 88q-25 17 -25 48z" />
    <glyph glyph-name="Ldot" unicode="&#x13f;" horiz-adv-x="480" 
d="M431 0h-383l121 700h80l-109 -631h303zM324 355q0 28 19 47.5t47 19.5t47.5 -19.5t19.5 -47.5t-19.5 -47t-47.5 -19t-47 19t-19 47z" />
    <glyph glyph-name="ldot" unicode="&#x140;" horiz-adv-x="354" 
d="M228 700l-121 -700h-77l121 700h77zM243 370q0 28 19 47.5t47 19.5t47.5 -19.5t19.5 -47.5t-19.5 -47t-47.5 -19t-47 19t-19 47z" />
    <glyph glyph-name="Lslash" unicode="&#x141;" horiz-adv-x="480" 
d="M9 248l13 70l88 30l61 352h80l-56 -324l197 67l-13 -70l-196 -66l-41 -238h303l-12 -69h-383l48 278z" />
    <glyph glyph-name="lslash" unicode="&#x142;" horiz-adv-x="232" 
d="M235 700l-55 -316l82 46l-13 -74l-82 -46l-53 -310h-77l45 261l-75 -42l12 74l76 43l63 364h77z" />
    <glyph glyph-name="Nacute" unicode="&#x143;" horiz-adv-x="662" 
d="M231 594l-103 -594h-80l121 700h103l206 -583l101 583h80l-121 -700h-94zM396 788l87 164h104l-119 -164h-72z" />
    <glyph glyph-name="nacute" unicode="&#x144;" horiz-adv-x="520" 
d="M184 448l-11 -58q80 70 160 70q73 0 111 -49t25 -126l-49 -285h-78l50 288q8 47 -11.5 75.5t-63.5 28.5q-35 0 -79.5 -23t-76.5 -55l-54 -314h-77l77 448h77zM267 536l87 164h104l-119 -164h-72z" />
    <glyph glyph-name="Ncommaaccent" unicode="&#x145;" horiz-adv-x="662" 
d="M231 594l-103 -594h-80l121 700h103l206 -583l101 583h80l-121 -700h-94zM210 -107q0 25 17 42.5t43 17.5q24 0 41.5 -17.5t17.5 -40.5t-18 -45l-82 -102l-52 9l58 88q-25 17 -25 48z" />
    <glyph glyph-name="ncommaaccent" unicode="&#x146;" horiz-adv-x="520" 
d="M184 448l-11 -58q80 70 160 70q73 0 111 -49t25 -126l-49 -285h-78l50 288q8 47 -11.5 75.5t-63.5 28.5q-35 0 -79.5 -23t-76.5 -55l-54 -314h-77l77 448h77zM150 -107q0 25 17 42.5t43 17.5q24 0 41.5 -17.5t17.5 -40.5t-18 -45l-82 -102l-52 9l58 88q-25 17 -25 48z
" />
    <glyph glyph-name="Ncaron" unicode="&#x147;" horiz-adv-x="662" 
d="M231 594l-103 -594h-80l121 700h103l206 -583l101 583h80l-121 -700h-94zM383 788l-60 164h76l40 -108l78 108h81l-116 -164h-99z" />
    <glyph glyph-name="ncaron" unicode="&#x148;" horiz-adv-x="520" 
d="M184 448l-11 -58q80 70 160 70q73 0 111 -49t25 -126l-49 -285h-78l50 288q8 47 -11.5 75.5t-63.5 28.5q-35 0 -79.5 -23t-76.5 -55l-54 -314h-77l77 448h77zM276 536l-60 164h76l40 -108l78 108h81l-116 -164h-99z" />
    <glyph glyph-name="napostrophe" unicode="&#x149;" horiz-adv-x="520" 
d="M184 448l-11 -58q80 70 160 70q73 0 111 -49t25 -126l-49 -285h-78l50 288q8 47 -11.5 75.5t-63.5 28.5q-35 0 -79.5 -23t-76.5 -55l-54 -314h-77l77 448h77zM125 652q0 25 17 42.5t43 17.5q24 0 41.5 -17.5t17.5 -40.5t-18 -45l-82 -102l-52 9l58 88q-25 17 -25 48z" />
    <glyph glyph-name="Eng" unicode="&#x14a;" horiz-adv-x="663" 
d="M231 594l-103 -594h-80l121 700h103l206 -583l101 583h80l-129 -754q-10 -61 -44 -91.5t-106 -30.5h-69l13 70h43q41 0 58.5 13.5t25.5 60.5l5 32h-12z" />
    <glyph glyph-name="eng" unicode="&#x14b;" horiz-adv-x="520" 
d="M330 -72l62 360q8 47 -11.5 75.5t-63.5 28.5q-35 0 -79.5 -23t-76.5 -55l-54 -314h-77l77 448h77l-11 -58q80 70 160 70q73 0 111 -49t25 -126l-63 -367q-9 -56 -40 -75t-76 -19h-66l11 65h42q23 0 36 8t17 31z" />
    <glyph glyph-name="Omacron" unicode="&#x14c;" horiz-adv-x="782" 
d="M762 372q0 -164 -108.5 -274t-256.5 -110q-143 0 -237 97t-94 243q0 164 108.5 274t256.5 110q143 0 237 -97t94 -243zM144 325q0 -113 69 -190.5t183 -77.5q123 0 205 90.5t82 227.5q0 113 -68.5 190.5t-182.5 77.5q-123 0 -205.5 -90.5t-82.5 -227.5zM336 801l11 67
h260l-11 -67h-260z" />
    <glyph glyph-name="omacron" unicode="&#x14d;" horiz-adv-x="529" 
d="M253 57q69 0 115.5 54t46.5 134q0 63 -38.5 104.5t-99.5 41.5q-69 0 -115.5 -54t-46.5 -134q0 -63 38.5 -104.5t99.5 -41.5zM255 -12q-94 0 -155.5 63t-61.5 158q0 103 68 177t169 74q94 0 155.5 -63t61.5 -158q0 -103 -68 -177t-169 -74zM176 549l11 67h260l-11 -67
h-260z" />
    <glyph glyph-name="Obreve" unicode="&#x14e;" horiz-adv-x="782" 
d="M762 372q0 -164 -108.5 -274t-256.5 -110q-143 0 -237 97t-94 243q0 164 108.5 274t256.5 110q143 0 237 -97t94 -243zM144 325q0 -113 69 -190.5t183 -77.5q123 0 205 90.5t82 227.5q0 113 -68.5 190.5t-182.5 77.5q-123 0 -205.5 -90.5t-82.5 -227.5zM510 888l9 48h68
l-7 -52q-7 -56 -41.5 -84t-84.5 -28t-81.5 31t-22.5 86l8 47h68l-9 -48q-4 -23 6.5 -37t34.5 -14q44 0 52 51z" />
    <glyph glyph-name="obreve" unicode="&#x14f;" horiz-adv-x="529" 
d="M253 57q69 0 115.5 54t46.5 134q0 63 -38.5 104.5t-99.5 41.5q-69 0 -115.5 -54t-46.5 -134q0 -63 38.5 -104.5t99.5 -41.5zM255 -12q-94 0 -155.5 63t-61.5 158q0 103 68 177t169 74q94 0 155.5 -63t61.5 -158q0 -103 -68 -177t-169 -74zM359 636l9 48h68l-7 -52
q-7 -56 -41.5 -84t-84.5 -28q-51 0 -82 31t-22 86l8 47h68l-9 -48q-8 -51 41 -51q43 0 52 51z" />
    <glyph glyph-name="Ohungarumlaut" unicode="&#x150;" horiz-adv-x="782" 
d="M762 372q0 -164 -108.5 -274t-256.5 -110q-143 0 -237 97t-94 243q0 164 108.5 274t256.5 110q143 0 237 -97t94 -243zM144 325q0 -113 69 -190.5t183 -77.5q123 0 205 90.5t82 227.5q0 113 -68.5 190.5t-182.5 77.5q-123 0 -205.5 -90.5t-82.5 -227.5zM335 788l97 164
h94l-110 -164h-81zM493 788l97 164h94l-109 -164h-82z" />
    <glyph glyph-name="ohungarumlaut" unicode="&#x151;" horiz-adv-x="529" 
d="M253 57q69 0 115.5 54t46.5 134q0 63 -38.5 104.5t-99.5 41.5q-69 0 -115.5 -54t-46.5 -134q0 -63 38.5 -104.5t99.5 -41.5zM255 -12q-94 0 -155.5 63t-61.5 158q0 103 68 177t169 74q94 0 155.5 -63t61.5 -158q0 -103 -68 -177t-169 -74zM189 536l97 164h94l-110 -164
h-81zM347 536l97 164h94l-109 -164h-82z" />
    <glyph glyph-name="OE" unicode="&#x152;" horiz-adv-x="1019" 
d="M948 0h-575q-145 0 -227 81.5t-82 213.5q0 178 117.5 291.5t302.5 113.5h585l-12 -70h-391l-41 -239h251l-12 -68h-251l-44 -254h391zM495 631q-154 0 -252 -90.5t-98 -249.5q0 -107 67.5 -164.5t185.5 -57.5h92l97 562h-92z" />
    <glyph glyph-name="oe" unicode="&#x153;" horiz-adv-x="887" 
d="M256 -12q-94 0 -156 63t-62 158q0 103 68 177t169 74q62 0 109 -28.5t74 -79.5q29 50 78 79t110 29q91 0 148 -60t59 -154v-46h-366q1 -62 39 -102.5t99 -40.5q72 0 113 57h95q-31 -57 -85.5 -91.5t-120.5 -34.5q-62 0 -110 29t-73 79q-65 -108 -188 -108zM646 391
q-55 0 -95.5 -35t-55.5 -92h279q-5 57 -39 92t-89 35zM254 57q69 0 115.5 54t46.5 134q0 63 -38.5 104.5t-100.5 41.5q-69 0 -115 -54t-46 -134q0 -63 38.5 -104.5t99.5 -41.5z" />
    <glyph glyph-name="Racute" unicode="&#x154;" horiz-adv-x="595" 
d="M474 0l-166 306h-127l-53 -306h-80l121 700h195q101 0 158 -51t57 -127q0 -30 -9 -59.5t-29 -60t-60 -53.5t-95 -32l177 -317h-89zM193 375h117q80 0 133.5 35.5t53.5 107.5q0 52 -38.5 82.5t-104.5 30.5h-117zM333 788l87 164h104l-119 -164h-72z" />
    <glyph glyph-name="racute" unicode="&#x155;" horiz-adv-x="321" 
d="M341 456l-14 -76h-36q-54 0 -92 -31.5t-52 -118.5l-40 -230h-78l78 448h75l-12 -71q24 40 61.5 60.5t71.5 20.5q25 0 38 -2zM188 536l87 164h104l-119 -164h-72z" />
    <glyph glyph-name="Rcommaaccent" unicode="&#x156;" horiz-adv-x="595" 
d="M474 0l-166 306h-127l-53 -306h-80l121 700h195q101 0 158 -51t57 -127q0 -30 -9 -59.5t-29 -60t-60 -53.5t-95 -32l177 -317h-89zM193 375h117q80 0 133.5 35.5t53.5 107.5q0 52 -38.5 82.5t-104.5 30.5h-117zM194 -107q0 25 17 42.5t43 17.5q24 0 41.5 -17.5
t17.5 -40.5t-18 -45l-82 -102l-52 9l58 88q-25 17 -25 48z" />
    <glyph glyph-name="rcommaaccent" unicode="&#x157;" horiz-adv-x="321" 
d="M341 456l-14 -76h-36q-54 0 -92 -31.5t-52 -118.5l-40 -230h-78l78 448h75l-12 -71q24 40 61.5 60.5t71.5 20.5q25 0 38 -2zM-9 -107q0 25 17 42.5t43 17.5q24 0 41.5 -17.5t17.5 -40.5t-18 -45l-82 -102l-52 9l58 88q-25 17 -25 48z" />
    <glyph glyph-name="Rcaron" unicode="&#x158;" horiz-adv-x="595" 
d="M474 0l-166 306h-127l-53 -306h-80l121 700h195q101 0 158 -51t57 -127q0 -30 -9 -59.5t-29 -60t-60 -53.5t-95 -32l177 -317h-89zM193 375h117q80 0 133.5 35.5t53.5 107.5q0 52 -38.5 82.5t-104.5 30.5h-117zM320 788l-60 164h76l40 -108l78 108h81l-116 -164h-99z" />
    <glyph glyph-name="rcaron" unicode="&#x159;" horiz-adv-x="321" 
d="M341 456l-14 -76h-36q-54 0 -92 -31.5t-52 -118.5l-40 -230h-78l78 448h75l-12 -71q24 40 61.5 60.5t71.5 20.5q25 0 38 -2zM184 536l-60 164h76l40 -108l78 108h81l-116 -164h-99z" />
    <glyph glyph-name="Sacute" unicode="&#x15a;" horiz-adv-x="501" 
d="M518 612l-49 -49q-65 82 -158 82q-58 0 -92 -30.5t-34 -77.5q0 -29 16 -53.5t55 -55.5l70 -55q72 -57 99.5 -100.5t27.5 -98.5q0 -76 -57 -131t-152 -55q-144 0 -233 116l50 52q27 -39 75.5 -70t101.5 -31q65 0 101 35t36 86q0 34 -21.5 66t-76.5 74l-56 43
q-56 43 -85 84.5t-29 90.5q0 84 59.5 131t142.5 47q60 0 117 -27t92 -73zM305 788l87 164h104l-119 -164h-72z" />
    <glyph glyph-name="sacute" unicode="&#x15b;" horiz-adv-x="398" 
d="M384 383l-50 -43q-18 25 -49 40.5t-62 15.5q-40 0 -58.5 -17.5t-18.5 -38.5t9.5 -33.5t34.5 -26.5l62 -35q47 -27 69 -55.5t22 -71.5q0 -18 -7.5 -38t-24 -42t-51.5 -36t-83 -14q-53 0 -102 23.5t-75 58.5l50 53q53 -71 131 -71q42 0 65.5 19t23.5 47q0 24 -15.5 40
t-55.5 37l-48 26q-80 43 -80 112q0 56 43 90.5t110 34.5q98 0 160 -75zM212 536l87 164h104l-119 -164h-72z" />
    <glyph glyph-name="Scircumflex" unicode="&#x15c;" horiz-adv-x="501" 
d="M518 612l-49 -49q-65 82 -158 82q-58 0 -92 -30.5t-34 -77.5q0 -29 16 -53.5t55 -55.5l70 -55q72 -57 99.5 -100.5t27.5 -98.5q0 -76 -57 -131t-152 -55q-144 0 -233 116l50 52q27 -39 75.5 -70t101.5 -31q65 0 101 35t36 86q0 34 -21.5 66t-76.5 74l-56 43
q-56 43 -85 84.5t-29 90.5q0 84 59.5 131t142.5 47q60 0 117 -27t92 -73zM205 788l116 164h98l60 -164h-75l-40 108l-78 -108h-81z" />
    <glyph glyph-name="scircumflex" unicode="&#x15d;" horiz-adv-x="398" 
d="M384 383l-50 -43q-18 25 -49 40.5t-62 15.5q-40 0 -58.5 -17.5t-18.5 -38.5t9.5 -33.5t34.5 -26.5l62 -35q47 -27 69 -55.5t22 -71.5q0 -18 -7.5 -38t-24 -42t-51.5 -36t-83 -14q-53 0 -102 23.5t-75 58.5l50 53q53 -71 131 -71q42 0 65.5 19t23.5 47q0 24 -15.5 40
t-55.5 37l-48 26q-80 43 -80 112q0 56 43 90.5t110 34.5q98 0 160 -75zM120 536l116 164h98l60 -164h-75l-40 108l-78 -108h-81z" />
    <glyph glyph-name="Scedilla" unicode="&#x15e;" horiz-adv-x="502" 
d="M94 -136l74 134q-93 24 -155 106l50 52q27 -39 75.5 -70t101.5 -31q65 0 101 35t36 86q0 34 -21.5 66t-76.5 74l-56 43q-56 43 -85 84.5t-29 90.5q0 84 59.5 131t142.5 47q60 0 117 -27t92 -73l-49 -49q-65 82 -158 82q-58 0 -92 -30.5t-34 -77.5q0 -29 16 -53.5
t55 -55.5l70 -55q72 -57 99.5 -100.5t27.5 -98.5q0 -74 -54 -128t-145 -58l-81 -124h-81z" />
    <glyph glyph-name="scedilla" unicode="&#x15f;" horiz-adv-x="399" 
d="M36 -136l74 134q-72 20 -110 72l50 53q53 -71 131 -71q42 0 65.5 19t23.5 47q0 24 -15.5 40t-55.5 37l-48 26q-80 43 -80 112q0 56 43 90.5t110 34.5q98 0 160 -75l-50 -43q-18 25 -49 40.5t-62 15.5q-40 0 -58.5 -17.5t-18.5 -38.5t9.5 -33.5t34.5 -26.5l62 -35
q47 -27 69 -55.5t22 -71.5q0 -42 -33.5 -82.5t-111.5 -46.5l-81 -125h-81z" />
    <glyph glyph-name="Scaron" unicode="&#x160;" horiz-adv-x="501" 
d="M518 612l-49 -49q-65 82 -158 82q-58 0 -92 -30.5t-34 -77.5q0 -29 16 -53.5t55 -55.5l70 -55q72 -57 99.5 -100.5t27.5 -98.5q0 -76 -57 -131t-152 -55q-144 0 -233 116l50 52q27 -39 75.5 -70t101.5 -31q65 0 101 35t36 86q0 34 -21.5 66t-76.5 74l-56 43
q-56 43 -85 84.5t-29 90.5q0 84 59.5 131t142.5 47q60 0 117 -27t92 -73zM285 788l-60 164h76l40 -108l78 108h81l-116 -164h-99z" />
    <glyph glyph-name="scaron" unicode="&#x161;" horiz-adv-x="398" 
d="M384 383l-50 -43q-18 25 -49 40.5t-62 15.5q-40 0 -58.5 -17.5t-18.5 -38.5t9.5 -33.5t34.5 -26.5l62 -35q47 -27 69 -55.5t22 -71.5q0 -18 -7.5 -38t-24 -42t-51.5 -36t-83 -14q-53 0 -102 23.5t-75 58.5l50 53q53 -71 131 -71q42 0 65.5 19t23.5 47q0 24 -15.5 40
t-55.5 37l-48 26q-80 43 -80 112q0 56 43 90.5t110 34.5q98 0 160 -75zM209 536l-60 164h76l40 -108l78 108h81l-116 -164h-99z" />
    <glyph glyph-name="Tcommaaccent" unicode="&#x162;" horiz-adv-x="534" 
d="M98 700h507l-12 -69h-213l-109 -631h-80l109 631h-214zM153 -107q0 25 17 42.5t43 17.5q24 0 41.5 -17.5t17.5 -40.5t-18 -45l-82 -102l-52 9l58 88q-25 17 -25 48z" />
    <glyph glyph-name="tcommaaccent" unicode="&#x163;" horiz-adv-x="299" 
d="M160 635h78l-33 -187h108l-12 -65h-107l-48 -279q-4 -23 6.5 -31t33.5 -8l62 1l-12 -66q-39 -4 -76 -4q-21 0 -37 3t-32.5 12t-23 29t-1.5 50l50 293h-74l12 65h74zM36 -107q0 25 17 42.5t43 17.5q24 0 41.5 -17.5t17.5 -40.5t-18 -45l-82 -102l-52 9l58 88
q-25 17 -25 48z" />
    <glyph glyph-name="Tcaron" unicode="&#x164;" horiz-adv-x="534" 
d="M98 700h507l-12 -69h-213l-109 -631h-80l109 631h-214zM317 788l-60 164h76l40 -108l78 108h81l-116 -164h-99z" />
    <glyph glyph-name="tcaron" unicode="&#x165;" horiz-adv-x="299" 
d="M160 635h78l-33 -187h108l-12 -65h-107l-48 -279q-4 -23 6.5 -31t33.5 -8l62 1l-12 -66q-39 -4 -76 -4q-21 0 -37 3t-32.5 12t-23 29t-1.5 50l50 293h-74l12 65h74zM316 676q0 25 17 42.5t43 17.5q24 0 41.5 -17.5t17.5 -40.5t-18 -45l-82 -102l-52 9l58 88
q-25 17 -25 48z" />
    <glyph glyph-name="Tbar" unicode="&#x166;" horiz-adv-x="549" 
d="M105 700h507l-12 -69h-213l-42 -240h144l-11 -68h-144l-56 -323h-80l56 323h-142l11 68h142l42 240h-214z" />
    <glyph glyph-name="tbar" unicode="&#x167;" horiz-adv-x="305" 
d="M164 635h78l-33 -187h108l-12 -65h-107l-16 -92h108l-12 -65h-107l-21 -122q-4 -23 6.5 -31t33.5 -8l62 1l-12 -66q-39 -4 -76 -4q-21 0 -37 3t-32.5 12t-23 29t-1.5 50l23 136h-74l12 65h73l16 92h-74l12 65h74z" />
    <glyph glyph-name="Utilde" unicode="&#x168;" horiz-adv-x="624" 
d="M161 700h79l-78 -455q-13 -77 23.5 -132t117.5 -55q70 0 112 45.5t54 113.5l84 483h75l-84 -494q-17 -98 -79.5 -158t-164.5 -60q-113 0 -173.5 74.5t-41.5 192.5zM322 791h-67q0 1 1.5 13.5t3.5 20t6 21.5t11 23.5t17 19t25 14.5t34 5q23 0 66 -23t56 -23q19 0 27 34
l2 10h67q0 -2 -2 -16.5t-3.5 -24.5t-8 -25.5t-15.5 -25.5t-25.5 -17.5t-38.5 -7.5t-65.5 23t-55.5 23q-25 0 -33 -34z" />
    <glyph glyph-name="utilde" unicode="&#x169;" horiz-adv-x="504" 
d="M99 448h78l-46 -266q-12 -54 14 -89.5t87 -35.5q46 0 79 26.5t42 77.5l50 287h77l-52 -304q-11 -68 -65 -112t-135 -44q-86 0 -137.5 53t-36.5 144zM216 539h-67q0 1 1.5 13.5t3.5 20t6 21.5t11 23.5t17 19t25 14.5t34 5q23 0 66 -23t56 -23q19 0 27 34l2 10h67
q0 -2 -2 -16.5t-3.5 -24.5t-8 -25.5t-15.5 -25.5t-25.5 -17.5t-38.5 -7.5t-65.5 23t-55.5 23q-25 0 -33 -34z" />
    <glyph glyph-name="Umacron" unicode="&#x16a;" horiz-adv-x="624" 
d="M161 700h79l-78 -455q-13 -77 23.5 -132t117.5 -55q70 0 112 45.5t54 113.5l84 483h75l-84 -494q-17 -98 -79.5 -158t-164.5 -60q-113 0 -173.5 74.5t-41.5 192.5zM266 801l11 67h260l-11 -67h-260z" />
    <glyph glyph-name="umacron" unicode="&#x16b;" horiz-adv-x="504" 
d="M99 448h78l-46 -266q-12 -54 14 -89.5t87 -35.5q46 0 79 26.5t42 77.5l50 287h77l-52 -304q-11 -68 -65 -112t-135 -44q-86 0 -137.5 53t-36.5 144zM175 549l11 67h260l-11 -67h-260z" />
    <glyph glyph-name="Ubreve" unicode="&#x16c;" horiz-adv-x="624" 
d="M161 700h79l-78 -455q-13 -77 23.5 -132t117.5 -55q70 0 112 45.5t54 113.5l84 483h75l-84 -494q-17 -98 -79.5 -158t-164.5 -60q-113 0 -173.5 74.5t-41.5 192.5zM461 888l9 48h68l-7 -52q-7 -56 -41.5 -84t-84.5 -28q-51 0 -82 31t-22 86l8 47h68l-9 -48q-8 -51 41 -51
q43 0 52 51z" />
    <glyph glyph-name="ubreve" unicode="&#x16d;" horiz-adv-x="504" 
d="M99 448h78l-46 -266q-12 -54 14 -89.5t87 -35.5q46 0 79 26.5t42 77.5l50 287h77l-52 -304q-11 -68 -65 -112t-135 -44q-86 0 -137.5 53t-36.5 144zM356 636l9 48h68l-7 -52q-7 -56 -41.5 -84t-84.5 -28t-81.5 31t-22.5 86l8 47h68l-9 -48q-4 -23 6.5 -37t34.5 -14
q44 0 52 51z" />
    <glyph glyph-name="Uring" unicode="&#x16e;" horiz-adv-x="624" 
d="M161 700h79l-78 -455q-13 -77 23.5 -132t117.5 -55q70 0 112 45.5t54 113.5l84 483h75l-84 -494q-17 -98 -79.5 -158t-164.5 -60q-113 0 -173.5 74.5t-41.5 192.5zM400 964q43 0 75 -30.5t32 -74.5t-32 -74.5t-75 -30.5t-75 30.5t-32 74.5t32 74.5t75 30.5zM400 808
q21 0 35 14.5t14 36.5t-14 36.5t-35 14.5t-35 -14.5t-14 -36.5t14 -36.5t35 -14.5z" />
    <glyph glyph-name="uring" unicode="&#x16f;" horiz-adv-x="504" 
d="M99 448h78l-46 -266q-12 -54 14 -89.5t87 -35.5q46 0 79 26.5t42 77.5l50 287h77l-52 -304q-11 -68 -65 -112t-135 -44q-86 0 -137.5 53t-36.5 144zM299 712q43 0 75 -30.5t32 -74.5t-32 -74.5t-75 -30.5t-75 30.5t-32 74.5t32 74.5t75 30.5zM299 556q21 0 35 14.5
t14 36.5t-14 36.5t-35 14.5t-35 -14.5t-14 -36.5t14 -36.5t35 -14.5z" />
    <glyph glyph-name="Uhungarumlaut" unicode="&#x170;" horiz-adv-x="624" 
d="M161 700h79l-78 -455q-13 -77 23.5 -132t117.5 -55q70 0 112 45.5t54 113.5l84 483h75l-84 -494q-17 -98 -79.5 -158t-164.5 -60q-113 0 -173.5 74.5t-41.5 192.5zM268 788l97 164h94l-110 -164h-81zM426 788l97 164h94l-109 -164h-82z" />
    <glyph glyph-name="uhungarumlaut" unicode="&#x171;" horiz-adv-x="504" 
d="M99 448h78l-46 -266q-12 -54 14 -89.5t87 -35.5q46 0 79 26.5t42 77.5l50 287h77l-52 -304q-11 -68 -65 -112t-135 -44q-86 0 -137.5 53t-36.5 144zM174 536l97 164h94l-110 -164h-81zM332 536l97 164h94l-109 -164h-82z" />
    <glyph glyph-name="Uogonek" unicode="&#x172;" horiz-adv-x="626" 
d="M162 700h79l-78 -455q-13 -77 23.5 -132t117.5 -55q70 0 112 45.5t54 113.5l84 483h75l-84 -494q-17 -96 -78 -156t-160 -62q-88 -57 -88 -93q0 -13 11.5 -21t30.5 -8q29 0 72 14l-8 -53q-38 -18 -85 -18q-42 0 -66.5 20.5t-24.5 54.5q0 70 96 110q-87 17 -131.5 88
t-27.5 173z" />
    <glyph glyph-name="uogonek" unicode="&#x173;" horiz-adv-x="506" 
d="M102 448h78l-46 -266q-12 -54 14 -89.5t87 -35.5q46 0 79 26.5t42 77.5l50 287h77l-52 -304q-11 -68 -65 -112t-135 -44h-1q-88 -57 -88 -93q0 -13 11.5 -21t30.5 -8q29 0 72 14l-8 -53q-38 -18 -85 -18q-42 0 -66.5 20.5t-24.5 54.5q0 72 100 112q-62 16 -94.5 65.5
t-20.5 123.5z" />
    <glyph glyph-name="Wcircumflex" unicode="&#x174;" horiz-adv-x="936" 
d="M503 700h95l32 -617h1l278 617h83l-328 -700h-104l-27 615l-300 -615h-101l-16 700h77l8 -617h1zM422 788l116 164h98l60 -164h-75l-40 108l-78 -108h-81z" />
    <glyph glyph-name="wcircumflex" unicode="&#x175;" horiz-adv-x="697" 
d="M420 448l42 -380l166 380h81l-205 -448h-100l-39 358l-170 -358h-98l-41 448h77l25 -380l184 380h78zM249 536l116 164h98l60 -164h-75l-40 108l-78 -108h-81z" />
    <glyph glyph-name="Ycircumflex" unicode="&#x176;" horiz-adv-x="625" 
d="M287 310l-200 390h88l159 -320h1l271 320h94l-333 -387l-55 -313h-79zM253 788l116 164h98l60 -164h-75l-40 108l-78 -108h-81z" />
    <glyph glyph-name="ycircumflex" unicode="&#x177;" horiz-adv-x="520" 
d="M137 -111h105q39 0 60.5 15t28.5 52l18 102q-68 -70 -162 -70q-73 0 -110 49t-24 126l49 285h78l-50 -288q-9 -47 9.5 -75.5t62.5 -28.5q73 0 159 78l54 314h77l-83 -489q-23 -135 -144 -135h-140zM168 536l116 164h98l60 -164h-75l-40 108l-78 -108h-81z" />
    <glyph glyph-name="Ydieresis" unicode="&#x178;" horiz-adv-x="625" 
d="M287 310l-200 390h88l159 -320h1l271 320h94l-333 -387l-55 -313h-79zM252 836q0 23 17 40.5t40 17.5t40 -17.5t17 -40.5t-17 -40t-40 -17t-40 17t-17 40zM416 836q0 23 17.5 40.5t40.5 17.5t40.5 -17.5t17.5 -40.5t-17.5 -40t-40.5 -17t-40.5 17t-17.5 40z" />
    <glyph glyph-name="Zacute" unicode="&#x179;" horiz-adv-x="576" 
d="M518 631h-408l12 69h504l-12 -70l-518 -561h421l-12 -69h-513l12 70zM333 788l87 164h104l-119 -164h-72z" />
    <glyph glyph-name="zacute" unicode="&#x17a;" horiz-adv-x="428" 
d="M428 448l-11 -65l-315 -318h259l-11 -65h-350l11 65l317 318h-261l11 65h350zM216 536l87 164h104l-119 -164h-72z" />
    <glyph glyph-name="Zdotaccent" unicode="&#x17b;" horiz-adv-x="576" 
d="M518 631h-408l12 69h504l-12 -70l-518 -561h421l-12 -69h-513l12 70zM443 843q0 -23 -17 -40t-40 -17t-40.5 17t-17.5 40t17.5 40t40.5 17t40 -17t17 -40z" />
    <glyph glyph-name="zdotaccent" unicode="&#x17c;" horiz-adv-x="428" 
d="M428 448l-11 -65l-315 -318h259l-11 -65h-350l11 65l317 318h-261l11 65h350zM325 591q0 -23 -17 -40t-40 -17t-40.5 17t-17.5 40t17.5 40t40.5 17t40 -17t17 -40z" />
    <glyph glyph-name="Zcaron" unicode="&#x17d;" horiz-adv-x="576" 
d="M518 631h-408l12 69h504l-12 -70l-518 -561h421l-12 -69h-513l12 70zM332 788l-60 164h76l40 -108l78 108h81l-116 -164h-99z" />
    <glyph glyph-name="zcaron" unicode="&#x17e;" horiz-adv-x="428" 
d="M428 448l-11 -65l-315 -318h259l-11 -65h-350l11 65l317 318h-261l11 65h350zM222 536l-60 164h76l40 -108l78 108h81l-116 -164h-99z" />
    <glyph glyph-name="longs" unicode="&#x17f;" horiz-adv-x="259" 
d="M233 582l-100 -582h-77l66 383h-75l12 65h74l25 147q10 58 41.5 83t73.5 25l79 -4l-12 -69q-25 5 -45 5q-29 0 -42.5 -10.5t-19.5 -42.5z" />
    <glyph glyph-name="florin" unicode="&#x192;" horiz-adv-x="351" 
d="M157 347l38 218q22 135 147 135h55l-12 -65h-34q-67 0 -77 -57l-40 -231h88l-11 -65h-88l-56 -323q-22 -135 -146 -135h-55l12 65h34q65 0 76 57l58 336h-88l10 65h89z" />
    <glyph glyph-name="Scommaaccent" unicode="&#x218;" horiz-adv-x="501" 
d="M518 612l-49 -49q-65 82 -158 82q-58 0 -92 -30.5t-34 -77.5q0 -29 16 -53.5t55 -55.5l70 -55q72 -57 99.5 -100.5t27.5 -98.5q0 -76 -57 -131t-152 -55q-144 0 -233 116l50 52q27 -39 75.5 -70t101.5 -31q65 0 101 35t36 86q0 34 -21.5 66t-76.5 74l-56 43
q-56 43 -85 84.5t-29 90.5q0 84 59.5 131t142.5 47q60 0 117 -27t92 -73zM123 -107q0 25 17 42.5t43 17.5q24 0 41.5 -17.5t17.5 -40.5t-18 -45l-82 -102l-52 9l58 88q-25 17 -25 48z" />
    <glyph glyph-name="scommaaccent" unicode="&#x219;" horiz-adv-x="398" 
d="M384 383l-50 -43q-18 25 -49 40.5t-62 15.5q-40 0 -58.5 -17.5t-18.5 -38.5t9.5 -33.5t34.5 -26.5l62 -35q47 -27 69 -55.5t22 -71.5q0 -18 -7.5 -38t-24 -42t-51.5 -36t-83 -14q-53 0 -102 23.5t-75 58.5l50 53q53 -71 131 -71q42 0 65.5 19t23.5 47q0 24 -15.5 40
t-55.5 37l-48 26q-80 43 -80 112q0 56 43 90.5t110 34.5q98 0 160 -75zM82 -107q0 25 17 42.5t43 17.5q24 0 41.5 -17.5t17.5 -40.5t-18 -45l-82 -102l-52 9l58 88q-25 17 -25 48z" />
    <glyph glyph-name="uni021A" unicode="&#x21a;" horiz-adv-x="534" 
d="M98 700h507l-12 -69h-213l-109 -631h-80l109 631h-214zM153 -107q0 25 17 42.5t43 17.5q24 0 41.5 -17.5t17.5 -40.5t-18 -45l-82 -102l-52 9l58 88q-25 17 -25 48z" />
    <glyph glyph-name="uni021B" unicode="&#x21b;" horiz-adv-x="299" 
d="M160 635h78l-33 -187h108l-12 -65h-107l-48 -279q-4 -23 6.5 -31t33.5 -8l62 1l-12 -66q-39 -4 -76 -4q-21 0 -37 3t-32.5 12t-23 29t-1.5 50l50 293h-74l12 65h74zM36 -107q0 25 17 42.5t43 17.5q24 0 41.5 -17.5t17.5 -40.5t-18 -45l-82 -102l-52 9l58 88
q-25 17 -25 48z" />
    <glyph glyph-name="dotlessj" unicode="&#x237;" horiz-adv-x="230" 
d="M34 -72l79 455h-69l11 65h147l-92 -530q-5 -30 -17 -50t-29.5 -29t-33 -12t-36.5 -3h-66l11 65h42q23 0 36 8t17 31z" />
    <glyph glyph-name="apostrophe" unicode="&#x2bc;" horiz-adv-x="534" 
d="M293 652q0 25 17 42.5t43 17.5q24 0 41.5 -17.5t17.5 -40.5t-18 -45l-82 -102l-52 9l58 88q-25 17 -25 48z" />
    <glyph glyph-name="circumflex" unicode="&#x2c6;" horiz-adv-x="336" 
d="M16 536l116 164h98l60 -164h-75l-40 108l-78 -108h-81z" />
    <glyph glyph-name="caron" unicode="&#x2c7;" horiz-adv-x="336" 
d="M168 536l-60 164h76l40 -108l78 108h81l-116 -164h-99z" />
    <glyph glyph-name="uni02C9" unicode="&#x2c9;" horiz-adv-x="316" 
d="M77 549l11 67h260l-11 -67h-260z" />
    <glyph glyph-name="breve" unicode="&#x2d8;" horiz-adv-x="284" 
d="M193 636l9 48h68l-7 -52q-7 -56 -41.5 -84t-84.5 -28q-51 0 -82 31t-22 86l8 47h68l-9 -48q-8 -51 41 -51q43 0 52 51z" />
    <glyph glyph-name="dotaccent" unicode="&#x2d9;" horiz-adv-x="215" 
d="M225 591q0 -23 -17 -40t-40 -17t-40.5 17t-17.5 40t17.5 40t40.5 17t40 -17t17 -40z" />
    <glyph glyph-name="ring" unicode="&#x2da;" horiz-adv-x="260" 
d="M128 712q43 0 75 -30.5t32 -74.5t-32 -74.5t-75 -30.5t-75 30.5t-32 74.5t32 74.5t75 30.5zM128 556q21 0 35 14.5t14 36.5t-14 36.5t-35 14.5t-35 -14.5t-14 -36.5t14 -36.5t35 -14.5z" />
    <glyph glyph-name="ogonek" unicode="&#x2db;" horiz-adv-x="241" 
d="M118 9v-7q-54 -34 -82 -58.5t-28 -48.5q0 -13 11.5 -21t30.5 -8q29 0 72 14l-8 -53q-38 -18 -85 -18q-42 0 -66.5 20.5t-24.5 54.5q0 51 40 79t106 48z" />
    <glyph glyph-name="tilde" unicode="&#x2dc;" horiz-adv-x="369" 
d="M143 539h-67q0 1 1.5 13.5t3.5 20t6 21.5t11 23.5t17 19t25 14.5t34 5q23 0 66 -23t56 -23q19 0 27 34l2 10h67q0 -2 -2 -16.5t-3.5 -24.5t-8 -25.5t-15.5 -25.5t-25.5 -17.5t-38.5 -7.5t-65.5 23t-55.5 23q-25 0 -33 -34z" />
    <glyph glyph-name="hungarumlaut" unicode="&#x2dd;" horiz-adv-x="378" 
d="M74 536l97 164h94l-110 -164h-81zM232 536l97 164h94l-109 -164h-82z" />
    <glyph glyph-name="Delta" unicode="&#x394;" horiz-adv-x="648" 
d="M576 0h-582l13 75l347 625h102l133 -625zM503 75l-111 540l-294 -540h405z" />
    <glyph glyph-name="Delta" unicode="&#x2206;" horiz-adv-x="648" 
d="M576 0h-582l13 75l347 625h102l133 -625zM503 75l-111 540l-294 -540h405z" />
    <glyph glyph-name="Omega" unicode="&#x3a9;" horiz-adv-x="657" 
d="M573 462q0 79 -56.5 130.5t-139.5 51.5q-89 0 -154 -64.5t-65 -185.5q0 -128 127 -169l-36 -225h-205l12 65h129l21 126q-51 21 -88.5 76.5t-37.5 136.5q0 139 87 223.5t211 84.5q117 0 194.5 -70t77.5 -181q0 -106 -57 -186.5t-155 -104.5l-17 -105h132l-12 -65h-203
l34 217q94 13 147.5 78.5t53.5 166.5z" />
    <glyph glyph-name="Omega" unicode="&#x2126;" horiz-adv-x="657" 
d="M573 462q0 79 -56.5 130.5t-139.5 51.5q-89 0 -154 -64.5t-65 -185.5q0 -128 127 -169l-36 -225h-205l12 65h129l21 126q-51 21 -88.5 76.5t-37.5 136.5q0 139 87 223.5t211 84.5q117 0 194.5 -70t77.5 -181q0 -106 -57 -186.5t-155 -104.5l-17 -105h132l-12 -65h-203
l34 217q94 13 147.5 78.5t53.5 166.5z" />
    <glyph glyph-name="pi" unicode="&#x3c0;" horiz-adv-x="589" 
d="M481 383l-48 -279q-4 -24 4 -31.5t30 -7.5l67 1l-12 -66q-44 -4 -81 -4q-42 0 -69 26t-17 83l48 278h-197l-66 -383h-78l67 383h-80l11 65h520l-11 -65h-88z" />
    <glyph glyph-name="pi" unicode="&#x3d6;" horiz-adv-x="589" 
d="M481 383l-48 -279q-4 -24 4 -31.5t30 -7.5l67 1l-12 -66q-44 -4 -81 -4q-42 0 -69 26t-17 83l48 278h-197l-66 -383h-78l67 383h-80l11 65h520l-11 -65h-88z" />
    <glyph glyph-name="Wgrave" unicode="&#x1e80;" horiz-adv-x="936" 
d="M503 700h95l32 -617h1l278 617h83l-328 -700h-104l-27 615l-300 -615h-101l-16 700h77l8 -617h1zM500 952l69 -164h-71l-102 164h104z" />
    <glyph glyph-name="wgrave" unicode="&#x1e81;" horiz-adv-x="697" 
d="M420 448l42 -380l166 380h81l-205 -448h-100l-39 358l-170 -358h-98l-41 448h77l25 -380l184 380h78zM340 700l69 -164h-71l-102 164h104z" />
    <glyph glyph-name="Wacute" unicode="&#x1e82;" horiz-adv-x="936" 
d="M503 700h95l32 -617h1l278 617h83l-328 -700h-104l-27 615l-300 -615h-101l-16 700h77l8 -617h1zM533 788l87 164h104l-119 -164h-72z" />
    <glyph glyph-name="wacute" unicode="&#x1e83;" horiz-adv-x="697" 
d="M420 448l42 -380l166 380h81l-205 -448h-100l-39 358l-170 -358h-98l-41 448h77l25 -380l184 380h78zM368 536l87 164h104l-119 -164h-72z" />
    <glyph glyph-name="Wdieresis" unicode="&#x1e84;" horiz-adv-x="936" 
d="M503 700h95l32 -617h1l278 617h83l-328 -700h-104l-27 615l-300 -615h-101l-16 700h77l8 -617h1zM420 836q0 23 17 40.5t40 17.5t40 -17.5t17 -40.5t-17 -40t-40 -17t-40 17t-17 40zM584 836q0 23 17.5 40.5t40.5 17.5t40.5 -17.5t17.5 -40.5t-17.5 -40t-40.5 -17
t-40.5 17t-17.5 40z" />
    <glyph glyph-name="wdieresis" unicode="&#x1e85;" horiz-adv-x="697" 
d="M420 448l42 -380l166 380h81l-205 -448h-100l-39 358l-170 -358h-98l-41 448h77l25 -380l184 380h78zM255 584q0 23 17 40.5t40 17.5t40 -17.5t17 -40.5t-17 -40t-40 -17t-40 17t-17 40zM419 584q0 23 17.5 40.5t40.5 17.5t40.5 -17.5t17.5 -40.5t-17.5 -40t-40.5 -17
t-40.5 17t-17.5 40z" />
    <glyph glyph-name="Ygrave" unicode="&#x1ef2;" horiz-adv-x="625" 
d="M287 310l-200 390h88l159 -320h1l271 320h94l-333 -387l-55 -313h-79zM361 952l69 -164h-71l-102 164h104z" />
    <glyph glyph-name="ygrave" unicode="&#x1ef3;" horiz-adv-x="520" 
d="M137 -111h105q39 0 60.5 15t28.5 52l18 102q-68 -70 -162 -70q-73 0 -110 49t-24 126l49 285h78l-50 -288q-9 -47 9.5 -75.5t62.5 -28.5q73 0 159 78l54 314h77l-83 -489q-23 -135 -144 -135h-140zM268 700l69 -164h-71l-102 164h104z" />
    <glyph glyph-name="endash" unicode="&#x2013;" horiz-adv-x="500" 
d="M42 230l10 65h420l-11 -65h-419z" />
    <glyph glyph-name="emdash" unicode="&#x2014;" horiz-adv-x="1000" 
d="M42 230l10 65h920l-11 -65h-919z" />
    <glyph glyph-name="quoteleft" unicode="&#x2018;" horiz-adv-x="243" 
d="M238 551q0 -27 -19.5 -46t-47.5 -19q-26 0 -45.5 19t-19.5 45q0 27 19 50l91 112l58 -10l-65 -97q29 -19 29 -54z" />
    <glyph glyph-name="quoteright" unicode="&#x2019;" horiz-adv-x="248" 
d="M143 647q0 27 19.5 46t47.5 19q26 0 45.5 -19t19.5 -45q0 -27 -19 -50l-91 -112l-58 10l65 97q-29 19 -29 54z" />
    <glyph glyph-name="quotesinglbase" unicode="&#x201a;" horiz-adv-x="251" 
d="M33 52q0 27 19 46.5t47 19.5q27 0 46 -19t19 -45q0 -25 -19 -50l-91 -112l-58 10l65 97q-28 18 -28 53z" />
    <glyph glyph-name="quotedblleft" unicode="&#x201c;" horiz-adv-x="421" 
d="M239 551q0 -27 -19.5 -46t-47.5 -19q-26 0 -45.5 19t-19.5 45q0 27 19 50l91 112l58 -10l-65 -97q29 -19 29 -54zM418 551q0 -27 -19.5 -46t-47.5 -19q-26 0 -45.5 19t-19.5 45q0 27 19 50l91 112l58 -10l-65 -97q29 -19 29 -54z" />
    <glyph glyph-name="quotedblright" unicode="&#x201d;" horiz-adv-x="427" 
d="M322 647q0 27 19.5 46t47.5 19q26 0 45.5 -19t19.5 -45q0 -27 -19 -50l-91 -112l-58 10l65 97q-29 19 -29 54zM143 647q0 27 19.5 46t47.5 19q26 0 45.5 -19t19.5 -45q0 -27 -19 -50l-91 -112l-58 10l65 97q-29 19 -29 54z" />
    <glyph glyph-name="quotedblbase" unicode="&#x201e;" horiz-adv-x="429" 
d="M32 52q0 27 19 46.5t47 19.5q27 0 46 -19t19 -45q0 -27 -19 -50l-91 -112l-58 10l65 97q-28 19 -28 53zM211 52q0 27 19 46.5t47 19.5q27 0 46 -19t19 -45q0 -27 -19 -50l-91 -112l-58 10l65 97q-28 18 -28 53z" />
    <glyph glyph-name="dagger" unicode="&#x2020;" horiz-adv-x="480" 
d="M238 418h-181l12 68h181l38 214h72l-38 -214h181l-12 -68h-181l-73 -418h-72z" />
    <glyph glyph-name="daggerdbl" unicode="&#x2021;" horiz-adv-x="480" 
d="M57 418l12 68h181l38 214h72l-38 -214h181l-12 -68h-181l-21 -122h181l-12 -68h-181l-40 -228h-72l40 228h-181l12 68h181l21 122h-181z" />
    <glyph glyph-name="bullet" unicode="&#x2022;" horiz-adv-x="372" 
d="M100 359q0 45 32 77t77 32t77 -32t32 -77t-32 -77t-77 -32t-77 32t-32 77z" />
    <glyph glyph-name="ellipsis" unicode="&#x2026;" horiz-adv-x="868" 
d="M97 -12q-27 0 -46.5 19t-19.5 46t19.5 46t46.5 19t46.5 -19t19.5 -46t-19.5 -46t-46.5 -19zM407 -12q-27 0 -46.5 19t-19.5 46t19.5 46t46.5 19t46.5 -19t19.5 -46t-19.5 -46t-46.5 -19zM716 -12q-27 0 -46.5 19t-19.5 46t19.5 46t46.5 19t46.5 -19t19.5 -46t-19.5 -46
t-46.5 -19z" />
    <glyph glyph-name="perthousand" unicode="&#x2030;" horiz-adv-x="1131" 
d="M99 554q0 65 46.5 111.5t111.5 46.5t112 -46.5t47 -111.5t-47 -111.5t-112 -46.5t-111.5 46.5t-46.5 111.5zM169 554q0 -38 26.5 -65.5t61.5 -27.5q36 0 62 27.5t26 65.5t-26 65.5t-62 27.5q-35 0 -61.5 -27.5t-26.5 -65.5zM726 146q0 -65 -46.5 -111.5t-111.5 -46.5
t-111.5 46.5t-46.5 111.5t46.5 111.5t111.5 46.5t111.5 -46.5t46.5 -111.5zM656 146q0 38 -26.5 65.5t-61.5 27.5q-36 0 -62 -27.5t-26 -65.5t26 -65.5t62 -27.5q35 0 61.5 27.5t26.5 65.5zM726 547l-586 -450l-41 55l585 450zM1082 146q0 -65 -46.5 -111.5t-111.5 -46.5
t-112 46.5t-47 111.5t47 111.5t112 46.5t111.5 -46.5t46.5 -111.5zM1012 146q0 38 -26.5 65.5t-61.5 27.5q-36 0 -62 -27.5t-26 -65.5t26 -65.5t62 -27.5q35 0 61.5 27.5t26.5 65.5z" />
    <glyph glyph-name="guilsinglleft" unicode="&#x2039;" horiz-adv-x="289" 
d="M51 239l120 154h92l-127 -159l73 -149h-82z" />
    <glyph glyph-name="guilsinglright" unicode="&#x203a;" horiz-adv-x="287" 
d="M243 239l-120 -154h-92l127 159l-73 149h82z" />
    <glyph glyph-name="fraction" unicode="&#x2044;" horiz-adv-x="220" 
d="M515 735l35 -38l-799 -723l-35 38z" />
    <glyph glyph-name="zerosuperior" unicode="&#x2070;" 
d="M241 347q58 0 86 145q8 39 8 76q0 79 -50 79q-61 0 -85 -144q-8 -50 -8 -78q0 -78 49 -78zM240 287q-113 0 -113 144q0 32 8 78q16 98 55 148t96 50q59 0 86 -40t27 -104q0 -32 -8 -77q-17 -99 -56 -149t-95 -50z" />
    <glyph glyph-name="foursuperior" unicode="&#x2074;" 
d="M102 406l10 55l183 239h90l-42 -239h55l-11 -55h-54l-20 -112h-65l20 112h-166zM310 638l-137 -177h105z" />
    <glyph glyph-name="fivesuperior" unicode="&#x2075;" 
d="M242 342q32 0 51.5 28.5t19.5 71.5q0 62 -58 62q-27 0 -47 -20l-56 10l40 206h217l-10 -59h-162l-19 -97l2 -1q19 15 52 15q52 0 80 -32t28 -82q0 -69 -38 -113t-99 -44q-58 0 -90.5 29.5t-32.5 77.5q0 19 3 32h65q-3 -14 -3 -31q0 -23 14 -38t43 -15z" />
    <glyph glyph-name="sixsuperior" unicode="&#x2076;" 
d="M250 287q-58 0 -92.5 34.5t-34.5 90.5q0 135 180 288h92q-126 -105 -176 -171l3 -2q23 19 57 19q43 0 75.5 -30.5t32.5 -82.5q0 -66 -39 -106t-98 -40zM249 343q33 0 52.5 25t19.5 60q0 29 -15.5 47.5t-46.5 18.5q-32 0 -51.5 -26t-19.5 -60q0 -28 15.5 -46.5t45.5 -18.5
z" />
    <glyph glyph-name="sevensuperior" unicode="&#x2077;" 
d="M146 294l201 344h-186l12 62h253l-10 -57l-190 -349h-80z" />
    <glyph glyph-name="eightsuperior" unicode="&#x2078;" 
d="M247 287q-56 0 -93 30.5t-37 81.5q0 39 22.5 69.5t58.5 41.5q-20 10 -32 32.5t-12 47.5q0 50 37 83.5t91 33.5q51 0 85.5 -28.5t34.5 -76.5q0 -35 -19 -63.5t-53 -40.5q23 -11 37.5 -35t14.5 -52q0 -56 -39.5 -90t-95.5 -34zM247 341q31 0 50.5 21.5t19.5 51.5
q0 26 -17 43t-48 17q-30 0 -50 -21t-20 -51q0 -25 16.5 -43t48.5 -18zM275 527q29 0 46.5 20t17.5 49q0 24 -14.5 39.5t-44.5 15.5t-46.5 -19.5t-16.5 -49.5q0 -24 15.5 -39.5t42.5 -15.5z" />
    <glyph glyph-name="ninesuperior" unicode="&#x2079;" 
d="M278 707q58 0 92.5 -34.5t34.5 -90.5q0 -135 -180 -288h-92q126 105 176 171l-3 2q-23 -19 -57 -19q-43 0 -75.5 30.5t-32.5 82.5q0 66 39 106t98 40zM279 651q-33 0 -52.5 -25t-19.5 -60q0 -29 15.5 -47.5t46.5 -18.5q32 0 51.5 26t19.5 60q0 28 -15.5 46.5t-45.5 18.5z
" />
    <glyph glyph-name="zeroinferior" unicode="&#x2080;" 
d="M189 53q58 0 86 145q8 39 8 76q0 79 -50 79q-61 0 -85 -144q-8 -50 -8 -78q0 -78 49 -78zM188 -7q-113 0 -113 144q0 32 8 78q16 98 55 148t96 50q59 0 86 -40t27 -104q0 -32 -8 -77q-17 -99 -56 -149t-95 -50z" />
    <glyph glyph-name="oneinferior" unicode="&#x2081;" 
d="M75 0l9 58h78l52 289h-76l11 59h140l-61 -348h77l-10 -58h-220z" />
    <glyph glyph-name="twoinferior" unicode="&#x2082;" 
d="M50 0l11 61q4 4 36 28.5t62 48t43 34.5q47 39 66 67t19 60q0 23 -15.5 39.5t-43.5 16.5q-26 0 -44.5 -17.5t-18.5 -45.5q0 -13 5 -33l-62 -6q-7 25 -7 43q0 48 34.5 82.5t93.5 34.5q58 0 91 -33.5t33 -79.5q0 -49 -25.5 -85t-91.5 -87l-90 -70h167l-11 -58h-252z" />
    <glyph glyph-name="threeinferior" unicode="&#x2083;" 
d="M187 -7q-56 0 -89 28.5t-33 77.5q0 15 4 33h65q-4 -24 -4 -30q0 -23 13.5 -38.5t42.5 -15.5q30 0 49.5 24.5t19.5 61.5q0 63 -78 63q-10 0 -26 -2l10 57l115 95h-159l11 59h234l-12 -64l-125 -101q39 -2 68 -31t29 -72q0 -61 -37 -103t-98 -42z" />
    <glyph glyph-name="fourinferior" unicode="&#x2084;" 
d="M50 112l10 55l183 239h90l-42 -239h55l-11 -55h-54l-20 -112h-65l20 112h-166zM258 344l-137 -177h105z" />
    <glyph glyph-name="fiveinferior" unicode="&#x2085;" 
d="M191 48q32 0 51.5 28.5t19.5 71.5q0 62 -58 62q-27 0 -47 -20l-56 10l40 206h217l-10 -59h-162l-19 -97l2 -1q19 15 52 15q52 0 80 -32t28 -82q0 -69 -38 -113t-99 -44q-58 0 -90.5 29.5t-32.5 77.5q0 19 3 32h65q-3 -14 -3 -31q0 -23 14 -38t43 -15z" />
    <glyph glyph-name="sixinferior" unicode="&#x2086;" 
d="M198 -7q-58 0 -92.5 34.5t-34.5 90.5q0 135 180 288h92q-126 -105 -176 -171l3 -2q23 19 57 19q43 0 75.5 -30.5t32.5 -82.5q0 -66 -39 -106t-98 -40zM197 49q33 0 52.5 25t19.5 60q0 29 -15.5 47.5t-46.5 18.5q-32 0 -51.5 -26t-19.5 -60q0 -28 15.5 -46.5t45.5 -18.5z
" />
    <glyph glyph-name="seveninferior" unicode="&#x2087;" 
d="M94 0l201 344h-186l12 62h253l-10 -57l-190 -349h-80z" />
    <glyph glyph-name="eightinferior" unicode="&#x2088;" 
d="M195 -7q-56 0 -93 30.5t-37 81.5q0 39 22.5 69.5t58.5 41.5q-20 10 -32 32.5t-12 47.5q0 50 37 83.5t91 33.5q51 0 85.5 -28.5t34.5 -76.5q0 -35 -19 -63.5t-53 -40.5q23 -11 37.5 -35t14.5 -52q0 -56 -39.5 -90t-95.5 -34zM195 47q31 0 50.5 21.5t19.5 51.5q0 26 -17 43
t-48 17q-30 0 -50 -21t-20 -51q0 -25 16.5 -43t48.5 -18zM223 233q29 0 46.5 20t17.5 49q0 24 -14.5 39.5t-44.5 15.5t-46.5 -19.5t-16.5 -49.5q0 -24 15.5 -39.5t42.5 -15.5z" />
    <glyph glyph-name="nineinferior" unicode="&#x2089;" 
d="M225 413q58 0 92.5 -34.5t34.5 -90.5q0 -135 -180 -288h-92q126 105 176 171l-3 2q-23 -19 -57 -19q-43 0 -75.5 30.5t-32.5 82.5q0 66 39 106t98 40zM226 357q-33 0 -52.5 -25t-19.5 -60q0 -29 15.5 -47.5t46.5 -18.5q32 0 51.5 26t19.5 60q0 28 -15.5 46.5t-45.5 18.5z
" />
    <glyph glyph-name="Euro" unicode="&#x20ac;" horiz-adv-x="720" 
d="M72 405l12 65h61q37 112 115.5 177t182.5 65q106 0 178.5 -60t89.5 -167h-81q-11 72 -57 115t-130 43q-74 0 -129.5 -46.5t-86.5 -126.5h263l-12 -65h-270q-12 -58 -13 -112h265l-11 -65h-251q10 -79 58.5 -125t135.5 -46q71 0 122.5 42.5t76.5 114.5h87
q-34 -105 -112 -165.5t-178 -60.5q-117 0 -186 65t-83 175h-76l12 65h61q2 60 12 112h-56z" />
    <glyph glyph-name="afii61289" unicode="&#x2113;" horiz-adv-x="404" 
d="M331 588q0 -127 -137 -258v-231q0 -41 20 -61t49 -20q61 0 72 73h20q-5 -40 -28 -64.5t-44.5 -31t-44.5 -6.5q-61 0 -100.5 40t-39.5 135v86q-33 -26 -52 -40l-17 19q15 10 32.5 23.5t26.5 21.5l10 7v260q0 80 34 126t97 46q50 0 76 -32.5t26 -92.5zM192 620v-260
q113 111 113 234q0 37 -15.5 66.5t-46.5 29.5q-21 0 -36 -16.5t-15 -53.5z" />
    <glyph glyph-name="trademark" unicode="&#x2122;" horiz-adv-x="1077" 
d="M809 418l169 282h104l-73 -431h-75l55 320l-164 -274h-61l-69 274l-56 -320h-71l73 431h98zM140 700h390l-11 -68h-159l-63 -363h-72l62 363h-157z" />
    <glyph glyph-name="estimated" unicode="&#x212e;" horiz-adv-x="881" 
d="M223 332v-172q0 -40 45.5 -73.5t101.5 -50t100 -16.5q79 0 148.5 28.5t116.5 82.5h47q-114 -142 -312 -142q-163 0 -279 106.5t-116 257.5q0 149 115 254t280 105q178 0 287.5 -105.5t109.5 -262.5h-635q-9 0 -9 -12zM232 375h477q9 0 9 9v168q0 41 -45 72t-99.5 44.5
t-103.5 13.5q-45 0 -99.5 -13.5t-101 -44.5t-46.5 -72v-168q0 -9 9 -9z" />
    <glyph glyph-name="onethird" unicode="&#x2153;" horiz-adv-x="1080" 
d="M954 735l35 -38l-799 -723l-35 38zM95 294l9 58h78l52 289h-76l11 59h140l-61 -348h77l-10 -58h-220zM861 -7q-56 0 -89 28.5t-33 77.5q0 15 4 33h65q-4 -24 -4 -30q0 -23 13.5 -38.5t42.5 -15.5q30 0 49.5 24.5t19.5 61.5q0 63 -78 63q-10 0 -26 -2l10 57l115 95h-159
l11 59h234l-12 -64l-125 -101q39 -2 68 -31t29 -72q0 -61 -37 -103t-98 -42z" />
    <glyph glyph-name="twothirds" unicode="&#x2154;" horiz-adv-x="1080" 
d="M954 735l35 -38l-799 -723l-35 38zM77 294l11 61q4 4 36 28.5t62 48t43 34.5q47 39 66 67t19 60q0 23 -15.5 39.5t-43.5 16.5q-26 0 -44.5 -17.5t-18.5 -45.5q0 -13 5 -33l-62 -6q-7 25 -7 43q0 48 34.5 82.5t93.5 34.5q58 0 91 -33.5t33 -79.5q0 -49 -25.5 -85
t-91.5 -87l-90 -70h167l-11 -58h-252zM861 -7q-56 0 -89 28.5t-33 77.5q0 15 4 33h65q-4 -24 -4 -30q0 -23 13.5 -38.5t42.5 -15.5q30 0 49.5 24.5t19.5 61.5q0 63 -78 63q-10 0 -26 -2l10 57l115 95h-159l11 59h234l-12 -64l-125 -101q39 -2 68 -31t29 -72q0 -61 -37 -103
t-98 -42z" />
    <glyph glyph-name="oneeighth" unicode="&#x215b;" horiz-adv-x="1080" 
d="M954 735l35 -38l-799 -723l-35 38zM95 294l9 58h78l52 289h-76l11 59h140l-61 -348h77l-10 -58h-220zM847 -7q-56 0 -93 30.5t-37 81.5q0 39 22.5 69.5t58.5 41.5q-20 10 -32 32.5t-12 47.5q0 50 37 83.5t91 33.5q51 0 85.5 -28.5t34.5 -76.5q0 -35 -19 -63.5t-53 -40.5
q23 -11 37.5 -35t14.5 -52q0 -56 -39.5 -90t-95.5 -34zM847 47q31 0 50.5 21.5t19.5 51.5q0 26 -17 43t-48 17q-30 0 -50 -21t-20 -51q0 -25 16.5 -43t48.5 -18zM875 233q29 0 46.5 20t17.5 49q0 24 -14.5 39.5t-44.5 15.5t-46.5 -19.5t-16.5 -49.5q0 -24 15.5 -39.5
t42.5 -15.5z" />
    <glyph glyph-name="threeeighths" unicode="&#x215c;" horiz-adv-x="1080" 
d="M954 735l35 -38l-799 -723l-35 38zM847 -7q-56 0 -93 30.5t-37 81.5q0 39 22.5 69.5t58.5 41.5q-20 10 -32 32.5t-12 47.5q0 50 37 83.5t91 33.5q51 0 85.5 -28.5t34.5 -76.5q0 -35 -19 -63.5t-53 -40.5q23 -11 37.5 -35t14.5 -52q0 -56 -39.5 -90t-95.5 -34zM847 47
q31 0 50.5 21.5t19.5 51.5q0 26 -17 43t-48 17q-30 0 -50 -21t-20 -51q0 -25 16.5 -43t48.5 -18zM875 233q29 0 46.5 20t17.5 49q0 24 -14.5 39.5t-44.5 15.5t-46.5 -19.5t-16.5 -49.5q0 -24 15.5 -39.5t42.5 -15.5zM239 287q-56 0 -89 28.5t-33 77.5q0 15 4 33h65
q-4 -24 -4 -30q0 -23 13.5 -38.5t42.5 -15.5q30 0 49.5 24.5t19.5 61.5q0 63 -78 63q-10 0 -26 -2l10 57l115 95h-159l11 59h234l-12 -64l-125 -101q39 -2 68 -31t29 -72q0 -61 -37 -103t-98 -42z" />
    <glyph glyph-name="fiveeighths" unicode="&#x215d;" horiz-adv-x="1080" 
d="M847 -7q-56 0 -93 30.5t-37 81.5q0 39 22.5 69.5t58.5 41.5q-20 10 -32 32.5t-12 47.5q0 50 37 83.5t91 33.5q51 0 85.5 -28.5t34.5 -76.5q0 -35 -19 -63.5t-53 -40.5q23 -11 37.5 -35t14.5 -52q0 -56 -39.5 -90t-95.5 -34zM954 735l35 -38l-799 -723l-35 38zM243 342
q32 0 51.5 28.5t19.5 71.5q0 62 -58 62q-27 0 -47 -20l-56 10l40 206h217l-10 -59h-162l-19 -97l2 -1q19 15 52 15q52 0 80 -32t28 -82q0 -69 -38 -113t-99 -44q-58 0 -90.5 29.5t-32.5 77.5q0 19 3 32h65q-3 -14 -3 -31q0 -23 14 -38t43 -15zM847 47q31 0 50.5 21.5
t19.5 51.5q0 26 -17 43t-48 17q-30 0 -50 -21t-20 -51q0 -25 16.5 -43t48.5 -18zM875 233q29 0 46.5 20t17.5 49q0 24 -14.5 39.5t-44.5 15.5t-46.5 -19.5t-16.5 -49.5q0 -24 15.5 -39.5t42.5 -15.5z" />
    <glyph glyph-name="seveneighths" unicode="&#x215e;" horiz-adv-x="1080" 
d="M954 735l35 -38l-799 -723l-35 38zM847 -7q-56 0 -93 30.5t-37 81.5q0 39 22.5 69.5t58.5 41.5q-20 10 -32 32.5t-12 47.5q0 50 37 83.5t91 33.5q51 0 85.5 -28.5t34.5 -76.5q0 -35 -19 -63.5t-53 -40.5q23 -11 37.5 -35t14.5 -52q0 -56 -39.5 -90t-95.5 -34zM847 47
q31 0 50.5 21.5t19.5 51.5q0 26 -17 43t-48 17q-30 0 -50 -21t-20 -51q0 -25 16.5 -43t48.5 -18zM875 233q29 0 46.5 20t17.5 49q0 24 -14.5 39.5t-44.5 15.5t-46.5 -19.5t-16.5 -49.5q0 -24 15.5 -39.5t42.5 -15.5zM153 294l201 344h-186l12 62h253l-10 -57l-190 -349h-80z
" />
    <glyph glyph-name="partialdiff" unicode="&#x2202;" horiz-adv-x="537" 
d="M252 -12q-93 0 -153.5 62.5t-60.5 158.5q0 103 68.5 177t169.5 74q91 0 130 -55h5q-44 128 -211 295h92q68 -53 138.5 -171.5t70.5 -242.5q0 -136 -70.5 -217t-178.5 -81zM253 57q69 0 115.5 54t46.5 134q0 63 -38.5 104.5t-99.5 41.5q-69 0 -115.5 -54t-46.5 -134
q0 -63 38.5 -104.5t99.5 -41.5z" />
    <glyph glyph-name="product" unicode="&#x220f;" horiz-adv-x="828" 
d="M365 506v-153h92q37 0 60.5 21t23.5 55t-23.5 55.5t-60.5 21.5h-92zM437 712q153 0 258.5 -103t105.5 -259t-105.5 -259t-258.5 -103t-258.5 103t-105.5 259t105.5 259t258.5 103zM437 41q134 0 218 87t84 222t-84 222t-218 87t-218.5 -87t-84.5 -222t84.5 -222
t218.5 -87zM365 299v-151h-61v412h153q70 0 109 -37t39 -93t-39 -93.5t-109 -37.5h-92z" />
    <glyph glyph-name="summation" unicode="&#x2211;" horiz-adv-x="584" 
d="M614 700l-12 -70h-407l148 -258l-8 -46l-230 -257h400l-12 -69h-486l12 70l252 285l-156 275l12 70h487z" />
    <glyph glyph-name="minus" unicode="&#x2212;" horiz-adv-x="480" 
d="M39 323l11 68h434l-11 -68h-434z" />
    <glyph glyph-name="uni2215" unicode="&#x2215;" horiz-adv-x="726" 
d="M767 735l35 -38l-799 -723l-35 38z" />
    <glyph glyph-name="radical" unicode="&#x221a;" horiz-adv-x="550" 
d="M144 448l64 -380l331 632h89l-381 -700h-98l-83 448h78z" />
    <glyph glyph-name="infinity" unicode="&#x221e;" horiz-adv-x="929" 
d="M448 350q-38 82 -73.5 109.5t-84.5 27.5q-46 0 -84.5 -32t-38.5 -103q0 -74 38 -106.5t85 -32.5q49 0 84.5 27.5t73.5 109.5zM487 406q58 149 202 149q81 0 137 -54t56 -151t-56 -151t-137 -54q-144 0 -202 149q-58 -149 -202 -149q-81 0 -137 54t-56 151t56 151t137 54
q144 0 202 -149zM526 350q38 -82 73.5 -109.5t84.5 -27.5q47 0 85 32.5t38 106.5q0 71 -38.5 103t-84.5 32q-49 0 -84.5 -27.5t-73.5 -109.5z" />
    <glyph glyph-name="integral" unicode="&#x222b;" horiz-adv-x="322" 
d="M261 578l-107 -619q-22 -135 -146 -135h-55l12 65h34q65 0 76 57l107 619q22 135 147 135h55l-12 -65h-34q-68 0 -77 -57z" />
    <glyph glyph-name="approxequal" unicode="&#x2248;" horiz-adv-x="480" 
d="M125 383h-72l1 5q23 118 115 118q28 0 124.5 -25.5t107.5 -25.5q16 0 23 11.5t13 37.5h72l-1 -5q-23 -118 -115 -118q-28 0 -124.5 25t-107.5 25q-16 0 -23.5 -11.5t-12.5 -36.5zM94 209h-71l1 5q19 118 114 118q28 0 124.5 -25.5t107.5 -25.5q16 0 23.5 12t12.5 37h72
l-1 -5q-23 -118 -115 -118q-28 0 -124.5 25t-107.5 25q-16 0 -23 -11t-13 -37z" />
    <glyph glyph-name="notequal" unicode="&#x2260;" horiz-adv-x="480" 
d="M56 418l12 68h181l15 86h72l-15 -86h181l-12 -68h-181l-22 -122h182l-12 -68h-182l-14 -84h-72l14 84h-180l12 68h180l22 122h-181z" />
    <glyph glyph-name="lessequal" unicode="&#x2264;" horiz-adv-x="480" 
d="M456 241l-15 -81l-407 153l13 74l461 153l-15 -87l-342 -106zM-20 0l12 68h433l-12 -68h-433z" />
    <glyph glyph-name="greaterequal" unicode="&#x2265;" horiz-adv-x="480" 
d="M436 68l-12 -68h-433l12 68h433zM18 160l16 87l343 106l-306 106l14 81l407 -153l-13 -74z" />
    <glyph glyph-name="lozenge" unicode="&#x25ca;" horiz-adv-x="481" 
d="M59 350l217 350h104l88 -350l-209 -350h-104zM384 362l-64 272l-179 -292l72 -279z" />
    <glyph glyph-name="ff" unicode="&#xe389;" horiz-adv-x="556" 
d="M400 448l25 147q10 58 42 83t73 25l79 -4l-12 -69q-25 5 -45 5q-29 0 -42.5 -10.5t-19.5 -42.5l-22 -134h92l-12 -65h-92l-66 -383h-77l66 383h-190l-66 -383h-77l66 383h-75l12 65h74l25 147q10 58 42 83t73 25l79 -4l-12 -69q-25 5 -45 5q-29 0 -42.5 -10.5
t-19.5 -42.5l-22 -134h189z" />
    <glyph glyph-name="ffi" unicode="&#xe38a;" horiz-adv-x="772" 
d="M745 448l-78 -448h-77l66 383h-190l-66 -383h-77l66 383h-190l-66 -383h-77l66 383h-75l12 65h74l25 147q10 58 42 83t73 25l79 -4l-12 -69q-25 5 -45 5q-29 0 -42.5 -10.5t-19.5 -42.5l-22 -134h189l25 147q10 58 42 83t73 25l79 -4l-12 -69q-25 5 -45 5
q-29 0 -42.5 -10.5t-19.5 -42.5l-22 -134h267zM667 611q0 25 17.5 43t43.5 18t43.5 -18t17.5 -43t-17.5 -43t-43.5 -18t-43.5 18t-17.5 43z" />
    <glyph glyph-name="ffi" unicode="&#xfb03;" horiz-adv-x="772" 
d="M745 448l-78 -448h-77l66 383h-190l-66 -383h-77l66 383h-190l-66 -383h-77l66 383h-75l12 65h74l25 147q10 58 42 83t73 25l79 -4l-12 -69q-25 5 -45 5q-29 0 -42.5 -10.5t-19.5 -42.5l-22 -134h189l25 147q10 58 42 83t73 25l79 -4l-12 -69q-25 5 -45 5
q-29 0 -42.5 -10.5t-19.5 -42.5l-22 -134h267zM667 611q0 25 17.5 43t43.5 18t43.5 -18t17.5 -43t-17.5 -43t-43.5 -18t-43.5 18t-17.5 43z" />
    <glyph glyph-name="ffl" unicode="&#xe38b;" horiz-adv-x="773" 
d="M788 700l-121 -700h-77l66 383h-190l-66 -383h-77l66 383h-190l-66 -383h-77l66 383h-75l12 65h74l25 147q10 58 42 83t73 25l79 -4l-12 -69q-25 5 -45 5q-29 0 -42.5 -10.5t-19.5 -42.5l-22 -134h189l25 147q10 58 42 83t73 25l79 -4l-12 -69q-25 5 -45 5
q-29 0 -42.5 -10.5t-19.5 -42.5l-22 -134h189l44 252h77z" />
    <glyph glyph-name="ffl" unicode="&#xfb04;" horiz-adv-x="773" 
d="M788 700l-121 -700h-77l66 383h-190l-66 -383h-77l66 383h-190l-66 -383h-77l66 383h-75l12 65h74l25 147q10 58 42 83t73 25l79 -4l-12 -69q-25 5 -45 5q-29 0 -42.5 -10.5t-19.5 -42.5l-22 -134h189l25 147q10 58 42 83t73 25l79 -4l-12 -69q-25 5 -45 5
q-29 0 -42.5 -10.5t-19.5 -42.5l-22 -134h189l44 252h77z" />
    <glyph glyph-name="fi" unicode="&#xe38c;" horiz-adv-x="505" 
d="M478 448l-78 -448h-77l66 383h-190l-66 -383h-77l66 383h-75l12 65h74l25 147q10 58 42 83t73 25l79 -4l-12 -69q-25 5 -45 5q-29 0 -42.5 -10.5t-19.5 -42.5l-22 -134h267zM400 611q0 25 18 43t43 18t43 -18t18 -43t-18 -43t-43 -18t-43 18t-18 43z" />
    <glyph glyph-name="fi" unicode="&#xfb01;" horiz-adv-x="505" 
d="M478 448l-78 -448h-77l66 383h-190l-66 -383h-77l66 383h-75l12 65h74l25 147q10 58 42 83t73 25l79 -4l-12 -69q-25 5 -45 5q-29 0 -42.5 -10.5t-19.5 -42.5l-22 -134h267zM400 611q0 25 18 43t43 18t43 -18t18 -43t-18 -43t-43 -18t-43 18t-18 43z" />
    <glyph glyph-name="fl" unicode="&#xe38d;" horiz-adv-x="506" 
d="M521 700l-121 -700h-77l66 383h-190l-66 -383h-77l66 383h-75l12 65h74l25 147q10 58 42 83t73 25l79 -4l-12 -69q-25 5 -45 5q-29 0 -42.5 -10.5t-19.5 -42.5l-22 -134h189l44 252h77z" />
    <glyph glyph-name="fl" unicode="&#xfb02;" horiz-adv-x="506" 
d="M521 700l-121 -700h-77l66 383h-190l-66 -383h-77l66 383h-75l12 65h74l25 147q10 58 42 83t73 25l79 -4l-12 -69q-25 5 -45 5q-29 0 -42.5 -10.5t-19.5 -42.5l-22 -134h189l44 252h77z" />
    <glyph glyph-name="ampersand.smcp" unicode="&#xe401;" horiz-adv-x="518" 
d="M185 -10q-68 0 -109.5 42t-41.5 102q0 54 30.5 96.5t92.5 84.5q-36 48 -36 107q0 60 40 104t110 44q60 0 97.5 -34t37.5 -82t-29 -82l-63 14q21 33 21 56q0 27 -18 44t-45 17q-35 0 -55.5 -23.5t-20.5 -58.5q0 -39 34 -85l113 -155q36 53 64 118h85q-53 -112 -104 -177
l92 -119l-1 -3h-91l-48 63q-65 -73 -155 -73zM189 58q35 0 58.5 15.5t51.5 46.5l-106 142q-44 -38 -62.5 -65.5t-18.5 -60.5q0 -34 23 -56t54 -22z" />
    <glyph glyph-name="ampersand.smcp" unicode="&#xf726;" horiz-adv-x="518" 
d="M185 -10q-68 0 -109.5 42t-41.5 102q0 54 30.5 96.5t92.5 84.5q-36 48 -36 107q0 60 40 104t110 44q60 0 97.5 -34t37.5 -82t-29 -82l-63 14q21 33 21 56q0 27 -18 44t-45 17q-35 0 -55.5 -23.5t-20.5 -58.5q0 -39 34 -85l113 -155q36 53 64 118h85q-53 -112 -104 -177
l92 -119l-1 -3h-91l-48 63q-65 -73 -155 -73zM189 58q35 0 58.5 15.5t51.5 46.5l-106 142q-44 -38 -62.5 -65.5t-18.5 -60.5q0 -34 23 -56t54 -22z" />
    <glyph glyph-name="commaaccent" unicode="&#xe414;" horiz-adv-x="228" 
d="M-1 -107q0 25 17 42.5t43 17.5q24 0 41.5 -17.5t17.5 -40.5t-18 -45l-82 -102l-52 9l58 88q-25 17 -25 48z" />
    <glyph glyph-name="commaaccent" unicode="&#xf6c3;" horiz-adv-x="228" 
d="M-1 -107q0 25 17 42.5t43 17.5q24 0 41.5 -17.5t17.5 -40.5t-18 -45l-82 -102l-52 9l58 88q-25 17 -25 48z" />
    <glyph glyph-name="zero.smcp" unicode="&#xe43b;" horiz-adv-x="457" 
d="M207 60q88 0 127 213q12 64 12 112q0 115 -74 115q-87 0 -125 -211q-13 -65 -13 -114q0 -115 73 -115zM206 -10q-149 0 -149 193q0 45 11 113q46 274 205 274q78 0 113 -53t35 -139q0 -47 -11 -113q-47 -275 -204 -275z" />
    <glyph glyph-name="zero.smcp" unicode="&#xe598;" horiz-adv-x="457" 
d="M207 60q88 0 127 213q12 64 12 112q0 115 -74 115q-87 0 -125 -211q-13 -65 -13 -114q0 -115 73 -115zM206 -10q-149 0 -149 193q0 45 11 113q46 274 205 274q78 0 113 -53t35 -139q0 -47 -11 -113q-47 -275 -204 -275z" />
    <glyph glyph-name="one.smcp" unicode="&#xe43c;" horiz-adv-x="457" 
d="M56 0l11 67h108l75 425h-105l11 68h184l-87 -493h108l-12 -67h-293z" />
    <glyph glyph-name="one.smcp" unicode="&#xe599;" horiz-adv-x="457" 
d="M56 0l11 67h108l75 425h-105l11 68h184l-87 -493h108l-12 -67h-293z" />
    <glyph glyph-name="two.smcp" unicode="&#xe43d;" horiz-adv-x="457" 
d="M20 0l12 73q168 139 192 159q70 57 99.5 97t29.5 86q0 36 -23.5 61.5t-65.5 25.5q-40 0 -67 -25.5t-27 -68.5q0 -23 7 -47l-74 -8q-10 32 -10 58q0 65 46 112t126 47q77 0 120.5 -43.5t44.5 -106.5q1 -67 -34.5 -116.5t-125.5 -121.5l-139 -112h240l-12 -70h-339z" />
    <glyph glyph-name="two.smcp" unicode="&#xe59a;" horiz-adv-x="457" 
d="M20 0l12 73q168 139 192 159q70 57 99.5 97t29.5 86q0 36 -23.5 61.5t-65.5 25.5q-40 0 -67 -25.5t-27 -68.5q0 -23 7 -47l-74 -8q-10 32 -10 58q0 65 46 112t126 47q77 0 120.5 -43.5t44.5 -106.5q1 -67 -34.5 -116.5t-125.5 -121.5l-139 -112h240l-12 -70h-339z" />
    <glyph glyph-name="three.smcp" unicode="&#xe43e;" horiz-adv-x="457" 
d="M202 -10q-74 0 -118 39t-44 105q0 19 5 47h77q-5 -26 -5 -44q0 -36 21 -58.5t64 -22.5q46 0 75.5 38t29.5 93q0 93 -115 93q-10 0 -30 -2l10 65l168 149h-224l13 68h309l-14 -76l-173 -151q57 -2 95.5 -42.5t38.5 -100.5q0 -82 -50.5 -141t-132.5 -59z" />
    <glyph glyph-name="three.smcp" unicode="&#xe59b;" horiz-adv-x="457" 
d="M202 -10q-74 0 -118 39t-44 105q0 19 5 47h77q-5 -26 -5 -44q0 -36 21 -58.5t64 -22.5q46 0 75.5 38t29.5 93q0 93 -115 93q-10 0 -30 -2l10 65l168 149h-224l13 68h309l-14 -76l-173 -151q57 -2 95.5 -42.5t38.5 -100.5q0 -82 -50.5 -141t-132.5 -59z" />
    <glyph glyph-name="four.smcp" unicode="&#xe43f;" horiz-adv-x="457" 
d="M216 0l29 162h-224l13 65l247 333h112l-59 -333h81l-12 -65h-80l-30 -162h-77zM106 227h151l46 268z" />
    <glyph glyph-name="four.smcp" unicode="&#xe59c;" horiz-adv-x="457" 
d="M216 0l29 162h-224l13 65l247 333h112l-59 -333h81l-12 -65h-80l-30 -162h-77zM106 227h151l46 268z" />
    <glyph glyph-name="five.smcp" unicode="&#xe440;" horiz-adv-x="457" 
d="M213 -10q-77 0 -121.5 40.5t-44.5 105.5q0 15 5 45h79q-6 -27 -6 -44q0 -36 21.5 -58.5t65.5 -22.5q48 0 78 43t30 105q0 93 -88 93q-39 0 -70 -29l-67 11l54 281h291l-12 -71h-226l-29 -148l2 -1q33 23 77 23q71 0 109 -43.5t38 -112.5q0 -95 -52 -156t-134 -61z" />
    <glyph glyph-name="five.smcp" unicode="&#xe59d;" horiz-adv-x="457" 
d="M213 -10q-77 0 -121.5 40.5t-44.5 105.5q0 15 5 45h79q-6 -27 -6 -44q0 -36 21.5 -58.5t65.5 -22.5q48 0 78 43t30 105q0 93 -88 93q-39 0 -70 -29l-67 11l54 281h291l-12 -71h-226l-29 -148l2 -1q33 23 77 23q71 0 109 -43.5t38 -112.5q0 -95 -52 -156t-134 -61z" />
    <glyph glyph-name="six.smcp" unicode="&#xe441;" horiz-adv-x="457" 
d="M214 -10q-77 0 -122.5 46.5t-45.5 121.5q0 187 253 402h110q-161 -131 -242 -240l2 -2q37 28 84 28q59 0 102.5 -42t43.5 -113q0 -91 -52.5 -146t-132.5 -55zM215 57q48 0 77 37t29 90q0 44 -23 71.5t-69 27.5q-48 0 -77 -39t-29 -90q0 -42 23.5 -69.5t68.5 -27.5z" />
    <glyph glyph-name="six.smcp" unicode="&#xe59e;" horiz-adv-x="457" 
d="M214 -10q-77 0 -122.5 46.5t-45.5 121.5q0 187 253 402h110q-161 -131 -242 -240l2 -2q37 28 84 28q59 0 102.5 -42t43.5 -113q0 -91 -52.5 -146t-132.5 -55zM215 57q48 0 77 37t29 90q0 44 -23 71.5t-69 27.5q-48 0 -77 -39t-29 -90q0 -42 23.5 -69.5t68.5 -27.5z" />
    <glyph glyph-name="exclam.smcp" unicode="&#xe442;" horiz-adv-x="246" 
d="M95 -10q-25 0 -41.5 17t-16.5 40q0 24 16.5 41t41.5 17q23 0 40 -17t17 -41q0 -23 -17 -40t-40 -17zM78 180l62 380h78l-70 -380h-70z" />
    <glyph glyph-name="exclam.smcp" unicode="&#xf721;" horiz-adv-x="246" 
d="M95 -10q-25 0 -41.5 17t-16.5 40q0 24 16.5 41t41.5 17q23 0 40 -17t17 -41q0 -23 -17 -40t-40 -17zM78 180l62 380h78l-70 -380h-70z" />
    <glyph glyph-name="exclamdown.smcp" unicode="&#xe443;" horiz-adv-x="245" 
d="M171 570q25 0 41.5 -17t16.5 -40q0 -24 -16.5 -41t-41.5 -17q-23 0 -40 17t-17 41q0 23 17 40t40 17zM188 380l-62 -380h-78l70 380h70z" />
    <glyph glyph-name="exclamdown.smcp" unicode="&#xf7a1;" horiz-adv-x="245" 
d="M171 570q25 0 41.5 -17t16.5 -40q0 -24 -16.5 -41t-41.5 -17q-23 0 -40 17t-17 41q0 23 17 40t40 17zM188 380l-62 -380h-78l70 380h70z" />
    <glyph glyph-name="nine.smcp" unicode="&#xe444;" horiz-adv-x="457" 
d="M69 0q158 129 241 240l-2 2q-37 -28 -84 -28q-59 0 -102.5 42t-43.5 113q0 91 52.5 146t133.5 55q76 0 121.5 -46.5t45.5 -121.5q0 -187 -253 -402h-109zM249 277q48 0 76.5 39t28.5 90q0 42 -23.5 69.5t-68.5 27.5q-48 0 -77 -37.5t-29 -89.5q0 -43 23.5 -71t69.5 -28z
" />
    <glyph glyph-name="nine.smcp" unicode="&#xe602;" horiz-adv-x="457" 
d="M69 0q158 129 241 240l-2 2q-37 -28 -84 -28q-59 0 -102.5 42t-43.5 113q0 91 52.5 146t133.5 55q76 0 121.5 -46.5t45.5 -121.5q0 -187 -253 -402h-109zM249 277q48 0 76.5 39t28.5 90q0 42 -23.5 69.5t-68.5 27.5q-48 0 -77 -37.5t-29 -89.5q0 -43 23.5 -71t69.5 -28z
" />
    <glyph glyph-name="question.smcp" unicode="&#xe445;" horiz-adv-x="409" 
d="M143 159l28 157l34 1q52 1 83.5 30.5t31.5 76.5q0 34 -22 55t-60 21q-82 0 -94 -99l-1 -8h-76q3 78 50 127.5t120 49.5q72 0 116 -41t44 -106q0 -68 -42.5 -114t-113.5 -53l-32 -97h-66zM159 -10q-24 0 -40.5 17t-16.5 40q0 24 16.5 41t40.5 17t41 -17t17 -41
q0 -23 -17 -40t-41 -17z" />
    <glyph glyph-name="question.smcp" unicode="&#xf73f;" horiz-adv-x="409" 
d="M143 159l28 157l34 1q52 1 83.5 30.5t31.5 76.5q0 34 -22 55t-60 21q-82 0 -94 -99l-1 -8h-76q3 78 50 127.5t120 49.5q72 0 116 -41t44 -106q0 -68 -42.5 -114t-113.5 -53l-32 -97h-66zM159 -10q-24 0 -40.5 17t-16.5 40q0 24 16.5 41t40.5 17t41 -17t17 -41
q0 -23 -17 -40t-41 -17z" />
    <glyph glyph-name="questiondown.smcp" unicode="&#xe446;" horiz-adv-x="408" 
d="M287 401l-28 -157l-34 -1q-52 -1 -83.5 -30.5t-31.5 -76.5q0 -34 22 -55t60 -21q82 0 94 99l1 8h76q-3 -78 -50 -127.5t-120 -49.5q-72 0 -116 41t-44 106q0 68 42.5 114t113.5 53l32 97h66zM271 570q24 0 40.5 -17t16.5 -40q0 -24 -16.5 -41t-40.5 -17t-41 17t-17 41
q0 23 17 40t41 17z" />
    <glyph glyph-name="questiondown.smcp" unicode="&#xf7bf;" horiz-adv-x="408" 
d="M287 401l-28 -157l-34 -1q-52 -1 -83.5 -30.5t-31.5 -76.5q0 -34 22 -55t60 -21q82 0 94 99l1 8h76q-3 -78 -50 -127.5t-120 -49.5q-72 0 -116 41t-44 106q0 68 42.5 114t113.5 53l32 97h66zM271 570q24 0 40.5 -17t16.5 -40q0 -24 -16.5 -41t-40.5 -17t-41 17t-17 41
q0 23 17 40t41 17z" />
    <glyph glyph-name="slash.smcp" unicode="&#xe467;" horiz-adv-x="326" 
d="M-2 0l282 560h67l-281 -560h-68z" />
    <glyph glyph-name="backslash.smcp" unicode="&#xe468;" horiz-adv-x="335" 
d="M188 0l-89 560h67l90 -560h-68z" />
    <glyph glyph-name="bar.smcp" unicode="&#xe469;" horiz-adv-x="227" 
d="M29 -74l119 682h66l-119 -682h-66z" />
    <glyph glyph-name="brokenbar.smcp" unicode="&#xe46b;" horiz-adv-x="228" 
d="M30 -74l49 287h67l-50 -287h-66zM97 320l51 288h66l-49 -288h-68z" />
    <glyph glyph-name="J.alt" unicode="&#xe489;" horiz-adv-x="252" 
d="M-70 -43h42q41 0 57.5 16.5t24.5 60.5l115 666h80l-118 -681q-12 -69 -42 -100.5t-99 -31.5h-72z" />
    <glyph glyph-name="parenleft.cap" unicode="&#xe491;" horiz-adv-x="315" 
d="M59 269q0 139 66.5 267.5t181.5 232.5h76l-3 -14q-116 -112 -179 -230.5t-63 -264.5q0 -169 103 -329l-3 -15h-66q-113 176 -113 353z" />
    <glyph glyph-name="parenright.cap" unicode="&#xe492;" horiz-adv-x="314" 
d="M298 416q0 -139 -66.5 -267.5t-181.5 -232.5h-76l3 14q116 112 179 230.5t63 264.5q0 169 -103 329l3 15h66q113 -176 113 -353z" />
    <glyph glyph-name="bracketleft.cap" unicode="&#xe493;" horiz-adv-x="342" 
d="M387 705h-140l-123 -714h139l-12 -69h-218l148 853h218z" />
    <glyph glyph-name="bracketright.cap" unicode="&#xe494;" horiz-adv-x="342" 
d="M-11 -78l11 69h139l123 714h-139l13 70h218l-148 -853h-217z" />
    <glyph glyph-name="braceleft.cap" unicode="&#xe495;" horiz-adv-x="367" 
d="M54 343l11 64h77l64 368h218l-13 -70h-138l-44 -255q-10 -63 -61 -78q45 -18 36 -72l-53 -308h138l-13 -70h-218l73 421h-77z" />
    <glyph glyph-name="braceright.cap" unicode="&#xe496;" horiz-adv-x="366" 
d="M367 407l-11 -64h-77l-74 -421h-217l13 70h137l53 308q9 60 60 75q-44 18 -35 75l44 255h-138l13 70h218l-63 -368h77z" />
    <glyph glyph-name="parenleft.smcp" unicode="&#xe499;" horiz-adv-x="272" 
d="M134 -67q-88 143 -88 283q0 217 196 399h73l-3 -12q-190 -183 -190 -398q0 -137 77 -260l-2 -12h-63z" />
    <glyph glyph-name="parenleft.smcp" unicode="&#xf618;" horiz-adv-x="272" 
d="M134 -67q-88 143 -88 283q0 217 196 399h73l-3 -12q-190 -183 -190 -398q0 -137 77 -260l-2 -12h-63z" />
    <glyph glyph-name="parenright.smcp" unicode="&#xe49a;" horiz-adv-x="272" 
d="M-24 -67l2 11q190 183 190 399q0 137 -77 260l2 12h63q88 -140 88 -284q0 -216 -196 -398h-72z" />
    <glyph glyph-name="parenright.smcp" unicode="&#xf619;" horiz-adv-x="272" 
d="M-24 -67l2 11q190 183 190 399q0 137 -77 260l2 12h63q88 -140 88 -284q0 -216 -196 -398h-72z" />
    <glyph glyph-name="bracketleft.smcp" unicode="&#xe49b;" horiz-adv-x="298" 
d="M31 -67l118 682h185l-11 -68h-109l-95 -548h109l-12 -66h-185z" />
    <glyph glyph-name="bracketleft.smcp" unicode="&#xf60e;" horiz-adv-x="298" 
d="M31 -67l118 682h185l-11 -68h-109l-95 -548h109l-12 -66h-185z" />
    <glyph glyph-name="bracketright.smcp" unicode="&#xe49c;" horiz-adv-x="298" 
d="M-17 -67l11 66h108l95 548h-109l12 68h186l-119 -682h-184z" />
    <glyph glyph-name="bracketright.smcp" unicode="&#xf60f;" horiz-adv-x="298" 
d="M-17 -67l11 66h108l95 548h-109l12 68h186l-119 -682h-184z" />
    <glyph glyph-name="braceleft.smcp" unicode="&#xe49d;" horiz-adv-x="308" 
d="M42 -67q7 41 28.5 164t28.5 164h-60l10 64h61l50 290h183l-12 -68h-106l-29 -171q-4 -21 -7 -32t-15.5 -28t-32.5 -23q37 -14 30 -63l-40 -230h106l-12 -67h-183z" />
    <glyph glyph-name="braceleft.smcp" unicode="&#xf60c;" horiz-adv-x="308" 
d="M42 -67q7 41 28.5 164t28.5 164h-60l10 64h61l50 290h183l-12 -68h-106l-29 -171q-4 -21 -7 -32t-15.5 -28t-32.5 -23q37 -14 30 -63l-40 -230h106l-12 -67h-183z" />
    <glyph glyph-name="braceright.smcp" unicode="&#xe49e;" horiz-adv-x="308" 
d="M-16 -67l12 67h104q6 40 37 210q9 65 54 83q-37 14 -29 67l32 187h-105l12 68h183l-50 -290h60l-11 -64h-60l-57 -328h-182z" />
    <glyph glyph-name="braceright.smcp" unicode="&#xf60d;" horiz-adv-x="308" 
d="M-16 -67l12 67h104q6 40 37 210q9 65 54 83q-37 14 -29 67l32 187h-105l12 68h183l-50 -290h60l-11 -64h-60l-57 -328h-182z" />
    <glyph glyph-name="seven.smcp" unicode="&#xe59f;" horiz-adv-x="457" 
d="M80 0l276 489h-261l13 71h340l-12 -67l-267 -493h-89z" />
    <glyph glyph-name="eight.smcp" unicode="&#xe601;" horiz-adv-x="457" 
d="M215 -10q-76 0 -125 42.5t-49 111.5q0 55 31 96t80 57q-27 17 -43.5 47.5t-16.5 64.5q0 69 49.5 115t121.5 46q67 0 113.5 -38.5t46.5 -105.5q0 -48 -26.5 -88t-71.5 -56q32 -15 52.5 -49t20.5 -72q0 -77 -53.5 -124t-129.5 -47zM216 55q47 0 75.5 32t28.5 75
q0 39 -25 65.5t-72 26.5q-43 0 -74 -31.5t-31 -75.5q0 -38 25.5 -65t72.5 -27zM253 318q43 0 69 30t26 73q0 36 -22 59.5t-66 23.5t-69 -30t-25 -73q0 -36 22.5 -59.5t64.5 -23.5z" />
    <glyph glyph-name="IJ.alt" unicode="&#xe88a;" horiz-adv-x="504" 
d="M249 700l-121 -700h-80l121 700h80zM182 -43h42q41 0 57.5 16.5t24.5 60.5l115 666h80l-118 -681q-12 -69 -42 -100.5t-99 -31.5h-72z" />
    <glyph glyph-name="sterling.smcp" unicode="&#xf189;" horiz-adv-x="448" 
d="M17 0l11 67h52q18 19 25.5 28.5t18 36t10.5 56.5q0 13 -7 60h-75l11 61h53q-9 49 -9 74q0 86 49.5 136.5t126.5 50.5q73 0 116.5 -40t43.5 -105q0 -17 -1 -25h-77q0 3 0.5 9.5t0.5 10.5q0 35 -20 57.5t-62 22.5q-46 0 -71.5 -34t-25.5 -85q0 -28 7 -72h135l-11 -61h-115
q2 -28 2 -41q0 -80 -55 -140h220l-12 -67h-341z" />
    <glyph glyph-name="florin.smcp" unicode="&#xf190;" horiz-adv-x="322" 
d="M-29 -141l11 67h28q52 0 60 43l41 238h-69l10 65h70l32 180q9 50 35 79t84 29h56l-12 -67h-28q-54 0 -61 -43l-30 -178h69l-11 -65h-69l-44 -248q-17 -100 -117 -100h-55z" />
    <glyph glyph-name="yen.smcp" unicode="&#xf191;" horiz-adv-x="495" 
d="M171 0l30 172h-149l11 60h149l-30 81h-105l10 60h79l-72 187h87l80 -244h2l165 244h92l-137 -187h77l-11 -60h-103l-56 -81h145l-10 -60h-145l-31 -172h-78z" />
    <glyph glyph-name="numbersign.smcp" unicode="&#xf192;" horiz-adv-x="460" 
d="M100 75l20 116h-69l11 60h68l16 89h-70l11 60h69l20 116h63l-20 -116h82l20 116h64l-20 -116h70l-11 -60h-70l-15 -89h70l-10 -60h-70l-21 -116h-63l20 116h-82l-20 -116h-63zM193 251h82l16 89h-82z" />
    <glyph glyph-name="percent.smcp" unicode="&#xf213;" horiz-adv-x="623" 
d="M202 373q26 0 45 20.5t19 49.5q0 28 -19 48.5t-45 20.5q-28 0 -46.5 -20t-18.5 -49t19 -49.5t46 -20.5zM202 316q-53 0 -90.5 37t-37.5 90q0 52 37.5 89.5t90.5 37.5q52 0 89 -37.5t37 -89.5t-37 -89.5t-89 -37.5zM103 75l-34 47l469 359l35 -46zM444 47q27 0 46 20
t19 49t-19 49.5t-46 20.5q-26 0 -45.5 -20.5t-19.5 -49.5q0 -28 19.5 -48.5t45.5 -20.5zM444 -10q-52 0 -89.5 37t-37.5 89t37.5 89.5t89.5 37.5q53 0 90 -37t37 -90q0 -52 -37 -89t-90 -37z" />
    <glyph glyph-name="perthousand.smcp" unicode="&#xf214;" horiz-adv-x="912" 
d="M206 373q26 0 45 20.5t19 49.5q0 28 -19 48.5t-45 20.5q-28 0 -46.5 -20t-18.5 -49t19 -49.5t46 -20.5zM206 316q-53 0 -90.5 37t-37.5 90q0 52 37.5 89.5t90.5 37.5q52 0 89 -37.5t37 -89.5t-37 -89.5t-89 -37.5zM107 75l-34 47l469 359l35 -46zM448 47q27 0 46 20
t19 49t-19 49.5t-46 20.5q-26 0 -45.5 -20.5t-19.5 -49.5q0 -28 19.5 -48.5t45.5 -20.5zM448 -10q-52 0 -89.5 37t-37.5 89t37.5 89.5t89.5 37.5q53 0 90 -37t37 -90q0 -52 -37 -89t-90 -37zM735 47q27 0 46 20t19 49t-19 49.5t-46 20.5q-26 0 -45.5 -20.5t-19.5 -49.5
q0 -28 19.5 -48.5t45.5 -20.5zM735 -10q-52 0 -89.5 37t-37.5 89t37 89.5t90 37.5t90 -37t37 -90q0 -52 -37 -89t-90 -37z" />
    <glyph glyph-name="plusminus.smcp" unicode="&#xf231;" horiz-adv-x="424" 
d="M156 113l25 139h-139l12 67h139l24 140h72l-24 -140h139l-12 -67h-139l-25 -139h-72zM-1 0l11 67h349l-11 -67h-349z" />
    <glyph glyph-name="multiply.smcp" unicode="&#xf232;" horiz-adv-x="424" 
d="M316 114l-99 134l-141 -114l-40 51l143 115l-99 135l54 41l98 -134l141 112l40 -52l-141 -112l98 -135z" />
    <glyph glyph-name="divide.smcp" unicode="&#xf233;" horiz-adv-x="424" 
d="M197 88q-24 0 -41 17t-16 41q-1 24 16 41t41 17t40.5 -17t17.5 -41q0 -24 -17 -41t-41 -17zM42 252l11 67h350l-11 -67h-350zM246 367q-24 0 -40.5 16.5t-16.5 40.5q-1 24 16 41t41 17t41 -17t17 -41t-17 -40.5t-41 -16.5z" />
    <glyph glyph-name="notequal.smcp" unicode="&#xf234;" horiz-adv-x="424" 
d="M56 331l12 67h138l11 61h73l-11 -61h139l-12 -67h-139l-16 -91h140l-12 -67h-140l-11 -60h-72l10 60h-137l11 67h138l16 91h-138z" />
    <glyph glyph-name="approxequal.smcp" unicode="&#xf235;" horiz-adv-x="424" 
d="M295 155q-22 0 -95 19t-81 19q-21 0 -28 -36h-68l3 13q18 96 95 96q22 0 95 -19.5t81 -19.5q12 0 17.5 8.5t9.5 29.5h69l-3 -14q-17 -96 -95 -96zM325 304q-22 0 -95 19t-81 19q-21 0 -28 -36h-68l3 13q19 96 95 96q22 0 95.5 -19.5t81.5 -19.5q20 0 26 38h69l-3 -14
q-17 -96 -95 -96z" />
    <glyph glyph-name="less.smcp" unicode="&#xf236;" horiz-adv-x="521" 
d="M234 79l-168 211l219 202l42 -50l-131 -123h289l-10 -67h-293l103 -128z" />
    <glyph glyph-name="greater.smcp" unicode="&#xf237;" horiz-adv-x="523" 
d="M259 79l-42 50l131 123h-289l10 67h294l-104 128l51 45l168 -211z" />
    <glyph glyph-name="lessequal.smcp" unicode="&#xf238;" horiz-adv-x="424" 
d="M366 127l-328 125l13 75l372 124l-14 -79l-271 -83l242 -83zM-6 0l12 67h350l-12 -67h-350z" />
    <glyph glyph-name="greaterequal.smcp" unicode="&#xf239;" horiz-adv-x="424" 
d="M25 127l14 80l272 83l-243 83l14 78l328 -124l-13 -75zM3 0l12 67h350l-12 -67h-350z" />
    <glyph glyph-name="zero.alt" unicode="&#xf242;" horiz-adv-x="527" 
d="M333 712q172 0 172 -224q0 -62 -16 -155q-60 -345 -249 -345q-173 0 -173 225q0 56 17 156q61 343 249 343zM163 362q-18 -100 -18 -155q0 -149 97 -149q116 0 170 282q17 91 17 153q0 150 -99 150q-60 0 -100.5 -69.5t-66.5 -211.5z" />
    <glyph glyph-name="one.alt" unicode="&#xf243;" horiz-adv-x="413" 
d="M118 631l12 69h216l-113 -631h135l-12 -69h-350l12 69h136l100 562h-136z" />
    <glyph glyph-name="two.alt" unicode="&#xf244;" horiz-adv-x="517" 
d="M290 214l-173 -141h322l-12 -73h-421l14 76q122 101 248 207q44 37 60.5 51.5t50.5 51t48 70t14 69.5q0 48 -32.5 83t-89.5 35q-54 0 -91.5 -34t-37.5 -92q0 -25 8 -59l-74 -8q-10 35 -10 68q0 82 54 138t154 56q91 0 145 -54t54 -126q0 -75 -44.5 -138.5t-186.5 -179.5z
" />
    <glyph glyph-name="three.alt" unicode="&#xf245;" horiz-adv-x="501" 
d="M40 222h78q-7 -33 -7 -56q0 -49 29 -79.5t89 -30.5q63 0 104 52.5t41 126.5q0 61 -39 92.5t-106 31.5q-21 0 -42 -3l12 68l225 206h-294l15 70h374l-15 -80l-226 -204q78 -1 126.5 -50.5t48.5 -124.5q0 -102 -61 -177.5t-163 -75.5q-92 0 -143.5 48.5t-51.5 128.5
q0 29 6 57z" />
    <glyph glyph-name="four.alt" unicode="&#xf246;" horiz-adv-x="525" 
d="M25 212l13 65l313 423h125l-77 -423h108l-13 -65h-106l-39 -212h-80l38 212h-282zM386 649l-271 -372h205z" />
    <glyph glyph-name="five.alt" unicode="&#xf247;" horiz-adv-x="506" 
d="M44 222h80q-8 -32 -8 -56q0 -49 29.5 -79.5t89.5 -30.5q67 0 108.5 58t41.5 143q0 125 -118 125q-59 0 -100 -41l-72 9l71 350h348l-13 -73h-282l-43 -208l2 -1q42 33 105 33q89 0 135 -54t46 -140q0 -118 -63.5 -193.5t-165.5 -75.5q-91 0 -144.5 48.5t-53.5 128.5
q0 27 7 57z" />
    <glyph glyph-name="six.alt" unicode="&#xf248;" horiz-adv-x="509" 
d="M361 698h110q-57 -47 -145 -135.5t-150 -172.5l2 -1q53 39 118 39q72 0 126 -52.5t54 -142.5q0 -109 -66 -177t-166 -68q-90 0 -144.5 56.5t-54.5 147.5q0 234 316 506zM269 363q-66 0 -105 -53t-39 -121q0 -58 31 -95.5t93 -37.5q67 0 107 50t40 123q0 58 -31.5 96
t-95.5 38z" />
    <glyph glyph-name="seven.alt" unicode="&#xf249;" horiz-adv-x="462" 
d="M173 0h-94l348 627h-333l14 73h415l-12 -68z" />
    <glyph glyph-name="eight.alt" unicode="&#xf250;" horiz-adv-x="534" 
d="M324 712q83 0 139 -47t56 -128q0 -60 -36.5 -112t-91.5 -72q39 -21 64 -62t25 -89q0 -96 -66.5 -155t-158.5 -59q-93 0 -151 51t-58 133q0 72 41.5 125t101.5 74q-33 20 -53.5 57t-20.5 79q0 89 60.5 147t148.5 58zM309 389q59 0 95.5 42.5t36.5 102.5q0 48 -29.5 78.5
t-89.5 30.5q-61 0 -95.5 -41t-34.5 -102q0 -49 28.5 -80t88.5 -31zM268 325q-58 0 -101.5 -43t-43.5 -104q0 -51 34 -87.5t98 -36.5q65 0 105 45t40 104q0 51 -34.5 86.5t-97.5 35.5z" />
    <glyph glyph-name="nine.alt" unicode="&#xf251;" horiz-adv-x="508" 
d="M193 2h-110q57 47 145 135.5t150 172.5l-2 1q-50 -37 -118 -37q-72 0 -126 52t-54 141q0 109 66 177t166 68q90 0 144.5 -56.5t54.5 -147.5q0 -234 -316 -506zM285 337q66 0 105 53t39 121q0 58 -31 95.5t-93 37.5q-67 0 -107 -50t-40 -123q0 -58 31.5 -96t95.5 -38z" />
    <glyph glyph-name="zero.posf" unicode="&#xf252;" horiz-adv-x="489" 
d="M124 243q-15 -87 8 -137.5t85 -50.5q60 0 101 50.5t55 135.5q15 87 -8 137.5t-85 50.5q-60 0 -100.5 -50.5t-55.5 -135.5zM209 -12q-91 0 -136.5 69t-24.5 190q20 120 85 184.5t155 64.5q91 0 136.5 -69t24.5 -190q-20 -120 -85 -184.5t-155 -64.5z" />
    <glyph glyph-name="one.posf" unicode="&#xf253;" horiz-adv-x="374" 
d="M83 418l12 68h191l-74 -419h112l-11 -67h-303l11 67h112l62 351h-112z" />
    <glyph glyph-name="two.posf" unicode="&#xf254;" horiz-adv-x="483" 
d="M375 341q0 37 -31 63t-79 26q-56 0 -86 -28.5t-30 -69.5q0 -23 11 -50l-70 -9q-13 28 -13 65q0 74 54 116t137 42t133.5 -45.5t50.5 -108.5q0 -35 -13.5 -64.5t-44.5 -56t-59 -45t-80 -47.5l-109 -62h264l-12 -67h-391l11 63l197 116q97 57 128 86t32 76z" />
    <glyph glyph-name="three.posf" unicode="&#xf255;" horiz-adv-x="466" 
d="M71 10q0 -44 24.5 -75.5t82.5 -31.5q66 0 102.5 46.5t36.5 106.5q0 57 -35.5 91t-104.5 34q-29 0 -55 -6l16 78l217 166h-267l11 67h360l-12 -69l-241 -182q78 7 133 -43.5t55 -128.5q0 -93 -59.5 -157.5t-159.5 -64.5q-85 0 -130.5 45.5t-45.5 111.5q0 26 9 58h71
q-8 -38 -8 -46z" />
    <glyph glyph-name="four.posf" unicode="&#xf256;" horiz-adv-x="490" 
d="M-7 44l9 62l303 380h110l-67 -379h97l-11 -63h-97l-33 -191h-76l33 191h-268zM328 426l-250 -319h194l57 319h-1z" />
    <glyph glyph-name="five.posf" unicode="&#xf257;" horiz-adv-x="463" 
d="M176 -96q70 0 109 52.5t39 125.5q0 46 -27 82t-83 36q-48 0 -94 -36l-67 5l60 317h327l-12 -68h-259l-35 -182q38 27 90 27q87 0 131 -52t44 -125q0 -106 -61.5 -175.5t-160.5 -69.5q-80 0 -127 44.5t-47 115.5q0 28 7 55h72q-6 -21 -6 -42q0 -50 25.5 -80t74.5 -30z" />
    <glyph glyph-name="six.posf" unicode="&#xf258;" horiz-adv-x="502" 
d="M341 631h108q-60 -46 -139.5 -122.5t-134.5 -151.5l2 -1q42 35 111 35t122 -48t53 -131q0 -100 -63.5 -162t-160.5 -62q-87 0 -140.5 54.5t-53.5 138.5q0 209 296 450zM262 332q-65 0 -104 -48.5t-39 -111.5q0 -53 31 -87t94 -34q66 0 105.5 46t39.5 112q0 54 -31.5 88.5
t-95.5 34.5z" />
    <glyph glyph-name="seven.posf" unicode="&#xf259;" 
d="M119 -147h-85l328 563h-307l12 70h383l-11 -63z" />
    <glyph glyph-name="eight.posf" unicode="&#xf260;" horiz-adv-x="525" 
d="M311 644q81 0 135 -43.5t54 -117.5q0 -54 -34.5 -100t-87.5 -64q38 -19 62 -56.5t24 -80.5q0 -87 -64.5 -140.5t-153.5 -53.5q-90 0 -146 46t-56 121q0 68 39.5 115.5t98.5 61.5q-31 16 -51 51.5t-20 74.5q0 81 57.5 133.5t142.5 52.5zM259 293q-56 0 -98 -37t-42 -95
q0 -46 32.5 -78t94.5 -32q63 0 102 39.5t39 93.5q0 46 -33.5 77.5t-94.5 31.5zM311 582q-59 0 -92.5 -37.5t-33.5 -92.5q0 -43 29.5 -71.5t84.5 -28.5q59 0 92.5 37.5t33.5 92.5q0 43 -29.5 71.5t-84.5 28.5z" />
    <glyph glyph-name="nine.posf" unicode="&#xf261;" horiz-adv-x="481" 
d="M160 -147h-108q60 46 139.5 122.5t134.5 151.5l-2 1q-42 -35 -111 -35t-122 48t-53 131q0 100 63.5 162t160.5 62q87 0 140.5 -54.5t53.5 -138.5q0 -209 -296 -450zM239 152q65 0 104 48.5t39 111.5q0 53 -31 87t-94 34q-66 0 -105.5 -46t-39.5 -112q0 -54 31.5 -88.5
t95.5 -34.5z" />
    <glyph glyph-name="zero.sups" unicode="&#xf262;" 
d="M265 483q58 0 86 145q8 39 8 76q0 79 -50 79q-61 0 -85 -144q-8 -50 -8 -78q0 -78 49 -78zM264 423q-113 0 -113 144q0 32 8 78q16 98 55 148t96 50q59 0 86 -40t27 -104q0 -32 -8 -77q-17 -99 -56 -149t-95 -50z" />
    <glyph glyph-name="one.sups" unicode="&#xf263;" 
d="M151 430l9 58h78l52 289h-76l11 59h140l-61 -348h77l-10 -58h-220z" />
    <glyph glyph-name="two.sups" unicode="&#xf264;" 
d="M126 430l11 61q4 4 36 28.5t62 48t43 34.5q47 39 66 67t19 60q0 23 -15.5 39.5t-43.5 16.5q-26 0 -44.5 -17.5t-18.5 -45.5q0 -13 5 -33l-62 -6q-7 24 -7 43q0 48 34.5 82.5t93.5 34.5q58 0 91 -33.5t33 -79.5q0 -49 -25.5 -85t-91.5 -87l-90 -70h167l-11 -58h-252z" />
    <glyph glyph-name="three.sups" unicode="&#xf265;" 
d="M262 423q-56 0 -89 28.5t-33 77.5q0 15 4 33h65q-4 -24 -4 -30q0 -23 13.5 -38.5t42.5 -15.5q30 0 49.5 24.5t19.5 61.5q0 63 -78 63q-10 0 -26 -2l10 57l115 95h-159l11 59h234l-12 -64l-125 -101q39 -2 68 -31t29 -72q0 -61 -37 -103t-98 -42z" />
    <glyph glyph-name="four.sups" unicode="&#xf266;" 
d="M126 544l10 55l183 239h90l-42 -239h55l-11 -55h-54l-20 -112h-65l20 112h-166zM334 776l-137 -177h105z" />
    <glyph glyph-name="five.sups" unicode="&#xf267;" 
d="M266 478q32 0 51.5 28.5t19.5 71.5q0 62 -58 62q-27 0 -47 -20l-56 10l40 206h217l-10 -59h-162l-19 -97l2 -1q20 15 52 15q52 0 80 -32t28 -82q0 -69 -38 -113t-99 -44q-58 0 -90.5 29.5t-32.5 77.5q0 19 3 32h65q-3 -14 -3 -31q0 -23 14 -38t43 -15z" />
    <glyph glyph-name="six.sups" unicode="&#xf268;" 
d="M273 423q-58 0 -92.5 34.5t-34.5 90.5q0 135 180 288h92q-126 -105 -176 -171l3 -2q23 19 57 19q43 0 75.5 -30.5t32.5 -82.5q0 -66 -39 -106t-98 -40zM272 479q33 0 52.5 25t19.5 60q0 29 -15.5 47.5t-46.5 18.5q-32 0 -51.5 -26t-19.5 -60q0 -28 15.5 -46.5t45.5 -18.5
z" />
    <glyph glyph-name="seven.sups" unicode="&#xf269;" 
d="M163 430l201 344h-186l12 62h253l-10 -57l-190 -349h-80z" />
    <glyph glyph-name="eight.sups" unicode="&#xf270;" 
d="M271 423q-56 0 -93 30.5t-37 81.5q0 39 22.5 69.5t58.5 41.5q-20 10 -32 32.5t-12 47.5q0 50 37 83.5t91 33.5q51 0 85.5 -28.5t34.5 -76.5q0 -35 -19 -63.5t-53 -40.5q23 -11 37.5 -35t14.5 -52q0 -56 -39.5 -90t-95.5 -34zM271 477q31 0 50.5 21.5t19.5 51.5
q0 26 -17 43t-48 17q-30 0 -50 -21t-20 -51q0 -25 16.5 -43t48.5 -18zM299 663q29 0 46.5 20t17.5 49q0 24 -14.5 39.5t-44.5 15.5t-46.5 -19.5t-16.5 -49.5q0 -24 15.5 -39.5t42.5 -15.5z" />
    <glyph glyph-name="nine.sups" unicode="&#xf271;" 
d="M302 843q58 0 92.5 -34.5t34.5 -90.5q0 -135 -180 -288h-92q126 105 176 171l-3 2q-23 -19 -57 -19q-43 0 -75.5 30.5t-32.5 82.5q0 66 39 106t98 40zM303 787q-33 0 -52.5 -25t-19.5 -60q0 -29 15.5 -47.5t46.5 -18.5q32 0 51.5 26t19.5 60q0 28 -15.5 46.5t-45.5 18.5z
" />
    <glyph glyph-name="zero.sinf" unicode="&#xf272;" 
d="M160 -116q58 0 86 145q8 39 8 76q0 79 -50 79q-61 0 -85 -144q-8 -50 -8 -78q0 -78 49 -78zM159 -176q-113 0 -113 144q0 32 8 78q16 98 55 148t96 50q59 0 86 -40t27 -104q0 -32 -8 -77q-17 -99 -56 -149t-95 -50z" />
    <glyph glyph-name="one.sinf" unicode="&#xf273;" 
d="M45 -169l9 58h78l52 289h-76l11 59h140l-61 -348h77l-10 -58h-220z" />
    <glyph glyph-name="two.sinf" unicode="&#xf274;" 
d="M21 -169l11 61q4 4 36 28.5t62 48t43 34.5q47 39 66 67t19 60q0 23 -15.5 39.5t-43.5 16.5q-26 0 -44.5 -17.5t-18.5 -45.5q0 -13 5 -33l-62 -6q-7 24 -7 43q0 48 34.5 82.5t93.5 34.5q58 0 91 -33.5t33 -79.5q0 -49 -25.5 -85t-91.5 -87l-90 -70h167l-11 -58h-252z" />
    <glyph glyph-name="three.sinf" unicode="&#xf275;" 
d="M157 -176q-56 0 -89 28.5t-33 77.5q0 15 4 33h65q-4 -24 -4 -30q0 -23 13.5 -38.5t42.5 -15.5q30 0 49.5 24.5t19.5 61.5q0 63 -78 63q-10 0 -26 -2l10 57l115 95h-159l11 59h234l-12 -64l-125 -101q39 -2 68 -31t29 -72q0 -61 -37 -103t-98 -42z" />
    <glyph glyph-name="four.sinf" unicode="&#xf276;" 
d="M20 -55l10 55l183 239h90l-42 -239h55l-11 -55h-54l-20 -112h-65l20 112h-166zM228 177l-137 -177h105z" />
    <glyph glyph-name="five.sinf" unicode="&#xf277;" 
d="M160 -121q32 0 51.5 28.5t19.5 71.5q0 62 -58 62q-27 0 -47 -20l-56 10l40 206h217l-10 -59h-162l-19 -97l2 -1q20 15 52 15q52 0 80 -32t28 -82q0 -69 -38 -113t-99 -44q-58 0 -90.5 29.5t-32.5 77.5q0 19 3 32h65q-3 -14 -3 -31q0 -23 14 -38t43 -15z" />
    <glyph glyph-name="six.sinf" unicode="&#xf278;" 
d="M168 -176q-58 0 -92.5 34.5t-34.5 90.5q0 135 180 288h92q-126 -105 -176 -171l3 -2q23 19 57 19q43 0 75.5 -30.5t32.5 -82.5q0 -66 -39 -106t-98 -40zM167 -120q33 0 52.5 25t19.5 60q0 29 -15.5 47.5t-46.5 18.5q-32 0 -51.5 -26t-19.5 -60q0 -28 15.5 -46.5
t45.5 -18.5z" />
    <glyph glyph-name="seven.sinf" unicode="&#xf279;" 
d="M58 -169l201 344h-186l12 62h253l-10 -57l-190 -349h-80z" />
    <glyph glyph-name="eight.sinf" unicode="&#xf280;" 
d="M165 -176q-56 0 -93 30.5t-37 81.5q0 39 22.5 69.5t58.5 41.5q-20 10 -32 32.5t-12 47.5q0 50 37 83.5t91 33.5q51 0 85.5 -28.5t34.5 -76.5q0 -35 -19 -63.5t-53 -40.5q23 -11 37.5 -35t14.5 -52q0 -56 -39.5 -90t-95.5 -34zM165 -122q31 0 50.5 21.5t19.5 51.5
q0 26 -17 43t-48 17q-30 0 -50 -21t-20 -51q0 -25 16.5 -43t48.5 -18zM193 64q29 0 46.5 20t17.5 49q0 24 -14.5 39.5t-44.5 15.5t-46.5 -19.5t-16.5 -49.5q0 -24 15.5 -39.5t42.5 -15.5z" />
    <glyph glyph-name="nine.sinf" unicode="&#xf281;" 
d="M196 244q58 0 92.5 -34.5t34.5 -90.5q0 -135 -180 -288h-92q126 105 176 171l-3 2q-23 -19 -57 -19q-43 0 -75.5 30.5t-32.5 82.5q0 66 39 106t98 40zM197 188q-33 0 -52.5 -25t-19.5 -60q0 -29 15.5 -47.5t46.5 -18.5q32 0 51.5 26t19.5 60q0 28 -15.5 46.5t-45.5 18.5z
" />
    <glyph glyph-name="onefifth" unicode="&#xf282;" horiz-adv-x="1080" 
d="M954 735l35 -38l-799 -723l-35 38zM862 48q32 0 51.5 28.5t19.5 71.5q0 62 -58 62q-27 0 -47 -20l-56 10l40 206h217l-10 -59h-162l-19 -97l2 -1q20 15 52 15q52 0 80 -32t28 -82q0 -69 -38 -113t-99 -44q-58 0 -90.5 29.5t-32.5 77.5q0 19 3 32h65q-3 -13 -3 -31
q0 -23 14 -38t43 -15zM95 294l9 58h78l52 289h-76l11 59h140l-61 -348h77l-10 -58h-220z" />
    <glyph glyph-name="twofifths" unicode="&#xf283;" horiz-adv-x="1080" 
d="M954 735l35 -38l-799 -723l-35 38zM862 48q32 0 51.5 28.5t19.5 71.5q0 62 -58 62q-27 0 -47 -20l-56 10l40 206h217l-10 -59h-162l-19 -97l2 -1q20 15 52 15q52 0 80 -32t28 -82q0 -69 -38 -113t-99 -44q-58 0 -90.5 29.5t-32.5 77.5q0 19 3 32h65q-3 -13 -3 -31
q0 -23 14 -38t43 -15zM77 294l11 61q4 4 36 28.5t62 48t43 34.5q47 39 66 67t19 60q0 23 -15.5 39.5t-43.5 16.5q-26 0 -44.5 -17.5t-18.5 -45.5q0 -13 5 -33l-62 -6q-7 25 -7 43q0 48 34.5 82.5t93.5 34.5q58 0 91 -33.5t33 -79.5q0 -49 -25.5 -85t-91.5 -87l-90 -70h167
l-11 -58h-252z" />
    <glyph glyph-name="threefifths" unicode="&#xf284;" horiz-adv-x="1080" 
d="M954 735l35 -38l-799 -723l-35 38zM862 48q32 0 51.5 28.5t19.5 71.5q0 62 -58 62q-27 0 -47 -20l-56 10l40 206h217l-10 -59h-162l-19 -97l2 -1q20 15 52 15q52 0 80 -32t28 -82q0 -69 -38 -113t-99 -44q-58 0 -90.5 29.5t-32.5 77.5q0 19 3 32h65q-3 -13 -3 -31
q0 -23 14 -38t43 -15zM239 287q-56 0 -89 28.5t-33 77.5q0 15 4 33h65q-4 -24 -4 -30q0 -23 13.5 -38.5t42.5 -15.5q30 0 49.5 24.5t19.5 61.5q0 63 -78 63q-10 0 -26 -2l10 57l115 95h-159l11 59h234l-12 -64l-125 -101q39 -2 68 -31t29 -72q0 -61 -37 -103t-98 -42z" />
    <glyph glyph-name="fourfifths" unicode="&#xf285;" horiz-adv-x="1080" 
d="M105 406l10 55l183 239h90l-42 -239h55l-11 -55h-54l-20 -112h-65l20 112h-166zM954 735l35 -38l-799 -723l-35 38zM862 48q32 0 51.5 28.5t19.5 71.5q0 62 -58 62q-27 0 -47 -20l-56 10l40 206h217l-10 -59h-162l-19 -97l2 -1q20 15 52 15q52 0 80 -32t28 -82
q0 -69 -38 -113t-99 -44q-58 0 -90.5 29.5t-32.5 77.5q0 19 3 32h65q-3 -13 -3 -31q0 -23 14 -38t43 -15zM313 638l-137 -177h105z" />
    <glyph glyph-name="onesixth" unicode="&#xf286;" horiz-adv-x="1080" 
d="M954 735l35 -38l-799 -723l-35 38zM95 294l9 58h78l52 289h-76l11 59h140l-61 -348h77l-10 -58h-220zM859 -7q-58 0 -92.5 34.5t-34.5 90.5q0 135 180 288h92q-126 -105 -176 -171l3 -2q23 19 57 19q43 0 75.5 -30.5t32.5 -82.5q0 -66 -39 -106t-98 -40zM858 49
q33 0 52.5 25t19.5 60q0 29 -15.5 47.5t-46.5 18.5q-32 0 -51.5 -26t-19.5 -60q0 -28 15.5 -46.5t45.5 -18.5z" />
    <glyph glyph-name="fivesixths" unicode="&#xf287;" horiz-adv-x="1080" 
d="M859 -7q-58 0 -92.5 34.5t-34.5 90.5q0 135 180 288h92q-126 -105 -176 -171l3 -2q23 19 57 19q43 0 75.5 -30.5t32.5 -82.5q0 -66 -39 -106t-98 -40zM954 735l35 -38l-799 -723l-35 38zM243 342q32 0 51.5 28.5t19.5 71.5q0 62 -58 62q-27 0 -47 -20l-56 10l40 206h217
l-10 -59h-162l-19 -97l2 -1q19 15 52 15q52 0 80 -32t28 -82q0 -69 -38 -113t-99 -44q-58 0 -90.5 29.5t-32.5 77.5q0 19 3 32h65q-3 -14 -3 -31q0 -23 14 -38t43 -15zM858 49q33 0 52.5 25t19.5 60q0 29 -15.5 47.5t-46.5 18.5q-32 0 -51.5 -26t-19.5 -60q0 -28 15.5 -46.5
t45.5 -18.5z" />
    <glyph glyph-name="oneseventh" unicode="&#xf288;" horiz-adv-x="1080" 
d="M954 735l35 -38l-799 -723l-35 38zM95 294l9 58h78l52 289h-76l11 59h140l-61 -348h77l-10 -58h-220zM744 0l201 344h-186l12 62h253l-10 -57l-190 -349h-80z" />
    <glyph glyph-name="twosevenths" unicode="&#xf289;" horiz-adv-x="1080" 
d="M954 735l35 -38l-799 -723l-35 38zM77 294l11 61q4 4 36 28.5t62 48t43 34.5q47 39 66 67t19 60q0 23 -15.5 39.5t-43.5 16.5q-26 0 -44.5 -17.5t-18.5 -45.5q0 -13 5 -33l-62 -6q-7 25 -7 43q0 48 34.5 82.5t93.5 34.5q58 0 91 -33.5t33 -79.5q0 -49 -25.5 -85
t-91.5 -87l-90 -70h167l-11 -58h-252zM744 0l201 344h-186l12 62h253l-10 -57l-190 -349h-80z" />
    <glyph glyph-name="threesevenths" unicode="&#xf290;" horiz-adv-x="1080" 
d="M954 735l35 -38l-799 -723l-35 38zM744 0l201 344h-186l12 62h253l-10 -57l-190 -349h-80zM239 287q-56 0 -89 28.5t-33 77.5q0 15 4 33h65q-4 -24 -4 -30q0 -23 13.5 -38.5t42.5 -15.5q30 0 49.5 24.5t19.5 61.5q0 63 -78 63q-10 0 -26 -2l10 57l115 95h-159l11 59h234
l-12 -64l-125 -101q39 -2 68 -31t29 -72q0 -61 -37 -103t-98 -42z" />
    <glyph glyph-name="foursevenths" unicode="&#xf291;" horiz-adv-x="1080" 
d="M954 735l35 -38l-799 -723l-35 38zM105 406l10 55l183 239h90l-42 -239h55l-11 -55h-54l-20 -112h-65l20 112h-166zM313 638l-137 -177h105zM744 0l201 344h-186l12 62h253l-10 -57l-190 -349h-80z" />
    <glyph glyph-name="fivesevenths" unicode="&#xf292;" horiz-adv-x="1080" 
d="M954 735l35 -38l-799 -723l-35 38zM243 342q32 0 51.5 28.5t19.5 71.5q0 62 -58 62q-27 0 -47 -20l-56 10l40 206h217l-10 -59h-162l-19 -97l2 -1q19 15 52 15q52 0 80 -32t28 -82q0 -69 -38 -113t-99 -44q-58 0 -90.5 29.5t-32.5 77.5q0 19 3 32h65q-3 -14 -3 -31
q0 -23 14 -38t43 -15zM744 0l201 344h-186l12 62h253l-10 -57l-190 -349h-80z" />
    <glyph glyph-name="sixsevenths" unicode="&#xf293;" horiz-adv-x="1080" 
d="M954 735l35 -38l-799 -723l-35 38zM270 287q-58 0 -92.5 34.5t-34.5 90.5q0 135 180 288h92q-126 -105 -176 -171l3 -2q23 19 57 19q43 0 75.5 -30.5t32.5 -82.5q0 -66 -39 -106t-98 -40zM269 343q33 0 52.5 25t19.5 60q0 29 -15.5 47.5t-46.5 18.5q-32 0 -51.5 -26
t-19.5 -60q0 -28 15.5 -46.5t45.5 -18.5zM744 0l201 344h-186l12 62h253l-10 -57l-190 -349h-80z" />
    <glyph glyph-name="oneninth" unicode="&#xf294;" horiz-adv-x="1080" 
d="M954 735l35 -38l-799 -723l-35 38zM95 294l9 58h78l52 289h-76l11 59h140l-61 -348h77l-10 -58h-220zM872 413q58 0 92.5 -34.5t34.5 -90.5q0 -135 -180 -288h-92q126 105 176 171l-3 2q-23 -19 -57 -19q-43 0 -75.5 30.5t-32.5 82.5q0 66 39 106t98 40zM873 357
q-33 0 -52.5 -25t-19.5 -60q0 -29 15.5 -47.5t46.5 -18.5q32 0 51.5 26t19.5 60q0 28 -15.5 46.5t-45.5 18.5z" />
    <glyph glyph-name="twoninths" unicode="&#xf295;" horiz-adv-x="1080" 
d="M954 735l35 -38l-799 -723l-35 38zM77 294l11 61q4 4 36 28.5t62 48t43 34.5q47 39 66 67t19 60q0 23 -15.5 39.5t-43.5 16.5q-26 0 -44.5 -17.5t-18.5 -45.5q0 -13 5 -33l-62 -6q-7 25 -7 43q0 48 34.5 82.5t93.5 34.5q58 0 91 -33.5t33 -79.5q0 -49 -25.5 -85
t-91.5 -87l-90 -70h167l-11 -58h-252zM872 413q58 0 92.5 -34.5t34.5 -90.5q0 -135 -180 -288h-92q126 105 176 171l-3 2q-23 -19 -57 -19q-43 0 -75.5 30.5t-32.5 82.5q0 66 39 106t98 40zM873 357q-33 0 -52.5 -25t-19.5 -60q0 -29 15.5 -47.5t46.5 -18.5q32 0 51.5 26
t19.5 60q0 28 -15.5 46.5t-45.5 18.5z" />
    <glyph glyph-name="fourninths" unicode="&#xf296;" horiz-adv-x="1080" 
d="M954 735l35 -38l-799 -723l-35 38zM105 406l10 55l183 239h90l-42 -239h55l-11 -55h-54l-20 -112h-65l20 112h-166zM313 638l-137 -177h105zM872 413q58 0 92.5 -34.5t34.5 -90.5q0 -135 -180 -288h-92q126 105 176 171l-3 2q-23 -19 -57 -19q-43 0 -75.5 30.5
t-32.5 82.5q0 66 39 106t98 40zM873 357q-33 0 -52.5 -25t-19.5 -60q0 -29 15.5 -47.5t46.5 -18.5q32 0 51.5 26t19.5 60q0 28 -15.5 46.5t-45.5 18.5z" />
    <glyph glyph-name="fiveninths" unicode="&#xf297;" horiz-adv-x="1080" 
d="M872 413q58 0 92.5 -34.5t34.5 -90.5q0 -135 -180 -288h-92q126 105 176 171l-3 2q-23 -19 -57 -19q-43 0 -75.5 30.5t-32.5 82.5q0 66 39 106t98 40zM954 735l35 -38l-799 -723l-35 38zM243 342q32 0 51.5 28.5t19.5 71.5q0 62 -58 62q-27 0 -47 -20l-56 10l40 206h217
l-10 -59h-162l-19 -97l2 -1q19 15 52 15q52 0 80 -32t28 -82q0 -69 -38 -113t-99 -44q-58 0 -90.5 29.5t-32.5 77.5q0 19 3 32h65q-3 -14 -3 -31q0 -23 14 -38t43 -15zM873 357q-33 0 -52.5 -25t-19.5 -60q0 -29 15.5 -47.5t46.5 -18.5q32 0 51.5 26t19.5 60
q0 28 -15.5 46.5t-45.5 18.5z" />
    <glyph glyph-name="sevenninths" unicode="&#xf298;" horiz-adv-x="1080" 
d="M954 735l35 -38l-799 -723l-35 38zM872 413q58 0 92.5 -34.5t34.5 -90.5q0 -135 -180 -288h-92q126 105 176 171l-3 2q-23 -19 -57 -19q-43 0 -75.5 30.5t-32.5 82.5q0 66 39 106t98 40zM873 357q-33 0 -52.5 -25t-19.5 -60q0 -29 15.5 -47.5t46.5 -18.5q32 0 51.5 26
t19.5 60q0 28 -15.5 46.5t-45.5 18.5zM153 294l201 344h-186l12 62h253l-10 -57l-190 -349h-80z" />
    <glyph glyph-name="eightninths" unicode="&#xf299;" horiz-adv-x="1080" 
d="M954 735l35 -38l-799 -723l-35 38zM872 413q58 0 92.5 -34.5t34.5 -90.5q0 -135 -180 -288h-92q126 105 176 171l-3 2q-23 -19 -57 -19q-43 0 -75.5 30.5t-32.5 82.5q0 66 39 106t98 40zM873 357q-33 0 -52.5 -25t-19.5 -60q0 -29 15.5 -47.5t46.5 -18.5q32 0 51.5 26
t19.5 60q0 28 -15.5 46.5t-45.5 18.5zM232 287q-56 0 -93 30.5t-37 81.5q0 39 22.5 69.5t58.5 41.5q-20 10 -32 32.5t-12 47.5q0 50 37 83.5t91 33.5q51 0 85.5 -28.5t34.5 -76.5q0 -35 -19 -63.5t-53 -40.5q23 -11 37.5 -35t14.5 -52q0 -56 -39.5 -90t-95.5 -34zM232 341
q31 0 50.5 21.5t19.5 51.5q0 26 -17 43t-48 17q-30 0 -50 -21t-20 -51q0 -25 16.5 -43t48.5 -18zM260 527q29 0 46.5 20t17.5 49q0 24 -14.5 39.5t-44.5 15.5t-46.5 -19.5t-16.5 -49.5q0 -24 15.5 -39.5t42.5 -15.5z" />
    <glyph glyph-name="at.alt" unicode="&#xf300;" horiz-adv-x="905" 
d="M700 119q-45 0 -69.5 22t-30.5 53q-26 -33 -67.5 -54t-88.5 -21q-90 0 -146.5 60.5t-56.5 153.5q0 110 68.5 184t163.5 74q52 0 98.5 -26.5t65.5 -75.5l16 90h78l-54 -315q-8 -40 -2 -61.5t30 -21.5q57 0 94 68t37 174q0 126 -92.5 210.5t-228.5 84.5q-151 0 -264 -112.5
t-113 -290.5q0 -145 93 -236.5t240 -91.5q48 0 97 13.5t81 37.5l105 -14q-124 -100 -285 -100q-180 0 -292 111t-112 277q0 205 129 337t324 132q156 0 271 -102.5t115 -256.5q0 -143 -60.5 -223t-143.5 -80zM479 522q-68 0 -115 -54.5t-47 -130.5q0 -65 38 -107.5
t102 -42.5q68 0 114.5 53t46.5 132q0 65 -38 107.5t-101 42.5z" />
    <glyph glyph-name="ct" unicode="&#xf303;" horiz-adv-x="785" 
d="M383 131l63 -41q-70 -102 -193 -102q-94 0 -154 62.5t-60 158.5q0 97 61 169.5t154 80.5q-16 31 -16 65q0 20 7.5 41.5t25.5 45.5t57 39.5t92 15.5h310l-39 -218h108l-12 -65h-107l-48 -279q-4 -23 6.5 -31t33.5 -8l62 1l-12 -66q-39 -4 -76 -4q-21 0 -37 3t-32.5 12
t-23 29t-1.5 50l50 293h-74l12 65h74l27 153h-218q-57 0 -89 -25.5t-32 -69.5q0 -28 15 -50q95 -16 141 -94l-65 -41q-42 70 -115 70q-69 0 -115 -54t-46 -134q0 -63 38.5 -104.5t99.5 -41.5q74 0 128 74z" />
    <glyph glyph-name="i.locl" unicode="&#xf304;" horiz-adv-x="230" 
d="M202 448l-78 -448h-77l66 383h-69l11 65h147zM124 611q0 25 18 43t43 18t43 -18t18 -43t-18 -43t-43 -18t-43 18t-18 43z" />
    <glyph glyph-name="questiondown.alt" unicode="&#xf305;" horiz-adv-x="460" 
d="M23 165q0 86 53.5 142.5t143.5 64.5l41 134h66l-36 -198l-40 -2q-64 -3 -107 -41.5t-43 -100.5q0 -48 30 -77t84 -29q56 0 88.5 36.5t42.5 96.5l2 13h77q-5 -95 -62 -155.5t-148 -60.5q-86 0 -139 49t-53 128zM317 712q27 0 46.5 -19t19.5 -46t-19.5 -46t-46.5 -19
t-46.5 19t-19.5 46t19.5 46t46.5 19z" />
    <glyph glyph-name="exclamdown.alt" unicode="&#xf306;" horiz-adv-x="265" 
d="M146 476h74l-81 -476h-78zM205 712q27 0 46.5 -19t19.5 -46t-19.5 -46t-46.5 -19t-46.5 19t-19.5 46t19.5 46t46.5 19z" />
    <glyph glyph-name="hyphen.alt" unicode="&#xf307;" horiz-adv-x="250" 
d="M46 323l11 68h190l-11 -68h-190z" />
    <glyph glyph-name="endash.alt" unicode="&#xf308;" horiz-adv-x="500" 
d="M57 323l10 68h420l-11 -68h-419z" />
    <glyph glyph-name="emdash.alt" unicode="&#xf309;" horiz-adv-x="1000" 
d="M57 323l10 68h920l-11 -68h-919z" />
    <glyph glyph-name="guillemotleft.alt" unicode="&#xf310;" horiz-adv-x="483" 
d="M254 358l119 154h92l-126 -159l72 -149h-82zM95 358l119 154h92l-126 -159l73 -149h-83z" />
    <glyph glyph-name="guillemotright.alt" unicode="&#xf311;" horiz-adv-x="483" 
d="M277 358l-119 -154h-92l126 159l-72 149h82zM436 358l-119 -154h-92l126 159l-73 149h83z" />
    <glyph glyph-name="guilsinglleft.alt" unicode="&#xf312;" horiz-adv-x="330" 
d="M95 358l120 154h92l-127 -159l73 -149h-82z" />
    <glyph glyph-name="guilsinglright.alt" unicode="&#xf313;" horiz-adv-x="330" 
d="M283 358l-120 -154h-92l127 159l-73 149h82z" />
    <glyph glyph-name="orn.1" unicode="&#xf314;" horiz-adv-x="860" 
d="M77 349q0 155 109.5 265t265.5 110q155 0 265 -110t110 -265q0 -156 -110 -265.5t-265 -109.5q-156 0 -265.5 109.5t-109.5 265.5zM388 349q0 149 64 149t64 -149q0 -148 -64 -148t-64 148zM452 559q-65 0 -100.5 -52.5t-35.5 -157.5q0 -210 136 -210q134 0 134 210
q0 105 -35 157.5t-99 52.5z" />
    <glyph glyph-name="orn.2" unicode="&#xf315;" horiz-adv-x="860" 
d="M77 349q0 155 109.5 265t265.5 110q155 0 265 -110t110 -265q0 -156 -110 -265.5t-265 -109.5q-156 0 -265.5 109.5t-109.5 265.5zM341 560v-59h76v-289h-79v-58h227v58h-78v348h-146z" />
    <glyph glyph-name="orn.3" unicode="&#xf316;" horiz-adv-x="860" 
d="M77 349q0 155 109.5 265t265.5 110q155 0 265 -110t110 -265q0 -156 -110 -265.5t-265 -109.5q-156 0 -265.5 109.5t-109.5 265.5zM323 213v-59h262v59h-178l62 58q64 60 86.5 100t22.5 79q0 49 -35 83t-95 34q-59 0 -94 -32.5t-35 -77.5q0 -31 15 -62l64 13
q-11 25 -11 45q0 24 17 39t43 15q28 0 44.5 -17.5t16.5 -42.5q0 -52 -67 -120z" />
    <glyph glyph-name="orn.4" unicode="&#xf317;" horiz-adv-x="860" 
d="M77 349q0 155 109.5 265t265.5 110q155 0 265 -110t110 -265q0 -156 -110 -265.5t-265 -109.5q-156 0 -265.5 109.5t-109.5 265.5zM448 139q60 0 96 36.5t36 96.5q0 50 -33 83.5t-82 34.5l106 96v66h-235v-60h159l-101 -95v-59q16 4 42 4q34 0 53 -20t19 -52
q0 -34 -15.5 -54t-45.5 -20t-44.5 18.5t-14.5 47.5v17h-71v-19q0 -55 35 -88t96 -33z" />
    <glyph glyph-name="orn.5" unicode="&#xf318;" horiz-adv-x="860" 
d="M77 349q0 155 109.5 265t265.5 110q155 0 265 -110t110 -265q0 -156 -110 -265.5t-265 -109.5q-156 0 -265.5 109.5t-109.5 265.5zM348 322l101 172h2v-172h-103zM288 322v-57h163v-111h68v111h55v57h-55v238h-93z" />
    <glyph glyph-name="orn.6" unicode="&#xf319;" horiz-adv-x="860" 
d="M77 349q0 155 109.5 265t265.5 110q155 0 265 -110t110 -265q0 -156 -110 -265.5t-265 -109.5q-156 0 -265.5 109.5t-109.5 265.5zM581 279q0 60 -32.5 96.5t-88.5 36.5q-37 0 -59 -17h-2v95h168v62h-229v-214l58 -5q19 21 51 21t47.5 -21.5t15.5 -57.5t-15.5 -57.5
t-46.5 -21.5q-30 0 -44.5 18.5t-14.5 47.5v17h-70v-19q0 -55 35 -88t95 -33q62 0 97 38.5t35 101.5z" />
    <glyph glyph-name="orn.7" unicode="&#xf320;" horiz-adv-x="860" 
d="M77 349q0 155 109.5 265t265.5 110q155 0 265 -110t110 -265q0 -156 -110 -265.5t-265 -109.5q-156 0 -265.5 109.5t-109.5 265.5zM372 269q0 32 17 53.5t49 21.5t49 -21.5t17 -53.5t-17 -52.5t-49 -20.5t-49 20.5t-17 52.5zM540 552h-91l-11 -12q-36 -38 -59 -66.5
t-49.5 -84.5t-26.5 -109q0 -64 37.5 -102.5t99.5 -38.5q60 0 97 36t37 96q0 62 -35.5 95t-85.5 33q-39 0 -60 -21l-1 1q42 67 142 167z" />
    <glyph glyph-name="orn.8" unicode="&#xf321;" horiz-adv-x="860" 
d="M77 349q0 155 109.5 265t265.5 110q155 0 265 -110t110 -265q0 -156 -110 -265.5t-265 -109.5q-156 0 -265.5 109.5t-109.5 265.5zM375 139h76l134 347v59h-251v-62h184z" />
    <glyph glyph-name="orn.9" unicode="&#xf322;" horiz-adv-x="860" 
d="M77 349q0 155 109.5 265t265.5 110q155 0 265 -110t110 -265q0 -156 -110 -265.5t-265 -109.5q-156 0 -265.5 109.5t-109.5 265.5zM452 381q-30 0 -45 17t-15 43q0 27 15 44t45 17t45 -17t15 -44q0 -26 -15 -43t-45 -17zM452 195q-31 0 -49 19t-18 46t18 46t49 19t49 -19
t18 -46t-18 -46t-49 -19zM452 559q-58 0 -93 -31.5t-35 -82.5q0 -33 17.5 -58t41.5 -31q-29 -10 -48 -37.5t-19 -60.5q0 -55 37.5 -87t98.5 -32t98.5 32t37.5 87q0 33 -19 60.5t-48 37.5q24 6 41.5 31t17.5 58q0 51 -35 82.5t-93 31.5z" />
    <glyph glyph-name="orn.10" unicode="&#xf323;" horiz-adv-x="860" 
d="M828 349q0 -155 -109.5 -265t-265.5 -110q-155 0 -265 110t-110 265q0 156 110 265.5t265 109.5q156 0 265.5 -109.5t109.5 -265.5zM526 422q0 -32 -17 -53.5t-49 -21.5t-49 21.5t-17 53.5t17 52.5t49 20.5t49 -20.5t17 -52.5zM358 139h91l11 12q36 38 59 66.5t49.5 84.5
t26.5 109q0 64 -37.5 102.5t-99.5 38.5q-60 0 -97 -36t-37 -96q0 -62 35.5 -95t85.5 -33q39 0 60 21l1 -1q-42 -67 -142 -167z" />
    <glyph glyph-name="arrow.up" unicode="&#xf324;" horiz-adv-x="590" 
d="M328 126h-66v379l-167 -169l-45 48l245 248l245 -248l-46 -47l-165 168z" />
    <glyph glyph-name="arrow.down" unicode="&#xf325;" horiz-adv-x="590" 
d="M262 632h66l1 -379l165 168l46 -47l-245 -248l-245 248l45 48l167 -169v379z" />
    <glyph glyph-name="arrowup.left" unicode="&#xf326;" horiz-adv-x="590" 
d="M485 223l-46 -46l-268 268l1 -238l-66 2l-2 349l349 -2v-66l-235 2z" />
    <glyph glyph-name="arrowup.right" unicode="&#xf327;" horiz-adv-x="590" 
d="M150 177l-46 46l267 269l-235 -2v66l349 2l-2 -349l-66 -2l1 238z" />
    <glyph glyph-name="arrowdown.left" unicode="&#xf328;" horiz-adv-x="590" 
d="M439 558l46 -46l-267 -269l235 2v-66l-349 -2l2 349l66 2l-1 -238z" />
    <glyph glyph-name="arrowdown.right" unicode="&#xf329;" horiz-adv-x="590" 
d="M104 512l46 46l268 -268l-1 238l66 -2l2 -349l-349 2v66l235 -2z" />
    <glyph glyph-name="revcommaaccent" unicode="&#xf330;" horiz-adv-x="228" 
d="M230 587q0 -25 -17 -42.5t-43 -17.5q-24 0 -41.5 17.5t-17.5 40.5t18 45l82 102l52 -9l-58 -88q25 -17 25 -48z" />
    <glyph glyph-name="A.smcp" unicode="&#xf331;" horiz-adv-x="518" 
d="M-8 0l279 560h95l89 -560h-80l-26 180h-186l-85 -180h-86zM195 247h145l-31 232h-1z" />
    <glyph glyph-name="B.smcp" unicode="&#xf332;" horiz-adv-x="467" 
d="M41 0l96 560h135q76 0 117 -38.5t41 -90.5q0 -49 -27.5 -85.5t-76.5 -51.5q42 -14 66.5 -47.5t24.5 -76.5q0 -77 -55 -123.5t-145 -46.5h-176zM130 66h70q64 0 101 26.5t37 78.5q0 42 -31.5 66t-80.5 24h-62zM175 327h63q47 0 80 23t33 71q0 35 -25 53.5t-60 18.5h-63z
" />
    <glyph glyph-name="C.smcp" unicode="&#xf333;" horiz-adv-x="617" 
d="M317 -10q-115 0 -190 76.5t-75 191.5q0 134 88 223t209 89q93 0 161.5 -54t86.5 -139h-82q-39 123 -167 123q-93 0 -155.5 -69.5t-62.5 -173.5q0 -84 51 -141t138 -57q123 0 180 123h86q-33 -88 -106 -140t-162 -52z" />
    <glyph glyph-name="D.smcp" unicode="&#xf334;" horiz-adv-x="574" 
d="M130 66h82q113 0 182 66.5t69 185.5q0 83 -53 129.5t-143 46.5h-64zM41 0l96 560h147q119 0 188.5 -68t69.5 -174q0 -143 -87.5 -230.5t-232.5 -87.5h-181z" />
    <glyph glyph-name="E.smcp" unicode="&#xf335;" horiz-adv-x="501" 
d="M41 0l96 560h386l-12 -68h-308l-29 -173h194l-12 -67h-194l-32 -185h308l-12 -67h-385z" />
    <glyph glyph-name="F.smcp" unicode="&#xf336;" horiz-adv-x="472" 
d="M41 0l96 560h371l-12 -68h-293l-32 -188h215l-13 -67h-214l-40 -237h-78z" />
    <glyph glyph-name="G.smcp" unicode="&#xf337;" horiz-adv-x="632" 
d="M304 -10q-110 0 -180.5 75t-70.5 193q0 134 88 223t209 89q93 0 162.5 -54t88.5 -139h-83q-17 57 -60.5 90t-108.5 33q-93 0 -155.5 -69t-62.5 -173q0 -84 48.5 -142t131.5 -58q73 0 126.5 43t64.5 87h-137l11 66h214l-44 -254h-70l14 81q-27 -38 -76 -64.5t-110 -26.5z
" />
    <glyph glyph-name="H.smcp" unicode="&#xf338;" horiz-adv-x="562" 
d="M174 319h248l42 241h78l-96 -560h-78l43 252h-249l-43 -252h-78l96 560h78z" />
    <glyph glyph-name="I.smcp" unicode="&#xf339;" horiz-adv-x="235" 
d="M41 0l96 560h78l-96 -560h-78z" />
    <glyph glyph-name="J.smcp" unicode="&#xf340;" horiz-adv-x="485" 
d="M27 228h77l-5 -30q-10 -57 17.5 -98t88.5 -41q51 0 82 33.5t40 85.5l66 382h78l-67 -394q-13 -78 -66.5 -127t-136.5 -49q-92 0 -143 59t-35 155z" />
    <glyph glyph-name="K.smcp" unicode="&#xf341;" horiz-adv-x="504" 
d="M41 0l96 560h78l-40 -234h24l251 234h104l-295 -268l191 -292h-93l-163 259h-31l-44 -259h-78z" />
    <glyph glyph-name="L.smcp" unicode="&#xf342;" horiz-adv-x="412" 
d="M41 0l96 560h78l-85 -493h239l-12 -67h-316z" />
    <glyph glyph-name="M.smcp" unicode="&#xf343;" horiz-adv-x="680" 
d="M41 0l96 560h113l81 -381l212 381h117l-96 -560h-78l79 463l-193 -346h-100l-76 346l-79 -463h-76z" />
    <glyph glyph-name="N.smcp" unicode="&#xf344;" horiz-adv-x="562" 
d="M41 0l96 560h101l151 -438l75 438h78l-95 -560h-90l-161 451l-77 -451h-78z" />
    <glyph glyph-name="O.smcp" unicode="&#xf345;" horiz-adv-x="648" 
d="M319 59q93 0 155.5 69t62.5 173q0 85 -51 142t-137 57q-93 0 -155.5 -69t-62.5 -174q0 -84 51 -141t137 -57zM317 -10q-115 0 -190 76.5t-75 191.5q0 133 89 222.5t210 89.5q114 0 190 -76.5t76 -192.5q0 -134 -89.5 -222.5t-210.5 -88.5z" />
    <glyph glyph-name="P.smcp" unicode="&#xf346;" horiz-adv-x="470" 
d="M41 0l96 560h148q80 0 131 -45.5t51 -113.5q0 -86 -57 -139t-158 -53h-98l-35 -209h-78zM166 277h86q59 0 97.5 29t38.5 90q0 44 -31.5 70t-81.5 26h-72z" />
    <glyph glyph-name="Q.smcp" unicode="&#xf347;" horiz-adv-x="648" 
d="M317 -10q-115 0 -190 76.5t-75 191.5q0 133 89 222.5t210 89.5q114 0 190 -76.5t76 -192.5q0 -86 -39.5 -155.5t-105.5 -110.5l11 -19q9 -16 14 -23.5t18 -14.5t31 -7l43 2l-6 -68q-25 -4 -54 -4q-37 0 -60.5 15t-44.5 51l-21 36q-45 -13 -86 -13zM319 59q29 0 49 5
l-50 89l63 38l56 -96q46 32 73 86t27 120q0 85 -51 142t-137 57q-93 0 -155.5 -69t-62.5 -174q0 -84 51 -141t137 -57z" />
    <glyph glyph-name="R.smcp" unicode="&#xf348;" horiz-adv-x="509" 
d="M41 0l96 560h165q80 0 128.5 -41.5t48.5 -103.5q0 -57 -35 -104t-114 -64l136 -247h-86l-127 236h-93l-41 -236h-78zM171 304h91q57 0 97 26t40 79q0 38 -29.5 60.5t-77.5 22.5h-89z" />
    <glyph glyph-name="S.smcp" unicode="&#xf349;" horiz-adv-x="431" 
d="M200 -10q-119 0 -192 97l52 55q22 -34 59 -58.5t81 -24.5q46 0 72.5 25t26.5 62q0 24 -17.5 47t-57.5 53l-45 33q-91 67 -91 139q0 71 49.5 111.5t118.5 40.5q51 0 96.5 -23t73.5 -66l-51 -49q-43 69 -118 69q-43 0 -66.5 -23t-23.5 -55q0 -39 51 -77l56 -42
q57 -43 80 -77.5t24 -78.5q0 -68 -49.5 -113t-128.5 -45z" />
    <glyph glyph-name="T.smcp" unicode="&#xf350;" horiz-adv-x="452" 
d="M150 0l84 491h-168l12 69h414l-12 -69h-168l-84 -491h-78z" />
    <glyph glyph-name="U.smcp" unicode="&#xf351;" horiz-adv-x="530" 
d="M248 -10q-92 0 -143 59t-35 155l60 356h78l-62 -362q-10 -57 17.5 -98t88.5 -41q52 0 83 34t39 85l66 382h76l-68 -394q-14 -79 -65.5 -127.5t-134.5 -48.5z" />
    <glyph glyph-name="V.smcp" unicode="&#xf352;" horiz-adv-x="507" 
d="M149 0l-61 560h81l43 -467h1l254 467h85l-314 -560h-89z" />
    <glyph glyph-name="W.smcp" unicode="&#xf353;" horiz-adv-x="772" 
d="M104 0l-10 560h78l3 -464l228 464h92l16 -464h1l206 464h83l-260 -560h-99l-14 466l-228 -466h-96z" />
    <glyph glyph-name="X.smcp" unicode="&#xf354;" horiz-adv-x="499" 
d="M-21 0l234 283l-132 277h86l100 -223l177 223h93l-232 -281l141 -279h-88l-106 225l-179 -225h-94z" />
    <glyph glyph-name="Y.smcp" unicode="&#xf355;" horiz-adv-x="538" 
d="M190 0l43 246l-159 314h90l115 -243h2l200 243h96l-266 -311l-43 -249h-78z" />
    <glyph glyph-name="Z.smcp" unicode="&#xf356;" horiz-adv-x="493" 
d="M-3 0l12 66l396 425h-316l12 69h412l-11 -68l-398 -423h324l-12 -69h-419z" />
    <glyph glyph-name="OE.smcp" unicode="&#xf357;" horiz-adv-x="837" 
d="M295 0q-115 0 -180 66.5t-65 171.5q0 137 92 229.5t239 92.5h478l-12 -68h-308l-29 -173h193l-11 -67h-194l-32 -185h307l-11 -67h-467zM316 67h72l73 425h-68q-116 0 -189.5 -70t-73.5 -190q0 -80 49.5 -122.5t136.5 -42.5z" />
    <glyph glyph-name="AE.smcp" unicode="&#xf358;" horiz-adv-x="793" 
d="M-32 0l404 560h442l-12 -68h-305l-30 -173h198l-12 -67h-197l-32 -185h305l-11 -67h-384l40 232h-146l-162 -232h-98zM274 300h112l33 192h-11z" />
    <glyph glyph-name="Wacute.smcp" unicode="&#xf359;" horiz-adv-x="772" 
d="M104 0l-10 560h78l3 -464l228 464h92l16 -464h1l206 464h83l-260 -560h-99l-14 466l-228 -466h-96zM424 605l64 125h92l-93 -125h-63z" />
    <glyph glyph-name="Wdieresis.smcp" unicode="&#xf360;" horiz-adv-x="772" 
d="M104 0l-10 560h78l3 -464l228 464h92l16 -464h1l206 464h83l-260 -560h-99l-14 466l-228 -466h-96zM479 673q-1 21 14.5 36t37.5 15q21 0 36.5 -15t16.5 -36q-1 -20 -16.5 -35.5t-36.5 -15.5q-22 0 -37.5 15.5t-14.5 35.5zM347 673q-1 21 15 36t37 15t36.5 -15t16.5 -36
q-1 -20 -16.5 -35.5t-36.5 -15.5t-37 15.5t-15 35.5z" />
    <glyph glyph-name="Wgrave.smcp" unicode="&#xf361;" horiz-adv-x="772" 
d="M104 0l-10 560h78l3 -464l228 464h92l16 -464h1l206 464h83l-260 -560h-99l-14 466l-228 -466h-96zM435 730l48 -125h-63l-77 125h92z" />
    <glyph glyph-name="Ygrave.smcp" unicode="&#xf362;" horiz-adv-x="538" 
d="M190 0l43 246l-159 314h90l115 -243h2l200 243h96l-266 -311l-43 -249h-78zM300 730l48 -125h-63l-77 125h92z" />
    <glyph glyph-name="uni021A.smcp" unicode="&#xf363;" horiz-adv-x="452" 
d="M150 0l84 491h-168l12 69h414l-12 -69h-168l-84 -491h-78zM121 -93q0 22 15 37.5t38 15.5q22 0 37 -15.5t15 -36.5q0 -19 -15 -40l-73 -90l-47 8l52 78q-22 15 -22 43z" />
    <glyph glyph-name="Tcommaaccent.smcp" unicode="&#xf364;" horiz-adv-x="452" 
d="M150 0l84 491h-168l12 69h414l-12 -69h-168l-84 -491h-78zM121 -93q0 22 15 37.5t38 15.5q22 0 37 -15.5t15 -36.5q0 -19 -15 -40l-73 -90l-47 8l52 78q-22 15 -22 43z" />
    <glyph glyph-name="Amacron.smcp" unicode="&#xf365;" horiz-adv-x="518" 
d="M-8 0l279 560h95l89 -560h-80l-26 180h-186l-85 -180h-86zM195 247h145l-31 232h-1zM212 639l11 61h227l-11 -61h-227z" />
    <glyph glyph-name="Aogonek.smcp" unicode="&#xf366;" horiz-adv-x="518" 
d="M-8 0l279 560h95l89 -560h-24q-68 -35 -68 -72q0 -14 12.5 -22t28.5 -8q32 0 47 7l-8 -44q-24 -12 -66 -12q-37 0 -59.5 17.5t-22.5 43.5q0 60 80 90l-26 180h-186l-85 -180h-86zM195 247h145l-31 232h-1z" />
    <glyph glyph-name="Aring.smcp" unicode="&#xf367;" horiz-adv-x="518" 
d="M-8 0l279 560h95l89 -560h-80l-26 180h-186l-85 -180h-86zM195 247h145l-31 232h-1zM329 591q-38 0 -64.5 25.5t-26.5 62.5q0 38 26.5 62.5t64.5 24.5q37 0 63.5 -24.5t26.5 -62.5q0 -37 -26.5 -62.5t-63.5 -25.5zM329 634q18 0 29.5 13t11.5 32t-11.5 31.5t-29.5 12.5
q-19 0 -31 -12.5t-12 -31.5t12 -32t31 -13z" />
    <glyph glyph-name="Atilde.smcp" unicode="&#xf368;" horiz-adv-x="518" 
d="M-8 0l279 560h95l89 -560h-80l-26 180h-186l-85 -180h-86zM195 247h145l-31 232h-1zM362 623q-18 0 -47.5 16t-37.5 16q-15 0 -22 -23l-2 -7h-59l2 12q14 81 79 81q18 0 49 -16t38 -16q15 0 21 23l2 7h58l-2 -14q-13 -79 -79 -79z" />
    <glyph glyph-name="Cacute.smcp" unicode="&#xf369;" horiz-adv-x="617" 
d="M317 -10q-115 0 -190 76.5t-75 191.5q0 134 88 223t209 89q93 0 161.5 -54t86.5 -139h-82q-39 123 -167 123q-93 0 -155.5 -69.5t-62.5 -173.5q0 -84 51 -141t138 -57q123 0 180 123h86q-33 -88 -106 -140t-162 -52zM341 605l64 125h92l-93 -125h-63z" />
    <glyph glyph-name="Ccaron.smcp" unicode="&#xf370;" horiz-adv-x="617" 
d="M317 -10q-115 0 -190 76.5t-75 191.5q0 134 88 223t209 89q93 0 161.5 -54t86.5 -139h-82q-39 123 -167 123q-93 0 -155.5 -69.5t-62.5 -173.5q0 -84 51 -141t138 -57q123 0 180 123h86q-33 -88 -106 -140t-162 -52zM374 654l61 76h72l-95 -125h-88l-49 125h66z" />
    <glyph glyph-name="Ccedilla.smcp" unicode="&#xf371;" horiz-adv-x="618" 
d="M173 -129l60 131q-82 26 -131 95t-49 161q0 134 88 223t209 89q93 0 161.5 -54t86.5 -139h-82q-39 123 -167 123q-93 0 -155.5 -69.5t-62.5 -173.5q0 -84 51 -141t138 -57q123 0 180 123h86q-33 -88 -106 -140t-162 -52h-11l-71 -119h-63z" />
    <glyph glyph-name="Ccircumflex.smcp" unicode="&#xf372;" horiz-adv-x="617" 
d="M317 -10q-115 0 -190 76.5t-75 191.5q0 134 88 223t209 89q93 0 161.5 -54t86.5 -139h-82q-39 123 -167 123q-93 0 -155.5 -69.5t-62.5 -173.5q0 -84 51 -141t138 -57q123 0 180 123h86q-33 -88 -106 -140t-162 -52zM418 605l-33 76l-61 -76h-73l95 125h88l49 -125h-65z
" />
    <glyph glyph-name="Cdotaccent.smcp" unicode="&#xf373;" horiz-adv-x="617" 
d="M317 -10q-115 0 -190 76.5t-75 191.5q0 134 88 223t209 89q93 0 161.5 -54t86.5 -139h-82q-39 123 -167 123q-93 0 -155.5 -69.5t-62.5 -173.5q0 -84 51 -141t138 -57q123 0 180 123h86q-33 -88 -106 -140t-162 -52zM330 673q-1 21 15 36t37 15t36.5 -15t16.5 -36
q-1 -20 -16.5 -35.5t-36.5 -15.5t-37 15.5t-15 35.5z" />
    <glyph glyph-name="Dcaron.smcp" unicode="&#xf374;" horiz-adv-x="574" 
d="M130 66h82q113 0 182 66.5t69 185.5q0 83 -53 129.5t-143 46.5h-64zM41 0l96 560h147q119 0 188.5 -68t69.5 -174q0 -143 -87.5 -230.5t-232.5 -87.5h-181zM337 654l61 76h72l-95 -125h-88l-49 125h66z" />
    <glyph glyph-name="Gbreve.smcp" unicode="&#xf375;" horiz-adv-x="632" 
d="M304 -10q-110 0 -180.5 75t-70.5 193q0 134 88 223t209 89q93 0 162.5 -54t88.5 -139h-83q-17 57 -60.5 90t-108.5 33q-93 0 -155.5 -69t-62.5 -173q0 -84 48.5 -142t131.5 -58q73 0 126.5 43t64.5 87h-137l11 66h214l-44 -254h-70l14 81q-27 -38 -76 -64.5t-110 -26.5z
M372 672q43 0 53 49l2 10h60l-3 -17q-8 -48 -40.5 -73.5t-77.5 -25.5t-73 31.5t-16 73.5l3 11h57q-4 -9 -4 -20q0 -39 39 -39z" />
    <glyph glyph-name="Gcircumflex.smcp" unicode="&#xf376;" horiz-adv-x="632" 
d="M304 -10q-110 0 -180.5 75t-70.5 193q0 134 88 223t209 89q93 0 162.5 -54t88.5 -139h-83q-17 57 -60.5 90t-108.5 33q-93 0 -155.5 -69t-62.5 -173q0 -84 48.5 -142t131.5 -58q73 0 126.5 43t64.5 87h-137l11 66h214l-44 -254h-70l14 81q-27 -38 -76 -64.5t-110 -26.5z
M404 605l-33 76l-61 -76h-73l95 125h88l49 -125h-65z" />
    <glyph glyph-name="Gdotaccent.smcp" unicode="&#xf377;" horiz-adv-x="632" 
d="M304 -10q-110 0 -180.5 75t-70.5 193q0 134 88 223t209 89q93 0 162.5 -54t88.5 -139h-83q-17 57 -60.5 90t-108.5 33q-93 0 -155.5 -69t-62.5 -173q0 -84 48.5 -142t131.5 -58q73 0 126.5 43t64.5 87h-137l11 66h214l-44 -254h-70l14 81q-27 -38 -76 -64.5t-110 -26.5z
M319 673q-1 21 15 36t37 15t36.5 -15t16.5 -36q-1 -20 -16.5 -35.5t-36.5 -15.5t-37 15.5t-15 35.5z" />
    <glyph glyph-name="Hcircumflex.smcp" unicode="&#xf378;" horiz-adv-x="562" 
d="M174 319h248l42 241h78l-96 -560h-78l43 252h-249l-43 -252h-78l96 560h78zM394 605l-33 76l-61 -76h-73l95 125h88l49 -125h-65z" />
    <glyph glyph-name="Iacute.smcp" unicode="&#xf379;" horiz-adv-x="235" 
d="M41 0l96 560h78l-96 -560h-78zM152 605l64 125h92l-93 -125h-63z" />
    <glyph glyph-name="Ibreve.smcp" unicode="&#xf380;" horiz-adv-x="235" 
d="M41 0l96 560h78l-96 -560h-78zM185 672q43 0 53 49l2 10h60l-3 -17q-8 -48 -40.5 -73.5t-77.5 -25.5t-73 31.5t-16 73.5l3 11h57q-4 -9 -4 -20q0 -39 39 -39z" />
    <glyph glyph-name="Icircumflex.smcp" unicode="&#xf381;" horiz-adv-x="235" 
d="M41 0l96 560h78l-96 -560h-78zM230 605l-33 76l-61 -76h-73l95 125h88l49 -125h-65z" />
    <glyph glyph-name="Idieresis.smcp" unicode="&#xf382;" horiz-adv-x="235" 
d="M41 0l96 560h78l-96 -560h-78zM71 673q-1 21 15 36t37 15t36.5 -15t16.5 -36q-1 -20 -16.5 -35.5t-36.5 -15.5t-37 15.5t-15 35.5zM203 673q-1 21 14.5 36t37.5 15q21 0 36.5 -15t16.5 -36q-1 -20 -16.5 -35.5t-36.5 -15.5q-22 0 -37.5 15.5t-14.5 35.5z" />
    <glyph glyph-name="Idotaccent.smcp" unicode="&#xf383;" horiz-adv-x="235" 
d="M41 0l96 560h78l-96 -560h-78zM136 673q-1 21 15 36t37 15t36.5 -15t16.5 -36q-1 -20 -16.5 -35.5t-36.5 -15.5t-37 15.5t-15 35.5z" />
    <glyph glyph-name="Igrave.smcp" unicode="&#xf384;" horiz-adv-x="235" 
d="M41 0l96 560h78l-96 -560h-78zM154 730l48 -125h-63l-77 125h92z" />
    <glyph glyph-name="IJ.smcp" unicode="&#xf385;" horiz-adv-x="720" 
d="M41 0l96 560h78l-96 -560h-78zM262 228h77l-5 -30q-10 -57 17.5 -98t88.5 -41q51 0 82 33.5t40 85.5l66 382h78l-67 -394q-13 -78 -66.5 -127t-136.5 -49q-92 0 -143 59t-35 155z" />
    <glyph glyph-name="Iogonek.smcp" unicode="&#xf386;" horiz-adv-x="235" 
d="M41 0l96 560h78l-96 -560h-16q-68 -35 -68 -72q0 -14 12.5 -22t28.5 -8q32 0 47 7l-8 -44q-24 -12 -66 -12q-37 0 -59.5 17.5t-22.5 43.5q0 60 80 90h-6z" />
    <glyph glyph-name="Itilde.smcp" unicode="&#xf387;" horiz-adv-x="235" 
d="M41 0l96 560h78l-96 -560h-78zM232 623q-18 0 -47.5 16t-37.5 16q-15 0 -22 -23l-2 -7h-59l2 12q14 81 79 81q18 0 49 -16t38 -16q15 0 21 23l2 7h58l-2 -14q-13 -79 -79 -79z" />
    <glyph glyph-name="Jcircumflex.smcp" unicode="&#xf388;" horiz-adv-x="485" 
d="M27 228h77l-5 -30q-10 -57 17.5 -98t88.5 -41q51 0 82 33.5t40 85.5l66 382h78l-67 -394q-13 -78 -66.5 -127t-136.5 -49q-92 0 -143 59t-35 155zM354 605l-33 76l-61 -76h-73l95 125h88l49 -125h-65z" />
    <glyph glyph-name="Kcommaaccent.smcp" unicode="&#xf389;" horiz-adv-x="504" 
d="M41 0l96 560h78l-40 -234h24l251 234h104l-295 -268l191 -292h-93l-163 259h-31l-44 -259h-78zM166 -93q0 22 15 37.5t38 15.5q22 0 37 -15.5t15 -36.5q0 -19 -15 -40l-73 -90l-47 8l52 78q-22 15 -22 43z" />
    <glyph glyph-name="Lacute.smcp" unicode="&#xf390;" horiz-adv-x="412" 
d="M41 0l96 560h78l-85 -493h239l-12 -67h-316zM191 605l64 125h92l-93 -125h-63z" />
    <glyph glyph-name="Nacute.smcp" unicode="&#xf391;" horiz-adv-x="562" 
d="M41 0l96 560h101l151 -438l75 438h78l-95 -560h-90l-161 451l-77 -451h-78zM312 605l64 125h92l-93 -125h-63z" />
    <glyph glyph-name="Ncaron.smcp" unicode="&#xf392;" horiz-adv-x="562" 
d="M41 0l96 560h101l151 -438l75 438h78l-95 -560h-90l-161 451l-77 -451h-78zM347 654l61 76h72l-95 -125h-88l-49 125h66z" />
    <glyph glyph-name="Ncommaaccent.smcp" unicode="&#xf393;" horiz-adv-x="562" 
d="M41 0l96 560h101l151 -438l75 438h78l-95 -560h-90l-161 451l-77 -451h-78zM172 -93q0 22 15 37.5t38 15.5q22 0 37 -15.5t15 -36.5q0 -19 -15 -40l-73 -90l-47 8l52 78q-22 15 -22 43z" />
    <glyph glyph-name="Ntilde.smcp" unicode="&#xf394;" horiz-adv-x="562" 
d="M41 0l96 560h101l151 -438l75 438h78l-95 -560h-90l-161 451l-77 -451h-78zM397 623q-18 0 -47.5 16t-37.5 16q-15 0 -22 -23l-2 -7h-59l2 12q13 81 79 81q18 0 49 -16t38 -16q15 0 21 23l2 7h58l-2 -14q-13 -79 -79 -79z" />
    <glyph glyph-name="Oacute.smcp" unicode="&#xf395;" horiz-adv-x="648" 
d="M319 59q93 0 155.5 69t62.5 173q0 85 -51 142t-137 57q-93 0 -155.5 -69t-62.5 -174q0 -84 51 -141t137 -57zM317 -10q-115 0 -190 76.5t-75 191.5q0 133 89 222.5t210 89.5q114 0 190 -76.5t76 -192.5q0 -134 -89.5 -222.5t-210.5 -88.5zM346 605l64 125h92l-93 -125
h-63z" />
    <glyph glyph-name="Ograve.smcp" unicode="&#xf396;" horiz-adv-x="648" 
d="M319 59q93 0 155.5 69t62.5 173q0 85 -51 142t-137 57q-93 0 -155.5 -69t-62.5 -174q0 -84 51 -141t137 -57zM317 -10q-115 0 -190 76.5t-75 191.5q0 133 89 222.5t210 89.5q114 0 190 -76.5t76 -192.5q0 -134 -89.5 -222.5t-210.5 -88.5zM353 730l48 -125h-63l-77 125
h92z" />
    <glyph glyph-name="Otilde.smcp" unicode="&#xf397;" horiz-adv-x="648" 
d="M319 59q93 0 155.5 69t62.5 173q0 85 -51 142t-137 57q-93 0 -155.5 -69t-62.5 -174q0 -84 51 -141t137 -57zM317 -10q-115 0 -190 76.5t-75 191.5q0 133 89 222.5t210 89.5q114 0 190 -76.5t76 -192.5q0 -134 -89.5 -222.5t-210.5 -88.5zM437 623q-18 0 -47.5 16
t-37.5 16q-15 0 -22 -23l-2 -7h-59l2 12q13 81 79 81q18 0 49 -16t38 -16q15 0 21 23l2 7h58l-2 -14q-13 -79 -79 -79z" />
    <glyph glyph-name="Racute.smcp" unicode="&#xf398;" horiz-adv-x="509" 
d="M41 0l96 560h165q80 0 128.5 -41.5t48.5 -103.5q0 -57 -35 -104t-114 -64l136 -247h-86l-127 236h-93l-41 -236h-78zM171 304h91q57 0 97 26t40 79q0 38 -29.5 60.5t-77.5 22.5h-89zM274 605l64 125h92l-93 -125h-63z" />
    <glyph glyph-name="Rcaron.smcp" unicode="&#xf399;" horiz-adv-x="509" 
d="M41 0l96 560h165q80 0 128.5 -41.5t48.5 -103.5q0 -57 -35 -104t-114 -64l136 -247h-86l-127 236h-93l-41 -236h-78zM171 304h91q57 0 97 26t40 79q0 38 -29.5 60.5t-77.5 22.5h-89zM314 654l61 76h72l-95 -125h-88l-49 125h66z" />
    <glyph glyph-name="Rcommaaccent.smcp" unicode="&#xf400;" horiz-adv-x="509" 
d="M41 0l96 560h165q80 0 128.5 -41.5t48.5 -103.5q0 -57 -35 -104t-114 -64l136 -247h-86l-127 236h-93l-41 -236h-78zM171 304h91q57 0 97 26t40 79q0 38 -29.5 60.5t-77.5 22.5h-89zM170 -93q0 22 15 37.5t38 15.5q22 0 37 -15.5t15 -36.5q0 -19 -15 -40l-73 -90l-47 8
l52 78q-22 15 -22 43z" />
    <glyph glyph-name="Sacute.smcp" unicode="&#xf401;" horiz-adv-x="431" 
d="M200 -10q-119 0 -192 97l52 55q22 -34 59 -58.5t81 -24.5q46 0 72.5 25t26.5 62q0 24 -17.5 47t-57.5 53l-45 33q-91 67 -91 139q0 71 49.5 111.5t118.5 40.5q51 0 96.5 -23t73.5 -66l-51 -49q-43 69 -118 69q-43 0 -66.5 -23t-23.5 -55q0 -39 51 -77l56 -42
q57 -43 80 -77.5t24 -78.5q0 -68 -49.5 -113t-128.5 -45zM234 605l64 125h92l-93 -125h-63z" />
    <glyph glyph-name="Scaron.smcp" unicode="&#xf402;" horiz-adv-x="431" 
d="M200 -10q-119 0 -192 97l52 55q22 -34 59 -58.5t81 -24.5q46 0 72.5 25t26.5 62q0 24 -17.5 47t-57.5 53l-45 33q-91 67 -91 139q0 71 49.5 111.5t118.5 40.5q51 0 96.5 -23t73.5 -66l-51 -49q-43 69 -118 69q-43 0 -66.5 -23t-23.5 -55q0 -39 51 -77l56 -42
q57 -43 80 -77.5t24 -78.5q0 -68 -49.5 -113t-128.5 -45zM283 654l61 76h72l-95 -125h-88l-49 125h66z" />
    <glyph glyph-name="Scedilla.smcp" unicode="&#xf403;" horiz-adv-x="432" 
d="M90 -129l57 125q-84 19 -138 91l52 55q22 -34 59 -58.5t81 -24.5q46 0 72.5 25t26.5 62q0 24 -17 47t-58 53l-45 33q-91 67 -91 139q0 71 49.5 111.5t118.5 40.5q51 0 96.5 -23t73.5 -66l-51 -49q-43 69 -118 69q-43 0 -66.5 -23t-23.5 -55q0 -39 51 -77l56 -42
q57 -43 80 -77.5t24 -78.5q0 -63 -42.5 -106.5t-111.5 -50.5l-72 -120h-63z" />
    <glyph glyph-name="Scircumflex.smcp" unicode="&#xf404;" horiz-adv-x="431" 
d="M200 -10q-119 0 -192 97l52 55q22 -34 59 -58.5t81 -24.5q46 0 72.5 25t26.5 62q0 24 -17.5 47t-57.5 53l-45 33q-91 67 -91 139q0 71 49.5 111.5t118.5 40.5q51 0 96.5 -23t73.5 -66l-51 -49q-43 69 -118 69q-43 0 -66.5 -23t-23.5 -55q0 -39 51 -77l56 -42
q57 -43 80 -77.5t24 -78.5q0 -68 -49.5 -113t-128.5 -45zM339 605l-33 76l-61 -76h-73l95 125h88l49 -125h-65z" />
    <glyph glyph-name="Scommaaccent.smcp" unicode="&#xf405;" horiz-adv-x="431" 
d="M200 -10q-119 0 -192 97l52 55q22 -34 59 -58.5t81 -24.5q46 0 72.5 25t26.5 62q0 24 -17.5 47t-57.5 53l-45 33q-91 67 -91 139q0 71 49.5 111.5t118.5 40.5q51 0 96.5 -23t73.5 -66l-51 -49q-43 69 -118 69q-43 0 -66.5 -23t-23.5 -55q0 -39 51 -77l56 -42
q57 -43 80 -77.5t24 -78.5q0 -68 -49.5 -113t-128.5 -45zM103 -93q0 22 15 37.5t38 15.5q22 0 37 -15.5t15 -36.5q0 -19 -15 -40l-73 -90l-47 8l52 78q-22 15 -22 43z" />
    <glyph glyph-name="Tbar.smcp" unicode="&#xf406;" horiz-adv-x="462" 
d="M93 252l11 67h104l30 172h-168l12 69h414l-12 -69h-168l-30 -172h107l-11 -67h-107l-43 -252h-78l43 252h-104z" />
    <glyph glyph-name="Tcaron.smcp" unicode="&#xf407;" horiz-adv-x="452" 
d="M150 0l84 491h-168l12 69h414l-12 -69h-168l-84 -491h-78zM297 654l61 76h72l-95 -125h-88l-49 125h66z" />
    <glyph glyph-name="Thorn.smcp" unicode="&#xf408;" horiz-adv-x="473" 
d="M40 0l97 560h78l-18 -103h71q79 0 130.5 -45.5t51.5 -112.5q0 -87 -57 -139.5t-159 -52.5h-97l-19 -107h-78zM149 174h85q60 0 98.5 29.5t38.5 89.5q0 44 -31.5 70t-81.5 26h-72z" />
    <glyph glyph-name="Uacute.smcp" unicode="&#xf409;" horiz-adv-x="530" 
d="M248 -10q-92 0 -143 59t-35 155l60 356h78l-62 -362q-10 -57 17.5 -98t88.5 -41q52 0 83 34t39 85l66 382h76l-68 -394q-14 -79 -65.5 -127.5t-134.5 -48.5zM293 605l64 125h92l-93 -125h-63z" />
    <glyph glyph-name="Ubreve.smcp" unicode="&#xf410;" horiz-adv-x="530" 
d="M248 -10q-92 0 -143 59t-35 155l60 356h78l-62 -362q-10 -57 17.5 -98t88.5 -41q52 0 83 34t39 85l66 382h76l-68 -394q-14 -79 -65.5 -127.5t-134.5 -48.5zM334 672q43 0 53 49l2 10h60l-3 -17q-8 -48 -40.5 -73.5t-77.5 -25.5t-73 31.5t-16 73.5l3 11h57q-4 -9 -4 -20
q0 -39 39 -39z" />
    <glyph glyph-name="Ucircumflex.smcp" unicode="&#xf411;" horiz-adv-x="530" 
d="M248 -10q-92 0 -143 59t-35 155l60 356h78l-62 -362q-10 -57 17.5 -98t88.5 -41q52 0 83 34t39 85l66 382h76l-68 -394q-14 -79 -65.5 -127.5t-134.5 -48.5zM380 605l-33 76l-61 -76h-73l95 125h88l49 -125h-65z" />
    <glyph glyph-name="Yacute.smcp" unicode="&#xf412;" horiz-adv-x="538" 
d="M190 0l43 246l-159 314h90l115 -243h2l200 243h96l-266 -311l-43 -249h-78zM287 605l64 125h92l-93 -125h-63z" />
    <glyph glyph-name="Zacute.smcp" unicode="&#xf413;" horiz-adv-x="493" 
d="M-3 0l12 66l396 425h-316l12 69h412l-11 -68l-398 -423h324l-12 -69h-419zM256 605l64 125h92l-93 -125h-63z" />
    <glyph glyph-name="Gcommaaccent.smcp" unicode="&#xf414;" horiz-adv-x="632" 
d="M304 -10q-110 0 -180.5 75t-70.5 193q0 134 88 223t209 89q93 0 162.5 -54t88.5 -139h-83q-17 57 -60.5 90t-108.5 33q-93 0 -155.5 -69t-62.5 -173q0 -84 48.5 -142t131.5 -58q73 0 126.5 43t64.5 87h-137l11 66h214l-44 -254h-70l14 81q-27 -38 -76 -64.5t-110 -26.5z
M215 -93q0 22 15 37.5t38 15.5q22 0 37 -15.5t15 -36.5q0 -19 -15 -40l-73 -90l-47 8l52 78q-22 15 -22 43z" />
    <glyph glyph-name="Ohungarumlaut.smcp" unicode="&#xf415;" horiz-adv-x="648" 
d="M319 59q93 0 155.5 69t62.5 173q0 85 -51 142t-137 57q-93 0 -155.5 -69t-62.5 -174q0 -84 51 -141t137 -57zM317 -10q-115 0 -190 76.5t-75 191.5q0 133 89 222.5t210 89.5q114 0 190 -76.5t76 -192.5q0 -134 -89.5 -222.5t-210.5 -88.5zM275 605l65 125h90l-93 -125
h-62zM409 605l65 125h90l-93 -125h-62z" />
    <glyph glyph-name="Uhungarumlaut.smcp" unicode="&#xf416;" horiz-adv-x="530" 
d="M248 -10q-92 0 -143 59t-35 155l60 356h78l-62 -362q-10 -57 17.5 -98t88.5 -41q52 0 83 34t39 85l66 382h76l-68 -394q-14 -79 -65.5 -127.5t-134.5 -48.5zM222 605l65 125h90l-93 -125h-62zM356 605l65 125h90l-93 -125h-62z" />
    <glyph glyph-name="Eng.smcp" unicode="&#xf417;" horiz-adv-x="563" 
d="M257 -139l12 69h34q27 0 40.5 11.5t19.5 43.5l3 15h-10l-160 451l-78 -451h-77l96 560h100l152 -438l76 438h78l-102 -592q-9 -54 -39.5 -80.5t-90.5 -26.5h-54z" />
    <glyph glyph-name="Lcommaaccent.smcp" unicode="&#xf418;" horiz-adv-x="412" 
d="M41 0l96 560h78l-85 -493h239l-12 -67h-316zM127 -93q0 22 15 37.5t38 15.5q22 0 37 -15.5t15 -36.5q0 -19 -15 -40l-73 -90l-47 8l52 78q-22 15 -22 43z" />
    <glyph glyph-name="Imacron.smcp" unicode="&#xf419;" horiz-adv-x="235" 
d="M41 0l96 560h78l-96 -560h-78zM69 639l11 61h227l-11 -61h-227z" />
    <glyph glyph-name="Lcaron.smcp" unicode="&#xf420;" horiz-adv-x="414" 
d="M41 0l96 560h78l-85 -493h239l-12 -67h-316zM323 517q0 22 15 37.5t38 15.5q22 0 37 -15.5t15 -36.5q0 -19 -15 -40l-73 -90l-47 8l52 78q-22 15 -22 43z" />
    <glyph glyph-name="Dcroat.smcp" unicode="&#xf421;" horiz-adv-x="574" 
d="M17 252l12 67h67l42 241h147q119 0 188.5 -68t69.5 -174q0 -143 -87.5 -230.5t-232.5 -87.5h-181l43 252h-68zM131 66h82q113 0 182 66.5t69 185.5q0 83 -53 129.5t-143 46.5h-64l-30 -175h163l-13 -67h-162z" />
    <glyph glyph-name="Eth.smcp" unicode="&#xf422;" horiz-adv-x="574" 
d="M13 252l12 67h72l42 241h146q119 0 188.5 -68t69.5 -174q0 -143 -87.5 -230.5t-232.5 -87.5h-180l43 252h-73zM132 66h81q113 0 182 66.5t69 185.5q0 83 -53 129.5t-143 46.5h-63l-30 -175h158l-13 -67h-157z" />
    <glyph glyph-name="Hbar.smcp" unicode="&#xf423;" horiz-adv-x="568" 
d="M46 401l12 67h69l16 92h78l-16 -92h249l16 92h78l-16 -92h71l-13 -67h-70l-68 -401h-78l43 252h-249l-43 -252h-78l68 401h-69zM180 319h248l14 82h-248z" />
    <glyph glyph-name="Oslash.smcp" unicode="&#xf424;" horiz-adv-x="648" 
d="M317 -10q-97 0 -170 58l-59 -58h-90l105 104q-51 72 -51 164q0 133 89 222.5t210 89.5q96 0 171 -60l61 60h89l-107 -106q52 -69 52 -163q0 -134 -89.5 -222.5t-210.5 -88.5zM131 257q0 -61 27 -109l312 310q-50 42 -121 42q-93 0 -155.5 -69t-62.5 -174zM319 59
q93 0 155.5 69t62.5 173q0 59 -27 108l-312 -309q49 -41 121 -41z" />
    <glyph glyph-name="Ldot.smcp" unicode="&#xf425;" horiz-adv-x="415" 
d="M41 0l96 560h78l-85 -493h239l-12 -67h-316zM405 300q0 -23 -17 -40t-40 -17t-40.5 17t-17.5 40t17.5 40t40.5 17t40 -17t17 -40z" />
    <glyph glyph-name="Lslash.smcp" unicode="&#xf426;" horiz-adv-x="416" 
d="M-6 173l11 64l86 27l51 296h78l-47 -270l169 53l-11 -64l-169 -53l-27 -159h239l-12 -67h-316l34 200z" />
    <glyph glyph-name="Aacute.smcp" unicode="&#xf427;" horiz-adv-x="518" 
d="M-8 0l279 560h95l89 -560h-80l-26 180h-186l-85 -180h-86zM195 247h145l-31 232h-1zM298 605l64 125h92l-93 -125h-63z" />
    <glyph glyph-name="Abreve.smcp" unicode="&#xf428;" horiz-adv-x="518" 
d="M-8 0l279 560h95l89 -560h-80l-26 180h-186l-85 -180h-86zM195 247h145l-31 232h-1zM338 672q43 0 53 49l2 10h60l-3 -17q-8 -48 -40.5 -73.5t-77.5 -25.5t-73 31.5t-16 73.5l3 11h57q-4 -9 -4 -20q0 -39 39 -39z" />
    <glyph glyph-name="Acircumflex.smcp" unicode="&#xf429;" horiz-adv-x="518" 
d="M-8 0l279 560h95l89 -560h-80l-26 180h-186l-85 -180h-86zM195 247h145l-31 232h-1zM370 605l-33 76l-61 -76h-73l95 125h88l49 -125h-65z" />
    <glyph glyph-name="Adieresis.smcp" unicode="&#xf430;" horiz-adv-x="518" 
d="M-8 0l279 560h95l89 -560h-80l-26 180h-186l-85 -180h-86zM195 247h145l-31 232h-1zM212 673q-1 21 15 36t37 15t36.5 -15t16.5 -36q-1 -20 -16.5 -35.5t-36.5 -15.5t-37 15.5t-15 35.5zM344 673q-1 21 14.5 36t37.5 15q21 0 36.5 -15t16.5 -36q-1 -20 -16.5 -35.5
t-36.5 -15.5q-22 0 -37.5 15.5t-14.5 35.5z" />
    <glyph glyph-name="Agrave.smcp" unicode="&#xf431;" horiz-adv-x="518" 
d="M-8 0l279 560h95l89 -560h-80l-26 180h-186l-85 -180h-86zM195 247h145l-31 232h-1zM299 730l48 -125h-63l-77 125h92z" />
    <glyph glyph-name="Eacute.smcp" unicode="&#xf432;" horiz-adv-x="501" 
d="M41 0l96 560h386l-12 -68h-308l-29 -173h194l-12 -67h-194l-32 -185h308l-12 -67h-385zM280 605l64 125h92l-93 -125h-63z" />
    <glyph glyph-name="Ebreve.smcp" unicode="&#xf433;" horiz-adv-x="501" 
d="M41 0l96 560h386l-12 -68h-308l-29 -173h194l-12 -67h-194l-32 -185h308l-12 -67h-385zM327 672q43 0 53 49l2 10h60l-3 -17q-8 -48 -40.5 -73.5t-77.5 -25.5t-73 31.5t-16 73.5l3 11h57q-4 -9 -4 -20q0 -39 39 -39z" />
    <glyph glyph-name="Ecaron.smcp" unicode="&#xf434;" horiz-adv-x="501" 
d="M41 0l96 560h386l-12 -68h-308l-29 -173h194l-12 -67h-194l-32 -185h308l-12 -67h-385zM342 654l61 76h72l-95 -125h-88l-49 125h66z" />
    <glyph glyph-name="Ecircumflex.smcp" unicode="&#xf435;" horiz-adv-x="501" 
d="M41 0l96 560h386l-12 -68h-308l-29 -173h194l-12 -67h-194l-32 -185h308l-12 -67h-385zM384 605l-33 76l-61 -76h-73l95 125h88l49 -125h-65z" />
    <glyph glyph-name="Edieresis.smcp" unicode="&#xf436;" horiz-adv-x="501" 
d="M41 0l96 560h386l-12 -68h-308l-29 -173h194l-12 -67h-194l-32 -185h308l-12 -67h-385zM219 673q-1 21 15 36t37 15t36.5 -15t16.5 -36q-1 -20 -16.5 -35.5t-36.5 -15.5t-37 15.5t-15 35.5zM351 673q-1 21 14.5 36t37.5 15q21 0 36.5 -15t16.5 -36q-1 -20 -16.5 -35.5
t-36.5 -15.5q-22 0 -37.5 15.5t-14.5 35.5z" />
    <glyph glyph-name="Edotaccent.smcp" unicode="&#xf437;" horiz-adv-x="501" 
d="M41 0l96 560h386l-12 -68h-308l-29 -173h194l-12 -67h-194l-32 -185h308l-12 -67h-385zM285 673q-1 21 15 36t37 15t36.5 -15t16.5 -36q-1 -20 -16.5 -35.5t-36.5 -15.5t-37 15.5t-15 35.5z" />
    <glyph glyph-name="Egrave.smcp" unicode="&#xf438;" horiz-adv-x="501" 
d="M41 0l96 560h386l-12 -68h-308l-29 -173h194l-12 -67h-194l-32 -185h308l-12 -67h-385zM311 730l48 -125h-63l-77 125h92z" />
    <glyph glyph-name="Emacron.smcp" unicode="&#xf439;" horiz-adv-x="501" 
d="M41 0l96 560h386l-12 -68h-308l-29 -173h194l-12 -67h-194l-32 -185h308l-12 -67h-385zM219 639l11 61h227l-11 -61h-227z" />
    <glyph glyph-name="Eogonek.smcp" unicode="&#xf440;" horiz-adv-x="501" 
d="M41 0l96 560h386l-12 -68h-308l-29 -173h194l-12 -67h-194l-32 -185h308l-12 -67h-70q-68 -35 -68 -72q0 -14 12.5 -22t28.5 -8q32 0 47 7l-8 -44q-24 -12 -66 -12q-37 0 -59.5 17.5t-22.5 43.5q0 60 80 90h-259z" />
    <glyph glyph-name="Udieresis.smcp" unicode="&#xf441;" horiz-adv-x="530" 
d="M248 -10q-92 0 -143 59t-35 155l60 356h78l-62 -362q-10 -57 17.5 -98t88.5 -41q52 0 83 34t39 85l66 382h76l-68 -394q-14 -79 -65.5 -127.5t-134.5 -48.5zM210 673q-1 21 15 36t37 15t36.5 -15t16.5 -36q-1 -20 -16.5 -35.5t-36.5 -15.5t-37 15.5t-15 35.5zM342 673
q-1 21 14.5 36t37.5 15q21 0 36.5 -15t16.5 -36q-1 -20 -16.5 -35.5t-36.5 -15.5q-22 0 -37.5 15.5t-14.5 35.5z" />
    <glyph glyph-name="Ugrave.smcp" unicode="&#xf442;" horiz-adv-x="530" 
d="M248 -10q-92 0 -143 59t-35 155l60 356h78l-62 -362q-10 -57 17.5 -98t88.5 -41q52 0 83 34t39 85l66 382h76l-68 -394q-14 -79 -65.5 -127.5t-134.5 -48.5zM307 730l48 -125h-63l-77 125h92z" />
    <glyph glyph-name="Umacron.smcp" unicode="&#xf443;" horiz-adv-x="530" 
d="M248 -10q-92 0 -143 59t-35 155l60 356h78l-62 -362q-10 -57 17.5 -98t88.5 -41q52 0 83 34t39 85l66 382h76l-68 -394q-14 -79 -65.5 -127.5t-134.5 -48.5zM222 639l11 61h227l-11 -61h-227z" />
    <glyph glyph-name="Uogonek.smcp" unicode="&#xf444;" horiz-adv-x="531" 
d="M249 -10q-50 -30 -50 -62q0 -14 12.5 -22t28.5 -8q32 0 47 7l-8 -44q-24 -12 -66 -12q-37 0 -59.5 17.5t-22.5 43.5q0 54 68 85q-70 15 -106 71t-22 138l60 356h78l-62 -362q-10 -57 17.5 -98t88.5 -41q52 0 83 34t39 85l66 382h76l-68 -394q-14 -79 -65.5 -127.5
t-134.5 -48.5z" />
    <glyph glyph-name="Uring.smcp" unicode="&#xf445;" horiz-adv-x="530" 
d="M248 -10q-92 0 -143 59t-35 155l60 356h78l-62 -362q-10 -57 17.5 -98t88.5 -41q52 0 83 34t39 85l66 382h76l-68 -394q-14 -79 -65.5 -127.5t-134.5 -48.5zM338 591q-38 0 -64.5 25.5t-26.5 62.5q0 38 26.5 62.5t64.5 24.5q37 0 63.5 -24.5t26.5 -62.5
q0 -37 -26.5 -62.5t-63.5 -25.5zM338 634q18 0 29.5 13t11.5 32t-11.5 31.5t-29.5 12.5q-19 0 -31 -12.5t-12 -31.5t12 -32t31 -13z" />
    <glyph glyph-name="Obreve.smcp" unicode="&#xf446;" horiz-adv-x="648" 
d="M319 59q93 0 155.5 69t62.5 173q0 85 -51 142t-137 57q-93 0 -155.5 -69t-62.5 -174q0 -84 51 -141t137 -57zM317 -10q-115 0 -190 76.5t-75 191.5q0 133 89 222.5t210 89.5q114 0 190 -76.5t76 -192.5q0 -134 -89.5 -222.5t-210.5 -88.5zM383 672q43 0 53 49l2 10h60
l-3 -17q-8 -48 -40.5 -73.5t-77.5 -25.5t-73 31.5t-16 73.5l3 11h57q-4 -9 -4 -20q0 -39 39 -39z" />
    <glyph glyph-name="Ocircumflex.smcp" unicode="&#xf447;" horiz-adv-x="648" 
d="M319 59q93 0 155.5 69t62.5 173q0 85 -51 142t-137 57q-93 0 -155.5 -69t-62.5 -174q0 -84 51 -141t137 -57zM317 -10q-115 0 -190 76.5t-75 191.5q0 133 89 222.5t210 89.5q114 0 190 -76.5t76 -192.5q0 -134 -89.5 -222.5t-210.5 -88.5zM425 605l-33 76l-61 -76h-73
l95 125h88l49 -125h-65z" />
    <glyph glyph-name="Odieresis.smcp" unicode="&#xf448;" horiz-adv-x="648" 
d="M319 59q93 0 155.5 69t62.5 173q0 85 -51 142t-137 57q-93 0 -155.5 -69t-62.5 -174q0 -84 51 -141t137 -57zM317 -10q-115 0 -190 76.5t-75 191.5q0 133 89 222.5t210 89.5q114 0 190 -76.5t76 -192.5q0 -134 -89.5 -222.5t-210.5 -88.5zM265 673q-1 21 15 36t37 15
t36.5 -15t16.5 -36q-1 -20 -16.5 -35.5t-36.5 -15.5t-37 15.5t-15 35.5zM397 673q-1 21 14.5 36t37.5 15q21 0 36.5 -15t16.5 -36q-1 -20 -16.5 -35.5t-36.5 -15.5q-22 0 -37.5 15.5t-14.5 35.5z" />
    <glyph glyph-name="Omacron.smcp" unicode="&#xf449;" horiz-adv-x="648" 
d="M319 59q93 0 155.5 69t62.5 173q0 85 -51 142t-137 57q-93 0 -155.5 -69t-62.5 -174q0 -84 51 -141t137 -57zM317 -10q-115 0 -190 76.5t-75 191.5q0 133 89 222.5t210 89.5q114 0 190 -76.5t76 -192.5q0 -134 -89.5 -222.5t-210.5 -88.5zM275 639l11 61h227l-11 -61
h-227z" />
    <glyph glyph-name="Utilde.smcp" unicode="&#xf450;" horiz-adv-x="530" 
d="M248 -10q-92 0 -143 59t-35 155l60 356h78l-62 -362q-10 -57 17.5 -98t88.5 -41q52 0 83 34t39 85l66 382h76l-68 -394q-14 -79 -65.5 -127.5t-134.5 -48.5zM384 623q-18 0 -47.5 16t-37.5 16q-15 0 -22 -23l-2 -7h-59l2 12q14 81 79 81q18 0 49 -16t38 -16q15 0 21 23
l2 7h58l-2 -14q-13 -79 -79 -79z" />
    <glyph glyph-name="Wcircumflex.smcp" unicode="&#xf451;" horiz-adv-x="772" 
d="M104 0l-10 560h78l3 -464l228 464h92l16 -464h1l206 464h83l-260 -560h-99l-14 466l-228 -466h-96zM501 605l-33 76l-61 -76h-73l95 125h88l49 -125h-65z" />
    <glyph glyph-name="Ycircumflex.smcp" unicode="&#xf452;" horiz-adv-x="538" 
d="M190 0l43 246l-159 314h90l115 -243h2l200 243h96l-266 -311l-43 -249h-78zM380 605l-33 76l-61 -76h-73l95 125h88l49 -125h-65z" />
    <glyph glyph-name="Ydieresis.smcp" unicode="&#xf453;" horiz-adv-x="538" 
d="M190 0l43 246l-159 314h90l115 -243h2l200 243h96l-266 -311l-43 -249h-78zM213 673q-1 21 15 36t37 15t36.5 -15t16.5 -36q-1 -20 -16.5 -35.5t-36.5 -15.5t-37 15.5t-15 35.5zM345 673q-1 21 14.5 36t37.5 15q21 0 36.5 -15t16.5 -36q-1 -20 -16.5 -35.5t-36.5 -15.5
q-22 0 -37.5 15.5t-14.5 35.5z" />
    <glyph glyph-name="Zdotaccent.smcp" unicode="&#xf454;" horiz-adv-x="493" 
d="M-3 0l12 66l396 425h-316l12 69h412l-11 -68l-398 -423h324l-12 -69h-419zM253 673q-1 21 15 36t37 15t36.5 -15t16.5 -36q-1 -20 -16.5 -35.5t-36.5 -15.5t-37 15.5t-15 35.5z" />
    <glyph glyph-name="Zcaron.smcp" unicode="&#xf455;" horiz-adv-x="493" 
d="M-3 0l12 66l396 425h-316l12 69h412l-11 -68l-398 -423h324l-12 -69h-419zM319 654l61 76h72l-95 -125h-88l-49 125h66z" />
    <glyph glyph-name="greater.alt" unicode="&#xf456;" horiz-adv-x="547" 
d="M62 164l16 87l343 106l-306 106l14 81l407 -153l-13 -74z" />
    <glyph glyph-name="less.alt" unicode="&#xf457;" horiz-adv-x="549" 
d="M482 251l-15 -81l-407 153l13 74l461 153l-15 -87l-342 -106z" />
    <glyph glyph-name="guilsinglleft.smcp" unicode="&#xf610;" horiz-adv-x="289" 
d="M127 155l-63 131l102 124h83l-103 -130l53 -125h-72z" />
    <glyph glyph-name="guillemotleft.smcp" unicode="&#xf611;" horiz-adv-x="426" 
d="M126 155l-62 131l101 124h84l-103 -130l53 -125h-73zM263 155l-62 131l102 124h83l-103 -130l53 -125h-73z" />
    <glyph glyph-name="guillemotright.smcp" unicode="&#xf612;" horiz-adv-x="427" 
d="M62 155l103 130l-53 125h72l63 -130l-102 -125h-83zM199 155l103 130l-53 125h73l62 -130l-101 -125h-84z" />
    <glyph glyph-name="guilsinglright.smcp" unicode="&#xf613;" horiz-adv-x="290" 
d="M62 155l103 130l-53 125h72l63 -130l-102 -125h-83z" />
    <glyph glyph-name="plus.smcp" unicode="&#xf615;" horiz-adv-x="424" 
d="M156 113l24 139h-138l12 67h138l25 140h73l-25 -140h139l-12 -67h-139l-25 -139h-72z" />
    <glyph glyph-name="minus.smcp" unicode="&#xf616;" horiz-adv-x="424" 
d="M43 252l11 67h350l-11 -67h-350z" />
    <glyph glyph-name="equal.smcp" unicode="&#xf617;" horiz-adv-x="424" 
d="M28 173l11 67h351l-12 -67h-350zM55 331l12 67h350l-12 -67h-350z" />
    <glyph glyph-name="commaaccent.smcp" unicode="&#xf668;" horiz-adv-x="350" 
d="M57 -93q0 22 15 37.5t38 15.5q22 0 37 -15.5t15 -36.5q0 -19 -15 -40l-73 -90l-47 8l52 78q-22 15 -22 43z" />
    <glyph glyph-name="cent.smcp" unicode="&#xf685;" horiz-adv-x="428" 
d="M228 95q-17 0 -25 1l-30 -96h-62l35 113q-42 22 -66.5 63.5t-24.5 94.5q0 84 54.5 143.5t136.5 59.5h11l27 86h62l-31 -98q58 -21 85 -77l-66 -33q-15 30 -39 43l-72 -234h8q62 0 94 56l64 -35q-57 -87 -161 -87zM130 268q0 -57 37 -86l69 224q-46 -5 -76 -44t-30 -94z
" />
    <glyph glyph-name="dollar.smcp" unicode="&#xf686;" horiz-adv-x="436" 
d="M202 -10q-10 0 -26 2l-20 -66h-62l24 79q-63 23 -108 82l52 55q27 -45 77 -69l60 193l-18 13q-91 67 -91 139q0 71 49.5 111.5t118.5 40.5q16 0 33 -3l18 57h62l-23 -74q51 -24 80 -69l-51 -49q-20 32 -50 50l-54 -176l3 -2q57 -43 80 -77.5t24 -78.5q0 -68 -49.5 -113
t-128.5 -45zM301 146q0 38 -52 82l-52 -169h5q46 0 72.5 25t26.5 62zM169 423q0 -39 51 -77l3 -2l48 156q-4 1 -12 1q-43 0 -66.5 -23t-23.5 -55z" />
    </font>
</defs>
</svg>
