<?xml version="1.0" standalone="no"?>
<!DOCTYPE svg PUBLIC "-//W3C//DTD SVG 1.1//EN" "http://www.w3.org/Graphics/SVG/1.1/DTD/svg11.dtd" >
<svg xmlns="http://www.w3.org/2000/svg" xmlns:xlink="http://www.w3.org/1999/xlink" version="1.1">
<metadata>
Created by FontForge 20170731 at Thu May 26 20:57:09 2016
 By Aleksey,,,
Copyright (c) 2012 by Henrik Kubel, A2/SW/HK + A2-TYPE. All rights reserved.
</metadata>
<defs>
<font id="Regular-RegularItalic" horiz-adv-x="430" >
  <font-face 
    font-family="Regular Regular Italic"
    font-weight="540"
    font-style="italic"
    font-stretch="normal"
    units-per-em="1000"
    panose-1="2 0 5 3 4 0 0 9 0 3"
    ascent="750"
    descent="-250"
    x-height="441"
    cap-height="700"
    bbox="-281 -272 1193 966"
    underline-thickness="51"
    underline-position="-350"
    slope="-12"
    unicode-range="U+0020-FB06"
  />
<missing-glyph horiz-adv-x="500" 
d="M292 141v61h17q14 0 14 -18v-26q0 -17 -14 -17h-17zM460 373v20q0 24 -23 24h-9q-24 0 -24 -24v-20q0 -24 24 -24h9q23 0 23 24zM65 202v-160h28v160h30v26h-88v-26h30zM205 107l32 121h-29l-17 -77l-20 77h-30l33 -121v-65h31v65zM380 228v-186h85v27h-55v54h32v27h-32
v52h55v26h-85zM264 228v-186h28v71h24q16 0 26 11.5t10 29.5v33q0 19 -10 30t-26 11h-52zM355 365l79 105q26 33 26 81v16q0 40 -25.5 66t-61.5 26h-17q-36 0 -62 -26t-26 -66v-50h62v42q0 40 33 40h3q31 0 31 -40v-7q-1 -30 -21 -57l-78 -104q-29 -38 -29 -78v-43h192v61
h-122v4q0 9 16 30zM170 347l8 -77h66l-43 387h-118l-43 -387h65l7 77h58zM415 374v18q0 15 14 15h6q14 0 14 -15v-4h-11v1q0 8 -6 8t-6 -8v-12q0 -8 6 -8t6 8v1h11v-4q0 -15 -14 -15h-6q-14 0 -14 15zM0 29v642q0 12 8 20.5t20 8.5h445q11 0 19 -8.5t8 -20.5v-642
q0 -12 -8 -20.5t-19 -8.5h-445q-12 0 -20 8.5t-8 20.5zM146 604l18 -196h-46l18 196h10z" />
    <glyph glyph-name="f_j" unicode="fj" horiz-adv-x="478" 
d="M295 -82l82 472h-193l-68 -390h-60l68 390h-75l10 51h74l28 158q18 105 110 105l66 -4l-9 -53q-26 5 -42 5q-30 0 -46 -14t-21 -46l-25 -151h253l-92 -528q-9 -50 -35.5 -69t-68.5 -19h-61l9 50h42q24 0 37 9.5t17 33.5zM387 601q0 22 15 37t37 15t37.5 -15t15.5 -37
t-15.5 -37.5t-37.5 -15.5t-37 15.5t-15 37.5z" />
    <glyph glyph-name="f_i" unicode="fi" horiz-adv-x="477" 
d="M447 441l-77 -441h-60l68 390h-194l-68 -390h-60l68 390h-75l10 51h74l28 158q18 105 110 105l66 -4l-9 -53q-26 5 -42 5q-30 0 -46 -14t-21 -46l-25 -151h253zM387 601q0 22 15.5 37t37.5 15t37 -15t15 -37t-15 -37.5t-37 -15.5t-37.5 15.5t-15.5 37.5z" />
    <glyph glyph-name="f_f_f" unicode="fff" horiz-adv-x="781" 
d="M641 441l28 158q18 105 110 105l66 -4l-9 -53q-26 5 -42 5q-30 0 -46 -14t-21 -46l-25 -151h89l-9 -51h-90l-68 -390h-60l68 390h-194l-68 -390h-60l68 390h-194l-68 -390h-60l68 390h-75l10 51h74l28 158q18 105 110 105l66 -4l-9 -53q-26 5 -42 5q-30 0 -46 -14
t-21 -46l-25 -151h193l28 158q18 105 110 105l66 -4l-9 -53q-26 5 -42 5q-30 0 -46 -14t-21 -46l-25 -151h193z" />
    <glyph glyph-name="f_f" unicode="ff" horiz-adv-x="527" 
d="M133 441l28 158q18 105 110 105l66 -4l-9 -53q-26 5 -42 5q-30 0 -46 -14t-21 -46l-25 -151h193l28 158q18 105 110 105l66 -4l-9 -53q-26 5 -42 5q-30 0 -46 -14t-21 -46l-25 -151h89l-9 -51h-90l-68 -390h-60l68 390h-194l-68 -390h-60l68 390h-75l10 51h74z" />
    <glyph glyph-name=".notdef" horiz-adv-x="500" 
d="M292 141v61h17q14 0 14 -18v-26q0 -17 -14 -17h-17zM460 373v20q0 24 -23 24h-9q-24 0 -24 -24v-20q0 -24 24 -24h9q23 0 23 24zM65 202v-160h28v160h30v26h-88v-26h30zM205 107l32 121h-29l-17 -77l-20 77h-30l33 -121v-65h31v65zM380 228v-186h85v27h-55v54h32v27h-32
v52h55v26h-85zM264 228v-186h28v71h24q16 0 26 11.5t10 29.5v33q0 19 -10 30t-26 11h-52zM355 365l79 105q26 33 26 81v16q0 40 -25.5 66t-61.5 26h-17q-36 0 -62 -26t-26 -66v-50h62v42q0 40 33 40h3q31 0 31 -40v-7q-1 -30 -21 -57l-78 -104q-29 -38 -29 -78v-43h192v61
h-122v4q0 9 16 30zM170 347l8 -77h66l-43 387h-118l-43 -387h65l7 77h58zM415 374v18q0 15 14 15h6q14 0 14 -15v-4h-11v1q0 8 -6 8t-6 -8v-12q0 -8 6 -8t6 8v1h11v-4q0 -15 -14 -15h-6q-14 0 -14 15zM0 29v642q0 12 8 20.5t20 8.5h445q11 0 19 -8.5t8 -20.5v-642
q0 -12 -8 -20.5t-19 -8.5h-445q-12 0 -20 8.5t-8 20.5zM146 604l18 -196h-46l18 196h10z" />
    <glyph glyph-name=".null" horiz-adv-x="0" 
 />
    <glyph glyph-name="nonmarkingreturn" horiz-adv-x="333" 
 />
    <glyph glyph-name="space" unicode=" " horiz-adv-x="200" 
 />
    <glyph glyph-name="exclam" unicode="!" horiz-adv-x="251" 
d="M151 223h-57l78 477h66zM35 48q0 25 17.5 43t42.5 18t43 -17.5t18 -43.5q0 -25 -18 -42.5t-43 -17.5t-42.5 17.5t-17.5 42.5z" />
    <glyph glyph-name="quotedbl" unicode="&#x22;" horiz-adv-x="349" 
d="M110 449l43 251h62l-44 -251h-61zM259 449l43 251h62l-44 -251h-61z" />
    <glyph glyph-name="numbersign" unicode="#" horiz-adv-x="526" 
d="M94 436l9 54h87l26 146h56l-26 -146h126l26 146h56l-25 -146h88l-9 -54h-88l-24 -133h88l-9 -55h-88l-26 -145h-56l25 145h-125l-26 -145h-56l25 145h-87l9 55h87l24 133h-87zM237 436l-24 -133h126l24 133h-126z" />
    <glyph glyph-name="dollar" unicode="$" horiz-adv-x="505" 
d="M519 616l-39 -37q-35 41 -85 64l-79 -268l9 -6q70 -52 98.5 -96.5t28.5 -97.5q0 -78 -57.5 -132.5t-153.5 -54.5q-20 0 -38 3l-24 -84h-54l28 94q-88 28 -137 95l38 43q43 -62 114 -86l87 294l-30 22q-109 79 -109 166q0 84 58.5 130.5t140.5 46.5q21 0 46 -5l22 73h52
l-25 -86q66 -26 109 -78zM391 174q0 70 -93 141l-80 -273q4 0 11.5 -0.5t11.5 -0.5q68 0 109 39t41 94zM178 540q0 -61 80 -121l15 -11l73 248q-15 3 -30 3q-62 0 -100 -32.5t-38 -86.5z" />
    <glyph glyph-name="percent" unicode="%" horiz-adv-x="744" 
d="M101 564q0 61 42.5 104.5t103.5 43.5t104 -43.5t43 -104.5q0 -60 -43 -103t-104 -43t-103.5 43t-42.5 103zM157 564q0 -38 26.5 -66.5t63.5 -28.5t64 28.5t27 66.5q0 40 -26.5 68t-64.5 28q-37 0 -63.5 -28t-26.5 -68zM690 134q0 -60 -43 -103t-104 -43q-60 0 -103.5 43
t-43.5 103q0 61 43.5 104.5t103.5 43.5q61 0 104 -43.5t43 -104.5zM634 134q0 40 -26.5 68t-64.5 28q-37 0 -63.5 -28t-26.5 -68q0 -38 26.5 -66.5t63.5 -28.5t64 28.5t27 66.5zM699 548l-586 -449l-31 42l585 449z" />
    <glyph glyph-name="ampersand" unicode="&#x26;" horiz-adv-x="625" 
d="M39 162q0 69 40.5 122.5t123.5 109.5q-49 73 -49 141q0 81 50 129t125 48q70 0 114.5 -41t44.5 -100q0 -56 -34 -103l-55 19q27 33 27 80q0 41 -28 65.5t-68 24.5q-50 0 -81 -31.5t-31 -87.5q0 -61 53 -135l159 -216q60 90 91 181h70q-57 -134 -124 -228l107 -135l-1 -5
h-76l-70 91q-86 -103 -200 -103q-82 0 -135 49t-53 125zM392 138l-159 211q-62 -47 -96 -91t-34 -96q0 -54 36.5 -86t85.5 -32q47 0 84.5 22t82.5 72z" />
    <glyph glyph-name="quotesingle" unicode="'" horiz-adv-x="200" 
d="M110 449l43 251h62l-44 -251h-61z" />
    <glyph glyph-name="parenleft" unicode="(" horiz-adv-x="305" 
d="M49 206q0 140 68.5 268.5t182.5 225.5h61l-3 -15q-247 -223 -247 -483q0 -183 103 -341l-3 -13h-53q-109 176 -109 358z" />
    <glyph glyph-name="parenright" unicode=")" horiz-adv-x="306" 
d="M275 342q0 -140 -68.5 -268.5t-182.5 -225.5h-61l3 15q247 223 247 483q0 183 -103 341l3 13h53q109 -176 109 -358z" />
    <glyph glyph-name="asterisk" unicode="*" horiz-adv-x="510" 
d="M282 454l21 -3q11 -114 6 -148q-3 -16 -17.5 -26t-30.5 -7q-17 3 -27.5 17t-7.5 31q6 33 56 136zM414 350q-14 11 -95 108l14 19q103 -39 132 -61q13 -11 15.5 -27.5t-7.5 -30.5q-11 -14 -28 -16.5t-31 8.5zM143 398q-17 -5 -32 2.5t-20 24.5q-5 16 3.5 31.5t23.5 20.5
q24 8 144 12l8 -22q-113 -65 -127 -69zM316 525l-21 3q-11 114 -6 148q3 16 17.5 26t32.5 6q16 -2 26 -16.5t7 -30.5q-6 -33 -56 -136zM455 581q17 5 32 -2.5t20 -24.5q5 -16 -3 -31.5t-24 -20.5q-40 -12 -144 -12l-8 22q6 3 27.5 16t37 22t34 18.5t28.5 12.5zM184 629
q8 -6 22.5 -21.5t26 -29.5t27.5 -33.5t19 -23.5l-14 -19q-110 43 -132 61q-13 10 -15.5 27t7.5 31q11 14 28 16.5t31 -8.5z" />
    <glyph glyph-name="plus" unicode="+" horiz-adv-x="480" 
d="M328 561l-32 -181h182l-9 -53h-182l-32 -183h-57l32 183h-181l9 53h181l32 181h57z" />
    <glyph glyph-name="comma" unicode="," horiz-adv-x="248" 
d="M35 48q0 25 17.5 43t43.5 18q25 0 42.5 -17.5t17.5 -41.5t-18 -48l-86 -107l-51 9l61 92q-27 17 -27 52z" />
    <glyph glyph-name="hyphen" unicode="-" horiz-adv-x="250" 
d="M25 252l9 51h209l-9 -51h-209z" />
    <glyph glyph-name="period" unicode="." horiz-adv-x="247" 
d="M34 48q0 25 17.5 43t42.5 18q26 0 43.5 -17.5t17.5 -43.5q0 -25 -18 -42.5t-43 -17.5t-42.5 17.5t-17.5 42.5z" />
    <glyph glyph-name="slash" unicode="/" horiz-adv-x="382" 
d="M8 0l355 700h57l-354 -700h-58z" />
    <glyph glyph-name="zero" unicode="0" horiz-adv-x="491" 
d="M314 712q165 0 165 -219q0 -59 -17 -159q-60 -346 -241 -346q-165 0 -165 219q0 57 17 161q60 344 241 344zM136 362q-18 -93 -18 -159q0 -162 105 -162q124 0 179 298q17 93 17 157q0 162 -107 162q-124 0 -176 -296z" />
    <glyph glyph-name="one" unicode="1" horiz-adv-x="491" 
d="M164 644l9 56h201l-114 -645h139l-10 -55h-338l10 55h137l105 589h-139z" />
    <glyph glyph-name="two" unicode="2" horiz-adv-x="491" 
d="M295 236l-210 -181h332l-10 -55h-408l11 58l242 210q105 92 146.5 150.5t41.5 119.5q0 53 -36.5 87t-97.5 34q-58 0 -99 -36.5t-41 -101.5q0 -24 8 -54l-57 -8q-10 29 -10 64q0 85 57 137t145 52q86 0 139 -49.5t53 -121.5q0 -69 -39.5 -132.5t-166.5 -172.5z" />
    <glyph glyph-name="three" unicode="3" horiz-adv-x="491" 
d="M41 220h62q-7 -32 -7 -53q0 -55 31.5 -91t96.5 -36q72 0 113 58.5t41 137.5q0 67 -43 99.5t-116 32.5q-12 0 -28 -2l9 51l238 227h-299l12 56h364l-12 -62l-235 -224q75 0 122.5 -50.5t47.5 -124.5q0 -104 -57 -177.5t-157 -73.5q-90 0 -139.5 49.5t-49.5 129.5
q0 21 6 53z" />
    <glyph glyph-name="four" unicode="4" horiz-adv-x="491" 
d="M19 221l10 53l323 426h100l-76 -426h103l-10 -53h-102l-40 -221h-62l39 221h-285zM382 657l-290 -383h222z" />
    <glyph glyph-name="five" unicode="5" horiz-adv-x="491" 
d="M223 -12q-90 0 -138 49.5t-48 129.5q0 21 6 53h62q-7 -32 -7 -53q0 -55 31.5 -91t96.5 -36q73 0 116 64t43 158q0 62 -32 98t-100 36q-57 0 -103 -38l-51 7l66 335h338l-9 -56h-286l-45 -224h1q43 28 103 28q87 0 133 -52t46 -137q0 -116 -62.5 -193.5t-160.5 -77.5z" />
    <glyph glyph-name="six" unicode="6" horiz-adv-x="491" 
d="M350 700h83q-187 -163 -280 -317l2 -1q51 48 126 48q73 0 126 -50t53 -139q0 -115 -63.5 -184t-159.5 -69q-87 0 -140 55t-53 145q0 73 29 150t79 144.5t97 118.5t101 99zM264 379q-72 0 -115 -58.5t-43 -138.5q0 -62 33.5 -102t99.5 -40q72 0 116 57t44 138
q0 63 -33.5 103.5t-101.5 40.5z" />
    <glyph glyph-name="seven" unicode="7" horiz-adv-x="491" 
d="M177 0h-74l350 644h-341l11 56h405l-9 -55z" />
    <glyph glyph-name="eight" unicode="8" horiz-adv-x="491" 
d="M89 171q0 -57 37.5 -94.5t104.5 -37.5q71 0 115 48t44 112q0 56 -37 94t-106 38q-67 0 -112.5 -47.5t-45.5 -112.5zM306 712q81 0 134 -45.5t53 -124.5q0 -67 -36 -119t-100 -72q43 -20 69 -61.5t26 -90.5q0 -95 -65 -153t-156 -58t-147 49.5t-56 129.5q0 72 43 126.5
t109 74.5q-36 20 -57.5 58t-21.5 80q0 90 59.5 148t145.5 58zM290 382q67 0 106.5 46t39.5 113q0 53 -35 85.5t-96 32.5q-68 0 -106.5 -45.5t-38.5 -112.5q0 -53 34.5 -86t95.5 -33z" />
    <glyph glyph-name="nine" unicode="9" horiz-adv-x="491" 
d="M186 0h-83q187 163 280 316l-2 2q-49 -48 -126 -48q-73 0 -126 49.5t-53 138.5q0 115 63.5 184.5t159.5 69.5q87 0 140 -55.5t53 -144.5q0 -73 -29 -150t-79 -144.5t-97 -118.5t-101 -99zM272 321q73 0 115.5 58t42.5 139q0 61 -33.5 101t-99.5 40q-72 0 -116 -56.5
t-44 -137.5q0 -64 33.5 -104t101.5 -40z" />
    <glyph glyph-name="colon" unicode=":" horiz-adv-x="252" 
d="M37 48q0 25 17.5 43t42.5 18t43 -17.5t18 -43.5q0 -25 -18 -42.5t-43 -17.5t-42.5 17.5t-17.5 42.5zM92 380q0 25 17.5 43t42.5 18q26 0 43.5 -17.5t17.5 -43.5q0 -25 -18 -42.5t-43 -17.5t-42.5 17.5t-17.5 42.5z" />
    <glyph glyph-name="semicolon" unicode=";" horiz-adv-x="257" 
d="M40 48q0 25 17.5 43t43.5 18q24 0 42 -17.5t18 -41.5q0 -26 -18 -48l-86 -107l-51 9l61 92q-27 17 -27 52zM92 380q0 25 17.5 43t42.5 18q26 0 43.5 -17.5t17.5 -43.5q0 -25 -18 -42.5t-43 -17.5t-42.5 17.5t-17.5 42.5z" />
    <glyph glyph-name="less" unicode="&#x3c;" horiz-adv-x="573" 
d="M543 387l-8 -54h-376l149 -175l-43 -38l-206 245l272 236l36 -42l-198 -172h374z" />
    <glyph glyph-name="equal" unicode="=" horiz-adv-x="480" 
d="M462 300l-9 -53h-420l9 53h420zM490 460l-9 -53h-420l9 53h420z" />
    <glyph glyph-name="greater" unicode="&#x3e;" horiz-adv-x="573" 
d="M78 333l8 54h376l-149 176l43 38l206 -246l-272 -235l-36 42l198 171h-374z" />
    <glyph glyph-name="question" unicode="?" horiz-adv-x="462" 
d="M478 544q0 -88 -54.5 -146t-150.5 -67l-39 -139h-51l35 188h6q91 2 142.5 43.5t51.5 118.5q0 53 -34.5 84t-88.5 31q-120 0 -144 -143l-1 -6h-61q12 96 66.5 150t139.5 54q80 0 131.5 -45t51.5 -123zM127 48q0 25 17.5 43t42.5 18t43 -17.5t18 -43.5q0 -25 -18 -42.5
t-43 -17.5t-42.5 17.5t-17.5 42.5z" />
    <glyph glyph-name="at" unicode="@" horiz-adv-x="907" 
d="M587 72q-26 -37 -70.5 -60.5t-94.5 -23.5q-89 0 -145 59.5t-56 149.5q0 110 69 183t164 73q58 0 106 -30.5t67 -84.5l18 103h60l-55 -319q-7 -19 -4 -51.5t29 -32.5q60 0 102 71.5t42 173.5q0 127 -93.5 214t-232.5 87q-99 0 -186.5 -48.5t-144 -142t-56.5 -211.5
q0 -144 97 -236t244 -92q112 0 180 48l83 -12q-115 -87 -262 -87q-176 0 -288 107t-112 268q0 198 128 327t319 129q155 0 266.5 -100t111.5 -251q0 -137 -61 -216t-142 -79q-45 0 -64 25t-19 59zM280 199q0 -67 40.5 -112.5t109.5 -45.5q74 0 126.5 58t52.5 142
q0 68 -41.5 113t-109.5 45q-75 0 -126.5 -58.5t-51.5 -141.5z" />
    <glyph glyph-name="A" unicode="A" horiz-adv-x="598" 
d="M435 247h-258l-122 -247h-62l353 700h73l116 -700h-60zM372 639l-169 -338h224l-52 338h-3z" />
    <glyph glyph-name="B" unicode="B" horiz-adv-x="536" 
d="M508 547q0 -64 -37.5 -111.5t-102.5 -64.5q57 -17 90 -59.5t33 -100.5q0 -94 -69.5 -152.5t-185.5 -58.5h-184l121 700h150q87 0 136 -45t49 -108zM173 342l-50 -288h96q91 0 150 37.5t59 117.5q0 64 -44.5 98.5t-110.5 34.5h-100zM314 646h-88l-43 -250h82
q74 0 126.5 34.5t52.5 107.5q0 52 -36.5 80t-93.5 28z" />
    <glyph glyph-name="C" unicode="C" horiz-adv-x="756" 
d="M749 479h-64q-24 82 -87.5 130t-157.5 48q-127 0 -218.5 -97.5t-91.5 -240.5q0 -118 72.5 -197t193.5 -79q86 0 156.5 48t110.5 130h67q-44 -106 -136 -169.5t-201 -63.5q-141 0 -233.5 94t-92.5 238q0 168 112.5 280t262.5 112q114 0 197.5 -64.5t109.5 -168.5z" />
    <glyph glyph-name="D" unicode="D" horiz-adv-x="683" 
d="M661 401q0 -177 -108.5 -289t-299.5 -112h-201l122 700h161q154 0 240 -83t86 -216zM242 54q163 0 259.5 91.5t96.5 257.5q0 114 -74 178t-197 64h-101l-103 -591h119z" />
    <glyph glyph-name="E" unicode="E" horiz-adv-x="582" 
d="M632 700l-9 -56h-397l-45 -260h255l-10 -55h-255l-48 -274h397l-10 -55h-458l122 700h458z" />
    <glyph glyph-name="F" unicode="F" horiz-adv-x="547" 
d="M443 315h-275l-54 -315h-62l122 700h438l-10 -56h-376l-47 -274h274z" />
    <glyph glyph-name="G" unicode="G" horiz-adv-x="774" 
d="M390 -12q-140 0 -231.5 94t-91.5 238q0 168 113 280t263 112q114 0 197.5 -64.5t109.5 -168.5h-64q-24 82 -87.5 130t-157.5 48q-127 0 -219 -96.5t-92 -239.5q0 -118 74.5 -198t195.5 -80q101 0 173 64.5t91 141.5h-188l8 56h253l-53 -305h-58l23 128
q-17 -30 -45.5 -58.5t-86.5 -55t-127 -26.5z" />
    <glyph glyph-name="H" unicode="H" horiz-adv-x="657" 
d="M529 0h-62l58 329h-354l-57 -329h-62l122 700h62l-55 -316h353l55 316h62z" />
    <glyph glyph-name="I" unicode="I" horiz-adv-x="242" 
d="M52 0l122 700h62l-122 -700h-62z" />
    <glyph glyph-name="J" unicode="J" horiz-adv-x="567" 
d="M36 273h61l-7 -38q-15 -84 25.5 -138.5t128.5 -54.5q74 0 119 47t58 122l85 489h62l-87 -499q-17 -97 -78.5 -155t-161.5 -58q-113 0 -172 70.5t-38 186.5z" />
    <glyph glyph-name="K" unicode="K" horiz-adv-x="581" 
d="M236 700l-53 -305h25l372 305h84l-409 -333l279 -367h-75l-255 340h-31l-59 -340h-62l122 700h62z" />
    <glyph glyph-name="L" unicode="L" horiz-adv-x="470" 
d="M422 0h-370l122 700h62l-113 -645h309z" />
    <glyph glyph-name="M" unicode="M" horiz-adv-x="818" 
d="M398 199l320 501h94l-122 -700h-63l110 626l-320 -494h-60l-135 494l-109 -626h-61l122 700h89z" />
    <glyph glyph-name="N" unicode="N" horiz-adv-x="657" 
d="M223 623l-109 -623h-62l122 700h85l223 -610l107 610h62l-122 -700h-76z" />
    <glyph glyph-name="O" unicode="O" horiz-adv-x="791" 
d="M443 712q141 0 233.5 -94t92.5 -238q0 -168 -113 -280t-263 -112q-141 0 -233.5 94t-92.5 238q0 168 113 280t263 112zM396 43q127 0 218.5 97.5t91.5 240.5q0 118 -72.5 197t-193.5 79q-127 0 -218.5 -97.5t-91.5 -241.5q0 -118 72.5 -196.5t193.5 -78.5z" />
    <glyph glyph-name="P" unicode="P" horiz-adv-x="546" 
d="M161 272l-47 -272h-62l122 700h158q103 0 166.5 -55.5t63.5 -137.5q0 -107 -73.5 -171t-201.5 -64h-126zM326 645h-100l-56 -318h122q90 0 148.5 42.5t58.5 132.5q0 66 -46.5 104.5t-126.5 38.5z" />
    <glyph glyph-name="Q" unicode="Q" horiz-adv-x="791" 
d="M443 712q141 0 233.5 -94t92.5 -238q0 -110 -50.5 -198t-134.5 -139l33 -49q37 -58 85 -58l51 3v-54q-20 -4 -55 -4q-41 0 -69 16t-54 55l-43 64q-68 -28 -139 -28q-141 0 -233.5 94t-92.5 238q0 168 113 280t263 112zM396 43q54 0 105 20l-81 124l48 32l85 -130
q70 45 111.5 121.5t41.5 170.5q0 118 -72.5 197t-193.5 79q-127 0 -218.5 -97.5t-91.5 -241.5q0 -118 72.5 -196.5t193.5 -78.5z" />
    <glyph glyph-name="R" unicode="R" horiz-adv-x="587" 
d="M480 0l-170 308h-143l-53 -308h-62l122 700h181q101 0 158.5 -53t57.5 -125q0 -68 -45.5 -127.5t-152.5 -79.5l175 -315h-68zM177 363h123q94 0 150.5 41t56.5 113q0 61 -42 94.5t-117 33.5h-122z" />
    <glyph glyph-name="S" unicode="S" horiz-adv-x="498" 
d="M515 616l-39 -37q-30 36 -73 58t-91 22q-62 0 -100 -32.5t-38 -86.5q0 -61 80 -121l67 -50q70 -52 98.5 -96.5t28.5 -97.5q0 -78 -57.5 -132.5t-153.5 -54.5q-71 0 -131 31t-94 77l38 43q29 -41 78 -69.5t109 -28.5q68 0 109 39t41 94q0 40 -25.5 75.5t-81.5 76.5l-59 43
q-109 79 -109 166q0 84 58.5 130.5t140.5 46.5q59 0 114 -26t90 -70z" />
    <glyph glyph-name="T" unicode="T" horiz-adv-x="523" 
d="M97 700h496l-10 -56h-217l-112 -644h-62l112 644h-217z" />
    <glyph glyph-name="U" unicode="U" horiz-adv-x="624" 
d="M166 700h62l-81 -465q-15 -84 25.5 -138.5t128.5 -54.5q74 0 119 46.5t58 121.5l87 490h60l-87 -499q-17 -97 -78.5 -155t-161.5 -58q-113 0 -172 70.5t-38 186.5z" />
    <glyph glyph-name="V" unicode="V" horiz-adv-x="600" 
d="M197 0l-81 700h63l68 -637h2l350 637h65l-386 -700h-81z" />
    <glyph glyph-name="W" unicode="W" horiz-adv-x="917" 
d="M647 0h-87l-33 635l-303 -635h-88l-19 700h60l15 -637h1l307 637h81l32 -637h2l289 637h63z" />
    <glyph glyph-name="X" unicode="X" horiz-adv-x="574" 
d="M640 700l-294 -347l181 -353h-70l-152 308l-258 -308h-75l301 354l-170 346h67l144 -301l252 301h74z" />
    <glyph glyph-name="Y" unicode="Y" horiz-adv-x="611" 
d="M288 310l-198 390h69l165 -334h1l281 334h76l-331 -388l-54 -312h-62z" />
    <glyph glyph-name="Z" unicode="Z" horiz-adv-x="562" 
d="M528 644h-416l9 56h493l-10 -57l-530 -588h427l-9 -55h-502l10 57z" />
    <glyph glyph-name="bracketleft" unicode="[" horiz-adv-x="326" 
d="M361 644h-143l-129 -742h142l-10 -55h-203l149 853h204z" />
    <glyph glyph-name="backslash" unicode="\" horiz-adv-x="363" 
d="M174 700l112 -700h-55l-111 700h54z" />
    <glyph glyph-name="bracketright" unicode="]" horiz-adv-x="325" 
d="M-26 -153l10 56h141l129 741h-142l10 56h204l-149 -853h-203z" />
    <glyph glyph-name="asciicircum" unicode="^" horiz-adv-x="472" 
d="M47 225l236 475h84l64 -475h-63l-50 420l-205 -420h-66z" />
    <glyph glyph-name="underscore" unicode="_" horiz-adv-x="500" 
d="M-29 -175l8 51h420l-9 -51h-419z" />
    <glyph glyph-name="grave" unicode="`" horiz-adv-x="198" 
d="M150 688l66 -159h-57l-83 159h74z" />
    <glyph glyph-name="a" unicode="a" horiz-adv-x="557" 
d="M99 199q0 -67 40.5 -112.5t109.5 -45.5q74 0 126.5 58t52.5 142q0 68 -41.5 113t-109.5 45q-75 0 -126.5 -58.5t-51.5 -141.5zM464 441h60l-76 -441h-60l13 68q-25 -36 -67.5 -58t-92.5 -22q-89 0 -145 59.5t-56 149.5q0 110 69 183t164 73q58 0 106 -30.5t67 -84.5l7 41
z" />
    <glyph glyph-name="b" unicode="b" horiz-adv-x="556" 
d="M457 242q0 67 -40.5 112.5t-109.5 45.5q-74 0 -126.5 -58t-52.5 -143q0 -67 41.5 -112.5t109.5 -45.5q75 0 126.5 58.5t51.5 142.5zM91 0h-59l122 700h60l-45 -263l-12 -65q23 36 65.5 58.5t92.5 22.5q89 0 145 -59.5t56 -149.5q0 -110 -69 -183t-164 -73
q-58 0 -106 30.5t-67 84.5z" />
    <glyph glyph-name="c" unicode="c" horiz-adv-x="488" 
d="M394 128l50 -30q-31 -51 -82.5 -80.5t-113.5 -29.5q-91 0 -149.5 60t-58.5 152q0 106 68.5 179.5t167.5 73.5q64 0 112.5 -30t73.5 -84l-52 -29q-36 89 -132 89q-75 0 -126 -58.5t-51 -144.5q0 -66 40.5 -110.5t108.5 -44.5q91 0 144 87z" />
    <glyph glyph-name="d" unicode="d" horiz-adv-x="558" 
d="M100 199q0 -67 40.5 -112.5t108.5 -45.5q75 0 127.5 58t52.5 142q0 68 -41.5 113t-109.5 45q-75 0 -126.5 -58.5t-51.5 -141.5zM274 453q58 0 106.5 -30.5t66.5 -84.5l21 124l41 238h61l-122 -700h-59l12 68q-24 -35 -67 -57.5t-92 -22.5q-89 0 -145.5 59.5t-56.5 149.5
q0 110 69 183t165 73z" />
    <glyph glyph-name="e" unicode="e" horiz-adv-x="514" 
d="M476 241v-39h-375q0 -66 40.5 -113.5t107.5 -47.5q90 0 138 77h71q-29 -59 -85.5 -94.5t-122.5 -35.5q-91 0 -150.5 60t-59.5 152q0 106 69 179.5t167 73.5q89 0 144.5 -60.5t55.5 -151.5zM276 399q-62 0 -109 -41t-61 -106h310q-3 64 -38.5 105.5t-101.5 41.5z" />
    <glyph glyph-name="f" unicode="f" horiz-adv-x="273" 
d="M133 441l28 158q18 105 110 105l66 -4l-9 -53q-26 5 -42 5q-30 0 -46 -14t-21 -46l-25 -151h89l-9 -51h-90l-68 -390h-60l68 390h-75l10 51h74z" />
    <glyph glyph-name="g" unicode="g" horiz-adv-x="557" 
d="M524 441l-85 -490q-10 -60 -41.5 -93t-98.5 -33h-171l9 50h153q36 0 58 14t29 51l24 128q-25 -36 -67.5 -58t-91.5 -22q-89 0 -145.5 59.5t-56.5 149.5q0 110 69 183t165 73q58 0 106 -30.5t66 -84.5l18 103h60zM100 199q0 -67 40 -112.5t109 -45.5q75 0 127 58t52 142
q0 68 -41.5 113t-109.5 45q-75 0 -126 -58.5t-51 -141.5z" />
    <glyph glyph-name="h" unicode="h" horiz-adv-x="510" 
d="M147 320l-55 -320h-60l121 700h60l-35 -197l-22 -123q88 73 167 73q70 0 107.5 -46.5t24.5 -121.5l-49 -285h-61l51 289q8 47 -13 79t-71 32q-37 0 -82.5 -23.5t-82.5 -56.5z" />
    <glyph glyph-name="i" unicode="i" horiz-adv-x="217" 
d="M184 441l-77 -441h-60l68 390h-69l8 51h130zM124 601q0 22 15.5 37t37.5 15t37 -15t15 -37t-15 -37.5t-37 -15.5t-37.5 15.5t-15.5 37.5z" />
    <glyph glyph-name="j" unicode="j" horiz-adv-x="218" 
d="M33 -82l82 472h-69l9 51h130l-92 -528q-9 -50 -35.5 -69t-68.5 -19h-61l9 50h42q24 0 37 9.5t17 33.5zM125 601q0 22 15 37t37 15t37.5 -15t15.5 -37t-15.5 -37.5t-37.5 -15.5t-37 15.5t-15 37.5z" />
    <glyph glyph-name="k" unicode="k" horiz-adv-x="454" 
d="M214 700l-75 -430h55l192 171h84l-231 -197l165 -244h-70l-143 217h-61l-38 -217h-60l122 700h60z" />
    <glyph glyph-name="l" unicode="l" horiz-adv-x="202" 
d="M214 700l-122 -700h-60l122 700h60z" />
    <glyph glyph-name="m" unicode="m" horiz-adv-x="806" 
d="M169 441l-12 -61q88 73 161 73q99 0 123 -87q95 87 181 87q70 0 105.5 -46t22.5 -122l-49 -285h-61l51 289q8 48 -11 79.5t-69 31.5q-69 0 -162 -85q0 -13 -3 -30l-49 -285h-61l51 289q8 48 -11 79.5t-69 31.5q-69 0 -159 -80l-55 -320h-60l76 441h60z" />
    <glyph glyph-name="n" unicode="n" horiz-adv-x="511" 
d="M169 441l-12 -61q88 73 167 73q70 0 107.5 -46.5t24.5 -121.5l-49 -285h-61l51 289q8 47 -13 79t-71 32q-37 0 -82.5 -23.5t-82.5 -56.5l-55 -320h-60l76 441h60z" />
    <glyph glyph-name="o" unicode="o" horiz-adv-x="527" 
d="M249 41q75 0 126.5 58.5t51.5 144.5q0 66 -41 110.5t-108 44.5q-76 0 -127 -58.5t-51 -144.5q0 -66 40.5 -110.5t108.5 -44.5zM250 -12q-91 0 -150.5 60t-59.5 152q0 106 69.5 179.5t167.5 73.5q91 0 150.5 -60.5t59.5 -152.5q0 -105 -69.5 -178.5t-167.5 -73.5z" />
    <glyph glyph-name="p" unicode="p" horiz-adv-x="556" 
d="M108 441h61l-12 -69q23 36 65.5 58.5t92.5 22.5q88 0 144.5 -59.5t56.5 -149.5q0 -110 -69 -183t-165 -73q-58 0 -106.5 31t-65.5 84l-48 -278h-60zM279 41q75 0 126 58.5t51 142.5q0 67 -40 112.5t-109 45.5q-74 0 -126.5 -58t-52.5 -143q0 -67 41.5 -112.5t109.5 -45.5
z" />
    <glyph glyph-name="q" unicode="q" horiz-adv-x="556" 
d="M100 199q0 -67 40 -112.5t109 -45.5q75 0 127 58t52 142q0 68 -41.5 113t-109.5 45q-75 0 -126 -58.5t-51 -141.5zM464 441h60l-107 -616h-61l46 243q-25 -35 -68 -57.5t-92 -22.5q-89 0 -145.5 59.5t-56.5 149.5q0 110 69 183t165 73q58 0 106 -30.5t66 -84.5z" />
    <glyph glyph-name="r" unicode="r" horiz-adv-x="303" 
d="M320 446l-11 -59h-28q-122 0 -149 -155l-40 -232h-60l77 441h57l-13 -75q20 38 57 60t79 22q20 0 31 -2z" />
    <glyph glyph-name="s" unicode="s" horiz-adv-x="379" 
d="M363 386l-38 -33q-39 52 -106 52q-42 0 -65 -19t-23 -47q0 -39 52 -72l54 -35q83 -53 83 -118q0 -54 -40.5 -90t-111.5 -36q-55 0 -98 22t-66 50l34 42q23 -29 59 -47.5t73 -18.5q45 0 68 22.5t23 51.5q0 25 -17.5 44t-59.5 46l-36 23q-76 48 -76 109q0 53 40.5 87
t102.5 34q92 0 148 -67z" />
    <glyph glyph-name="t" unicode="t" horiz-adv-x="283" 
d="M163 627h60l-32 -186h108l-9 -51h-108l-52 -299q-4 -24 8.5 -33.5t35.5 -9.5l57 3l-9 -51q-27 -4 -63 -4q-106 0 -90 94l52 300h-74l9 51h75z" />
    <glyph glyph-name="u" unicode="u" horiz-adv-x="498" 
d="M102 441h61l-46 -266q-11 -61 18.5 -97t93.5 -36q50 0 86 28.5t45 81.5l51 289h59l-51 -300q-12 -68 -62 -110.5t-129 -42.5q-87 0 -136.5 50t-34.5 139z" />
    <glyph glyph-name="v" unicode="v" horiz-adv-x="459" 
d="M131 441l58 -391l219 391h69l-255 -441h-82l-72 441h63z" />
    <glyph glyph-name="w" unicode="w" horiz-adv-x="687" 
d="M412 441l36 -391l182 391h65l-213 -441h-82l-35 379l-191 -379h-81l-34 441h61l23 -391l197 391h72z" />
    <glyph glyph-name="x" unicode="x" horiz-adv-x="440" 
d="M-18 0l204 221l-127 220h65l100 -181l161 181h72l-204 -222l129 -219h-66l-102 178l-156 -178h-76z" />
    <glyph glyph-name="y" unicode="y" horiz-adv-x="511" 
d="M332 -56l22 117q-77 -73 -167 -73q-74 0 -109 47t-23 121l49 285h61l-51 -289q-9 -49 11.5 -80.5t70.5 -31.5q75 0 167 81l55 320h60l-85 -491q-23 -125 -140 -125h-131l9 51h113q75 0 88 68z" />
    <glyph glyph-name="z" unicode="z" horiz-adv-x="413" 
d="M413 441l-9 -52l-322 -338h262l-9 -51h-335l9 51l323 338h-264l9 52h336z" />
    <glyph glyph-name="braceleft" unicode="{" horiz-adv-x="356" 
d="M44 275l9 51h79l65 374h204l-11 -56h-140l-47 -271q-12 -65 -59 -75q21 -6 30 -24.5t5 -40.5l-58 -330h141l-11 -56h-203l75 428h-79z" />
    <glyph glyph-name="bar" unicode="|" horiz-adv-x="225" 
d="M28 -93l150 853h59l-150 -853h-59z" />
    <glyph glyph-name="braceright" unicode="}" horiz-adv-x="356" 
d="M340 326l-9 -51h-79l-75 -428h-202l10 56h139l58 330q9 53 56 65q-43 18 -32 75l47 271h-141l11 56h203l-65 -374h79z" />
    <glyph glyph-name="asciitilde" unicode="~" horiz-adv-x="480" 
d="M149 349q-44 0 -49 -54h-57l3 20q6 39 30 66.5t74 27.5q24 0 117 -27.5t112 -27.5q22 0 34 11.5t15 42.5h57l-3 -20q-6 -39 -30 -66.5t-74 -27.5q-28 0 -122 27.5t-107 27.5z" />
    <glyph glyph-name="exclamdown" unicode="&#xa1;" horiz-adv-x="226" 
d="M87 218h57l-78 -477h-66zM203 393q0 -25 -17.5 -43t-42.5 -18t-43 18t-18 43t18 42.5t43 17.5t42.5 -17.5t17.5 -42.5z" />
    <glyph glyph-name="cent" unicode="&#xa2;" horiz-adv-x="503" 
d="M419 261l50 -30q-31 -51 -82.5 -80.5t-113.5 -29.5q-19 0 -39 3l-36 -124h-53l41 138q-56 24 -88.5 76t-32.5 119q0 106 68.5 179.5t167.5 73.5q11 0 16 -1l34 115h53l-37 -124q82 -24 120 -104l-52 -29q-25 60 -83 81l-103 -349q8 -1 26 -1q91 0 144 87zM126 329
q0 -97 75 -138l100 341q-74 -1 -124.5 -59.5t-50.5 -143.5z" />
    <glyph glyph-name="sterling" unicode="&#xa3;" horiz-adv-x="521" 
d="M82 55q45 52 64.5 90t19.5 94q0 23 -8 77h-87l9 53h69q-12 76 -12 110q0 112 59 172.5t151 60.5q84 0 136 -45t52 -123q0 -20 -2 -31h-62q2 18 2 28q0 55 -32.5 85.5t-91.5 30.5q-71 0 -109.5 -50t-38.5 -126q0 -28 12 -112h175l-8 -53h-159q11 -82 -7 -141.5t-71 -119.5
h281l-9 -55h-399l10 55h56z" />
    <glyph glyph-name="currency" unicode="&#xa4;" horiz-adv-x="725" 
d="M423 631q46 0 92 -20.5t81 -55.5l102 78l34 -47l-103 -79q34 -60 34 -135q0 -57 -25 -115.5t-72 -103.5l75 -94l-52 -39q-11 16 -34.5 47t-35.5 47q-76 -47 -163 -47q-106 0 -184 76l-101 -78l-35 48l105 78q-35 59 -35 132q0 129 96 222l-73 95l51 39l70 -94
q76 46 173 46zM170 322q0 -81 54 -139t140 -58q98 0 166.5 74t68.5 176q0 85 -53 141.5t-142 56.5q-98 0 -166 -73t-68 -178z" />
    <glyph glyph-name="yen" unicode="&#xa5;" horiz-adv-x="580" 
d="M272 292l-41 114h-136l10 53h111l-90 241h69l116 -339h2l236 339h75l-176 -241h108l-10 -53h-135l-78 -114h193l-9 -53h-193l-42 -239h-61l42 239h-197l9 53h197z" />
    <glyph glyph-name="brokenbar" unicode="&#xa6;" horiz-adv-x="226" 
d="M176 408h-61l62 352h61zM88 -93h-60l62 352h60z" />
    <glyph glyph-name="section" unicode="&#xa7;" horiz-adv-x="532" 
d="M64 313q0 57 45.5 96t109.5 45q-74 36 -74 109q0 66 54.5 107.5t137.5 41.5q72 0 125.5 -22.5t82.5 -55.5l-40 -40q-27 29 -74 48t-95 19q-56 0 -94 -26t-38 -69q0 -51 65 -77l118 -46q57 -22 86 -51.5t29 -74.5q0 -53 -41 -96t-114 -49q74 -41 74 -108q0 -69 -55 -111
t-142 -42q-67 0 -125 24t-85 54l40 43q26 -30 74 -49t96 -19q65 0 100 26.5t35 66.5q0 36 -23.5 54t-82.5 41l-66 25q-61 23 -92 55t-31 81zM280 420q-62 -1 -108 -26t-46 -78q0 -57 72 -83l85 -32q60 1 108 29t48 81q0 33 -24 51t-76 37z" />
    <glyph glyph-name="dieresis" unicode="&#xa8;" horiz-adv-x="285" 
d="M112 624q20 0 35 -15t15 -35t-15 -35t-35 -15t-35 15t-15 35t15 35t35 15zM270 624q20 0 35.5 -15t15.5 -35t-15.5 -35t-35.5 -15t-35 15t-15 35t15 35t35 15z" />
    <glyph glyph-name="copyright" unicode="&#xa9;" horiz-adv-x="829" 
d="M799 351q0 -156 -105 -259.5t-256 -103.5q-152 0 -257 103.5t-105 259.5t105 258.5t257 102.5q151 0 256 -102.5t105 -258.5zM125 351q0 -139 89 -230t224 -91q134 0 223 91t89 230q0 138 -89 228.5t-223 90.5q-135 0 -224 -90.5t-89 -228.5zM234 350q0 91 59.5 149.5
t148.5 58.5q67 0 117 -37.5t69 -99.5h-56q-14 43 -48.5 67t-82.5 24q-68 0 -111 -46t-43 -116q0 -71 43 -117t111 -46q48 0 82.5 24t48.5 67h56q-19 -62 -69 -99.5t-117 -37.5q-89 0 -148.5 59t-59.5 150z" />
    <glyph glyph-name="ordfeminine" unicode="&#xaa;" horiz-adv-x="495" 
d="M149 496q0 -57 34 -95t92 -38q63 0 107 48.5t44 119.5q0 57 -35 95t-92 38q-63 0 -106.5 -49t-43.5 -119zM455 701h54l-66 -374h-52l10 53q-21 -29 -56.5 -46.5t-76.5 -17.5q-75 0 -123 51t-48 127q0 94 58.5 156t140.5 62q48 0 88.5 -24.5t56.5 -69.5z" />
    <glyph glyph-name="guillemotleft" unicode="&#xab;" horiz-adv-x="431" 
d="M207 243l125 149h72l-127 -154l70 -152h-64zM53 243l124 149h73l-128 -154l71 -152h-64z" />
    <glyph glyph-name="logicalnot" unicode="&#xac;" horiz-adv-x="480" 
d="M450 247h-57l28 160h-363l9 53h420z" />
    <glyph glyph-name="uni00AD" unicode="&#xad;" horiz-adv-x="250" 
 />
    <glyph glyph-name="registered" unicode="&#xae;" horiz-adv-x="829" 
d="M553 147l-100 181h-101v-181h-51v413h155q65 0 101.5 -31t36.5 -84q0 -34 -23 -66t-69 -44l109 -188h-58zM542 445q0 34 -24 52.5t-63 18.5h-103v-144h103q38 0 62.5 19.5t24.5 53.5zM799 351q0 -156 -105 -259.5t-256 -103.5q-152 0 -257 103.5t-105 259.5t105 258.5
t257 102.5q151 0 256 -102.5t105 -258.5zM125 351q0 -139 89 -230t224 -91q134 0 223 91t89 230q0 138 -89 228.5t-223 90.5q-135 0 -224 -90.5t-89 -228.5z" />
    <glyph glyph-name="macron" unicode="&#xaf;" horiz-adv-x="315" 
d="M85 547l9 52h255l-9 -52h-255z" />
    <glyph glyph-name="degree" unicode="&#xb0;" horiz-adv-x="397" 
d="M109 563q0 61 44 105t104 44t104 -44t44 -105t-44 -105t-104 -44t-104 44t-44 105zM350 563q0 40 -28 69t-65 29t-65 -29t-28 -69t28 -69t65 -29t65 29t28 69z" />
    <glyph glyph-name="plusminus" unicode="&#xb1;" horiz-adv-x="480" 
d="M327 561l-32 -181h182l-9 -53h-182l-33 -183h-57l33 183h-181l9 53h181l32 181h57zM-9 0l9 53h419l-9 -53h-419z" />
    <glyph glyph-name="twosuperior" unicode="&#xb2;" 
d="M109 301l9 53q1 1 68 56t70 57q51 42 69.5 70.5t18.5 60.5q0 25 -16.5 42.5t-46.5 17.5q-28 0 -47 -18t-19 -48q0 -14 5 -34l-54 -6q-7 24 -7 42q0 47 33.5 80t89.5 33q55 0 86.5 -32t31.5 -77q0 -49 -24.5 -83t-84.5 -82l-102 -83h170l-9 -49h-241z" />
    <glyph glyph-name="threesuperior" unicode="&#xb3;" 
d="M238 294q-52 0 -84 27.5t-32 75.5q0 13 4 33h56q-4 -24 -4 -31q0 -25 15 -41t45 -16q32 0 52.5 27t20.5 65q0 66 -82 66q-4 0 -10.5 -0.5t-10.5 -0.5l8 47l118 104h-158l10 50h221l-11 -55l-122 -106q40 -2 67.5 -31t27.5 -72q0 -59 -36 -100.5t-95 -41.5z" />
    <glyph glyph-name="acute" unicode="&#xb4;" horiz-adv-x="198" 
d="M66 529l96 159h74l-108 -159h-62z" />
    <glyph glyph-name="mu" unicode="&#xb5;" horiz-adv-x="493" 
d="M116 441h61l-46 -266q-11 -61 18.5 -97t93.5 -36q50 0 86 28.5t45 81.5l51 289h59l-51 -300q-12 -68 -63 -110.5t-130 -42.5q-46 0 -82.5 17.5t-53.5 46.5l-39 -227h-55z" />
    <glyph glyph-name="mu" unicode="&#x3bc;" horiz-adv-x="493" 
d="M116 441h61l-46 -266q-11 -61 18.5 -97t93.5 -36q50 0 86 28.5t45 81.5l51 289h59l-51 -300q-12 -68 -63 -110.5t-130 -42.5q-46 0 -82.5 17.5t-53.5 46.5l-39 -227h-55z" />
    <glyph glyph-name="paragraph" unicode="&#xb6;" horiz-adv-x="576" 
d="M86 509q0 81 61.5 136t146.5 55h270l-122 -700h-61l112 641h-149l-111 -641h-63l63 359q-67 0 -107 43.5t-40 106.5z" />
    <glyph glyph-name="periodcentered" unicode="&#xb7;" horiz-adv-x="248" 
d="M86 363q0 26 18 44t43 18t43.5 -18.5t18.5 -43.5t-18.5 -43t-43.5 -18t-43 18t-18 43z" />
    <glyph glyph-name="cedilla" unicode="&#xb8;" horiz-adv-x="186" 
d="M-54 -136l77 132h70l-85 -132h-62z" />
    <glyph glyph-name="onesuperior" unicode="&#xb9;" 
d="M133 301l8 49h77l53 300h-75l9 50h132l-62 -350h77l-9 -49h-210z" />
    <glyph glyph-name="ordmasculine" unicode="&#xba;" horiz-adv-x="473" 
d="M275 364q63 0 106 49t43 121q0 55 -34.5 92.5t-90.5 37.5q-64 0 -106.5 -49t-42.5 -122q0 -55 34 -92t91 -37zM275 316q-77 0 -127.5 51.5t-50.5 129.5q0 89 58.5 152t142.5 63q77 0 128 -51.5t51 -129.5q0 -90 -59 -152.5t-143 -62.5z" />
    <glyph glyph-name="guillemotright" unicode="&#xbb;" horiz-adv-x="431" 
d="M230 235l-125 -149h-72l127 154l-70 152h64zM384 235l-124 -149h-73l128 154l-71 152h64z" />
    <glyph glyph-name="onequarter" unicode="&#xbc;" horiz-adv-x="1080" 
d="M103 301l8 49h77l53 300h-75l9 50h132l-62 -350h77l-9 -49h-210zM707 115l9 48l178 236h80l-41 -236h57l-9 -48h-57l-20 -115h-56l20 115h-161zM910 349l-141 -186h108zM956 738l31 -33l-799 -723l-31 33z" />
    <glyph glyph-name="onehalf" unicode="&#xbd;" horiz-adv-x="1080" 
d="M103 301l8 49h77l53 300h-75l9 50h132l-62 -350h77l-9 -49h-210zM956 738l31 -33l-799 -723l-31 33zM708 0l9 53q1 1 68 56t70 57q51 42 69.5 70t18.5 61q0 25 -16.5 42.5t-46.5 17.5q-28 0 -47 -18t-19 -48q0 -14 5 -34l-54 -6q-7 24 -7 42q0 47 33.5 80t89.5 33
q55 0 86.5 -32t31.5 -77q0 -49 -24.5 -83t-84.5 -82l-102 -83h170l-9 -49h-241z" />
    <glyph glyph-name="threequarters" unicode="&#xbe;" horiz-adv-x="1080" 
d="M244 294q-52 0 -84 27.5t-32 75.5q0 13 4 33h56q-4 -24 -4 -31q0 -25 15 -41t45 -16q32 0 52.5 27t20.5 65q0 66 -82 66q-3 0 -10 -0.5t-11 -0.5l8 47l118 104h-158l10 50h221l-11 -55l-122 -106q40 -2 67.5 -31t27.5 -72q0 -59 -36 -100.5t-95 -41.5zM707 115l9 48
l178 236h80l-41 -236h57l-9 -48h-57l-20 -115h-56l20 115h-161zM910 349l-141 -186h108zM956 738l31 -33l-799 -723l-31 33z" />
    <glyph glyph-name="questiondown" unicode="&#xbf;" horiz-adv-x="455" 
d="M-19 -104q0 88 54.5 146t150.5 67l39 139h51l-35 -188h-6q-91 -2 -142.5 -43.5t-51.5 -118.5q0 -53 34.5 -84t88.5 -31q120 0 144 143l1 6h61q-12 -96 -66.5 -150t-139.5 -54q-80 0 -131.5 45t-51.5 123zM332 392q0 -25 -17.5 -43t-42.5 -18q-26 0 -43.5 17.5t-17.5 43.5
q0 25 18 42.5t43 17.5t42.5 -17.5t17.5 -42.5z" />
    <glyph glyph-name="Agrave" unicode="&#xc0;" horiz-adv-x="598" 
d="M435 247h-258l-122 -247h-62l353 700h73l116 -700h-60zM372 639l-169 -338h224l-52 338h-3zM346 947l66 -159h-57l-83 159h74z" />
    <glyph glyph-name="Aacute" unicode="&#xc1;" horiz-adv-x="598" 
d="M435 247h-258l-122 -247h-62l353 700h73l116 -700h-60zM372 639l-169 -338h224l-52 338h-3zM374 788l96 159h74l-108 -159h-62z" />
    <glyph glyph-name="Acircumflex" unicode="&#xc2;" horiz-adv-x="598" 
d="M435 247h-258l-122 -247h-62l353 700h73l116 -700h-60zM372 639l-169 -338h224l-52 338h-3zM270 788l114 159h73l60 -159h-57l-44 114l-83 -114h-63z" />
    <glyph glyph-name="Atilde" unicode="&#xc3;" horiz-adv-x="598" 
d="M435 247h-258l-122 -247h-62l353 700h73l116 -700h-60zM372 639l-169 -338h224l-52 338h-3zM461 795q-24 0 -64 23t-51 23q-31 0 -35 -36l-1 -10l-51 5q0 13 3 26.5t11 31t26 28.5t45 11q25 0 65 -23t50 -23q31 0 35 36l1 10l51 -5q0 -13 -3 -26.5t-11 -31t-26 -28.5
t-45 -11z" />
    <glyph glyph-name="Adieresis" unicode="&#xc4;" horiz-adv-x="598" 
d="M435 247h-258l-122 -247h-62l353 700h73l116 -700h-60zM372 639l-169 -338h224l-52 338h-3zM312 883q20 0 35 -15t15 -35t-15 -35t-35 -15t-35 15t-15 35t15 35t35 15zM470 883q20 0 35.5 -15t15.5 -35t-15.5 -35t-35.5 -15t-35 15t-15 35t15 35t35 15z" />
    <glyph glyph-name="Aring" unicode="&#xc5;" horiz-adv-x="598" 
d="M435 247h-258l-122 -247h-62l353 700h73l116 -700h-60zM372 639l-169 -338h224l-52 338h-3zM394 914q-23 0 -39 -16.5t-16 -40.5t16 -40.5t39 -16.5t39 16.5t16 40.5t-16 40.5t-39 16.5zM394 755q-42 0 -73.5 29.5t-31.5 72.5t31.5 72.5t73.5 29.5t73.5 -29.5t31.5 -72.5
t-31.5 -72.5t-73.5 -29.5z" />
    <glyph glyph-name="AE" unicode="&#xc6;" horiz-adv-x="935" 
d="M984 700l-9 -56h-377l-45 -260h254l-9 -56h-255l-48 -273h377l-9 -55h-440l58 329h-206l-241 -329h-78l528 700h500zM536 644h-28l-193 -259h175z" />
    <glyph glyph-name="Ccedilla" unicode="&#xc7;" horiz-adv-x="758" 
d="M263 -136l75 129q-119 18 -194.5 108.5t-75.5 218.5q0 168 112.5 280t262.5 112q114 0 197.5 -64.5t109.5 -168.5h-64q-24 82 -87.5 130t-157.5 48q-127 0 -218.5 -97.5t-91.5 -240.5q0 -118 72.5 -197t193.5 -79q86 0 156.5 48t110.5 130h67q-43 -104 -131.5 -166.5
t-194.5 -66.5l-80 -124h-62z" />
    <glyph glyph-name="Egrave" unicode="&#xc8;" horiz-adv-x="582" 
d="M632 700l-9 -56h-397l-45 -260h255l-10 -55h-255l-48 -274h397l-10 -55h-458l122 700h458zM371 947l66 -159h-57l-83 159h74z" />
    <glyph glyph-name="Eacute" unicode="&#xc9;" horiz-adv-x="582" 
d="M632 700l-9 -56h-397l-45 -260h255l-10 -55h-255l-48 -274h397l-10 -55h-458l122 700h458zM370 788l96 159h74l-108 -159h-62z" />
    <glyph glyph-name="Ecircumflex" unicode="&#xca;" horiz-adv-x="582" 
d="M632 700l-9 -56h-397l-45 -260h255l-10 -55h-255l-48 -274h397l-10 -55h-458l122 700h458zM282 788l114 159h73l60 -159h-57l-44 114l-83 -114h-63z" />
    <glyph glyph-name="Edieresis" unicode="&#xcb;" horiz-adv-x="582" 
d="M632 700l-9 -56h-397l-45 -260h255l-10 -55h-255l-48 -274h397l-10 -55h-458l122 700h458zM335 883q20 0 35 -15t15 -35t-15 -35t-35 -15t-35 15t-15 35t15 35t35 15zM493 883q20 0 35.5 -15t15.5 -35t-15.5 -35t-35.5 -15t-35 15t-15 35t15 35t35 15z" />
    <glyph glyph-name="Igrave" unicode="&#xcc;" horiz-adv-x="242" 
d="M52 0l122 700h62l-122 -700h-62zM164 947l66 -159h-57l-83 159h74z" />
    <glyph glyph-name="Iacute" unicode="&#xcd;" horiz-adv-x="242" 
d="M52 0l122 700h62l-122 -700h-62zM191 788l96 159h74l-108 -159h-62z" />
    <glyph glyph-name="Icircumflex" unicode="&#xce;" horiz-adv-x="242" 
d="M52 0l122 700h62l-122 -700h-62zM94 788l114 159h73l60 -159h-57l-44 114l-83 -114h-63z" />
    <glyph glyph-name="Idieresis" unicode="&#xcf;" horiz-adv-x="242" 
d="M52 0l122 700h62l-122 -700h-62zM146 883q20 0 35 -15t15 -35t-15 -35t-35 -15t-35 15t-15 35t15 35t35 15zM304 883q20 0 35.5 -15t15.5 -35t-15.5 -35t-35.5 -15t-35 15t-15 35t15 35t35 15z" />
    <glyph glyph-name="Eth" unicode="&#xd0;" horiz-adv-x="684" 
d="M29 329l10 55h81l55 316h161q154 0 240 -83t86 -216q0 -177 -108.5 -289t-299.5 -112h-201l57 329h-81zM243 54q163 0 259.5 91.5t96.5 257.5q0 114 -74 178t-197 64h-101l-46 -261h204l-9 -55h-204l-48 -275h119z" />
    <glyph glyph-name="Ntilde" unicode="&#xd1;" horiz-adv-x="657" 
d="M223 623l-109 -623h-62l122 700h85l223 -610l107 610h62l-122 -700h-76zM487 795q-24 0 -64 23t-51 23q-31 0 -35 -36l-1 -10l-51 5q0 13 3 26.5t11 31t26 28.5t45 11q25 0 65 -23t50 -23q31 0 35 36l1 10l51 -5q0 -13 -3 -26.5t-11 -31t-26 -28.5t-45 -11z" />
    <glyph glyph-name="Ograve" unicode="&#xd2;" horiz-adv-x="791" 
d="M443 712q141 0 233.5 -94t92.5 -238q0 -168 -113 -280t-263 -112q-141 0 -233.5 94t-92.5 238q0 168 113 280t263 112zM396 43q127 0 218.5 97.5t91.5 240.5q0 118 -72.5 197t-193.5 79q-127 0 -218.5 -97.5t-91.5 -241.5q0 -118 72.5 -196.5t193.5 -78.5zM413 947
l66 -159h-57l-83 159h74z" />
    <glyph glyph-name="Oacute" unicode="&#xd3;" horiz-adv-x="791" 
d="M443 712q141 0 233.5 -94t92.5 -238q0 -168 -113 -280t-263 -112q-141 0 -233.5 94t-92.5 238q0 168 113 280t263 112zM396 43q127 0 218.5 97.5t91.5 240.5q0 118 -72.5 197t-193.5 79q-127 0 -218.5 -97.5t-91.5 -241.5q0 -118 72.5 -196.5t193.5 -78.5zM452 788
l96 159h74l-108 -159h-62z" />
    <glyph glyph-name="Ocircumflex" unicode="&#xd4;" horiz-adv-x="791" 
d="M443 712q141 0 233.5 -94t92.5 -238q0 -168 -113 -280t-263 -112q-141 0 -233.5 94t-92.5 238q0 168 113 280t263 112zM396 43q127 0 218.5 97.5t91.5 240.5q0 118 -72.5 197t-193.5 79q-127 0 -218.5 -97.5t-91.5 -241.5q0 -118 72.5 -196.5t193.5 -78.5zM337 788
l114 159h73l60 -159h-57l-44 114l-83 -114h-63z" />
    <glyph glyph-name="Otilde" unicode="&#xd5;" horiz-adv-x="791" 
d="M443 712q141 0 233.5 -94t92.5 -238q0 -168 -113 -280t-263 -112q-141 0 -233.5 94t-92.5 238q0 168 113 280t263 112zM396 43q127 0 218.5 97.5t91.5 240.5q0 118 -72.5 197t-193.5 79q-127 0 -218.5 -97.5t-91.5 -241.5q0 -118 72.5 -196.5t193.5 -78.5zM537 795
q-24 0 -64 23t-51 23q-31 0 -35 -36l-1 -10l-51 5q0 13 3 26.5t11 31t26 28.5t45 11q25 0 65 -23t50 -23q31 0 35 36l1 10l51 -5q0 -13 -3 -26.5t-11 -31t-26 -28.5t-45 -11z" />
    <glyph glyph-name="Odieresis" unicode="&#xd6;" horiz-adv-x="791" 
d="M443 712q141 0 233.5 -94t92.5 -238q0 -168 -113 -280t-263 -112q-141 0 -233.5 94t-92.5 238q0 168 113 280t263 112zM396 43q127 0 218.5 97.5t91.5 240.5q0 118 -72.5 197t-193.5 79q-127 0 -218.5 -97.5t-91.5 -241.5q0 -118 72.5 -196.5t193.5 -78.5zM386 883
q20 0 35 -15t15 -35t-15 -35t-35 -15t-35 15t-15 35t15 35t35 15zM544 883q20 0 35.5 -15t15.5 -35t-15.5 -35t-35.5 -15t-35 15t-15 35t15 35t35 15z" />
    <glyph glyph-name="multiply" unicode="&#xd7;" horiz-adv-x="472" 
d="M72 179l-33 44q159 125 185 146l-127 171l43 33l127 -170q35 28 103 81t79 62q5 -8 16 -22t16 -22l-181 -143l126 -171q-7 -6 -21.5 -17t-21.5 -17q-9 11 -56 74t-72 96q-122 -96 -183 -145z" />
    <glyph glyph-name="Oslash" unicode="&#xd8;" horiz-adv-x="791" 
d="M443 712q136 0 229 -90l93 90h73l-133 -129q64 -88 64 -203q0 -168 -113 -280t-263 -112q-129 0 -217 79l-82 -80h-76l121 118q-72 91 -72 215q0 168 113 280t263 112zM130 318q0 -100 52 -172l448 435q-74 76 -190 76q-127 0 -218.5 -97.5t-91.5 -241.5zM396 43
q127 0 218.5 97.5t91.5 240.5q0 88 -44 159l-445 -433q72 -64 179 -64z" />
    <glyph glyph-name="Ugrave" unicode="&#xd9;" horiz-adv-x="624" 
d="M166 700h62l-81 -465q-15 -84 25.5 -138.5t128.5 -54.5q74 0 119 46.5t58 121.5l87 490h60l-87 -499q-17 -97 -78.5 -155t-161.5 -58q-113 0 -172 70.5t-38 186.5zM358 947l66 -159h-57l-83 159h74z" />
    <glyph glyph-name="Uacute" unicode="&#xda;" horiz-adv-x="624" 
d="M166 700h62l-81 -465q-15 -84 25.5 -138.5t128.5 -54.5q74 0 119 46.5t58 121.5l87 490h60l-87 -499q-17 -97 -78.5 -155t-161.5 -58q-113 0 -172 70.5t-38 186.5zM360 788l96 159h74l-108 -159h-62z" />
    <glyph glyph-name="Ucircumflex" unicode="&#xdb;" horiz-adv-x="624" 
d="M166 700h62l-81 -465q-15 -84 25.5 -138.5t128.5 -54.5q74 0 119 46.5t58 121.5l87 490h60l-87 -499q-17 -97 -78.5 -155t-161.5 -58q-113 0 -172 70.5t-38 186.5zM282 788l114 159h73l60 -159h-57l-44 114l-83 -114h-63z" />
    <glyph glyph-name="Udieresis" unicode="&#xdc;" horiz-adv-x="624" 
d="M166 700h62l-81 -465q-15 -84 25.5 -138.5t128.5 -54.5q74 0 119 46.5t58 121.5l87 490h60l-87 -499q-17 -97 -78.5 -155t-161.5 -58q-113 0 -172 70.5t-38 186.5zM326 883q20 0 35 -15t15 -35t-15 -35t-35 -15t-35 15t-15 35t15 35t35 15zM484 883q20 0 35.5 -15
t15.5 -35t-15.5 -35t-35.5 -15t-35 15t-15 35t15 35t35 15z" />
    <glyph glyph-name="Yacute" unicode="&#xdd;" horiz-adv-x="611" 
d="M288 310l-198 390h69l165 -334h1l281 334h76l-331 -388l-54 -312h-62zM346 788l96 159h74l-108 -159h-62z" />
    <glyph glyph-name="Thorn" unicode="&#xde;" horiz-adv-x="550" 
d="M215 568h96q103 0 166.5 -55.5t63.5 -137.5q0 -107 -73.5 -171t-201.5 -64h-126l-24 -140h-64q47 274 122 700h64zM205 513l-55 -318h121q90 0 149 42.5t59 132.5q0 66 -46.5 104.5t-126.5 38.5h-101z" />
    <glyph glyph-name="germandbls" unicode="&#xdf;" horiz-adv-x="486" 
d="M314 700q61 0 107 -38t46 -103q0 -39 -21.5 -77t-46.5 -62t-46.5 -50.5t-21.5 -46.5q0 -23 26.5 -54t53.5 -69.5t27 -78.5q0 -56 -39.5 -94.5t-106.5 -38.5q-66 0 -103 21l26 49q36 -21 73 -21q39 0 65 21.5t26 63.5q0 24 -16.5 50t-37 45t-37 46.5t-16.5 55.5
q0 30 21.5 62t47.5 56.5t47.5 56.5t21.5 62q0 40 -27 65t-73 25t-81 -31.5t-46 -93.5l-90 -521h-61l91 521q9 50 29.5 87t48 56t55.5 27.5t58 8.5z" />
    <glyph glyph-name="agrave" unicode="&#xe0;" horiz-adv-x="557" 
d="M99 199q0 -67 40.5 -112.5t109.5 -45.5q74 0 126.5 58t52.5 142q0 68 -41.5 113t-109.5 45q-75 0 -126.5 -58.5t-51.5 -141.5zM464 441h60l-76 -441h-60l13 68q-25 -36 -67.5 -58t-92.5 -22q-89 0 -145 59.5t-56 149.5q0 110 69 183t164 73q58 0 106 -30.5t67 -84.5l7 41
zM263 688l66 -159h-57l-83 159h74z" />
    <glyph glyph-name="aacute" unicode="&#xe1;" horiz-adv-x="557" 
d="M99 199q0 -67 40.5 -112.5t109.5 -45.5q74 0 126.5 58t52.5 142q0 68 -41.5 113t-109.5 45q-75 0 -126.5 -58.5t-51.5 -141.5zM464 441h60l-76 -441h-60l13 68q-25 -36 -67.5 -58t-92.5 -22q-89 0 -145 59.5t-56 149.5q0 110 69 183t164 73q58 0 106 -30.5t67 -84.5l7 41
zM285 529l96 159h74l-108 -159h-62z" />
    <glyph glyph-name="acircumflex" unicode="&#xe2;" horiz-adv-x="557" 
d="M99 199q0 -67 40.5 -112.5t109.5 -45.5q74 0 126.5 58t52.5 142q0 68 -41.5 113t-109.5 45q-75 0 -126.5 -58.5t-51.5 -141.5zM464 441h60l-76 -441h-60l13 68q-25 -36 -67.5 -58t-92.5 -22q-89 0 -145 59.5t-56 149.5q0 110 69 183t164 73q58 0 106 -30.5t67 -84.5l7 41
zM191 529l114 159h73l60 -159h-57l-44 114l-83 -114h-63z" />
    <glyph glyph-name="atilde" unicode="&#xe3;" horiz-adv-x="557" 
d="M99 199q0 -67 40.5 -112.5t109.5 -45.5q74 0 126.5 58t52.5 142q0 68 -41.5 113t-109.5 45q-75 0 -126.5 -58.5t-51.5 -141.5zM464 441h60l-76 -441h-60l13 68q-25 -36 -67.5 -58t-92.5 -22q-89 0 -145 59.5t-56 149.5q0 110 69 183t164 73q58 0 106 -30.5t67 -84.5l7 41
zM385 536q-24 0 -64 23t-51 23q-31 0 -35 -36l-1 -10l-51 5q0 13 3 26.5t11 31t26 28.5t45 11q25 0 65 -23t50 -23q31 0 35 36l1 10l51 -5q0 -13 -3 -26.5t-11 -31t-26 -28.5t-45 -11z" />
    <glyph glyph-name="adieresis" unicode="&#xe4;" horiz-adv-x="557" 
d="M99 199q0 -67 40.5 -112.5t109.5 -45.5q74 0 126.5 58t52.5 142q0 68 -41.5 113t-109.5 45q-75 0 -126.5 -58.5t-51.5 -141.5zM464 441h60l-76 -441h-60l13 68q-25 -36 -67.5 -58t-92.5 -22q-89 0 -145 59.5t-56 149.5q0 110 69 183t164 73q58 0 106 -30.5t67 -84.5l7 41
zM240 624q20 0 35 -15t15 -35t-15 -35t-35 -15t-35 15t-15 35t15 35t35 15zM398 624q20 0 35.5 -15t15.5 -35t-15.5 -35t-35.5 -15t-35 15t-15 35t15 35t35 15z" />
    <glyph glyph-name="aring" unicode="&#xe5;" horiz-adv-x="557" 
d="M99 199q0 -67 40.5 -112.5t109.5 -45.5q74 0 126.5 58t52.5 142q0 68 -41.5 113t-109.5 45q-75 0 -126.5 -58.5t-51.5 -141.5zM464 441h60l-76 -441h-60l13 68q-25 -36 -67.5 -58t-92.5 -22q-89 0 -145 59.5t-56 149.5q0 110 69 183t164 73q58 0 106 -30.5t67 -84.5l7 41
zM321 655q-23 0 -39 -16.5t-16 -40.5t16 -40.5t39 -16.5t39 16.5t16 40.5t-16 40.5t-39 16.5zM321 496q-42 0 -73.5 29.5t-31.5 72.5t31.5 72.5t73.5 29.5t73.5 -29.5t31.5 -72.5t-31.5 -72.5t-73.5 -29.5z" />
    <glyph glyph-name="ae" unicode="&#xe6;" horiz-adv-x="805" 
d="M568 453q89 0 144.5 -60.5t55.5 -151.5v-39h-376q0 -67 40 -114t109 -47q90 0 138 77h71q-29 -59 -86.5 -94.5t-124.5 -35.5q-66 0 -114 32t-72 88q-42 -120 -183 -120q-67 0 -108.5 38t-41.5 94q0 68 46.5 100t124.5 32h104q56 0 56 67q0 38 -29.5 59t-73.5 21
q-75 0 -143 -49l-23 52q69 51 172 51q53 0 91.5 -22.5t50.5 -57.5q66 80 172 80zM398 252h310q-3 64 -38.5 105.5t-101.5 41.5q-63 0 -110 -40.5t-60 -106.5zM184 39q56 0 100 46.5t49 129.5q-21 -13 -62 -13h-74q-115 0 -115 -80q0 -34 26.5 -58.5t75.5 -24.5z" />
    <glyph glyph-name="ccedilla" unicode="&#xe7;" horiz-adv-x="490" 
d="M122 -136l75 130q-70 16 -113 72t-43 134q0 106 68.5 179.5t167.5 73.5q64 0 112.5 -30t73.5 -84l-52 -29q-36 89 -132 89q-75 0 -126 -58.5t-51 -144.5q0 -66 40.5 -110.5t108.5 -44.5q91 0 144 87l50 -30q-63 -101 -181 -109l-80 -125h-62z" />
    <glyph glyph-name="egrave" unicode="&#xe8;" horiz-adv-x="514" 
d="M476 241v-39h-375q0 -66 40.5 -113.5t107.5 -47.5q90 0 138 77h71q-29 -59 -85.5 -94.5t-122.5 -35.5q-91 0 -150.5 60t-59.5 152q0 106 69 179.5t167 73.5q89 0 144.5 -60.5t55.5 -151.5zM276 399q-62 0 -109 -41t-61 -106h310q-3 64 -38.5 105.5t-101.5 41.5zM229 688
l66 -159h-57l-83 159h74z" />
    <glyph glyph-name="eacute" unicode="&#xe9;" horiz-adv-x="514" 
d="M476 241v-39h-375q0 -66 40.5 -113.5t107.5 -47.5q90 0 138 77h71q-29 -59 -85.5 -94.5t-122.5 -35.5q-91 0 -150.5 60t-59.5 152q0 106 69 179.5t167 73.5q89 0 144.5 -60.5t55.5 -151.5zM276 399q-62 0 -109 -41t-61 -106h310q-3 64 -38.5 105.5t-101.5 41.5zM268 529
l96 159h74l-108 -159h-62z" />
    <glyph glyph-name="ecircumflex" unicode="&#xea;" horiz-adv-x="514" 
d="M476 241v-39h-375q0 -66 40.5 -113.5t107.5 -47.5q90 0 138 77h71q-29 -59 -85.5 -94.5t-122.5 -35.5q-91 0 -150.5 60t-59.5 152q0 106 69 179.5t167 73.5q89 0 144.5 -60.5t55.5 -151.5zM276 399q-62 0 -109 -41t-61 -106h310q-3 64 -38.5 105.5t-101.5 41.5zM162 529
l114 159h73l60 -159h-57l-44 114l-83 -114h-63z" />
    <glyph glyph-name="edieresis" unicode="&#xeb;" horiz-adv-x="514" 
d="M476 241v-39h-375q0 -66 40.5 -113.5t107.5 -47.5q90 0 138 77h71q-29 -59 -85.5 -94.5t-122.5 -35.5q-91 0 -150.5 60t-59.5 152q0 106 69 179.5t167 73.5q89 0 144.5 -60.5t55.5 -151.5zM276 399q-62 0 -109 -41t-61 -106h310q-3 64 -38.5 105.5t-101.5 41.5zM374 624
q20 0 35.5 -15t15.5 -35t-15.5 -35t-35.5 -15t-35 15t-15 35t15 35t35 15zM216 624q20 0 35 -15t15 -35t-15 -35t-35 -15t-35 15t-15 35t15 35t35 15z" />
    <glyph glyph-name="igrave" unicode="&#xec;" horiz-adv-x="217" 
d="M109 688l66 -159h-57l-83 159h74zM184 441l-77 -441h-60l68 390h-69l8 51h130z" />
    <glyph glyph-name="iacute" unicode="&#xed;" horiz-adv-x="217" 
d="M139 529l96 159h74l-108 -159h-62zM184 441l-77 -441h-60l68 390h-69l8 51h130z" />
    <glyph glyph-name="icircumflex" unicode="&#xee;" horiz-adv-x="217" 
d="M184 441l-77 -441h-60l68 390h-69l8 51h130zM45 529l114 159h73l60 -159h-57l-44 114l-83 -114h-63z" />
    <glyph glyph-name="idieresis" unicode="&#xef;" horiz-adv-x="217" 
d="M77 624q20 0 35 -15t15 -35t-15 -35t-35 -15t-35 15t-15 35t15 35t35 15zM235 624q20 0 35.5 -15t15.5 -35t-15.5 -35t-35.5 -15t-35 15t-15 35t15 35t35 15zM184 441l-77 -441h-60l68 390h-69l8 51h130z" />
    <glyph glyph-name="eth" unicode="&#xf0;" horiz-adv-x="534" 
d="M222 515l-20 39l90 51q-52 60 -86 87h75q28 -23 60 -59l103 59l20 -38l-94 -54q125 -157 125 -318q0 -132 -70.5 -213t-175.5 -81q-91 0 -150 60.5t-59 152.5q0 105 69.5 178.5t168.5 73.5q43 0 83 -18t63 -54l4 1q-27 88 -107 190zM249 41q75 0 126.5 58.5t51.5 144.5
q0 66 -41 110.5t-108 44.5q-76 0 -127 -58.5t-51 -144.5q0 -66 40.5 -110.5t108.5 -44.5z" />
    <glyph glyph-name="ntilde" unicode="&#xf1;" horiz-adv-x="511" 
d="M169 441l-12 -61q88 73 167 73q70 0 107.5 -46.5t24.5 -121.5l-49 -285h-61l51 289q8 47 -13 79t-71 32q-37 0 -82.5 -23.5t-82.5 -56.5l-55 -320h-60l76 441h60zM365 536q-24 0 -64 23t-51 23q-31 0 -35 -36l-1 -10l-51 5q0 13 3 26.5t11 31t26 28.5t45 11q25 0 65 -23
t50 -23q31 0 35 36l1 10l51 -5q0 -13 -3 -26.5t-11 -31t-26 -28.5t-45 -11z" />
    <glyph glyph-name="ograve" unicode="&#xf2;" horiz-adv-x="527" 
d="M249 41q75 0 126.5 58.5t51.5 144.5q0 66 -41 110.5t-108 44.5q-76 0 -127 -58.5t-51 -144.5q0 -66 40.5 -110.5t108.5 -44.5zM250 -12q-91 0 -150.5 60t-59.5 152q0 106 69.5 179.5t167.5 73.5q91 0 150.5 -60.5t59.5 -152.5q0 -105 -69.5 -178.5t-167.5 -73.5zM241 688
l66 -159h-57l-83 159h74z" />
    <glyph glyph-name="oacute" unicode="&#xf3;" horiz-adv-x="527" 
d="M249 41q75 0 126.5 58.5t51.5 144.5q0 66 -41 110.5t-108 44.5q-76 0 -127 -58.5t-51 -144.5q0 -66 40.5 -110.5t108.5 -44.5zM250 -12q-91 0 -150.5 60t-59.5 152q0 106 69.5 179.5t167.5 73.5q91 0 150.5 -60.5t59.5 -152.5q0 -105 -69.5 -178.5t-167.5 -73.5zM281 529
l96 159h74l-108 -159h-62z" />
    <glyph glyph-name="ocircumflex" unicode="&#xf4;" horiz-adv-x="527" 
d="M249 41q75 0 126.5 58.5t51.5 144.5q0 66 -41 110.5t-108 44.5q-76 0 -127 -58.5t-51 -144.5q0 -66 40.5 -110.5t108.5 -44.5zM250 -12q-91 0 -150.5 60t-59.5 152q0 106 69.5 179.5t167.5 73.5q91 0 150.5 -60.5t59.5 -152.5q0 -105 -69.5 -178.5t-167.5 -73.5zM177 529
l114 159h73l60 -159h-57l-44 114l-83 -114h-63z" />
    <glyph glyph-name="otilde" unicode="&#xf5;" horiz-adv-x="527" 
d="M249 41q75 0 126.5 58.5t51.5 144.5q0 66 -41 110.5t-108 44.5q-76 0 -127 -58.5t-51 -144.5q0 -66 40.5 -110.5t108.5 -44.5zM250 -12q-91 0 -150.5 60t-59.5 152q0 106 69.5 179.5t167.5 73.5q91 0 150.5 -60.5t59.5 -152.5q0 -105 -69.5 -178.5t-167.5 -73.5zM371 536
q-24 0 -64 23t-51 23q-31 0 -35 -36l-1 -10l-51 5q0 13 3 26.5t11 31t26 28.5t45 11q25 0 65 -23t50 -23q31 0 35 36l1 10l51 -5q0 -13 -3 -26.5t-11 -31t-26 -28.5t-45 -11z" />
    <glyph glyph-name="odieresis" unicode="&#xf6;" horiz-adv-x="527" 
d="M249 41q75 0 126.5 58.5t51.5 144.5q0 66 -41 110.5t-108 44.5q-76 0 -127 -58.5t-51 -144.5q0 -66 40.5 -110.5t108.5 -44.5zM250 -12q-91 0 -150.5 60t-59.5 152q0 106 69.5 179.5t167.5 73.5q91 0 150.5 -60.5t59.5 -152.5q0 -105 -69.5 -178.5t-167.5 -73.5zM225 624
q20 0 35 -15t15 -35t-15 -35t-35 -15t-35 15t-15 35t15 35t35 15zM383 624q20 0 35.5 -15t15.5 -35t-15.5 -35t-35.5 -15t-35 15t-15 35t15 35t35 15z" />
    <glyph glyph-name="divide" unicode="&#xf7;" horiz-adv-x="480" 
d="M181 185q0 26 18 44t43 18t43 -18t18 -44q0 -25 -17.5 -43t-43.5 -18t-43.5 18t-17.5 43zM241 521q0 26 18 44t43 18t43 -18t18 -44q0 -25 -17.5 -43t-43.5 -18t-43.5 18t-17.5 43zM478 380l-9 -53h-420l9 53h420z" />
    <glyph glyph-name="oslash" unicode="&#xf8;" horiz-adv-x="527" 
d="M250 -12q-76 0 -134 45l-44 -45h-68l78 80q-42 54 -42 132q0 106 69.5 179.5t167.5 73.5q78 0 136 -48l47 48h69l-83 -84q41 -55 41 -129q0 -105 -69.5 -178.5t-167.5 -73.5zM100 196q0 -49 23 -87l251 256q-40 34 -96 34q-76 0 -127 -58.5t-51 -144.5zM249 41
q75 0 126.5 58.5t51.5 144.5q0 45 -22 83l-251 -255q39 -31 95 -31z" />
    <glyph glyph-name="ugrave" unicode="&#xf9;" horiz-adv-x="498" 
d="M102 441h61l-46 -266q-11 -61 18.5 -97t93.5 -36q50 0 86 28.5t45 81.5l51 289h59l-51 -300q-12 -68 -62 -110.5t-129 -42.5q-87 0 -136.5 50t-34.5 139zM244 688l66 -159h-57l-83 159h74z" />
    <glyph glyph-name="uacute" unicode="&#xfa;" horiz-adv-x="498" 
d="M102 441h61l-46 -266q-11 -61 18.5 -97t93.5 -36q50 0 86 28.5t45 81.5l51 289h59l-51 -300q-12 -68 -62 -110.5t-129 -42.5q-87 0 -136.5 50t-34.5 139zM259 529l96 159h74l-108 -159h-62z" />
    <glyph glyph-name="ucircumflex" unicode="&#xfb;" horiz-adv-x="498" 
d="M102 441h61l-46 -266q-11 -61 18.5 -97t93.5 -36q50 0 86 28.5t45 81.5l51 289h59l-51 -300q-12 -68 -62 -110.5t-129 -42.5q-87 0 -136.5 50t-34.5 139zM170 529l114 159h73l60 -159h-57l-44 114l-83 -114h-63z" />
    <glyph glyph-name="udieresis" unicode="&#xfc;" horiz-adv-x="498" 
d="M102 441h61l-46 -266q-11 -61 18.5 -97t93.5 -36q50 0 86 28.5t45 81.5l51 289h59l-51 -300q-12 -68 -62 -110.5t-129 -42.5q-87 0 -136.5 50t-34.5 139zM216 624q20 0 35 -15t15 -35t-15 -35t-35 -15t-35 15t-15 35t15 35t35 15zM374 624q20 0 35.5 -15t15.5 -35
t-15.5 -35t-35.5 -15t-35 15t-15 35t15 35t35 15z" />
    <glyph glyph-name="yacute" unicode="&#xfd;" horiz-adv-x="511" 
d="M332 -56l22 117q-77 -73 -167 -73q-74 0 -109 47t-23 121l49 285h61l-51 -289q-9 -49 11.5 -80.5t70.5 -31.5q75 0 167 81l55 320h60l-85 -491q-23 -125 -140 -125h-131l9 51h113q75 0 88 68zM268 529l96 159h74l-108 -159h-62z" />
    <glyph glyph-name="thorn" unicode="&#xfe;" horiz-adv-x="558" 
d="M154 700h61l-57 -328q24 36 66.5 58.5t91.5 22.5q89 0 145.5 -59.5t56.5 -149.5q0 -110 -69 -183t-165 -73q-58 0 -106 30.5t-66 84.5l-48 -278h-61zM281 41q75 0 126 58.5t51 142.5q0 67 -40.5 112.5t-108.5 45.5q-75 0 -127.5 -58t-52.5 -143q0 -68 42 -113t110 -45z
" />
    <glyph glyph-name="ydieresis" unicode="&#xff;" horiz-adv-x="511" 
d="M332 -56l22 117q-77 -73 -167 -73q-74 0 -109 47t-23 121l49 285h61l-51 -289q-9 -49 11.5 -80.5t70.5 -31.5q75 0 167 81l55 320h60l-85 -491q-23 -125 -140 -125h-131l9 51h113q75 0 88 68zM225 624q20 0 35 -15t15 -35t-15 -35t-35 -15t-35 15t-15 35t15 35t35 15z
M383 624q20 0 35.5 -15t15.5 -35t-15.5 -35t-35.5 -15t-35 15t-15 35t15 35t35 15z" />
    <glyph glyph-name="Amacron" unicode="&#x100;" horiz-adv-x="598" 
d="M435 247h-258l-122 -247h-62l353 700h73l116 -700h-60zM372 639l-169 -338h224l-52 338h-3zM272 806l9 52h255l-9 -52h-255z" />
    <glyph glyph-name="amacron" unicode="&#x101;" horiz-adv-x="557" 
d="M99 199q0 -67 40.5 -112.5t109.5 -45.5q74 0 126.5 58t52.5 142q0 68 -41.5 113t-109.5 45q-75 0 -126.5 -58.5t-51.5 -141.5zM464 441h60l-76 -441h-60l13 68q-25 -36 -67.5 -58t-92.5 -22q-89 0 -145 59.5t-56 149.5q0 110 69 183t164 73q58 0 106 -30.5t67 -84.5l7 41
zM195 547l9 52h255l-9 -52h-255z" />
    <glyph glyph-name="Abreve" unicode="&#x102;" horiz-adv-x="598" 
d="M435 247h-258l-122 -247h-62l353 700h73l116 -700h-60zM372 639l-169 -338h224l-52 338h-3zM395 828q54 0 64 61l6 34h53l-5 -37q-7 -55 -39 -81.5t-81 -26.5t-78 31.5t-19 82.5l6 31h53l-6 -32q-5 -27 6.5 -45t39.5 -18z" />
    <glyph glyph-name="abreve" unicode="&#x103;" horiz-adv-x="557" 
d="M99 199q0 -67 40.5 -112.5t109.5 -45.5q74 0 126.5 58t52.5 142q0 68 -41.5 113t-109.5 45q-75 0 -126.5 -58.5t-51.5 -141.5zM464 441h60l-76 -441h-60l13 68q-25 -36 -67.5 -58t-92.5 -22q-89 0 -145 59.5t-56 149.5q0 110 69 183t164 73q58 0 106 -30.5t67 -84.5l7 41
zM311 569q54 0 64 61l6 34h53l-5 -37q-7 -55 -39 -81.5t-81 -26.5t-78 31.5t-19 82.5l6 31h53l-6 -32q-5 -27 6.5 -45t39.5 -18z" />
    <glyph glyph-name="Aogonek" unicode="&#x104;" horiz-adv-x="598" 
d="M435 247h-258l-122 -247h-62l353 700h73l116 -700h-8q-50 -27 -81 -56t-31 -53q0 -15 12 -23.5t30 -8.5q38 0 74 13l-7 -43q-32 -16 -81 -16q-41 0 -63 19t-22 50q0 76 117 119zM372 639l-169 -338h224l-52 338h-3z" />
    <glyph glyph-name="aogonek" unicode="&#x105;" horiz-adv-x="557" 
d="M464 441h60l-76 -441h-21q-50 -27 -81 -56t-31 -53q0 -15 12 -23.5t30 -8.5q38 0 74 13l-7 -43q-32 -16 -81 -16q-41 0 -63 19t-22 50q0 78 131 124l12 62q-25 -36 -67.5 -58t-92.5 -22q-89 0 -145 59.5t-56 149.5q0 110 69 183t164 73q58 0 106 -30.5t67 -84.5l7 41z
M99 199q0 -67 40.5 -112.5t109.5 -45.5q74 0 126.5 58t52.5 142q0 68 -41.5 113t-109.5 45q-75 0 -126.5 -58.5t-51.5 -141.5z" />
    <glyph glyph-name="Cacute" unicode="&#x106;" horiz-adv-x="756" 
d="M749 479h-64q-24 82 -87.5 130t-157.5 48q-127 0 -218.5 -97.5t-91.5 -240.5q0 -118 72.5 -197t193.5 -79q86 0 156.5 48t110.5 130h67q-44 -106 -136 -169.5t-201 -63.5q-141 0 -233.5 94t-92.5 238q0 168 112.5 280t262.5 112q114 0 197.5 -64.5t109.5 -168.5zM428 788
l96 159h74l-108 -159h-62z" />
    <glyph glyph-name="cacute" unicode="&#x107;" horiz-adv-x="488" 
d="M394 128l50 -30q-31 -51 -82.5 -80.5t-113.5 -29.5q-91 0 -149.5 60t-58.5 152q0 106 68.5 179.5t167.5 73.5q64 0 112.5 -30t73.5 -84l-52 -29q-36 89 -132 89q-75 0 -126 -58.5t-51 -144.5q0 -66 40.5 -110.5t108.5 -44.5q91 0 144 87zM261 529l96 159h74l-108 -159
h-62z" />
    <glyph glyph-name="Ccircumflex" unicode="&#x108;" horiz-adv-x="756" 
d="M749 479h-64q-24 82 -87.5 130t-157.5 48q-127 0 -218.5 -97.5t-91.5 -240.5q0 -118 72.5 -197t193.5 -79q86 0 156.5 48t110.5 130h67q-44 -106 -136 -169.5t-201 -63.5q-141 0 -233.5 94t-92.5 238q0 168 112.5 280t262.5 112q114 0 197.5 -64.5t109.5 -168.5zM333 788
l114 159h73l60 -159h-57l-44 114l-83 -114h-63z" />
    <glyph glyph-name="ccircumflex" unicode="&#x109;" horiz-adv-x="488" 
d="M394 128l50 -30q-31 -51 -82.5 -80.5t-113.5 -29.5q-91 0 -149.5 60t-58.5 152q0 106 68.5 179.5t167.5 73.5q64 0 112.5 -30t73.5 -84l-52 -29q-36 89 -132 89q-75 0 -126 -58.5t-51 -144.5q0 -66 40.5 -110.5t108.5 -44.5q91 0 144 87zM172 529l114 159h73l60 -159h-57
l-44 114l-83 -114h-63z" />
    <glyph glyph-name="Cdotaccent" unicode="&#x10a;" horiz-adv-x="756" 
d="M749 479h-64q-24 82 -87.5 130t-157.5 48q-127 0 -218.5 -97.5t-91.5 -240.5q0 -118 72.5 -197t193.5 -79q86 0 156.5 48t110.5 130h67q-44 -106 -136 -169.5t-201 -63.5q-141 0 -233.5 94t-92.5 238q0 168 112.5 280t262.5 112q114 0 197.5 -64.5t109.5 -168.5zM463 896
q22 0 38 -16t16 -38t-16 -37.5t-38 -15.5t-38 15.5t-16 37.5t16 38t38 16z" />
    <glyph glyph-name="cdotaccent" unicode="&#x10b;" horiz-adv-x="488" 
d="M394 128l50 -30q-31 -51 -82.5 -80.5t-113.5 -29.5q-91 0 -149.5 60t-58.5 152q0 106 68.5 179.5t167.5 73.5q64 0 112.5 -30t73.5 -84l-52 -29q-36 89 -132 89q-75 0 -126 -58.5t-51 -144.5q0 -66 40.5 -110.5t108.5 -44.5q91 0 144 87zM298 637q22 0 38 -16t16 -38
t-16 -37.5t-38 -15.5t-38 15.5t-16 37.5t16 38t38 16z" />
    <glyph glyph-name="Ccaron" unicode="&#x10c;" horiz-adv-x="756" 
d="M749 479h-64q-24 82 -87.5 130t-157.5 48q-127 0 -218.5 -97.5t-91.5 -240.5q0 -118 72.5 -197t193.5 -79q86 0 156.5 48t110.5 130h67q-44 -106 -136 -169.5t-201 -63.5q-141 0 -233.5 94t-92.5 238q0 168 112.5 280t262.5 112q114 0 197.5 -64.5t109.5 -168.5zM610 947
l-114 -159h-73l-60 159h57l44 -114l83 114h63z" />
    <glyph glyph-name="ccaron" unicode="&#x10d;" horiz-adv-x="488" 
d="M394 128l50 -30q-31 -51 -82.5 -80.5t-113.5 -29.5q-91 0 -149.5 60t-58.5 152q0 106 68.5 179.5t167.5 73.5q64 0 112.5 -30t73.5 -84l-52 -29q-36 89 -132 89q-75 0 -126 -58.5t-51 -144.5q0 -66 40.5 -110.5t108.5 -44.5q91 0 144 87zM446 688l-114 -159h-73l-60 159
h57l44 -114l83 114h63z" />
    <glyph glyph-name="Dcaron" unicode="&#x10e;" horiz-adv-x="683" 
d="M661 401q0 -177 -108.5 -289t-299.5 -112h-201l122 700h161q154 0 240 -83t86 -216zM242 54q163 0 259.5 91.5t96.5 257.5q0 114 -74 178t-197 64h-101l-103 -591h119zM536 947l-114 -159h-73l-60 159h57l44 -114l83 114h63z" />
    <glyph glyph-name="dcaron" unicode="&#x10f;" horiz-adv-x="558" 
d="M100 199q0 -67 40.5 -112.5t108.5 -45.5q75 0 127.5 58t52.5 142q0 68 -41.5 113t-109.5 45q-75 0 -126.5 -58.5t-51.5 -141.5zM274 453q58 0 106.5 -30.5t66.5 -84.5l21 124l41 238h61l-122 -700h-59l12 68q-24 -35 -67 -57.5t-92 -22.5q-89 0 -145.5 59.5t-56.5 149.5
q0 110 69 183t165 73zM627 659q0 21 15.5 37t37.5 16t37 -15t15 -36t-16 -41l-74 -93l-44 8l53 80q-24 14 -24 44z" />
    <glyph glyph-name="Dcroat" unicode="&#x110;" horiz-adv-x="694" 
d="M6 329l8 55h116l55 316h161q154 0 240 -83t86 -216q0 -177 -108.5 -289t-299.5 -112h-201l57 329h-114zM253 54q163 0 259.5 91.5t96.5 257.5q0 114 -74 178t-197 64h-101l-46 -261h209l-9 -55h-209l-48 -275h119z" />
    <glyph glyph-name="dcroat" unicode="&#x111;" horiz-adv-x="557" 
d="M318 547l9 51h164l18 102h61l-18 -102h70l-9 -51h-70l-95 -547h-59l12 68q-24 -35 -67 -57.5t-92 -22.5q-89 0 -145.5 59.5t-56.5 149.5q0 110 69 183t165 73q58 0 106.5 -30.5t66.5 -84.5l21 124l14 85h-164zM100 199q0 -67 40.5 -112.5t108.5 -45.5q75 0 127.5 58
t52.5 142q0 68 -41.5 113t-109.5 45q-75 0 -126.5 -58.5t-51.5 -141.5z" />
    <glyph glyph-name="Emacron" unicode="&#x112;" horiz-adv-x="582" 
d="M632 700l-9 -56h-397l-45 -260h255l-10 -55h-255l-48 -274h397l-10 -55h-458l122 700h458zM282 806l9 52h255l-9 -52h-255z" />
    <glyph glyph-name="emacron" unicode="&#x113;" horiz-adv-x="514" 
d="M476 241v-39h-375q0 -66 40.5 -113.5t107.5 -47.5q90 0 138 77h71q-29 -59 -85.5 -94.5t-122.5 -35.5q-91 0 -150.5 60t-59.5 152q0 106 69 179.5t167 73.5q89 0 144.5 -60.5t55.5 -151.5zM276 399q-62 0 -109 -41t-61 -106h310q-3 64 -38.5 105.5t-101.5 41.5zM164 547
l9 52h255l-9 -52h-255z" />
    <glyph glyph-name="Ebreve" unicode="&#x114;" horiz-adv-x="582" 
d="M632 700l-9 -56h-397l-45 -260h255l-10 -55h-255l-48 -274h397l-10 -55h-458l122 700h458zM405 828q54 0 64 61l6 34h53l-5 -37q-7 -55 -39 -81.5t-81 -26.5t-78 31.5t-19 82.5l6 31h53l-6 -32q-5 -27 6.5 -45t39.5 -18z" />
    <glyph glyph-name="ebreve" unicode="&#x115;" horiz-adv-x="514" 
d="M476 241v-39h-375q0 -66 40.5 -113.5t107.5 -47.5q90 0 138 77h71q-29 -59 -85.5 -94.5t-122.5 -35.5q-91 0 -150.5 60t-59.5 152q0 106 69 179.5t167 73.5q89 0 144.5 -60.5t55.5 -151.5zM276 399q-62 0 -109 -41t-61 -106h310q-3 64 -38.5 105.5t-101.5 41.5zM303 569
q54 0 64 61l6 34h53l-5 -37q-7 -55 -39 -81.5t-81 -26.5t-78 31.5t-19 82.5l6 31h53l-6 -32q-5 -27 6.5 -45t39.5 -18z" />
    <glyph glyph-name="Edotaccent" unicode="&#x116;" horiz-adv-x="582" 
d="M632 700l-9 -56h-397l-45 -260h255l-10 -55h-255l-48 -274h397l-10 -55h-458l122 700h458zM414 896q22 0 38 -16t16 -38t-16 -37.5t-38 -15.5t-38 15.5t-16 37.5t16 38t38 16z" />
    <glyph glyph-name="edotaccent" unicode="&#x117;" horiz-adv-x="514" 
d="M476 241v-39h-375q0 -66 40.5 -113.5t107.5 -47.5q90 0 138 77h71q-29 -59 -85.5 -94.5t-122.5 -35.5q-91 0 -150.5 60t-59.5 152q0 106 69 179.5t167 73.5q89 0 144.5 -60.5t55.5 -151.5zM276 399q-62 0 -109 -41t-61 -106h310q-3 64 -38.5 105.5t-101.5 41.5zM301 637
q22 0 38 -16t16 -38t-16 -37.5t-38 -15.5t-38 15.5t-16 37.5t16 38t38 16z" />
    <glyph glyph-name="Eogonek" unicode="&#x118;" horiz-adv-x="582" 
d="M632 700l-9 -56h-397l-45 -260h255l-10 -55h-255l-48 -274h397l-10 -55h-68q-50 -27 -81 -56t-31 -53q0 -15 12 -23.5t30 -8.5q38 0 74 13l-7 -43q-32 -16 -81 -16q-41 0 -63 19t-22 50q0 73 113 118h-334l122 700h458z" />
    <glyph glyph-name="eogonek" unicode="&#x119;" horiz-adv-x="515" 
d="M477 241v-39h-375q0 -66 40.5 -113.5t107.5 -47.5q90 0 138 77h71q-29 -59 -85.5 -94.5t-122.5 -35.5h-4q-90 -53 -90 -97q0 -15 12 -23.5t30 -8.5q38 0 74 13l-7 -43q-32 -16 -81 -16q-41 0 -63 19t-22 50q0 69 98 112q-70 17 -113.5 73t-43.5 133q0 106 69 179.5
t167 73.5q89 0 144.5 -60.5t55.5 -151.5zM277 399q-62 0 -109 -41t-61 -106h310q-3 64 -38.5 105.5t-101.5 41.5z" />
    <glyph glyph-name="Ecaron" unicode="&#x11a;" horiz-adv-x="582" 
d="M632 700l-9 -56h-397l-45 -260h255l-10 -55h-255l-48 -274h397l-10 -55h-458l122 700h458zM551 947l-114 -159h-73l-60 159h57l44 -114l83 114h63z" />
    <glyph glyph-name="ecaron" unicode="&#x11b;" horiz-adv-x="514" 
d="M476 241v-39h-375q0 -66 40.5 -113.5t107.5 -47.5q90 0 138 77h71q-29 -59 -85.5 -94.5t-122.5 -35.5q-91 0 -150.5 60t-59.5 152q0 106 69 179.5t167 73.5q89 0 144.5 -60.5t55.5 -151.5zM276 399q-62 0 -109 -41t-61 -106h310q-3 64 -38.5 105.5t-101.5 41.5zM452 688
l-114 -159h-73l-60 159h57l44 -114l83 114h63z" />
    <glyph glyph-name="Gcircumflex" unicode="&#x11c;" horiz-adv-x="774" 
d="M390 -12q-140 0 -231.5 94t-91.5 238q0 168 113 280t263 112q114 0 197.5 -64.5t109.5 -168.5h-64q-24 82 -87.5 130t-157.5 48q-127 0 -219 -96.5t-92 -239.5q0 -118 74.5 -198t195.5 -80q101 0 173 64.5t91 141.5h-188l8 56h253l-53 -305h-58l23 128
q-17 -30 -45.5 -58.5t-86.5 -55t-127 -26.5zM333 788l114 159h73l60 -159h-57l-44 114l-83 -114h-63z" />
    <glyph glyph-name="gcircumflex" unicode="&#x11d;" horiz-adv-x="557" 
d="M524 441l-85 -490q-10 -60 -41.5 -93t-98.5 -33h-171l9 50h153q36 0 58 14t29 51l24 128q-25 -36 -67.5 -58t-91.5 -22q-89 0 -145.5 59.5t-56.5 149.5q0 110 69 183t165 73q58 0 106 -30.5t66 -84.5l18 103h60zM100 199q0 -67 40 -112.5t109 -45.5q75 0 127 58t52 142
q0 68 -41.5 113t-109.5 45q-75 0 -126 -58.5t-51 -141.5zM194 529l114 159h73l60 -159h-57l-44 114l-83 -114h-63z" />
    <glyph glyph-name="Gbreve" unicode="&#x11e;" horiz-adv-x="774" 
d="M390 -12q-140 0 -231.5 94t-91.5 238q0 168 113 280t263 112q114 0 197.5 -64.5t109.5 -168.5h-64q-24 82 -87.5 130t-157.5 48q-127 0 -219 -96.5t-92 -239.5q0 -118 74.5 -198t195.5 -80q101 0 173 64.5t91 141.5h-188l8 56h253l-53 -305h-58l23 128
q-17 -30 -45.5 -58.5t-86.5 -55t-127 -26.5zM461 828q54 0 64 61l6 34h53l-5 -37q-7 -55 -39 -81.5t-81 -26.5t-78 31.5t-19 82.5l6 31h53l-6 -32q-5 -27 6.5 -45t39.5 -18z" />
    <glyph glyph-name="gbreve" unicode="&#x11f;" horiz-adv-x="557" 
d="M524 441l-85 -490q-10 -60 -41.5 -93t-98.5 -33h-171l9 50h153q36 0 58 14t29 51l24 128q-25 -36 -67.5 -58t-91.5 -22q-89 0 -145.5 59.5t-56.5 149.5q0 110 69 183t165 73q58 0 106 -30.5t66 -84.5l18 103h60zM100 199q0 -67 40 -112.5t109 -45.5q75 0 127 58t52 142
q0 68 -41.5 113t-109.5 45q-75 0 -126 -58.5t-51 -141.5zM310 569q54 0 64 61l6 34h53l-5 -37q-7 -55 -39 -81.5t-81 -26.5t-78 31.5t-19 82.5l6 31h53l-6 -32q-5 -27 6.5 -45t39.5 -18z" />
    <glyph glyph-name="Gdotaccent" unicode="&#x120;" horiz-adv-x="774" 
d="M390 -12q-140 0 -231.5 94t-91.5 238q0 168 113 280t263 112q114 0 197.5 -64.5t109.5 -168.5h-64q-24 82 -87.5 130t-157.5 48q-127 0 -219 -96.5t-92 -239.5q0 -118 74.5 -198t195.5 -80q101 0 173 64.5t91 141.5h-188l8 56h253l-53 -305h-58l23 128
q-17 -30 -45.5 -58.5t-86.5 -55t-127 -26.5zM469 896q22 0 38 -16t16 -38t-16 -37.5t-38 -15.5t-38 15.5t-16 37.5t16 38t38 16z" />
    <glyph glyph-name="gdotaccent" unicode="&#x121;" horiz-adv-x="557" 
d="M524 441l-85 -490q-10 -60 -41.5 -93t-98.5 -33h-171l9 50h153q36 0 58 14t29 51l24 128q-25 -36 -67.5 -58t-91.5 -22q-89 0 -145.5 59.5t-56.5 149.5q0 110 69 183t165 73q58 0 106 -30.5t66 -84.5l18 103h60zM100 199q0 -67 40 -112.5t109 -45.5q75 0 127 58t52 142
q0 68 -41.5 113t-109.5 45q-75 0 -126 -58.5t-51 -141.5zM322 637q22 0 38 -16t16 -38t-16 -37.5t-38 -15.5t-38 15.5t-16 37.5t16 38t38 16z" />
    <glyph glyph-name="Gcommaaccent" unicode="&#x122;" horiz-adv-x="774" 
d="M390 -12q-140 0 -231.5 94t-91.5 238q0 168 113 280t263 112q114 0 197.5 -64.5t109.5 -168.5h-64q-24 82 -87.5 130t-157.5 48q-127 0 -219 -96.5t-92 -239.5q0 -118 74.5 -198t195.5 -80q101 0 173 64.5t91 141.5h-188l8 56h253l-53 -305h-58l23 128
q-17 -30 -45.5 -58.5t-86.5 -55t-127 -26.5zM273 -127q0 21 15.5 37t37.5 16t37 -15t15 -36t-16 -41l-74 -93l-44 8l53 80q-24 14 -24 44z" />
    <glyph glyph-name="gcommaaccent" unicode="&#x123;" horiz-adv-x="557" 
d="M524 441l-85 -490q-10 -60 -41.5 -93t-98.5 -33h-171l9 50h153q36 0 58 14t29 51l24 128q-25 -36 -67.5 -58t-91.5 -22q-89 0 -145.5 59.5t-56.5 149.5q0 110 69 183t165 73q58 0 106 -30.5t66 -84.5l18 103h60zM100 199q0 -67 40 -112.5t109 -45.5q75 0 127 58t52 142
q0 68 -41.5 113t-109.5 45q-75 0 -126 -58.5t-51 -141.5zM361 561q0 -21 -15.5 -37t-37.5 -16t-37 15t-15 36t16 41l74 93l44 -8l-53 -80q24 -14 24 -44z" />
    <glyph glyph-name="Hcircumflex" unicode="&#x124;" horiz-adv-x="657" 
d="M529 0h-62l58 329h-354l-57 -329h-62l122 700h62l-55 -316h353l55 316h62zM290 788l114 159h73l60 -159h-57l-44 114l-83 -114h-63z" />
    <glyph glyph-name="hcircumflex" unicode="&#x125;" horiz-adv-x="510" 
d="M147 320l-55 -320h-60l121 700h60l-35 -197l-22 -123q88 73 167 73q70 0 107.5 -46.5t24.5 -121.5l-49 -285h-61l51 289q8 47 -13 79t-71 32q-37 0 -82.5 -23.5t-82.5 -56.5zM220 788l114 159h73l60 -159h-57l-44 114l-83 -114h-63z" />
    <glyph glyph-name="Hbar" unicode="&#x126;" horiz-adv-x="660" 
d="M49 505l10 55h92l25 140h62l-25 -140h353l25 140h62l-25 -140h91l-9 -55h-91l-88 -505h-62l58 329h-354l-57 -329h-62l88 505h-93zM183 384h353l21 121h-353z" />
    <glyph glyph-name="hbar" unicode="&#x127;" horiz-adv-x="511" 
d="M58 547l9 51h69l18 102h60l-18 -102h166l-10 -51h-165l-8 -44l-22 -123q88 73 167 73q70 0 107.5 -46.5t24.5 -121.5l-49 -285h-61l51 289q8 47 -13 79t-71 32q-37 0 -82.5 -23.5t-82.5 -56.5l-55 -320h-60l94 547h-69z" />
    <glyph glyph-name="Itilde" unicode="&#x128;" horiz-adv-x="242" 
d="M52 0l122 700h62l-122 -700h-62zM282 795q-24 0 -64 23t-51 23q-31 0 -35 -36l-1 -10l-51 5q0 13 3 26.5t11 31t26 28.5t45 11q25 0 65 -23t50 -23q31 0 35 36l1 10l51 -5q0 -13 -3 -26.5t-11 -31t-26 -28.5t-45 -11z" />
    <glyph glyph-name="itilde" unicode="&#x129;" horiz-adv-x="217" 
d="M184 441l-77 -441h-60l68 390h-69l8 51h130zM222 536q-24 0 -64 23t-51 23q-31 0 -35 -36l-1 -10l-51 5q0 13 3 26.5t11 31t26 28.5t45 11q25 0 65 -23t50 -23q31 0 35 36l1 10l51 -5q0 -13 -3 -26.5t-11 -31t-26 -28.5t-45 -11z" />
    <glyph glyph-name="Imacron" unicode="&#x12a;" horiz-adv-x="242" 
d="M52 0l122 700h62l-122 -700h-62zM95 806l9 52h255l-9 -52h-255z" />
    <glyph glyph-name="imacron" unicode="&#x12b;" horiz-adv-x="217" 
d="M184 441l-77 -441h-60l68 390h-69l8 51h130zM35 547l9 52h255l-9 -52h-255z" />
    <glyph glyph-name="Ibreve" unicode="&#x12c;" horiz-adv-x="242" 
d="M52 0l122 700h62l-122 -700h-62zM218 828q54 0 64 61l6 34h53l-5 -37q-7 -55 -39 -81.5t-81 -26.5t-78 31.5t-19 82.5l6 31h53l-6 -32q-5 -27 6.5 -45t39.5 -18z" />
    <glyph glyph-name="ibreve" unicode="&#x12d;" horiz-adv-x="217" 
d="M184 441l-77 -441h-60l68 390h-69l8 51h130zM160 569q54 0 64 61l6 34h53l-5 -37q-7 -55 -39 -81.5t-81 -26.5t-78 31.5t-19 82.5l6 31h53l-6 -32q-5 -27 6.5 -45t39.5 -18z" />
    <glyph glyph-name="Iogonek" unicode="&#x12e;" horiz-adv-x="242" 
d="M114 0h-8q-50 -27 -81 -56t-31 -53q0 -15 12 -23.5t30 -8.5q38 0 74 13l-7 -43q-32 -16 -81 -16q-41 0 -63 19t-22 50q0 75 115 118l122 700h62z" />
    <glyph glyph-name="iogonek" unicode="&#x12f;" horiz-adv-x="217" 
d="M184 441l-77 -441h-5q-50 -27 -81 -56t-31 -53q0 -15 12 -23.5t30 -8.5q38 0 74 13l-7 -43q-32 -16 -81 -16q-41 0 -63 19t-22 50q0 75 114 118l68 390h-69l8 51h130zM124 601q0 22 15.5 37t37.5 15t37 -15t15 -37t-15 -37.5t-37 -15.5t-37.5 15.5t-15.5 37.5z" />
    <glyph glyph-name="Idotaccent" unicode="&#x130;" horiz-adv-x="242" 
d="M52 0l122 700h62l-122 -700h-62zM228 896q22 0 38 -16t16 -38t-16 -37.5t-38 -15.5t-38 15.5t-16 37.5t16 38t38 16z" />
    <glyph glyph-name="dotlessi" unicode="&#x131;" horiz-adv-x="217" 
d="M184 441l-77 -441h-60l68 390h-69l8 51h130z" />
    <glyph glyph-name="IJ" unicode="&#x132;" horiz-adv-x="809" 
d="M52 0l122 700h62l-122 -700h-62zM278 273h61l-7 -38q-15 -84 25.5 -138.5t128.5 -54.5q74 0 119 47t58 122l85 489h62l-87 -499q-17 -97 -78.5 -155t-161.5 -58q-113 0 -172 70.5t-38 186.5z" />
    <glyph glyph-name="ij" unicode="&#x133;" horiz-adv-x="435" 
d="M184 441l-77 -441h-60l68 390h-69l8 51h130zM124 601q0 22 15.5 37t37.5 15t37 -15t15 -37t-15 -37.5t-37 -15.5t-37.5 15.5t-15.5 37.5zM250 -82l82 472h-69l9 51h130l-92 -528q-9 -50 -35.5 -69t-68.5 -19h-61l9 50h42q24 0 37 9.5t17 33.5zM342 601q0 22 15 37t37 15
t37.5 -15t15.5 -37t-15.5 -37.5t-37.5 -15.5t-37 15.5t-15 37.5z" />
    <glyph glyph-name="Jcircumflex" unicode="&#x134;" horiz-adv-x="568" 
d="M36 273h61l-7 -38q-15 -84 25.5 -138.5t128.5 -54.5q74 0 119 47t58 122l85 489h62l-87 -499q-17 -97 -78.5 -155t-161.5 -58q-113 0 -172 70.5t-38 186.5zM236 788l114 159h73l60 -159h-57l-44 114l-83 -114h-63z" />
    <glyph glyph-name="jcircumflex" unicode="&#x135;" horiz-adv-x="218" 
d="M37 529l114 159h73l60 -159h-57l-44 114l-83 -114h-63zM33 -82l82 472h-69l9 51h130l-92 -528q-9 -50 -35.5 -69t-68.5 -19h-61l9 50h42q24 0 37 9.5t17 33.5z" />
    <glyph glyph-name="Kcommaaccent" unicode="&#x136;" horiz-adv-x="581" 
d="M236 700l-53 -305h25l372 305h84l-409 -333l279 -367h-75l-255 340h-31l-59 -340h-62l122 700h62zM196 -127q0 21 15.5 37t37.5 16t37 -15t15 -36t-16 -41l-74 -93l-44 8l53 80q-24 14 -24 44z" />
    <glyph glyph-name="kcommaaccent" unicode="&#x137;" horiz-adv-x="454" 
d="M214 700l-75 -430h55l192 171h84l-231 -197l165 -244h-70l-143 217h-61l-38 -217h-60l122 700h60zM138 -127q0 21 15.5 37t37.5 16t37 -15t15 -36t-16 -41l-74 -93l-44 8l53 80q-24 14 -24 44z" />
    <glyph glyph-name="kgreenlandic" unicode="&#x138;" horiz-adv-x="463" 
d="M168 441l-32 -186h81l184 186h76l-217 -215l153 -226h-70l-131 202h-86l-35 -202h-59l77 441h59z" />
    <glyph glyph-name="Lacute" unicode="&#x139;" horiz-adv-x="470" 
d="M422 0h-370l122 700h62l-113 -645h309zM266 788l96 159h74l-108 -159h-62z" />
    <glyph glyph-name="lacute" unicode="&#x13a;" horiz-adv-x="202" 
d="M214 700l-122 -700h-60l122 700h60zM172 788l96 159h74l-108 -159h-62z" />
    <glyph glyph-name="Lcommaaccent" unicode="&#x13b;" horiz-adv-x="470" 
d="M422 0h-370l122 700h62l-113 -645h309zM163 -127q0 21 15.5 37t37.5 16t37 -15t15 -36t-16 -41l-74 -93l-44 8l53 80q-24 14 -24 44z" />
    <glyph glyph-name="lcommaaccent" unicode="&#x13c;" horiz-adv-x="202" 
d="M214 700l-122 -700h-60l122 700h60zM-16 -127q0 21 15.5 37t37.5 16t37 -15t15 -36t-16 -41l-74 -93l-44 8l53 80q-24 14 -24 44z" />
    <glyph glyph-name="Lcaron" unicode="&#x13d;" horiz-adv-x="471" 
d="M422 0h-370l122 700h62l-113 -645h309zM367 659q0 21 15.5 37t37.5 16t37 -15t15 -36t-16 -41l-74 -93l-44 8l53 80q-24 14 -24 44z" />
    <glyph glyph-name="lcaron" unicode="&#x13e;" horiz-adv-x="202" 
d="M214 700l-122 -700h-60l122 700h60zM271 659q0 21 15.5 37t37.5 16t37 -15t15 -36t-16 -41l-74 -93l-44 8l53 80q-24 14 -24 44z" />
    <glyph glyph-name="Ldot" unicode="&#x13f;" horiz-adv-x="471" 
d="M422 0h-370l122 700h62l-113 -645h309zM304 355q0 26 18 44t43 18t43.5 -18.5t18.5 -43.5t-18.5 -43t-43.5 -18t-43 18t-18 43z" />
    <glyph glyph-name="ldot" unicode="&#x140;" horiz-adv-x="335" 
d="M214 700l-122 -700h-60l122 700h60zM231 363q0 26 18 44t43 18t43.5 -18.5t18.5 -43.5t-18.5 -43t-43.5 -18q-26 0 -43.5 18t-17.5 43z" />
    <glyph glyph-name="Lslash" unicode="&#x141;" horiz-adv-x="477" 
d="M24 249l10 57l83 28l64 366h62l-61 -344l218 74l-10 -58l-218 -73l-42 -244h309l-10 -55h-370l48 277z" />
    <glyph glyph-name="lslash" unicode="&#x142;" horiz-adv-x="211" 
d="M220 700l-56 -321l75 41l-10 -58l-75 -42l-56 -320h-60l49 283l-74 -41l9 59l76 41l62 358h60z" />
    <glyph glyph-name="Nacute" unicode="&#x143;" horiz-adv-x="657" 
d="M223 623l-109 -623h-62l122 700h85l223 -610l107 610h62l-122 -700h-76zM385 795l96 159h74l-108 -159h-62z" />
    <glyph glyph-name="nacute" unicode="&#x144;" horiz-adv-x="511" 
d="M169 441l-12 -61q88 73 167 73q70 0 107.5 -46.5t24.5 -121.5l-49 -285h-61l51 289q8 47 -13 79t-71 32q-37 0 -82.5 -23.5t-82.5 -56.5l-55 -320h-60l76 441h60zM257 529l96 159h74l-108 -159h-62z" />
    <glyph glyph-name="Ncommaaccent" unicode="&#x145;" horiz-adv-x="657" 
d="M223 623l-109 -623h-62l122 700h85l223 -610l107 610h62l-122 -700h-76zM212 -127q0 21 15.5 37t37.5 16t37 -15t15 -36t-16 -41l-74 -93l-44 8l53 80q-24 14 -24 44z" />
    <glyph glyph-name="ncommaaccent" unicode="&#x146;" horiz-adv-x="511" 
d="M169 441l-12 -61q88 73 167 73q70 0 107.5 -46.5t24.5 -121.5l-49 -285h-61l51 289q8 47 -13 79t-71 32q-37 0 -82.5 -23.5t-82.5 -56.5l-55 -320h-60l76 441h60zM150 -127q0 21 15.5 37t37.5 16t37 -15t15 -36t-16 -41l-74 -93l-44 8l53 80q-24 14 -24 44z" />
    <glyph glyph-name="Ncaron" unicode="&#x147;" horiz-adv-x="657" 
d="M223 623l-109 -623h-62l122 700h85l223 -610l107 610h62l-122 -700h-76zM576 954l-114 -159h-73l-60 159h57l44 -114l83 114h63z" />
    <glyph glyph-name="ncaron" unicode="&#x148;" horiz-adv-x="511" 
d="M169 441l-12 -61q88 73 167 73q70 0 107.5 -46.5t24.5 -121.5l-49 -285h-61l51 289q8 47 -13 79t-71 32q-37 0 -82.5 -23.5t-82.5 -56.5l-55 -320h-60l76 441h60zM451 688l-114 -159h-73l-60 159h57l44 -114l83 114h63z" />
    <glyph glyph-name="napostrophe" unicode="&#x149;" horiz-adv-x="511" 
d="M169 441l-12 -61q88 73 167 73q70 0 107.5 -46.5t24.5 -121.5l-49 -285h-61l51 289q8 47 -13 79t-71 32q-37 0 -82.5 -23.5t-82.5 -56.5l-55 -320h-60l76 441h60zM143 659q0 21 15.5 37t37.5 16t37 -15t15 -36t-16 -41l-74 -93l-44 8l53 80q-24 14 -24 44z" />
    <glyph glyph-name="Eng" unicode="&#x14a;" horiz-adv-x="658" 
d="M223 623l-109 -623h-62l122 700h85l223 -610l107 610h62l-131 -755q-10 -62 -42.5 -91t-103.5 -29h-54l10 56h27q53 0 74 13.5t29 64.5l7 41h-14z" />
    <glyph glyph-name="eng" unicode="&#x14b;" horiz-adv-x="511" 
d="M456 285l-64 -372q-9 -50 -36 -69t-69 -19h-61l9 50h42q24 0 37 9.5t17 33.5l66 371q8 47 -13 79t-71 32q-37 0 -82.5 -23.5t-82.5 -56.5l-55 -320h-60l76 441h60l-12 -61q88 73 167 73q70 0 107.5 -46.5t24.5 -121.5z" />
    <glyph glyph-name="Omacron" unicode="&#x14c;" horiz-adv-x="791" 
d="M443 712q141 0 233.5 -94t92.5 -238q0 -168 -113 -280t-263 -112q-141 0 -233.5 94t-92.5 238q0 168 113 280t263 112zM396 43q127 0 218.5 97.5t91.5 240.5q0 118 -72.5 197t-193.5 79q-127 0 -218.5 -97.5t-91.5 -241.5q0 -118 72.5 -196.5t193.5 -78.5zM341 813l9 52
h255l-9 -52h-255z" />
    <glyph glyph-name="omacron" unicode="&#x14d;" horiz-adv-x="527" 
d="M249 41q75 0 126.5 58.5t51.5 144.5q0 66 -41 110.5t-108 44.5q-76 0 -127 -58.5t-51 -144.5q0 -66 40.5 -110.5t108.5 -44.5zM250 -12q-91 0 -150.5 60t-59.5 152q0 106 69.5 179.5t167.5 73.5q91 0 150.5 -60.5t59.5 -152.5q0 -105 -69.5 -178.5t-167.5 -73.5zM181 547
l9 52h255l-9 -52h-255z" />
    <glyph glyph-name="Obreve" unicode="&#x14e;" horiz-adv-x="791" 
d="M443 712q141 0 233.5 -94t92.5 -238q0 -168 -113 -280t-263 -112q-141 0 -233.5 94t-92.5 238q0 168 113 280t263 112zM396 43q127 0 218.5 97.5t91.5 240.5q0 118 -72.5 197t-193.5 79q-127 0 -218.5 -97.5t-91.5 -241.5q0 -118 72.5 -196.5t193.5 -78.5zM459 835
q54 0 64 61l6 34h53l-5 -37q-7 -55 -39 -81.5t-81 -26.5t-78 31.5t-19 82.5l6 31h53l-6 -32q-5 -27 6.5 -45t39.5 -18z" />
    <glyph glyph-name="obreve" unicode="&#x14f;" horiz-adv-x="527" 
d="M249 41q75 0 126.5 58.5t51.5 144.5q0 66 -41 110.5t-108 44.5q-76 0 -127 -58.5t-51 -144.5q0 -66 40.5 -110.5t108.5 -44.5zM250 -12q-91 0 -150.5 60t-59.5 152q0 106 69.5 179.5t167.5 73.5q91 0 150.5 -60.5t59.5 -152.5q0 -105 -69.5 -178.5t-167.5 -73.5zM309 569
q54 0 64 61l6 34h53l-5 -37q-7 -55 -39 -81.5t-81 -26.5t-78 31.5t-19 82.5l6 31h53l-6 -32q-5 -27 6.5 -45t39.5 -18z" />
    <glyph glyph-name="Ohungarumlaut" unicode="&#x150;" horiz-adv-x="791" 
d="M443 712q141 0 233.5 -94t92.5 -238q0 -168 -113 -280t-263 -112q-141 0 -233.5 94t-92.5 238q0 168 113 280t263 112zM396 43q127 0 218.5 97.5t91.5 240.5q0 118 -72.5 197t-193.5 79q-127 0 -218.5 -97.5t-91.5 -241.5q0 -118 72.5 -196.5t193.5 -78.5zM364 795
l97 159h74l-107 -159h-64zM501 795l97 159h74l-106 -159h-65z" />
    <glyph glyph-name="ohungarumlaut" unicode="&#x151;" horiz-adv-x="527" 
d="M249 41q75 0 126.5 58.5t51.5 144.5q0 66 -41 110.5t-108 44.5q-76 0 -127 -58.5t-51 -144.5q0 -66 40.5 -110.5t108.5 -44.5zM250 -12q-91 0 -150.5 60t-59.5 152q0 106 69.5 179.5t167.5 73.5q91 0 150.5 -60.5t59.5 -152.5q0 -105 -69.5 -178.5t-167.5 -73.5zM190 529
l97 159h74l-107 -159h-64zM327 529l97 159h74l-106 -159h-65z" />
    <glyph glyph-name="OE" unicode="&#x152;" horiz-adv-x="1019" 
d="M947 0h-564q-151 0 -234 81t-83 213q0 183 117.5 294.5t308.5 111.5h577l-10 -56h-397l-45 -260h255l-10 -55h-255l-48 -274h397zM601 644h-105q-161 0 -264 -92t-103 -258q0 -112 71 -175.5t191 -63.5h107z" />
    <glyph glyph-name="oe" unicode="&#x153;" horiz-adv-x="897" 
d="M859 202h-376q0 -67 40 -114t109 -47q43 0 80 20.5t58 56.5h72q-29 -59 -86 -94.5t-123 -35.5q-67 0 -117 34.5t-68 92.5q-27 -58 -80 -92.5t-118 -34.5q-91 0 -150.5 60t-59.5 152q0 106 69 179.5t167 73.5q67 0 116 -34.5t70 -93.5q28 59 80.5 93.5t116.5 34.5
q89 0 144.5 -60.5t55.5 -151.5v-39zM250 41q75 0 126.5 58.5t51.5 144.5q0 66 -41 110.5t-109 44.5q-75 0 -126 -58.5t-51 -144.5q0 -66 40.5 -110.5t108.5 -44.5zM660 399q-62 0 -109 -41t-61 -106h309q-3 64 -38 105.5t-101 41.5z" />
    <glyph glyph-name="Racute" unicode="&#x154;" horiz-adv-x="587" 
d="M480 0l-170 308h-143l-53 -308h-62l122 700h181q101 0 158.5 -53t57.5 -125q0 -68 -45.5 -127.5t-152.5 -79.5l175 -315h-68zM177 363h123q94 0 150.5 41t56.5 113q0 61 -42 94.5t-117 33.5h-122zM342 795l96 159h74l-108 -159h-62z" />
    <glyph glyph-name="racute" unicode="&#x155;" horiz-adv-x="303" 
d="M320 446l-11 -59h-28q-122 0 -149 -155l-40 -232h-60l77 441h57l-13 -75q20 38 57 60t79 22q20 0 31 -2zM186 529l96 159h74l-108 -159h-62z" />
    <glyph glyph-name="Rcommaaccent" unicode="&#x156;" horiz-adv-x="587" 
d="M480 0l-170 308h-143l-53 -308h-62l122 700h181q101 0 158.5 -53t57.5 -125q0 -68 -45.5 -127.5t-152.5 -79.5l175 -315h-68zM177 363h123q94 0 150.5 41t56.5 113q0 61 -42 94.5t-117 33.5h-122zM184 -127q0 21 15.5 37t37.5 16t37 -15t15 -36t-16 -41l-74 -93l-44 8
l53 80q-24 14 -24 44z" />
    <glyph glyph-name="rcommaaccent" unicode="&#x157;" horiz-adv-x="303" 
d="M320 446l-11 -59h-28q-122 0 -149 -155l-40 -232h-60l77 441h57l-13 -75q20 38 57 60t79 22q20 0 31 -2zM-8 -127q0 21 15.5 37t37.5 16t37 -15t15 -36t-16 -41l-74 -93l-44 8l53 80q-24 14 -24 44z" />
    <glyph glyph-name="Rcaron" unicode="&#x158;" horiz-adv-x="587" 
d="M480 0l-170 308h-143l-53 -308h-62l122 700h181q101 0 158.5 -53t57.5 -125q0 -68 -45.5 -127.5t-152.5 -79.5l175 -315h-68zM177 363h123q94 0 150.5 41t56.5 113q0 61 -42 94.5t-117 33.5h-122zM508 954l-114 -159h-73l-60 159h57l44 -114l83 114h63z" />
    <glyph glyph-name="rcaron" unicode="&#x159;" horiz-adv-x="303" 
d="M320 446l-11 -59h-28q-122 0 -149 -155l-40 -232h-60l77 441h57l-13 -75q20 38 57 60t79 22q20 0 31 -2zM357 688l-114 -159h-73l-60 159h57l44 -114l83 114h63z" />
    <glyph glyph-name="Sacute" unicode="&#x15a;" horiz-adv-x="498" 
d="M515 616l-39 -37q-30 36 -73 58t-91 22q-62 0 -100 -32.5t-38 -86.5q0 -61 80 -121l67 -50q70 -52 98.5 -96.5t28.5 -97.5q0 -78 -57.5 -132.5t-153.5 -54.5q-71 0 -131 31t-94 77l38 43q29 -41 78 -69.5t109 -28.5q68 0 109 39t41 94q0 40 -25.5 75.5t-81.5 76.5l-59 43
q-109 79 -109 166q0 84 58.5 130.5t140.5 46.5q59 0 114 -26t90 -70zM318 795l96 159h74l-108 -159h-62z" />
    <glyph glyph-name="sacute" unicode="&#x15b;" horiz-adv-x="379" 
d="M363 386l-38 -33q-39 52 -106 52q-42 0 -65 -19t-23 -47q0 -39 52 -72l54 -35q83 -53 83 -118q0 -54 -40.5 -90t-111.5 -36q-55 0 -98 22t-66 50l34 42q23 -29 59 -47.5t73 -18.5q45 0 68 22.5t23 51.5q0 25 -17.5 44t-59.5 46l-36 23q-76 48 -76 109q0 53 40.5 87
t102.5 34q92 0 148 -67zM208 529l96 159h74l-108 -159h-62z" />
    <glyph glyph-name="Scircumflex" unicode="&#x15c;" horiz-adv-x="498" 
d="M515 616l-39 -37q-30 36 -73 58t-91 22q-62 0 -100 -32.5t-38 -86.5q0 -61 80 -121l67 -50q70 -52 98.5 -96.5t28.5 -97.5q0 -78 -57.5 -132.5t-153.5 -54.5q-71 0 -131 31t-94 77l38 43q29 -41 78 -69.5t109 -28.5q68 0 109 39t41 94q0 40 -25.5 75.5t-81.5 76.5l-59 43
q-109 79 -109 166q0 84 58.5 130.5t140.5 46.5q59 0 114 -26t90 -70zM213 795l114 159h73l60 -159h-57l-44 114l-83 -114h-63z" />
    <glyph glyph-name="scircumflex" unicode="&#x15d;" horiz-adv-x="379" 
d="M363 386l-38 -33q-39 52 -106 52q-42 0 -65 -19t-23 -47q0 -39 52 -72l54 -35q83 -53 83 -118q0 -54 -40.5 -90t-111.5 -36q-55 0 -98 22t-66 50l34 42q23 -29 59 -47.5t73 -18.5q45 0 68 22.5t23 51.5q0 25 -17.5 44t-59.5 46l-36 23q-76 48 -76 109q0 53 40.5 87
t102.5 34q92 0 148 -67zM129 529l114 159h73l60 -159h-57l-44 114l-83 -114h-63z" />
    <glyph glyph-name="Scedilla" unicode="&#x15e;" horiz-adv-x="500" 
d="M101 -136l76 131q-52 11 -95 38t-69 63l38 43q29 -41 78 -69.5t109 -28.5q68 0 109 39t41 94q0 40 -25.5 75.5t-81.5 76.5l-59 43q-109 79 -109 166q0 84 58.5 130.5t140.5 46.5q59 0 114 -26t90 -70l-39 -37q-30 36 -73 58t-91 22q-62 0 -100 -32.5t-38 -86.5
q0 -61 80 -121l67 -50q70 -52 98.5 -96.5t28.5 -97.5q0 -77 -56 -131.5t-150 -55.5l-80 -124h-62z" />
    <glyph glyph-name="scedilla" unicode="&#x15f;" horiz-adv-x="378" 
d="M44 -136l75 129q-73 16 -116 67l34 42q23 -29 59 -47.5t73 -18.5q45 0 68 22.5t23 51.5q0 25 -17.5 44t-59.5 46l-36 23q-76 48 -76 109q0 53 40.5 87t102.5 34q92 0 148 -67l-38 -33q-39 52 -106 52q-42 0 -65 -19t-23 -47q0 -39 52 -72l54 -35q83 -53 83 -118
q0 -50 -35 -85t-98 -40l-80 -125h-62z" />
    <glyph glyph-name="Scaron" unicode="&#x160;" horiz-adv-x="498" 
d="M515 616l-39 -37q-30 36 -73 58t-91 22q-62 0 -100 -32.5t-38 -86.5q0 -61 80 -121l67 -50q70 -52 98.5 -96.5t28.5 -97.5q0 -78 -57.5 -132.5t-153.5 -54.5q-71 0 -131 31t-94 77l38 43q29 -41 78 -69.5t109 -28.5q68 0 109 39t41 94q0 40 -25.5 75.5t-81.5 76.5l-59 43
q-109 79 -109 166q0 84 58.5 130.5t140.5 46.5q59 0 114 -26t90 -70zM482 947l-114 -159h-73l-60 159h57l44 -114l83 114h63z" />
    <glyph glyph-name="scaron" unicode="&#x161;" horiz-adv-x="379" 
d="M363 386l-38 -33q-39 52 -106 52q-42 0 -65 -19t-23 -47q0 -39 52 -72l54 -35q83 -53 83 -118q0 -54 -40.5 -90t-111.5 -36q-55 0 -98 22t-66 50l34 42q23 -29 59 -47.5t73 -18.5q45 0 68 22.5t23 51.5q0 25 -17.5 44t-59.5 46l-36 23q-76 48 -76 109q0 53 40.5 87
t102.5 34q92 0 148 -67zM393 688l-114 -159h-73l-60 159h57l44 -114l83 114h63z" />
    <glyph glyph-name="Tcommaaccent" unicode="&#x162;" horiz-adv-x="523" 
d="M97 700h496l-10 -56h-217l-112 -644h-62l112 644h-217zM149 -127q0 21 15.5 37t37.5 16t37 -15t15 -36t-16 -41l-74 -93l-44 8l53 80q-24 14 -24 44z" />
    <glyph glyph-name="tcommaaccent" unicode="&#x163;" horiz-adv-x="283" 
d="M163 627h60l-32 -186h108l-9 -51h-108l-52 -299q-4 -24 8.5 -33.5t35.5 -9.5l57 3l-9 -51q-27 -4 -63 -4q-106 0 -90 94l52 300h-74l9 51h75zM28 -127q0 21 15.5 37t37.5 16t37 -15t15 -36t-16 -41l-74 -93l-44 8l53 80q-24 14 -24 44z" />
    <glyph glyph-name="Tcaron" unicode="&#x164;" horiz-adv-x="523" 
d="M97 700h496l-10 -56h-217l-112 -644h-62l112 644h-217zM510 954l-114 -159h-73l-60 159h57l44 -114l83 114h63z" />
    <glyph glyph-name="tcaron" unicode="&#x165;" horiz-adv-x="283" 
d="M163 627h60l-32 -186h108l-9 -51h-108l-52 -299q-4 -24 8.5 -33.5t35.5 -9.5l57 3l-9 -51q-27 -4 -63 -4q-106 0 -90 94l52 300h-74l9 51h75zM302 659q0 21 15.5 37t37.5 16t37 -15t15 -36t-16 -41l-74 -93l-44 8l53 80q-24 14 -24 44z" />
    <glyph glyph-name="Tbar" unicode="&#x166;" horiz-adv-x="538" 
d="M104 700h496l-10 -56h-217l-46 -260h143l-9 -55h-143l-57 -329h-62l57 329h-143l9 55h143l46 260h-217z" />
    <glyph glyph-name="tbar" unicode="&#x167;" horiz-adv-x="288" 
d="M165 627h60l-32 -186h108l-9 -51h-108l-18 -104h108l-9 -51h-108l-25 -144q-4 -24 8.5 -33.5t35.5 -9.5l57 3l-9 -51q-27 -4 -63 -4q-106 0 -90 94l25 145h-74l9 51h74l18 104h-74l9 51h75z" />
    <glyph glyph-name="Utilde" unicode="&#x168;" horiz-adv-x="624" 
d="M166 700h62l-81 -465q-15 -84 25.5 -138.5t128.5 -54.5q74 0 119 46.5t58 121.5l87 490h60l-87 -499q-17 -97 -78.5 -155t-161.5 -58q-113 0 -172 70.5t-38 186.5zM466 802q-24 0 -64 23t-51 23q-31 0 -35 -36l-1 -10l-51 5q0 13 3 26.5t11 31t26 28.5t45 11q25 0 65 -23
t50 -23q31 0 35 36l1 10l51 -5q0 -13 -3 -26.5t-11 -31t-26 -28.5t-45 -11z" />
    <glyph glyph-name="utilde" unicode="&#x169;" horiz-adv-x="498" 
d="M102 441h61l-46 -266q-11 -61 18.5 -97t93.5 -36q50 0 86 28.5t45 81.5l51 289h59l-51 -300q-12 -68 -62 -110.5t-129 -42.5q-87 0 -136.5 50t-34.5 139zM360 536q-24 0 -64 23t-51 23q-31 0 -35 -36l-1 -10l-51 5q0 13 3 26.5t11 31t26 28.5t45 11q25 0 65 -23t50 -23
q31 0 35 36l1 10l51 -5q0 -13 -3 -26.5t-11 -31t-26 -28.5t-45 -11z" />
    <glyph glyph-name="Umacron" unicode="&#x16a;" horiz-adv-x="624" 
d="M166 700h62l-81 -465q-15 -84 25.5 -138.5t128.5 -54.5q74 0 119 46.5t58 121.5l87 490h60l-87 -499q-17 -97 -78.5 -155t-161.5 -58q-113 0 -172 70.5t-38 186.5zM279 813l9 52h255l-9 -52h-255z" />
    <glyph glyph-name="umacron" unicode="&#x16b;" horiz-adv-x="498" 
d="M102 441h61l-46 -266q-11 -61 18.5 -97t93.5 -36q50 0 86 28.5t45 81.5l51 289h59l-51 -300q-12 -68 -62 -110.5t-129 -42.5q-87 0 -136.5 50t-34.5 139zM168 547l9 52h255l-9 -52h-255z" />
    <glyph glyph-name="Ubreve" unicode="&#x16c;" horiz-adv-x="624" 
d="M166 700h62l-81 -465q-15 -84 25.5 -138.5t128.5 -54.5q74 0 119 46.5t58 121.5l87 490h60l-87 -499q-17 -97 -78.5 -155t-161.5 -58q-113 0 -172 70.5t-38 186.5zM400 835q54 0 64 61l6 34h53l-5 -37q-7 -55 -39 -81.5t-81 -26.5t-78 31.5t-19 82.5l6 31h53l-6 -32
q-5 -27 6.5 -45t39.5 -18z" />
    <glyph glyph-name="ubreve" unicode="&#x16d;" horiz-adv-x="498" 
d="M102 441h61l-46 -266q-11 -61 18.5 -97t93.5 -36q50 0 86 28.5t45 81.5l51 289h59l-51 -300q-12 -68 -62 -110.5t-129 -42.5q-87 0 -136.5 50t-34.5 139zM305 569q54 0 64 61l6 34h53l-5 -37q-7 -55 -39 -81.5t-81 -26.5t-78 31.5t-19 82.5l6 31h53l-6 -32
q-5 -27 6.5 -45t39.5 -18z" />
    <glyph glyph-name="Uring" unicode="&#x16e;" horiz-adv-x="624" 
d="M166 700h62l-81 -465q-15 -84 25.5 -138.5t128.5 -54.5q74 0 119 46.5t58 121.5l87 490h60l-87 -499q-17 -97 -78.5 -155t-161.5 -58q-113 0 -172 70.5t-38 186.5zM403 921q-23 0 -39 -16.5t-16 -40.5t16 -40.5t39 -16.5t39 16.5t16 40.5t-16 40.5t-39 16.5zM403 762
q-42 0 -73.5 29.5t-31.5 72.5t31.5 72.5t73.5 29.5t73.5 -29.5t31.5 -72.5t-31.5 -72.5t-73.5 -29.5z" />
    <glyph glyph-name="uring" unicode="&#x16f;" horiz-adv-x="498" 
d="M102 441h61l-46 -266q-11 -61 18.5 -97t93.5 -36q50 0 86 28.5t45 81.5l51 289h59l-51 -300q-12 -68 -62 -110.5t-129 -42.5q-87 0 -136.5 50t-34.5 139zM301 655q-23 0 -39 -16.5t-16 -40.5t16 -40.5t39 -16.5t39 16.5t16 40.5t-16 40.5t-39 16.5zM301 496
q-42 0 -73.5 29.5t-31.5 72.5t31.5 72.5t73.5 29.5t73.5 -29.5t31.5 -72.5t-31.5 -72.5t-73.5 -29.5z" />
    <glyph glyph-name="Uhungarumlaut" unicode="&#x170;" horiz-adv-x="624" 
d="M166 700h62l-81 -465q-15 -84 25.5 -138.5t128.5 -54.5q74 0 119 46.5t58 121.5l87 490h60l-87 -499q-17 -97 -78.5 -155t-161.5 -58q-113 0 -172 70.5t-38 186.5zM291 795l97 159h74l-107 -159h-64zM428 795l97 159h74l-106 -159h-65z" />
    <glyph glyph-name="uhungarumlaut" unicode="&#x171;" horiz-adv-x="498" 
d="M102 441h61l-46 -266q-11 -61 18.5 -97t93.5 -36q50 0 86 28.5t45 81.5l51 289h59l-51 -300q-12 -68 -62 -110.5t-129 -42.5q-87 0 -136.5 50t-34.5 139zM197 529l97 159h74l-107 -159h-64zM334 529l97 159h74l-106 -159h-65z" />
    <glyph glyph-name="Uogonek" unicode="&#x172;" horiz-adv-x="626" 
d="M167 700h62l-81 -465q-15 -84 25.5 -138.5t128.5 -54.5q74 0 119 46.5t58 121.5l87 490h60l-87 -499q-17 -96 -76.5 -153.5t-157.5 -59.5q-90 -53 -90 -97q0 -15 12 -23.5t30 -8.5q38 0 74 13l-7 -43q-32 -16 -81 -16q-41 0 -63 19t-22 50q0 65 93 110
q-92 15 -136.5 82.5t-25.5 170.5z" />
    <glyph glyph-name="uogonek" unicode="&#x173;" horiz-adv-x="499" 
d="M103 441h61l-46 -266q-11 -61 18.5 -97t93.5 -36q50 0 86 28.5t45 81.5l51 289h59l-51 -300q-11 -63 -55 -104t-114 -48q-41 -24 -66.5 -50.5t-25.5 -47.5q0 -15 12 -23.5t30 -8.5q38 0 74 13l-7 -43q-32 -16 -81 -16q-41 0 -63 19t-22 50q0 65 91 109q-72 9 -110.5 58
t-24.5 128z" />
    <glyph glyph-name="Wcircumflex" unicode="&#x174;" horiz-adv-x="917" 
d="M647 0h-87l-33 635l-303 -635h-88l-19 700h60l15 -637h1l307 637h81l32 -637h2l289 637h63zM424 795l114 159h73l60 -159h-57l-44 114l-83 -114h-63z" />
    <glyph glyph-name="wcircumflex" unicode="&#x175;" horiz-adv-x="687" 
d="M412 441l36 -391l182 391h65l-213 -441h-82l-35 379l-191 -379h-81l-34 441h61l23 -391l197 391h72zM266 529l114 159h73l60 -159h-57l-44 114l-83 -114h-63z" />
    <glyph glyph-name="Ycircumflex" unicode="&#x176;" horiz-adv-x="611" 
d="M288 310l-198 390h69l165 -334h1l281 334h76l-331 -388l-54 -312h-62zM252 795l114 159h73l60 -159h-57l-44 114l-83 -114h-63z" />
    <glyph glyph-name="ycircumflex" unicode="&#x177;" horiz-adv-x="511" 
d="M332 -56l22 117q-77 -73 -167 -73q-74 0 -109 47t-23 121l49 285h61l-51 -289q-9 -49 11.5 -80.5t70.5 -31.5q75 0 167 81l55 320h60l-85 -491q-23 -125 -140 -125h-131l9 51h113q75 0 88 68zM183 529l114 159h73l60 -159h-57l-44 114l-83 -114h-63z" />
    <glyph glyph-name="Ydieresis" unicode="&#x178;" horiz-adv-x="611" 
d="M288 310l-198 390h69l165 -334h1l281 334h76l-331 -388l-54 -312h-62zM306 883q20 0 35 -15t15 -35t-15 -35t-35 -15t-35 15t-15 35t15 35t35 15zM464 883q20 0 35.5 -15t15.5 -35t-15.5 -35t-35.5 -15t-35 15t-15 35t15 35t35 15z" />
    <glyph glyph-name="Zacute" unicode="&#x179;" horiz-adv-x="562" 
d="M528 644h-416l9 56h493l-10 -57l-530 -588h427l-9 -55h-502l10 57zM336 795l96 159h74l-108 -159h-62z" />
    <glyph glyph-name="zacute" unicode="&#x17a;" horiz-adv-x="413" 
d="M413 441l-9 -52l-322 -338h262l-9 -51h-335l9 51l323 338h-264l9 52h336zM223 529l96 159h74l-108 -159h-62z" />
    <glyph glyph-name="Zdotaccent" unicode="&#x17b;" horiz-adv-x="562" 
d="M528 644h-416l9 56h493l-10 -57l-530 -588h427l-9 -55h-502l10 57zM379 903q22 0 38 -16t16 -38t-16 -37.5t-38 -15.5t-38 15.5t-16 37.5t16 38t38 16z" />
    <glyph glyph-name="zdotaccent" unicode="&#x17c;" horiz-adv-x="413" 
d="M413 441l-9 -52l-322 -338h262l-9 -51h-335l9 51l323 338h-264l9 52h336zM255 637q22 0 38 -16t16 -38t-16 -37.5t-38 -15.5t-38 15.5t-16 37.5t16 38t38 16z" />
    <glyph glyph-name="Zcaron" unicode="&#x17d;" horiz-adv-x="562" 
d="M528 644h-416l9 56h493l-10 -57l-530 -588h427l-9 -55h-502l10 57zM521 947l-114 -159h-73l-60 159h57l44 -114l83 114h63z" />
    <glyph glyph-name="zcaron" unicode="&#x17e;" horiz-adv-x="413" 
d="M413 441l-9 -52l-322 -338h262l-9 -51h-335l9 51l323 338h-264l9 52h336zM410 688l-114 -159h-73l-60 159h57l44 -114l83 114h63z" />
    <glyph glyph-name="longs" unicode="&#x17f;" horiz-adv-x="245" 
d="M219 592l-103 -592h-60l68 390h-75l10 51h74l28 158q18 105 110 105l66 -4l-9 -53q-26 5 -42 5q-30 0 -45.5 -13.5t-21.5 -46.5z" />
    <glyph glyph-name="florin" unicode="&#x192;" horiz-adv-x="334" 
d="M158 350l36 207q12 70 43.5 106.5t98.5 36.5h46l-10 -52h-33q-69 0 -80 -65l-41 -233h89l-9 -51h-89l-58 -333q-12 -70 -43 -106t-97 -36h-46l10 52h33q67 0 79 65l62 358h-89l9 51h89z" />
    <glyph glyph-name="Scommaaccent" unicode="&#x218;" horiz-adv-x="498" 
d="M515 616l-39 -37q-30 36 -73 58t-91 22q-62 0 -100 -32.5t-38 -86.5q0 -61 80 -121l67 -50q70 -52 98.5 -96.5t28.5 -97.5q0 -78 -57.5 -132.5t-153.5 -54.5q-71 0 -131 31t-94 77l38 43q29 -41 78 -69.5t109 -28.5q68 0 109 39t41 94q0 40 -25.5 75.5t-81.5 76.5l-59 43
q-109 79 -109 166q0 84 58.5 130.5t140.5 46.5q59 0 114 -26t90 -70zM106 -127q0 21 15.5 37t37.5 16t37 -15t15 -36t-16 -41l-74 -93l-44 8l53 80q-24 14 -24 44z" />
    <glyph glyph-name="scommaaccent" unicode="&#x219;" horiz-adv-x="379" 
d="M363 386l-38 -33q-39 52 -106 52q-42 0 -65 -19t-23 -47q0 -39 52 -72l54 -35q83 -53 83 -118q0 -54 -40.5 -90t-111.5 -36q-55 0 -98 22t-66 50l34 42q23 -29 59 -47.5t73 -18.5q45 0 68 22.5t23 51.5q0 25 -17.5 44t-59.5 46l-36 23q-76 48 -76 109q0 53 40.5 87
t102.5 34q92 0 148 -67zM74 -127q0 21 15.5 37t37.5 16t37 -15t15 -36t-16 -41l-74 -93l-44 8l53 80q-24 14 -24 44z" />
    <glyph glyph-name="uni021A" unicode="&#x21a;" horiz-adv-x="523" 
d="M97 700h496l-10 -56h-217l-112 -644h-62l112 644h-217zM149 -127q0 21 15.5 37t37.5 16t37 -15t15 -36t-16 -41l-74 -93l-44 8l53 80q-24 14 -24 44z" />
    <glyph glyph-name="uni021B" unicode="&#x21b;" horiz-adv-x="283" 
d="M163 627h60l-32 -186h108l-9 -51h-108l-52 -299q-4 -24 8.5 -33.5t35.5 -9.5l57 3l-9 -51q-27 -4 -63 -4q-106 0 -90 94l52 300h-74l9 51h75zM28 -127q0 21 15.5 37t37.5 16t37 -15t15 -36t-16 -41l-74 -93l-44 8l53 80q-24 14 -24 44z" />
    <glyph glyph-name="dotlessj" unicode="&#x237;" horiz-adv-x="218" 
d="M33 -82l82 472h-69l9 51h130l-92 -528q-9 -50 -35.5 -69t-68.5 -19h-61l9 50h42q24 0 37 9.5t17 33.5z" />
    <glyph glyph-name="apostrophe" unicode="&#x2bc;" horiz-adv-x="533" 
d="M300 659q0 21 15.5 37t37.5 16t37 -15t15 -36t-16 -41l-74 -93l-44 8l53 80q-24 14 -24 44z" />
    <glyph glyph-name="circumflex" unicode="&#x2c6;" horiz-adv-x="313" 
d="M48 529l114 159h73l60 -159h-57l-44 114l-83 -114h-63z" />
    <glyph glyph-name="caron" unicode="&#x2c7;" horiz-adv-x="313" 
d="M355 688l-114 -159h-73l-60 159h57l44 -114l83 114h63z" />
    <glyph glyph-name="uni02C9" unicode="&#x2c9;" horiz-adv-x="315" 
d="M85 547l9 52h255l-9 -52h-255z" />
    <glyph glyph-name="breve" unicode="&#x2d8;" horiz-adv-x="273" 
d="M159 569q54 0 64 61l6 34h53l-5 -37q-7 -55 -39 -81.5t-81 -26.5t-78 31.5t-19 82.5l6 31h53l-6 -32q-5 -27 6.5 -45t39.5 -18z" />
    <glyph glyph-name="dotaccent" unicode="&#x2d9;" horiz-adv-x="164" 
d="M142 637q22 0 38 -16t16 -38t-16 -37.5t-38 -15.5t-38 15.5t-16 37.5t16 38t38 16z" />
    <glyph glyph-name="ring" unicode="&#x2da;" horiz-adv-x="260" 
d="M153 655q-23 0 -39 -16.5t-16 -40.5t16 -40.5t39 -16.5t39 16.5t16 40.5t-16 40.5t-39 16.5zM153 496q-42 0 -73.5 29.5t-31.5 72.5t31.5 72.5t73.5 29.5t73.5 -29.5t31.5 -72.5t-31.5 -72.5t-73.5 -29.5z" />
    <glyph glyph-name="ogonek" unicode="&#x2db;" horiz-adv-x="232" 
d="M111 6v-5q-51 -26 -82.5 -56t-31.5 -54q0 -15 12 -23.5t30 -8.5q38 0 74 13l-7 -43q-32 -16 -81 -16q-41 0 -63 19t-22 50q0 80 141 128z" />
    <glyph glyph-name="tilde" unicode="&#x2dc;" horiz-adv-x="339" 
d="M283 536q-24 0 -64 23t-51 23q-31 0 -35 -36l-1 -10l-51 5q0 13 3 26.5t11 31t26 28.5t45 11q25 0 65 -23t50 -23q31 0 35 36l1 10l51 -5q0 -13 -3 -26.5t-11 -31t-26 -28.5t-45 -11z" />
    <glyph glyph-name="hungarumlaut" unicode="&#x2dd;" horiz-adv-x="340" 
d="M80 529l97 159h74l-107 -159h-64zM217 529l97 159h74l-106 -159h-65z" />
    <glyph glyph-name="Delta" unicode="&#x394;" horiz-adv-x="627" 
d="M554 0h-559l10 55l354 649h75l131 -649zM505 53l-117 594l-320 -594h437z" />
    <glyph glyph-name="Delta" unicode="&#x2206;" horiz-adv-x="627" 
d="M554 0h-559l10 55l354 649h75l131 -649zM505 53l-117 594l-320 -594h437z" />
    <glyph glyph-name="Omega" unicode="&#x3a9;" horiz-adv-x="664" 
d="M597 462q0 88 -64.5 142.5t-152.5 54.5q-95 0 -167.5 -66t-72.5 -188q0 -132 140 -184l-38 -221h-195l10 53h134l26 142q-54 24 -95 79.5t-41 137.5q0 136 87 218t211 82q117 0 197.5 -68.5t80.5 -181.5q0 -115 -64.5 -189t-154.5 -97l-21 -123h138l-10 -53h-195l35 211
q89 16 150.5 80t61.5 171z" />
    <glyph glyph-name="Omega" unicode="&#x2126;" horiz-adv-x="664" 
d="M597 462q0 88 -64.5 142.5t-152.5 54.5q-95 0 -167.5 -66t-72.5 -188q0 -132 140 -184l-38 -221h-195l10 53h134l26 142q-54 24 -95 79.5t-41 137.5q0 136 87 218t211 82q117 0 197.5 -68.5t80.5 -181.5q0 -115 -64.5 -189t-154.5 -97l-21 -123h138l-10 -53h-195l35 211
q89 16 150.5 80t61.5 171z" />
    <glyph glyph-name="pi" unicode="&#x3c0;" horiz-adv-x="588" 
d="M417 390h-219l-68 -390h-61l69 390h-83l9 51h521l-8 -51h-99l-52 -299q-4 -24 8.5 -33.5t35.5 -9.5l57 3l-9 -51q-27 -4 -63 -4q-106 0 -90 94z" />
    <glyph glyph-name="pi" unicode="&#x3d6;" horiz-adv-x="588" 
d="M417 390h-219l-68 -390h-61l69 390h-83l9 51h521l-8 -51h-99l-52 -299q-4 -24 8.5 -33.5t35.5 -9.5l57 3l-9 -51q-27 -4 -63 -4q-106 0 -90 94z" />
    <glyph glyph-name="Wgrave" unicode="&#x1e80;" horiz-adv-x="917" 
d="M647 0h-87l-33 635l-303 -635h-88l-19 700h60l15 -637h1l307 637h81l32 -637h2l289 637h63zM496 954l66 -159h-57l-83 159h74z" />
    <glyph glyph-name="wgrave" unicode="&#x1e81;" horiz-adv-x="687" 
d="M412 441l36 -391l182 391h65l-213 -441h-82l-35 379l-191 -379h-81l-34 441h61l23 -391l197 391h72zM331 688l66 -159h-57l-83 159h74z" />
    <glyph glyph-name="Wacute" unicode="&#x1e82;" horiz-adv-x="917" 
d="M647 0h-87l-33 635l-303 -635h-88l-19 700h60l15 -637h1l307 637h81l32 -637h2l289 637h63zM529 795l96 159h74l-108 -159h-62z" />
    <glyph glyph-name="wacute" unicode="&#x1e83;" horiz-adv-x="687" 
d="M412 441l36 -391l182 391h65l-213 -441h-82l-35 379l-191 -379h-81l-34 441h61l23 -391l197 391h72zM368 529l96 159h74l-108 -159h-62z" />
    <glyph glyph-name="Wdieresis" unicode="&#x1e84;" horiz-adv-x="917" 
d="M647 0h-87l-33 635l-303 -635h-88l-19 700h60l15 -637h1l307 637h81l32 -637h2l289 637h63zM473 890q20 0 35 -15t15 -35t-15 -35t-35 -15t-35 15t-15 35t15 35t35 15zM631 890q20 0 35.5 -15t15.5 -35t-15.5 -35t-35.5 -15t-35 15t-15 35t15 35t35 15z" />
    <glyph glyph-name="wdieresis" unicode="&#x1e85;" horiz-adv-x="687" 
d="M412 441l36 -391l182 391h65l-213 -441h-82l-35 379l-191 -379h-81l-34 441h61l23 -391l197 391h72zM307 624q20 0 35 -15t15 -35t-15 -35t-35 -15t-35 15t-15 35t15 35t35 15zM465 624q20 0 35.5 -15t15.5 -35t-15.5 -35t-35.5 -15t-35 15t-15 35t15 35t35 15z" />
    <glyph glyph-name="Ygrave" unicode="&#x1ef2;" horiz-adv-x="611" 
d="M288 310l-198 390h69l165 -334h1l281 334h76l-331 -388l-54 -312h-62zM329 954l66 -159h-57l-83 159h74z" />
    <glyph glyph-name="ygrave" unicode="&#x1ef3;" horiz-adv-x="511" 
d="M332 -56l22 117q-77 -73 -167 -73q-74 0 -109 47t-23 121l49 285h61l-51 -289q-9 -49 11.5 -80.5t70.5 -31.5q75 0 167 81l55 320h60l-85 -491q-23 -125 -140 -125h-131l9 51h113q75 0 88 68zM270 688l66 -159h-57l-83 159h74z" />
    <glyph glyph-name="endash" unicode="&#x2013;" horiz-adv-x="500" 
d="M45 252l8 51h420l-9 -51h-419z" />
    <glyph glyph-name="emdash" unicode="&#x2014;" horiz-adv-x="1000" 
d="M45 252l8 51h920l-9 -51h-919z" />
    <glyph glyph-name="quoteleft" unicode="&#x2018;" horiz-adv-x="239" 
d="M234 559q0 -24 -18 -42.5t-43 -18.5t-42.5 17.5t-17.5 41.5q0 25 17 48l86 107l52 -9l-62 -92q28 -16 28 -52z" />
    <glyph glyph-name="quoteright" unicode="&#x2019;" horiz-adv-x="242" 
d="M145 651q0 25 17.5 43t43.5 18q25 0 42.5 -17.5t17.5 -41.5q0 -26 -18 -48l-86 -107l-51 9l61 92q-27 17 -27 52z" />
    <glyph glyph-name="quotesinglbase" unicode="&#x201a;" horiz-adv-x="248" 
d="M35 48q0 25 17.5 43t43.5 18q25 0 42.5 -17.5t17.5 -41.5q0 -26 -18 -48l-86 -107l-51 9l61 92q-27 17 -27 52z" />
    <glyph glyph-name="quotedblleft" unicode="&#x201c;" horiz-adv-x="407" 
d="M402 559q0 -24 -18 -42.5t-43 -18.5t-42.5 17.5t-17.5 41.5q0 25 17 48l86 107l52 -9l-62 -92q28 -18 28 -52zM234 559q0 -24 -18 -42.5t-43 -18.5t-42.5 17.5t-17.5 41.5q0 25 17 48l86 107l52 -9l-62 -92q28 -16 28 -52z" />
    <glyph glyph-name="quotedblright" unicode="&#x201d;" horiz-adv-x="410" 
d="M145 651q0 25 17.5 43t43.5 18q25 0 42.5 -17.5t17.5 -41.5q0 -26 -18 -48l-86 -107l-51 9l61 92q-27 17 -27 52zM313 651q0 25 17.5 43t43.5 18q25 0 42.5 -17.5t17.5 -41.5q0 -26 -18 -48l-86 -107l-51 9l61 92q-27 17 -27 52z" />
    <glyph glyph-name="quotedblbase" unicode="&#x201e;" horiz-adv-x="416" 
d="M35 48q0 25 17.5 43t43.5 18q25 0 42.5 -17.5t17.5 -41.5q0 -26 -18 -48l-86 -107l-51 9l61 92q-27 17 -27 52zM203 48q0 25 17.5 43t43.5 18q25 0 42.5 -17.5t17.5 -41.5q0 -26 -18 -48l-86 -107l-51 9l61 92q-27 17 -27 52z" />
    <glyph glyph-name="dagger" unicode="&#x2020;" horiz-adv-x="480" 
d="M303 406l-71 -406h-62l71 406h-178l10 53h178l42 241h62l-42 -241h178l-10 -53h-178z" />
    <glyph glyph-name="daggerdbl" unicode="&#x2021;" horiz-adv-x="480" 
d="M64 406l10 53h178l42 241h62l-42 -241h178l-10 -53h-178l-20 -113h178l-9 -54h-178l-42 -239h-62l42 239h-180l9 54h180l20 113h-178z" />
    <glyph glyph-name="bullet" unicode="&#x2022;" horiz-adv-x="349" 
d="M104 359q0 38 26.5 65t65.5 27q38 0 65.5 -27t27.5 -65t-27.5 -65.5t-65.5 -27.5q-39 0 -65.5 27t-26.5 66z" />
    <glyph glyph-name="ellipsis" unicode="&#x2026;" horiz-adv-x="839" 
d="M34 48q0 25 17.5 43t42.5 18q26 0 43.5 -17.5t17.5 -43.5q0 -25 -18 -42.5t-43 -17.5t-42.5 17.5t-17.5 42.5zM330 48q0 25 17.5 43t42.5 18q26 0 43.5 -17.5t17.5 -43.5q0 -25 -18 -42.5t-43 -17.5t-42.5 17.5t-17.5 42.5zM626 48q0 25 17.5 43t42.5 18q26 0 43.5 -17.5
t17.5 -43.5q0 -25 -18 -42.5t-43 -17.5t-42.5 17.5t-17.5 42.5z" />
    <glyph glyph-name="perthousand" unicode="&#x2030;" horiz-adv-x="1097" 
d="M102 563q0 61 44 105t105 44t105 -44t44 -105t-44 -105t-105 -44t-105 44t-44 105zM161 563q0 -39 26.5 -67t63.5 -28t63.5 28t26.5 67t-26.5 67t-63.5 28t-63.5 -28t-26.5 -67zM698 136q0 -61 -44 -104.5t-105 -43.5t-105 43.5t-44 104.5q0 62 44 105.5t105 43.5
t105 -43.5t44 -105.5zM639 136q0 39 -26.5 67t-63.5 28t-63.5 -28t-26.5 -67q0 -38 26.5 -66t63.5 -28t63.5 28t26.5 66zM705 548l-586 -450l-32 45l584 449zM1046 136q0 -61 -44 -104.5t-105 -43.5t-105 43.5t-44 104.5q0 62 44 105.5t105 43.5t105 -43.5t44 -105.5z
M987 136q0 39 -26.5 67t-63.5 28t-63.5 -28t-26.5 -67q0 -38 26.5 -66t63.5 -28t63.5 28t26.5 66z" />
    <glyph glyph-name="guilsinglleft" unicode="&#x2039;" horiz-adv-x="277" 
d="M53 243l125 149h72l-128 -154l71 -152h-64z" />
    <glyph glyph-name="guilsinglright" unicode="&#x203a;" horiz-adv-x="277" 
d="M230 235l-125 -149h-72l128 154l-71 152h64z" />
    <glyph glyph-name="fraction" unicode="&#x2044;" horiz-adv-x="220" 
d="M518 738l31 -33l-799 -723l-31 33z" />
    <glyph glyph-name="zerosuperior" unicode="&#x2070;" 
d="M241 345q62 0 90 150q8 41 8 79q0 82 -52 82q-62 0 -89 -149q-8 -51 -8 -80q0 -82 51 -82zM241 294q-108 0 -108 139q0 31 8 79q33 195 146 195q108 0 108 -138q0 -33 -8 -79q-34 -196 -146 -196z" />
    <glyph glyph-name="foursuperior" unicode="&#x2074;" 
d="M109 416l9 48l178 236h80l-41 -236h57l-9 -48h-57l-20 -115h-56l20 115h-161zM312 650l-141 -186h108z" />
    <glyph glyph-name="fivesuperior" unicode="&#x2075;" 
d="M242 342q34 0 55 30.5t21 74.5q0 65 -63 65q-26 0 -48 -20l-49 8l38 200h209l-8 -50h-162l-20 -105l2 -1q21 16 53 16q51 0 78 -31t27 -80q0 -68 -37 -111.5t-96 -43.5q-55 0 -86.5 28.5t-31.5 75.5q0 12 3 32h58q-4 -18 -4 -31q0 -25 15 -41t46 -16z" />
    <glyph glyph-name="sixsuperior" unicode="&#x2076;" 
d="M250 294q-55 0 -88 33t-33 87q0 37 15 76.5t32.5 67.5t47.5 60.5t45 46t40 35.5h80q-115 -93 -172 -170l2 -2q24 20 58 20q42 0 73.5 -29.5t31.5 -80.5q0 -65 -37.5 -104.5t-94.5 -39.5zM250 343q34 0 54.5 26t20.5 64q0 30 -16.5 49.5t-48.5 19.5q-34 0 -54 -27t-20 -64
q0 -29 16.5 -48.5t47.5 -19.5z" />
    <glyph glyph-name="sevensuperior" unicode="&#x2077;" 
d="M156 301l197 347h-186l10 52h243l-9 -49l-190 -350h-65z" />
    <glyph glyph-name="eightsuperior" unicode="&#x2078;" 
d="M247 294q-54 0 -89 30.5t-35 80.5q0 39 21.5 67.5t56.5 40.5q-43 28 -43 80q0 49 35.5 81.5t87.5 32.5q48 0 81 -27.5t33 -75.5q0 -34 -18.5 -62t-50.5 -40q22 -11 37 -35.5t15 -51.5q0 -54 -38 -87.5t-93 -33.5zM248 341q33 0 53 22.5t20 53.5q0 27 -17.5 45.5
t-50.5 18.5q-31 0 -52.5 -22.5t-21.5 -52.5q0 -27 18 -46t51 -19zM274 528q30 0 48 21t18 51q0 26 -15.5 42.5t-46.5 16.5t-48.5 -20.5t-17.5 -51.5q0 -26 16.5 -42.5t45.5 -16.5z" />
    <glyph glyph-name="ninesuperior" unicode="&#x2079;" 
d="M139 301q115 93 172 170l-2 2q-24 -20 -58 -20q-42 0 -73.5 29.5t-31.5 80.5q0 65 37.5 104.5t94.5 39.5q55 0 88 -33t33 -87q0 -37 -15 -76.5t-32.5 -67.5t-47.5 -60.5t-45 -46t-40 -35.5h-80zM268 499q34 0 54 27t20 64q0 29 -16.5 48.5t-47.5 19.5q-34 0 -54.5 -26
t-20.5 -64q0 -30 16.5 -49.5t48.5 -19.5z" />
    <glyph glyph-name="zeroinferior" unicode="&#x2080;" 
d="M188 44q62 0 90 150q8 41 8 79q0 82 -52 82q-62 0 -89 -149q-8 -51 -8 -80q0 -82 51 -82zM188 -7q-108 0 -108 139q0 31 8 79q32 195 146 195q108 0 108 -138q0 -33 -8 -79q-34 -196 -146 -196z" />
    <glyph glyph-name="oneinferior" unicode="&#x2081;" 
d="M80 0l8 49h77l53 300h-75l9 50h132l-62 -350h77l-9 -49h-210z" />
    <glyph glyph-name="twoinferior" unicode="&#x2082;" 
d="M56 0l9 53q1 1 68 56t70 57q51 42 69.5 70t18.5 61q0 25 -16.5 42.5t-46.5 17.5q-28 0 -47 -18t-19 -48q0 -14 5 -34l-54 -6q-7 25 -7 42q0 47 33.5 80t89.5 33q55 0 86.5 -32t31.5 -77q0 -49 -24.5 -83t-84.5 -82l-102 -83h170l-9 -49h-241z" />
    <glyph glyph-name="threeinferior" unicode="&#x2083;" 
d="M185 -7q-52 0 -84 27.5t-32 75.5q0 13 4 33h56q-4 -24 -4 -31q0 -25 15 -41t45 -16q32 0 52.5 27t20.5 65q0 66 -82 66q-4 0 -11 -0.5t-10 -0.5l8 47l118 104h-158l10 50h221l-11 -55l-122 -106q40 -2 67.5 -31t27.5 -72q0 -59 -36 -100.5t-95 -41.5z" />
    <glyph glyph-name="fourinferior" unicode="&#x2084;" 
d="M56 115l9 48l178 236h80l-41 -236h57l-9 -48h-57l-20 -115h-56l20 115h-161zM259 349l-141 -186h108z" />
    <glyph glyph-name="fiveinferior" unicode="&#x2085;" 
d="M189 41q34 0 55 30.5t21 74.5q0 65 -63 65q-26 0 -48 -20l-49 8l38 200h209l-8 -50h-162l-20 -105l2 -1q21 16 53 16q51 0 78 -31t27 -80q0 -68 -37 -111.5t-96 -43.5q-55 0 -86.5 28.5t-31.5 75.5q0 13 3 32h58q-4 -18 -4 -31q0 -25 15 -41t46 -16z" />
    <glyph glyph-name="sixinferior" unicode="&#x2086;" 
d="M197 -7q-55 0 -88 33t-33 87q0 37 15 76.5t32.5 67.5t47.5 60.5t45 46t40 35.5h80q-115 -93 -172 -170l2 -2q24 20 58 20q42 0 73.5 -29.5t31.5 -80.5q0 -65 -37.5 -104.5t-94.5 -39.5zM197 42q34 0 54.5 26t20.5 64q0 30 -16.5 49.5t-48.5 19.5q-34 0 -54 -27t-20 -64
q0 -29 16.5 -48.5t47.5 -19.5z" />
    <glyph glyph-name="seveninferior" unicode="&#x2087;" 
d="M102 0l197 347h-186l10 52h243l-9 -49l-190 -350h-65z" />
    <glyph glyph-name="eightinferior" unicode="&#x2088;" 
d="M194 -7q-54 0 -89 30.5t-35 80.5q0 39 21.5 67.5t56.5 40.5q-43 28 -43 80q0 49 35.5 81.5t87.5 32.5q48 0 81 -27.5t33 -75.5q0 -34 -18.5 -62t-50.5 -40q22 -11 37 -35.5t15 -51.5q0 -54 -38 -87.5t-93 -33.5zM195 40q33 0 53 22.5t20 53.5q0 27 -17.5 45.5t-50.5 18.5
q-31 0 -52.5 -22.5t-21.5 -52.5q0 -27 18 -46t51 -19zM221 227q30 0 48 20.5t18 51.5q0 26 -15.5 42.5t-46.5 16.5t-48.5 -20.5t-17.5 -51.5q0 -26 16.5 -42.5t45.5 -16.5z" />
    <glyph glyph-name="nineinferior" unicode="&#x2089;" 
d="M87 0q115 93 172 170l-2 2q-24 -20 -58 -20q-42 0 -73.5 29.5t-31.5 80.5q0 65 37.5 104.5t94.5 39.5q55 0 88 -33t33 -87q0 -37 -15 -76.5t-32.5 -67.5t-47.5 -60.5t-45 -46t-40 -35.5h-80zM216 198q34 0 54 27t20 64q0 29 -16.5 48.5t-47.5 19.5q-34 0 -54.5 -26
t-20.5 -64q0 -30 16.5 -49.5t48.5 -19.5z" />
    <glyph glyph-name="Euro" unicode="&#x20ac;" horiz-adv-x="719" 
d="M73 406l9 53h67q39 115 119.5 183.5t181.5 68.5q103 0 172.5 -56t85.5 -161h-62q-14 78 -63.5 120.5t-133.5 42.5q-77 0 -139 -54t-95 -144h272l-10 -53h-278q-13 -57 -14 -114h273l-9 -53h-262q9 -92 60.5 -144.5t141.5 -52.5q72 0 129 42.5t86 120.5h68
q-37 -106 -112.5 -161.5t-171.5 -55.5q-115 0 -184 67.5t-80 183.5h-80l10 53h68q2 60 12 114h-61z" />
    <glyph glyph-name="afii61289" unicode="&#x2113;" horiz-adv-x="407" 
d="M332 588q0 -127 -137 -258v-231q0 -41 20.5 -61t48.5 -20q61 0 72 73h20q-5 -40 -28 -64.5t-44.5 -31t-44.5 -6.5q-61 0 -100.5 40t-39.5 135v86q-33 -26 -52 -40l-17 19q15 10 32.5 23.5t27.5 21.5l9 7v260q0 80 34 126t97 46q50 0 76 -32.5t26 -92.5zM193 620v-260
q113 111 113 234q0 37 -15.5 66.5t-46.5 29.5q-21 0 -36 -16.5t-15 -53.5z" />
    <glyph glyph-name="trademark" unicode="&#x2122;" horiz-adv-x="1039" 
d="M776 396l178 304h89l-73 -421h-60l59 341l-176 -301h-57l-71 301l-60 -341h-57l73 421h84zM140 700h382l-9 -54h-162l-65 -367h-58l64 367h-161z" />
    <glyph glyph-name="estimated" unicode="&#x212e;" horiz-adv-x="884" 
d="M225 332v-172q0 -40 45.5 -73.5t101.5 -50t100 -16.5q79 0 148.5 28.5t116.5 82.5h47q-114 -142 -312 -142q-163 0 -279 106.5t-116 257.5q0 149 115 254t280 105q178 0 287.5 -105.5t109.5 -262.5h-635q-9 0 -9 -12zM234 375h477q9 0 9 9v168q0 41 -45 72t-99.5 44.5
t-103.5 13.5q-45 0 -99.5 -13.5t-101 -44.5t-46.5 -72v-168q0 -9 9 -9z" />
    <glyph glyph-name="onethird" unicode="&#x2153;" horiz-adv-x="1080" 
d="M103 301l8 49h77l53 300h-75l9 50h132l-62 -350h77l-9 -49h-210zM866 -7q-52 0 -84 27.5t-32 75.5q0 13 4 33h56q-4 -24 -4 -31q0 -25 15 -41t45 -16q32 0 52.5 27t20.5 65q0 66 -82 66q-3 0 -10 -0.5t-11 -0.5l8 47l118 104h-158l10 50h221l-11 -55l-122 -106
q40 -2 67.5 -31t27.5 -72q0 -59 -36 -100.5t-95 -41.5zM956 738l31 -33l-799 -723l-31 33z" />
    <glyph glyph-name="twothirds" unicode="&#x2154;" horiz-adv-x="1080" 
d="M83 301l9 53q1 1 68 56t70 57q51 42 69.5 70.5t18.5 60.5q0 25 -16.5 42.5t-46.5 17.5q-28 0 -47 -18t-19 -48q0 -14 5 -34l-54 -6q-7 24 -7 42q0 47 33.5 80t89.5 33q55 0 86.5 -32t31.5 -77q0 -49 -24.5 -83t-84.5 -82l-102 -83h170l-9 -49h-241zM866 -7
q-52 0 -84 27.5t-32 75.5q0 13 4 33h56q-4 -24 -4 -31q0 -25 15 -41t45 -16q32 0 52.5 27t20.5 65q0 66 -82 66q-3 0 -10 -0.5t-11 -0.5l8 47l118 104h-158l10 50h221l-11 -55l-122 -106q40 -2 67.5 -31t27.5 -72q0 -59 -36 -100.5t-95 -41.5zM956 738l31 -33l-799 -723
l-31 33z" />
    <glyph glyph-name="oneeighth" unicode="&#x215b;" horiz-adv-x="1080" 
d="M103 301l8 49h77l53 300h-75l9 50h132l-62 -350h77l-9 -49h-210zM853 -7q-54 0 -89 30.5t-35 80.5q0 39 21.5 67.5t56.5 40.5q-43 28 -43 80q0 49 35.5 81.5t87.5 32.5q48 0 81 -27.5t33 -75.5q0 -34 -18.5 -62t-50.5 -40q22 -11 37 -35.5t15 -51.5q0 -54 -38 -87.5
t-93 -33.5zM854 40q33 0 53 22.5t20 53.5q0 27 -17.5 45.5t-50.5 18.5q-31 0 -52.5 -22.5t-21.5 -52.5q0 -27 18 -46t51 -19zM880 227q30 0 48 20.5t18 51.5q0 26 -15.5 42.5t-46.5 16.5t-48.5 -20.5t-17.5 -51.5q0 -26 16.5 -42.5t45.5 -16.5zM956 738l31 -33l-799 -723
l-31 33z" />
    <glyph glyph-name="threeeighths" unicode="&#x215c;" horiz-adv-x="1080" 
d="M244 294q-52 0 -84 27.5t-32 75.5q0 13 4 33h56q-4 -24 -4 -31q0 -25 15 -41t45 -16q32 0 52.5 27t20.5 65q0 66 -82 66q-3 0 -10 -0.5t-11 -0.5l8 47l118 104h-158l10 50h221l-11 -55l-122 -106q40 -2 67.5 -31t27.5 -72q0 -59 -36 -100.5t-95 -41.5zM853 -7
q-54 0 -89 30.5t-35 80.5q0 39 21.5 67.5t56.5 40.5q-43 28 -43 80q0 49 35.5 81.5t87.5 32.5q48 0 81 -27.5t33 -75.5q0 -34 -18.5 -62t-50.5 -40q22 -11 37 -35.5t15 -51.5q0 -54 -38 -87.5t-93 -33.5zM854 40q33 0 53 22.5t20 53.5q0 27 -17.5 45.5t-50.5 18.5
q-31 0 -52.5 -22.5t-21.5 -52.5q0 -27 18 -46t51 -19zM880 227q30 0 48 20.5t18 51.5q0 26 -15.5 42.5t-46.5 16.5t-48.5 -20.5t-17.5 -51.5q0 -26 16.5 -42.5t45.5 -16.5zM956 738l31 -33l-799 -723l-31 33z" />
    <glyph glyph-name="fiveeighths" unicode="&#x215d;" horiz-adv-x="1080" 
d="M853 -7q-54 0 -89 30.5t-35 80.5q0 39 21.5 67.5t56.5 40.5q-43 28 -43 80q0 49 35.5 81.5t87.5 32.5q48 0 81 -27.5t33 -75.5q0 -34 -18.5 -62t-50.5 -40q22 -11 37 -35.5t15 -51.5q0 -54 -38 -87.5t-93 -33.5zM956 738l31 -33l-799 -723l-31 33zM243 342q34 0 55 30.5
t21 74.5q0 65 -63 65q-26 0 -48 -20l-49 8l38 200h209l-8 -50h-162l-20 -105l2 -1q21 16 53 16q51 0 78 -31t27 -80q0 -68 -37 -111.5t-96 -43.5q-55 0 -86.5 28.5t-31.5 75.5q0 12 3 32h58q-4 -18 -4 -31q0 -25 15 -41t46 -16zM854 40q33 0 53 22.5t20 53.5
q0 27 -17.5 45.5t-50.5 18.5q-31 0 -52.5 -22.5t-21.5 -52.5q0 -27 18 -46t51 -19zM880 227q30 0 48 20.5t18 51.5q0 26 -15.5 42.5t-46.5 16.5t-48.5 -20.5t-17.5 -51.5q0 -26 16.5 -42.5t45.5 -16.5z" />
    <glyph glyph-name="seveneighths" unicode="&#x215e;" horiz-adv-x="1080" 
d="M161 301l197 347h-186l10 52h243l-9 -49l-190 -350h-65zM853 -7q-54 0 -89 30.5t-35 80.5q0 39 21.5 67.5t56.5 40.5q-43 28 -43 80q0 49 35.5 81.5t87.5 32.5q48 0 81 -27.5t33 -75.5q0 -34 -18.5 -62t-50.5 -40q22 -11 37 -35.5t15 -51.5q0 -54 -38 -87.5t-93 -33.5z
M854 40q33 0 53 22.5t20 53.5q0 27 -17.5 45.5t-50.5 18.5q-31 0 -52.5 -22.5t-21.5 -52.5q0 -27 18 -46t51 -19zM880 227q30 0 48 20.5t18 51.5q0 26 -15.5 42.5t-46.5 16.5t-48.5 -20.5t-17.5 -51.5q0 -26 16.5 -42.5t45.5 -16.5zM956 738l31 -33l-799 -723l-31 33z" />
    <glyph glyph-name="partialdiff" unicode="&#x2202;" horiz-adv-x="534" 
d="M249 -12q-91 0 -150 60.5t-59 152.5q0 105 69.5 178.5t168.5 73.5q43 0 83 -18t63 -54l4 1q-28 93 -101.5 183t-120.5 127h75q29 -23 61.5 -60t69 -90t60 -122.5t23.5 -137.5q0 -132 -70.5 -213t-175.5 -81zM249 41q75 0 126.5 58.5t51.5 144.5q0 66 -41 110.5t-108 44.5
q-76 0 -127 -58.5t-51 -144.5q0 -66 40.5 -110.5t108.5 -44.5z" />
    <glyph glyph-name="product" unicode="&#x220f;" horiz-adv-x="829" 
d="M550 432q0 37 -26 60.5t-65 23.5h-100v-168h100q39 0 65 23.5t26 60.5zM799 351q0 -156 -105 -259.5t-256 -103.5q-152 0 -257 103.5t-105 259.5t105 258.5t257 102.5q151 0 256 -102.5t105 -258.5zM125 351q0 -139 89 -230t224 -91q134 0 223 91t89 230q0 138 -89 228.5
t-223 90.5q-135 0 -224 -90.5t-89 -228.5zM603 432q0 -55 -38.5 -91.5t-106.5 -36.5h-99v-157h-51v413h150q68 0 106.5 -36.5t38.5 -91.5z" />
    <glyph glyph-name="summation" unicode="&#x2211;" horiz-adv-x="580" 
d="M606 700l-10 -58h-411l151 -274l-6 -36l-243 -275h407l-10 -57h-476l10 59l259 296l-158 286l10 59h477z" />
    <glyph glyph-name="minus" unicode="&#x2212;" horiz-adv-x="480" 
d="M476 380l-9 -53h-420l9 53h420z" />
    <glyph glyph-name="uni2215" unicode="&#x2215;" horiz-adv-x="731" 
d="M774 738l31 -33l-799 -723l-31 33z" />
    <glyph glyph-name="radical" unicode="&#x221a;" horiz-adv-x="534" 
d="M129 441l70 -391l340 650h69l-375 -700h-81l-85 441h62z" />
    <glyph glyph-name="infinity" unicode="&#x221e;" horiz-adv-x="922" 
d="M154 351q0 -78 40.5 -113.5t90.5 -35.5q54 0 93.5 30.5t75.5 117.5q-36 86 -76 117t-93 31q-49 0 -90 -35.5t-41 -111.5zM483 399q27 75 78.5 114.5t120.5 39.5q78 0 134 -54.5t56 -148.5t-56 -148.5t-134 -54.5q-69 0 -120.5 39.5t-78.5 114.5q-28 -75 -79.5 -114.5
t-120.5 -39.5q-77 0 -132.5 53.5t-55.5 147.5q0 96 54.5 150.5t133.5 54.5q69 0 120.5 -39.5t79.5 -114.5zM812 351q0 76 -41 111.5t-90 35.5q-54 0 -93 -31t-76 -117q36 -87 75.5 -117.5t93.5 -30.5q50 0 90.5 35.5t40.5 113.5z" />
    <glyph glyph-name="integral" unicode="&#x222b;" horiz-adv-x="313" 
d="M249 583l-106 -609q-13 -76 -43 -113t-99 -37h-45l9 52h35q65 0 77 65l106 608q13 76 43 113.5t101 37.5h45l-9 -52h-35q-68 0 -79 -65z" />
    <glyph glyph-name="approxequal" unicode="&#x2248;" horiz-adv-x="480" 
d="M163 429q-44 0 -49 -54h-57l3 20q6 39 30 66.5t74 27.5q24 0 117 -27.5t112 -27.5q22 0 34 11.5t15 42.5h57l-3 -20q-6 -39 -30 -66.5t-74 -27.5q-28 0 -122 27.5t-107 27.5zM135 263q-44 0 -49 -54h-57l3 20q6 39 30 66.5t74 27.5q24 0 117 -27.5t112 -27.5
q22 0 34 11.5t15 42.5h57l-3 -20q-6 -39 -30 -66.5t-74 -27.5q-28 0 -122 27.5t-107 27.5z" />
    <glyph glyph-name="notequal" unicode="&#x2260;" horiz-adv-x="480" 
d="M462 300l-9 -53h-182l-18 -103h-57l18 103h-181l9 53h181l19 107h-181l9 53h181l18 101h57l-18 -101h182l-9 -53h-182l-19 -107h182z" />
    <glyph glyph-name="lessequal" unicode="&#x2264;" horiz-adv-x="480" 
d="M445 223l-11 -62l-393 152l12 69l447 152l-12 -68l-371 -121zM405 0h-419l10 53h419z" />
    <glyph glyph-name="greaterequal" unicode="&#x2265;" horiz-adv-x="480" 
d="M417 0h-419l10 53h419zM26 161l11 68l372 122l-329 121l12 62l393 -152l-12 -69z" />
    <glyph glyph-name="lozenge" unicode="&#x25ca;" horiz-adv-x="465" 
d="M60 350l220 350h78l92 -350l-214 -350h-80zM386 359l-74 288l-188 -306l77 -290z" />
    <glyph glyph-name="ff" unicode="&#xe389;" horiz-adv-x="527" 
d="M133 441l28 158q18 105 110 105l66 -4l-9 -53q-26 5 -42 5q-30 0 -46 -14t-21 -46l-25 -151h193l28 158q18 105 110 105l66 -4l-9 -53q-26 5 -42 5q-30 0 -46 -14t-21 -46l-25 -151h89l-9 -51h-90l-68 -390h-60l68 390h-194l-68 -390h-60l68 390h-75l10 51h74z" />
    <glyph glyph-name="ffi" unicode="&#xe38a;" horiz-adv-x="731" 
d="M701 441l-77 -441h-60l68 390h-194l-68 -390h-60l68 390h-194l-68 -390h-60l68 390h-75l10 51h74l28 158q18 105 110 105l66 -4l-9 -53q-26 5 -42 5q-30 0 -46 -14t-21 -46l-25 -151h193l28 158q18 105 110 105l66 -4l-9 -53q-26 5 -42 5q-30 0 -46 -14t-21 -46l-25 -151
h253zM641 601q0 22 15.5 37t37.5 15t37 -15t15 -37t-15 -37.5t-37 -15.5t-37.5 15.5t-15.5 37.5z" />
    <glyph glyph-name="ffi" unicode="&#xfb03;" horiz-adv-x="731" 
d="M701 441l-77 -441h-60l68 390h-194l-68 -390h-60l68 390h-194l-68 -390h-60l68 390h-75l10 51h74l28 158q18 105 110 105l66 -4l-9 -53q-26 5 -42 5q-30 0 -46 -14t-21 -46l-25 -151h193l28 158q18 105 110 105l66 -4l-9 -53q-26 5 -42 5q-30 0 -46 -14t-21 -46l-25 -151
h253zM641 601q0 22 15.5 37t37.5 15t37 -15t15 -37t-15 -37.5t-37 -15.5t-37.5 15.5t-15.5 37.5z" />
    <glyph glyph-name="ffl" unicode="&#xe38b;" horiz-adv-x="734" 
d="M746 700l-122 -700h-60l68 390h-194l-68 -390h-60l68 390h-194l-68 -390h-60l68 390h-75l10 51h74l28 158q18 105 110 105l66 -4l-9 -53q-26 5 -42 5q-30 0 -46 -14t-21 -46l-25 -151h193l28 158q18 105 110 105l66 -4l-9 -53q-26 5 -42 5q-30 0 -46 -14t-21 -46
l-25 -151h193l45 259h60z" />
    <glyph glyph-name="ffl" unicode="&#xfb04;" horiz-adv-x="734" 
d="M746 700l-122 -700h-60l68 390h-194l-68 -390h-60l68 390h-194l-68 -390h-60l68 390h-75l10 51h74l28 158q18 105 110 105l66 -4l-9 -53q-26 5 -42 5q-30 0 -46 -14t-21 -46l-25 -151h193l28 158q18 105 110 105l66 -4l-9 -53q-26 5 -42 5q-30 0 -46 -14t-21 -46
l-25 -151h193l45 259h60z" />
    <glyph glyph-name="fi" unicode="&#xe38c;" horiz-adv-x="477" 
d="M447 441l-77 -441h-60l68 390h-194l-68 -390h-60l68 390h-75l10 51h74l28 158q18 105 110 105l66 -4l-9 -53q-26 5 -42 5q-30 0 -46 -14t-21 -46l-25 -151h253zM387 601q0 22 15.5 37t37.5 15t37 -15t15 -37t-15 -37.5t-37 -15.5t-37.5 15.5t-15.5 37.5z" />
    <glyph glyph-name="fi" unicode="&#xfb01;" horiz-adv-x="477" 
d="M447 441l-77 -441h-60l68 390h-194l-68 -390h-60l68 390h-75l10 51h74l28 158q18 105 110 105l66 -4l-9 -53q-26 5 -42 5q-30 0 -46 -14t-21 -46l-25 -151h253zM387 601q0 22 15.5 37t37.5 15t37 -15t15 -37t-15 -37.5t-37 -15.5t-37.5 15.5t-15.5 37.5z" />
    <glyph glyph-name="fl" unicode="&#xe38d;" horiz-adv-x="480" 
d="M492 700l-122 -700h-60l68 390h-194l-68 -390h-60l68 390h-75l10 51h74l28 158q18 105 110 105l66 -4l-9 -53q-26 5 -42 5q-30 0 -46 -14t-21 -46l-25 -151h193l45 259h60z" />
    <glyph glyph-name="fl" unicode="&#xfb02;" horiz-adv-x="480" 
d="M492 700l-122 -700h-60l68 390h-194l-68 -390h-60l68 390h-75l10 51h74l28 158q18 105 110 105l66 -4l-9 -53q-26 5 -42 5q-30 0 -46 -14t-21 -46l-25 -151h193l45 259h60z" />
    <glyph glyph-name="ampersand.smcp" unicode="&#xe401;" horiz-adv-x="517" 
d="M188 -10q-71 0 -111.5 39t-40.5 98q0 57 31.5 101t95.5 86q-36 51 -36 107q0 64 41 106.5t105 42.5q59 0 95 -33t36 -82q0 -44 -29 -83l-55 16q23 38 23 62q0 29 -19.5 47t-51.5 18q-40 0 -61 -26t-21 -65q0 -46 43 -103l118 -157q17 26 43 76.5t28 53.5h72
q-67 -123 -105 -178l90 -112l-1 -4h-76l-55 70q-67 -80 -159 -80zM184 46q35 0 62.5 16t65.5 54l-118 155q-55 -49 -75.5 -76.5t-20.5 -65.5q0 -36 26 -59.5t60 -23.5z" />
    <glyph glyph-name="ampersand.smcp" unicode="&#xf726;" horiz-adv-x="517" 
d="M188 -10q-71 0 -111.5 39t-40.5 98q0 57 31.5 101t95.5 86q-36 51 -36 107q0 64 41 106.5t105 42.5q59 0 95 -33t36 -82q0 -44 -29 -83l-55 16q23 38 23 62q0 29 -19.5 47t-51.5 18q-40 0 -61 -26t-21 -65q0 -46 43 -103l118 -157q17 26 43 76.5t28 53.5h72
q-67 -123 -105 -178l90 -112l-1 -4h-76l-55 70q-67 -80 -159 -80zM184 46q35 0 62.5 16t65.5 54l-118 155q-55 -49 -75.5 -76.5t-20.5 -65.5q0 -36 26 -59.5t60 -23.5z" />
    <glyph glyph-name="commaaccent" unicode="&#xe414;" horiz-adv-x="203" 
d="M-37 -127q0 21 15.5 37t37.5 16t37 -15t15 -36t-16 -41l-74 -93l-44 8l53 80q-24 14 -24 44z" />
    <glyph glyph-name="commaaccent" unicode="&#xf6c3;" horiz-adv-x="203" 
d="M-37 -127q0 21 15.5 37t37.5 16t37 -15t15 -36t-16 -41l-74 -93l-44 8l53 80q-24 14 -24 44z" />
    <glyph glyph-name="zero.smcp" unicode="&#xe43b;" horiz-adv-x="448" 
d="M199 43q96 0 140 229q13 76 13 123q0 122 -82 122q-96 0 -137 -228q-15 -73 -15 -124q0 -122 81 -122zM196 -10q-138 0 -138 179q0 37 13 126q50 275 201 275q139 0 139 -179q0 -43 -14 -124q-48 -277 -201 -277z" />
    <glyph glyph-name="zero.smcp" unicode="&#xe598;" horiz-adv-x="448" 
d="M199 43q96 0 140 229q13 76 13 123q0 122 -82 122q-96 0 -137 -228q-15 -73 -15 -124q0 -122 81 -122zM196 -10q-138 0 -138 179q0 37 13 126q50 275 201 275q139 0 139 -179q0 -43 -14 -124q-48 -277 -201 -277z" />
    <glyph glyph-name="one.smcp" unicode="&#xe43c;" horiz-adv-x="448" 
d="M54 0l10 53h110l83 452h-111l8 55h173l-91 -507h118l-10 -53h-290z" />
    <glyph glyph-name="one.smcp" unicode="&#xe599;" horiz-adv-x="448" 
d="M54 0l10 53h110l83 452h-111l8 55h173l-91 -507h118l-10 -53h-290z" />
    <glyph glyph-name="two.smcp" unicode="&#xe43d;" horiz-adv-x="448" 
d="M10 0l11 57q19 16 55 44t119 98q97 78 133.5 127t36.5 101q0 38 -27 64t-74 26q-46 0 -76.5 -27.5t-30.5 -75.5q0 -24 5 -47l-56 -6q-8 27 -8 54q0 66 45 110.5t123 44.5q73 0 116.5 -42.5t43.5 -98.5q0 -57 -36.5 -111t-146.5 -144q-80 -67 -101.5 -83t-44.5 -36h262
q-2 -10 -9 -55h-340z" />
    <glyph glyph-name="two.smcp" unicode="&#xe59a;" horiz-adv-x="448" 
d="M10 0l11 57q19 16 55 44t119 98q97 78 133.5 127t36.5 101q0 38 -27 64t-74 26q-46 0 -76.5 -27.5t-30.5 -75.5q0 -24 5 -47l-56 -6q-8 27 -8 54q0 66 45 110.5t123 44.5q73 0 116.5 -42.5t43.5 -98.5q0 -57 -36.5 -111t-146.5 -144q-80 -67 -101.5 -83t-44.5 -36h262
q-2 -10 -9 -55h-340z" />
    <glyph glyph-name="three.smcp" unicode="&#xe43e;" horiz-adv-x="448" 
d="M197 -10q-77 0 -117.5 42.5t-40.5 107.5q0 18 4 37h59q-4 -19 -4 -35q0 -45 24.5 -73t76.5 -28t83.5 42.5t31.5 104.5q0 100 -126 100q-5 0 -27 -2l10 51l185 168h-240l12 55h302l-12 -61l-185 -166q61 1 101.5 -40.5t40.5 -99.5q0 -83 -47 -143t-131 -60z" />
    <glyph glyph-name="three.smcp" unicode="&#xe59b;" horiz-adv-x="448" 
d="M197 -10q-77 0 -117.5 42.5t-40.5 107.5q0 18 4 37h59q-4 -19 -4 -35q0 -45 24.5 -73t76.5 -28t83.5 42.5t31.5 104.5q0 100 -126 100q-5 0 -27 -2l10 51l185 168h-240l12 55h302l-12 -61l-185 -166q61 1 101.5 -40.5t40.5 -99.5q0 -83 -47 -143t-131 -60z" />
    <glyph glyph-name="four.smcp" unicode="&#xe43f;" horiz-adv-x="448" 
d="M222 0l30 170h-231l9 50l259 340h97l-63 -340h84l-10 -50h-83l-32 -170h-60zM89 220h173l55 300z" />
    <glyph glyph-name="four.smcp" unicode="&#xe59c;" horiz-adv-x="448" 
d="M222 0l30 170h-231l9 50l259 340h97l-63 -340h84l-10 -50h-83l-32 -170h-60zM89 220h173l55 300z" />
    <glyph glyph-name="five.smcp" unicode="&#xe440;" horiz-adv-x="448" 
d="M203 -10q-79 0 -120.5 41.5t-41.5 109.5q0 9 4 36h60q-5 -21 -5 -38q0 -43 24 -70.5t77 -27.5q55 0 90 47.5t35 118.5q0 50 -28 75t-70 25q-53 0 -87 -31l-49 7l59 277h278l-10 -57h-229l-35 -168h2q32 24 82 24q67 0 106.5 -42t39.5 -109q0 -97 -53 -157.5t-129 -60.5z
" />
    <glyph glyph-name="five.smcp" unicode="&#xe59d;" horiz-adv-x="448" 
d="M203 -10q-79 0 -120.5 41.5t-41.5 109.5q0 9 4 36h60q-5 -21 -5 -38q0 -43 24 -70.5t77 -27.5q55 0 90 47.5t35 118.5q0 50 -28 75t-70 25q-53 0 -87 -31l-49 7l59 277h278l-10 -57h-229l-35 -168h2q32 24 82 24q67 0 106.5 -42t39.5 -109q0 -97 -53 -157.5t-129 -60.5z
" />
    <glyph glyph-name="six.smcp" unicode="&#xe441;" horiz-adv-x="448" 
d="M209 -10q-72 0 -117 45t-45 118q0 191 252 407h82q-50 -42 -117.5 -111t-115.5 -138h2q41 33 95 33q58 0 102 -40.5t44 -111.5q0 -92 -51 -147t-131 -55zM211 42q54 0 86.5 41.5t32.5 100.5q0 48 -26 79t-77 31q-54 0 -86.5 -43.5t-32.5 -100.5q0 -47 26 -77.5t77 -30.5z
" />
    <glyph glyph-name="six.smcp" unicode="&#xe59e;" horiz-adv-x="448" 
d="M209 -10q-72 0 -117 45t-45 118q0 191 252 407h82q-50 -42 -117.5 -111t-115.5 -138h2q41 33 95 33q58 0 102 -40.5t44 -111.5q0 -92 -51 -147t-131 -55zM211 42q54 0 86.5 41.5t32.5 100.5q0 48 -26 79t-77 31q-54 0 -86.5 -43.5t-32.5 -100.5q0 -47 26 -77.5t77 -30.5z
" />
    <glyph glyph-name="exclam.smcp" unicode="&#xe442;" horiz-adv-x="243" 
d="M91 -12q-22 0 -38 16t-16 38q0 23 16 39t38 16q23 0 39.5 -16t16.5 -39q0 -22 -16.5 -38t-39.5 -16zM81 178l66 382h61l-70 -382h-57z" />
    <glyph glyph-name="exclam.smcp" unicode="&#xf721;" horiz-adv-x="243" 
d="M91 -12q-22 0 -38 16t-16 38q0 23 16 39t38 16q23 0 39.5 -16t16.5 -39q0 -22 -16.5 -38t-39.5 -16zM81 178l66 382h61l-70 -382h-57z" />
    <glyph glyph-name="exclamdown.smcp" unicode="&#xe443;" horiz-adv-x="242" 
d="M172 572q22 0 38 -16t16 -38q0 -23 -16 -39t-38 -16q-23 0 -39.5 16t-16.5 39q0 22 16.5 38t39.5 16zM182 382l-66 -382h-61l70 382h57z" />
    <glyph glyph-name="exclamdown.smcp" unicode="&#xf7a1;" horiz-adv-x="242" 
d="M172 572q22 0 38 -16t16 -38q0 -23 -16 -39t-38 -16q-23 0 -39.5 16t-16.5 39q0 22 16.5 38t39.5 16zM182 382l-66 -382h-61l70 382h57z" />
    <glyph glyph-name="nine.smcp" unicode="&#xe444;" horiz-adv-x="448" 
d="M87 0q50 42 117.5 111t115.5 137l-2 1q-39 -33 -95 -33q-57 0 -101.5 40.5t-44.5 110.5q0 92 51.5 147.5t130.5 55.5q72 0 117 -45.5t45 -117.5q0 -191 -252 -407h-82zM241 266q54 0 86.5 43.5t32.5 100.5q0 46 -26 76.5t-77 30.5q-54 0 -86.5 -41t-32.5 -100
q0 -48 26 -79t77 -31z" />
    <glyph glyph-name="nine.smcp" unicode="&#xe602;" horiz-adv-x="448" 
d="M87 0q50 42 117.5 111t115.5 137l-2 1q-39 -33 -95 -33q-57 0 -101.5 40.5t-44.5 110.5q0 92 51.5 147.5t130.5 55.5q72 0 117 -45.5t45 -117.5q0 -191 -252 -407h-82zM241 266q54 0 86.5 43.5t32.5 100.5q0 46 -26 76.5t-77 30.5q-54 0 -86.5 -41t-32.5 -100
q0 -48 26 -79t77 -31z" />
    <glyph glyph-name="question.smcp" unicode="&#xe445;" horiz-adv-x="404" 
d="M155 -12q-22 0 -38 16t-16 38q0 23 16 39t38 16q23 0 39.5 -16t16.5 -39q0 -22 -16.5 -38t-39.5 -16zM147 155l29 155q157 0 157 120q0 39 -25.5 62.5t-70.5 23.5q-92 0 -110 -117h-59q9 80 53.5 125.5t115.5 45.5q69 0 112 -39t43 -102q0 -69 -43.5 -114t-118.5 -52
l-33 -108h-50z" />
    <glyph glyph-name="question.smcp" unicode="&#xf73f;" horiz-adv-x="404" 
d="M155 -12q-22 0 -38 16t-16 38q0 23 16 39t38 16q23 0 39.5 -16t16.5 -39q0 -22 -16.5 -38t-39.5 -16zM147 155l29 155q157 0 157 120q0 39 -25.5 62.5t-70.5 23.5q-92 0 -110 -117h-59q9 80 53.5 125.5t115.5 45.5q69 0 112 -39t43 -102q0 -69 -43.5 -114t-118.5 -52
l-33 -108h-50z" />
    <glyph glyph-name="questiondown.smcp" unicode="&#xe446;" horiz-adv-x="403" 
d="M269 569q22 0 38 -16t16 -38q0 -23 -16 -39t-38 -16q-23 0 -39.5 16t-16.5 39q0 22 16.5 38t39.5 16zM277 403l-29 -155q-157 0 -157 -120q0 -39 25.5 -62.5t70.5 -23.5q92 0 110 117h59q-9 -80 -53.5 -125.5t-115.5 -45.5q-69 0 -112 39t-43 102q0 69 43.5 114t118.5 52
l33 108h50z" />
    <glyph glyph-name="questiondown.smcp" unicode="&#xf7bf;" horiz-adv-x="403" 
d="M269 569q22 0 38 -16t16 -38q0 -23 -16 -39t-38 -16q-23 0 -39.5 16t-16.5 39q0 22 16.5 38t39.5 16zM277 403l-29 -155q-157 0 -157 -120q0 -39 25.5 -62.5t70.5 -23.5q92 0 110 117h59q-9 -80 -53.5 -125.5t-115.5 -45.5q-69 0 -112 39t-43 102q0 69 43.5 114t118.5 52
l33 108h50z" />
    <glyph glyph-name="slash.smcp" unicode="&#xe467;" horiz-adv-x="317" 
d="M-1 0l286 560h54l-286 -560h-54z" />
    <glyph glyph-name="backslash.smcp" unicode="&#xe468;" horiz-adv-x="325" 
d="M191 0l-90 560h52l91 -560h-53z" />
    <glyph glyph-name="bar.smcp" unicode="&#xe469;" horiz-adv-x="223" 
d="M31 -74l121 682h56l-122 -682h-55z" />
    <glyph glyph-name="brokenbar.smcp" unicode="&#xe46b;" horiz-adv-x="226" 
d="M33 -74l50 282h56l-50 -282h-56zM102 325l51 283h57l-50 -283h-58z" />
    <glyph glyph-name="J.alt" unicode="&#xe489;" horiz-adv-x="242" 
d="M-72 -56h37q44 0 64 17t27 61l118 678h62l-119 -681q-12 -68 -44 -99.5t-102 -31.5h-53z" />
    <glyph glyph-name="parenleft.cap" unicode="&#xe491;" horiz-adv-x="308" 
d="M63 275q0 140 68.5 268.5t182.5 225.5h61l-3 -15q-247 -223 -247 -483q0 -183 103 -341l-3 -13h-53q-109 176 -109 358z" />
    <glyph glyph-name="parenright.cap" unicode="&#xe492;" horiz-adv-x="308" 
d="M288 411q0 -140 -68.5 -268.5t-182.5 -225.5h-61l3 15q247 223 247 483q0 183 -103 341l3 13h53q109 -176 109 -358z" />
    <glyph glyph-name="bracketleft.cap" unicode="&#xe493;" horiz-adv-x="334" 
d="M380 719h-143l-129 -742h142l-10 -55h-203l149 853h204z" />
    <glyph glyph-name="bracketright.cap" unicode="&#xe494;" horiz-adv-x="333" 
d="M-11 -78l10 56h141l129 741h-142l10 56h204l-149 -853h-203z" />
    <glyph glyph-name="braceleft.cap" unicode="&#xe495;" horiz-adv-x="357" 
d="M56 350l9 51h79l65 374h204l-11 -56h-140l-47 -271q-12 -65 -59 -75q21 -6 30 -24.5t5 -40.5l-58 -330h141l-11 -56h-203l75 428h-79z" />
    <glyph glyph-name="braceright.cap" unicode="&#xe496;" horiz-adv-x="356" 
d="M355 401l-9 -51h-79l-75 -428h-202l10 56h139l58 330q9 53 56 65q-43 18 -32 75l47 271h-141l11 56h203l-65 -374h79z" />
    <glyph glyph-name="parenleft.smcp" unicode="&#xe499;" horiz-adv-x="265" 
d="M139 -69q-91 141 -91 284q0 111 54.5 214t147.5 185h58l-1 -12q-95 -87 -146.5 -182t-51.5 -211q0 -140 84 -266l-3 -12h-51z" />
    <glyph glyph-name="parenleft.smcp" unicode="&#xf618;" horiz-adv-x="265" 
d="M139 -69q-91 141 -91 284q0 111 54.5 214t147.5 185h58l-1 -12q-95 -87 -146.5 -182t-51.5 -211q0 -140 84 -266l-3 -12h-51z" />
    <glyph glyph-name="parenright.smcp" unicode="&#xe49a;" horiz-adv-x="264" 
d="M-27 -69l2 12q95 87 146 182t51 211q0 139 -83 266l2 12h51q92 -140 92 -284q0 -111 -55 -214t-148 -185h-58z" />
    <glyph glyph-name="parenright.smcp" unicode="&#xf619;" horiz-adv-x="264" 
d="M-27 -69l2 12q95 87 146 182t51 211q0 139 -83 266l2 12h51q92 -140 92 -284q0 -111 -55 -214t-148 -185h-58z" />
    <glyph glyph-name="bracketleft.smcp" unicode="&#xe49b;" horiz-adv-x="288" 
d="M33 -68l120 682h174l-10 -53h-114l-101 -577h113l-10 -52h-172z" />
    <glyph glyph-name="bracketleft.smcp" unicode="&#xf60e;" horiz-adv-x="288" 
d="M33 -68l120 682h174l-10 -53h-114l-101 -577h113l-10 -52h-172z" />
    <glyph glyph-name="bracketright.smcp" unicode="&#xe49c;" horiz-adv-x="288" 
d="M-19 -68l9 53h112l101 576h-113l10 53h173l-120 -682h-172z" />
    <glyph glyph-name="bracketright.smcp" unicode="&#xf60f;" horiz-adv-x="288" 
d="M-19 -68l9 53h112l101 576h-113l10 53h173l-120 -682h-172z" />
    <glyph glyph-name="braceleft.smcp" unicode="&#xe49d;" horiz-adv-x="299" 
d="M43 -68l60 338h-64l9 48h63l52 296h174l-10 -53h-112l-37 -208q-11 -55 -49 -62q18 -6 25 -22t4 -34l-44 -250h113l-11 -53h-173z" />
    <glyph glyph-name="braceleft.smcp" unicode="&#xf60c;" horiz-adv-x="299" 
d="M43 -68l60 338h-64l9 48h63l52 296h174l-10 -53h-112l-37 -208q-11 -55 -49 -62q18 -6 25 -22t4 -34l-44 -250h113l-11 -53h-173z" />
    <glyph glyph-name="braceright.smcp" unicode="&#xe49e;" horiz-adv-x="298" 
d="M-19 -68l9 53h111l45 250q7 45 47 56q-35 20 -27 62l36 208h-113l11 53h173l-51 -296h63l-9 -48h-63l-60 -338h-172z" />
    <glyph glyph-name="braceright.smcp" unicode="&#xf60d;" horiz-adv-x="298" 
d="M-19 -68l9 53h111l45 250q7 45 47 56q-35 20 -27 62l36 208h-113l11 53h173l-51 -296h63l-9 -48h-63l-60 -338h-172z" />
    <glyph glyph-name="seven.smcp" unicode="&#xe59f;" horiz-adv-x="448" 
d="M83 0l282 504h-272l11 56h335l-9 -52l-275 -508h-72z" />
    <glyph glyph-name="eight.smcp" unicode="&#xe601;" horiz-adv-x="448" 
d="M205 -10q-75 0 -122 40.5t-47 105.5q0 57 34.5 100t84.5 60q-28 17 -45 46.5t-17 62.5q0 72 49 118.5t120 46.5q68 0 112.5 -37.5t44.5 -102.5q0 -49 -29 -90.5t-76 -58.5q32 -16 53 -49.5t21 -71.5q0 -76 -54 -123t-129 -47zM205 40q54 0 87.5 36.5t33.5 84.5
q0 43 -28.5 71.5t-81.5 28.5q-49 0 -84.5 -35.5t-35.5 -85.5q0 -42 28 -71t81 -29zM251 310q49 0 79.5 34.5t30.5 84.5q0 39 -25.5 63.5t-73.5 24.5q-51 0 -80 -33.5t-29 -83.5q0 -40 24.5 -65t73.5 -25z" />
    <glyph glyph-name="IJ.alt" unicode="&#xe88a;" horiz-adv-x="484" 
d="M52 0l122 700h62l-122 -700h-62zM170 -56h37q44 0 64 17t27 61l118 678h62l-119 -681q-12 -68 -44 -99.5t-102 -31.5h-53z" />
    <glyph glyph-name="sterling.smcp" unicode="&#xf189;" horiz-adv-x="437" 
d="M12 0l9 52h49q36 40 49.5 67.5t13.5 64.5q0 12 -7 68h-68l9 49h50q-9 55 -9 80q0 88 48 138.5t124 50.5q71 0 113.5 -39t42.5 -103q0 -18 -1 -23h-60q1 7 1 22q0 41 -24 65t-70 24q-55 0 -84 -38t-29 -96q0 -7 10 -81h143l-7 -49h-128q7 -68 -5.5 -111t-51.5 -89h219
l-8 -52h-329z" />
    <glyph glyph-name="florin.smcp" unicode="&#xf190;" horiz-adv-x="312" 
d="M-29 -140l10 49h27q54 0 62 47l48 272h-72l8 50h72l27 148q12 67 36.5 100.5t85.5 33.5h43l-10 -50h-27q-56 0 -62 -47l-34 -185h72l-9 -50h-71l-42 -236q-6 -32 -12.5 -52.5t-19.5 -40.5t-35 -29.5t-53 -9.5h-44z" />
    <glyph glyph-name="yen.smcp" unicode="&#xf191;" horiz-adv-x="477" 
d="M171 0l32 185h-157l9 49h157l-29 90h-113l10 50h90l-68 186h69l80 -255h1l171 255h73l-133 -187h87l-10 -49h-112l-58 -90h155l-9 -49h-154l-33 -185h-58z" />
    <glyph glyph-name="numbersign.smcp" unicode="&#xf192;" horiz-adv-x="458" 
d="M104 81l20 116h-70l9 50h69l18 97h-70l8 49h71l21 117h53l-22 -117h95l21 117h53l-20 -117h71l-9 -49h-70l-18 -97h71l-9 -50h-71l-21 -116h-53l20 116h-93l-21 -116h-53zM185 247h95l18 97h-95z" />
    <glyph glyph-name="percent.smcp" unicode="&#xf213;" horiz-adv-x="614" 
d="M195 374q29 0 49.5 21.5t20.5 50.5q0 31 -20.5 52t-49.5 21q-27 0 -47 -21.5t-20 -51.5q0 -29 20 -50.5t47 -21.5zM195 325q-50 0 -85.5 35.5t-35.5 85.5q0 51 35.5 87.5t85.5 36.5q51 0 87 -36.5t36 -87.5q0 -50 -36 -85.5t-87 -35.5zM96 79l-29 38l468 359l30 -38z
M439 39q28 0 48.5 21.5t20.5 50.5q0 31 -20 52.5t-49 21.5q-28 0 -48 -21.5t-20 -52.5q0 -29 20 -50.5t48 -21.5zM439 -10q-50 0 -86.5 36t-36.5 85q0 51 36.5 87.5t86.5 36.5t86 -36.5t36 -87.5q0 -50 -36 -85.5t-86 -35.5z" />
    <glyph glyph-name="perthousand.smcp" unicode="&#xf214;" horiz-adv-x="905" 
d="M199 374q29 0 49.5 21.5t20.5 50.5q0 31 -20.5 52t-49.5 21q-27 0 -47 -21.5t-20 -51.5q0 -29 20 -50.5t47 -21.5zM199 325q-50 0 -85.5 35.5t-35.5 85.5q0 51 35.5 87.5t85.5 36.5q51 0 87 -36.5t36 -87.5q0 -50 -36 -85.5t-87 -35.5zM100 79l-29 38l468 359l30 -38z
M443 39q28 0 48.5 21.5t20.5 50.5q0 31 -20 52.5t-49 21.5q-28 0 -48 -21.5t-20 -52.5q0 -29 20 -50.5t48 -21.5zM443 -10q-50 0 -86.5 36t-36.5 85q0 51 36.5 87.5t86.5 36.5t86 -36.5t36 -87.5q0 -50 -36 -85.5t-86 -35.5zM734 39q28 0 48.5 21.5t20.5 50.5q0 31 -20 52.5
t-49 21.5q-28 0 -48 -21.5t-20 -52.5q0 -29 20 -50.5t48 -21.5zM734 -10q-50 0 -86.5 36t-36.5 85q0 51 36.5 87.5t86.5 36.5t86 -36.5t36 -87.5q0 -50 -36 -85.5t-86 -35.5z" />
    <glyph glyph-name="plusminus.smcp" unicode="&#xf231;" horiz-adv-x="424" 
d="M164 110l27 147h-145l8 49h145l25 144h54l-26 -144h146l-8 -49h-146l-27 -147h-53zM1 0l8 49h343l-8 -49h-343z" />
    <glyph glyph-name="multiply.smcp" unicode="&#xf232;" horiz-adv-x="424" 
d="M322 121q-70 94 -104 137q-33 -26 -55 -43t-38.5 -30t-54.5 -44l-31 42q123 96 149 117l-102 138l41 31l103 -137q45 36 76.5 60t70.5 55q7 -12 15 -21.5t15 -19.5l-145 -115l101 -138q-8 -6 -19 -14.5t-22 -17.5z" />
    <glyph glyph-name="divide.smcp" unicode="&#xf233;" horiz-adv-x="424" 
d="M213 102q-22 0 -37 15t-15 37t14.5 37.5t36.5 15.5t37.5 -15.5t14.5 -37.5q1 -22 -14 -37t-37 -15zM47 257l8 49h344l-8 -49h-344zM260 363q-22 0 -37 15t-15 37t15 37.5t37 15.5t37 -15.5t15 -37.5t-15 -37t-37 -15z" />
    <glyph glyph-name="notequal.smcp" unicode="&#xf234;" horiz-adv-x="424" 
d="M57 319l8 50h145l14 81h54l-14 -81h145l-8 -50h-146l-14 -76h146l-8 -49h-146l-15 -84h-53l14 84h-144l8 49h145l13 76h-144z" />
    <glyph glyph-name="approxequal.smcp" unicode="&#xf235;" horiz-adv-x="424" 
d="M302 160q-26 0 -98 19.5t-81 19.5q-23 0 -32 -12t-8 -27h-55l2 20q2 29 24.5 53.5t64.5 24.5q22 0 91.5 -19t87.5 -19q39 0 39 39h56l-3 -20q-1 -28 -23.5 -53.5t-64.5 -25.5zM325 296q-26 0 -98 19.5t-81 19.5q-23 0 -32 -12t-8 -27h-55l2 19q2 29 24.5 54t64.5 25
q22 0 91.5 -19t87.5 -19q39 0 39 39h56l-3 -20q-1 -28 -23.5 -53.5t-64.5 -25.5z" />
    <glyph glyph-name="less.smcp" unicode="&#xf236;" horiz-adv-x="511" 
d="M238 88l-171 197l215 194l35 -38l-147 -130h305l-11 -53h-304l117 -134z" />
    <glyph glyph-name="greater.smcp" unicode="&#xf237;" horiz-adv-x="512" 
d="M253 91l-36 38l143 129h-300l10 53h304l-117 135l39 36l171 -196z" />
    <glyph glyph-name="lessequal.smcp" unicode="&#xf238;" horiz-adv-x="424" 
d="M363 128l-321 122l10 59l365 122l-12 -64l-277 -87l246 -88zM-3 0l10 49h343l-10 -49h-343z" />
    <glyph glyph-name="greaterequal.smcp" unicode="&#xf239;" horiz-adv-x="424" 
d="M30 128l11 64l279 88l-248 87l12 64l323 -122l-10 -59zM8 0l10 49h343l-10 -49h-343z" />
    <glyph glyph-name="zero.alt" unicode="&#xf242;" horiz-adv-x="520" 
d="M329 712q165 0 165 -219q0 -59 -17 -159q-60 -346 -241 -346q-165 0 -165 219q0 57 17 161q60 344 241 344zM151 362q-18 -93 -18 -159q0 -162 105 -162q124 0 179 298q17 93 17 157q0 162 -107 162q-124 0 -176 -296z" />
    <glyph glyph-name="one.alt" unicode="&#xf243;" horiz-adv-x="405" 
d="M121 644l9 56h201l-114 -645h139l-10 -55h-338l10 55h137l105 589h-139z" />
    <glyph glyph-name="two.alt" unicode="&#xf244;" horiz-adv-x="508" 
d="M304 236l-210 -181h332l-10 -55h-408l11 58l242 210q105 92 146.5 150.5t41.5 119.5q0 53 -36.5 87t-97.5 34q-58 0 -99 -36.5t-41 -101.5q0 -24 8 -54l-57 -8q-10 29 -10 64q0 85 57 137t145 52q86 0 139 -49.5t53 -121.5q0 -69 -39.5 -132.5t-166.5 -172.5z" />
    <glyph glyph-name="three.alt" unicode="&#xf245;" horiz-adv-x="493" 
d="M42 220h62q-7 -32 -7 -53q0 -55 31.5 -91t96.5 -36q72 0 113 58.5t41 137.5q0 67 -43 99.5t-116 32.5q-12 0 -28 -2l9 51l238 227h-299l12 56h364l-12 -62l-235 -224q75 0 122.5 -50.5t47.5 -124.5q0 -104 -57 -177.5t-157 -73.5q-90 0 -139.5 49.5t-49.5 129.5
q0 21 6 53z" />
    <glyph glyph-name="four.alt" unicode="&#xf246;" horiz-adv-x="511" 
d="M29 221l10 53l323 426h100l-76 -426h103l-10 -53h-102l-40 -221h-62l39 221h-285zM392 657l-290 -383h222z" />
    <glyph glyph-name="five.alt" unicode="&#xf247;" horiz-adv-x="496" 
d="M226 -12q-90 0 -138 49.5t-48 129.5q0 21 6 53h62q-7 -32 -7 -53q0 -55 31.5 -91t96.5 -36q73 0 116 64t43 158q0 62 -32 98t-100 36q-57 0 -103 -38l-51 7l66 335h338l-9 -56h-286l-45 -224h1q43 28 103 28q87 0 133 -52t46 -137q0 -116 -62.5 -193.5t-160.5 -77.5z" />
    <glyph glyph-name="six.alt" unicode="&#xf248;" horiz-adv-x="498" 
d="M354 700h83q-187 -163 -280 -317l2 -1q51 48 126 48q73 0 126 -50t53 -139q0 -115 -63.5 -184t-159.5 -69q-87 0 -140 55t-53 145q0 73 29 150t79 144.5t97 118.5t101 99zM268 379q-72 0 -115 -58.5t-43 -138.5q0 -62 33.5 -102t99.5 -40q72 0 116 57t44 138
q0 63 -33.5 103.5t-101.5 40.5z" />
    <glyph glyph-name="seven.alt" unicode="&#xf249;" horiz-adv-x="457" 
d="M165 0h-74l350 644h-341l11 56h405l-9 -55z" />
    <glyph glyph-name="eight.alt" unicode="&#xf250;" horiz-adv-x="529" 
d="M108 171q0 -57 38 -94.5t104 -37.5q71 0 115 48t44 112q0 56 -37 94t-106 38q-67 0 -112.5 -47.5t-45.5 -112.5zM325 712q81 0 134 -45.5t53 -124.5q0 -67 -36 -119t-100 -72q43 -20 69 -61.5t26 -90.5q0 -95 -65 -153t-156 -58t-147 49.5t-56 129.5q0 72 43 126.5
t109 74.5q-36 20 -57.5 58t-21.5 80q0 90 59.5 148t145.5 58zM309 382q67 0 106.5 46t39.5 113q0 53 -35 85.5t-96 32.5q-68 0 -106.5 -45.5t-38.5 -112.5q0 -53 34.5 -86t95.5 -33z" />
    <glyph glyph-name="nine.alt" unicode="&#xf251;" horiz-adv-x="499" 
d="M190 0h-83q187 163 280 316l-2 2q-49 -48 -126 -48q-73 0 -126 49.5t-53 138.5q0 115 63.5 184.5t159.5 69.5q87 0 140 -55.5t53 -144.5q0 -73 -29 -150t-79 -144.5t-97 -118.5t-101 -99zM276 321q73 0 115.5 58t42.5 139q0 61 -33.5 101t-99.5 40q-72 0 -116 -56.5
t-44 -137.5q0 -64 33.5 -104t101.5 -40z" />
    <glyph glyph-name="zero.posf" unicode="&#xf252;" horiz-adv-x="479" 
d="M211 44q61 0 103 53t57 141q15 90 -9.5 142.5t-87.5 51.5q-61 0 -103 -52.5t-57 -140.5q-15 -90 9.5 -142.5t87.5 -52.5zM204 -12q-87 0 -130.5 68t-23.5 187q20 118 82.5 181.5t148.5 63.5q87 0 130.5 -67.5t23.5 -186.5q-20 -118 -82.5 -182t-148.5 -64z" />
    <glyph glyph-name="one.posf" unicode="&#xf253;" horiz-adv-x="352" 
d="M84 421l9 54h172l-74 -421h107l-9 -54h-277l9 54h108l65 367h-110z" />
    <glyph glyph-name="two.posf" unicode="&#xf254;" horiz-adv-x="469" 
d="M372 342q0 40 -32.5 67.5t-84.5 27.5q-50 0 -87.5 -27t-37.5 -75q0 -30 12 -57l-56 -9q-15 28 -15 66q0 71 55.5 112.5t130.5 41.5q79 0 128.5 -42.5t49.5 -106.5q0 -35 -13 -64t-42 -55.5t-58 -46t-77 -47.5l-126 -73h274l-10 -54h-366l15 59l181 110q96 59 127.5 91.5
t31.5 81.5z" />
    <glyph glyph-name="three.posf" unicode="&#xf255;" horiz-adv-x="454" 
d="M60 -2q0 -40 29 -70.5t84 -30.5q68 0 106 49t38 112q0 56 -38 90t-98 34q-40 0 -59 -4l8 51l226 192h-262l9 54h344l-10 -51l-231 -194q76 0 124 -47.5t48 -120.5q0 -93 -56.5 -155t-150.5 -62q-80 0 -125.5 44t-45.5 109q0 24 7 56h59q-6 -30 -6 -56z" />
    <glyph glyph-name="four.posf" unicode="&#xf256;" horiz-adv-x="466" 
d="M-4 51l8 50l294 374h91l-66 -373h96l-9 -51h-96l-34 -195h-57l34 195h-261zM320 422h-3l-249 -320h198z" />
    <glyph glyph-name="five.posf" unicode="&#xf257;" horiz-adv-x="451" 
d="M171 -105q70 0 109.5 56t39.5 135q0 48 -28.5 85t-84.5 37q-50 0 -92 -35l-53 7l54 295h317l-9 -54h-262l-36 -191q35 26 89 26q81 0 122.5 -50.5t41.5 -122.5q0 -103 -58 -171t-151 -68q-75 0 -120 43.5t-45 112.5q0 27 7 54h59q-7 -22 -7 -49q0 -48 27 -79t80 -31z" />
    <glyph glyph-name="six.posf" unicode="&#xf258;" horiz-adv-x="488" 
d="M340 617h80q-183 -147 -269 -279l2 -1q49 43 121 43q70 0 121 -44.5t51 -123.5q0 -100 -60.5 -162t-152.5 -62q-83 0 -135 50t-52 130q0 207 294 449zM257 332q-70 0 -111 -49.5t-41 -119.5q0 -53 33 -89.5t96 -36.5q70 0 111.5 50.5t41.5 121.5q0 54 -32.5 88.5
t-97.5 34.5z" />
    <glyph glyph-name="seven.posf" unicode="&#xf259;" horiz-adv-x="415" 
d="M105 -144h-66l321 565h-302l9 54h362l-9 -51z" />
    <glyph glyph-name="eight.posf" unicode="&#xf260;" horiz-adv-x="510" 
d="M104 151q0 -48 35 -80.5t96 -32.5q65 0 106.5 41.5t41.5 96.5q0 48 -34.5 81t-98.5 33q-62 0 -104 -42t-42 -97zM307 628q76 0 125.5 -40t49.5 -111q0 -59 -33.5 -105t-94.5 -64q41 -17 65 -53.5t24 -79.5q0 -84 -61 -135.5t-147 -51.5q-85 0 -137.5 44.5t-52.5 115.5
q0 66 40.5 113.5t101.5 61.5q-33 18 -53 51.5t-20 71.5q0 80 55.5 131t137.5 51zM292 340q62 0 98.5 39.5t36.5 96.5q0 45 -33 73.5t-88 28.5q-63 0 -99 -38.5t-36 -95.5q0 -46 32.5 -75t88.5 -29z" />
    <glyph glyph-name="nine.posf" unicode="&#xf261;" horiz-adv-x="466" 
d="M145 -141h-80q183 147 269 279l-2 1q-49 -43 -121 -43q-70 0 -121 44.5t-51 123.5q0 100 60.5 162t152.5 62q83 0 135 -50t52 -130q0 -207 -294 -449zM228 144q70 0 111 49.5t41 119.5q0 53 -33 89.5t-96 36.5q-70 0 -111.5 -50.5t-41.5 -121.5q0 -54 32.5 -88.5
t97.5 -34.5z" />
    <glyph glyph-name="zero.sups" unicode="&#xf262;" 
d="M265 481q62 0 90 150q8 41 8 79q0 82 -52 82q-62 0 -89 -149q-8 -51 -8 -80q0 -82 51 -82zM265 430q-108 0 -108 139q0 31 8 79q33 195 146 195q108 0 108 -138q0 -33 -8 -79q-34 -196 -146 -196z" />
    <glyph glyph-name="one.sups" unicode="&#xf263;" 
d="M157 437l8 49h77l53 300h-75l9 50h132l-62 -350h77l-9 -49h-210z" />
    <glyph glyph-name="two.sups" unicode="&#xf264;" 
d="M133 437l9 53q1 1 68 56t70 57q51 42 69.5 70.5t18.5 60.5q0 25 -16.5 42.5t-46.5 17.5q-28 0 -47 -18t-19 -48q0 -14 5 -34l-54 -6q-7 24 -7 42q0 47 33.5 80t89.5 33q55 0 86.5 -32t31.5 -77q0 -49 -24.5 -83t-84.5 -82l-102 -83h170l-9 -49h-241z" />
    <glyph glyph-name="three.sups" unicode="&#xf265;" 
d="M262 430q-52 0 -84 27.5t-32 75.5q0 13 4 33h56q-4 -24 -4 -31q0 -25 15 -41t45 -16q32 0 52.5 27t20.5 65q0 66 -82 66q-4 0 -11 -0.5t-10 -0.5l8 47l118 104h-158l10 50h221l-11 -55l-122 -106q40 -2 67.5 -31t27.5 -72q0 -59 -36 -100.5t-95 -41.5z" />
    <glyph glyph-name="four.sups" unicode="&#xf266;" 
d="M134 554l9 48l178 236h80l-41 -236h57l-9 -48h-57l-20 -115h-56l20 115h-161zM337 788l-141 -186h108z" />
    <glyph glyph-name="five.sups" unicode="&#xf267;" 
d="M266 478q34 0 55 30.5t21 74.5q0 65 -63 65q-26 0 -48 -20l-49 8l38 200h209l-8 -50h-162l-20 -105l2 -1q21 16 53 16q51 0 78 -31t27 -80q0 -68 -37 -111.5t-96 -43.5q-55 0 -86.5 28.5t-31.5 75.5q0 12 3 32h58q-4 -18 -4 -31q0 -25 15 -41t46 -16z" />
    <glyph glyph-name="six.sups" unicode="&#xf268;" 
d="M274 430q-55 0 -88 33t-33 87q0 37 15 76.5t32.5 67.5t47.5 60.5t45 46t40 35.5h80q-115 -93 -172 -170l2 -2q24 20 58 20q42 0 73.5 -29.5t31.5 -80.5q0 -65 -37.5 -104.5t-94.5 -39.5zM274 479q34 0 54.5 26t20.5 64q0 30 -16.5 49.5t-48.5 19.5q-34 0 -54 -27t-20 -64
q0 -29 16.5 -48.5t47.5 -19.5z" />
    <glyph glyph-name="seven.sups" unicode="&#xf269;" 
d="M173 437l197 347h-186l10 52h243l-9 -49l-190 -350h-65z" />
    <glyph glyph-name="eight.sups" unicode="&#xf270;" 
d="M271 430q-54 0 -89 30.5t-35 80.5q0 39 21.5 67.5t56.5 40.5q-43 28 -43 80q0 49 35.5 81.5t87.5 32.5q48 0 81 -27.5t33 -75.5q0 -34 -18.5 -62t-50.5 -40q22 -11 37 -35.5t15 -51.5q0 -54 -38 -87.5t-93 -33.5zM272 477q33 0 53 22.5t20 53.5q0 27 -17.5 45.5
t-50.5 18.5q-31 0 -52.5 -22.5t-21.5 -52.5q0 -27 18 -46t51 -19zM298 664q30 0 48 21t18 51q0 26 -15.5 42.5t-46.5 16.5t-48.5 -20.5t-17.5 -51.5q0 -26 16.5 -42.5t45.5 -16.5z" />
    <glyph glyph-name="nine.sups" unicode="&#xf271;" 
d="M163 437q115 93 172 170l-2 2q-24 -20 -58 -20q-42 0 -73.5 29.5t-31.5 80.5q0 65 37.5 104.5t94.5 39.5q55 0 88 -33t33 -87q0 -37 -15 -76.5t-32.5 -67.5t-47.5 -60.5t-45 -46t-40 -35.5h-80zM292 635q34 0 54 27t20 64q0 29 -16.5 48.5t-47.5 19.5q-34 0 -54.5 -26
t-20.5 -64q0 -30 16.5 -49.5t48.5 -19.5z" />
    <glyph glyph-name="zero.sinf" unicode="&#xf272;" 
d="M160 -118q62 0 90 150q8 41 8 79q0 82 -52 82q-62 0 -89 -149q-8 -51 -8 -80q0 -82 51 -82zM160 -169q-108 0 -108 139q0 31 8 79q32 195 146 195q108 0 108 -138q0 -33 -8 -79q-34 -196 -146 -196z" />
    <glyph glyph-name="one.sinf" unicode="&#xf273;" 
d="M52 -162l8 49h77l53 300h-75l9 50h132l-62 -350h77l-9 -49h-210z" />
    <glyph glyph-name="two.sinf" unicode="&#xf274;" 
d="M28 -162l9 53q1 1 68 56t70 57q51 42 69.5 70t18.5 61q0 25 -16.5 42.5t-46.5 17.5q-28 0 -47 -18t-19 -48q0 -14 5 -34l-54 -6q-7 25 -7 42q0 47 33.5 80t89.5 33q55 0 86.5 -32t31.5 -77q0 -49 -24.5 -83t-84.5 -82l-102 -83h170l-9 -49h-241z" />
    <glyph glyph-name="three.sinf" unicode="&#xf275;" 
d="M156 -169q-52 0 -84 27.5t-32 75.5q0 13 4 33h56q-4 -24 -4 -31q0 -25 15 -41t45 -16q32 0 52.5 27t20.5 65q0 66 -82 66q-3 0 -10 -0.5t-11 -0.5l8 47l118 104h-158l10 50h221l-11 -55l-122 -106q40 -2 67.5 -31t27.5 -72q0 -59 -36 -100.5t-95 -41.5z" />
    <glyph glyph-name="four.sinf" unicode="&#xf276;" 
d="M28 -45l9 48l178 236h80l-41 -236h57l-9 -48h-57l-20 -115h-56l20 115h-161zM231 189l-141 -186h108z" />
    <glyph glyph-name="five.sinf" unicode="&#xf277;" 
d="M160 -121q34 0 55 30.5t21 74.5q0 65 -63 65q-26 0 -48 -20l-49 8l38 200h209l-8 -50h-162l-20 -105l2 -1q21 16 53 16q51 0 78 -31t27 -80q0 -68 -37 -111.5t-96 -43.5q-55 0 -86.5 28.5t-31.5 75.5q0 13 3 32h58q-4 -18 -4 -31q0 -25 15 -41t46 -16z" />
    <glyph glyph-name="six.sinf" unicode="&#xf278;" 
d="M168 -169q-55 0 -88 33t-33 87q0 37 15 76.5t32.5 67.5t47.5 60.5t45 46t40 35.5h80q-115 -93 -172 -170l2 -2q24 20 58 20q42 0 73.5 -29.5t31.5 -80.5q0 -65 -37.5 -104.5t-94.5 -39.5zM168 -120q34 0 54.5 26t20.5 64q0 30 -16.5 49.5t-48.5 19.5q-34 0 -54 -27
t-20 -64q0 -29 16.5 -48.5t47.5 -19.5z" />
    <glyph glyph-name="seven.sinf" unicode="&#xf279;" 
d="M67 -162l197 347h-186l10 52h243l-9 -49l-190 -350h-65z" />
    <glyph glyph-name="eight.sinf" unicode="&#xf280;" 
d="M166 -169q-54 0 -89 30.5t-35 80.5q0 39 21.5 67.5t56.5 40.5q-43 28 -43 80q0 49 35.5 81.5t87.5 32.5q48 0 81 -27.5t33 -75.5q0 -34 -18.5 -62t-50.5 -40q22 -11 37 -35.5t15 -51.5q0 -54 -38 -87.5t-93 -33.5zM167 -122q33 0 53 22.5t20 53.5q0 27 -17.5 45.5
t-50.5 18.5q-31 0 -52.5 -22.5t-21.5 -52.5q0 -27 18 -46t51 -19zM193 65q30 0 48 20.5t18 51.5q0 26 -15.5 42.5t-46.5 16.5t-48.5 -20.5t-17.5 -51.5q0 -26 16.5 -42.5t45.5 -16.5z" />
    <glyph glyph-name="nine.sinf" unicode="&#xf281;" 
d="M58 -162q115 93 172 170l-2 2q-24 -20 -58 -20q-42 0 -73.5 29.5t-31.5 80.5q0 65 37.5 104.5t94.5 39.5q55 0 88 -33t33 -87q0 -37 -15 -76.5t-32.5 -67.5t-47.5 -60.5t-45 -46t-40 -35.5h-80zM187 36q34 0 54 27t20 64q0 29 -16.5 48.5t-47.5 19.5q-34 0 -54.5 -26
t-20.5 -64q0 -30 16.5 -49.5t48.5 -19.5z" />
    <glyph glyph-name="onefifth" unicode="&#xf282;" horiz-adv-x="1080" 
d="M956 738l31 -33l-799 -723l-31 33zM862 41q34 0 55 30.5t21 74.5q0 65 -63 65q-26 0 -48 -20l-49 8l38 200h209l-8 -50h-162l-20 -105l2 -1q21 16 53 16q51 0 78 -31t27 -80q0 -68 -37 -111.5t-96 -43.5q-55 0 -86.5 28.5t-31.5 75.5q0 13 3 32h58q-4 -18 -4 -31
q0 -25 15 -41t46 -16zM103 301l8 49h77l53 300h-75l9 50h132l-62 -350h77l-9 -49h-210z" />
    <glyph glyph-name="twofifths" unicode="&#xf283;" horiz-adv-x="1080" 
d="M956 738l31 -33l-799 -723l-31 33zM862 41q34 0 55 30.5t21 74.5q0 65 -63 65q-26 0 -48 -20l-49 8l38 200h209l-8 -50h-162l-20 -105l2 -1q21 16 53 16q51 0 78 -31t27 -80q0 -68 -37 -111.5t-96 -43.5q-55 0 -86.5 28.5t-31.5 75.5q0 13 3 32h58q-4 -18 -4 -31
q0 -25 15 -41t46 -16zM83 301l9 53q1 1 68 56t70 57q51 42 69.5 70.5t18.5 60.5q0 25 -16.5 42.5t-46.5 17.5q-28 0 -47 -18t-19 -48q0 -14 5 -34l-54 -6q-7 24 -7 42q0 47 33.5 80t89.5 33q55 0 86.5 -32t31.5 -77q0 -49 -24.5 -83t-84.5 -82l-102 -83h170l-9 -49h-241z
" />
    <glyph glyph-name="threefifths" unicode="&#xf284;" horiz-adv-x="1080" 
d="M956 738l31 -33l-799 -723l-31 33zM862 41q34 0 55 30.5t21 74.5q0 65 -63 65q-26 0 -48 -20l-49 8l38 200h209l-8 -50h-162l-20 -105l2 -1q21 16 53 16q51 0 78 -31t27 -80q0 -68 -37 -111.5t-96 -43.5q-55 0 -86.5 28.5t-31.5 75.5q0 13 3 32h58q-4 -18 -4 -31
q0 -25 15 -41t46 -16zM244 294q-52 0 -84 27.5t-32 75.5q0 13 4 33h56q-4 -24 -4 -31q0 -25 15 -41t45 -16q32 0 52.5 27t20.5 65q0 66 -82 66q-3 0 -10 -0.5t-11 -0.5l8 47l118 104h-158l10 50h221l-11 -55l-122 -106q40 -2 67.5 -31t27.5 -72q0 -59 -36 -100.5t-95 -41.5z
" />
    <glyph glyph-name="fourfifths" unicode="&#xf285;" horiz-adv-x="1080" 
d="M111 416l9 48l178 236h80l-41 -236h57l-9 -48h-57l-20 -115h-56l20 115h-161zM956 738l31 -33l-799 -723l-31 33zM862 41q34 0 55 30.5t21 74.5q0 65 -63 65q-26 0 -48 -20l-49 8l38 200h209l-8 -50h-162l-20 -105l2 -1q21 16 53 16q51 0 78 -31t27 -80q0 -68 -37 -111.5
t-96 -43.5q-55 0 -86.5 28.5t-31.5 75.5q0 13 3 32h58q-4 -18 -4 -31q0 -25 15 -41t46 -16zM314 650l-141 -186h108z" />
    <glyph glyph-name="onesixth" unicode="&#xf286;" horiz-adv-x="1080" 
d="M103 301l8 49h77l53 300h-75l9 50h132l-62 -350h77l-9 -49h-210zM862 -7q-55 0 -88 33t-33 87q0 37 15 76.5t32.5 67.5t47.5 60.5t45 46t40 35.5h80q-115 -93 -172 -170l2 -2q24 20 58 20q42 0 73.5 -29.5t31.5 -80.5q0 -65 -37.5 -104.5t-94.5 -39.5zM862 42
q34 0 54.5 26t20.5 64q0 30 -16.5 49.5t-48.5 19.5q-34 0 -54 -27t-20 -64q0 -29 16.5 -48.5t47.5 -19.5zM956 738l31 -33l-799 -723l-31 33z" />
    <glyph glyph-name="fivesixths" unicode="&#xf287;" horiz-adv-x="1080" 
d="M862 -7q-55 0 -88 33t-33 87q0 37 15 76.5t32.5 67.5t47.5 60.5t45 46t40 35.5h80q-115 -93 -172 -170l2 -2q24 20 58 20q42 0 73.5 -29.5t31.5 -80.5q0 -65 -37.5 -104.5t-94.5 -39.5zM956 738l31 -33l-799 -723l-31 33zM243 342q34 0 55 30.5t21 74.5q0 65 -63 65
q-26 0 -48 -20l-49 8l38 200h209l-8 -50h-162l-20 -105l2 -1q21 16 53 16q51 0 78 -31t27 -80q0 -68 -37 -111.5t-96 -43.5q-55 0 -86.5 28.5t-31.5 75.5q0 12 3 32h58q-4 -18 -4 -31q0 -25 15 -41t46 -16zM862 42q34 0 54.5 26t20.5 64q0 30 -16.5 49.5t-48.5 19.5
q-34 0 -54 -27t-20 -64q0 -29 16.5 -48.5t47.5 -19.5z" />
    <glyph glyph-name="oneseventh" unicode="&#xf288;" horiz-adv-x="1080" 
d="M103 301l8 49h77l53 300h-75l9 50h132l-62 -350h77l-9 -49h-210zM742 0l197 347h-186l10 52h243l-9 -49l-190 -350h-65zM956 738l31 -33l-799 -723l-31 33z" />
    <glyph glyph-name="twosevenths" unicode="&#xf289;" horiz-adv-x="1080" 
d="M83 301l9 53q1 1 68 56t70 57q51 42 69.5 70.5t18.5 60.5q0 25 -16.5 42.5t-46.5 17.5q-28 0 -47 -18t-19 -48q0 -14 5 -34l-54 -6q-7 24 -7 42q0 47 33.5 80t89.5 33q55 0 86.5 -32t31.5 -77q0 -49 -24.5 -83t-84.5 -82l-102 -83h170l-9 -49h-241zM742 0l197 347h-186
l10 52h243l-9 -49l-190 -350h-65zM956 738l31 -33l-799 -723l-31 33z" />
    <glyph glyph-name="threesevenths" unicode="&#xf290;" horiz-adv-x="1080" 
d="M244 294q-52 0 -84 27.5t-32 75.5q0 13 4 33h56q-4 -24 -4 -31q0 -25 15 -41t45 -16q32 0 52.5 27t20.5 65q0 66 -82 66q-3 0 -10 -0.5t-11 -0.5l8 47l118 104h-158l10 50h221l-11 -55l-122 -106q40 -2 67.5 -31t27.5 -72q0 -59 -36 -100.5t-95 -41.5zM742 0l197 347
h-186l10 52h243l-9 -49l-190 -350h-65zM956 738l31 -33l-799 -723l-31 33z" />
    <glyph glyph-name="foursevenths" unicode="&#xf291;" horiz-adv-x="1080" 
d="M742 0l197 347h-186l10 52h243l-9 -49l-190 -350h-65zM956 738l31 -33l-799 -723l-31 33zM111 416l9 48l178 236h80l-41 -236h57l-9 -48h-57l-20 -115h-56l20 115h-161zM314 650l-141 -186h108z" />
    <glyph glyph-name="fivesevenths" unicode="&#xf292;" horiz-adv-x="1080" 
d="M956 738l31 -33l-799 -723l-31 33zM243 342q34 0 55 30.5t21 74.5q0 65 -63 65q-26 0 -48 -20l-49 8l38 200h209l-8 -50h-162l-20 -105l2 -1q21 16 53 16q51 0 78 -31t27 -80q0 -68 -37 -111.5t-96 -43.5q-55 0 -86.5 28.5t-31.5 75.5q0 12 3 32h58q-4 -18 -4 -31
q0 -25 15 -41t46 -16zM742 0l197 347h-186l10 52h243l-9 -49l-190 -350h-65z" />
    <glyph glyph-name="sixsevenths" unicode="&#xf293;" horiz-adv-x="1080" 
d="M273 294q-55 0 -88 33t-33 87q0 37 15 76.5t32.5 67.5t47.5 60.5t45 46t40 35.5h80q-115 -93 -172 -170l2 -2q24 20 58 20q42 0 73.5 -29.5t31.5 -80.5q0 -65 -37.5 -104.5t-94.5 -39.5zM273 343q34 0 54.5 26t20.5 64q0 30 -16.5 49.5t-48.5 19.5q-34 0 -54 -27t-20 -64
q0 -29 16.5 -48.5t47.5 -19.5zM742 0l197 347h-186l10 52h243l-9 -49l-190 -350h-65zM956 738l31 -33l-799 -723l-31 33z" />
    <glyph glyph-name="oneninth" unicode="&#xf294;" horiz-adv-x="1080" 
d="M103 301l8 49h77l53 300h-75l9 50h132l-62 -350h77l-9 -49h-210zM736 0q115 93 172 170l-2 2q-24 -20 -58 -20q-42 0 -73.5 29.5t-31.5 80.5q0 65 37.5 104.5t94.5 39.5q55 0 88 -33t33 -87q0 -37 -15 -76.5t-32.5 -67.5t-47.5 -60.5t-45 -46t-40 -35.5h-80zM865 198
q34 0 54 27t20 64q0 29 -16.5 48.5t-47.5 19.5q-34 0 -54.5 -26t-20.5 -64q0 -30 16.5 -49.5t48.5 -19.5zM956 738l31 -33l-799 -723l-31 33z" />
    <glyph glyph-name="twoninths" unicode="&#xf295;" horiz-adv-x="1080" 
d="M83 301l9 53q1 1 68 56t70 57q51 42 69.5 70.5t18.5 60.5q0 25 -16.5 42.5t-46.5 17.5q-28 0 -47 -18t-19 -48q0 -14 5 -34l-54 -6q-7 24 -7 42q0 47 33.5 80t89.5 33q55 0 86.5 -32t31.5 -77q0 -49 -24.5 -83t-84.5 -82l-102 -83h170l-9 -49h-241zM736 0q115 93 172 170
l-2 2q-24 -20 -58 -20q-42 0 -73.5 29.5t-31.5 80.5q0 65 37.5 104.5t94.5 39.5q55 0 88 -33t33 -87q0 -37 -15 -76.5t-32.5 -67.5t-47.5 -60.5t-45 -46t-40 -35.5h-80zM865 198q34 0 54 27t20 64q0 29 -16.5 48.5t-47.5 19.5q-34 0 -54.5 -26t-20.5 -64q0 -30 16.5 -49.5
t48.5 -19.5zM956 738l31 -33l-799 -723l-31 33z" />
    <glyph glyph-name="fourninths" unicode="&#xf296;" horiz-adv-x="1080" 
d="M736 0q115 93 172 170l-2 2q-24 -20 -58 -20q-42 0 -73.5 29.5t-31.5 80.5q0 65 37.5 104.5t94.5 39.5q55 0 88 -33t33 -87q0 -37 -15 -76.5t-32.5 -67.5t-47.5 -60.5t-45 -46t-40 -35.5h-80zM865 198q34 0 54 27t20 64q0 29 -16.5 48.5t-47.5 19.5q-34 0 -54.5 -26
t-20.5 -64q0 -30 16.5 -49.5t48.5 -19.5zM956 738l31 -33l-799 -723l-31 33zM111 416l9 48l178 236h80l-41 -236h57l-9 -48h-57l-20 -115h-56l20 115h-161zM314 650l-141 -186h108z" />
    <glyph glyph-name="fiveninths" unicode="&#xf297;" horiz-adv-x="1080" 
d="M736 0q115 93 172 170l-2 2q-24 -20 -58 -20q-42 0 -73.5 29.5t-31.5 80.5q0 65 37.5 104.5t94.5 39.5q55 0 88 -33t33 -87q0 -37 -15 -76.5t-32.5 -67.5t-47.5 -60.5t-45 -46t-40 -35.5h-80zM956 738l31 -33l-799 -723l-31 33zM243 342q34 0 55 30.5t21 74.5
q0 65 -63 65q-26 0 -48 -20l-49 8l38 200h209l-8 -50h-162l-20 -105l2 -1q21 16 53 16q51 0 78 -31t27 -80q0 -68 -37 -111.5t-96 -43.5q-55 0 -86.5 28.5t-31.5 75.5q0 12 3 32h58q-4 -18 -4 -31q0 -25 15 -41t46 -16zM865 198q34 0 54 27t20 64q0 29 -16.5 48.5
t-47.5 19.5q-34 0 -54.5 -26t-20.5 -64q0 -30 16.5 -49.5t48.5 -19.5z" />
    <glyph glyph-name="sevenninths" unicode="&#xf298;" horiz-adv-x="1080" 
d="M161 301l197 347h-186l10 52h243l-9 -49l-190 -350h-65zM736 0q115 93 172 170l-2 2q-24 -20 -58 -20q-42 0 -73.5 29.5t-31.5 80.5q0 65 37.5 104.5t94.5 39.5q55 0 88 -33t33 -87q0 -37 -15 -76.5t-32.5 -67.5t-47.5 -60.5t-45 -46t-40 -35.5h-80zM865 198q34 0 54 27
t20 64q0 29 -16.5 48.5t-47.5 19.5q-34 0 -54.5 -26t-20.5 -64q0 -30 16.5 -49.5t48.5 -19.5zM956 738l31 -33l-799 -723l-31 33z" />
    <glyph glyph-name="eightninths" unicode="&#xf299;" horiz-adv-x="1080" 
d="M238 294q-54 0 -89 30.5t-35 80.5q0 39 21.5 67.5t56.5 40.5q-43 28 -43 80q0 49 35.5 81.5t87.5 32.5q48 0 81 -27.5t33 -75.5q0 -34 -18.5 -62t-50.5 -40q22 -11 37 -35.5t15 -51.5q0 -54 -38 -87.5t-93 -33.5zM239 341q33 0 53 22.5t20 53.5q0 27 -17.5 45.5
t-50.5 18.5q-31 0 -52.5 -22.5t-21.5 -52.5q0 -27 18 -46t51 -19zM265 528q30 0 48 21t18 51q0 26 -15.5 42.5t-46.5 16.5t-48.5 -20.5t-17.5 -51.5q0 -26 16.5 -42.5t45.5 -16.5zM736 0q115 93 172 170l-2 2q-24 -20 -58 -20q-42 0 -73.5 29.5t-31.5 80.5q0 65 37.5 104.5
t94.5 39.5q55 0 88 -33t33 -87q0 -37 -15 -76.5t-32.5 -67.5t-47.5 -60.5t-45 -46t-40 -35.5h-80zM865 198q34 0 54 27t20 64q0 29 -16.5 48.5t-47.5 19.5q-34 0 -54.5 -26t-20.5 -64q0 -30 16.5 -49.5t48.5 -19.5zM956 738l31 -33l-799 -723l-31 33z" />
    <glyph glyph-name="at.alt" unicode="&#xf300;" horiz-adv-x="898" 
d="M607 203q-26 -37 -70.5 -60.5t-94.5 -23.5q-89 0 -145 59.5t-56 149.5q0 110 69 183t164 73q58 0 106 -30.5t67 -84.5l18 103h60l-55 -319q-7 -19 -4 -51.5t29 -32.5q60 0 102 71.5t42 173.5q0 127 -93.5 214t-232.5 87q-99 0 -186.5 -48.5t-144 -142t-56.5 -211.5
q0 -144 97 -236t244 -92q112 0 180 48l83 -12q-115 -87 -262 -87q-176 0 -288 107t-112 268q0 198 128 327t319 129q155 0 266.5 -100t111.5 -251q0 -137 -61 -216t-142 -79q-45 0 -64 25t-19 59zM300 330q0 -67 40.5 -112.5t109.5 -45.5q74 0 126.5 58t52.5 142
q0 68 -41.5 113t-109.5 45q-75 0 -126.5 -58.5t-51.5 -141.5z" />
    <glyph glyph-name="ct" unicode="&#xf303;" horiz-adv-x="773" 
d="M395 128l50 -30q-31 -51 -82.5 -80.5t-113.5 -29.5q-91 0 -149.5 60t-58.5 152q0 103 65.5 176t160.5 77q-20 34 -20 74q0 18 7.5 38t25 43.5t55.5 38.5t90 15h295l-39 -221h108l-9 -51h-108l-52 -299q-4 -24 8.5 -33.5t35.5 -9.5l57 3l-9 -51q-27 -4 -63 -4
q-106 0 -90 94l52 300h-74l9 51h75l30 170h-221q-61 0 -95.5 -26.5t-34.5 -74.5q0 -34 24 -62q97 -20 139 -109l-52 -29q-36 89 -132 89q-75 0 -126 -58.5t-51 -144.5q0 -66 40.5 -110.5t108.5 -44.5q91 0 144 87z" />
    <glyph glyph-name="i.locl" unicode="&#xf304;" horiz-adv-x="217" 
d="M184 441l-77 -441h-60l68 390h-69l8 51h130zM124 601q0 22 15.5 37t37.5 15t37 -15t15 -37t-15 -37.5t-37 -15.5t-37.5 15.5t-15.5 37.5z" />
    <glyph glyph-name="questiondown.alt" unicode="&#xf305;" horiz-adv-x="454" 
d="M26 156q0 88 54.5 146t150.5 67l39 139h51l-35 -188h-6q-91 -2 -142.5 -43.5t-51.5 -118.5q0 -53 34.5 -84t88.5 -31q120 0 144 143l1 6h61q-12 -96 -66.5 -150t-139.5 -54q-80 0 -131.5 45t-51.5 123zM377 652q0 -25 -17.5 -43t-42.5 -18t-43 17.5t-18 43.5
q0 25 18 42.5t43 17.5t42.5 -17.5t17.5 -42.5z" />
    <glyph glyph-name="exclamdown.alt" unicode="&#xf306;" horiz-adv-x="261" 
d="M151 477h57l-78 -477h-66zM267 652q0 -25 -17.5 -43t-42.5 -18t-43 17.5t-18 43.5q0 25 18 42.5t43 17.5t42.5 -17.5t17.5 -42.5z" />
    <glyph glyph-name="hyphen.alt" unicode="&#xf307;" horiz-adv-x="250" 
d="M38 329l9 55h207l-9 -55h-207z" />
    <glyph glyph-name="endash.alt" unicode="&#xf308;" horiz-adv-x="500" 
d="M57 329l8 55h420l-9 -55h-419z" />
    <glyph glyph-name="emdash.alt" unicode="&#xf309;" horiz-adv-x="1000" 
d="M57 329l8 55h920l-9 -55h-919z" />
    <glyph glyph-name="guillemotleft.alt" unicode="&#xf310;" horiz-adv-x="469" 
d="M255 362l125 149h72l-127 -154l70 -152h-64zM101 362l124 149h73l-128 -154l71 -152h-64z" />
    <glyph glyph-name="guillemotright.alt" unicode="&#xf311;" horiz-adv-x="470" 
d="M263 354l-125 -149h-72l127 154l-70 152h64zM417 354l-124 -149h-73l128 154l-71 152h64z" />
    <glyph glyph-name="guilsinglleft.alt" unicode="&#xf312;" horiz-adv-x="322" 
d="M101 362l125 149h72l-128 -154l71 -152h-64z" />
    <glyph glyph-name="guilsinglright.alt" unicode="&#xf313;" horiz-adv-x="322" 
d="M269 354l-125 -149h-72l128 154l-71 152h64z" />
    <glyph glyph-name="orn.1" unicode="&#xf314;" horiz-adv-x="860" 
d="M77 349q0 155 109.5 265t265.5 110q155 0 265 -110t110 -265q0 -156 -110 -265.5t-265 -109.5q-156 0 -265.5 109.5t-109.5 265.5zM385 355q0 156 67 156q68 0 68 -156t-68 -156q-67 0 -67 156zM452 561q-128 0 -128 -206q0 -207 128 -207q127 0 127 207q0 206 -127 206z
" />
    <glyph glyph-name="orn.2" unicode="&#xf315;" horiz-adv-x="860" 
d="M77 349q0 155 109.5 265t265.5 110q155 0 265 -110t110 -265q0 -156 -110 -265.5t-265 -109.5q-156 0 -265.5 109.5t-109.5 265.5zM346 554v-50h76v-300h-78v-49h215v49h-77v350h-136z" />
    <glyph glyph-name="orn.3" unicode="&#xf316;" horiz-adv-x="860" 
d="M77 349q0 155 109.5 265t265.5 110q155 0 265 -110t110 -265q0 -156 -110 -265.5t-265 -109.5q-156 0 -265.5 109.5t-109.5 265.5zM328 205v-50h251v51h-178l70 71q58 58 79 96.5t21 75.5q0 48 -33.5 80t-89.5 32t-90 -31t-34 -75q0 -26 16 -60l55 12q-12 24 -12 46
q0 27 18 42.5t46 15.5q30 0 47.5 -18.5t17.5 -45.5q0 -29 -15.5 -57t-54.5 -70q-27 -28 -55.5 -57t-43.5 -43z" />
    <glyph glyph-name="orn.4" unicode="&#xf317;" horiz-adv-x="860" 
d="M77 349q0 155 109.5 265t265.5 110q155 0 265 -110t110 -265q0 -156 -110 -265.5t-265 -109.5q-156 0 -265.5 109.5t-109.5 265.5zM447 148q58 0 92 36t34 96q0 49 -32.5 82t-81.5 33l105 104v55h-223v-50h160l-105 -107v-48q16 4 40 4q36 0 56.5 -21t20.5 -55
q0 -36 -17 -58t-50 -22q-31 0 -47.5 20.5t-16.5 51.5v16h-60v-19q0 -54 34 -86t91 -32z" />
    <glyph glyph-name="orn.5" unicode="&#xf318;" horiz-adv-x="860" 
d="M77 349q0 155 109.5 265t265.5 110q155 0 265 -110t110 -265q0 -156 -110 -265.5t-265 -109.5q-156 0 -265.5 109.5t-109.5 265.5zM346 318l107 184h2v-184h-109zM293 318v-48h162v-115h58v115h58v48h-58v236h-83z" />
    <glyph glyph-name="orn.6" unicode="&#xf319;" horiz-adv-x="860" 
d="M77 349q0 155 109.5 265t265.5 110q155 0 265 -110t110 -265q0 -156 -110 -265.5t-265 -109.5q-156 0 -265.5 109.5t-109.5 265.5zM575 285q0 58 -32 94.5t-87 36.5q-32 0 -59 -18h-1v104h166v52h-219v-209l51 -3q18 24 53 24q34 0 51 -23t17 -62q0 -38 -17 -61t-51 -23
q-31 0 -47.5 20.5t-16.5 51.5v16h-60v-19q0 -54 34.5 -86t90.5 -32q59 0 93 37.5t34 99.5z" />
    <glyph glyph-name="orn.7" unicode="&#xf320;" horiz-adv-x="860" 
d="M77 349q0 155 109.5 265t265.5 110q155 0 265 -110t110 -265q0 -156 -110 -265.5t-265 -109.5q-156 0 -265.5 109.5t-109.5 265.5zM364 276q0 34 18 57t52 23t52 -23t18 -57t-18 -56.5t-52 -22.5t-52 22.5t-18 56.5zM525 554h-78l-12 -13q-130 -135 -130 -257
q0 -62 35.5 -99t94.5 -37q57 0 92.5 35.5t35.5 93.5q0 60 -34 93t-83 33q-43 0 -64 -24l-1 1q39 69 137 167z" />
    <glyph glyph-name="orn.8" unicode="&#xf321;" horiz-adv-x="860" 
d="M77 349q0 155 109.5 265t265.5 110q155 0 265 -110t110 -265q0 -156 -110 -265.5t-265 -109.5q-156 0 -265.5 109.5t-109.5 265.5zM374 155h65l132 349v50h-238v-52h180z" />
    <glyph glyph-name="orn.9" unicode="&#xf322;" horiz-adv-x="860" 
d="M77 349q0 155 109.5 265t265.5 110q155 0 265 -110t110 -265q0 -156 -110 -265.5t-265 -109.5q-156 0 -265.5 109.5t-109.5 265.5zM452 383q-31 0 -47 18t-16 46q0 29 16 47t47 18q32 0 47.5 -18t15.5 -47q0 -28 -15.5 -46t-47.5 -18zM452 196q-34 0 -52.5 20t-18.5 49
t19 49.5t52 20.5t52 -20.5t19 -49.5t-18.5 -49t-52.5 -20zM452 561q-55 0 -88.5 -31t-33.5 -81q0 -27 15.5 -51.5t42.5 -36.5q-29 -11 -47.5 -37.5t-18.5 -58.5q0 -53 36 -85t94 -32t94 32t36 85q0 32 -18.5 58.5t-46.5 37.5q26 12 41.5 36.5t15.5 51.5q0 50 -33.5 81
t-88.5 31z" />
    <glyph glyph-name="orn.10" unicode="&#xf323;" horiz-adv-x="860" 
d="M77 349q0 155 109.5 265t265.5 110q155 0 265 -110t110 -265q0 -156 -110 -265.5t-265 -109.5q-156 0 -265.5 109.5t-109.5 265.5zM527 433q0 -34 -18 -57t-52 -23t-52 23t-18 57t18 56.5t52 22.5t52 -22.5t18 -56.5zM366 155h78l13 13q129 137 129 257q0 62 -35.5 99
t-94.5 37q-57 0 -92.5 -35.5t-35.5 -93.5q0 -60 34 -93t83 -33q45 0 64 24l2 -1q-40 -69 -138 -167z" />
    <glyph glyph-name="arrow.up" unicode="&#xf324;" horiz-adv-x="579" 
d="M316 118h-54v379l-175 -178l-38 39l240 245l241 -245l-39 -39l-175 178v-379z" />
    <glyph glyph-name="arrow.down" unicode="&#xf325;" horiz-adv-x="579" 
d="M262 603h54v-379l175 178l39 -39l-241 -245l-240 245l38 39l175 -178v379z" />
    <glyph glyph-name="arrowup.left" unicode="&#xf326;" horiz-adv-x="579" 
d="M470 208l-38 -38l-268 268l2 -250l-55 1l-3 343l343 -3v-55l-249 2z" />
    <glyph glyph-name="arrowup.right" unicode="&#xf327;" horiz-adv-x="579" 
d="M146 170l-38 38l268 268l-249 -2v55l343 3l-3 -343l-55 -1l2 250z" />
    <glyph glyph-name="arrowdown.left" unicode="&#xf328;" horiz-adv-x="579" 
d="M432 532l38 -38l-268 -268l249 2v-55l-343 -3l3 343l55 1l-2 -250z" />
    <glyph glyph-name="arrowdown.right" unicode="&#xf329;" horiz-adv-x="579" 
d="M108 494l38 38l268 -268l-2 250l55 -1l3 -343l-343 3v55l249 -2z" />
    <glyph glyph-name="revcommaaccent" unicode="&#xf330;" horiz-adv-x="203" 
d="M191 561q0 -21 -15.5 -37t-37.5 -16t-37 15t-15 36t16 41l74 93l44 -8l-53 -80q24 -14 24 -44z" />
    <glyph glyph-name="A.smcp" unicode="&#xf331;" horiz-adv-x="503" 
d="M-4 0l280 560h69l90 -560h-57l-30 193h-198l-93 -193h-61zM175 244h165l-38 257h-1z" />
    <glyph glyph-name="B.smcp" unicode="&#xf332;" horiz-adv-x="461" 
d="M44 0l98 560h131q70 0 109.5 -36.5t39.5 -86.5q0 -51 -29 -89t-81 -52q44 -15 70 -47t26 -77q0 -76 -55.5 -124t-146.5 -48h-162zM114 52h77q70 0 113.5 30t43.5 90q0 46 -36 71t-91 25h-70zM161 320h66q55 0 94 29t39 80q0 39 -27 59t-68 20h-71z" />
    <glyph glyph-name="C.smcp" unicode="&#xf333;" horiz-adv-x="627" 
d="M323 -10q-115 0 -191.5 77.5t-76.5 193.5q0 131 90.5 220t208.5 89q92 0 159.5 -51.5t89.5 -134.5h-63q-19 61 -67 97t-119 36q-101 0 -170 -74t-69 -185q0 -92 57 -153.5t152 -61.5q67 0 119 35t83 98h64q-33 -85 -105.5 -135.5t-161.5 -50.5z" />
    <glyph glyph-name="D.smcp" unicode="&#xf334;" horiz-adv-x="575" 
d="M113 52h92q125 0 200 71.5t75 199.5q0 88 -58 136t-157 48h-72zM43 0l99 560h138q121 0 191 -66.5t70 -173.5q0 -140 -87.5 -230t-235.5 -90h-175z" />
    <glyph glyph-name="E.smcp" unicode="&#xf335;" horiz-adv-x="497" 
d="M43 0l99 560h378l-9 -55h-318l-34 -194h205l-10 -53h-205l-36 -205h318l-10 -53h-378z" />
    <glyph glyph-name="F.smcp" unicode="&#xf336;" horiz-adv-x="470" 
d="M43 0l99 560h362l-10 -55h-301l-36 -208h219l-10 -53h-220l-42 -244h-61z" />
    <glyph glyph-name="G.smcp" unicode="&#xf337;" horiz-adv-x="643" 
d="M317 -10q-114 0 -188 77t-74 194q0 131 90.5 220t208.5 89q92 0 159.5 -51.5t89.5 -134.5h-63q-19 61 -67 97t-119 36q-101 0 -170 -74t-69 -185q0 -91 56.5 -153t151.5 -62q81 0 136.5 48.5t68.5 101.5h-141l8 52h203l-43 -245h-54l14 90q-75 -100 -198 -100z" />
    <glyph glyph-name="H.smcp" unicode="&#xf338;" horiz-adv-x="560" 
d="M43 0l99 560h61l-44 -249h274l44 249h61l-99 -560h-61l46 258h-275l-45 -258h-61z" />
    <glyph glyph-name="I.smcp" unicode="&#xf339;" horiz-adv-x="225" 
d="M43 0l99 560h61l-99 -560h-61z" />
    <glyph glyph-name="J.smcp" unicode="&#xf340;" horiz-adv-x="483" 
d="M29 223h60l-5 -29q-11 -63 20 -107t98 -44q57 0 91 37t44 94l68 386h61l-70 -396q-14 -78 -64 -126t-132 -48q-93 0 -142.5 59t-32.5 153z" />
    <glyph glyph-name="K.smcp" unicode="&#xf341;" horiz-adv-x="499" 
d="M43 0l99 560h61l-43 -240h24l281 240h83l-318 -267l212 -293h-72l-187 268h-32l-47 -268h-61z" />
    <glyph glyph-name="L.smcp" unicode="&#xf342;" horiz-adv-x="407" 
d="M43 0l99 560h61l-90 -507h248l-9 -53h-309z" />
    <glyph glyph-name="M.smcp" unicode="&#xf343;" horiz-adv-x="686" 
d="M43 0l99 560h93l88 -393l246 393h95l-99 -560h-61l88 494l-254 -400h-53l-94 401l-87 -495h-61z" />
    <glyph glyph-name="N.smcp" unicode="&#xf344;" horiz-adv-x="560" 
d="M43 0l99 560h80l171 -471l84 471h61l-99 -560h-74l-176 480l-85 -480h-61z" />
    <glyph glyph-name="O.smcp" unicode="&#xf345;" horiz-adv-x="658" 
d="M324 43q101 0 169 73.5t68 184.5q0 92 -56 154t-150 62q-101 0 -170 -74t-69 -185q0 -91 56.5 -153t151.5 -62zM323 -10q-115 0 -191 77.5t-76 193.5q0 132 89 220.5t210 88.5q115 0 191.5 -77.5t76.5 -193.5q0 -132 -89.5 -220.5t-210.5 -88.5z" />
    <glyph glyph-name="P.smcp" unicode="&#xf346;" horiz-adv-x="469" 
d="M43 0l99 560h136q81 0 133.5 -44t52.5 -111q0 -85 -57.5 -137t-162.5 -52h-102l-38 -216h-61zM151 269h97q68 0 111 31t43 99q0 49 -34.5 78.5t-93.5 29.5h-80z" />
    <glyph glyph-name="Q.smcp" unicode="&#xf347;" horiz-adv-x="658" 
d="M323 -10q-115 0 -191 77.5t-76 193.5q0 132 89 220.5t210 88.5q115 0 191.5 -77.5t76.5 -193.5q0 -85 -39 -154t-104 -109l24 -36q28 -43 65 -43l44 3v-53q-19 -3 -49 -3q-64 0 -102 57l-33 49q-51 -20 -106 -20zM324 43q40 0 75 12l-56 85l46 32l61 -92q51 34 81 92
t30 129q0 92 -56 154t-150 62q-101 0 -170 -74t-69 -185q0 -91 56.5 -153t151.5 -62z" />
    <glyph glyph-name="R.smcp" unicode="&#xf348;" horiz-adv-x="494" 
d="M43 0l99 560h142q82 0 130 -41.5t48 -100.5q0 -55 -34.5 -102.5t-117.5 -63.5l137 -252h-67l-132 245h-102l-42 -245h-61zM157 299h87q82 0 118.5 32t36.5 82q0 41 -31.5 67t-88.5 26h-86z" />
    <glyph glyph-name="S.smcp" unicode="&#xf349;" horiz-adv-x="425" 
d="M197 -10q-65 0 -112.5 26t-73.5 64l39 42q56 -79 146 -79q51 0 81 29t30 68q0 58 -78 113l-49 35q-89 62 -89 136q0 69 48.5 107.5t113.5 38.5q49 0 94.5 -22t73.5 -60l-37 -35q-54 64 -129 64q-48 0 -75.5 -24.5t-27.5 -64.5q0 -47 56 -88l60 -44q57 -42 78 -77t21 -78
q0 -64 -48 -107.5t-122 -43.5z" />
    <glyph glyph-name="T.smcp" unicode="&#xf350;" horiz-adv-x="448" 
d="M155 0l89 506h-175l10 54h409l-10 -54h-172l-90 -506h-61z" />
    <glyph glyph-name="U.smcp" unicode="&#xf351;" horiz-adv-x="530" 
d="M248 -10q-93 0 -142.5 59t-32.5 153l63 358h61l-65 -366q-11 -63 20 -107t98 -44q57 0 91 37t44 94l68 386h61l-70 -396q-14 -78 -64 -126t-132 -48z" />
    <glyph glyph-name="V.smcp" unicode="&#xf352;" horiz-adv-x="501" 
d="M154 0l-62 560h62l50 -497h1l272 497h62l-307 -560h-78z" />
    <glyph glyph-name="W.smcp" unicode="&#xf353;" horiz-adv-x="754" 
d="M110 0l-16 560h59l8 -498h1l237 498h70l30 -498h1l218 498h60l-252 -560h-78l-28 495l-232 -495h-78z" />
    <glyph glyph-name="X.smcp" unicode="&#xf354;" horiz-adv-x="493" 
d="M-21 0l241 283l-135 277h64l112 -235l197 235h71l-237 -280l145 -280h-67l-119 238l-200 -238h-72z" />
    <glyph glyph-name="Y.smcp" unicode="&#xf355;" horiz-adv-x="523" 
d="M193 0l42 247l-161 313h67l128 -262h1l218 262h72l-264 -310l-43 -250h-60z" />
    <glyph glyph-name="Z.smcp" unicode="&#xf356;" horiz-adv-x="487" 
d="M-4 0l9 54l420 451h-333l9 55h408l-10 -55l-423 -452h343l-9 -53h-414z" />
    <glyph glyph-name="OE.smcp" unicode="&#xf357;" horiz-adv-x="846" 
d="M305 0q-119 0 -185.5 65t-66.5 171q0 143 95 233.5t247 90.5h474l-10 -55h-319l-34 -194h205l-10 -53h-204l-37 -205h319l-9 -53h-465zM320 53h80l80 452h-78q-127 0 -207.5 -72t-80.5 -200q0 -86 56 -133t150 -47z" />
    <glyph glyph-name="AE.smcp" unicode="&#xf358;" horiz-adv-x="791" 
d="M-31 0l421 560h423l-8 -55h-312l-33 -194h203l-9 -54h-205l-36 -204h312l-9 -53h-374l47 258h-159l-187 -258h-74zM269 313h129l35 192h-19z" />
    <glyph glyph-name="Wacute.smcp" unicode="&#xf359;" horiz-adv-x="754" 
d="M110 0l-16 560h59l8 -498h1l237 498h70l30 -498h1l218 498h60l-252 -560h-78l-28 495l-232 -495h-78zM416 605l65 125h81l-90 -125h-56z" />
    <glyph glyph-name="Wdieresis.smcp" unicode="&#xf360;" horiz-adv-x="754" 
d="M110 0l-16 560h59l8 -498h1l237 498h70l30 -498h1l218 498h60l-252 -560h-78l-28 495l-232 -495h-78zM335 672q0 20 14.5 34t33.5 14t33.5 -14t14.5 -34t-14.5 -34t-33.5 -14t-33.5 14t-14.5 34zM466 672q0 20 14 34t34 14t34 -14t14 -34t-14 -34t-34 -14t-34 14t-14 34z
" />
    <glyph glyph-name="Wgrave.smcp" unicode="&#xf361;" horiz-adv-x="754" 
d="M110 0l-16 560h59l8 -498h1l237 498h70l30 -498h1l218 498h60l-252 -560h-78l-28 495l-232 -495h-78zM415 730l45 -125h-56l-70 125h81z" />
    <glyph glyph-name="Ygrave.smcp" unicode="&#xf362;" horiz-adv-x="523" 
d="M193 0l42 247l-161 313h67l128 -262h1l218 262h72l-264 -310l-43 -250h-60zM295 730l45 -125h-56l-70 125h81z" />
    <glyph glyph-name="uni021A.smcp" unicode="&#xf363;" horiz-adv-x="448" 
d="M155 0l89 506h-175l10 54h409l-10 -54h-172l-90 -506h-61zM120 -88q0 19 14.5 33.5t35.5 14.5t35.5 -13.5t14.5 -33.5t-15 -37l-71 -85l-42 7l50 73q-22 14 -22 41z" />
    <glyph glyph-name="Tcommaaccent.smcp" unicode="&#xf364;" horiz-adv-x="448" 
d="M155 0l89 506h-175l10 54h409l-10 -54h-172l-90 -506h-61zM120 -88q0 19 14.5 33.5t35.5 14.5t35.5 -13.5t14.5 -33.5t-15 -37l-71 -85l-42 7l50 73q-22 14 -22 41z" />
    <glyph glyph-name="Amacron.smcp" unicode="&#xf365;" horiz-adv-x="503" 
d="M-4 0l280 560h69l90 -560h-57l-30 193h-198l-93 -193h-61zM175 244h165l-38 257h-1zM217 643l9 54h220l-9 -54h-220z" />
    <glyph glyph-name="Aogonek.smcp" unicode="&#xf366;" horiz-adv-x="503" 
d="M-4 0l280 560h69l90 -560h-24q-67 -36 -67 -74q0 -32 41 -32q22 0 46 8l-7 -40q-24 -12 -62 -12q-36 0 -58.5 19t-22.5 44q0 32 28 56.5t68 36.5l-29 187h-198l-93 -193h-61zM175 244h165l-38 257h-1z" />
    <glyph glyph-name="Aring.smcp" unicode="&#xf367;" horiz-adv-x="503" 
d="M-4 0l280 560h69l90 -560h-57l-30 193h-198l-93 -193h-61zM175 244h165l-38 257h-1zM236 676q0 36 26 61t62 25t62 -25t26 -61t-26 -61t-62 -25t-62 25t-26 61zM366 676q0 19 -12 32.5t-30 13.5t-30.5 -13.5t-12.5 -32.5t12.5 -32.5t30.5 -13.5t30 13.5t12 32.5z" />
    <glyph glyph-name="Atilde.smcp" unicode="&#xf368;" horiz-adv-x="503" 
d="M-4 0l280 560h69l90 -560h-57l-30 193h-198l-93 -193h-61zM175 244h165l-38 257h-1zM368 626q-18 0 -48.5 16.5t-38.5 16.5q-18 0 -22 -26l-1 -5h-52l2 12q13 75 75 75q18 0 48 -16.5t38 -16.5q18 0 23 26l1 6h52l-2 -13q-13 -75 -75 -75z" />
    <glyph glyph-name="Cacute.smcp" unicode="&#xf369;" horiz-adv-x="627" 
d="M323 -10q-115 0 -191.5 77.5t-76.5 193.5q0 131 90.5 220t208.5 89q92 0 159.5 -51.5t89.5 -134.5h-63q-19 61 -67 97t-119 36q-101 0 -170 -74t-69 -185q0 -92 57 -153.5t152 -61.5q67 0 119 35t83 98h64q-33 -85 -105.5 -135.5t-161.5 -50.5zM350 605l65 125h81
l-90 -125h-56z" />
    <glyph glyph-name="Ccaron.smcp" unicode="&#xf370;" horiz-adv-x="627" 
d="M323 -10q-115 0 -191.5 77.5t-76.5 193.5q0 131 90.5 220t208.5 89q92 0 159.5 -51.5t89.5 -134.5h-63q-19 61 -67 97t-119 36q-101 0 -170 -74t-69 -185q0 -92 57 -153.5t152 -61.5q67 0 119 35t83 98h64q-33 -85 -105.5 -135.5t-161.5 -50.5zM508 730l-95 -125h-77
l-50 125h60l34 -80l64 80h64z" />
    <glyph glyph-name="Ccedilla.smcp" unicode="&#xf371;" horiz-adv-x="629" 
d="M205 -128l60 124q-93 19 -151 91.5t-58 173.5q0 131 90.5 220t208.5 89q92 0 159.5 -51.5t89.5 -134.5h-63q-19 61 -67 97t-119 36q-101 0 -170 -74t-69 -185q0 -92 57 -153.5t152 -61.5q135 0 202 133h64q-32 -83 -102.5 -133.5t-156.5 -52.5l-69 -118h-58z" />
    <glyph glyph-name="Ccircumflex.smcp" unicode="&#xf372;" horiz-adv-x="627" 
d="M323 -10q-115 0 -191.5 77.5t-76.5 193.5q0 131 90.5 220t208.5 89q92 0 159.5 -51.5t89.5 -134.5h-63q-19 61 -67 97t-119 36q-101 0 -170 -74t-69 -185q0 -92 57 -153.5t152 -61.5q67 0 119 35t83 98h64q-33 -85 -105.5 -135.5t-161.5 -50.5zM428 730l49 -125h-58
l-34 80l-64 -80h-66l96 125h77z" />
    <glyph glyph-name="Cdotaccent.smcp" unicode="&#xf373;" horiz-adv-x="627" 
d="M323 -10q-115 0 -191.5 77.5t-76.5 193.5q0 131 90.5 220t208.5 89q92 0 159.5 -51.5t89.5 -134.5h-63q-19 61 -67 97t-119 36q-101 0 -170 -74t-69 -185q0 -92 57 -153.5t152 -61.5q67 0 119 35t83 98h64q-33 -85 -105.5 -135.5t-161.5 -50.5zM335 672q0 20 14.5 34
t33.5 14t33.5 -14t14.5 -34t-14.5 -34t-33.5 -14t-33.5 14t-14.5 34z" />
    <glyph glyph-name="Dcaron.smcp" unicode="&#xf374;" horiz-adv-x="575" 
d="M113 52h92q125 0 200 71.5t75 199.5q0 88 -58 136t-157 48h-72zM43 0l99 560h138q121 0 191 -66.5t70 -173.5q0 -140 -87.5 -230t-235.5 -90h-175zM483 730l-95 -125h-77l-50 125h60l34 -80l64 80h64z" />
    <glyph glyph-name="Gbreve.smcp" unicode="&#xf375;" horiz-adv-x="643" 
d="M317 -10q-114 0 -188 77t-74 194q0 131 90.5 220t208.5 89q92 0 159.5 -51.5t89.5 -134.5h-63q-19 61 -67 97t-119 36q-101 0 -170 -74t-69 -185q0 -91 56.5 -153t151.5 -62q81 0 136.5 48.5t68.5 101.5h-141l8 52h203l-43 -245h-54l14 90q-75 -100 -198 -100zM376 668
q20 0 35.5 13.5t20.5 38.5l2 11h52l-3 -19q-7 -45 -37 -70t-70 -25q-44 0 -71.5 29.5t-18.5 74.5l2 10h50l-2 -10q-4 -20 7.5 -36.5t32.5 -16.5z" />
    <glyph glyph-name="Gcircumflex.smcp" unicode="&#xf376;" horiz-adv-x="643" 
d="M317 -10q-114 0 -188 77t-74 194q0 131 90.5 220t208.5 89q92 0 159.5 -51.5t89.5 -134.5h-63q-19 61 -67 97t-119 36q-101 0 -170 -74t-69 -185q0 -91 56.5 -153t151.5 -62q81 0 136.5 48.5t68.5 101.5h-141l8 52h203l-43 -245h-54l14 90q-75 -100 -198 -100zM440 730
l49 -125h-58l-34 80l-64 -80h-66l96 125h77z" />
    <glyph glyph-name="Gdotaccent.smcp" unicode="&#xf377;" horiz-adv-x="643" 
d="M317 -10q-114 0 -188 77t-74 194q0 131 90.5 220t208.5 89q92 0 159.5 -51.5t89.5 -134.5h-63q-19 61 -67 97t-119 36q-101 0 -170 -74t-69 -185q0 -91 56.5 -153t151.5 -62q81 0 136.5 48.5t68.5 101.5h-141l8 52h203l-43 -245h-54l14 90q-75 -100 -198 -100zM356 672
q0 20 14 34t34 14t34 -14t14 -34t-14 -34t-34 -14t-34 14t-14 34z" />
    <glyph glyph-name="Hcircumflex.smcp" unicode="&#xf378;" horiz-adv-x="560" 
d="M43 0l99 560h61l-44 -249h274l44 249h61l-99 -560h-61l46 258h-275l-45 -258h-61zM405 730l49 -125h-58l-34 80l-64 -80h-66l96 125h77z" />
    <glyph glyph-name="Iacute.smcp" unicode="&#xf379;" horiz-adv-x="225" 
d="M43 0l99 560h61l-99 -560h-61zM156 605l65 125h81l-90 -125h-56z" />
    <glyph glyph-name="Ibreve.smcp" unicode="&#xf380;" horiz-adv-x="225" 
d="M43 0l99 560h61l-99 -560h-61zM193 668q20 0 35.5 13.5t20.5 38.5l2 11h52l-3 -19q-7 -45 -37 -70t-70 -25q-44 0 -71.5 29.5t-18.5 74.5l2 10h50l-2 -10q-4 -20 7.5 -36.5t32.5 -16.5z" />
    <glyph glyph-name="Icircumflex.smcp" unicode="&#xf381;" horiz-adv-x="225" 
d="M43 0l99 560h61l-99 -560h-61zM241 730l49 -125h-58l-34 80l-64 -80h-66l96 125h77z" />
    <glyph glyph-name="Idieresis.smcp" unicode="&#xf382;" horiz-adv-x="225" 
d="M43 0l99 560h61l-99 -560h-61zM81 672q0 20 14.5 34t33.5 14t33.5 -14t14.5 -34t-14.5 -34t-33.5 -14t-33.5 14t-14.5 34zM212 672q0 20 14 34t34 14t34 -14t14 -34t-14 -34t-34 -14t-34 14t-14 34z" />
    <glyph glyph-name="Idotaccent.smcp" unicode="&#xf383;" horiz-adv-x="225" 
d="M43 0l99 560h61l-99 -560h-61zM141 672q0 20 14.5 34t33.5 14t33.5 -14t14.5 -34t-14.5 -34t-33.5 -14t-33.5 14t-14.5 34z" />
    <glyph glyph-name="Igrave.smcp" unicode="&#xf384;" horiz-adv-x="225" 
d="M43 0l99 560h61l-99 -560h-61zM154 730l45 -125h-56l-70 125h81z" />
    <glyph glyph-name="IJ.smcp" unicode="&#xf385;" horiz-adv-x="708" 
d="M43 0l99 560h61l-99 -560h-61zM254 223h60l-5 -29q-11 -63 20 -107t98 -44q57 0 91 37t44 94l68 386h61l-70 -396q-14 -78 -64 -126t-132 -48q-93 0 -142.5 59t-32.5 153z" />
    <glyph glyph-name="Iogonek.smcp" unicode="&#xf386;" horiz-adv-x="225" 
d="M104 0h-14q-67 -36 -67 -74q0 -32 41 -32q22 0 46 8l-7 -40q-24 -12 -62 -12q-36 0 -58.5 19t-22.5 44q0 30 24 53t59 35l99 559h61z" />
    <glyph glyph-name="Itilde.smcp" unicode="&#xf387;" horiz-adv-x="225" 
d="M43 0l99 560h61l-99 -560h-61zM233 626q-18 0 -48.5 16.5t-38.5 16.5q-18 0 -22 -26l-1 -5h-52l2 12q13 75 75 75q18 0 48 -16.5t38 -16.5q18 0 23 26l1 6h52l-2 -13q-13 -75 -75 -75z" />
    <glyph glyph-name="Jcircumflex.smcp" unicode="&#xf388;" horiz-adv-x="483" 
d="M29 223h60l-5 -29q-11 -63 20 -107t98 -44q57 0 91 37t44 94l68 386h61l-70 -396q-14 -78 -64 -126t-132 -48q-93 0 -142.5 59t-32.5 153zM339 730l49 -125h-58l-34 80l-64 -80h-66l96 125h77z" />
    <glyph glyph-name="Kcommaaccent.smcp" unicode="&#xf389;" horiz-adv-x="499" 
d="M43 0l99 560h61l-43 -240h24l281 240h83l-318 -267l212 -293h-72l-187 268h-32l-47 -268h-61zM164 -88q0 19 14.5 33.5t35.5 14.5t35.5 -13.5t14.5 -33.5t-15 -37l-71 -85l-42 7l50 73q-22 14 -22 41z" />
    <glyph glyph-name="Lacute.smcp" unicode="&#xf390;" horiz-adv-x="407" 
d="M43 0l99 560h61l-90 -507h248l-9 -53h-309zM220 605l65 125h81l-90 -125h-56z" />
    <glyph glyph-name="Nacute.smcp" unicode="&#xf391;" horiz-adv-x="560" 
d="M43 0l99 560h80l171 -471l84 471h61l-99 -560h-74l-176 480l-85 -480h-61zM317 605l65 125h81l-90 -125h-56z" />
    <glyph glyph-name="Ncaron.smcp" unicode="&#xf392;" horiz-adv-x="560" 
d="M43 0l99 560h80l171 -471l84 471h61l-99 -560h-74l-176 480l-85 -480h-61zM481 730l-95 -125h-77l-50 125h60l34 -80l64 80h64z" />
    <glyph glyph-name="Ncommaaccent.smcp" unicode="&#xf393;" horiz-adv-x="560" 
d="M43 0l99 560h80l171 -471l84 471h61l-99 -560h-74l-176 480l-85 -480h-61zM181 -88q0 19 14.5 33.5t35.5 14.5t35.5 -13.5t14.5 -33.5t-15 -37l-71 -85l-42 7l50 73q-22 14 -22 41z" />
    <glyph glyph-name="Ntilde.smcp" unicode="&#xf394;" horiz-adv-x="560" 
d="M43 0l99 560h80l171 -471l84 471h61l-99 -560h-74l-176 480l-85 -480h-61zM397 626q-18 0 -48.5 16.5t-38.5 16.5q-18 0 -22 -26l-1 -5h-52l2 12q13 75 75 75q18 0 48 -16.5t38 -16.5q18 0 23 26l1 6h52l-2 -13q-13 -75 -75 -75z" />
    <glyph glyph-name="Oacute.smcp" unicode="&#xf395;" horiz-adv-x="658" 
d="M324 43q101 0 169 73.5t68 184.5q0 92 -56 154t-150 62q-101 0 -170 -74t-69 -185q0 -91 56.5 -153t151.5 -62zM323 -10q-115 0 -191 77.5t-76 193.5q0 132 89 220.5t210 88.5q115 0 191.5 -77.5t76.5 -193.5q0 -132 -89.5 -220.5t-210.5 -88.5zM356 605l65 125h81
l-90 -125h-56z" />
    <glyph glyph-name="Ograve.smcp" unicode="&#xf396;" horiz-adv-x="658" 
d="M324 43q101 0 169 73.5t68 184.5q0 92 -56 154t-150 62q-101 0 -170 -74t-69 -185q0 -91 56.5 -153t151.5 -62zM323 -10q-115 0 -191 77.5t-76 193.5q0 132 89 220.5t210 88.5q115 0 191.5 -77.5t76.5 -193.5q0 -132 -89.5 -220.5t-210.5 -88.5zM338 730l45 -125h-56
l-70 125h81z" />
    <glyph glyph-name="Otilde.smcp" unicode="&#xf397;" horiz-adv-x="658" 
d="M324 43q101 0 169 73.5t68 184.5q0 92 -56 154t-150 62q-101 0 -170 -74t-69 -185q0 -91 56.5 -153t151.5 -62zM323 -10q-115 0 -191 77.5t-76 193.5q0 132 89 220.5t210 88.5q115 0 191.5 -77.5t76.5 -193.5q0 -132 -89.5 -220.5t-210.5 -88.5zM423 626
q-18 0 -48.5 16.5t-38.5 16.5q-18 0 -22 -26l-1 -5h-52l2 12q13 75 75 75q18 0 48 -16.5t38 -16.5q18 0 23 26l1 6h52l-2 -13q-13 -75 -75 -75z" />
    <glyph glyph-name="Racute.smcp" unicode="&#xf398;" horiz-adv-x="494" 
d="M43 0l99 560h142q82 0 130 -41.5t48 -100.5q0 -55 -34.5 -102.5t-117.5 -63.5l137 -252h-67l-132 245h-102l-42 -245h-61zM157 299h87q82 0 118.5 32t36.5 82q0 41 -31.5 67t-88.5 26h-86zM263 605l65 125h81l-90 -125h-56z" />
    <glyph glyph-name="Rcaron.smcp" unicode="&#xf399;" horiz-adv-x="494" 
d="M43 0l99 560h142q82 0 130 -41.5t48 -100.5q0 -55 -34.5 -102.5t-117.5 -63.5l137 -252h-67l-132 245h-102l-42 -245h-61zM157 299h87q82 0 118.5 32t36.5 82q0 41 -31.5 67t-88.5 26h-86zM435 730l-95 -125h-77l-50 125h60l34 -80l64 80h64z" />
    <glyph glyph-name="Rcommaaccent.smcp" unicode="&#xf400;" horiz-adv-x="494" 
d="M43 0l99 560h142q82 0 130 -41.5t48 -100.5q0 -55 -34.5 -102.5t-117.5 -63.5l137 -252h-67l-132 245h-102l-42 -245h-61zM157 299h87q82 0 118.5 32t36.5 82q0 41 -31.5 67t-88.5 26h-86zM167 -88q0 19 14.5 33.5t35.5 14.5t35.5 -13.5t14.5 -33.5t-15 -37l-71 -85
l-42 7l50 73q-22 14 -22 41z" />
    <glyph glyph-name="Sacute.smcp" unicode="&#xf401;" horiz-adv-x="425" 
d="M197 -10q-65 0 -112.5 26t-73.5 64l39 42q56 -79 146 -79q51 0 81 29t30 68q0 58 -78 113l-49 35q-89 62 -89 136q0 69 48.5 107.5t113.5 38.5q49 0 94.5 -22t73.5 -60l-37 -35q-54 64 -129 64q-48 0 -75.5 -24.5t-27.5 -64.5q0 -47 56 -88l60 -44q57 -42 78 -77t21 -78
q0 -64 -48 -107.5t-122 -43.5zM246 605l65 125h81l-90 -125h-56z" />
    <glyph glyph-name="Scaron.smcp" unicode="&#xf402;" horiz-adv-x="425" 
d="M197 -10q-65 0 -112.5 26t-73.5 64l39 42q56 -79 146 -79q51 0 81 29t30 68q0 58 -78 113l-49 35q-89 62 -89 136q0 69 48.5 107.5t113.5 38.5q49 0 94.5 -22t73.5 -60l-37 -35q-54 64 -129 64q-48 0 -75.5 -24.5t-27.5 -64.5q0 -47 56 -88l60 -44q57 -42 78 -77t21 -78
q0 -64 -48 -107.5t-122 -43.5zM410 730l-95 -125h-77l-50 125h60l34 -80l64 80h64z" />
    <glyph glyph-name="Scedilla.smcp" unicode="&#xf403;" horiz-adv-x="426" 
d="M96 -128l58 122q-92 15 -142 86l39 42q56 -79 146 -79q51 0 81 29t30 68q0 58 -78 113l-49 35q-89 62 -89 136q0 69 48.5 107.5t113.5 38.5q49 0 94.5 -22t73.5 -60l-37 -35q-54 64 -129 64q-48 0 -75.5 -24.5t-27.5 -64.5q0 -47 56 -88l60 -44q57 -42 78 -77t21 -78
q0 -58 -40 -100t-104 -49l-70 -120h-58z" />
    <glyph glyph-name="Scircumflex.smcp" unicode="&#xf404;" horiz-adv-x="425" 
d="M197 -10q-65 0 -112.5 26t-73.5 64l39 42q56 -79 146 -79q51 0 81 29t30 68q0 58 -78 113l-49 35q-89 62 -89 136q0 69 48.5 107.5t113.5 38.5q49 0 94.5 -22t73.5 -60l-37 -35q-54 64 -129 64q-48 0 -75.5 -24.5t-27.5 -64.5q0 -47 56 -88l60 -44q57 -42 78 -77t21 -78
q0 -64 -48 -107.5t-122 -43.5zM340 730l49 -125h-58l-34 80l-64 -80h-66l96 125h77z" />
    <glyph glyph-name="Scommaaccent.smcp" unicode="&#xf405;" horiz-adv-x="425" 
d="M197 -10q-65 0 -112.5 26t-73.5 64l39 42q56 -79 146 -79q51 0 81 29t30 68q0 58 -78 113l-49 35q-89 62 -89 136q0 69 48.5 107.5t113.5 38.5q49 0 94.5 -22t73.5 -60l-37 -35q-54 64 -129 64q-48 0 -75.5 -24.5t-27.5 -64.5q0 -47 56 -88l60 -44q57 -42 78 -77t21 -78
q0 -64 -48 -107.5t-122 -43.5zM112 -88q0 19 14.5 33.5t35.5 14.5t35.5 -13.5t14.5 -33.5t-15 -37l-71 -85l-42 7l50 73q-22 14 -22 41z" />
    <glyph glyph-name="Tbar.smcp" unicode="&#xf406;" horiz-adv-x="461" 
d="M93 258l10 53h113l34 195h-175l10 54h409l-10 -54h-172l-35 -195h112l-9 -53h-112l-46 -258h-61l45 258h-113z" />
    <glyph glyph-name="Tcaron.smcp" unicode="&#xf407;" horiz-adv-x="448" 
d="M155 0l89 506h-175l10 54h409l-10 -54h-172l-90 -506h-61zM421 730l-95 -125h-77l-50 125h60l34 -80l64 80h64z" />
    <glyph glyph-name="Thorn.smcp" unicode="&#xf408;" horiz-adv-x="471" 
d="M43 0l99 560h61l-19 -106h76q81 0 133.5 -44.5t52.5 -110.5q0 -85 -57.5 -137t-162.5 -52h-102l-20 -110h-61zM133 163h97q69 0 112.5 31.5t43.5 98.5q0 49 -35.5 78.5t-93.5 29.5h-83z" />
    <glyph glyph-name="Uacute.smcp" unicode="&#xf409;" horiz-adv-x="530" 
d="M248 -10q-93 0 -142.5 59t-32.5 153l63 358h61l-65 -366q-11 -63 20 -107t98 -44q57 0 91 37t44 94l68 386h61l-70 -396q-14 -78 -64 -126t-132 -48zM296 605l65 125h81l-90 -125h-56z" />
    <glyph glyph-name="Ubreve.smcp" unicode="&#xf410;" horiz-adv-x="530" 
d="M248 -10q-93 0 -142.5 59t-32.5 153l63 358h61l-65 -366q-11 -63 20 -107t98 -44q57 0 91 37t44 94l68 386h61l-70 -396q-14 -78 -64 -126t-132 -48zM330 668q20 0 35.5 13.5t20.5 38.5l2 11h52l-3 -19q-7 -45 -37 -70t-70 -25q-44 0 -71.5 29.5t-18.5 74.5l2 10h50
l-2 -10q-4 -20 7.5 -36.5t32.5 -16.5z" />
    <glyph glyph-name="Ucircumflex.smcp" unicode="&#xf411;" horiz-adv-x="530" 
d="M248 -10q-93 0 -142.5 59t-32.5 153l63 358h61l-65 -366q-11 -63 20 -107t98 -44q57 0 91 37t44 94l68 386h61l-70 -396q-14 -78 -64 -126t-132 -48zM389 730l49 -125h-58l-34 80l-64 -80h-66l96 125h77z" />
    <glyph glyph-name="Yacute.smcp" unicode="&#xf412;" horiz-adv-x="523" 
d="M193 0l42 247l-161 313h67l128 -262h1l218 262h72l-264 -310l-43 -250h-60zM289 605l65 125h81l-90 -125h-56z" />
    <glyph glyph-name="Zacute.smcp" unicode="&#xf413;" horiz-adv-x="487" 
d="M-4 0l9 54l420 451h-333l9 55h408l-10 -55l-423 -452h343l-9 -53h-414zM270 605l65 125h81l-90 -125h-56z" />
    <glyph glyph-name="Gcommaaccent.smcp" unicode="&#xf414;" horiz-adv-x="643" 
d="M317 -10q-114 0 -188 77t-74 194q0 131 90.5 220t208.5 89q92 0 159.5 -51.5t89.5 -134.5h-63q-19 61 -67 97t-119 36q-101 0 -170 -74t-69 -185q0 -91 56.5 -153t151.5 -62q81 0 136.5 48.5t68.5 101.5h-141l8 52h203l-43 -245h-54l14 90q-75 -100 -198 -100zM224 -88
q0 19 14.5 33.5t35.5 14.5t35.5 -13.5t14.5 -33.5t-15 -37l-71 -85l-42 7l50 73q-22 14 -22 41z" />
    <glyph glyph-name="Ohungarumlaut.smcp" unicode="&#xf415;" horiz-adv-x="658" 
d="M324 43q101 0 169 73.5t68 184.5q0 92 -56 154t-150 62q-101 0 -170 -74t-69 -185q0 -91 56.5 -153t151.5 -62zM323 -10q-115 0 -191 77.5t-76 193.5q0 132 89 220.5t210 88.5q115 0 191.5 -77.5t76.5 -193.5q0 -132 -89.5 -220.5t-210.5 -88.5zM284 605l66 125h79
l-90 -125h-55zM409 605l66 125h79l-90 -125h-55z" />
    <glyph glyph-name="Uhungarumlaut.smcp" unicode="&#xf416;" horiz-adv-x="530" 
d="M248 -10q-93 0 -142.5 59t-32.5 153l63 358h61l-65 -366q-11 -63 20 -107t98 -44q57 0 91 37t44 94l68 386h61l-70 -396q-14 -78 -64 -126t-132 -48zM228 605l66 125h79l-90 -125h-55zM353 605l66 125h79l-90 -125h-55z" />
    <glyph glyph-name="Eng.smcp" unicode="&#xf417;" horiz-adv-x="561" 
d="M43 0l99 560h80l170 -471l85 471h61l-105 -595q-10 -55 -36.5 -80.5t-83.5 -25.5h-54l10 55h34q35 0 49 11.5t20 46.5l5 28h-12l-176 480l-85 -480h-61z" />
    <glyph glyph-name="Lcommaaccent.smcp" unicode="&#xf418;" horiz-adv-x="407" 
d="M43 0l99 560h61l-90 -507h248l-9 -53h-309zM131 -88q0 19 14.5 33.5t35.5 14.5t35.5 -13.5t14.5 -33.5t-15 -37l-71 -85l-42 7l50 73q-22 14 -22 41z" />
    <glyph glyph-name="Imacron.smcp" unicode="&#xf419;" horiz-adv-x="225" 
d="M43 0l99 560h61l-99 -560h-61zM77 643l9 54h220l-9 -54h-220z" />
    <glyph glyph-name="Lcaron.smcp" unicode="&#xf420;" horiz-adv-x="409" 
d="M43 0l99 560h61l-90 -507h248l-9 -53h-309zM320 522q0 19 14.5 33.5t35.5 14.5t35.5 -13.5t14.5 -33.5t-15 -37l-71 -85l-42 7l50 73q-22 14 -22 41z" />
    <glyph glyph-name="Dcroat.smcp" unicode="&#xf421;" horiz-adv-x="582" 
d="M6 259l10 53h89l44 248h138q121 0 191 -66.5t70 -173.5q0 -140 -87.5 -230t-235.5 -90h-175l46 259h-90zM120 52h92q125 0 200 71.5t75 199.5q0 88 -58 136t-157 48h-72l-34 -195h162l-10 -53h-162z" />
    <glyph glyph-name="Eth.smcp" unicode="&#xf422;" horiz-adv-x="582" 
d="M6 259l10 53h89l44 248h138q121 0 191 -66.5t70 -173.5q0 -140 -87.5 -230t-235.5 -90h-175l46 259h-90zM120 52h92q125 0 200 71.5t75 199.5q0 88 -58 136t-157 48h-72l-34 -195h162l-10 -53h-162z" />
    <glyph glyph-name="Hbar.smcp" unicode="&#xf423;" horiz-adv-x="561" 
d="M45 402l10 52h69l19 106h61l-19 -106h274l19 106h61l-19 -106h71l-10 -52h-70l-71 -402h-61l46 258h-275l-45 -258h-61l71 402h-70zM160 311h274l16 91h-274z" />
    <glyph glyph-name="Oslash.smcp" unicode="&#xf424;" horiz-adv-x="658" 
d="M323 -10q-107 0 -180 67l-69 -67h-76l109 106q-51 72 -51 165q0 132 89 220.5t210 88.5q102 0 176 -63l66 63h74l-104 -101q56 -74 56 -170q0 -132 -89.5 -220.5t-210.5 -88.5zM324 43q101 0 169 73.5t68 184.5q0 71 -36 127l-343 -333q55 -52 142 -52zM116 258
q0 -70 33 -122l342 332q-56 49 -136 49q-101 0 -170 -74t-69 -185z" />
    <glyph glyph-name="Ldot.smcp" unicode="&#xf425;" horiz-adv-x="408" 
d="M43 0l99 560h61l-90 -507h248l-9 -53h-309zM278 301q0 19 14 33.5t34 14.5t34 -14.5t14 -33.5t-14 -33.5t-34 -14.5t-34 14.5t-14 33.5z" />
    <glyph glyph-name="Lslash.smcp" unicode="&#xf426;" horiz-adv-x="408" 
d="M9 194l10 53l73 23l51 290h61l-48 -270l201 63l-10 -53l-201 -63l-32 -184h248l-9 -53h-309l38 217z" />
    <glyph glyph-name="Aacute.smcp" unicode="&#xf427;" horiz-adv-x="503" 
d="M-4 0l280 560h69l90 -560h-57l-30 193h-198l-93 -193h-61zM175 244h165l-38 257h-1zM296 605l65 125h81l-90 -125h-56z" />
    <glyph glyph-name="Abreve.smcp" unicode="&#xf428;" horiz-adv-x="503" 
d="M-4 0l280 560h69l90 -560h-57l-30 193h-198l-93 -193h-61zM175 244h165l-38 257h-1zM323 667q20 0 35.5 13.5t20.5 38.5l2 11h52l-3 -19q-7 -45 -37 -70t-70 -25q-44 0 -71.5 29.5t-18.5 74.5l2 10h50l-2 -10q-4 -20 7.5 -36.5t32.5 -16.5z" />
    <glyph glyph-name="Acircumflex.smcp" unicode="&#xf429;" horiz-adv-x="503" 
d="M-4 0l280 560h69l90 -560h-57l-30 193h-198l-93 -193h-61zM175 244h165l-38 257h-1zM374 730l49 -125h-58l-34 80l-64 -80h-66l96 125h77z" />
    <glyph glyph-name="Adieresis.smcp" unicode="&#xf430;" horiz-adv-x="503" 
d="M-4 0l280 560h69l90 -560h-57l-30 193h-198l-93 -193h-61zM175 244h165l-38 257h-1zM212 672q0 20 14 34t34 14t34 -14t14 -34t-14 -34t-34 -14t-34 14t-14 34zM343 672q0 20 14.5 34t33.5 14t33.5 -14t14.5 -34t-14.5 -34t-33.5 -14t-33.5 14t-14.5 34z" />
    <glyph glyph-name="Agrave.smcp" unicode="&#xf431;" horiz-adv-x="503" 
d="M-4 0l280 560h69l90 -560h-57l-30 193h-198l-93 -193h-61zM175 244h165l-38 257h-1zM287 730l45 -125h-56l-70 125h81z" />
    <glyph glyph-name="Eacute.smcp" unicode="&#xf432;" horiz-adv-x="497" 
d="M43 0l99 560h378l-9 -55h-318l-34 -194h205l-10 -53h-205l-36 -205h318l-10 -53h-378zM307 605l65 125h81l-90 -125h-56z" />
    <glyph glyph-name="Ebreve.smcp" unicode="&#xf433;" horiz-adv-x="497" 
d="M43 0l99 560h378l-9 -55h-318l-34 -194h205l-10 -53h-205l-36 -205h318l-10 -53h-378zM346 668q20 0 35.5 13.5t20.5 38.5l2 11h52l-3 -19q-7 -45 -37 -70t-70 -25q-44 0 -71.5 29.5t-18.5 74.5l2 10h50l-2 -10q-4 -20 7.5 -36.5t32.5 -16.5z" />
    <glyph glyph-name="Ecaron.smcp" unicode="&#xf434;" horiz-adv-x="497" 
d="M43 0l99 560h378l-9 -55h-318l-34 -194h205l-10 -53h-205l-36 -205h318l-10 -53h-378zM467 730l-95 -125h-77l-50 125h60l34 -80l64 80h64z" />
    <glyph glyph-name="Ecircumflex.smcp" unicode="&#xf435;" horiz-adv-x="497" 
d="M43 0l99 560h378l-9 -55h-318l-34 -194h205l-10 -53h-205l-36 -205h318l-10 -53h-378zM401 730l49 -125h-58l-34 80l-64 -80h-66l96 125h77z" />
    <glyph glyph-name="Edieresis.smcp" unicode="&#xf436;" horiz-adv-x="497" 
d="M43 0l99 560h378l-9 -55h-318l-34 -194h205l-10 -53h-205l-36 -205h318l-10 -53h-378zM231 672q0 20 14.5 34t33.5 14t33.5 -14t14.5 -34t-14.5 -34t-33.5 -14t-33.5 14t-14.5 34zM362 672q0 20 14 34t34 14t34 -14t14 -34t-14 -34t-34 -14t-34 14t-14 34z" />
    <glyph glyph-name="Edotaccent.smcp" unicode="&#xf437;" horiz-adv-x="497" 
d="M43 0l99 560h378l-9 -55h-318l-34 -194h205l-10 -53h-205l-36 -205h318l-10 -53h-378zM295 672q0 20 14.5 34t33.5 14t33.5 -14t14.5 -34t-14.5 -34t-33.5 -14t-33.5 14t-14.5 34z" />
    <glyph glyph-name="Egrave.smcp" unicode="&#xf438;" horiz-adv-x="497" 
d="M43 0l99 560h378l-9 -55h-318l-34 -194h205l-10 -53h-205l-36 -205h318l-10 -53h-378zM327 730l45 -125h-56l-70 125h81z" />
    <glyph glyph-name="Emacron.smcp" unicode="&#xf439;" horiz-adv-x="497" 
d="M43 0l99 560h378l-9 -55h-318l-34 -194h205l-10 -53h-205l-36 -205h318l-10 -53h-378zM233 643l9 54h220l-9 -54h-220z" />
    <glyph glyph-name="Eogonek.smcp" unicode="&#xf440;" horiz-adv-x="497" 
d="M43 0l99 560h378l-9 -55h-318l-34 -194h205l-10 -53h-205l-36 -205h318l-10 -53h-70q-67 -36 -67 -74q0 -32 41 -32q22 0 46 8l-7 -40q-24 -12 -62 -12q-36 0 -58.5 19t-22.5 44q0 29 22.5 51.5t56.5 35.5h-257z" />
    <glyph glyph-name="Udieresis.smcp" unicode="&#xf441;" horiz-adv-x="530" 
d="M248 -10q-93 0 -142.5 59t-32.5 153l63 358h61l-65 -366q-11 -63 20 -107t98 -44q57 0 91 37t44 94l68 386h61l-70 -396q-14 -78 -64 -126t-132 -48zM211 672q0 20 14.5 34t33.5 14t33.5 -14t14.5 -34t-14.5 -34t-33.5 -14t-33.5 14t-14.5 34zM342 672q0 20 14 34t34 14
t34 -14t14 -34t-14 -34t-34 -14t-34 14t-14 34z" />
    <glyph glyph-name="Ugrave.smcp" unicode="&#xf442;" horiz-adv-x="530" 
d="M248 -10q-93 0 -142.5 59t-32.5 153l63 358h61l-65 -366q-11 -63 20 -107t98 -44q57 0 91 37t44 94l68 386h61l-70 -396q-14 -78 -64 -126t-132 -48zM310 730l45 -125h-56l-70 125h81z" />
    <glyph glyph-name="Umacron.smcp" unicode="&#xf443;" horiz-adv-x="530" 
d="M248 -10q-93 0 -142.5 59t-32.5 153l63 358h61l-65 -366q-11 -63 20 -107t98 -44q57 0 91 37t44 94l68 386h61l-70 -396q-14 -78 -64 -126t-132 -48zM226 643l9 54h220l-9 -54h-220z" />
    <glyph glyph-name="Uogonek.smcp" unicode="&#xf444;" horiz-adv-x="531" 
d="M444 164q-13 -73 -57.5 -120t-115.5 -53q-51 -30 -51 -65q0 -32 41 -32q22 0 46 8l-7 -40q-24 -12 -62 -12q-36 0 -58.5 19t-22.5 44q0 49 60 79q-79 10 -119.5 67t-24.5 143l63 358h61l-65 -366q-11 -63 20 -107t98 -44q57 0 91 37t44 94l68 386h61z" />
    <glyph glyph-name="Uring.smcp" unicode="&#xf445;" horiz-adv-x="530" 
d="M248 -10q-93 0 -142.5 59t-32.5 153l63 358h61l-65 -366q-11 -63 20 -107t98 -44q57 0 91 37t44 94l68 386h61l-70 -396q-14 -78 -64 -126t-132 -48zM240 676q0 36 26 61t62 25t62 -25t26 -61t-26 -61t-62 -25t-62 25t-26 61zM370 676q0 19 -12 32.5t-30 13.5
t-30.5 -13.5t-12.5 -32.5t12.5 -32.5t30.5 -13.5t30 13.5t12 32.5z" />
    <glyph glyph-name="Obreve.smcp" unicode="&#xf446;" horiz-adv-x="658" 
d="M324 43q101 0 169 73.5t68 184.5q0 92 -56 154t-150 62q-101 0 -170 -74t-69 -185q0 -91 56.5 -153t151.5 -62zM323 -10q-115 0 -191 77.5t-76 193.5q0 132 89 220.5t210 88.5q115 0 191.5 -77.5t76.5 -193.5q0 -132 -89.5 -220.5t-210.5 -88.5zM394 668q20 0 35.5 13.5
t20.5 38.5l2 11h52l-3 -19q-7 -45 -37 -70t-70 -25q-44 0 -71.5 29.5t-18.5 74.5l2 10h50l-2 -10q-4 -20 7.5 -36.5t32.5 -16.5z" />
    <glyph glyph-name="Ocircumflex.smcp" unicode="&#xf447;" horiz-adv-x="658" 
d="M324 43q101 0 169 73.5t68 184.5q0 92 -56 154t-150 62q-101 0 -170 -74t-69 -185q0 -91 56.5 -153t151.5 -62zM323 -10q-115 0 -191 77.5t-76 193.5q0 132 89 220.5t210 88.5q115 0 191.5 -77.5t76.5 -193.5q0 -132 -89.5 -220.5t-210.5 -88.5zM441 730l49 -125h-58
l-34 80l-64 -80h-66l96 125h77z" />
    <glyph glyph-name="Odieresis.smcp" unicode="&#xf448;" horiz-adv-x="658" 
d="M324 43q101 0 169 73.5t68 184.5q0 92 -56 154t-150 62q-101 0 -170 -74t-69 -185q0 -91 56.5 -153t151.5 -62zM323 -10q-115 0 -191 77.5t-76 193.5q0 132 89 220.5t210 88.5q115 0 191.5 -77.5t76.5 -193.5q0 -132 -89.5 -220.5t-210.5 -88.5zM271 672q0 20 14.5 34
t33.5 14t33.5 -14t14.5 -34t-14.5 -34t-33.5 -14t-33.5 14t-14.5 34zM402 672q0 20 14 34t34 14t34 -14t14 -34t-14 -34t-34 -14t-34 14t-14 34z" />
    <glyph glyph-name="Omacron.smcp" unicode="&#xf449;" horiz-adv-x="658" 
d="M324 43q101 0 169 73.5t68 184.5q0 92 -56 154t-150 62q-101 0 -170 -74t-69 -185q0 -91 56.5 -153t151.5 -62zM323 -10q-115 0 -191 77.5t-76 193.5q0 132 89 220.5t210 88.5q115 0 191.5 -77.5t76.5 -193.5q0 -132 -89.5 -220.5t-210.5 -88.5zM285 643l9 54h220l-9 -54
h-220z" />
    <glyph glyph-name="Utilde.smcp" unicode="&#xf450;" horiz-adv-x="530" 
d="M248 -10q-93 0 -142.5 59t-32.5 153l63 358h61l-65 -366q-11 -63 20 -107t98 -44q57 0 91 37t44 94l68 386h61l-70 -396q-14 -78 -64 -126t-132 -48zM375 626q-18 0 -48.5 16.5t-38.5 16.5q-18 0 -22 -26l-1 -5h-52l2 12q13 75 75 75q18 0 48 -16.5t38 -16.5q18 0 23 26
l1 6h52l-2 -13q-13 -75 -75 -75z" />
    <glyph glyph-name="Wcircumflex.smcp" unicode="&#xf451;" horiz-adv-x="754" 
d="M110 0l-16 560h59l8 -498h1l237 498h70l30 -498h1l218 498h60l-252 -560h-78l-28 495l-232 -495h-78zM493 730l49 -125h-58l-34 80l-64 -80h-66l96 125h77z" />
    <glyph glyph-name="Ycircumflex.smcp" unicode="&#xf452;" horiz-adv-x="523" 
d="M193 0l42 247l-161 313h67l128 -262h1l218 262h72l-264 -310l-43 -250h-60zM379 730l49 -125h-58l-34 80l-64 -80h-66l96 125h77z" />
    <glyph glyph-name="Ydieresis.smcp" unicode="&#xf453;" horiz-adv-x="523" 
d="M193 0l42 247l-161 313h67l128 -262h1l218 262h72l-264 -310l-43 -250h-60zM204 672q0 20 14 34t34 14t34 -14t14 -34t-14 -34t-34 -14t-34 14t-14 34zM335 672q0 20 14.5 34t33.5 14t33.5 -14t14.5 -34t-14.5 -34t-33.5 -14t-33.5 14t-14.5 34z" />
    <glyph glyph-name="Zdotaccent.smcp" unicode="&#xf454;" horiz-adv-x="487" 
d="M-4 0l9 54l420 451h-333l9 55h408l-10 -55l-423 -452h343l-9 -53h-414zM269 672q0 20 14.5 34t33.5 14t33.5 -14t14.5 -34t-14.5 -34t-33.5 -14t-33.5 14t-14.5 34z" />
    <glyph glyph-name="Zcaron.smcp" unicode="&#xf455;" horiz-adv-x="487" 
d="M-4 0l9 54l420 451h-333l9 55h408l-10 -55l-423 -452h343l-9 -53h-414zM448 730l-95 -125h-77l-50 125h60l34 -80l64 80h64z" />
    <glyph glyph-name="greater.alt" unicode="&#xf456;" horiz-adv-x="541" 
d="M68 170l11 68l372 122l-329 121l12 62l393 -152l-12 -69z" />
    <glyph glyph-name="less.alt" unicode="&#xf457;" horiz-adv-x="541" 
d="M467 235l-11 -62l-393 152l12 69l447 152l-12 -68l-371 -121z" />
    <glyph glyph-name="guilsinglleft.smcp" unicode="&#xf610;" horiz-adv-x="280" 
d="M127 162l-61 123l99 123h70l-104 -126l57 -120h-61z" />
    <glyph glyph-name="guillemotleft.smcp" unicode="&#xf611;" horiz-adv-x="404" 
d="M128 162l-61 123l97 123h69l-101 -126l57 -120h-61zM255 162l-61 123l97 123h69l-101 -126l57 -120h-61z" />
    <glyph glyph-name="guillemotright.smcp" unicode="&#xf612;" horiz-adv-x="402" 
d="M297 408l61 -123l-97 -123h-69l101 126l-57 120h61zM170 408l61 -123l-97 -123h-69l101 126l-57 120h61z" />
    <glyph glyph-name="guilsinglright.smcp" unicode="&#xf613;" horiz-adv-x="279" 
d="M66 163l104 126l-57 120h61l61 -124l-99 -122h-70z" />
    <glyph glyph-name="plus.smcp" unicode="&#xf615;" horiz-adv-x="424" 
d="M165 110l25 147h-144l8 49h145l25 144h54l-26 -144h146l-8 -49h-146l-26 -147h-53z" />
    <glyph glyph-name="minus.smcp" unicode="&#xf616;" horiz-adv-x="424" 
d="M46 257l8 49h344l-8 -49h-344z" />
    <glyph glyph-name="equal.smcp" unicode="&#xf617;" horiz-adv-x="424" 
d="M35 194l8 49h344l-8 -49h-344zM57 319l8 50h344l-8 -50h-344z" />
    <glyph glyph-name="commaaccent.smcp" unicode="&#xf668;" horiz-adv-x="350" 
d="M67 -88q0 19 14.5 33.5t35.5 14.5t35.5 -13.5t14.5 -33.5t-15 -37l-71 -85l-42 7l50 73q-22 14 -22 41z" />
    <glyph glyph-name="cent.smcp" unicode="&#xf685;" horiz-adv-x="425" 
d="M229 97q-20 0 -29 2l-31 -99h-52l35 113q-45 20 -70.5 62t-25.5 96q0 83 55 142.5t136 59.5q3 0 9.5 -0.5t9.5 -0.5l28 88h52l-31 -99q53 -20 82 -70l-50 -30q-17 35 -49 49l-82 -261q5 -1 15 -1q67 0 107 63l48 -32q-56 -82 -157 -82zM117 267q0 -70 52 -103l81 256
q-57 0 -95 -44t-38 -109z" />
    <glyph glyph-name="dollar.smcp" unicode="&#xf686;" horiz-adv-x="426" 
d="M197 -10q-12 0 -32 2l-20 -66h-53l24 76q-67 23 -105 78l39 42q33 -48 82 -67l68 218l-20 15q-89 62 -89 136q0 69 48.5 107.5t113.5 38.5q22 0 39 -4l18 58h53l-23 -73q49 -21 81 -63l-37 -35q-28 33 -60 48l-62 -201l6 -4q57 -42 78 -77t21 -78q0 -64 -48 -107.5
t-122 -43.5zM307 140q0 52 -64 102l-62 -199h15q51 0 81 29t30 68zM152 428q0 -47 56 -88l11 -8l57 184q-7 1 -21 1q-48 0 -75.5 -24.5t-27.5 -64.5z" />
    <glyph glyph-name="Euro.smcp" unicode="&#xf687;" horiz-adv-x="599" 
d="M58 324l10 50h52q30 90 94 142.5t148 52.5q85 0 143.5 -47t72.5 -132h-62q-22 126 -155 126q-61 0 -106.5 -38t-71.5 -104h214l-9 -50h-220q-9 -37 -11 -90h217l-9 -50h-206q9 -66 48 -103.5t111 -37.5q58 0 101 34t64 92h67q-29 -85 -91.5 -132t-142.5 -47
q-95 0 -151 52.5t-67 141.5h-63l10 50h51q0 42 10 90h-48z" />
    </font>
</defs>
</svg>
