<?xml version="1.0" standalone="no"?>
<!DOCTYPE svg PUBLIC "-//W3C//DTD SVG 1.1//EN" "http://www.w3.org/Graphics/SVG/1.1/DTD/svg11.dtd" >
<svg xmlns="http://www.w3.org/2000/svg" xmlns:xlink="http://www.w3.org/1999/xlink" version="1.1">
<metadata>
Created by FontForge 20170731 at Thu May 26 20:57:05 2016
 By Aleksey,,,
Copyright (c) 2012 by Henrik Kubel, A2/SW/HK + A2-TYPE. All rights reserved.
</metadata>
<defs>
<font id="Regular-Extrabold" horiz-adv-x="430" >
  <font-face 
    font-family="Regular Extrabold"
    font-weight="610"
    font-stretch="normal"
    units-per-em="1000"
    panose-1="2 0 5 3 3 0 0 2 0 3"
    ascent="750"
    descent="-250"
    x-height="465"
    cap-height="700"
    bbox="-256 -316 1154 990"
    underline-thickness="137"
    underline-position="-652"
    unicode-range="U+0020-FB06"
  />
<missing-glyph horiz-adv-x="500" 
d="M292 141v61h17q14 0 14 -18v-26q0 -17 -14 -17h-17zM460 373v20q0 24 -23 24h-9q-24 0 -24 -24v-20q0 -24 24 -24h9q23 0 23 24zM65 202v-160h28v160h30v26h-88v-26h30zM205 107l32 121h-29l-17 -77l-20 77h-30l33 -121v-65h31v65zM380 228v-186h85v27h-55v54h32v27h-32
v52h55v26h-85zM264 228v-186h28v71h24q16 0 26 11.5t10 29.5v33q0 19 -10 30t-26 11h-52zM355 365l79 105q26 33 26 81v16q0 40 -25.5 66t-61.5 26h-17q-36 0 -62 -26t-26 -66v-50h62v42q0 40 33 40h3q31 0 31 -40v-7q-1 -30 -21 -57l-78 -104q-29 -38 -29 -78v-43h192v61
h-122v4q0 9 16 30zM170 347l8 -77h66l-43 387h-118l-43 -387h65l7 77h58zM415 374v18q0 15 14 15h6q14 0 14 -15v-4h-11v1q0 8 -6 8t-6 -8v-12q0 -8 6 -8t6 8v1h11v-4q0 -15 -14 -15h-6q-14 0 -14 15zM0 29v641q0 12 8 20.5t20 8.5h445q11 0 19 -8.5t8 -20.5v-641
q0 -12 -8 -20.5t-19 -8.5h-445q-12 0 -20 8.5t-8 20.5zM146 604l18 -196h-46l18 196h10z" />
    <glyph glyph-name="f_j" unicode="fj" horiz-adv-x="606" 
d="M397 -14v342h-153v-328h-160v328h-71v137h71v118q0 129 144 129l110 -7v-148q-46 5 -58 5q-36 0 -36 -31v-66h313v-522q0 -33 -11.5 -56.5t-27.5 -35.5t-41.5 -18.5t-43 -7.5t-42.5 -1h-75v137h45q20 0 28 5.5t8 19.5zM375 619q0 41 28 69t68 28q41 0 69 -28t28 -69
q0 -40 -28 -68t-69 -28t-68.5 27.5t-27.5 68.5z" />
    <glyph glyph-name="f_i" unicode="fi" horiz-adv-x="606" 
d="M557 465v-465h-160v328h-153v-328h-160v328h-71v137h71v118q0 129 144 129l110 -7v-148q-46 5 -58 5q-36 0 -36 -31v-66h313zM375 619q0 41 28 69t68 28q41 0 69 -28t28 -69q0 -40 -28 -68t-69 -28t-68.5 27.5t-27.5 68.5z" />
    <glyph glyph-name="f_f_f" unicode="fff" horiz-adv-x="972" 
d="M710 465v118q0 129 144 129l110 -7v-148q-46 5 -58 5q-36 0 -36 -31v-66h87v-137h-87v-328h-160v328h-153v-328h-160v328h-153v-328h-160v328h-71v137h71v118q0 129 144 129l110 -7v-148q-46 5 -58 5q-36 0 -36 -31v-66h153v118q0 129 144 129l110 -7v-148q-46 5 -58 5
q-36 0 -36 -31v-66h153z" />
    <glyph glyph-name="f_f" unicode="ff" horiz-adv-x="659" 
d="M397 465v118q0 129 144 129l110 -7v-148q-46 5 -58 5q-36 0 -36 -31v-66h87v-137h-87v-328h-160v328h-153v-328h-160v328h-71v137h71v118q0 129 144 129l110 -7v-148q-46 5 -58 5q-36 0 -36 -31v-66h153z" />
    <glyph glyph-name=".notdef" horiz-adv-x="500" 
d="M292 141v61h17q14 0 14 -18v-26q0 -17 -14 -17h-17zM460 373v20q0 24 -23 24h-9q-24 0 -24 -24v-20q0 -24 24 -24h9q23 0 23 24zM65 202v-160h28v160h30v26h-88v-26h30zM205 107l32 121h-29l-17 -77l-20 77h-30l33 -121v-65h31v65zM380 228v-186h85v27h-55v54h32v27h-32
v52h55v26h-85zM264 228v-186h28v71h24q16 0 26 11.5t10 29.5v33q0 19 -10 30t-26 11h-52zM355 365l79 105q26 33 26 81v16q0 40 -25.5 66t-61.5 26h-17q-36 0 -62 -26t-26 -66v-50h62v42q0 40 33 40h3q31 0 31 -40v-7q-1 -30 -21 -57l-78 -104q-29 -38 -29 -78v-43h192v61
h-122v4q0 9 16 30zM170 347l8 -77h66l-43 387h-118l-43 -387h65l7 77h58zM415 374v18q0 15 14 15h6q14 0 14 -15v-4h-11v1q0 8 -6 8t-6 -8v-12q0 -8 6 -8t6 8v1h11v-4q0 -15 -14 -15h-6q-14 0 -14 15zM0 29v641q0 12 8 20.5t20 8.5h445q11 0 19 -8.5t8 -20.5v-641
q0 -12 -8 -20.5t-19 -8.5h-445q-12 0 -20 8.5t-8 20.5zM146 604l18 -196h-46l18 196h10z" />
    <glyph glyph-name=".null" horiz-adv-x="0" 
 />
    <glyph glyph-name="nonmarkingreturn" horiz-adv-x="333" 
 />
    <glyph glyph-name="space" unicode=" " horiz-adv-x="200" 
 />
    <glyph glyph-name="exclam" unicode="!" horiz-adv-x="297" 
d="M226 227h-155l-14 473h183zM48 88q0 42 29.5 71.5t70.5 29.5q42 0 71.5 -29.5t29.5 -71.5q0 -41 -29.5 -70.5t-71.5 -29.5q-41 0 -70.5 29.5t-29.5 70.5z" />
    <glyph glyph-name="quotedbl" unicode="&#x22;" horiz-adv-x="510" 
d="M57 411v289h172v-289h-172zM281 411v289h172v-289h-172z" />
    <glyph glyph-name="numbersign" unicode="#" horiz-adv-x="579" 
d="M45 410v120h88v144h126v-144h60v144h126v-144h89v-120h-89v-80h89v-120h-89v-145h-126v145h-60v-145h-126v145h-88v120h88v80h-88zM259 410v-80h60v80h-60z" />
    <glyph glyph-name="dollar" unicode="$" horiz-adv-x="597" 
d="M555 610l-95 -121q-35 36 -81 55l-19 -119l16 -7q98 -43 139 -92.5t41 -121.5q0 -87 -68.5 -151.5t-187.5 -64.5h-7l-12 -81h-88l14 92q-57 14 -103 40.5t-72 53.5l93 124q41 -42 106 -64l20 135l-34 15q-159 69 -159 202q0 89 70 148t172 59h16l11 68h88l-13 -81
q91 -24 153 -89zM370 197q0 30 -37 52l-16 -106q25 4 39 19t14 35zM244 510q0 -29 34 -48l14 95q-24 -4 -36 -18t-12 -29z" />
    <glyph glyph-name="percent" unicode="%" horiz-adv-x="718" 
d="M386 547q0 -69 -50.5 -117t-121.5 -48q-72 0 -122.5 47.5t-50.5 117.5t50.5 117.5t122.5 47.5q71 0 121.5 -48t50.5 -117zM161 547q0 -24 15.5 -39.5t37.5 -15.5q21 0 36.5 15.5t15.5 39.5t-15.5 39.5t-36.5 15.5q-22 0 -37.5 -15.5t-15.5 -39.5zM681 537l-590 -454
l-56 78l587 450zM680 153q0 -69 -50.5 -117t-121.5 -48q-72 0 -122.5 47.5t-50.5 117.5t50.5 117.5t122.5 47.5q71 0 121.5 -48t50.5 -117zM455 153q0 -24 15.5 -39.5t37.5 -15.5q21 0 36.5 15.5t15.5 39.5t-15.5 39.5t-36.5 15.5q-22 0 -37.5 -15.5t-15.5 -39.5z" />
    <glyph glyph-name="ampersand" unicode="&#x26;" horiz-adv-x="708" 
d="M699 36v-36h-195l-67 67q-68 -79 -193 -79q-93 0 -156 55.5t-63 145.5q0 121 122 201q-50 62 -50 134q0 29 12 59.5t36.5 60.5t70 49t105.5 19q85 0 143.5 -47.5t58.5 -114.5q0 -54 -23 -88l-144 8q12 24 12 42q0 26 -13.5 40.5t-37.5 14.5q-25 0 -39 -17t-14 -40
q0 -40 46 -86l119 -122q23 45 37 93h190q-59 -139 -107 -208zM327 176l-91 93q-38 -37 -38 -75q0 -25 19.5 -40.5t42.5 -15.5q44 0 67 38z" />
    <glyph glyph-name="quotesingle" unicode="'" horiz-adv-x="286" 
d="M57 411v289h172v-289h-172z" />
    <glyph glyph-name="parenleft" unicode="(" horiz-adv-x="353" 
d="M30 283q0 207 169 417h142v-16q-64 -79 -104 -186.5t-40 -214.5q0 -109 41 -226t103 -194v-16h-142q-78 96 -123.5 209.5t-45.5 226.5z" />
    <glyph glyph-name="parenright" unicode=")" horiz-adv-x="353" 
d="M323 283q0 -113 -45.5 -226.5t-123.5 -209.5h-142v16q62 77 103 194t41 226q0 107 -40 214.5t-104 186.5v16h142q169 -210 169 -417z" />
    <glyph glyph-name="asterisk" unicode="*" horiz-adv-x="598" 
d="M183 472q-106 9 -106 83q0 30 22 49t48 19q33 0 90 -46q-11 50 -11 65q0 29 21 49.5t52 20.5t52 -20.5t21 -49.5q0 -15 -11 -65q57 46 90 46q26 0 48 -19t22 -49q0 -74 -106 -83q106 -9 106 -83q0 -30 -22 -49t-48 -19q-33 0 -90 46q11 -50 11 -65q0 -29 -21 -49.5
t-52 -20.5t-52 20.5t-21 49.5q0 16 11 65q-57 -46 -90 -46q-26 0 -48 19t-22 49q0 74 106 83zM233 472q0 -27 19.5 -46.5t46.5 -19.5t46.5 19.5t19.5 46.5t-19.5 46.5t-46.5 19.5t-46.5 -19.5t-19.5 -46.5z" />
    <glyph glyph-name="plus" unicode="+" horiz-adv-x="520" 
d="M338 430h145v-147h-145v-150h-156v150h-145v147h145v150h156v-150z" />
    <glyph glyph-name="comma" unicode="," horiz-adv-x="287" 
d="M41 88q0 42 29 71t71 29q44 0 74.5 -29t30.5 -71q0 -29 -15 -57l-86 -161h-129l63 140q-38 28 -38 78z" />
    <glyph glyph-name="hyphen" unicode="-" horiz-adv-x="250" 
d="M20 205v137h210v-137h-210z" />
    <glyph glyph-name="period" unicode="." horiz-adv-x="282" 
d="M41 88q0 42 29.5 71.5t70.5 29.5q42 0 71.5 -29.5t29.5 -71.5q0 -41 -29.5 -70.5t-71.5 -29.5q-41 0 -70.5 29.5t-29.5 70.5z" />
    <glyph glyph-name="slash" unicode="/" horiz-adv-x="436" 
d="M26 0l238 700h147l-238 -700h-147z" />
    <glyph glyph-name="zero" unicode="0" horiz-adv-x="560" 
d="M280 712q114 0 184.5 -92t70.5 -269q0 -179 -70.5 -271t-184.5 -92q-115 0 -185.5 92t-70.5 271q0 177 70.5 269t185.5 92zM196 351q0 -204 84 -204q83 0 83 204q0 205 -83 205q-84 0 -84 -205z" />
    <glyph glyph-name="one" unicode="1" horiz-adv-x="560" 
d="M82 551v149h296v-551h134v-149h-441v149h134v402h-123z" />
    <glyph glyph-name="two" unicode="2" horiz-adv-x="560" 
d="M40 0v151q132 104 213 178q55 50 74 85t19 73q0 30 -20 50t-55 20q-32 0 -53.5 -18.5t-21.5 -47.5q0 -26 16 -64l-158 -26q-27 54 -27 112q0 79 67 139t180 60q120 0 185 -64.5t65 -149.5q0 -76 -44 -146.5t-163 -161.5l-50 -38h262v-152h-489z" />
    <glyph glyph-name="three" unicode="3" horiz-adv-x="560" 
d="M273 -12q-118 0 -180 58t-62 158v31h176v-27q0 -31 15.5 -54.5t48.5 -23.5t51 23t18 62q0 42 -23 67t-70 25q-38 0 -75 -8v161l132 91h-248v149h446v-167l-171 -110q84 -4 137 -62t53 -140q0 -108 -66.5 -170.5t-181.5 -62.5z" />
    <glyph glyph-name="four" unicode="4" horiz-adv-x="560" 
d="M18 158v146l231 396h209v-398h73v-144h-73v-158h-166v158h-274zM292 524h-1l-130 -222h131v222z" />
    <glyph glyph-name="five" unicode="5" horiz-adv-x="560" 
d="M316 466q96 0 152 -63.5t56 -166.5q0 -111 -63.5 -179.5t-180.5 -68.5q-118 0 -180.5 58t-62.5 158v31h176v-27q0 -31 15.5 -54.5t48.5 -23.5q67 0 67 97q0 98 -72 98q-40 0 -65 -25l-145 13v387h436v-149h-286v-108l2 -2q42 25 102 25z" />
    <glyph glyph-name="six" unicode="6" horiz-adv-x="560" 
d="M241 429l7 -3q31 18 77 18q88 0 151.5 -56.5t63.5 -161.5q0 -106 -69.5 -172t-180.5 -66q-119 0 -191.5 73t-72.5 185q0 72 24.5 143t65 127.5t75 94t72.5 70.5l22 19h226l-18 -15q-183 -150 -252 -256zM199 222q0 -39 22 -65t62 -26q39 0 61 26t22 65q0 40 -22 66.5
t-61 26.5q-40 0 -62 -26.5t-22 -66.5z" />
    <glyph glyph-name="seven" unicode="7" horiz-adv-x="560" 
d="M291 0h-190l257 551h-317v149h480v-149z" />
    <glyph glyph-name="eight" unicode="8" horiz-adv-x="560" 
d="M280 132q39 0 60.5 22.5t21.5 55.5t-21.5 55.5t-60.5 22.5t-60.5 -22.5t-21.5 -55.5t21.5 -55.5t60.5 -22.5zM280 425q36 0 54 21t18 52t-18 52t-54 21t-54 -21t-18 -52t18 -52t54 -21zM280 712q109 0 174.5 -56t65.5 -141q0 -47 -26.5 -89t-74.5 -62q54 -20 84.5 -65.5
t30.5 -100.5q0 -97 -69 -153.5t-185 -56.5t-185 56.5t-69 153.5q0 55 30.5 100.5t84.5 65.5q-48 20 -74.5 62t-26.5 89q0 85 65.5 141t174.5 56z" />
    <glyph glyph-name="nine" unicode="9" horiz-adv-x="560" 
d="M319 271l-7 3q-31 -18 -77 -18q-88 0 -151.5 56.5t-63.5 161.5q0 106 69.5 172t180.5 66q119 0 191.5 -73t72.5 -185q0 -72 -24.5 -143t-65 -127.5t-75 -94t-72.5 -70.5l-22 -19h-226l18 15q183 150 252 256zM361 478q0 39 -22 65t-62 26q-39 0 -61 -26t-22 -65
q0 -40 22 -66.5t61 -26.5q40 0 62 26.5t22 66.5z" />
    <glyph glyph-name="colon" unicode=":" horiz-adv-x="296" 
d="M48 88q0 42 29.5 71t70.5 29q42 0 71.5 -29t29.5 -71t-29.5 -71t-71.5 -29q-41 0 -70.5 29t-29.5 71zM48 364q0 42 29.5 71.5t70.5 29.5q42 0 71.5 -29.5t29.5 -71.5q0 -41 -29.5 -70.5t-71.5 -29.5q-41 0 -70.5 29.5t-29.5 70.5z" />
    <glyph glyph-name="semicolon" unicode=";" horiz-adv-x="299" 
d="M49 87q0 43 29 72t71 29q44 0 74.5 -29t30.5 -72q0 -30 -15 -56l-86 -161h-129l63 139q-38 29 -38 78zM48 364q0 42 29 71.5t70 29.5q43 0 72 -29.5t29 -71.5t-29 -71t-72 -29q-41 0 -70 29.5t-29 70.5z" />
    <glyph glyph-name="less" unicode="&#x3c;" horiz-adv-x="715" 
d="M667 278h-354l122 -143l-107 -104l-300 325l300 326l107 -104l-122 -143h354v-157z" />
    <glyph glyph-name="equal" unicode="=" horiz-adv-x="520" 
d="M37 388v147h446v-147h-446zM37 178v147h446v-147h-446z" />
    <glyph glyph-name="greater" unicode="&#x3e;" horiz-adv-x="715" 
d="M401 278h-354v157h354l-122 143l107 104l300 -326l-300 -325l-107 104z" />
    <glyph glyph-name="question" unicode="?" horiz-adv-x="528" 
d="M495 500q0 -39 -11 -75t-47.5 -73.5t-95.5 -52.5l-5 -83h-155l-11 186l40 2q55 2 80.5 27.5t25.5 58.5q0 29 -15.5 46.5t-42.5 17.5q-29 0 -45 -19t-16 -43v-7h-165v19q0 96 62.5 152t165.5 56q100 0 167.5 -60t67.5 -152zM159 88q0 42 29.5 71.5t70.5 29.5
q42 0 71.5 -29.5t29.5 -71.5q0 -41 -29.5 -70.5t-71.5 -29.5q-41 0 -70.5 29.5t-29.5 70.5z" />
    <glyph glyph-name="at" unicode="@" horiz-adv-x="922" 
d="M239 133q0 68 45.5 105.5t123.5 37.5h78q37 0 37 28v2q0 15 -15.5 24.5t-45.5 9.5q-31 0 -75.5 -12.5t-70.5 -28.5l-55 122q91 54 211 54q102 0 156.5 -45.5t54.5 -121.5v-192q0 -35 22 -35q31 0 53.5 34t31 74.5t8.5 77.5q0 141 -92 222t-233 81q-140 0 -239 -95
t-99 -246q0 -152 95 -246t244 -94q116 0 190 52l132 -16q-55 -55 -144 -86t-176 -31q-192 0 -314.5 118t-122.5 303q0 184 125 304t317 120q108 0 199.5 -43.5t150 -132t58.5 -205.5q0 -122 -57.5 -204t-161.5 -82q-87 0 -129 54q-56 -54 -140 -54q-77 0 -119.5 43
t-42.5 104zM455 96q29 0 48.5 17t19.5 49v31q-12 -14 -34 -14h-36q-23 0 -36.5 -10.5t-13.5 -28.5q0 -20 15.5 -32t36.5 -12z" />
    <glyph glyph-name="A" unicode="A" horiz-adv-x="655" 
d="M428 700l226 -700h-185l-49 163h-189l-46 -163h-181l220 700h204zM380 312l-54 194h-4l-54 -194h112z" />
    <glyph glyph-name="B" unicode="B" horiz-adv-x="603" 
d="M542 519q0 -100 -87 -141v-4q61 -24 92 -69t31 -104q0 -88 -62 -144.5t-171 -56.5h-280v700h255q104 0 163 -53.5t59 -127.5zM237 294v-147h60q50 0 74.5 21t24.5 53t-23.5 52.5t-70.5 20.5h-65zM299 553h-62v-112h61q30 0 49 14.5t19 42.5q0 25 -19 40t-48 15z" />
    <glyph glyph-name="C" unicode="C" horiz-adv-x="768" 
d="M26 350q0 157 105.5 259.5t261.5 102.5q125 0 227.5 -74t130.5 -203h-195q-16 54 -60 84.5t-103 30.5q-83 0 -134 -56.5t-51 -143.5t51 -143.5t134 -56.5q59 0 103 30.5t60 84.5h195q-28 -129 -130.5 -203t-227.5 -74q-156 0 -261.5 102.5t-105.5 259.5z" />
    <glyph glyph-name="D" unicode="D" horiz-adv-x="724" 
d="M330 0h-265v700h265q170 0 268 -96t98 -254t-98 -254t-268 -96zM335 551h-98v-402h98q76 0 130.5 52t54.5 149q0 96 -54.5 148.5t-130.5 52.5z" />
    <glyph glyph-name="E" unicode="E" horiz-adv-x="648" 
d="M612 700v-149h-375v-120h201v-148h-201v-134h375v-149h-547v700h547z" />
    <glyph glyph-name="F" unicode="F" horiz-adv-x="611" 
d="M507 264h-270v-264h-172v700h538v-149h-366v-138h270v-149z" />
    <glyph glyph-name="G" unicode="G" horiz-adv-x="786" 
d="M384 -12q-153 0 -255.5 102.5t-102.5 259.5t107 259.5t264 102.5q126 0 229.5 -74t131.5 -203h-195q-16 53 -61.5 84t-104.5 31q-83 0 -136 -56.5t-53 -143.5q0 -96 57.5 -148t136.5 -52q51 0 94 22.5t65 61.5h-138v136h318v-370h-130v92q-8 -12 -22 -25.5t-41.5 -33.5
t-70.5 -32.5t-93 -12.5z" />
    <glyph glyph-name="H" unicode="H" horiz-adv-x="719" 
d="M654 0h-172v283h-245v-283h-172v700h172v-269h245v269h172v-700z" />
    <glyph glyph-name="I" unicode="I" horiz-adv-x="302" 
d="M65 0v700h172v-700h-172z" />
    <glyph glyph-name="J" unicode="J" horiz-adv-x="628" 
d="M294 -12q-130 0 -203 70t-73 177v80h171v-55q0 -55 26.5 -87t78.5 -32t78 32t26 87v440h172v-465q0 -107 -73 -177t-203 -70z" />
    <glyph glyph-name="K" unicode="K" horiz-adv-x="658" 
d="M237 700v-265h36l193 265h204l-256 -333l245 -367h-211l-178 287h-33v-287h-172v700h172z" />
    <glyph glyph-name="L" unicode="L" horiz-adv-x="541" 
d="M529 0h-464v700h172v-551h292v-149z" />
    <glyph glyph-name="M" unicode="M" horiz-adv-x="845" 
d="M503 150h-159l-109 274v-424h-170v700h239l124 -327l133 327h219v-700h-172v424z" />
    <glyph glyph-name="N" unicode="N" horiz-adv-x="719" 
d="M235 421v-421h-170v700h214l205 -415v415h170v-700h-200z" />
    <glyph glyph-name="O" unicode="O" horiz-adv-x="787" 
d="M394 712q154 0 260.5 -103t106.5 -259t-106.5 -259t-260.5 -103q-155 0 -261.5 103t-106.5 259t106.5 259t261.5 103zM394 150q83 0 134 56.5t51 143.5t-51 143.5t-134 56.5t-134.5 -56.5t-51.5 -143.5t51.5 -143.5t134.5 -56.5z" />
    <glyph glyph-name="P" unicode="P" horiz-adv-x="598" 
d="M236 215v-215h-171v700h253q126 0 195 -68t69 -172q0 -105 -69 -175t-195 -70h-82zM284 551h-48v-187h48q122 0 122 96q0 91 -122 91z" />
    <glyph glyph-name="Q" unicode="Q" horiz-adv-x="787" 
d="M394 712q154 0 260.5 -103t106.5 -259q0 -167 -121 -272l10 -15q26 -43 83 -43l42 3v-143q-58 -6 -106 -6q-50 0 -84.5 18t-61.5 61l-29 48q-52 -13 -100 -13q-155 0 -261.5 103t-106.5 259t106.5 259t261.5 103zM352 237l140 83l54 -89q33 50 33 119q0 87 -51 143.5
t-134 56.5t-134.5 -56.5t-51.5 -143.5t51.5 -143.5t134.5 -56.5h10z" />
    <glyph glyph-name="R" unicode="R" horiz-adv-x="653" 
d="M452 0l-132 245h-83v-245h-172v700h292q114 0 184.5 -63.5t70.5 -157.5q0 -139 -128 -199l162 -280h-194zM433 475q0 76 -99 76h-97v-154h97q99 0 99 78z" />
    <glyph glyph-name="S" unicode="S" horiz-adv-x="567" 
d="M537 610l-95 -121q-65 69 -150 69q-32 0 -49 -15t-17 -33q0 -34 50 -56l82 -36q98 -43 139 -92.5t41 -121.5q0 -87 -68.5 -151.5t-187.5 -64.5q-87 0 -158 32.5t-110 72.5l93 124q30 -31 78 -53t95 -22q34 0 53 16t19 39q0 21 -17.5 37.5t-55.5 33.5l-80 35
q-159 69 -159 202q0 89 70 148t172 59q159 0 255 -102z" />
    <glyph glyph-name="T" unicode="T" horiz-adv-x="604" 
d="M12 700h580v-155h-204v-545h-171v545h-205v155z" />
    <glyph glyph-name="U" unicode="U" horiz-adv-x="665" 
d="M438 260v440h169v-465q0 -107 -72.5 -177t-202.5 -70t-202 70t-72 177v465h171v-440q0 -55 26.5 -87t78.5 -32t78 32t26 87z" />
    <glyph glyph-name="V" unicode="V" horiz-adv-x="651" 
d="M235 0l-237 700h190l138 -463h1l144 463h182l-236 -700h-182z" />
    <glyph glyph-name="W" unicode="W" horiz-adv-x="971" 
d="M402 700h173l114 -433h1l93 433h177l-170 -700h-184l-121 477l-118 -477h-186l-170 700h185l89 -433h1z" />
    <glyph glyph-name="X" unicode="X" horiz-adv-x="644" 
d="M643 700l-218 -352l223 -348h-201l-130 220l-123 -220h-199l221 355l-211 345h201l120 -215l119 215h198z" />
    <glyph glyph-name="Y" unicode="Y" horiz-adv-x="687" 
d="M259 281l-265 419h211l139 -235h7l137 235h203l-261 -416v-284h-171v281z" />
    <glyph glyph-name="Z" unicode="Z" horiz-adv-x="658" 
d="M398 545h-357v155h579v-148l-356 -397h356v-155h-587v142z" />
    <glyph glyph-name="bracketleft" unicode="[" horiz-adv-x="395" 
d="M361 555h-130v-563h130v-145h-297v853h297v-145z" />
    <glyph glyph-name="backslash" unicode="\" horiz-adv-x="436" 
d="M172 700l238 -700h-147l-238 700h147z" />
    <glyph glyph-name="bracketright" unicode="]" horiz-adv-x="395" 
d="M164 555h-130v145h297v-853h-297v145h130v563z" />
    <glyph glyph-name="asciicircum" unicode="^" horiz-adv-x="550" 
d="M34 225l149 475h193l139 -475h-163l-75 296l-79 -296h-164z" />
    <glyph glyph-name="underscore" unicode="_" horiz-adv-x="500" 
d="M0 -176v137h500v-137h-500z" />
    <glyph glyph-name="grave" unicode="`" horiz-adv-x="248" 
d="M228 700l41 -177h-153l-97 177h209z" />
    <glyph glyph-name="a" unicode="a" horiz-adv-x="506" 
d="M234 98q29 0 48.5 17t19.5 49v31q-12 -14 -34 -14h-36q-23 0 -36.5 -10.5t-13.5 -28.5q0 -20 15.5 -32t36.5 -12zM95 301l-55 122q91 54 211 54q102 0 156.5 -45.5t54.5 -121.5v-310h-160v40q-38 -52 -121 -52q-77 0 -120 43t-43 104q0 68 45.5 105.5t123.5 37.5h78
q37 0 37 28v2q0 15 -15.5 24.5t-45.5 9.5q-31 0 -75.5 -12.5t-70.5 -28.5z" />
    <glyph glyph-name="b" unicode="b" horiz-adv-x="585" 
d="M301 332q-41 0 -67.5 -28.5t-26.5 -70.5q0 -41 26.5 -70.5t67.5 -29.5t68 29.5t27 70.5q0 42 -27 70.5t-68 28.5zM210 700v-224l-4 -62q40 63 138 63q92 0 155 -69.5t63 -174.5t-63 -175t-155 -70q-46 0 -81.5 18.5t-52.5 44.5v-51h-160v700h160z" />
    <glyph glyph-name="c" unicode="c" horiz-adv-x="532" 
d="M272 332q-40 0 -65.5 -28t-25.5 -71t25.5 -71.5t65.5 -28.5q33 0 56 20t31 54l158 -31q-17 -85 -85.5 -136.5t-160.5 -51.5q-105 0 -177.5 70t-72.5 175t72.5 174.5t177.5 69.5q92 0 160 -51t86 -137l-158 -31q-8 34 -31 54t-56 20z" />
    <glyph glyph-name="d" unicode="d" horiz-adv-x="585" 
d="M284 332q-41 0 -68 -28.5t-27 -70.5q0 -41 27 -70.5t68 -29.5t67.5 29.5t26.5 70.5q0 42 -26.5 70.5t-67.5 28.5zM375 0v51q-17 -26 -52.5 -44.5t-81.5 -18.5q-92 0 -155 70t-63 175t63 174.5t155 69.5q98 0 138 -63q-4 28 -4 62v224h160v-700h-160z" />
    <glyph glyph-name="e" unicode="e" horiz-adv-x="533" 
d="M518 197v-9h-328q6 -26 28.5 -45t55.5 -19q25 0 46.5 11t30.5 31l158 -26q-60 -152 -239 -152q-106 0 -177 69.5t-71 175.5t70 175t176 69q107 0 178.5 -70t71.5 -210zM268 349q-32 0 -54.5 -17t-28.5 -44h166q-6 27 -28.5 44t-54.5 17z" />
    <glyph glyph-name="f" unicode="f" horiz-adv-x="346" 
d="M84 465v118q0 129 144 129l110 -7v-148q-46 5 -58 5q-36 0 -36 -31v-66h87v-137h-87v-328h-160v328h-71v137h71z" />
    <glyph glyph-name="g" unicode="g" horiz-adv-x="581" 
d="M371 465h160v-497q0 -62 -36 -103t-115 -41h-210v137h160q41 0 41 34v67q-17 -26 -52 -44t-81 -18q-91 0 -152.5 65.5t-61.5 173.5q0 109 61.5 173.5t152.5 64.5q97 0 137 -63q-4 8 -4 42v9zM190 239q0 -46 25.5 -72.5t66.5 -26.5t66.5 26.5t25.5 72.5t-25.5 72.5
t-66.5 26.5t-66.5 -26.5t-25.5 -72.5z" />
    <glyph glyph-name="h" unicode="h" horiz-adv-x="554" 
d="M210 287v-287h-160v700h157v-225l-4 -62q50 64 134 64q73 0 122.5 -45t49.5 -125v-307h-160v255q0 36 -19.5 53t-47.5 17q-45 0 -72 -38z" />
    <glyph glyph-name="i" unicode="i" horiz-adv-x="294" 
d="M244 465v-465h-160v328h-61v137h221zM62 619q0 41 28 69t68 28t68.5 -28t28.5 -69q0 -40 -28 -68t-69 -28q-40 0 -68 27.5t-28 68.5z" />
    <glyph glyph-name="j" unicode="j" horiz-adv-x="294" 
d="M84 -14v342h-61v137h221v-522q0 -33 -11.5 -56.5t-27.5 -35.5t-41.5 -18.5t-43 -7.5t-42.5 -1h-75v137h45q20 0 28 5.5t8 19.5zM62 619q0 41 28 69t68 28t68.5 -28t28.5 -69q0 -40 -28 -68t-69 -28q-40 0 -68 27.5t-28 68.5z" />
    <glyph glyph-name="k" unicode="k" horiz-adv-x="533" 
d="M209 700v-391h20l109 156h194l-165 -216l159 -249h-188l-104 172h-25v-172h-159v700h159z" />
    <glyph glyph-name="l" unicode="l" horiz-adv-x="260" 
d="M210 700v-700h-160v700h160z" />
    <glyph glyph-name="m" unicode="m" horiz-adv-x="853" 
d="M648 0v255q0 36 -19.5 53t-47.5 17q-45 0 -72 -38v-287h-160v255q0 36 -19.5 53t-47.5 17q-45 0 -72 -38v-287h-160v465h157v-10l-4 -42q50 64 133 64q49 0 89.5 -21t60.5 -62q51 83 150 83q73 0 122.5 -45t49.5 -125v-307h-160z" />
    <glyph glyph-name="n" unicode="n" horiz-adv-x="554" 
d="M207 465v-10l-4 -42q50 64 133 64q73 0 123 -45t50 -125v-307h-160v255q0 36 -19.5 53t-47.5 17q-45 0 -72 -38v-287h-160v465h157z" />
    <glyph glyph-name="o" unicode="o" horiz-adv-x="542" 
d="M271 -12q-105 0 -177.5 70t-72.5 175t72.5 174.5t177.5 69.5t177.5 -69.5t72.5 -174.5t-72.5 -175t-177.5 -70zM271 332q-40 0 -65 -27.5t-25 -71.5q0 -43 25.5 -71.5t64.5 -28.5t64.5 28.5t25.5 71.5t-25.5 71t-64.5 28z" />
    <glyph glyph-name="p" unicode="p" horiz-adv-x="585" 
d="M301 332q-41 0 -67.5 -28.5t-26.5 -70.5q0 -41 26.5 -70.5t67.5 -29.5t68 29.5t27 70.5q0 42 -27 70.5t-68 28.5zM210 51v-227h-160v641h160v-9l-4 -42q40 63 138 63q92 0 155 -69.5t63 -174.5t-63 -175t-155 -70q-46 0 -81.5 18.5t-52.5 44.5z" />
    <glyph glyph-name="q" unicode="q" horiz-adv-x="585" 
d="M284 332q-41 0 -68 -28.5t-27 -70.5q0 -41 27 -70.5t68 -29.5t67.5 29.5t26.5 70.5q0 42 -26.5 70.5t-67.5 28.5zM375 -176v227q-17 -26 -52.5 -44.5t-81.5 -18.5q-92 0 -155 70t-63 175t63 174.5t155 69.5q98 0 138 -63q-4 8 -4 42v9h160v-641h-160z" />
    <glyph glyph-name="r" unicode="r" horiz-adv-x="372" 
d="M355 465v-167h-58q-50 0 -68.5 -19t-18.5 -65v-214h-160v465h154v-74q14 37 45 58t69 21q15 0 37 -5z" />
    <glyph glyph-name="s" unicode="s" horiz-adv-x="452" 
d="M427 406l-91 -99q-52 45 -103 45q-15 0 -23.5 -5.5t-8.5 -12.5q0 -16 24 -23l70 -21q75 -24 105 -59t30 -87q0 -61 -51.5 -108.5t-147.5 -47.5q-78 0 -134 22t-86 51l86 107q26 -23 63.5 -39t72.5 -16q30 0 30 20q0 18 -38 28l-65 17q-62 16 -94 56t-32 90q0 64 55 108.5
t137 44.5q120 0 201 -71z" />
    <glyph glyph-name="t" unicode="t" horiz-adv-x="372" 
d="M86 631h160v-166h93v-137h-93v-163q0 -31 41 -31l52 3v-137q-75 -6 -114 -6q-65 0 -102 25.5t-37 91.5v217h-69v137h69v166z" />
    <glyph glyph-name="u" unicode="u" horiz-adv-x="545" 
d="M273 -12q-108 0 -169 53.5t-61 131.5v292h160v-258q0 -38 20.5 -55t49.5 -17t49 17t20 55v258h160v-292q0 -78 -60 -131.5t-169 -53.5z" />
    <glyph glyph-name="v" unicode="v" horiz-adv-x="517" 
d="M178 465l81 -279l87 279h168l-159 -465h-196l-153 465h172z" />
    <glyph glyph-name="w" unicode="w" horiz-adv-x="747" 
d="M452 465l65 -247l54 247h165l-114 -465h-183l-68 250l-69 -250h-182l-106 465h170l46 -241l67 241h155z" />
    <glyph glyph-name="x" unicode="x" horiz-adv-x="501" 
d="M5 0l136 233l-134 232h185l60 -117l63 117h179l-133 -229l133 -236h-183l-62 120l-60 -120h-184z" />
    <glyph glyph-name="y" unicode="y" horiz-adv-x="522" 
d="M187 -18l6 18h-35l-154 465h179l80 -296l79 296h175l-176 -536q-18 -54 -49.5 -79.5t-93.5 -25.5h-111v137h71q22 0 29 21z" />
    <glyph glyph-name="z" unicode="z" horiz-adv-x="490" 
d="M454 465v-134l-221 -194h221v-137h-420v134l221 194h-217v137h416z" />
    <glyph glyph-name="braceleft" unicode="{" horiz-adv-x="404" 
d="M268 555v-170q0 -70 -59 -92q59 -22 59 -92v-209h100v-145h-267v371h-73v148h73v334h267v-145h-100z" />
    <glyph glyph-name="bar" unicode="|" horiz-adv-x="246" 
d="M182 -93h-118v853h118v-853z" />
    <glyph glyph-name="braceright" unicode="}" horiz-adv-x="404" 
d="M136 385v170h-100v145h267v-334h73v-148h-73v-371h-267v145h100v209q0 70 59 92q-59 22 -59 92z" />
    <glyph glyph-name="asciitilde" unicode="~" horiz-adv-x="520" 
d="M377 258q-25 0 -94 19.5t-75 19.5q-23 0 -23 -19v-18h-146v76q0 17 0.5 27.5t6.5 30.5t16.5 31.5t32 21t52.5 9.5q25 0 94 -19.5t75 -19.5q23 0 23 19v18h146v-76q0 -17 -0.5 -27.5t-6.5 -30.5t-16.5 -31.5t-32 -21t-52.5 -9.5z" />
    <glyph glyph-name="exclamdown" unicode="&#xa1;" horiz-adv-x="277" 
d="M61 238h155l14 -473h-183zM38 377q0 41 29.5 70.5t70.5 29.5q42 0 71.5 -29.5t29.5 -70.5q0 -42 -29.5 -71.5t-71.5 -29.5q-41 0 -70.5 29.5t-29.5 71.5z" />
    <glyph glyph-name="cent" unicode="&#xa2;" horiz-adv-x="564" 
d="M183 0l18 119q-75 25 -121.5 87.5t-46.5 145.5q0 103 69.5 172t172.5 72l16 104h88l-18 -115q65 -18 109.5 -64.5t58.5 -112.5l-158 -31q-10 37 -33 56l-28 -177q48 14 61 70l158 -31q-17 -84 -84 -135t-158 -53l-16 -107h-88zM193 352q0 -49 32 -78l27 171
q-27 -10 -43 -34.5t-16 -58.5z" />
    <glyph glyph-name="sterling" unicode="&#xa3;" horiz-adv-x="597" 
d="M47 285v118h43q-18 47 -18 92q0 95 65.5 156t183.5 61q102 0 170.5 -58t68.5 -153v-16h-172q0 77 -69 77q-27 0 -48 -19.5t-21 -57.5q0 -34 18 -82h210v-118h-174q6 -30 6 -44q0 -56 -48 -92h279v-149h-494v149h72q5 3 11.5 8t18 21.5t11.5 35.5q0 29 -21 71h-92z" />
    <glyph glyph-name="currency" unicode="&#xa4;" horiz-adv-x="770" 
d="M76 349q0 98 54 175l-94 89l86 87l93 -89q77 52 170 52q94 0 171 -52l92 89l86 -87l-94 -89q54 -77 54 -175t-54 -174l94 -90l-86 -87l-93 90q-76 -53 -170 -53q-92 0 -171 53l-92 -90l-86 87l94 90q-54 76 -54 174zM570 349q0 82 -52 139t-133 57t-133 -57t-52 -139
t52.5 -138.5t132.5 -56.5t132.5 56.5t52.5 138.5z" />
    <glyph glyph-name="yen" unicode="&#xa5;" horiz-adv-x="754" 
d="M118 285v118h107l-197 297h208l141 -235h7l140 235h201l-196 -297h112v-118h-177v-70h177v-117h-177v-98h-171v98h-175v117h175v70h-175z" />
    <glyph glyph-name="brokenbar" unicode="&#xa6;" horiz-adv-x="246" 
d="M182 385h-118v375h118v-375zM182 -93h-118v375h118v-375z" />
    <glyph glyph-name="section" unicode="&#xa7;" horiz-adv-x="610" 
d="M38 270q0 51 34 91t87 51q-39 18 -61 53t-22 80q0 82 69 132t174 50q144 0 249 -93l-94 -122q-35 35 -76.5 56t-74.5 21q-75 0 -75 -41q0 -20 19.5 -33.5t72.5 -25.5q105 -25 139 -40q95 -43 95 -143q0 -43 -29 -78t-82 -49q75 -48 75 -134q0 -82 -69.5 -132t-174.5 -50
q-79 0 -148.5 26.5t-110.5 68.5l92 117q37 -37 81.5 -55.5t81.5 -18.5q74 0 74 39q0 31 -47 41l-106 24q-82 19 -127.5 55.5t-45.5 109.5zM199 297q0 -35 54 -48l81 -19q32 5 53 19.5t21 35.5q0 32 -59 45l-68 16q-82 -5 -82 -49z" />
    <glyph glyph-name="dieresis" unicode="&#xa8;" horiz-adv-x="449" 
d="M30 594q0 37 26.5 64t64.5 27q36 0 63.5 -27t27.5 -64q0 -36 -27.5 -62.5t-63.5 -26.5q-38 0 -64.5 26.5t-26.5 62.5zM238 594q0 37 26.5 64t63.5 27q36 0 63.5 -27t27.5 -64q0 -36 -27.5 -62.5t-63.5 -26.5q-37 0 -63.5 26.5t-26.5 62.5z" />
    <glyph glyph-name="copyright" unicode="&#xa9;" horiz-adv-x="824" 
d="M419 563q72 0 129 -46.5t75 -124.5l-125 -5q-8 31 -29.5 49t-49.5 18q-44 0 -70.5 -29.5t-26.5 -74.5q0 -46 26.5 -76t70.5 -30q28 0 49.5 18t29.5 49l125 -5q-18 -77 -75 -124t-129 -47q-91 0 -154.5 61t-63.5 154t62 153t156 60zM412 720q159 0 267 -105.5t108 -266.5
q0 -162 -108 -267t-267 -105t-267 105t-108 267q0 161 108 266.5t267 105.5zM412 59q122 0 199 81.5t77 207.5q0 125 -77 206t-199 81t-199 -81t-77 -206q0 -126 77 -207.5t199 -81.5z" />
    <glyph glyph-name="ordfeminine" unicode="&#xaa;" horiz-adv-x="470" 
d="M220 395q25 0 41.5 12.5t16.5 38.5v20q-7 -7 -26 -7h-32q-40 0 -40 -31q0 -15 11.5 -24t28.5 -9zM104 559l-58 102q80 51 190 51q87 0 133.5 -39t46.5 -104v-263h-138v30q-35 -40 -101 -40t-102.5 37t-36.5 89q0 58 38.5 90t105.5 32h70q26 0 26 22v2q0 12 -13.5 20
t-38.5 8t-61.5 -11.5t-60.5 -25.5z" />
    <glyph glyph-name="guillemotleft" unicode="&#xab;" horiz-adv-x="598" 
d="M159 46l-130 192l130 191h165l-118 -191l118 -192h-165zM397 46l-130 192l130 191h165l-118 -191l118 -192h-165z" />
    <glyph glyph-name="logicalnot" unicode="&#xac;" horiz-adv-x="520" 
d="M23 388v147h446v-357h-156v210h-290z" />
    <glyph glyph-name="uni00AD" unicode="&#xad;" horiz-adv-x="250" 
 />
    <glyph glyph-name="registered" unicode="&#xae;" horiz-adv-x="824" 
d="M477 153l-72 131h-37v-131h-117v407h175q74 0 116.5 -35t42.5 -94q0 -35 -19 -68t-60 -51l107 -159h-136zM463 424q0 36 -51 36h-44v-75h44q23 0 37 10t14 29zM412 720q159 0 267 -105.5t108 -266.5q0 -162 -108 -267t-267 -105t-267 105t-108 267q0 161 108 266.5
t267 105.5zM412 59q122 0 199 81.5t77 207.5q0 125 -77 206t-199 81t-199 -81t-77 -206q0 -126 77 -207.5t199 -81.5z" />
    <glyph glyph-name="macron" unicode="&#xaf;" horiz-adv-x="396" 
d="M24 525v138h348v-138h-348z" />
    <glyph glyph-name="degree" unicode="&#xb0;" horiz-adv-x="414" 
d="M33 538q0 72 51 123t123 51t123 -51t51 -123t-51 -123t-123 -51t-123 51t-51 123zM137 538q0 -31 20.5 -53t49.5 -22t49.5 22t20.5 53q0 30 -20.5 52.5t-49.5 22.5t-49.5 -22.5t-20.5 -52.5z" />
    <glyph glyph-name="plusminus" unicode="&#xb1;" horiz-adv-x="520" 
d="M338 477h145v-147h-145v-150h-156v150h-145v147h145v150h156v-150zM483 147v-147h-446v147h446z" />
    <glyph glyph-name="twosuperior" unicode="&#xb2;" 
d="M58 260v110q88 61 138 103q33 28 43.5 46.5t10.5 38.5q0 19 -12 30t-29 11t-29 -10.5t-12 -27.5t7 -35l-109 -15q-16 37 -16 68q0 51 43.5 89.5t115.5 38.5q79 0 121.5 -42t42.5 -97t-30.5 -94.5t-100.5 -88.5l-27 -19h159v-106h-316z" />
    <glyph glyph-name="threesuperior" unicode="&#xb3;" 
d="M209 253q-76 0 -115.5 37t-39.5 100v19h122v-16q0 -42 32 -42q35 0 35 45q0 50 -51 50q-26 0 -48 -5v97l83 58h-155v104h282v-112l-93 -67q46 -5 77 -39t31 -83q0 -68 -43 -107t-117 -39z" />
    <glyph glyph-name="acute" unicode="&#xb4;" horiz-adv-x="288" 
d="M19 523l41 177h209l-98 -177h-152z" />
    <glyph glyph-name="mu" unicode="&#xb5;" horiz-adv-x="550" 
d="M298 -12q-24 0 -53.5 9t-39.5 21v-194h-144v641h160v-258q0 -38 20 -55t49 -17t49.5 17t20.5 55v258h160v-292q0 -79 -57 -132t-165 -53z" />
    <glyph glyph-name="mu" unicode="&#x3bc;" horiz-adv-x="550" 
d="M298 -12q-24 0 -53.5 9t-39.5 21v-194h-144v641h160v-258q0 -38 20 -55t49 -17t49.5 17t20.5 55v258h160v-292q0 -79 -57 -132t-165 -53z" />
    <glyph glyph-name="paragraph" unicode="&#xb6;" horiz-adv-x="684" 
d="M32 497q0 92 57.5 147.5t151.5 55.5h365v-700h-172v551h-64v-551h-172v309q-70 5 -118 56.5t-48 131.5z" />
    <glyph glyph-name="periodcentered" unicode="&#xb7;" horiz-adv-x="281" 
d="M40 358q0 42 29.5 71.5t70.5 29.5q42 0 71.5 -29.5t29.5 -71.5q0 -41 -29.5 -70.5t-71.5 -29.5q-41 0 -70.5 29.5t-29.5 70.5z" />
    <glyph glyph-name="cedilla" unicode="&#xb8;" horiz-adv-x="321" 
d="M48 -142l56 161h179l-89 -161h-146z" />
    <glyph glyph-name="onesuperior" unicode="&#xb9;" 
d="M87 596v104h195v-336h84v-104h-287v104h83v232h-75z" />
    <glyph glyph-name="ordmasculine" unicode="&#xba;" horiz-adv-x="487" 
d="M244 296q-89 0 -151 59.5t-62 149.5t61.5 148.5t151.5 58.5t151 -58.5t61 -148.5t-61.5 -149.5t-150.5 -59.5zM244 586q-33 0 -54 -23t-21 -58q0 -36 21 -59.5t54 -23.5q32 0 52.5 23.5t20.5 59.5q0 35 -20.5 58t-52.5 23z" />
    <glyph glyph-name="guillemotright" unicode="&#xbb;" horiz-adv-x="598" 
d="M331 238l-130 -192h-165l118 192l-118 191h165zM569 238l-130 -192h-165l118 192l-118 191h165z" />
    <glyph glyph-name="onequarter" unicode="&#xbc;" horiz-adv-x="1080" 
d="M87 596v104h195v-336h84v-104h-287v104h83v232h-75zM678 92v122l148 226h141v-247h52v-101h-52v-92h-114v92h-175zM851 314l-76 -121h78v121h-2zM856 741l58 -55l-673 -723l-58 55z" />
    <glyph glyph-name="onehalf" unicode="&#xbd;" horiz-adv-x="1080" 
d="M87 596v104h195v-336h84v-104h-287v104h83v232h-75zM695 0v110q88 61 138 103q33 28 43.5 46.5t10.5 38.5q0 19 -12 30t-29 11t-29 -10.5t-12 -27.5t7 -35l-109 -15q-16 37 -16 68q0 51 43.5 89.5t115.5 38.5q79 0 121.5 -42t42.5 -97t-30.5 -94.5t-100.5 -88.5l-27 -19
h159v-106h-316zM856 741l58 -55l-673 -723l-58 55z" />
    <glyph glyph-name="threequarters" unicode="&#xbe;" horiz-adv-x="1080" 
d="M238 253q-76 0 -115.5 37t-39.5 100v19h122v-16q0 -42 32 -42q35 0 35 45q0 50 -51 50q-25 0 -48 -5v97l83 58h-155v104h282v-112l-93 -67q46 -5 77 -39t31 -83q0 -68 -43 -107t-117 -39zM856 741l58 -55l-673 -723l-58 55zM678 92v122l148 226h141v-247h52v-101h-52v-92
h-114v92h-175zM851 314l-76 -121h78v121h-2z" />
    <glyph glyph-name="questiondown" unicode="&#xbf;" horiz-adv-x="520" 
d="M29 -35q0 39 11 75t47.5 73.5t95.5 52.5l5 83h155l11 -186l-40 -2q-55 -2 -80.5 -27.5t-25.5 -58.5q0 -29 15.5 -46.5t42.5 -17.5q29 0 45 19t16 43v7h165v-19q0 -96 -62.5 -152t-165.5 -56q-100 0 -167.5 60t-67.5 152zM365 377q0 -42 -29.5 -71.5t-70.5 -29.5
q-42 0 -71.5 29.5t-29.5 71.5q0 41 29.5 70.5t71.5 29.5q41 0 70.5 -29.5t29.5 -70.5z" />
    <glyph glyph-name="Agrave" unicode="&#xc0;" horiz-adv-x="655" 
d="M428 700l226 -700h-185l-49 163h-189l-46 -163h-181l220 700h204zM380 312l-54 194h-4l-54 -194h112zM356 935l41 -177h-153l-97 177h209z" />
    <glyph glyph-name="Aacute" unicode="&#xc1;" horiz-adv-x="655" 
d="M428 700l226 -700h-185l-49 163h-189l-46 -163h-181l220 700h204zM380 312l-54 194h-4l-54 -194h112zM254 758l41 177h209l-98 -177h-152z" />
    <glyph glyph-name="Acircumflex" unicode="&#xc2;" horiz-adv-x="655" 
d="M428 700l226 -700h-185l-49 163h-189l-46 -163h-181l220 700h204zM380 312l-54 194h-4l-54 -194h112zM131 758l108 177h176l109 -177h-170l-28 58l-25 -58h-170z" />
    <glyph glyph-name="Atilde" unicode="&#xc3;" horiz-adv-x="655" 
d="M428 700l226 -700h-185l-49 163h-189l-46 -163h-181l220 700h204zM380 312l-54 194h-4l-54 -194h112zM141 740v17q0 150 117 150q18 0 60.5 -15.5t55.5 -15.5q19 0 19 22v6h120v-16q0 -150 -117 -150q-18 0 -60.5 15t-55.5 15q-19 0 -19 -22v-6h-120z" />
    <glyph glyph-name="Adieresis" unicode="&#xc4;" horiz-adv-x="655" 
d="M428 700l226 -700h-185l-49 163h-189l-46 -163h-181l220 700h204zM380 312l-54 194h-4l-54 -194h112zM134 829q0 37 26.5 64t64.5 27q36 0 63.5 -27t27.5 -64q0 -36 -27.5 -62.5t-63.5 -26.5q-38 0 -64.5 26.5t-26.5 62.5zM342 829q0 37 26.5 64t63.5 27q36 0 63.5 -27
t27.5 -64q0 -36 -27.5 -62.5t-63.5 -26.5q-37 0 -63.5 26.5t-26.5 62.5z" />
    <glyph glyph-name="Aring" unicode="&#xc5;" horiz-adv-x="655" 
d="M428 700l226 -700h-185l-49 163h-189l-46 -163h-181l220 700h204zM380 312l-54 194h-4l-54 -194h112zM324 729q-59 0 -98.5 37.5t-39.5 92.5q0 57 39.5 94t98.5 37t98.5 -37t39.5 -94q0 -55 -39.5 -92.5t-98.5 -37.5zM324 811q19 0 32 14t13 34q0 21 -13 35t-32 14
t-32 -14t-13 -35q0 -20 13 -34t32 -14z" />
    <glyph glyph-name="AE" unicode="&#xc6;" horiz-adv-x="1008" 
d="M425 175h-163l-78 -175h-204l341 700h651v-149h-375v-120h201v-148h-201v-134h375v-149h-547v175zM425 323v221h-1l-95 -221h96z" />
    <glyph glyph-name="Ccedilla" unicode="&#xc7;" horiz-adv-x="770" 
d="M251 -142l49 141q-122 29 -197.5 124t-75.5 227q0 157 105.5 259.5t261.5 102.5q125 0 227.5 -74t130.5 -203h-195q-16 54 -60 84.5t-103 30.5q-83 0 -134 -56.5t-51 -143.5t51 -143.5t134 -56.5q59 0 103 30.5t60 84.5h195q-24 -108 -100.5 -178t-178.5 -90l-76 -139
h-146z" />
    <glyph glyph-name="Egrave" unicode="&#xc8;" horiz-adv-x="648" 
d="M612 700v-149h-375v-120h201v-148h-201v-134h375v-149h-547v700h547zM376 935l41 -177h-153l-97 177h209z" />
    <glyph glyph-name="Eacute" unicode="&#xc9;" horiz-adv-x="648" 
d="M612 700v-149h-375v-120h201v-148h-201v-134h375v-149h-547v700h547zM260 758l41 177h209l-98 -177h-152z" />
    <glyph glyph-name="Ecircumflex" unicode="&#xca;" horiz-adv-x="648" 
d="M612 700v-149h-375v-120h201v-148h-201v-134h375v-149h-547v700h547zM147 758l108 177h176l109 -177h-170l-28 58l-25 -58h-170z" />
    <glyph glyph-name="Edieresis" unicode="&#xcb;" horiz-adv-x="648" 
d="M612 700v-149h-375v-120h201v-148h-201v-134h375v-149h-547v700h547zM134 829q0 37 26.5 64t64.5 27q36 0 63.5 -27t27.5 -64q0 -36 -27.5 -62.5t-63.5 -26.5q-38 0 -64.5 26.5t-26.5 62.5zM342 829q0 37 26.5 64t63.5 27q36 0 63.5 -27t27.5 -64q0 -36 -27.5 -62.5
t-63.5 -26.5q-37 0 -63.5 26.5t-26.5 62.5z" />
    <glyph glyph-name="Igrave" unicode="&#xcc;" horiz-adv-x="302" 
d="M65 0v700h172v-700h-172zM180 935l41 -177h-153l-97 177h209z" />
    <glyph glyph-name="Iacute" unicode="&#xcd;" horiz-adv-x="302" 
d="M65 0v700h172v-700h-172zM79 758l41 177h209l-98 -177h-152z" />
    <glyph glyph-name="Icircumflex" unicode="&#xce;" horiz-adv-x="302" 
d="M65 0v700h172v-700h-172zM-45 758l108 177h176l109 -177h-170l-28 58l-25 -58h-170z" />
    <glyph glyph-name="Idieresis" unicode="&#xcf;" horiz-adv-x="302" 
d="M65 0v700h172v-700h-172zM-43 829q0 37 26.5 64t64.5 27q36 0 63.5 -27t27.5 -64q0 -36 -27.5 -62.5t-63.5 -26.5q-38 0 -64.5 26.5t-26.5 62.5zM165 829q0 37 26.5 64t63.5 27q36 0 63.5 -27t27.5 -64q0 -36 -27.5 -62.5t-63.5 -26.5q-37 0 -63.5 26.5t-26.5 62.5z" />
    <glyph glyph-name="Eth" unicode="&#xd0;" horiz-adv-x="733" 
d="M5 283v148h69v269h265q170 0 268 -96t98 -254t-98 -254t-268 -96h-265v283h-69zM344 551h-98v-120h165v-148h-165v-134h98q76 0 130.5 52t54.5 149q0 96 -54.5 148.5t-130.5 52.5z" />
    <glyph glyph-name="Ntilde" unicode="&#xd1;" horiz-adv-x="719" 
d="M235 421v-421h-170v700h214l205 -415v415h170v-700h-200zM173 740v17q0 150 117 150q18 0 60.5 -15.5t55.5 -15.5q19 0 19 22v6h120v-16q0 -150 -117 -150q-18 0 -60.5 15t-55.5 15q-19 0 -19 -22v-6h-120z" />
    <glyph glyph-name="Ograve" unicode="&#xd2;" horiz-adv-x="787" 
d="M394 712q154 0 260.5 -103t106.5 -259t-106.5 -259t-260.5 -103q-155 0 -261.5 103t-106.5 259t106.5 259t261.5 103zM394 150q83 0 134 56.5t51 143.5t-51 143.5t-134 56.5t-134.5 -56.5t-51.5 -143.5t51.5 -143.5t134.5 -56.5zM424 935l41 -177h-153l-97 177h209z" />
    <glyph glyph-name="Oacute" unicode="&#xd3;" horiz-adv-x="787" 
d="M394 712q154 0 260.5 -103t106.5 -259t-106.5 -259t-260.5 -103q-155 0 -261.5 103t-106.5 259t106.5 259t261.5 103zM394 150q83 0 134 56.5t51 143.5t-51 143.5t-134 56.5t-134.5 -56.5t-51.5 -143.5t51.5 -143.5t134.5 -56.5zM323 758l41 177h209l-98 -177h-152z" />
    <glyph glyph-name="Ocircumflex" unicode="&#xd4;" horiz-adv-x="787" 
d="M394 712q154 0 260.5 -103t106.5 -259t-106.5 -259t-260.5 -103q-155 0 -261.5 103t-106.5 259t106.5 259t261.5 103zM394 150q83 0 134 56.5t51 143.5t-51 143.5t-134 56.5t-134.5 -56.5t-51.5 -143.5t51.5 -143.5t134.5 -56.5zM197 758l108 177h176l109 -177h-170
l-28 58l-25 -58h-170z" />
    <glyph glyph-name="Otilde" unicode="&#xd5;" horiz-adv-x="787" 
d="M394 712q154 0 260.5 -103t106.5 -259t-106.5 -259t-260.5 -103q-155 0 -261.5 103t-106.5 259t106.5 259t261.5 103zM394 150q83 0 134 56.5t51 143.5t-51 143.5t-134 56.5t-134.5 -56.5t-51.5 -143.5t51.5 -143.5t134.5 -56.5zM207 740v17q0 150 117 150
q18 0 60.5 -15.5t55.5 -15.5q19 0 19 22v6h120v-16q0 -150 -117 -150q-18 0 -60.5 15t-55.5 15q-19 0 -19 -22v-6h-120z" />
    <glyph glyph-name="Odieresis" unicode="&#xd6;" horiz-adv-x="787" 
d="M394 712q154 0 260.5 -103t106.5 -259t-106.5 -259t-260.5 -103q-155 0 -261.5 103t-106.5 259t106.5 259t261.5 103zM394 150q83 0 134 56.5t51 143.5t-51 143.5t-134 56.5t-134.5 -56.5t-51.5 -143.5t51.5 -143.5t134.5 -56.5zM199 829q0 37 26.5 64t64.5 27
q36 0 63.5 -27t27.5 -64q0 -36 -27.5 -62.5t-63.5 -26.5q-38 0 -64.5 26.5t-26.5 62.5zM407 829q0 37 26.5 64t63.5 27q36 0 63.5 -27t27.5 -64q0 -36 -27.5 -62.5t-63.5 -26.5q-37 0 -63.5 26.5t-26.5 62.5z" />
    <glyph glyph-name="multiply" unicode="&#xd7;" horiz-adv-x="550" 
d="M275 457l128 128l109 -105l-131 -129l131 -131l-110 -103l-127 128l-127 -128l-110 103l131 131l-131 129l109 105z" />
    <glyph glyph-name="Oslash" unicode="&#xd8;" horiz-adv-x="789" 
d="M395 712q100 0 183 -46l38 46h161l-103 -123q88 -99 88 -239q0 -156 -106.5 -259t-260.5 -103q-102 0 -185 46l-39 -46h-161l104 124q-87 100 -87 238q0 156 106.5 259t261.5 103zM395 150q83 0 134 56.5t51 143.5q0 54 -22 100l-239 -285q33 -15 76 -15zM209 350
q0 -56 21 -99l238 285q-34 14 -73 14q-83 0 -134.5 -56.5t-51.5 -143.5z" />
    <glyph glyph-name="Ugrave" unicode="&#xd9;" horiz-adv-x="665" 
d="M438 260v440h169v-465q0 -107 -72.5 -177t-202.5 -70t-202 70t-72 177v465h171v-440q0 -55 26.5 -87t78.5 -32t78 32t26 87zM364 935l41 -177h-153l-97 177h209z" />
    <glyph glyph-name="Uacute" unicode="&#xda;" horiz-adv-x="665" 
d="M438 260v440h169v-465q0 -107 -72.5 -177t-202.5 -70t-202 70t-72 177v465h171v-440q0 -55 26.5 -87t78.5 -32t78 32t26 87zM257 758l41 177h209l-98 -177h-152z" />
    <glyph glyph-name="Ucircumflex" unicode="&#xdb;" horiz-adv-x="665" 
d="M438 260v440h169v-465q0 -107 -72.5 -177t-202.5 -70t-202 70t-72 177v465h171v-440q0 -55 26.5 -87t78.5 -32t78 32t26 87zM136 758l108 177h176l109 -177h-170l-28 58l-25 -58h-170z" />
    <glyph glyph-name="Udieresis" unicode="&#xdc;" horiz-adv-x="665" 
d="M438 260v440h169v-465q0 -107 -72.5 -177t-202.5 -70t-202 70t-72 177v465h171v-440q0 -55 26.5 -87t78.5 -32t78 32t26 87zM138 829q0 37 26.5 64t64.5 27q36 0 63.5 -27t27.5 -64q0 -36 -27.5 -62.5t-63.5 -26.5q-38 0 -64.5 26.5t-26.5 62.5zM346 829q0 37 26.5 64
t63.5 27q36 0 63.5 -27t27.5 -64q0 -36 -27.5 -62.5t-63.5 -26.5q-37 0 -63.5 26.5t-26.5 62.5z" />
    <glyph glyph-name="Yacute" unicode="&#xdd;" horiz-adv-x="687" 
d="M259 281l-265 419h211l139 -235h7l137 235h203l-261 -416v-284h-171v281zM270 758l41 177h209l-98 -177h-152z" />
    <glyph glyph-name="Thorn" unicode="&#xde;" horiz-adv-x="600" 
d="M236 115v-115h-171v700h171v-100h82q126 0 195 -68t69 -172q0 -105 -69 -175t-195 -70h-82zM284 451h-48v-187h48q122 0 122 96q0 91 -122 91z" />
    <glyph glyph-name="germandbls" unicode="&#xdf;" horiz-adv-x="527" 
d="M50 498q0 104 63 159t158 55q96 0 154.5 -49.5t58.5 -126.5q0 -44 -21 -82t-42 -62.5t-21 -35.5q0 -13 17.5 -35.5t38 -44.5t38 -59t17.5 -76q0 -67 -47 -110t-124 -43q-51 0 -103 17l20 117q16 -10 40 -10q23 0 34.5 11.5t11.5 28.5q0 23 -26.5 52.5t-53 64.5t-26.5 70
q0 42 41.5 99.5t41.5 82.5q0 19 -14.5 33.5t-35.5 14.5q-24 0 -41.5 -19.5t-17.5 -55.5v-494h-161v498z" />
    <glyph glyph-name="agrave" unicode="&#xe0;" horiz-adv-x="506" 
d="M234 98q29 0 48.5 17t19.5 49v31q-12 -14 -34 -14h-36q-23 0 -36.5 -10.5t-13.5 -28.5q0 -20 15.5 -32t36.5 -12zM95 301l-55 122q91 54 211 54q102 0 156.5 -45.5t54.5 -121.5v-310h-160v40q-38 -52 -121 -52q-77 0 -120 43t-43 104q0 68 45.5 105.5t123.5 37.5h78
q37 0 37 28v2q0 15 -15.5 24.5t-45.5 9.5q-31 0 -75.5 -12.5t-70.5 -28.5zM277 700l41 -177h-153l-97 177h209z" />
    <glyph glyph-name="aacute" unicode="&#xe1;" horiz-adv-x="506" 
d="M234 98q29 0 48.5 17t19.5 49v31q-12 -14 -34 -14h-36q-23 0 -36.5 -10.5t-13.5 -28.5q0 -20 15.5 -32t36.5 -12zM95 301l-55 122q91 54 211 54q102 0 156.5 -45.5t54.5 -121.5v-310h-160v40q-38 -52 -121 -52q-77 0 -120 43t-43 104q0 68 45.5 105.5t123.5 37.5h78
q37 0 37 28v2q0 15 -15.5 24.5t-45.5 9.5q-31 0 -75.5 -12.5t-70.5 -28.5zM175 523l41 177h209l-98 -177h-152z" />
    <glyph glyph-name="acircumflex" unicode="&#xe2;" horiz-adv-x="506" 
d="M234 98q29 0 48.5 17t19.5 49v31q-12 -14 -34 -14h-36q-23 0 -36.5 -10.5t-13.5 -28.5q0 -20 15.5 -32t36.5 -12zM95 301l-55 122q91 54 211 54q102 0 156.5 -45.5t54.5 -121.5v-310h-160v40q-38 -52 -121 -52q-77 0 -120 43t-43 104q0 68 45.5 105.5t123.5 37.5h78
q37 0 37 28v2q0 15 -15.5 24.5t-45.5 9.5q-31 0 -75.5 -12.5t-70.5 -28.5zM57 523l108 177h176l109 -177h-170l-28 58l-25 -58h-170z" />
    <glyph glyph-name="atilde" unicode="&#xe3;" horiz-adv-x="506" 
d="M234 98q29 0 48.5 17t19.5 49v31q-12 -14 -34 -14h-36q-23 0 -36.5 -10.5t-13.5 -28.5q0 -20 15.5 -32t36.5 -12zM95 301l-55 122q91 54 211 54q102 0 156.5 -45.5t54.5 -121.5v-310h-160v40q-38 -52 -121 -52q-77 0 -120 43t-43 104q0 68 45.5 105.5t123.5 37.5h78
q37 0 37 28v2q0 15 -15.5 24.5t-45.5 9.5q-31 0 -75.5 -12.5t-70.5 -28.5zM59 505v17q0 150 117 150q18 0 60.5 -15.5t55.5 -15.5q19 0 19 22v6h120v-16q0 -150 -117 -150q-18 0 -60.5 15t-55.5 15q-19 0 -19 -22v-6h-120z" />
    <glyph glyph-name="adieresis" unicode="&#xe4;" horiz-adv-x="506" 
d="M234 98q29 0 48.5 17t19.5 49v31q-12 -14 -34 -14h-36q-23 0 -36.5 -10.5t-13.5 -28.5q0 -20 15.5 -32t36.5 -12zM95 301l-55 122q91 54 211 54q102 0 156.5 -45.5t54.5 -121.5v-310h-160v40q-38 -52 -121 -52q-77 0 -120 43t-43 104q0 68 45.5 105.5t123.5 37.5h78
q37 0 37 28v2q0 15 -15.5 24.5t-45.5 9.5q-31 0 -75.5 -12.5t-70.5 -28.5zM50 594q0 37 26.5 64t64.5 27q36 0 63.5 -27t27.5 -64q0 -36 -27.5 -62.5t-63.5 -26.5q-38 0 -64.5 26.5t-26.5 62.5zM258 594q0 37 26.5 64t63.5 27q36 0 63.5 -27t27.5 -64q0 -36 -27.5 -62.5
t-63.5 -26.5q-37 0 -63.5 26.5t-26.5 62.5z" />
    <glyph glyph-name="aring" unicode="&#xe5;" horiz-adv-x="506" 
d="M234 98q29 0 48.5 17t19.5 49v31q-12 -14 -34 -14h-36q-23 0 -36.5 -10.5t-13.5 -28.5q0 -20 15.5 -32t36.5 -12zM95 301l-55 122q91 54 211 54q102 0 156.5 -45.5t54.5 -121.5v-310h-160v40q-38 -52 -121 -52q-77 0 -120 43t-43 104q0 68 45.5 105.5t123.5 37.5h78
q37 0 37 28v2q0 15 -15.5 24.5t-45.5 9.5q-31 0 -75.5 -12.5t-70.5 -28.5zM245 494q-59 0 -98.5 37.5t-39.5 92.5q0 57 39.5 94t98.5 37t98.5 -37t39.5 -94q0 -55 -39.5 -92.5t-98.5 -37.5zM245 576q19 0 32 14t13 34q0 21 -13 35t-32 14t-32 -14t-13 -35q0 -20 13 -34
t32 -14z" />
    <glyph glyph-name="ae" unicode="&#xe6;" horiz-adv-x="817" 
d="M552 349q-32 0 -54.5 -17t-28.5 -44h166q-6 27 -28.5 44t-54.5 17zM231 100q29 0 49.5 19.5t20.5 51.5v21q-8 -9 -32 -9h-38q-50 0 -50 -37q0 -20 14.5 -33t35.5 -13zM237 345q-31 0 -74.5 -12.5t-70.5 -28.5l-53 119q36 21 96.5 37.5t116.5 16.5q104 0 150 -49
q62 49 150 49q107 0 178.5 -70t71.5 -210v-9h-328q6 -26 28.5 -45t55.5 -19q25 0 46.5 11t30.5 31l158 -26q-60 -152 -239 -152q-111 0 -182 75q-17 -29 -59.5 -52t-104.5 -23q-93 0 -142 46.5t-49 107.5t40.5 101t121.5 40h89q33 0 33 23v4q0 15 -16.5 25t-47.5 10z" />
    <glyph glyph-name="ccedilla" unicode="&#xe7;" horiz-adv-x="535" 
d="M130 -142l51 146q-71 27 -114.5 88t-43.5 141q0 105 72.5 174.5t177.5 69.5q92 0 160 -51t86 -137l-158 -31q-8 34 -31 54t-56 20q-40 0 -65.5 -28t-25.5 -71t25.5 -71.5t65.5 -28.5q33 0 56 20t31 54l158 -31q-13 -65 -57.5 -111.5t-107.5 -64.5l-78 -142h-146z" />
    <glyph glyph-name="egrave" unicode="&#xe8;" horiz-adv-x="533" 
d="M518 197v-9h-328q6 -26 28.5 -45t55.5 -19q25 0 46.5 11t30.5 31l158 -26q-60 -152 -239 -152q-106 0 -177 69.5t-71 175.5t70 175t176 69q107 0 178.5 -70t71.5 -210zM268 349q-32 0 -54.5 -17t-28.5 -44h166q-6 27 -28.5 44t-54.5 17zM304 700l41 -177h-153l-97 177
h209z" />
    <glyph glyph-name="eacute" unicode="&#xe9;" horiz-adv-x="533" 
d="M518 197v-9h-328q6 -26 28.5 -45t55.5 -19q25 0 46.5 11t30.5 31l158 -26q-60 -152 -239 -152q-106 0 -177 69.5t-71 175.5t70 175t176 69q107 0 178.5 -70t71.5 -210zM268 349q-32 0 -54.5 -17t-28.5 -44h166q-6 27 -28.5 44t-54.5 17zM200 523l41 177h209l-98 -177
h-152z" />
    <glyph glyph-name="ecircumflex" unicode="&#xea;" horiz-adv-x="533" 
d="M518 197v-9h-328q6 -26 28.5 -45t55.5 -19q25 0 46.5 11t30.5 31l158 -26q-60 -152 -239 -152q-106 0 -177 69.5t-71 175.5t70 175t176 69q107 0 178.5 -70t71.5 -210zM268 349q-32 0 -54.5 -17t-28.5 -44h166q-6 27 -28.5 44t-54.5 17zM76 523l108 177h176l109 -177
h-170l-28 58l-25 -58h-170z" />
    <glyph glyph-name="edieresis" unicode="&#xeb;" horiz-adv-x="533" 
d="M518 197v-9h-328q6 -26 28.5 -45t55.5 -19q25 0 46.5 11t30.5 31l158 -26q-60 -152 -239 -152q-106 0 -177 69.5t-71 175.5t70 175t176 69q107 0 178.5 -70t71.5 -210zM268 349q-32 0 -54.5 -17t-28.5 -44h166q-6 27 -28.5 44t-54.5 17zM78 594q0 37 26.5 64t64.5 27
q36 0 63.5 -27t27.5 -64q0 -36 -27.5 -62.5t-63.5 -26.5q-38 0 -64.5 26.5t-26.5 62.5zM286 594q0 37 26.5 64t63.5 27q36 0 63.5 -27t27.5 -64q0 -36 -27.5 -62.5t-63.5 -26.5q-37 0 -63.5 26.5t-26.5 62.5z" />
    <glyph glyph-name="igrave" unicode="&#xec;" horiz-adv-x="294" 
d="M244 465v-465h-160v328h-61v137h221zM190 700l41 -177h-153l-97 177h209z" />
    <glyph glyph-name="iacute" unicode="&#xed;" horiz-adv-x="294" 
d="M244 465v-465h-160v328h-61v137h221zM79 523l41 177h209l-98 -177h-152z" />
    <glyph glyph-name="icircumflex" unicode="&#xee;" horiz-adv-x="294" 
d="M244 465v-465h-160v328h-61v137h221zM-49 523l108 177h176l109 -177h-170l-28 58l-25 -58h-170z" />
    <glyph glyph-name="idieresis" unicode="&#xef;" horiz-adv-x="294" 
d="M244 465v-465h-160v328h-61v137h221zM-47 594q0 37 26.5 64t64.5 27q36 0 63.5 -27t27.5 -64q0 -36 -27.5 -62.5t-63.5 -26.5q-38 0 -64.5 26.5t-26.5 62.5zM161 594q0 37 26.5 64t63.5 27q36 0 63.5 -27t27.5 -64q0 -36 -27.5 -62.5t-63.5 -26.5q-37 0 -63.5 26.5
t-26.5 62.5z" />
    <glyph glyph-name="eth" unicode="&#xf0;" horiz-adv-x="558" 
d="M327 700q3 -3 11 -12.5t12 -14.5l51 27l34 -60l-40 -23q138 -184 138 -350q0 -50 -15.5 -98t-45.5 -89.5t-81.5 -66.5t-116.5 -25q-106 0 -179 69t-73 174q0 104 62 170.5t159 66.5q58 0 94 -32l3 5q-54 68 -82 100l-57 -32l-34 65l43 23q-47 51 -99 103h216zM276 327
q-38 0 -62 -26.5t-24 -67.5t24.5 -68t61.5 -27t61.5 27t24.5 68t-24 67.5t-62 26.5z" />
    <glyph glyph-name="ntilde" unicode="&#xf1;" horiz-adv-x="554" 
d="M207 465v-10l-4 -42q50 64 133 64q73 0 123 -45t50 -125v-307h-160v255q0 36 -19.5 53t-47.5 17q-45 0 -72 -38v-287h-160v465h157zM90 505v17q0 150 117 150q18 0 60.5 -15.5t55.5 -15.5q19 0 19 22v6h120v-16q0 -150 -117 -150q-18 0 -60.5 15t-55.5 15q-19 0 -19 -22
v-6h-120z" />
    <glyph glyph-name="ograve" unicode="&#xf2;" horiz-adv-x="542" 
d="M271 -12q-105 0 -177.5 70t-72.5 175t72.5 174.5t177.5 69.5t177.5 -69.5t72.5 -174.5t-72.5 -175t-177.5 -70zM271 332q-40 0 -65 -27.5t-25 -71.5q0 -43 25.5 -71.5t64.5 -28.5t64.5 28.5t25.5 71.5t-25.5 71t-64.5 28zM308 700l41 -177h-153l-97 177h209z" />
    <glyph glyph-name="oacute" unicode="&#xf3;" horiz-adv-x="542" 
d="M271 -12q-105 0 -177.5 70t-72.5 175t72.5 174.5t177.5 69.5t177.5 -69.5t72.5 -174.5t-72.5 -175t-177.5 -70zM271 332q-40 0 -65 -27.5t-25 -71.5q0 -43 25.5 -71.5t64.5 -28.5t64.5 28.5t25.5 71.5t-25.5 71t-64.5 28zM194 523l41 177h209l-98 -177h-152z" />
    <glyph glyph-name="ocircumflex" unicode="&#xf4;" horiz-adv-x="542" 
d="M271 -12q-105 0 -177.5 70t-72.5 175t72.5 174.5t177.5 69.5t177.5 -69.5t72.5 -174.5t-72.5 -175t-177.5 -70zM271 332q-40 0 -65 -27.5t-25 -71.5q0 -43 25.5 -71.5t64.5 -28.5t64.5 28.5t25.5 71.5t-25.5 71t-64.5 28zM74 523l108 177h176l109 -177h-170l-28 58
l-25 -58h-170z" />
    <glyph glyph-name="otilde" unicode="&#xf5;" horiz-adv-x="542" 
d="M271 -12q-105 0 -177.5 70t-72.5 175t72.5 174.5t177.5 69.5t177.5 -69.5t72.5 -174.5t-72.5 -175t-177.5 -70zM271 332q-40 0 -65 -27.5t-25 -71.5q0 -43 25.5 -71.5t64.5 -28.5t64.5 28.5t25.5 71.5t-25.5 71t-64.5 28zM85 505v17q0 150 117 150q18 0 60.5 -15.5
t55.5 -15.5q19 0 19 22v6h120v-16q0 -150 -117 -150q-18 0 -60.5 15t-55.5 15q-19 0 -19 -22v-6h-120z" />
    <glyph glyph-name="odieresis" unicode="&#xf6;" horiz-adv-x="542" 
d="M271 -12q-105 0 -177.5 70t-72.5 175t72.5 174.5t177.5 69.5t177.5 -69.5t72.5 -174.5t-72.5 -175t-177.5 -70zM271 332q-40 0 -65 -27.5t-25 -71.5q0 -43 25.5 -71.5t64.5 -28.5t64.5 28.5t25.5 71.5t-25.5 71t-64.5 28zM76 594q0 37 26.5 64t64.5 27q36 0 63.5 -27
t27.5 -64q0 -36 -27.5 -62.5t-63.5 -26.5q-38 0 -64.5 26.5t-26.5 62.5zM284 594q0 37 26.5 64t63.5 27q36 0 63.5 -27t27.5 -64q0 -36 -27.5 -62.5t-63.5 -26.5q-37 0 -63.5 26.5t-26.5 62.5z" />
    <glyph glyph-name="divide" unicode="&#xf7;" horiz-adv-x="520" 
d="M159 162q0 42 29.5 71t70.5 29q42 0 71.5 -29t29.5 -71t-29.5 -71t-71.5 -29q-41 0 -70.5 29t-29.5 71zM159 551q0 42 29.5 71.5t70.5 29.5q42 0 71.5 -29.5t29.5 -71.5q0 -41 -29.5 -70.5t-71.5 -29.5q-41 0 -70.5 29.5t-29.5 70.5zM37 283v147h446v-147h-446z" />
    <glyph glyph-name="oslash" unicode="&#xf8;" horiz-adv-x="542" 
d="M271 -12q-67 0 -124 30l-25 -30h-105l66 80q-62 68 -62 165q0 105 72.5 174.5t177.5 69.5q66 0 124 -30l25 30h105l-66 -80q62 -70 62 -164q0 -105 -72.5 -175t-177.5 -70zM271 332q-40 0 -65 -27.5t-25 -71.5q0 -21 6 -39l110 134q-11 4 -26 4zM361 233q0 21 -6 37
l-110 -133q11 -4 26 -4q39 0 64.5 28.5t25.5 71.5z" />
    <glyph glyph-name="ugrave" unicode="&#xf9;" horiz-adv-x="545" 
d="M273 -12q-108 0 -169 53.5t-61 131.5v292h160v-258q0 -38 20.5 -55t49.5 -17t49 17t20 55v258h160v-292q0 -78 -60 -131.5t-169 -53.5zM307 700l41 -177h-153l-97 177h209z" />
    <glyph glyph-name="uacute" unicode="&#xfa;" horiz-adv-x="545" 
d="M273 -12q-108 0 -169 53.5t-61 131.5v292h160v-258q0 -38 20.5 -55t49.5 -17t49 17t20 55v258h160v-292q0 -78 -60 -131.5t-169 -53.5zM193 523l41 177h209l-98 -177h-152z" />
    <glyph glyph-name="ucircumflex" unicode="&#xfb;" horiz-adv-x="545" 
d="M273 -12q-108 0 -169 53.5t-61 131.5v292h160v-258q0 -38 20.5 -55t49.5 -17t49 17t20 55v258h160v-292q0 -78 -60 -131.5t-169 -53.5zM76 523l108 177h176l109 -177h-170l-28 58l-25 -58h-170z" />
    <glyph glyph-name="udieresis" unicode="&#xfc;" horiz-adv-x="545" 
d="M273 -12q-108 0 -169 53.5t-61 131.5v292h160v-258q0 -38 20.5 -55t49.5 -17t49 17t20 55v258h160v-292q0 -78 -60 -131.5t-169 -53.5zM78 594q0 37 26.5 64t64.5 27q36 0 63.5 -27t27.5 -64q0 -36 -27.5 -62.5t-63.5 -26.5q-38 0 -64.5 26.5t-26.5 62.5zM286 594
q0 37 26.5 64t63.5 27q36 0 63.5 -27t27.5 -64q0 -36 -27.5 -62.5t-63.5 -26.5q-37 0 -63.5 26.5t-26.5 62.5z" />
    <glyph glyph-name="yacute" unicode="&#xfd;" horiz-adv-x="522" 
d="M187 -18l6 18h-35l-154 465h179l80 -296l79 296h175l-176 -536q-18 -54 -49.5 -79.5t-93.5 -25.5h-111v137h71q22 0 29 21zM189 523l41 177h209l-98 -177h-152z" />
    <glyph glyph-name="thorn" unicode="&#xfe;" horiz-adv-x="585" 
d="M301 332q-41 0 -67.5 -28.5t-26.5 -70.5q0 -41 26.5 -70.5t67.5 -29.5t68 29.5t27 70.5q0 42 -27 70.5t-68 28.5zM210 51v-216h-160v865h160v-244l-4 -42q40 63 138 63q92 0 155 -69.5t63 -174.5t-63 -175t-155 -70q-46 0 -81.5 18.5t-52.5 44.5z" />
    <glyph glyph-name="ydieresis" unicode="&#xff;" horiz-adv-x="522" 
d="M187 -18l6 18h-35l-154 465h179l80 -296l79 296h175l-176 -536q-18 -54 -49.5 -79.5t-93.5 -25.5h-111v137h71q22 0 29 21zM66 594q0 37 26.5 64t64.5 27q36 0 63.5 -27t27.5 -64q0 -36 -27.5 -62.5t-63.5 -26.5q-38 0 -64.5 26.5t-26.5 62.5zM274 594q0 37 26.5 64
t63.5 27q36 0 63.5 -27t27.5 -64q0 -36 -27.5 -62.5t-63.5 -26.5q-37 0 -63.5 26.5t-26.5 62.5z" />
    <glyph glyph-name="Amacron" unicode="&#x100;" horiz-adv-x="655" 
d="M428 700l226 -700h-185l-49 163h-189l-46 -163h-181l220 700h204zM380 312l-54 194h-4l-54 -194h112zM153 760v138h348v-138h-348z" />
    <glyph glyph-name="amacron" unicode="&#x101;" horiz-adv-x="506" 
d="M234 98q29 0 48.5 17t19.5 49v31q-12 -14 -34 -14h-36q-23 0 -36.5 -10.5t-13.5 -28.5q0 -20 15.5 -32t36.5 -12zM95 301l-55 122q91 54 211 54q102 0 156.5 -45.5t54.5 -121.5v-310h-160v40q-38 -52 -121 -52q-77 0 -120 43t-43 104q0 68 45.5 105.5t123.5 37.5h78
q37 0 37 28v2q0 15 -15.5 24.5t-45.5 9.5q-31 0 -75.5 -12.5t-70.5 -28.5zM79 525v138h348v-138h-348z" />
    <glyph glyph-name="Abreve" unicode="&#x102;" horiz-adv-x="655" 
d="M428 700l226 -700h-185l-49 163h-189l-46 -163h-181l220 700h204zM380 312l-54 194h-4l-54 -194h112zM365 893v42h126v-41q0 -72 -46 -110t-117 -38t-117.5 38t-46.5 110v41h126v-42q0 -15 10 -25t28 -10t27.5 10t9.5 25z" />
    <glyph glyph-name="abreve" unicode="&#x103;" horiz-adv-x="506" 
d="M234 98q29 0 48.5 17t19.5 49v31q-12 -14 -34 -14h-36q-23 0 -36.5 -10.5t-13.5 -28.5q0 -20 15.5 -32t36.5 -12zM95 301l-55 122q91 54 211 54q102 0 156.5 -45.5t54.5 -121.5v-310h-160v40q-38 -52 -121 -52q-77 0 -120 43t-43 104q0 68 45.5 105.5t123.5 37.5h78
q37 0 37 28v2q0 15 -15.5 24.5t-45.5 9.5q-31 0 -75.5 -12.5t-70.5 -28.5zM291 658v42h126v-41q0 -72 -46 -110t-117 -38t-117.5 38t-46.5 110v41h126v-42q0 -15 10 -25t28 -10t27.5 9.5t9.5 25.5z" />
    <glyph glyph-name="Aogonek" unicode="&#x104;" horiz-adv-x="655" 
d="M428 700l226 -700h-53q-48 -37 -48 -74q0 -33 48 -33q35 0 64 13l-4 -81q-69 -28 -118 -28q-55 0 -90.5 26t-35.5 70q0 31 24.5 59.5t63.5 47.5h-36l-49 163h-189l-46 -163h-181l220 700h204zM380 312l-54 194h-4l-54 -194h112z" />
    <glyph glyph-name="aogonek" unicode="&#x105;" horiz-adv-x="506" 
d="M95 301l-55 122q91 54 211 54q102 0 156.5 -45.5t54.5 -121.5v-310h-36q-48 -37 -48 -74q0 -33 48 -33q35 0 64 13l-4 -81q-69 -28 -118 -28q-55 0 -90.5 26t-35.5 70q0 31 24.5 59.5t63.5 47.5h-28v40q-38 -52 -121 -52q-77 0 -120 43t-43 104q0 68 45.5 105.5
t123.5 37.5h78q37 0 37 28v2q0 15 -15.5 24.5t-45.5 9.5q-31 0 -75.5 -12.5t-70.5 -28.5zM234 98q29 0 48.5 17t19.5 49v31q-12 -14 -34 -14h-36q-23 0 -36.5 -10.5t-13.5 -28.5q0 -20 15.5 -32t36.5 -12z" />
    <glyph glyph-name="Cacute" unicode="&#x106;" horiz-adv-x="768" 
d="M26 350q0 157 105.5 259.5t261.5 102.5q125 0 227.5 -74t130.5 -203h-195q-16 54 -60 84.5t-103 30.5q-83 0 -134 -56.5t-51 -143.5t51 -143.5t134 -56.5q59 0 103 30.5t60 84.5h195q-28 -129 -130.5 -203t-227.5 -74q-156 0 -261.5 102.5t-105.5 259.5zM317 758l41 177
h209l-98 -177h-152z" />
    <glyph glyph-name="cacute" unicode="&#x107;" horiz-adv-x="532" 
d="M272 332q-40 0 -65.5 -28t-25.5 -71t25.5 -71.5t65.5 -28.5q33 0 56 20t31 54l158 -31q-17 -85 -85.5 -136.5t-160.5 -51.5q-105 0 -177.5 70t-72.5 175t72.5 174.5t177.5 69.5q92 0 160 -51t86 -137l-158 -31q-8 34 -31 54t-56 20zM197 523l41 177h209l-98 -177h-152z
" />
    <glyph glyph-name="Ccircumflex" unicode="&#x108;" horiz-adv-x="768" 
d="M26 350q0 157 105.5 259.5t261.5 102.5q125 0 227.5 -74t130.5 -203h-195q-16 54 -60 84.5t-103 30.5q-83 0 -134 -56.5t-51 -143.5t51 -143.5t134 -56.5q59 0 103 30.5t60 84.5h195q-28 -129 -130.5 -203t-227.5 -74q-156 0 -261.5 102.5t-105.5 259.5zM187 758l108 177
h176l109 -177h-170l-28 58l-25 -58h-170z" />
    <glyph glyph-name="ccircumflex" unicode="&#x109;" horiz-adv-x="532" 
d="M272 332q-40 0 -65.5 -28t-25.5 -71t25.5 -71.5t65.5 -28.5q33 0 56 20t31 54l158 -31q-17 -85 -85.5 -136.5t-160.5 -51.5q-105 0 -177.5 70t-72.5 175t72.5 174.5t177.5 69.5q92 0 160 -51t86 -137l-158 -31q-8 34 -31 54t-56 20zM69 523l108 177h176l109 -177h-170
l-28 58l-25 -58h-170z" />
    <glyph glyph-name="Cdotaccent" unicode="&#x10a;" horiz-adv-x="768" 
d="M26 350q0 157 105.5 259.5t261.5 102.5q125 0 227.5 -74t130.5 -203h-195q-16 54 -60 84.5t-103 30.5q-83 0 -134 -56.5t-51 -143.5t51 -143.5t134 -56.5q59 0 103 30.5t60 84.5h195q-28 -129 -130.5 -203t-227.5 -74q-156 0 -261.5 102.5t-105.5 259.5zM384 938
q38 0 64.5 -26.5t26.5 -62.5t-26.5 -62.5t-64.5 -26.5t-64.5 26.5t-26.5 62.5t26.5 62.5t64.5 26.5z" />
    <glyph glyph-name="cdotaccent" unicode="&#x10b;" horiz-adv-x="532" 
d="M272 332q-40 0 -65.5 -28t-25.5 -71t25.5 -71.5t65.5 -28.5q33 0 56 20t31 54l158 -31q-17 -85 -85.5 -136.5t-160.5 -51.5q-105 0 -177.5 70t-72.5 175t72.5 174.5t177.5 69.5q92 0 160 -51t86 -137l-158 -31q-8 34 -31 54t-56 20zM266 703q38 0 64.5 -26.5t26.5 -62.5
t-26.5 -62.5t-64.5 -26.5t-64.5 26.5t-26.5 62.5t26.5 62.5t64.5 26.5z" />
    <glyph glyph-name="Ccaron" unicode="&#x10c;" horiz-adv-x="768" 
d="M26 350q0 157 105.5 259.5t261.5 102.5q125 0 227.5 -74t130.5 -203h-195q-16 54 -60 84.5t-103 30.5q-83 0 -134 -56.5t-51 -143.5t51 -143.5t134 -56.5q59 0 103 30.5t60 84.5h195q-28 -129 -130.5 -203t-227.5 -74q-156 0 -261.5 102.5t-105.5 259.5zM295 758
l-108 177h170l26 -49l27 49h170l-109 -177h-176z" />
    <glyph glyph-name="ccaron" unicode="&#x10d;" horiz-adv-x="532" 
d="M272 332q-40 0 -65.5 -28t-25.5 -71t25.5 -71.5t65.5 -28.5q33 0 56 20t31 54l158 -31q-17 -85 -85.5 -136.5t-160.5 -51.5q-105 0 -177.5 70t-72.5 175t72.5 174.5t177.5 69.5q92 0 160 -51t86 -137l-158 -31q-8 34 -31 54t-56 20zM177 523l-108 177h170l26 -49l27 49
h170l-109 -177h-176z" />
    <glyph glyph-name="Dcaron" unicode="&#x10e;" horiz-adv-x="724" 
d="M330 0h-265v700h265q170 0 268 -96t98 -254t-98 -254t-268 -96zM335 551h-98v-402h98q76 0 130.5 52t54.5 149q0 96 -54.5 148.5t-130.5 52.5zM273 758l-108 177h170l26 -49l27 49h170l-109 -177h-176z" />
    <glyph glyph-name="dcaron" unicode="&#x10f;" horiz-adv-x="679" 
d="M284 332q-41 0 -68 -28.5t-27 -70.5q0 -41 27 -70.5t68 -29.5t67.5 29.5t26.5 70.5q0 42 -26.5 70.5t-67.5 28.5zM375 0v51q-17 -26 -52.5 -44.5t-81.5 -18.5q-92 0 -155 70t-63 175t63 174.5t155 69.5q98 0 138 -63q-4 28 -4 62v224h160v-700h-160zM580 621
q0 38 26 64.5t64 26.5q40 0 68 -26.5t28 -64.5q0 -27 -14 -52l-69 -119h-108l39 100q-34 26 -34 71z" />
    <glyph glyph-name="Dcroat" unicode="&#x110;" horiz-adv-x="733" 
d="M5 283v148h69v269h265q170 0 268 -96t98 -254t-98 -254t-268 -96h-265v283h-69zM344 551h-98v-120h165v-148h-165v-134h98q76 0 130.5 52t54.5 149q0 96 -54.5 148.5t-130.5 52.5z" />
    <glyph glyph-name="dcroat" unicode="&#x111;" horiz-adv-x="585" 
d="M247 529v112h128v59h160v-59h50v-112h-50v-529h-160v51q-17 -26 -52.5 -44.5t-81.5 -18.5q-92 0 -155 70t-63 175t63 174.5t155 69.5q98 0 138 -63q-4 28 -4 62v53h-128zM284 332q-41 0 -68 -28.5t-27 -70.5q0 -41 27 -70.5t68 -29.5t67.5 29.5t26.5 70.5
q0 42 -26.5 70.5t-67.5 28.5z" />
    <glyph glyph-name="Emacron" unicode="&#x112;" horiz-adv-x="648" 
d="M612 700v-149h-375v-120h201v-148h-201v-134h375v-149h-547v700h547zM170 760v138h348v-138h-348z" />
    <glyph glyph-name="emacron" unicode="&#x113;" horiz-adv-x="533" 
d="M518 197v-9h-328q6 -26 28.5 -45t55.5 -19q25 0 46.5 11t30.5 31l158 -26q-60 -152 -239 -152q-106 0 -177 69.5t-71 175.5t70 175t176 69q107 0 178.5 -70t71.5 -210zM268 349q-32 0 -54.5 -17t-28.5 -44h166q-6 27 -28.5 44t-54.5 17zM93 525v138h348v-138h-348z" />
    <glyph glyph-name="Ebreve" unicode="&#x114;" horiz-adv-x="648" 
d="M612 700v-149h-375v-120h201v-148h-201v-134h375v-149h-547v700h547zM361 893v42h126v-41q0 -72 -46 -110t-117 -38t-117.5 38t-46.5 110v41h126v-42q0 -15 10 -25t28 -10t27.5 10t9.5 25z" />
    <glyph glyph-name="ebreve" unicode="&#x115;" horiz-adv-x="533" 
d="M518 197v-9h-328q6 -26 28.5 -45t55.5 -19q25 0 46.5 11t30.5 31l158 -26q-60 -152 -239 -152q-106 0 -177 69.5t-71 175.5t70 175t176 69q107 0 178.5 -70t71.5 -210zM268 349q-32 0 -54.5 -17t-28.5 -44h166q-6 27 -28.5 44t-54.5 17zM304 658v42h126v-41
q0 -72 -46 -110t-117 -38t-117.5 38t-46.5 110v41h126v-42q0 -15 10 -25t28 -10q17 0 27 9.5t10 25.5z" />
    <glyph glyph-name="Edotaccent" unicode="&#x116;" horiz-adv-x="648" 
d="M612 700v-149h-375v-120h201v-148h-201v-134h375v-149h-547v700h547zM342 938q38 0 64.5 -26.5t26.5 -62.5t-26.5 -62.5t-64.5 -26.5t-64.5 26.5t-26.5 62.5t26.5 62.5t64.5 26.5z" />
    <glyph glyph-name="edotaccent" unicode="&#x117;" horiz-adv-x="533" 
d="M518 197v-9h-328q6 -26 28.5 -45t55.5 -19q25 0 46.5 11t30.5 31l158 -26q-60 -152 -239 -152q-106 0 -177 69.5t-71 175.5t70 175t176 69q107 0 178.5 -70t71.5 -210zM268 349q-32 0 -54.5 -17t-28.5 -44h166q-6 27 -28.5 44t-54.5 17zM267 703q38 0 64.5 -26.5
t26.5 -62.5t-26.5 -62.5t-64.5 -26.5t-64.5 26.5t-26.5 62.5t26.5 62.5t64.5 26.5z" />
    <glyph glyph-name="Eogonek" unicode="&#x118;" horiz-adv-x="648" 
d="M612 700v-149h-375v-120h201v-148h-201v-134h375v-149h-84q-48 -37 -48 -74q0 -33 48 -33q35 0 64 13l-4 -81q-69 -28 -118 -28q-55 0 -90.5 26t-35.5 70q0 31 24.5 59.5t63.5 47.5h-367v700h547z" />
    <glyph glyph-name="eogonek" unicode="&#x119;" horiz-adv-x="536" 
d="M519 197v-9h-328q6 -26 28.5 -45t55.5 -19q25 0 46.5 11t30.5 31l158 -26q-51 -131 -194 -149q-37 -35 -37 -65q0 -33 48 -33q35 0 64 13l-4 -81q-69 -28 -118 -28q-55 0 -90.5 26t-35.5 70q0 56 75 100q-86 17 -140.5 82.5t-54.5 157.5q0 106 70 175t176 69
q107 0 178.5 -70t71.5 -210zM269 349q-32 0 -54.5 -17t-28.5 -44h166q-6 27 -28.5 44t-54.5 17z" />
    <glyph glyph-name="Ecaron" unicode="&#x11a;" horiz-adv-x="648" 
d="M612 700v-149h-375v-120h201v-148h-201v-134h375v-149h-547v700h547zM235 758l-108 177h170l26 -49l27 49h170l-109 -177h-176z" />
    <glyph glyph-name="ecaron" unicode="&#x11b;" horiz-adv-x="533" 
d="M518 197v-9h-328q6 -26 28.5 -45t55.5 -19q25 0 46.5 11t30.5 31l158 -26q-60 -152 -239 -152q-106 0 -177 69.5t-71 175.5t70 175t176 69q107 0 178.5 -70t71.5 -210zM268 349q-32 0 -54.5 -17t-28.5 -44h166q-6 27 -28.5 44t-54.5 17zM178 523l-108 177h170l26 -49
l27 49h170l-109 -177h-176z" />
    <glyph glyph-name="Gcircumflex" unicode="&#x11c;" horiz-adv-x="786" 
d="M384 -12q-153 0 -255.5 102.5t-102.5 259.5t107 259.5t264 102.5q126 0 229.5 -74t131.5 -203h-195q-16 53 -61.5 84t-104.5 31q-83 0 -136 -56.5t-53 -143.5q0 -96 57.5 -148t136.5 -52q51 0 94 22.5t65 61.5h-138v136h318v-370h-130v92q-8 -12 -22 -25.5t-41.5 -33.5
t-70.5 -32.5t-93 -12.5zM198 758l108 177h176l109 -177h-170l-28 58l-25 -58h-170z" />
    <glyph glyph-name="gcircumflex" unicode="&#x11d;" horiz-adv-x="581" 
d="M371 465h160v-497q0 -62 -36 -103t-115 -41h-210v137h160q41 0 41 34v67q-17 -26 -52 -44t-81 -18q-91 0 -152.5 65.5t-61.5 173.5q0 109 61.5 173.5t152.5 64.5q97 0 137 -63q-4 8 -4 42v9zM190 239q0 -46 25.5 -72.5t66.5 -26.5t66.5 26.5t25.5 72.5t-25.5 72.5
t-66.5 26.5t-66.5 -26.5t-25.5 -72.5zM94 523l108 177h176l109 -177h-170l-28 58l-25 -58h-170z" />
    <glyph glyph-name="Gbreve" unicode="&#x11e;" horiz-adv-x="786" 
d="M384 -12q-153 0 -255.5 102.5t-102.5 259.5t107 259.5t264 102.5q126 0 229.5 -74t131.5 -203h-195q-16 53 -61.5 84t-104.5 31q-83 0 -136 -56.5t-53 -143.5q0 -96 57.5 -148t136.5 -52q51 0 94 22.5t65 61.5h-138v136h318v-370h-130v92q-8 -12 -22 -25.5t-41.5 -33.5
t-70.5 -32.5t-93 -12.5zM432 893v42h126v-41q0 -72 -46 -110t-117 -38t-117.5 38t-46.5 110v41h126v-42q0 -15 10 -25t28 -10q17 0 27 10t10 25z" />
    <glyph glyph-name="gbreve" unicode="&#x11f;" horiz-adv-x="581" 
d="M371 465h160v-497q0 -62 -36 -103t-115 -41h-210v137h160q41 0 41 34v67q-17 -26 -52 -44t-81 -18q-91 0 -152.5 65.5t-61.5 173.5q0 109 61.5 173.5t152.5 64.5q97 0 137 -63q-4 8 -4 42v9zM190 239q0 -46 25.5 -72.5t66.5 -26.5t66.5 26.5t25.5 72.5t-25.5 72.5
t-66.5 26.5t-66.5 -26.5t-25.5 -72.5zM328 658v42h126v-41q0 -72 -46 -110t-117 -38t-117.5 38t-46.5 110v41h126v-42q0 -15 10 -25t28 -10q17 0 27 9.5t10 25.5z" />
    <glyph glyph-name="Gdotaccent" unicode="&#x120;" horiz-adv-x="786" 
d="M384 -12q-153 0 -255.5 102.5t-102.5 259.5t107 259.5t264 102.5q126 0 229.5 -74t131.5 -203h-195q-16 53 -61.5 84t-104.5 31q-83 0 -136 -56.5t-53 -143.5q0 -96 57.5 -148t136.5 -52q51 0 94 22.5t65 61.5h-138v136h318v-370h-130v92q-8 -12 -22 -25.5t-41.5 -33.5
t-70.5 -32.5t-93 -12.5zM394 938q38 0 64.5 -26.5t26.5 -62.5t-26.5 -62.5t-64.5 -26.5t-64.5 26.5t-26.5 62.5t26.5 62.5t64.5 26.5z" />
    <glyph glyph-name="gdotaccent" unicode="&#x121;" horiz-adv-x="581" 
d="M371 465h160v-497q0 -62 -36 -103t-115 -41h-210v137h160q41 0 41 34v67q-17 -26 -52 -44t-81 -18q-91 0 -152.5 65.5t-61.5 173.5q0 109 61.5 173.5t152.5 64.5q97 0 137 -63q-4 8 -4 42v9zM190 239q0 -46 25.5 -72.5t66.5 -26.5t66.5 26.5t25.5 72.5t-25.5 72.5
t-66.5 26.5t-66.5 -26.5t-25.5 -72.5zM290 703q38 0 64.5 -26.5t26.5 -62.5t-26.5 -62.5t-64.5 -26.5t-64.5 26.5t-26.5 62.5t26.5 62.5t64.5 26.5z" />
    <glyph glyph-name="Gcommaaccent" unicode="&#x122;" horiz-adv-x="786" 
d="M384 -12q-153 0 -255.5 102.5t-102.5 259.5t107 259.5t264 102.5q126 0 229.5 -74t131.5 -203h-195q-16 53 -61.5 84t-104.5 31q-83 0 -136 -56.5t-53 -143.5q0 -96 57.5 -148t136.5 -52q51 0 94 22.5t65 61.5h-138v136h318v-370h-130v92q-8 -12 -22 -25.5t-41.5 -33.5
t-70.5 -32.5t-93 -12.5zM292 -145q0 38 26 64.5t64 26.5q40 0 68 -26.5t28 -64.5q0 -27 -16 -55l-67 -116h-108l39 100q-34 26 -34 71z" />
    <glyph glyph-name="gcommaaccent" unicode="&#x123;" horiz-adv-x="581" 
d="M371 465h160v-497q0 -62 -36 -103t-115 -41h-210v137h160q41 0 41 34v67q-17 -26 -52 -44t-81 -18q-91 0 -152.5 65.5t-61.5 173.5q0 109 61.5 173.5t152.5 64.5q97 0 137 -63q-4 8 -4 42v9zM190 239q0 -46 25.5 -72.5t66.5 -26.5t66.5 26.5t25.5 72.5t-25.5 72.5
t-66.5 26.5t-66.5 -26.5t-25.5 -72.5zM384 596q0 -38 -26 -64.5t-64 -26.5q-40 0 -68 26.5t-28 64.5q0 28 14 52l69 119h108l-39 -100q34 -26 34 -71z" />
    <glyph glyph-name="Hcircumflex" unicode="&#x124;" horiz-adv-x="719" 
d="M654 0h-172v283h-245v-283h-172v700h172v-269h245v269h172v-700zM163 758l108 177h176l109 -177h-170l-28 58l-25 -58h-170z" />
    <glyph glyph-name="hcircumflex" unicode="&#x125;" horiz-adv-x="554" 
d="M210 287v-287h-160v700h157v-225l-4 -62q50 64 134 64q73 0 122.5 -45t49.5 -125v-307h-160v255q0 36 -19.5 53t-47.5 17q-45 0 -72 -38zM83 758l108 177h176l109 -177h-170l-28 58l-25 -58h-170z" />
    <glyph glyph-name="Hbar" unicode="&#x126;" horiz-adv-x="737" 
d="M9 499v142h65v59h172v-59h245v59h172v-59h65v-142h-65v-499h-172v283h-245v-283h-172v499h-65zM246 431h245v68h-245v-68z" />
    <glyph glyph-name="hbar" unicode="&#x127;" horiz-adv-x="554" 
d="M0 529v112h50v59h157v-59h131v-112h-131v-54l-4 -62q50 64 134 64q73 0 122.5 -45t49.5 -125v-307h-160v255q0 36 -19.5 53t-47.5 17q-45 0 -72 -38v-287h-160v529h-50z" />
    <glyph glyph-name="Itilde" unicode="&#x128;" horiz-adv-x="302" 
d="M65 0v700h172v-700h-172zM-35 740v17q0 150 117 150q18 0 60.5 -15.5t55.5 -15.5q19 0 19 22v6h120v-16q0 -150 -117 -150q-18 0 -60.5 15t-55.5 15q-19 0 -19 -22v-6h-120z" />
    <glyph glyph-name="itilde" unicode="&#x129;" horiz-adv-x="294" 
d="M244 465v-465h-160v328h-61v137h221zM-39 505v17q0 150 117 150q18 0 60.5 -15.5t55.5 -15.5q19 0 19 22v6h120v-16q0 -150 -117 -150q-18 0 -60.5 15t-55.5 15q-19 0 -19 -22v-6h-120z" />
    <glyph glyph-name="Imacron" unicode="&#x12a;" horiz-adv-x="302" 
d="M65 0v700h172v-700h-172zM-23 760v138h348v-138h-348z" />
    <glyph glyph-name="imacron" unicode="&#x12b;" horiz-adv-x="294" 
d="M244 465v-465h-160v328h-61v137h221zM-27 525v138h348v-138h-348z" />
    <glyph glyph-name="Ibreve" unicode="&#x12c;" horiz-adv-x="302" 
d="M65 0v700h172v-700h-172zM189 893v42h126v-41q0 -72 -46 -110t-117 -38t-117.5 38t-46.5 110v41h126v-42q0 -15 10 -25t28 -10t27.5 10t9.5 25z" />
    <glyph glyph-name="ibreve" unicode="&#x12d;" horiz-adv-x="294" 
d="M244 465v-465h-160v328h-61v137h221zM185 658v42h126v-41q0 -72 -46 -110t-117 -38t-117.5 38t-46.5 110v41h126v-42q0 -15 10 -25t28 -10t27.5 9.5t9.5 25.5z" />
    <glyph glyph-name="Iogonek" unicode="&#x12e;" horiz-adv-x="302" 
d="M65 0v700h172v-700h-34q-48 -37 -48 -74q0 -33 48 -33q35 0 64 13l-4 -81q-69 -28 -118 -28q-55 0 -90.5 26t-35.5 70q0 31 24.5 59.5t63.5 47.5h-42z" />
    <glyph glyph-name="iogonek" unicode="&#x12f;" horiz-adv-x="294" 
d="M244 465v-465h-32q-48 -37 -48 -74q0 -33 48 -33q35 0 64 13l-4 -81q-69 -28 -118 -28q-55 0 -90.5 26t-35.5 70q0 31 24.5 59.5t63.5 47.5h-32v328h-61v137h221zM62 619q0 41 28 69t68 28t68.5 -28t28.5 -69q0 -40 -28 -68t-69 -28q-40 0 -68 27.5t-28 68.5z" />
    <glyph glyph-name="Idotaccent" unicode="&#x130;" horiz-adv-x="302" 
d="M65 0v700h172v-700h-172zM50 845q0 42 29.5 71.5t70.5 29.5q42 0 71.5 -29.5t29.5 -71.5q0 -41 -29.5 -70.5t-71.5 -29.5q-41 0 -70.5 29.5t-29.5 70.5z" />
    <glyph glyph-name="dotlessi" unicode="&#x131;" horiz-adv-x="294" 
d="M244 465v-465h-160v328h-61v137h221z" />
    <glyph glyph-name="IJ" unicode="&#x132;" horiz-adv-x="930" 
d="M65 0v700h172v-700h-172zM596 -12q-130 0 -203 70t-73 177v80h171v-55q0 -55 26.5 -87t78.5 -32t78 32t26 87v440h172v-465q0 -107 -73 -177t-203 -70z" />
    <glyph glyph-name="ij" unicode="&#x133;" horiz-adv-x="588" 
d="M244 465v-465h-160v328h-61v137h221zM62 619q0 41 28 69t68 28t68.5 -28t28.5 -69q0 -40 -28 -68t-69 -28q-40 0 -68 27.5t-28 68.5zM378 -14v342h-61v137h221v-522q0 -33 -11.5 -56.5t-27.5 -35.5t-41.5 -18.5t-43 -7.5t-42.5 -1h-75v137h45q20 0 28 5.5t8 19.5z
M356 619q0 41 28 69t68 28t68.5 -28t28.5 -69q0 -40 -28 -68t-69 -28q-40 0 -68 27.5t-28 68.5z" />
    <glyph glyph-name="Jcircumflex" unicode="&#x134;" horiz-adv-x="628" 
d="M294 -12q-130 0 -203 70t-73 177v80h171v-55q0 -55 26.5 -87t78.5 -32t78 32t26 87v440h172v-465q0 -107 -73 -177t-203 -70zM101 758l108 177h176l109 -177h-170l-28 58l-25 -58h-170z" />
    <glyph glyph-name="jcircumflex" unicode="&#x135;" horiz-adv-x="294" 
d="M84 -14v342h-61v137h221v-522q0 -33 -11.5 -56.5t-27.5 -35.5t-41.5 -18.5t-43 -7.5t-42.5 -1h-75v137h45q20 0 28 5.5t8 19.5zM-48 523l108 177h176l109 -177h-170l-28 58l-25 -58h-170z" />
    <glyph glyph-name="Kcommaaccent" unicode="&#x136;" horiz-adv-x="658" 
d="M237 700v-265h36l193 265h204l-256 -333l245 -367h-211l-178 287h-33v-287h-172v700h172zM238 -145q0 38 26 64.5t64 26.5q40 0 68 -26.5t28 -64.5q0 -27 -16 -55l-67 -116h-108l39 100q-34 26 -34 71z" />
    <glyph glyph-name="kcommaaccent" unicode="&#x137;" horiz-adv-x="533" 
d="M209 700v-391h20l109 156h194l-165 -216l159 -249h-188l-104 172h-25v-172h-159v700h159zM176 -145q0 38 26 64.5t64 26.5q40 0 68 -26.5t28 -64.5q0 -27 -16 -55l-67 -116h-108l39 100q-34 26 -34 71z" />
    <glyph glyph-name="kgreenlandic" unicode="&#x138;" horiz-adv-x="554" 
d="M209 465v-167h49l119 167h175l-165 -228l162 -237h-191l-104 161h-45v-161h-159v465h159z" />
    <glyph glyph-name="Lacute" unicode="&#x139;" horiz-adv-x="541" 
d="M529 0h-464v700h172v-551h292v-149zM199 758l41 177h209l-98 -177h-152z" />
    <glyph glyph-name="lacute" unicode="&#x13a;" horiz-adv-x="260" 
d="M210 700v-700h-160v700h160zM59 758l41 177h209l-98 -177h-152z" />
    <glyph glyph-name="Lcommaaccent" unicode="&#x13b;" horiz-adv-x="541" 
d="M529 0h-464v700h172v-551h292v-149zM189 -145q0 38 26 64.5t64 26.5q40 0 68 -26.5t28 -64.5q0 -27 -16 -55l-67 -116h-108l39 100q-34 26 -34 71z" />
    <glyph glyph-name="lcommaaccent" unicode="&#x13c;" horiz-adv-x="260" 
d="M210 700v-700h-160v700h160zM39 -145q0 38 26 64.5t64 26.5q40 0 68 -26.5t28 -64.5q0 -27 -16 -55l-67 -116h-108l39 100q-34 26 -34 71z" />
    <glyph glyph-name="Lcaron" unicode="&#x13d;" horiz-adv-x="543" 
d="M529 0h-464v700h172v-551h292v-149zM333 621q0 38 26 64.5t64 26.5q40 0 68 -26.5t28 -64.5q0 -27 -14 -52l-69 -119h-108l39 100q-34 26 -34 71z" />
    <glyph glyph-name="lcaron" unicode="&#x13e;" horiz-adv-x="354" 
d="M210 700v-700h-160v700h160zM255 621q0 38 26 64.5t64 26.5q40 0 68 -26.5t28 -64.5q0 -27 -14 -52l-69 -119h-108l39 100q-34 26 -34 71z" />
    <glyph glyph-name="Ldot" unicode="&#x13f;" horiz-adv-x="541" 
d="M529 0h-464v700h172v-551h292v-149zM310 357q0 42 29.5 71.5t70.5 29.5q42 0 71.5 -29.5t29.5 -71.5q0 -41 -29.5 -70.5t-71.5 -29.5q-41 0 -70.5 29.5t-29.5 70.5z" />
    <glyph glyph-name="ldot" unicode="&#x140;" horiz-adv-x="467" 
d="M210 700v-700h-160v700h160zM263 358q0 42 29.5 71.5t70.5 29.5q42 0 71.5 -29.5t29.5 -71.5q0 -41 -29.5 -70.5t-71.5 -29.5q-41 0 -70.5 29.5t-29.5 70.5z" />
    <glyph glyph-name="Lslash" unicode="&#x141;" horiz-adv-x="545" 
d="M19 224v108l50 18v350h172v-289l155 56v-108l-155 -56v-154h292v-149h-464v242z" />
    <glyph glyph-name="lslash" unicode="&#x142;" horiz-adv-x="273" 
d="M215 700v-268l45 28v-114l-45 -28v-318h-160v220l-45 -27v113l45 27v367h160z" />
    <glyph glyph-name="Nacute" unicode="&#x143;" horiz-adv-x="719" 
d="M235 421v-421h-170v700h214l205 -415v415h170v-700h-200zM284 758l41 177h209l-98 -177h-152z" />
    <glyph glyph-name="nacute" unicode="&#x144;" horiz-adv-x="554" 
d="M207 465v-10l-4 -42q50 64 133 64q73 0 123 -45t50 -125v-307h-160v255q0 36 -19.5 53t-47.5 17q-45 0 -72 -38v-287h-160v465h157zM152 523l41 177h209l-98 -177h-152z" />
    <glyph glyph-name="Ncommaaccent" unicode="&#x145;" horiz-adv-x="719" 
d="M235 421v-421h-170v700h214l205 -415v415h170v-700h-200zM269 -145q0 38 26 64.5t64 26.5q40 0 68 -26.5t28 -64.5q0 -27 -16 -55l-67 -116h-108l39 100q-34 26 -34 71z" />
    <glyph glyph-name="ncommaaccent" unicode="&#x146;" horiz-adv-x="554" 
d="M207 465v-10l-4 -42q50 64 133 64q73 0 123 -45t50 -125v-307h-160v255q0 36 -19.5 53t-47.5 17q-45 0 -72 -38v-287h-160v465h157zM186 -145q0 38 26 64.5t64 26.5q40 0 68 -26.5t28 -64.5q0 -27 -16 -55l-67 -116h-108l39 100q-34 26 -34 71z" />
    <glyph glyph-name="Ncaron" unicode="&#x147;" horiz-adv-x="719" 
d="M235 421v-421h-170v700h214l205 -415v415h170v-700h-200zM271 758l-108 177h170l26 -49l27 49h170l-109 -177h-176z" />
    <glyph glyph-name="ncaron" unicode="&#x148;" horiz-adv-x="554" 
d="M207 465v-10l-4 -42q50 64 133 64q73 0 123 -45t50 -125v-307h-160v255q0 36 -19.5 53t-47.5 17q-45 0 -72 -38v-287h-160v465h157zM188 523l-108 177h170l26 -49l27 49h170l-109 -177h-176z" />
    <glyph glyph-name="napostrophe" unicode="&#x149;" horiz-adv-x="554" 
d="M207 465v-10l-4 -42q50 64 133 64q73 0 123 -45t50 -125v-307h-160v255q0 36 -19.5 53t-47.5 17q-45 0 -72 -38v-287h-160v465h157zM55 694q0 38 26 64.5t64 26.5q40 0 68 -26.5t28 -64.5q0 -28 -14 -52l-69 -119h-108l39 100q-34 26 -34 71z" />
    <glyph glyph-name="Eng" unicode="&#x14a;" horiz-adv-x="719" 
d="M235 421v-421h-170v700h214l205 -415v415h170v-731q0 -74 -34 -109.5t-116 -35.5h-107v150h46q33 0 37 26h-26z" />
    <glyph glyph-name="eng" unicode="&#x14b;" horiz-adv-x="554" 
d="M207 465v-10l-4 -42q50 64 133 64q73 0 123 -45t50 -125v-364q0 -33 -11.5 -56.5t-27.5 -35.5t-41.5 -18.5t-43 -7.5t-42.5 -1h-75v137h45q20 0 28 5.5t8 19.5v269q0 36 -19.5 53t-47.5 17q-45 0 -72 -38v-287h-160v465h157z" />
    <glyph glyph-name="Omacron" unicode="&#x14c;" horiz-adv-x="787" 
d="M394 712q154 0 260.5 -103t106.5 -259t-106.5 -259t-260.5 -103q-155 0 -261.5 103t-106.5 259t106.5 259t261.5 103zM394 150q83 0 134 56.5t51 143.5t-51 143.5t-134 56.5t-134.5 -56.5t-51.5 -143.5t51.5 -143.5t134.5 -56.5zM219 760v138h348v-138h-348z" />
    <glyph glyph-name="omacron" unicode="&#x14d;" horiz-adv-x="542" 
d="M271 -12q-105 0 -177.5 70t-72.5 175t72.5 174.5t177.5 69.5t177.5 -69.5t72.5 -174.5t-72.5 -175t-177.5 -70zM271 332q-40 0 -65 -27.5t-25 -71.5q0 -43 25.5 -71.5t64.5 -28.5t64.5 28.5t25.5 71.5t-25.5 71t-64.5 28zM97 525v138h348v-138h-348z" />
    <glyph glyph-name="Obreve" unicode="&#x14e;" horiz-adv-x="787" 
d="M394 712q154 0 260.5 -103t106.5 -259t-106.5 -259t-260.5 -103q-155 0 -261.5 103t-106.5 259t106.5 259t261.5 103zM394 150q83 0 134 56.5t51 143.5t-51 143.5t-134 56.5t-134.5 -56.5t-51.5 -143.5t51.5 -143.5t134.5 -56.5zM431 893v42h126v-41q0 -72 -46 -110
t-117 -38t-117.5 38t-46.5 110v41h126v-42q0 -15 10 -25t28 -10t27.5 10t9.5 25z" />
    <glyph glyph-name="obreve" unicode="&#x14f;" horiz-adv-x="542" 
d="M271 -12q-105 0 -177.5 70t-72.5 175t72.5 174.5t177.5 69.5t177.5 -69.5t72.5 -174.5t-72.5 -175t-177.5 -70zM271 332q-40 0 -65 -27.5t-25 -71.5q0 -43 25.5 -71.5t64.5 -28.5t64.5 28.5t25.5 71.5t-25.5 71t-64.5 28zM308 658v42h126v-41q0 -72 -46 -110t-117 -38
t-117.5 38t-46.5 110v41h126v-42q0 -15 10 -25t28 -10q17 0 27 9.5t10 25.5z" />
    <glyph glyph-name="Ohungarumlaut" unicode="&#x150;" horiz-adv-x="787" 
d="M394 712q154 0 260.5 -103t106.5 -259t-106.5 -259t-260.5 -103q-155 0 -261.5 103t-106.5 259t106.5 259t261.5 103zM394 150q83 0 134 56.5t51 143.5t-51 143.5t-134 56.5t-134.5 -56.5t-51.5 -143.5t51.5 -143.5t134.5 -56.5zM207 758l42 177h209l-98 -177h-153z
M430 758l41 177h209l-97 -177h-153z" />
    <glyph glyph-name="ohungarumlaut" unicode="&#x151;" horiz-adv-x="542" 
d="M271 -12q-105 0 -177.5 70t-72.5 175t72.5 174.5t177.5 69.5t177.5 -69.5t72.5 -174.5t-72.5 -175t-177.5 -70zM271 332q-40 0 -65 -27.5t-25 -71.5q0 -43 25.5 -71.5t64.5 -28.5t64.5 28.5t25.5 71.5t-25.5 71t-64.5 28zM82 523l42 177h209l-98 -177h-153zM305 523
l41 177h209l-97 -177h-153z" />
    <glyph glyph-name="OE" unicode="&#x152;" horiz-adv-x="1064" 
d="M1028 700v-149h-375v-120h201v-148h-201v-134h375v-149h-634q-170 0 -268 96t-98 254t98 254t268 96h634zM204 350q0 -97 54.5 -149t130.5 -52h92v402h-92q-76 0 -130.5 -52.5t-54.5 -148.5z" />
    <glyph glyph-name="oe" unicode="&#x153;" horiz-adv-x="879" 
d="M272 327q-38 0 -62 -26.5t-24 -67.5t24.5 -68t61.5 -27t61.5 27t24.5 68t-24 67.5t-62 26.5zM617 477q107 0 177 -70t70 -210v-9h-328q6 -26 28.5 -45t55.5 -19q25 0 46.5 11t30.5 31l158 -26q-60 -152 -239 -152q-121 0 -177 81q-28 -38 -74.5 -59.5t-102.5 -21.5
q-104 0 -172 69.5t-68 175.5t68 175t172 69q118 0 176 -80q27 37 75 58.5t104 21.5zM616 349q-32 0 -55.5 -17t-29.5 -44h166q-6 27 -28 44t-53 17z" />
    <glyph glyph-name="Racute" unicode="&#x154;" horiz-adv-x="653" 
d="M452 0l-132 245h-83v-245h-172v700h292q114 0 184.5 -63.5t70.5 -157.5q0 -139 -128 -199l162 -280h-194zM433 475q0 76 -99 76h-97v-154h97q99 0 99 78zM240 758l41 177h209l-98 -177h-152z" />
    <glyph glyph-name="racute" unicode="&#x155;" horiz-adv-x="372" 
d="M355 465v-167h-58q-50 0 -68.5 -19t-18.5 -65v-214h-160v465h154v-74q14 37 45 58t69 21q15 0 37 -5zM61 523l41 177h209l-98 -177h-152z" />
    <glyph glyph-name="Rcommaaccent" unicode="&#x156;" horiz-adv-x="653" 
d="M452 0l-132 245h-83v-245h-172v700h292q114 0 184.5 -63.5t70.5 -157.5q0 -139 -128 -199l162 -280h-194zM433 475q0 76 -99 76h-97v-154h97q99 0 99 78zM222 -145q0 38 26 64.5t64 26.5q40 0 68 -26.5t28 -64.5q0 -27 -16 -55l-67 -116h-108l39 100q-34 26 -34 71z" />
    <glyph glyph-name="rcommaaccent" unicode="&#x157;" horiz-adv-x="372" 
d="M355 465v-167h-58q-50 0 -68.5 -19t-18.5 -65v-214h-160v465h154v-74q14 37 45 58t69 21q15 0 37 -5zM34 -145q0 38 26 64.5t64 26.5q40 0 68 -26.5t28 -64.5q0 -27 -16 -55l-67 -116h-108l39 100q-34 26 -34 71z" />
    <glyph glyph-name="Rcaron" unicode="&#x158;" horiz-adv-x="653" 
d="M452 0l-132 245h-83v-245h-172v700h292q114 0 184.5 -63.5t70.5 -157.5q0 -139 -128 -199l162 -280h-194zM433 475q0 76 -99 76h-97v-154h97q99 0 99 78zM224 758l-108 177h170l26 -49l27 49h170l-109 -177h-176z" />
    <glyph glyph-name="rcaron" unicode="&#x159;" horiz-adv-x="372" 
d="M355 465v-167h-58q-50 0 -68.5 -19t-18.5 -65v-214h-160v465h154v-74q14 37 45 58t69 21q15 0 37 -5zM98 523l-108 177h170l26 -49l27 49h170l-109 -177h-176z" />
    <glyph glyph-name="Sacute" unicode="&#x15a;" horiz-adv-x="567" 
d="M537 610l-95 -121q-65 69 -150 69q-32 0 -49 -15t-17 -33q0 -34 50 -56l82 -36q98 -43 139 -92.5t41 -121.5q0 -87 -68.5 -151.5t-187.5 -64.5q-87 0 -158 32.5t-110 72.5l93 124q30 -31 78 -53t95 -22q34 0 53 16t19 39q0 21 -17.5 37.5t-55.5 33.5l-80 35
q-159 69 -159 202q0 89 70 148t172 59q159 0 255 -102zM208 758l41 177h209l-98 -177h-152z" />
    <glyph glyph-name="sacute" unicode="&#x15b;" horiz-adv-x="452" 
d="M427 406l-91 -99q-52 45 -103 45q-15 0 -23.5 -5.5t-8.5 -12.5q0 -16 24 -23l70 -21q75 -24 105 -59t30 -87q0 -61 -51.5 -108.5t-147.5 -47.5q-78 0 -134 22t-86 51l86 107q26 -23 63.5 -39t72.5 -16q30 0 30 20q0 18 -38 28l-65 17q-62 16 -94 56t-32 90q0 64 55 108.5
t137 44.5q120 0 201 -71zM145 523l41 177h209l-98 -177h-152z" />
    <glyph glyph-name="Scircumflex" unicode="&#x15c;" horiz-adv-x="567" 
d="M537 610l-95 -121q-65 69 -150 69q-32 0 -49 -15t-17 -33q0 -34 50 -56l82 -36q98 -43 139 -92.5t41 -121.5q0 -87 -68.5 -151.5t-187.5 -64.5q-87 0 -158 32.5t-110 72.5l93 124q30 -31 78 -53t95 -22q34 0 53 16t19 39q0 21 -17.5 37.5t-55.5 33.5l-80 35
q-159 69 -159 202q0 89 70 148t172 59q159 0 255 -102zM88 758l108 177h176l109 -177h-170l-28 58l-25 -58h-170z" />
    <glyph glyph-name="scircumflex" unicode="&#x15d;" horiz-adv-x="452" 
d="M427 406l-91 -99q-52 45 -103 45q-15 0 -23.5 -5.5t-8.5 -12.5q0 -16 24 -23l70 -21q75 -24 105 -59t30 -87q0 -61 -51.5 -108.5t-147.5 -47.5q-78 0 -134 22t-86 51l86 107q26 -23 63.5 -39t72.5 -16q30 0 30 20q0 18 -38 28l-65 17q-62 16 -94 56t-32 90q0 64 55 108.5
t137 44.5q120 0 201 -71zM30 523l108 177h176l109 -177h-170l-28 58l-25 -58h-170z" />
    <glyph glyph-name="Scedilla" unicode="&#x15e;" horiz-adv-x="567" 
d="M129 -142l50 143q-103 28 -165 92l93 124q30 -31 78 -53t95 -22q34 0 53 16t19 39q0 21 -17.5 37.5t-55.5 33.5l-80 35q-159 69 -159 202q0 89 70 148t172 59q159 0 255 -102l-95 -121q-65 69 -150 69q-32 0 -49 -15t-17 -33q0 -34 50 -56l82 -36q98 -43 139 -92.5
t41 -121.5q0 -73 -50 -132.5t-138 -76.5l-75 -137h-146z" />
    <glyph glyph-name="scedilla" unicode="&#x15f;" horiz-adv-x="453" 
d="M74 -142l50 143q-73 20 -113 60l86 107q26 -23 63.5 -39t72.5 -16q30 0 30 20q0 18 -38 28l-65 17q-62 16 -94 56t-32 90q0 64 55 108.5t137 44.5q120 0 201 -71l-91 -99q-52 45 -103 45q-15 0 -23.5 -5.5t-8.5 -12.5q0 -16 24 -23l70 -21q75 -24 105 -59t30 -87
q0 -49 -35 -91.5t-100 -57.5l-75 -137h-146z" />
    <glyph glyph-name="Scaron" unicode="&#x160;" horiz-adv-x="567" 
d="M537 610l-95 -121q-65 69 -150 69q-32 0 -49 -15t-17 -33q0 -34 50 -56l82 -36q98 -43 139 -92.5t41 -121.5q0 -87 -68.5 -151.5t-187.5 -64.5q-87 0 -158 32.5t-110 72.5l93 124q30 -31 78 -53t95 -22q34 0 53 16t19 39q0 21 -17.5 37.5t-55.5 33.5l-80 35
q-159 69 -159 202q0 89 70 148t172 59q159 0 255 -102zM200 758l-108 177h170l26 -49l27 49h170l-109 -177h-176z" />
    <glyph glyph-name="scaron" unicode="&#x161;" horiz-adv-x="452" 
d="M427 406l-91 -99q-52 45 -103 45q-15 0 -23.5 -5.5t-8.5 -12.5q0 -16 24 -23l70 -21q75 -24 105 -59t30 -87q0 -61 -51.5 -108.5t-147.5 -47.5q-78 0 -134 22t-86 51l86 107q26 -23 63.5 -39t72.5 -16q30 0 30 20q0 18 -38 28l-65 17q-62 16 -94 56t-32 90q0 64 55 108.5
t137 44.5q120 0 201 -71zM125 523l-108 177h170l26 -49l27 49h170l-109 -177h-176z" />
    <glyph glyph-name="Tcommaaccent" unicode="&#x162;" horiz-adv-x="604" 
d="M12 700h580v-155h-204v-545h-171v545h-205v155zM211 -145q0 38 26 64.5t64 26.5q40 0 68 -26.5t28 -64.5q0 -27 -16 -55l-67 -116h-108l39 100q-34 26 -34 71z" />
    <glyph glyph-name="tcommaaccent" unicode="&#x163;" horiz-adv-x="372" 
d="M86 631h160v-166h93v-137h-93v-163q0 -31 41 -31l52 3v-137q-75 -6 -114 -6q-65 0 -102 25.5t-37 91.5v217h-69v137h69v166zM109 -145q0 38 26 64.5t64 26.5q40 0 68 -26.5t28 -64.5q0 -27 -16 -55l-67 -116h-108l39 100q-34 26 -34 71z" />
    <glyph glyph-name="Tcaron" unicode="&#x164;" horiz-adv-x="604" 
d="M12 700h580v-155h-204v-545h-171v545h-205v155zM213 758l-108 177h170l26 -49l27 49h170l-109 -177h-176z" />
    <glyph glyph-name="tcaron" unicode="&#x165;" horiz-adv-x="372" 
d="M86 631h160v-166h93v-137h-93v-163q0 -31 41 -31l52 3v-137q-75 -6 -114 -6q-65 0 -102 25.5t-37 91.5v217h-69v137h69v166zM298 699q0 38 26 64.5t64 26.5q40 0 68 -26.5t28 -64.5q0 -27 -14 -52l-69 -119h-108l39 100q-34 26 -34 71z" />
    <glyph glyph-name="Tbar" unicode="&#x166;" horiz-adv-x="612" 
d="M16 700h580v-155h-204v-114h129v-148h-129v-283h-171v283h-129v148h129v114h-205v155z" />
    <glyph glyph-name="tbar" unicode="&#x167;" horiz-adv-x="371" 
d="M16 178v112h69v38h-69v137h69v166h160v-166h93v-137h-93v-38h93v-112h-93v-13q0 -31 41 -31l52 3v-137q-75 -6 -114 -6q-65 0 -102 25.5t-37 91.5v67h-69z" />
    <glyph glyph-name="Utilde" unicode="&#x168;" horiz-adv-x="665" 
d="M438 260v440h169v-465q0 -107 -72.5 -177t-202.5 -70t-202 70t-72 177v465h171v-440q0 -55 26.5 -87t78.5 -32t78 32t26 87zM146 740v17q0 150 117 150q18 0 60.5 -15.5t55.5 -15.5q19 0 19 22v6h120v-16q0 -150 -117 -150q-18 0 -60.5 15t-55.5 15q-19 0 -19 -22v-6
h-120z" />
    <glyph glyph-name="utilde" unicode="&#x169;" horiz-adv-x="545" 
d="M273 -12q-108 0 -169 53.5t-61 131.5v292h160v-258q0 -38 20.5 -55t49.5 -17t49 17t20 55v258h160v-292q0 -78 -60 -131.5t-169 -53.5zM86 505v17q0 150 117 150q18 0 60.5 -15.5t55.5 -15.5q19 0 19 22v6h120v-16q0 -150 -117 -150q-18 0 -60.5 15t-55.5 15
q-19 0 -19 -22v-6h-120z" />
    <glyph glyph-name="Umacron" unicode="&#x16a;" horiz-adv-x="665" 
d="M438 260v440h169v-465q0 -107 -72.5 -177t-202.5 -70t-202 70t-72 177v465h171v-440q0 -55 26.5 -87t78.5 -32t78 32t26 87zM158 760v138h348v-138h-348z" />
    <glyph glyph-name="umacron" unicode="&#x16b;" horiz-adv-x="545" 
d="M273 -12q-108 0 -169 53.5t-61 131.5v292h160v-258q0 -38 20.5 -55t49.5 -17t49 17t20 55v258h160v-292q0 -78 -60 -131.5t-169 -53.5zM98 525v138h348v-138h-348z" />
    <glyph glyph-name="Ubreve" unicode="&#x16c;" horiz-adv-x="665" 
d="M438 260v440h169v-465q0 -107 -72.5 -177t-202.5 -70t-202 70t-72 177v465h171v-440q0 -55 26.5 -87t78.5 -32t78 32t26 87zM370 893v42h126v-41q0 -72 -46 -110t-117 -38t-117.5 38t-46.5 110v41h126v-42q0 -15 10 -25t28 -10q17 0 27 10t10 25z" />
    <glyph glyph-name="ubreve" unicode="&#x16d;" horiz-adv-x="545" 
d="M273 -12q-108 0 -169 53.5t-61 131.5v292h160v-258q0 -38 20.5 -55t49.5 -17t49 17t20 55v258h160v-292q0 -78 -60 -131.5t-169 -53.5zM310 658v42h126v-41q0 -72 -46 -110t-117 -38t-117.5 38t-46.5 110v41h126v-42q0 -15 10 -25t28 -10q17 0 27 9.5t10 25.5z" />
    <glyph glyph-name="Uring" unicode="&#x16e;" horiz-adv-x="665" 
d="M438 260v440h169v-465q0 -107 -72.5 -177t-202.5 -70t-202 70t-72 177v465h171v-440q0 -55 26.5 -87t78.5 -32t78 32t26 87zM332 729q-59 0 -98.5 37.5t-39.5 92.5q0 57 39.5 94t98.5 37t98.5 -37t39.5 -94q0 -55 -39.5 -92.5t-98.5 -37.5zM332 811q19 0 32 14t13 34
q0 21 -13 35t-32 14t-32 -14t-13 -35q0 -20 13 -34t32 -14z" />
    <glyph glyph-name="uring" unicode="&#x16f;" horiz-adv-x="545" 
d="M273 -12q-108 0 -169 53.5t-61 131.5v292h160v-258q0 -38 20.5 -55t49.5 -17t49 17t20 55v258h160v-292q0 -78 -60 -131.5t-169 -53.5zM272 494q-59 0 -98.5 37.5t-39.5 92.5q0 57 39.5 94t98.5 37t98.5 -37t39.5 -94q0 -55 -39.5 -92.5t-98.5 -37.5zM272 576q19 0 32 14
t13 34q0 21 -13 35t-32 14t-32 -14t-13 -35q0 -20 13 -34t32 -14z" />
    <glyph glyph-name="Uhungarumlaut" unicode="&#x170;" horiz-adv-x="665" 
d="M438 260v440h169v-465q0 -107 -72.5 -177t-202.5 -70t-202 70t-72 177v465h171v-440q0 -55 26.5 -87t78.5 -32t78 32t26 87zM143 758l42 177h209l-98 -177h-153zM366 758l41 177h209l-97 -177h-153z" />
    <glyph glyph-name="uhungarumlaut" unicode="&#x171;" horiz-adv-x="545" 
d="M273 -12q-108 0 -169 53.5t-61 131.5v292h160v-258q0 -38 20.5 -55t49.5 -17t49 17t20 55v258h160v-292q0 -78 -60 -131.5t-169 -53.5zM77 523l42 177h209l-98 -177h-153zM300 523l41 177h209l-97 -177h-153z" />
    <glyph glyph-name="Uogonek" unicode="&#x172;" horiz-adv-x="666" 
d="M438 260v440h169v-465q0 -93 -54.5 -159t-155.5 -83q-40 -35 -40 -67q0 -33 48 -33q35 0 64 13l-4 -81q-69 -28 -118 -28q-55 0 -90.5 26t-35.5 70q0 56 70 97q-111 11 -172 78.5t-61 166.5v465h171v-440q0 -55 26.5 -87t78.5 -32t78 32t26 87z" />
    <glyph glyph-name="uogonek" unicode="&#x173;" horiz-adv-x="547" 
d="M503 173q0 -67 -44.5 -116.5t-126.5 -63.5q-39 -34 -39 -67t48 -33q35 0 64 13l-4 -81q-69 -28 -118 -28q-55 0 -90.5 26t-35.5 70q0 56 71 98q-88 12 -136 62.5t-48 119.5v292h160v-258q0 -38 20.5 -55t49.5 -17t49 17t20 55v258h160v-292z" />
    <glyph glyph-name="Wcircumflex" unicode="&#x174;" horiz-adv-x="971" 
d="M402 700h173l114 -433h1l93 433h177l-170 -700h-184l-121 477l-118 -477h-186l-170 700h185l89 -433h1zM289 758l108 177h176l109 -177h-170l-28 58l-25 -58h-170z" />
    <glyph glyph-name="wcircumflex" unicode="&#x175;" horiz-adv-x="747" 
d="M452 465l65 -247l54 247h165l-114 -465h-183l-68 250l-69 -250h-182l-106 465h170l46 -241l67 241h155zM177 523l108 177h176l109 -177h-170l-28 58l-25 -58h-170z" />
    <glyph glyph-name="Ycircumflex" unicode="&#x176;" horiz-adv-x="687" 
d="M259 281l-265 419h211l139 -235h7l137 235h203l-261 -416v-284h-171v281zM147 758l108 177h176l109 -177h-170l-28 58l-25 -58h-170z" />
    <glyph glyph-name="ycircumflex" unicode="&#x177;" horiz-adv-x="522" 
d="M187 -18l6 18h-35l-154 465h179l80 -296l79 296h175l-176 -536q-18 -54 -49.5 -79.5t-93.5 -25.5h-111v137h71q22 0 29 21zM64 523l108 177h176l109 -177h-170l-28 58l-25 -58h-170z" />
    <glyph glyph-name="Ydieresis" unicode="&#x178;" horiz-adv-x="687" 
d="M259 281l-265 419h211l139 -235h7l137 235h203l-261 -416v-284h-171v281zM149 829q0 37 26.5 64t64.5 27q36 0 63.5 -27t27.5 -64q0 -36 -27.5 -62.5t-63.5 -26.5q-38 0 -64.5 26.5t-26.5 62.5zM357 829q0 37 26.5 64t63.5 27q36 0 63.5 -27t27.5 -64q0 -36 -27.5 -62.5
t-63.5 -26.5q-37 0 -63.5 26.5t-26.5 62.5z" />
    <glyph glyph-name="Zacute" unicode="&#x179;" horiz-adv-x="658" 
d="M398 545h-357v155h579v-148l-356 -397h356v-155h-587v142zM204 758l41 177h209l-98 -177h-152z" />
    <glyph glyph-name="zacute" unicode="&#x17a;" horiz-adv-x="490" 
d="M454 465v-134l-221 -194h221v-137h-420v134l221 194h-217v137h416zM157 523l41 177h209l-98 -177h-152z" />
    <glyph glyph-name="Zdotaccent" unicode="&#x17b;" horiz-adv-x="658" 
d="M398 545h-357v155h579v-148l-356 -397h356v-155h-587v142zM228 845q0 42 29.5 71.5t70.5 29.5q42 0 71.5 -29.5t29.5 -71.5q0 -41 -29.5 -70.5t-71.5 -29.5q-41 0 -70.5 29.5t-29.5 70.5z" />
    <glyph glyph-name="zdotaccent" unicode="&#x17c;" horiz-adv-x="490" 
d="M454 465v-134l-221 -194h221v-137h-420v134l221 194h-217v137h416zM245 703q38 0 64.5 -26.5t26.5 -62.5t-26.5 -62.5t-64.5 -26.5t-64.5 26.5t-26.5 62.5t26.5 62.5t64.5 26.5z" />
    <glyph glyph-name="Zcaron" unicode="&#x17d;" horiz-adv-x="658" 
d="M398 545h-357v155h579v-148l-356 -397h356v-155h-587v142zM240 758l-108 177h170l26 -49l27 49h170l-109 -177h-176z" />
    <glyph glyph-name="zcaron" unicode="&#x17e;" horiz-adv-x="490" 
d="M454 465v-134l-221 -194h221v-137h-420v134l221 194h-217v137h416zM156 523l-108 177h170l26 -49l27 49h170l-109 -177h-176z" />
    <glyph glyph-name="longs" unicode="&#x17f;" horiz-adv-x="314" 
d="M244 531v-531h-160v328h-71v137h71v118q0 129 144 129l110 -7v-148q-46 5 -58 5q-36 0 -36 -31z" />
    <glyph glyph-name="florin" unicode="&#x192;" horiz-adv-x="407" 
d="M283 498v-176h80v-147h-80v-216q0 -58 -32 -96.5t-104 -38.5h-136v155h35q17 0 25 0.5t20 4.5t17.5 14.5t5.5 27.5v149h-79v147h79v243q0 58 32 96.5t104 38.5h136v-155h-35q-17 0 -25 -0.5t-20 -4.5t-17.5 -14.5t-5.5 -27.5z" />
    <glyph glyph-name="Scommaaccent" unicode="&#x218;" horiz-adv-x="567" 
d="M537 610l-95 -121q-65 69 -150 69q-32 0 -49 -15t-17 -33q0 -34 50 -56l82 -36q98 -43 139 -92.5t41 -121.5q0 -87 -68.5 -151.5t-187.5 -64.5q-87 0 -158 32.5t-110 72.5l93 124q30 -31 78 -53t95 -22q34 0 53 16t19 39q0 21 -17.5 37.5t-55.5 33.5l-80 35
q-159 69 -159 202q0 89 70 148t172 59q159 0 255 -102zM188 -145q0 38 26 64.5t64 26.5q40 0 68 -26.5t28 -64.5q0 -27 -16 -55l-67 -116h-108l39 100q-34 26 -34 71z" />
    <glyph glyph-name="scommaaccent" unicode="&#x219;" horiz-adv-x="452" 
d="M427 406l-91 -99q-52 45 -103 45q-15 0 -23.5 -5.5t-8.5 -12.5q0 -16 24 -23l70 -21q75 -24 105 -59t30 -87q0 -61 -51.5 -108.5t-147.5 -47.5q-78 0 -134 22t-86 51l86 107q26 -23 63.5 -39t72.5 -16q30 0 30 20q0 18 -38 28l-65 17q-62 16 -94 56t-32 90q0 64 55 108.5
t137 44.5q120 0 201 -71zM136 -145q0 38 26 64.5t64 26.5q40 0 68 -26.5t28 -64.5q0 -27 -16 -55l-67 -116h-108l39 100q-34 26 -34 71z" />
    <glyph glyph-name="uni021A" unicode="&#x21a;" horiz-adv-x="604" 
d="M12 700h580v-155h-204v-545h-171v545h-205v155zM211 -145q0 38 26 64.5t64 26.5q40 0 68 -26.5t28 -64.5q0 -27 -16 -55l-67 -116h-108l39 100q-34 26 -34 71z" />
    <glyph glyph-name="uni021B" unicode="&#x21b;" horiz-adv-x="372" 
d="M86 631h160v-166h93v-137h-93v-163q0 -31 41 -31l52 3v-137q-75 -6 -114 -6q-65 0 -102 25.5t-37 91.5v217h-69v137h69v166zM109 -145q0 38 26 64.5t64 26.5q40 0 68 -26.5t28 -64.5q0 -27 -16 -55l-67 -116h-108l39 100q-34 26 -34 71z" />
    <glyph glyph-name="dotlessj" unicode="&#x237;" horiz-adv-x="294" 
d="M84 -14v342h-61v137h221v-522q0 -33 -11.5 -56.5t-27.5 -35.5t-41.5 -18.5t-43 -7.5t-42.5 -1h-75v137h45q20 0 28 5.5t8 19.5z" />
    <glyph glyph-name="apostrophe" unicode="&#x2bc;" horiz-adv-x="519" 
d="M179 694q0 38 26 64.5t64 26.5q40 0 68 -26.5t28 -64.5q0 -28 -14 -52l-69 -119h-108l39 100q-34 26 -34 71z" />
    <glyph glyph-name="circumflex" unicode="&#x2c6;" horiz-adv-x="437" 
d="M22 523l108 177h176l109 -177h-170l-28 58l-25 -58h-170z" />
    <glyph glyph-name="caron" unicode="&#x2c7;" horiz-adv-x="437" 
d="M130 523l-108 177h170l26 -49l27 49h170l-109 -177h-176z" />
    <glyph glyph-name="uni02C9" unicode="&#x2c9;" horiz-adv-x="396" 
d="M24 525v138h348v-138h-348z" />
    <glyph glyph-name="breve" unicode="&#x2d8;" horiz-adv-x="377" 
d="M226 658v42h126v-41q0 -72 -46 -110t-117 -38t-117.5 38t-46.5 110v41h126v-42q0 -15 10 -25t28 -10q17 0 27 9.5t10 25.5z" />
    <glyph glyph-name="dotaccent" unicode="&#x2d9;" horiz-adv-x="242" 
d="M121 703q38 0 64.5 -26.5t26.5 -62.5t-26.5 -62.5t-64.5 -26.5t-64.5 26.5t-26.5 62.5t26.5 62.5t64.5 26.5z" />
    <glyph glyph-name="ring" unicode="&#x2da;" horiz-adv-x="347" 
d="M173 494q-59 0 -98.5 37.5t-39.5 92.5q0 57 39.5 94t98.5 37t98.5 -37t39.5 -94q0 -55 -39.5 -92.5t-98.5 -37.5zM173 576q19 0 32 14t13 34q0 21 -13 35t-32 14t-32 -14t-13 -35q0 -20 13 -34t32 -14z" />
    <glyph glyph-name="ogonek" unicode="&#x2db;" horiz-adv-x="332" 
d="M240 18l-2 -6q-29 -18 -47 -42.5t-18 -43.5q0 -33 48 -33q35 0 64 13l-4 -81q-69 -28 -118 -28q-55 0 -90.5 26t-35.5 70q0 43 45.5 79.5t104.5 48.5z" />
    <glyph glyph-name="tilde" unicode="&#x2dc;" horiz-adv-x="434" 
d="M31 505v17q0 150 117 150q18 0 60.5 -15.5t55.5 -15.5q19 0 19 22v6h120v-16q0 -150 -117 -150q-18 0 -60.5 15t-55.5 15q-19 0 -19 -22v-6h-120z" />
    <glyph glyph-name="hungarumlaut" unicode="&#x2dd;" horiz-adv-x="510" 
d="M18 523l42 177h209l-98 -177h-153zM241 523l41 177h209l-97 -177h-153z" />
    <glyph glyph-name="Delta" unicode="&#x394;" horiz-adv-x="710" 
d="M445 700l235 -548v-152h-650v152l235 548h180zM499 149l-144 348l-144 -348h288z" />
    <glyph glyph-name="Delta" unicode="&#x2206;" horiz-adv-x="710" 
d="M445 700l235 -548v-152h-650v152l235 548h180zM499 149l-144 348l-144 -348h288z" />
    <glyph glyph-name="Omega" unicode="&#x3a9;" horiz-adv-x="760" 
d="M380 712q151 0 247 -80t96 -207q0 -103 -55.5 -163.5t-133.5 -72.5v-40h138v-149h-280v284q55 6 98 42.5t43 94.5q0 63 -45.5 96.5t-107.5 33.5t-107.5 -33.5t-45.5 -96.5q0 -58 43 -94.5t98 -42.5v-284h-280v149h138v40q-78 12 -133.5 72.5t-55.5 163.5q0 127 96 207
t247 80z" />
    <glyph glyph-name="Omega" unicode="&#x2126;" horiz-adv-x="760" 
d="M380 712q151 0 247 -80t96 -207q0 -103 -55.5 -163.5t-133.5 -72.5v-40h138v-149h-280v284q55 6 98 42.5t43 94.5q0 63 -45.5 96.5t-107.5 33.5t-107.5 -33.5t-45.5 -96.5q0 -58 43 -94.5t98 -42.5v-284h-280v149h138v40q-78 12 -133.5 72.5t-55.5 163.5q0 127 96 207
t247 80z" />
    <glyph glyph-name="pi" unicode="&#x3c0;" horiz-adv-x="600" 
d="M502 328v-164q0 -13 6 -19.5t12.5 -7.5t18.5 -1l26 3v-138q-55 -6 -94 -6q-129 0 -129 108v225h-96v-328h-160v328h-63v137h539v-137h-60z" />
    <glyph glyph-name="pi" unicode="&#x3d6;" horiz-adv-x="600" 
d="M502 328v-164q0 -13 6 -19.5t12.5 -7.5t18.5 -1l26 3v-138q-55 -6 -94 -6q-129 0 -129 108v225h-96v-328h-160v328h-63v137h539v-137h-60z" />
    <glyph glyph-name="Wgrave" unicode="&#x1e80;" horiz-adv-x="971" 
d="M402 700h173l114 -433h1l93 433h177l-170 -700h-184l-121 477l-118 -477h-186l-170 700h185l89 -433h1zM517 935l41 -177h-153l-97 177h209z" />
    <glyph glyph-name="wgrave" unicode="&#x1e81;" horiz-adv-x="747" 
d="M452 465l65 -247l54 247h165l-114 -465h-183l-68 250l-69 -250h-182l-106 465h170l46 -241l67 241h155zM405 700l41 -177h-153l-97 177h209z" />
    <glyph glyph-name="Wacute" unicode="&#x1e82;" horiz-adv-x="971" 
d="M402 700h173l114 -433h1l93 433h177l-170 -700h-184l-121 477l-118 -477h-186l-170 700h185l89 -433h1zM419 758l41 177h209l-98 -177h-152z" />
    <glyph glyph-name="wacute" unicode="&#x1e83;" horiz-adv-x="747" 
d="M452 465l65 -247l54 247h165l-114 -465h-183l-68 250l-69 -250h-182l-106 465h170l46 -241l67 241h155zM303 523l41 177h209l-98 -177h-152z" />
    <glyph glyph-name="Wdieresis" unicode="&#x1e84;" horiz-adv-x="971" 
d="M402 700h173l114 -433h1l93 433h177l-170 -700h-184l-121 477l-118 -477h-186l-170 700h185l89 -433h1zM291 829q0 37 26.5 64t64.5 27q36 0 63.5 -27t27.5 -64q0 -36 -27.5 -62.5t-63.5 -26.5q-38 0 -64.5 26.5t-26.5 62.5zM499 829q0 37 26.5 64t63.5 27q36 0 63.5 -27
t27.5 -64q0 -36 -27.5 -62.5t-63.5 -26.5q-37 0 -63.5 26.5t-26.5 62.5z" />
    <glyph glyph-name="wdieresis" unicode="&#x1e85;" horiz-adv-x="747" 
d="M452 465l65 -247l54 247h165l-114 -465h-183l-68 250l-69 -250h-182l-106 465h170l46 -241l67 241h155zM179 594q0 37 26.5 64t64.5 27q36 0 63.5 -27t27.5 -64q0 -36 -27.5 -62.5t-63.5 -26.5q-38 0 -64.5 26.5t-26.5 62.5zM387 594q0 37 26.5 64t63.5 27q36 0 63.5 -27
t27.5 -64q0 -36 -27.5 -62.5t-63.5 -26.5q-37 0 -63.5 26.5t-26.5 62.5z" />
    <glyph glyph-name="Ygrave" unicode="&#x1ef2;" horiz-adv-x="687" 
d="M259 281l-265 419h211l139 -235h7l137 235h203l-261 -416v-284h-171v281zM381 935l41 -177h-153l-97 177h209z" />
    <glyph glyph-name="ygrave" unicode="&#x1ef3;" horiz-adv-x="522" 
d="M187 -18l6 18h-35l-154 465h179l80 -296l79 296h175l-176 -536q-18 -54 -49.5 -79.5t-93.5 -25.5h-111v137h71q22 0 29 21zM300 700l41 -177h-153l-97 177h209z" />
    <glyph glyph-name="endash" unicode="&#x2013;" horiz-adv-x="500" 
d="M40 205v137h420v-137h-420z" />
    <glyph glyph-name="emdash" unicode="&#x2014;" horiz-adv-x="1000" 
d="M40 205v137h920v-137h-920z" />
    <glyph glyph-name="quoteleft" unicode="&#x2018;" horiz-adv-x="288" 
d="M238 495q0 -42 -29 -71.5t-71 -29.5q-44 0 -74.5 29.5t-30.5 71.5q0 29 15 57l86 160h129l-63 -139q38 -29 38 -78z" />
    <glyph glyph-name="quoteright" unicode="&#x2019;" horiz-adv-x="300" 
d="M65 612q0 42 29 71t71 29q44 0 74.5 -29t30.5 -71q0 -29 -15 -57l-86 -161h-129l63 140q-38 28 -38 78z" />
    <glyph glyph-name="quotesinglbase" unicode="&#x201a;" horiz-adv-x="287" 
d="M41 88q0 42 29 71t71 29q44 0 74.5 -29t30.5 -71q0 -29 -15 -57l-86 -161h-129l63 140q-38 28 -38 78z" />
    <glyph glyph-name="quotedblleft" unicode="&#x201c;" horiz-adv-x="534" 
d="M238 495q0 -42 -29 -71.5t-70 -29.5q-44 0 -75 29.5t-31 71.5q0 30 16 57l85 160h130l-64 -139q38 -29 38 -78zM484 495q0 -42 -29 -71.5t-70 -29.5q-44 0 -75 29.5t-31 71.5q0 30 16 57l85 160h130l-64 -139q38 -29 38 -78z" />
    <glyph glyph-name="quotedblright" unicode="&#x201d;" horiz-adv-x="546" 
d="M65 612q0 42 29.5 71t70.5 29q44 0 75 -29t31 -71q0 -27 -16 -57l-85 -161h-130l64 140q-39 29 -39 78zM311 612q0 42 29.5 71t70.5 29q44 0 75 -29t31 -71q0 -27 -16 -57l-85 -161h-130l64 140q-39 29 -39 78z" />
    <glyph glyph-name="quotedblbase" unicode="&#x201e;" horiz-adv-x="532" 
d="M40 88q0 42 29.5 71t70.5 29q44 0 75 -29t31 -71q0 -27 -16 -57l-85 -161h-130l64 140q-39 29 -39 78zM286 88q0 42 29.5 71t70.5 29q44 0 75 -29t31 -71q0 -27 -16 -57l-85 -161h-130l64 140q-39 29 -39 78z" />
    <glyph glyph-name="dagger" unicode="&#x2020;" horiz-adv-x="520" 
d="M37 388v147h145v165h156v-165h145v-147h-145v-388h-156v388h-145z" />
    <glyph glyph-name="daggerdbl" unicode="&#x2021;" horiz-adv-x="520" 
d="M37 178v147h145v63h-145v147h145v165h156v-165h145v-147h-145v-63h145v-147h-145v-178h-156v178h-145z" />
    <glyph glyph-name="bullet" unicode="&#x2022;" horiz-adv-x="381" 
d="M64 359q0 53 37 90t89 37t89.5 -37t37.5 -90q0 -52 -37 -89t-90 -37q-52 0 -89 36.5t-37 89.5z" />
    <glyph glyph-name="ellipsis" unicode="&#x2026;" horiz-adv-x="998" 
d="M41 88q0 42 29 71.5t70 29.5q43 0 72 -29.5t29 -71.5t-29.5 -71t-71.5 -29q-41 0 -70 29.5t-29 70.5zM399 88q0 42 29.5 71.5t70.5 29.5q42 0 71.5 -29.5t29.5 -71.5q0 -41 -29.5 -70.5t-71.5 -29.5q-41 0 -70.5 29.5t-29.5 70.5zM758 88q0 42 29 71.5t70 29.5
q43 0 72 -29.5t29 -71.5t-29 -71t-72 -29q-41 0 -70 29.5t-29 70.5z" />
    <glyph glyph-name="perthousand" unicode="&#x2030;" horiz-adv-x="1090" 
d="M395 547q0 -69 -50.5 -117t-121.5 -48q-72 0 -122.5 47.5t-50.5 117.5t50.5 117.5t122.5 47.5q71 0 121.5 -48t50.5 -117zM170 547q0 -24 15.5 -39.5t37.5 -15.5q21 0 36.5 15.5t15.5 39.5t-15.5 39.5t-36.5 15.5q-22 0 -37.5 -15.5t-15.5 -39.5zM690 537l-590 -454
l-56 78l587 450zM689 153q0 -69 -50.5 -117t-121.5 -48q-72 0 -122.5 47.5t-50.5 117.5t50.5 117.5t122.5 47.5q71 0 121.5 -48t50.5 -117zM464 153q0 -24 15.5 -39.5t37.5 -15.5q21 0 36.5 15.5t15.5 39.5t-15.5 39.5t-36.5 15.5q-22 0 -37.5 -15.5t-15.5 -39.5zM1060 153
q0 -69 -50.5 -117t-121.5 -48q-72 0 -122.5 47.5t-50.5 117.5t50.5 117.5t122.5 47.5q71 0 121.5 -48t50.5 -117zM835 153q0 -24 15.5 -39.5t37.5 -15.5q21 0 36.5 15.5t15.5 39.5t-15.5 39.5t-36.5 15.5q-22 0 -37.5 -15.5t-15.5 -39.5z" />
    <glyph glyph-name="guilsinglleft" unicode="&#x2039;" horiz-adv-x="360" 
d="M159 46l-130 192l130 191h165l-118 -191l118 -192h-165z" />
    <glyph glyph-name="guilsinglright" unicode="&#x203a;" horiz-adv-x="360" 
d="M331 238l-130 -192h-165l118 192l-118 191h165z" />
    <glyph glyph-name="fraction" unicode="&#x2044;" horiz-adv-x="220" 
d="M417 741l58 -55l-673 -723l-58 55z" />
    <glyph glyph-name="zerosuperior" unicode="&#x2070;" 
d="M215 707q74 0 120.5 -57.5t46.5 -169.5t-46.5 -169.5t-120.5 -57.5q-75 0 -121.5 57.5t-46.5 169.5t46.5 169.5t121.5 57.5zM166 480q0 -115 49 -115q48 0 48 115q0 117 -48 117q-49 0 -49 -117z" />
    <glyph glyph-name="foursuperior" unicode="&#x2074;" 
d="M39 352v122l148 226h141v-247h52v-101h-52v-92h-114v92h-175zM212 574l-76 -121h78v121h-2z" />
    <glyph glyph-name="fivesuperior" unicode="&#x2075;" 
d="M375 410q0 -71 -39.5 -114t-116.5 -43t-117 37t-40 100v19h122v-16q0 -42 32 -42q34 0 34 53q0 51 -39 51q-20 0 -32 -14l-103 10v249h281v-106h-176v-57h2q25 17 62 17q59 0 94.5 -40t35.5 -104z" />
    <glyph glyph-name="sixsuperior" unicode="&#x2076;" 
d="M205 700h154l-14 -13q-115 -104 -153 -155l3 -2q23 13 54 13q57 0 96 -38.5t39 -97.5q0 -68 -45.5 -111t-116.5 -43q-77 0 -123.5 48.5t-46.5 120.5q0 135 140 266zM172 401q0 -21 12 -35t35 -14q22 0 34 14t12 35q0 22 -12 36t-34 14q-23 0 -35 -14t-12 -36z" />
    <glyph glyph-name="sevensuperior" unicode="&#x2077;" 
d="M231 260h-136l151 330h-184v110h309v-104z" />
    <glyph glyph-name="eightsuperior" unicode="&#x2078;" 
d="M215 353q21 0 33 12t12 30t-12 30t-33 12t-33 -12t-12 -30t12 -30t33 -12zM215 707q71 0 114 -35.5t43 -88.5q0 -29 -16.5 -55.5t-47.5 -38.5q34 -13 53 -41.5t19 -62.5q0 -58 -45.5 -95t-119.5 -37q-75 0 -120.5 37t-45.5 95q0 34 19.5 62.5t53.5 41.5
q-31 12 -47.5 38.5t-16.5 55.5q0 53 42.5 88.5t114.5 35.5zM215 531q19 0 29 11.5t10 27.5t-10 27.5t-29 11.5q-20 0 -30 -11.5t-10 -27.5t10 -27.5t30 -11.5z" />
    <glyph glyph-name="ninesuperior" unicode="&#x2079;" 
d="M224 260h-154l14 13q118 107 153 155l-3 2q-23 -13 -54 -13q-57 0 -96 38.5t-39 97.5q0 68 45.5 111t116.5 43q77 0 123.5 -48.5t46.5 -120.5q0 -135 -140 -266zM257 560q0 20 -12 34t-34 14q-23 0 -35 -14t-12 -34q0 -22 12 -36.5t35 -14.5q22 0 34 14.5t12 36.5z" />
    <glyph glyph-name="zeroinferior" unicode="&#x2080;" 
d="M215 455q74 0 120.5 -57.5t46.5 -169.5t-46.5 -169.5t-120.5 -57.5q-75 0 -121.5 57.5t-46.5 169.5t46.5 169.5t121.5 57.5zM166 228q0 -115 49 -115q48 0 48 115q0 117 -48 117q-49 0 -49 -117z" />
    <glyph glyph-name="oneinferior" unicode="&#x2081;" 
d="M87 344v104h195v-336h84v-104h-287v104h83v232h-75z" />
    <glyph glyph-name="twoinferior" unicode="&#x2082;" 
d="M58 8v110q88 61 138 103q33 28 43.5 46.5t10.5 38.5q0 19 -12 30t-29 11t-29 -10.5t-12 -27.5t7 -35l-109 -15q-16 37 -16 68q0 51 43.5 89.5t115.5 38.5q79 0 121.5 -42t42.5 -97t-30.5 -94.5t-100.5 -88.5l-27 -19h159v-106h-316z" />
    <glyph glyph-name="threeinferior" unicode="&#x2083;" 
d="M209 1q-76 0 -115.5 37t-39.5 100v19h122v-16q0 -42 32 -42q35 0 35 45q0 50 -51 50q-26 0 -48 -5v97l83 58h-155v104h282v-112l-93 -67q46 -5 77 -39t31 -83q0 -68 -43 -107t-117 -39z" />
    <glyph glyph-name="fourinferior" unicode="&#x2084;" 
d="M39 100v122l148 226h141v-247h52v-101h-52v-92h-114v92h-175zM212 322l-76 -121h78v121h-2z" />
    <glyph glyph-name="fiveinferior" unicode="&#x2085;" 
d="M375 158q0 -71 -39.5 -114t-116.5 -43t-117 37t-40 100v19h122v-16q0 -42 32 -42q34 0 34 53q0 51 -39 51q-20 0 -32 -14l-103 10v249h281v-106h-176v-57h2q25 17 62 17q59 0 94.5 -40t35.5 -104z" />
    <glyph glyph-name="sixinferior" unicode="&#x2086;" 
d="M205 448h154l-14 -13q-115 -104 -153 -155l3 -2q23 13 54 13q57 0 96 -38.5t39 -97.5q0 -68 -45.5 -111t-116.5 -43q-77 0 -123.5 48.5t-46.5 120.5q0 135 140 266zM172 149q0 -21 12 -35t35 -14q22 0 34 14t12 35q0 22 -12 36t-34 14q-23 0 -35 -14t-12 -36z" />
    <glyph glyph-name="seveninferior" unicode="&#x2087;" 
d="M231 8h-136l151 330h-184v110h309v-104z" />
    <glyph glyph-name="eightinferior" unicode="&#x2088;" 
d="M215 101q21 0 33 12t12 30t-12 30t-33 12t-33 -12t-12 -30t12 -30t33 -12zM215 455q71 0 114 -35.5t43 -88.5q0 -29 -16.5 -55.5t-47.5 -38.5q34 -13 53 -41.5t19 -62.5q0 -58 -45.5 -95t-119.5 -37q-75 0 -120.5 37t-45.5 95q0 34 19.5 62.5t53.5 41.5
q-31 12 -47.5 38.5t-16.5 55.5q0 53 42.5 88.5t114.5 35.5zM215 279q19 0 29 11.5t10 27.5t-10 27.5t-29 11.5q-20 0 -30 -11.5t-10 -27.5t10 -27.5t30 -11.5z" />
    <glyph glyph-name="nineinferior" unicode="&#x2089;" 
d="M224 8h-154l14 13q118 107 153 155l-3 2q-23 -13 -54 -13q-57 0 -96 38.5t-39 97.5q0 68 45.5 111t116.5 43q77 0 123.5 -48.5t46.5 -120.5q0 -135 -140 -266zM257 308q0 20 -12 34t-34 14q-23 0 -35 -14t-12 -34q0 -22 12 -36.5t35 -14.5q22 0 34 14.5t12 36.5z" />
    <glyph glyph-name="Euro" unicode="&#x20ac;" horiz-adv-x="790" 
d="M37 375v108h60q35 106 121.5 167.5t205.5 61.5q122 0 211 -72.5t118 -204.5h-193q-34 115 -140 115q-88 0 -132 -67h182v-108h-214q-1 -8 -1 -25t1 -25h214v-107h-183q43 -68 133 -68q106 0 140 115h195q-30 -132 -119.5 -204.5t-211.5 -72.5q-117 0 -203.5 62
t-122.5 168h-61v107h41q-1 8 -1 25q0 16 1 25h-41z" />
    <glyph glyph-name="afii61289" unicode="&#x2113;" horiz-adv-x="374" 
d="M326 588q0 -127 -137 -258v-231q0 -41 20.5 -61t48.5 -20q61 0 72 73h20q-5 -40 -28 -64.5t-44.5 -31t-44.5 -6.5q-61 0 -100.5 40t-39.5 135v86q-33 -26 -52 -40l-17 19q15 10 32.5 23.5t27.5 21.5l9 7v260q0 80 34 126t97 46q50 0 76 -32.5t26 -92.5zM187 620v-260
q113 111 113 234q0 37 -15.5 66.5t-46.5 29.5q-21 0 -36 -16.5t-15 -53.5z" />
    <glyph glyph-name="trademark" unicode="&#x2122;" horiz-adv-x="1150" 
d="M825 526l64 174h195v-432h-156v246l-61 -154h-88l-61 152v-244h-153v432h197zM56 700h450v-145h-149v-287h-154v287h-147v145z" />
    <glyph glyph-name="estimated" unicode="&#x212e;" horiz-adv-x="867" 
d="M190 332v-172q0 -40 45.5 -73.5t101.5 -50t100 -16.5q79 0 148.5 28.5t116.5 82.5h47q-114 -142 -312 -142q-163 0 -279 106.5t-116 257.5q0 149 115 254t280 105q178 0 287.5 -105.5t109.5 -262.5h-635q-9 0 -9 -12zM199 375h477q9 0 9 9v168q0 41 -45 72t-99.5 44.5
t-103.5 13.5q-45 0 -99.5 -13.5t-101 -44.5t-46.5 -72v-168q0 -9 9 -9z" />
    <glyph glyph-name="onethird" unicode="&#x2153;" horiz-adv-x="1080" 
d="M87 596v104h195v-336h84v-104h-287v104h83v232h-75zM860 -8q-76 0 -115.5 37t-39.5 100v19h122v-16q0 -42 32 -42q35 0 35 45q0 50 -51 50q-25 0 -48 -5v97l83 58h-155v104h282v-112l-93 -67q46 -5 77 -39t31 -83q0 -68 -43 -107t-117 -39zM856 741l58 -55l-673 -723
l-58 55z" />
    <glyph glyph-name="twothirds" unicode="&#x2154;" horiz-adv-x="1080" 
d="M70 260v110q88 61 138 103q33 28 43.5 46.5t10.5 38.5q0 19 -12 30t-29 11t-29 -10.5t-12 -27.5t7 -35l-109 -15q-16 37 -16 68q0 51 43.5 89.5t115.5 38.5q79 0 121.5 -42t42.5 -97t-30.5 -94.5t-100.5 -88.5l-27 -19h159v-106h-316zM856 741l58 -55l-673 -723l-58 55z
M860 -8q-76 0 -115.5 37t-39.5 100v19h122v-16q0 -42 32 -42q35 0 35 45q0 50 -51 50q-25 0 -48 -5v97l83 58h-155v104h282v-112l-93 -67q46 -5 77 -39t31 -83q0 -68 -43 -107t-117 -39z" />
    <glyph glyph-name="oneeighth" unicode="&#x215b;" horiz-adv-x="1080" 
d="M87 596v104h195v-336h84v-104h-287v104h83v232h-75zM850 92q21 0 33 12t12 30t-12 30t-33 12t-33 -12t-12 -30t12 -30t33 -12zM850 446q71 0 114 -35.5t43 -88.5q0 -29 -16.5 -55.5t-47.5 -38.5q34 -13 53 -41.5t19 -62.5q0 -58 -45.5 -95t-119.5 -37q-75 0 -120.5 37
t-45.5 95q0 34 19.5 62.5t53.5 41.5q-31 12 -47.5 38.5t-16.5 55.5q0 53 42.5 88.5t114.5 35.5zM850 270q19 0 29 11.5t10 27.5t-10 27.5t-29 11.5q-20 0 -30 -11.5t-10 -27.5t10 -27.5t30 -11.5zM856 741l58 -55l-673 -723l-58 55z" />
    <glyph glyph-name="threeeighths" unicode="&#x215c;" horiz-adv-x="1080" 
d="M238 253q-76 0 -115.5 37t-39.5 100v19h122v-16q0 -42 32 -42q35 0 35 45q0 50 -51 50q-25 0 -48 -5v97l83 58h-155v104h282v-112l-93 -67q46 -5 77 -39t31 -83q0 -68 -43 -107t-117 -39zM856 741l58 -55l-673 -723l-58 55zM850 92q21 0 33 12t12 30t-12 30t-33 12
t-33 -12t-12 -30t12 -30t33 -12zM850 446q71 0 114 -35.5t43 -88.5q0 -29 -16.5 -55.5t-47.5 -38.5q34 -13 53 -41.5t19 -62.5q0 -58 -45.5 -95t-119.5 -37q-75 0 -120.5 37t-45.5 95q0 34 19.5 62.5t53.5 41.5q-31 12 -47.5 38.5t-16.5 55.5q0 53 42.5 88.5t114.5 35.5z
M850 270q19 0 29 11.5t10 27.5t-10 27.5t-29 11.5q-20 0 -30 -11.5t-10 -27.5t10 -27.5t30 -11.5z" />
    <glyph glyph-name="fiveeighths" unicode="&#x215d;" horiz-adv-x="1080" 
d="M402 410q0 -71 -39.5 -114t-116.5 -43t-117 37t-40 100v19h122v-16q0 -42 32 -42q34 0 34 53q0 51 -39 51q-20 0 -32 -14l-103 10v249h281v-106h-176v-57h2q26 17 62 17q59 0 94.5 -40t35.5 -104zM856 741l58 -55l-673 -723l-58 55zM850 92q21 0 33 12t12 30t-12 30
t-33 12t-33 -12t-12 -30t12 -30t33 -12zM850 446q71 0 114 -35.5t43 -88.5q0 -29 -16.5 -55.5t-47.5 -38.5q34 -13 53 -41.5t19 -62.5q0 -58 -45.5 -95t-119.5 -37q-75 0 -120.5 37t-45.5 95q0 34 19.5 62.5t53.5 41.5q-31 12 -47.5 38.5t-16.5 55.5q0 53 42.5 88.5
t114.5 35.5zM850 270q19 0 29 11.5t10 27.5t-10 27.5t-29 11.5q-20 0 -30 -11.5t-10 -27.5t10 -27.5t30 -11.5z" />
    <glyph glyph-name="seveneighths" unicode="&#x215e;" horiz-adv-x="1080" 
d="M282 260h-136l151 330h-184v110h309v-104zM856 741l58 -55l-673 -723l-58 55zM850 92q21 0 33 12t12 30t-12 30t-33 12t-33 -12t-12 -30t12 -30t33 -12zM850 446q71 0 114 -35.5t43 -88.5q0 -29 -16.5 -55.5t-47.5 -38.5q34 -13 53 -41.5t19 -62.5q0 -58 -45.5 -95
t-119.5 -37q-75 0 -120.5 37t-45.5 95q0 34 19.5 62.5t53.5 41.5q-31 12 -47.5 38.5t-16.5 55.5q0 53 42.5 88.5t114.5 35.5zM850 270q19 0 29 11.5t10 27.5t-10 27.5t-29 11.5q-20 0 -30 -11.5t-10 -27.5t10 -27.5t30 -11.5z" />
    <glyph glyph-name="partialdiff" unicode="&#x2202;" horiz-adv-x="558" 
d="M327 700q206 -230 206 -433q0 -50 -15.5 -98t-45.5 -89.5t-81.5 -66.5t-116.5 -25q-106 0 -179 69t-73 174q0 104 62 170.5t159 66.5q58 0 94 -32l3 5q-117 150 -229 259h216zM276 327q-38 0 -62 -26.5t-24 -67.5t24.5 -68t61.5 -27t61.5 27t24.5 68t-24 67.5t-62 26.5z
" />
    <glyph glyph-name="product" unicode="&#x220f;" horiz-adv-x="824" 
d="M615 405q0 -66 -47.5 -110.5t-126.5 -44.5h-56v-97h-117v407h173q79 0 126.5 -44.5t47.5 -110.5zM491 405q0 55 -74 55h-32v-110h32q74 0 74 55zM412 720q159 0 267 -105.5t108 -266.5q0 -162 -108 -267t-267 -105t-267 105t-108 267q0 161 108 266.5t267 105.5zM412 59
q122 0 199 81.5t77 207.5q0 125 -77 206t-199 81t-199 -81t-77 -206q0 -126 77 -207.5t199 -81.5z" />
    <glyph glyph-name="summation" unicode="&#x2211;" horiz-adv-x="650" 
d="M602 700v-149h-340l146 -162v-58l-149 -182h343v-149h-557v135l189 220l-189 210v135h557z" />
    <glyph glyph-name="minus" unicode="&#x2212;" horiz-adv-x="520" 
d="M37 283v147h446v-147h-446z" />
    <glyph glyph-name="uni2215" unicode="&#x2215;" horiz-adv-x="705" 
d="M660 741l58 -55l-673 -723l-58 55z" />
    <glyph glyph-name="radical" unicode="&#x221a;" horiz-adv-x="555" 
d="M185 465l66 -285l133 520h172l-203 -700h-206l-133 465h171z" />
    <glyph glyph-name="infinity" unicode="&#x221e;" horiz-adv-x="950" 
d="M669 106q-123 0 -194 98q-71 -98 -194 -98q-95 0 -163.5 65t-68.5 180t68.5 180t163.5 65q122 0 194 -98q70 98 194 98q95 0 163.5 -65t68.5 -180t-68.5 -180t-163.5 -65zM733 351q0 49 -25 70t-54 21q-75 0 -119 -91q44 -91 119 -91q29 0 54 21t25 70zM217 351
q0 -49 25 -70t54 -21q75 0 119 91q-44 91 -119 91q-29 0 -54 -21t-25 -70z" />
    <glyph glyph-name="integral" unicode="&#x222b;" horiz-adv-x="406" 
d="M288 498v-539q0 -58 -32 -96.5t-104 -38.5h-136v155h35q17 0 25 0.5t20 4.5t17.5 14.5t5.5 27.5v539q0 58 32 96.5t104 38.5h136v-155h-35q-17 0 -25 -0.5t-20 -4.5t-17.5 -14.5t-5.5 -27.5z" />
    <glyph glyph-name="approxequal" unicode="&#x2248;" horiz-adv-x="520" 
d="M375 368q-25 0 -94 19.5t-75 19.5q-23 0 -23 -19v-18h-146v76q0 17 0.5 27.5t6.5 30.5t16.5 31.5t32 21t52.5 9.5q25 0 94 -19.5t75 -19.5q23 0 23 19v18h146v-76q0 -17 -0.5 -27.5t-6.5 -30.5t-16.5 -31.5t-32 -21t-52.5 -9.5zM375 147q-25 0 -94 19.5t-75 19.5
q-23 0 -23 -19v-18h-146v76q0 17 0.5 27.5t6.5 30.5t16.5 31.5t32 21t52.5 9.5q25 0 94 -19.5t75 -19.5q23 0 23 19v18h146v-76q0 -17 -0.5 -27.5t-6.5 -30.5t-16.5 -31.5t-32 -21t-52.5 -9.5z" />
    <glyph glyph-name="notequal" unicode="&#x2260;" horiz-adv-x="520" 
d="M37 388v147h145v45h156v-45h145v-147h-145v-63h145v-147h-145v-45h-156v45h-145v147h145v63h-145z" />
    <glyph glyph-name="lessequal" unicode="&#x2264;" horiz-adv-x="520" 
d="M480 147v-147h-446v147h446zM480 346v-160l-446 161v198l446 161v-160l-313 -100z" />
    <glyph glyph-name="greaterequal" unicode="&#x2265;" horiz-adv-x="520" 
d="M39 186v160l313 100l-313 100v160l446 -161v-198zM39 0v147h446v-147h-446z" />
    <glyph glyph-name="lozenge" unicode="&#x25ca;" horiz-adv-x="580" 
d="M376 700l173 -349l-173 -351h-172l-173 351l173 349h172zM367 351l-77 168l-77 -168l77 -171z" />
    <glyph glyph-name="ff" unicode="&#xe389;" horiz-adv-x="659" 
d="M397 465v118q0 129 144 129l110 -7v-148q-46 5 -58 5q-36 0 -36 -31v-66h87v-137h-87v-328h-160v328h-153v-328h-160v328h-71v137h71v118q0 129 144 129l110 -7v-148q-46 5 -58 5q-36 0 -36 -31v-66h153z" />
    <glyph glyph-name="ffi" unicode="&#xe38a;" horiz-adv-x="919" 
d="M870 465v-465h-160v328h-153v-328h-160v328h-153v-328h-160v328h-71v137h71v118q0 129 144 129l110 -7v-148q-46 5 -58 5q-36 0 -36 -31v-66h153v118q0 129 144 129l110 -7v-148q-46 5 -58 5q-36 0 -36 -31v-66h313zM688 619q0 41 28 69t68 28t68.5 -28t28.5 -69
q0 -40 -28 -68t-69 -28q-40 0 -68 27.5t-28 68.5z" />
    <glyph glyph-name="ffi" unicode="&#xfb03;" horiz-adv-x="919" 
d="M870 465v-465h-160v328h-153v-328h-160v328h-153v-328h-160v328h-71v137h71v118q0 129 144 129l110 -7v-148q-46 5 -58 5q-36 0 -36 -31v-66h153v118q0 129 144 129l110 -7v-148q-46 5 -58 5q-36 0 -36 -31v-66h313zM688 619q0 41 28 69t68 28t68.5 -28t28.5 -69
q0 -40 -28 -68t-69 -28q-40 0 -68 27.5t-28 68.5z" />
    <glyph glyph-name="ffl" unicode="&#xe38b;" horiz-adv-x="920" 
d="M870 700v-700h-160v328h-153v-328h-160v328h-153v-328h-160v328h-71v137h71v118q0 129 144 129l110 -7v-148q-46 5 -58 5q-36 0 -36 -31v-66h153v118q0 129 144 129l110 -7v-148q-46 5 -58 5q-36 0 -36 -31v-66h153v235h160z" />
    <glyph glyph-name="ffl" unicode="&#xfb04;" horiz-adv-x="920" 
d="M870 700v-700h-160v328h-153v-328h-160v328h-153v-328h-160v328h-71v137h71v118q0 129 144 129l110 -7v-148q-46 5 -58 5q-36 0 -36 -31v-66h153v118q0 129 144 129l110 -7v-148q-46 5 -58 5q-36 0 -36 -31v-66h153v235h160z" />
    <glyph glyph-name="fi" unicode="&#xe38c;" horiz-adv-x="606" 
d="M557 465v-465h-160v328h-153v-328h-160v328h-71v137h71v118q0 129 144 129l110 -7v-148q-46 5 -58 5q-36 0 -36 -31v-66h313zM375 619q0 41 28 69t68 28q41 0 69 -28t28 -69q0 -40 -28 -68t-69 -28t-68.5 27.5t-27.5 68.5z" />
    <glyph glyph-name="fi" unicode="&#xfb01;" horiz-adv-x="606" 
d="M557 465v-465h-160v328h-153v-328h-160v328h-71v137h71v118q0 129 144 129l110 -7v-148q-46 5 -58 5q-36 0 -36 -31v-66h313zM375 619q0 41 28 69t68 28q41 0 69 -28t28 -69q0 -40 -28 -68t-69 -28t-68.5 27.5t-27.5 68.5z" />
    <glyph glyph-name="fl" unicode="&#xe38d;" horiz-adv-x="607" 
d="M557 700v-700h-160v328h-153v-328h-160v328h-71v137h71v118q0 129 144 129l110 -7v-148q-46 5 -58 5q-36 0 -36 -31v-66h153v235h160z" />
    <glyph glyph-name="fl" unicode="&#xfb02;" horiz-adv-x="607" 
d="M557 700v-700h-160v328h-153v-328h-160v328h-71v137h71v118q0 129 144 129l110 -7v-148q-46 5 -58 5q-36 0 -36 -31v-66h153v235h160z" />
    <glyph glyph-name="ampersand.smcp" unicode="&#xe401;" horiz-adv-x="619" 
d="M431 0l-51 48q-54 -58 -163 -58q-76 0 -128.5 46t-52.5 119q0 49 28 91.5t79 66.5q-37 52 -37 101q0 22 9.5 46.5t30 50.5t60 42.5t91.5 16.5q72 0 122.5 -39t50.5 -93q0 -45 -18 -70l-134 3q9 14 9 28q0 34 -32 34q-16 0 -24.5 -9.5t-8.5 -23.5q0 -21 27 -50l85 -86
q14 27 20 59h179q-54 -123 -86 -165l120 -118v-40h-176zM204 164q0 -17 10.5 -26t25.5 -9q24 0 36 19l-51 50q-21 -12 -21 -34z" />
    <glyph glyph-name="ampersand.smcp" unicode="&#xf726;" horiz-adv-x="619" 
d="M431 0l-51 48q-54 -58 -163 -58q-76 0 -128.5 46t-52.5 119q0 49 28 91.5t79 66.5q-37 52 -37 101q0 22 9.5 46.5t30 50.5t60 42.5t91.5 16.5q72 0 122.5 -39t50.5 -93q0 -45 -18 -70l-134 3q9 14 9 28q0 34 -32 34q-16 0 -24.5 -9.5t-8.5 -23.5q0 -21 27 -50l85 -86
q14 27 20 59h179q-54 -123 -86 -165l120 -118v-40h-176zM204 164q0 -17 10.5 -26t25.5 -9q24 0 36 19l-51 50q-21 -12 -21 -34z" />
    <glyph glyph-name="commaaccent" unicode="&#xe414;" horiz-adv-x="291" 
d="M55 -145q0 38 26 64.5t64 26.5q40 0 68 -26.5t28 -64.5q0 -27 -16 -55l-67 -116h-108l39 100q-34 26 -34 71z" />
    <glyph glyph-name="commaaccent" unicode="&#xf6c3;" horiz-adv-x="291" 
d="M55 -145q0 38 26 64.5t64 26.5q40 0 68 -26.5t28 -64.5q0 -27 -16 -55l-67 -116h-108l39 100q-34 26 -34 71z" />
    <glyph glyph-name="zero.smcp" unicode="&#xe43b;" horiz-adv-x="500" 
d="M250 570q91 0 151 -74t60 -215q0 -142 -60 -216.5t-151 -74.5q-93 0 -152.5 74.5t-59.5 216.5q0 141 60 215t152 74zM195 281q0 -142 55 -142q53 0 53 142q0 144 -53 144q-55 0 -55 -144z" />
    <glyph glyph-name="zero.smcp" unicode="&#xe598;" horiz-adv-x="500" 
d="M250 570q91 0 151 -74t60 -215q0 -142 -60 -216.5t-151 -74.5q-93 0 -152.5 74.5t-59.5 216.5q0 141 60 215t152 74zM195 281q0 -142 55 -142q53 0 53 142q0 144 -53 144q-55 0 -55 -144z" />
    <glyph glyph-name="one.smcp" unicode="&#xe43c;" horiz-adv-x="500" 
d="M84 421v139h255v-421h107v-139h-373v139h106v282h-95z" />
    <glyph glyph-name="one.smcp" unicode="&#xe599;" horiz-adv-x="500" 
d="M84 421v139h255v-421h107v-139h-373v139h106v282h-95z" />
    <glyph glyph-name="two.smcp" unicode="&#xe43d;" horiz-adv-x="500" 
d="M51 0v142q115 83 174 135q38 35 51.5 57.5t13.5 46.5q0 19 -13 31t-35 12q-20 0 -34 -11.5t-14 -29.5q0 -16 12 -45l-147 -23q-22 45 -22 92q0 64 57 113.5t151 49.5q103 0 157 -54t54 -123q0 -65 -38.5 -122t-133.5 -121l-17 -7h190v-143h-406z" />
    <glyph glyph-name="two.smcp" unicode="&#xe59a;" horiz-adv-x="500" 
d="M51 0v142q115 83 174 135q38 35 51.5 57.5t13.5 46.5q0 19 -13 31t-35 12q-20 0 -34 -11.5t-14 -29.5q0 -16 12 -45l-147 -23q-22 45 -22 92q0 64 57 113.5t151 49.5q103 0 157 -54t54 -123q0 -65 -38.5 -122t-133.5 -121l-17 -7h190v-143h-406z" />
    <glyph glyph-name="three.smcp" unicode="&#xe43e;" horiz-adv-x="500" 
d="M243 -10q-100 0 -150 46t-50 130v25h164v-20q0 -18 8 -33.5t27 -15.5q17 0 28.5 14t11.5 37q0 60 -61 60q-11 0 -23.5 -1.5t-23.5 -3.5t-14 -2v154l86 41h-188v139h374v-157l-130 -64q68 -5 108.5 -50t40.5 -109q0 -90 -54.5 -140t-153.5 -50z" />
    <glyph glyph-name="three.smcp" unicode="&#xe59b;" horiz-adv-x="500" 
d="M243 -10q-100 0 -150 46t-50 130v25h164v-20q0 -18 8 -33.5t27 -15.5q17 0 28.5 14t11.5 37q0 60 -61 60q-11 0 -23.5 -1.5t-23.5 -3.5t-14 -2v154l86 41h-188v139h374v-157l-130 -64q68 -5 108.5 -50t40.5 -109q0 -90 -54.5 -140t-153.5 -50z" />
    <glyph glyph-name="four.smcp" unicode="&#xe43f;" horiz-adv-x="500" 
d="M33 112v137l182 311h188v-313h48v-135h-48v-112h-154v112h-216zM163 247h86v144z" />
    <glyph glyph-name="four.smcp" unicode="&#xe59c;" horiz-adv-x="500" 
d="M33 112v137l182 311h188v-313h48v-135h-48v-112h-154v112h-216zM163 247h86v144z" />
    <glyph glyph-name="five.smcp" unicode="&#xe440;" horiz-adv-x="500" 
d="M454 192q0 -90 -52.5 -146t-150.5 -56q-100 0 -150.5 46t-50.5 130v25h164v-20q0 -18 8.5 -33.5t27.5 -15.5q36 0 36 62t-42 62q-25 0 -42 -17l-135 11v320h366v-139h-227v-61l-1 -3q40 19 83 19q76 0 121 -50.5t45 -133.5z" />
    <glyph glyph-name="five.smcp" unicode="&#xe59d;" horiz-adv-x="500" 
d="M454 192q0 -90 -52.5 -146t-150.5 -56q-100 0 -150.5 46t-50.5 130v25h164v-20q0 -18 8.5 -33.5t27.5 -15.5q36 0 36 62t-42 62q-25 0 -42 -17l-135 11v320h366v-139h-227v-61l-1 -3q40 19 83 19q76 0 121 -50.5t45 -133.5z" />
    <glyph glyph-name="six.smcp" unicode="&#xe441;" horiz-adv-x="500" 
d="M244 560h209l-17 -14q-156 -122 -204 -191l7 -3q23 7 51 7q71 0 123 -45t52 -129q0 -86 -58 -140.5t-151 -54.5q-100 0 -161 61t-61 153q0 59 20 115.5t53 100.5t61.5 73.5t57.5 52.5zM194 183q0 -25 14.5 -41.5t40.5 -16.5t40 16.5t14 41.5t-14 42t-40 17t-40.5 -17
t-14.5 -42z" />
    <glyph glyph-name="six.smcp" unicode="&#xe59e;" horiz-adv-x="500" 
d="M244 560h209l-17 -14q-156 -122 -204 -191l7 -3q23 7 51 7q71 0 123 -45t52 -129q0 -86 -58 -140.5t-151 -54.5q-100 0 -161 61t-61 153q0 59 20 115.5t53 100.5t61.5 73.5t57.5 52.5zM194 183q0 -25 14.5 -41.5t40.5 -16.5t40 16.5t14 41.5t-14 42t-40 17t-40.5 -17
t-14.5 -42z" />
    <glyph glyph-name="exclam.smcp" unicode="&#xe442;" horiz-adv-x="287" 
d="M216 182h-145l-14 378h173zM53 79q0 38 26 64.5t63 26.5t63.5 -26.5t26.5 -64.5q0 -37 -26.5 -63t-63.5 -26t-63 26t-26 63z" />
    <glyph glyph-name="exclam.smcp" unicode="&#xf721;" horiz-adv-x="287" 
d="M216 182h-145l-14 378h173zM53 79q0 38 26 64.5t63 26.5t63.5 -26.5t26.5 -64.5q0 -37 -26.5 -63t-63.5 -26t-63 26t-26 63z" />
    <glyph glyph-name="exclamdown.smcp" unicode="&#xe443;" horiz-adv-x="287" 
d="M71 377h145l14 -377h-173zM53 481q0 36 26 62t63 26t63.5 -26t26.5 -62q0 -38 -26 -64.5t-64 -26.5q-37 0 -63 26.5t-26 64.5z" />
    <glyph glyph-name="exclamdown.smcp" unicode="&#xf7a1;" horiz-adv-x="287" 
d="M71 377h145l14 -377h-173zM53 481q0 36 26 62t63 26t63.5 -26t26.5 -62q0 -38 -26 -64.5t-64 -26.5q-37 0 -63 26.5t-26 64.5z" />
    <glyph glyph-name="nine.smcp" unicode="&#xe444;" horiz-adv-x="500" 
d="M256 0h-210l17 14q158 123 204 191l-7 3q-23 -7 -51 -7q-71 0 -122.5 45t-51.5 129q0 86 58 140.5t150 54.5q101 0 162 -61t61 -153q0 -59 -20 -115.5t-53 -100.5t-61.5 -73.5t-58.5 -52.5zM305 377q0 25 -14.5 41.5t-40.5 16.5q-25 0 -39.5 -17t-14.5 -41
q0 -25 14.5 -42t39.5 -17q26 0 40.5 17t14.5 42z" />
    <glyph glyph-name="nine.smcp" unicode="&#xe602;" horiz-adv-x="500" 
d="M256 0h-210l17 14q158 123 204 191l-7 3q-23 -7 -51 -7q-71 0 -122.5 45t-51.5 129q0 86 58 140.5t150 54.5q101 0 162 -61t61 -153q0 -59 -20 -115.5t-53 -100.5t-61.5 -73.5t-58.5 -52.5zM305 377q0 25 -14.5 41.5t-40.5 16.5q-25 0 -39.5 -17t-14.5 -41
q0 -25 14.5 -42t39.5 -17q26 0 40.5 17t14.5 42z" />
    <glyph glyph-name="question.smcp" unicode="&#xe445;" horiz-adv-x="447" 
d="M409 401q0 -134 -114 -169l-4 -54h-145l-9 146l31 2q43 1 60 19.5t17 39.5q0 16 -9.5 26t-25.5 10q-15 0 -21.5 -10.5t-6.5 -20.5v-1h-153l1 3v8v3q0 77 52 122t136 45q82 0 136.5 -47.5t54.5 -121.5zM130 80q0 37 26 63.5t63 26.5t63.5 -26.5t26.5 -63.5
q0 -38 -26.5 -64t-63.5 -26t-63 26.5t-26 63.5z" />
    <glyph glyph-name="question.smcp" unicode="&#xf73f;" horiz-adv-x="447" 
d="M409 401q0 -134 -114 -169l-4 -54h-145l-9 146l31 2q43 1 60 19.5t17 39.5q0 16 -9.5 26t-25.5 10q-15 0 -21.5 -10.5t-6.5 -20.5v-1h-153l1 3v8v3q0 77 52 122t136 45q82 0 136.5 -47.5t54.5 -121.5zM130 80q0 37 26 63.5t63 26.5t63.5 -26.5t26.5 -63.5
q0 -38 -26.5 -64t-63.5 -26t-63 26.5t-26 63.5z" />
    <glyph glyph-name="questiondown.smcp" unicode="&#xe446;" horiz-adv-x="447" 
d="M38 159q0 134 114 169l4 54h145l9 -146l-31 -2q-43 -1 -60 -19.5t-17 -39.5q0 -16 9.5 -26t25.5 -10q15 0 21.5 10.5t6.5 20.5v1h153v-3q-1 -4 -1 -8v-3q0 -77 -52 -122t-136 -45q-82 0 -136.5 47.5t-54.5 121.5zM317 480q0 -37 -26 -63.5t-63 -26.5t-63.5 26.5
t-26.5 63.5q0 38 26 64t64 26q37 0 63 -26.5t26 -63.5z" />
    <glyph glyph-name="questiondown.smcp" unicode="&#xf7bf;" horiz-adv-x="447" 
d="M38 159q0 134 114 169l4 54h145l9 -146l-31 -2q-43 -1 -60 -19.5t-17 -39.5q0 -16 9.5 -26t25.5 -10q15 0 21.5 10.5t6.5 20.5v1h153v-3q-1 -4 -1 -8v-3q0 -77 -52 -122t-136 -45q-82 0 -136.5 47.5t-54.5 121.5zM317 480q0 -37 -26 -63.5t-63 -26.5t-63.5 26.5
t-26.5 63.5q0 38 26 64t64 26q37 0 63 -26.5t26 -63.5z" />
    <glyph glyph-name="slash.smcp" unicode="&#xe467;" horiz-adv-x="383" 
d="M28 0l191 560h137l-192 -560h-136z" />
    <glyph glyph-name="backslash.smcp" unicode="&#xe468;" horiz-adv-x="383" 
d="M164 560l191 -560h-136l-192 560h137z" />
    <glyph glyph-name="bar.smcp" unicode="&#xe469;" horiz-adv-x="232" 
d="M64 -74v682h104v-682h-104z" />
    <glyph glyph-name="brokenbar.smcp" unicode="&#xe46b;" horiz-adv-x="232" 
d="M168 304h-104v304h104v-304zM168 -74h-104v304h104v-304z" />
    <glyph glyph-name="J.alt" unicode="&#xe489;" horiz-adv-x="319" 
d="M-3 2h46q24 0 31.5 10t7.5 39v649h172v-703q0 -74 -34 -109.5t-116 -35.5h-107v150z" />
    <glyph glyph-name="parenleft.cap" unicode="&#xe491;" horiz-adv-x="358" 
d="M32 352q0 207 169 417h142v-16q-64 -79 -104 -186.5t-40 -214.5q0 -109 41 -226t103 -194v-16h-142q-78 96 -123.5 209.5t-45.5 226.5z" />
    <glyph glyph-name="parenright.cap" unicode="&#xe492;" horiz-adv-x="358" 
d="M326 352q0 -113 -45.5 -226.5t-123.5 -209.5h-142v16q62 77 103 194t41 226q0 107 -40 214.5t-104 186.5v16h142q169 -210 169 -417z" />
    <glyph glyph-name="bracketleft.cap" unicode="&#xe493;" horiz-adv-x="403" 
d="M366 630h-130v-563h130v-145h-297v853h297v-145z" />
    <glyph glyph-name="bracketright.cap" unicode="&#xe494;" horiz-adv-x="403" 
d="M167 630h-130v145h297v-853h-297v145h130v563z" />
    <glyph glyph-name="braceleft.cap" unicode="&#xe495;" horiz-adv-x="406" 
d="M268 630v-170q0 -70 -59 -92q59 -22 59 -92v-209h100v-145h-267v371h-73v148h73v334h267v-145h-100z" />
    <glyph glyph-name="braceright.cap" unicode="&#xe496;" horiz-adv-x="406" 
d="M138 460v170h-100v145h267v-334h73v-148h-73v-371h-267v145h100v209q0 70 59 92q-59 22 -59 92z" />
    <glyph glyph-name="parenleft.smcp" unicode="&#xe499;" horiz-adv-x="324" 
d="M187 286q0 -84 32 -180t78 -156v-13h-130q-62 76 -98.5 167.5t-36.5 181.5q0 166 135 333h130v-13q-48 -62 -79 -149t-31 -171z" />
    <glyph glyph-name="parenleft.smcp" unicode="&#xf618;" horiz-adv-x="324" 
d="M187 286q0 -84 32 -180t78 -156v-13h-130q-62 76 -98.5 167.5t-36.5 181.5q0 166 135 333h130v-13q-48 -62 -79 -149t-31 -171z" />
    <glyph glyph-name="parenright.smcp" unicode="&#xe49a;" horiz-adv-x="323" 
d="M136 286q0 84 -31 171.5t-79 148.5v13h131q134 -168 134 -333q0 -90 -36.5 -181.5t-97.5 -167.5h-131v13q47 60 78.5 155.5t31.5 180.5z" />
    <glyph glyph-name="parenright.smcp" unicode="&#xf619;" horiz-adv-x="323" 
d="M136 286q0 84 -31 171.5t-79 148.5v13h131q134 -168 134 -333q0 -90 -36.5 -181.5t-97.5 -167.5h-131v13q47 60 78.5 155.5t31.5 180.5z" />
    <glyph glyph-name="bracketleft.smcp" unicode="&#xe49b;" horiz-adv-x="360" 
d="M320 484h-102v-412h102v-135h-256v682h256v-135z" />
    <glyph glyph-name="bracketleft.smcp" unicode="&#xf60e;" horiz-adv-x="360" 
d="M320 484h-102v-412h102v-135h-256v682h256v-135z" />
    <glyph glyph-name="bracketright.smcp" unicode="&#xe49c;" horiz-adv-x="360" 
d="M142 484h-102v135h256v-682h-256v135h102v412z" />
    <glyph glyph-name="bracketright.smcp" unicode="&#xf60f;" horiz-adv-x="360" 
d="M142 484h-102v135h256v-682h-256v135h102v412z" />
    <glyph glyph-name="braceleft.smcp" unicode="&#xe49d;" horiz-adv-x="353" 
d="M242 484v-117q0 -61 -51 -77q51 -16 51 -77v-141h69v-135h-223v285h-57v138h57v259h223v-135h-69z" />
    <glyph glyph-name="braceleft.smcp" unicode="&#xf60c;" horiz-adv-x="353" 
d="M242 484v-117q0 -61 -51 -77q51 -16 51 -77v-141h69v-135h-223v285h-57v138h57v259h223v-135h-69z" />
    <glyph glyph-name="braceright.smcp" unicode="&#xe49e;" horiz-adv-x="353" 
d="M111 367v117h-69v135h223v-259h57v-138h-57v-285h-223v135h69v141q0 61 51 77q-51 16 -51 77z" />
    <glyph glyph-name="braceright.smcp" unicode="&#xf60d;" horiz-adv-x="353" 
d="M111 367v117h-69v135h223v-259h57v-138h-57v-285h-223v135h69v141q0 61 51 77q-51 16 -51 77z" />
    <glyph glyph-name="seven.smcp" unicode="&#xe59f;" horiz-adv-x="500" 
d="M262 0h-176l211 421h-255v139h404v-139z" />
    <glyph glyph-name="eight.smcp" unicode="&#xe601;" horiz-adv-x="500" 
d="M250 125q24 0 38 14t14 34q0 21 -14 35t-38 14t-38 -14t-14 -35q0 -20 14 -34t38 -14zM250 570q91 0 146 -45.5t55 -112.5q0 -38 -21 -71t-61 -49q44 -16 68 -52t24 -80q0 -79 -57 -124.5t-154 -45.5t-154.5 46t-57.5 124q0 44 24 80t68 52q-39 16 -59.5 49t-20.5 71
q0 67 54.5 112.5t145.5 45.5zM250 349q22 0 33.5 13t11.5 32t-11.5 32t-33.5 13t-33.5 -13t-11.5 -32t11.5 -32t33.5 -13z" />
    <glyph glyph-name="IJ.alt" unicode="&#xe88a;" horiz-adv-x="621" 
d="M65 0v700h172v-700h-172zM299 2h46q24 0 31.5 10t7.5 39v649h172v-703q0 -74 -34 -109.5t-116 -35.5h-107v150z" />
    <glyph glyph-name="sterling.smcp" unicode="&#xf189;" horiz-adv-x="516" 
d="M47 221v107h42q-20 30 -20 68q0 76 55 125t156 49q84 0 143 -47.5t59 -123.5v-15h-159q0 22 -11 34t-30 12q-17 0 -29 -12.5t-12 -34.5t13 -55h169v-107h-146q1 -5 1 -13q0 -45 -35 -68h220v-140h-416v140h60q9 5 18.5 18t9.5 24t-10 39h-78z" />
    <glyph glyph-name="florin.smcp" unicode="&#xf190;" horiz-adv-x="389" 
d="M111 41v73h-60v139h60v199q0 46 24.5 77t79.5 31h136v-146h-28q-19 0 -26.5 -0.5t-17.5 -9t-10 -26.5v-125h61v-139h-61v-154q0 -42 -26 -71.5t-79 -29.5h-136v147h28h5q17 0 25 1t16.5 9t8.5 25z" />
    <glyph glyph-name="yen.smcp" unicode="&#xf191;" horiz-adv-x="663" 
d="M246 162v32h-129v108h88l-178 258h207l96 -167h9l96 167h199l-177 -258h95v-108h-134v-32h134v-107h-134v-55h-172v55h-129v107h129z" />
    <glyph glyph-name="numbersign.smcp" unicode="&#xf192;" horiz-adv-x="500" 
d="M47 323v111h71v115h115v-115h33v115h116v-115h71v-111h-71v-54h71v-110h-71v-116h-116v116h-33v-116h-115v116h-71v110h71v54h-71zM233 323v-54h33v54h-33z" />
    <glyph glyph-name="percent.smcp" unicode="&#xf213;" horiz-adv-x="603" 
d="M562 428l-473 -364l-49 68l470 360zM230 433q0 18 -12.5 31.5t-30.5 13.5t-30.5 -13.5t-12.5 -31.5t12.5 -31.5t30.5 -13.5t30.5 13.5t12.5 31.5zM45 433q0 56 41.5 96.5t100.5 40.5t100.5 -40.5t41.5 -96.5t-41.5 -96.5t-100.5 -40.5t-100.5 40.5t-41.5 96.5zM461 127
q0 18 -12.5 31.5t-30.5 13.5t-30.5 -13.5t-12.5 -31.5t12.5 -31.5t30.5 -13.5t30.5 13.5t12.5 31.5zM276 127q0 56 41.5 96.5t100.5 40.5t100.5 -40.5t41.5 -96.5t-41.5 -96.5t-100.5 -40.5t-100.5 40.5t-41.5 96.5z" />
    <glyph glyph-name="perthousand.smcp" unicode="&#xf214;" horiz-adv-x="894" 
d="M568 428l-473 -364l-49 68l470 360zM236 433q0 18 -12.5 31.5t-30.5 13.5t-30.5 -13.5t-12.5 -31.5t12.5 -31.5t30.5 -13.5t30.5 13.5t12.5 31.5zM51 433q0 56 41.5 96.5t100.5 40.5t100.5 -40.5t41.5 -96.5t-41.5 -96.5t-100.5 -40.5t-100.5 40.5t-41.5 96.5zM467 127
q0 18 -12.5 31.5t-30.5 13.5t-30.5 -13.5t-12.5 -31.5t12.5 -31.5t30.5 -13.5t30.5 13.5t12.5 31.5zM282 127q0 56 41.5 96.5t100.5 40.5t100.5 -40.5t41.5 -96.5t-41.5 -96.5t-100.5 -40.5t-100.5 40.5t-41.5 96.5zM765 127q0 18 -12.5 31.5t-30.5 13.5t-30.5 -13.5
t-12.5 -31.5t12.5 -31.5t30.5 -13.5t30.5 13.5t12.5 31.5zM580 127q0 56 41.5 96.5t100.5 40.5t100.5 -40.5t41.5 -96.5t-41.5 -96.5t-100.5 -40.5t-100.5 40.5t-41.5 96.5z" />
    <glyph glyph-name="plusminus.smcp" unicode="&#xf231;" horiz-adv-x="456" 
d="M301 508v-113h105v-137h-105v-114h-144v114h-107v137h107v113h144zM50 0v137h356v-137h-356z" />
    <glyph glyph-name="multiply.smcp" unicode="&#xf232;" horiz-adv-x="492" 
d="M152 468l94 -93l93 93l103 -98l-97 -95l97 -96l-104 -96l-92 93l-94 -93l-103 96l97 96l-97 95z" />
    <glyph glyph-name="divide.smcp" unicode="&#xf233;" horiz-adv-x="456" 
d="M406 354v-137h-356v137h356zM138 119q0 37 26 63t63 26t63.5 -26t26.5 -63q0 -38 -26 -63.5t-64 -25.5q-37 0 -63 25.5t-26 63.5zM138 452q0 37 26 63t63 26t63.5 -26t26.5 -63t-26.5 -63t-63.5 -26t-63 26t-26 63z" />
    <glyph glyph-name="notequal.smcp" unicode="&#xf234;" horiz-adv-x="456" 
d="M50 304v137h105v24h147v-24h104v-137h-104v-38h104v-137h-104v-24h-147v24h-105v137h105v38h-105z" />
    <glyph glyph-name="approxequal.smcp" unicode="&#xf235;" horiz-adv-x="456" 
d="M140 466q20 0 64.5 -14.5t48.5 -14.5q18 0 18 11v16h135v-80q0 -18 -2 -30t-9.5 -29.5t-27 -27t-50.5 -9.5q-20 0 -65 14.5t-48 14.5q-17 0 -17 -11v-16h-137v80q0 14 1 23.5t5.5 25t13.5 24.5t27 16t43 7zM140 278q20 0 64.5 -14t48.5 -14q18 0 18 11v15h135v-79
q0 -19 -2 -31t-9.5 -29.5t-27 -26.5t-50.5 -9q-20 0 -65 14t-48 14q-17 0 -17 -11v-16h-137v80q0 14 1 23.5t5.5 25t13.5 24.5t27 16t43 7z" />
    <glyph glyph-name="less.smcp" unicode="&#xf236;" horiz-adv-x="647" 
d="M588 361v-149h-279l89 -111l-101 -97l-256 282l256 282l101 -97l-89 -110h279z" />
    <glyph glyph-name="greater.smcp" unicode="&#xf237;" horiz-adv-x="647" 
d="M58 212v149h279l-89 110l101 97l255 -282l-255 -282l-101 97l89 111h-279z" />
    <glyph glyph-name="lessequal.smcp" unicode="&#xf238;" horiz-adv-x="456" 
d="M399 305v-147l-356 130v192l356 130v-147l-245 -79zM399 0h-356v137h356v-137z" />
    <glyph glyph-name="greaterequal.smcp" unicode="&#xf239;" horiz-adv-x="456" 
d="M412 0h-356v137h356v-137zM56 158v147l246 79l-246 79v147l356 -130v-192z" />
    <glyph glyph-name="zero.alt" unicode="&#xf242;" horiz-adv-x="589" 
d="M295 712q114 0 184.5 -92t70.5 -269q0 -179 -70.5 -271t-184.5 -92q-115 0 -185.5 92t-70.5 271q0 177 70.5 269t185.5 92zM211 351q0 -204 84 -204q83 0 83 204q0 205 -83 205q-84 0 -84 -205z" />
    <glyph glyph-name="one.alt" unicode="&#xf243;" horiz-adv-x="500" 
d="M52 551v149h296v-551h134v-149h-441v149h134v402h-123z" />
    <glyph glyph-name="two.alt" unicode="&#xf244;" horiz-adv-x="584" 
d="M52 0v151q132 104 213 178q55 50 74 85t19 73q0 30 -20 50t-55 20q-32 0 -53.5 -18.5t-21.5 -47.5q0 -26 16 -64l-158 -26q-27 54 -27 112q0 79 67 139t180 60q120 0 185 -64.5t65 -149.5q0 -76 -44 -146.5t-163 -161.5l-50 -38h262v-152h-489z" />
    <glyph glyph-name="three.alt" unicode="&#xf245;" horiz-adv-x="565" 
d="M276 -12q-118 0 -180 58t-62 158v31h176v-27q0 -31 15.5 -54.5t48.5 -23.5t51 23t18 62q0 42 -23 67t-70 25q-38 0 -75 -8v161l132 91h-248v149h446v-167l-171 -110q84 -4 137 -62t53 -140q0 -108 -66.5 -170.5t-181.5 -62.5z" />
    <glyph glyph-name="four.alt" unicode="&#xf246;" horiz-adv-x="572" 
d="M24 158v146l231 396h209v-398h73v-144h-73v-158h-166v158h-274zM298 524h-1l-130 -222h131v222z" />
    <glyph glyph-name="five.alt" unicode="&#xf247;" horiz-adv-x="561" 
d="M317 466q96 0 152 -63.5t56 -166.5q0 -111 -63.5 -179.5t-180.5 -68.5q-118 0 -180.5 58t-62.5 158v31h176v-27q0 -31 15.5 -54.5t48.5 -23.5q67 0 67 97q0 98 -72 98q-40 0 -65 -25l-145 13v387h436v-149h-286v-108l2 -2q42 25 102 25z" />
    <glyph glyph-name="six.alt" unicode="&#xf248;" horiz-adv-x="576" 
d="M249 429l7 -3q31 18 77 18q88 0 151.5 -56.5t63.5 -161.5q0 -106 -69.5 -172t-180.5 -66q-119 0 -191.5 73t-72.5 185q0 72 24.5 143t65 127.5t75 94t72.5 70.5l22 19h226l-18 -15q-183 -150 -252 -256zM207 222q0 -39 22 -65t62 -26q39 0 61 26t22 65q0 40 -22 66.5
t-61 26.5q-40 0 -62 -26.5t-22 -66.5z" />
    <glyph glyph-name="seven.alt" unicode="&#xf249;" horiz-adv-x="523" 
d="M273 0h-190l257 551h-317v149h480v-149z" />
    <glyph glyph-name="eight.alt" unicode="&#xf250;" horiz-adv-x="586" 
d="M293 132q39 0 60.5 22.5t21.5 55.5t-21.5 55.5t-60.5 22.5t-60.5 -22.5t-21.5 -55.5t21.5 -55.5t60.5 -22.5zM293 425q36 0 54 21t18 52t-18 52t-54 21t-54 -21t-18 -52t18 -52t54 -21zM293 712q109 0 174.5 -56t65.5 -141q0 -47 -26.5 -89t-74.5 -62q54 -20 84.5 -65.5
t30.5 -100.5q0 -97 -69 -153.5t-185 -56.5t-185 56.5t-69 153.5q0 55 30.5 100.5t84.5 65.5q-48 20 -74.5 62t-26.5 89q0 85 65.5 141t174.5 56z" />
    <glyph glyph-name="nine.alt" unicode="&#xf251;" horiz-adv-x="576" 
d="M327 271l-7 3q-31 -18 -77 -18q-88 0 -151.5 56.5t-63.5 161.5q0 106 69.5 172t180.5 66q119 0 191.5 -73t72.5 -185q0 -72 -24.5 -143t-65 -127.5t-75 -94t-72.5 -70.5l-22 -19h-226l18 15q183 150 252 256zM369 478q0 39 -22 65t-62 26q-39 0 -61 -26t-22 -65
q0 -40 22 -66.5t61 -26.5q40 0 62 26.5t22 66.5z" />
    <glyph glyph-name="zero.posf" unicode="&#xf252;" horiz-adv-x="553" 
d="M33 250q0 128 68.5 195t175.5 67t175 -67t68 -195t-68 -195t-175 -67t-175.5 67t-68.5 195zM362 250q0 62 -23 95.5t-62 33.5q-40 0 -62.5 -33.5t-22.5 -95.5t22.5 -95.5t62.5 -33.5q39 0 62 33.5t23 95.5z" />
    <glyph glyph-name="one.posf" unicode="&#xf253;" horiz-adv-x="422" 
d="M48 370v130h255v-371h98v-129h-358v129h101v241h-96z" />
    <glyph glyph-name="two.posf" unicode="&#xf254;" horiz-adv-x="532" 
d="M44 0v131l162 75q72 33 98 59t26 57q0 24 -18.5 43t-51.5 19q-30 0 -50 -17.5t-20 -45.5q0 -23 10 -40l-140 -14q-19 34 -19 77q0 71 59.5 119.5t165.5 48.5q99 0 161 -50.5t62 -126.5q0 -68 -43.5 -112.5t-142.5 -87.5l-33 -14h220v-121h-446z" />
    <glyph glyph-name="three.posf" unicode="&#xf255;" horiz-adv-x="519" 
d="M254 -169q-111 0 -170 54.5t-59 145.5v28h163v-25q0 -15 4 -30t19.5 -30.5t40.5 -15.5q69 0 69 83q0 81 -93 81q-35 0 -68 -7v140l142 107h-244v135h414v-149l-164 -117q78 -9 128.5 -59.5t50.5 -126.5q0 -98 -63.5 -156t-169.5 -58z" />
    <glyph glyph-name="four.posf" unicode="&#xf256;" horiz-adv-x="530" 
d="M18 6v132l218 359h195v-363h79v-128h-79v-157h-152v157h-261zM276 341l-128 -207h131v207h-3z" />
    <glyph glyph-name="five.posf" unicode="&#xf257;" horiz-adv-x="519" 
d="M257 -42q68 0 68 95q0 41 -19 68t-54 27q-38 0 -60 -24l-136 11v362h409v-139h-270v-113q41 31 100 31q90 0 142 -59t52 -155q0 -104 -59.5 -167.5t-170.5 -63.5t-170 54.5t-59 145.5v28h163v-25q0 -15 4 -30t19.5 -30.5t40.5 -15.5z" />
    <glyph glyph-name="six.posf" unicode="&#xf258;" horiz-adv-x="551" 
d="M230 394l4 -3q34 23 87 23q84 0 142 -55.5t58 -147.5q0 -99 -65.5 -161t-170.5 -62q-113 0 -181 70t-68 176q0 207 228 404l17 15h203l-21 -18q-157 -132 -233 -241zM196 203q0 -36 22.5 -61t61.5 -25t61 25t22 61q0 37 -22 63t-61 26t-61.5 -26t-22.5 -63z" />
    <glyph glyph-name="seven.posf" unicode="&#xf259;" horiz-adv-x="483" 
d="M255 -149h-179l233 506h-291v140h450v-136z" />
    <glyph glyph-name="eight.posf" unicode="&#xf260;" horiz-adv-x="566" 
d="M283 664q103 0 165 -52t62 -130q0 -47 -26 -86.5t-76 -57.5q54 -19 85.5 -62t31.5 -93q0 -87 -66.5 -141t-175.5 -54t-175.5 54t-66.5 141q0 50 31.5 93t85.5 62q-50 18 -76 57.5t-26 86.5q0 78 62 130t165 52zM283 394q36 0 54 20t18 52q0 30 -18.5 51t-53.5 21
t-53.5 -21t-18.5 -51q0 -32 18 -52t54 -20zM283 115q39 0 61 22.5t22 54.5t-22 54t-61 22t-61 -22t-22 -54t22 -54.5t61 -22.5z" />
    <glyph glyph-name="nine.posf" unicode="&#xf261;" horiz-adv-x="529" 
d="M311 106l-4 3q-35 -23 -87 -23q-84 0 -142 55.5t-58 147.5q0 99 65.5 161t170.5 62q113 0 181 -70t68 -176q0 -207 -228 -404l-17 -15h-203l21 18q157 132 233 241zM345 297q0 36 -22.5 61t-61.5 25t-61 -25t-22 -61q0 -37 22 -63t61 -26t61.5 26t22.5 63z" />
    <glyph glyph-name="zero.sups" unicode="&#xf262;" 
d="M215 843q74 0 120.5 -57.5t46.5 -169.5t-46.5 -169.5t-120.5 -57.5q-75 0 -121.5 57.5t-46.5 169.5t46.5 169.5t121.5 57.5zM166 616q0 -115 49 -115q48 0 48 115q0 117 -48 117q-49 0 -49 -117z" />
    <glyph glyph-name="one.sups" unicode="&#xf263;" 
d="M87 732v104h195v-336h84v-104h-287v104h83v232h-75z" />
    <glyph glyph-name="two.sups" unicode="&#xf264;" 
d="M58 396v110q88 61 138 103q33 28 43.5 46.5t10.5 38.5q0 19 -12 30t-29 11t-29 -10.5t-12 -27.5t7 -35l-109 -15q-16 37 -16 68q0 51 43.5 89.5t115.5 38.5q79 0 121.5 -42t42.5 -97t-30.5 -94.5t-100.5 -88.5l-27 -19h159v-106h-316z" />
    <glyph glyph-name="three.sups" unicode="&#xf265;" 
d="M209 389q-76 0 -115.5 37t-39.5 100v19h122v-16q0 -42 32 -42q35 0 35 45q0 50 -51 50q-26 0 -48 -5v97l83 58h-155v104h282v-112l-93 -67q46 -5 77 -39t31 -83q0 -68 -43 -107t-117 -39z" />
    <glyph glyph-name="four.sups" unicode="&#xf266;" 
d="M40 490v122l148 226h141v-247h52v-101h-52v-92h-114v92h-175zM213 712l-76 -121h78v121h-2z" />
    <glyph glyph-name="five.sups" unicode="&#xf267;" 
d="M375 546q0 -71 -39.5 -114t-116.5 -43t-117 37t-40 100v19h122v-16q0 -42 32 -42q34 0 34 53q0 51 -39 51q-20 0 -32 -14l-103 10v249h281v-106h-176v-57h2q25 17 62 17q59 0 94.5 -40t35.5 -104z" />
    <glyph glyph-name="six.sups" unicode="&#xf268;" 
d="M205 836h154l-14 -13q-115 -104 -153 -155l3 -2q23 13 54 13q57 0 96 -38.5t39 -97.5q0 -68 -45.5 -111t-116.5 -43q-77 0 -123.5 48.5t-46.5 120.5q0 135 140 266zM172 537q0 -21 12 -35t35 -14q22 0 34 14t12 35q0 22 -12 36t-34 14q-23 0 -35 -14t-12 -36z" />
    <glyph glyph-name="seven.sups" unicode="&#xf269;" 
d="M227 396h-136l151 330h-184v110h309v-104z" />
    <glyph glyph-name="eight.sups" unicode="&#xf270;" 
d="M215 489q21 0 33 12t12 30t-12 30t-33 12t-33 -12t-12 -30t12 -30t33 -12zM215 843q71 0 114 -35.5t43 -88.5q0 -29 -16.5 -55.5t-47.5 -38.5q34 -13 53 -41.5t19 -62.5q0 -58 -45.5 -95t-119.5 -37q-75 0 -120.5 37t-45.5 95q0 34 19.5 62.5t53.5 41.5
q-31 12 -47.5 38.5t-16.5 55.5q0 53 42.5 88.5t114.5 35.5zM215 667q19 0 29 11.5t10 27.5t-10 27.5t-29 11.5q-20 0 -30 -11.5t-10 -27.5t10 -27.5t30 -11.5z" />
    <glyph glyph-name="nine.sups" unicode="&#xf271;" 
d="M224 396h-154l14 13q118 107 153 155l-3 2q-23 -13 -54 -13q-57 0 -96 38.5t-39 97.5q0 68 45.5 111t116.5 43q77 0 123.5 -48.5t46.5 -120.5q0 -135 -140 -266zM257 696q0 20 -12 34t-34 14q-23 0 -35 -14t-12 -34q0 -22 12 -36.5t35 -14.5q22 0 34 14.5t12 36.5z" />
    <glyph glyph-name="zero.sinf" unicode="&#xf272;" 
d="M215 244q74 0 120.5 -57.5t46.5 -169.5t-46.5 -169.5t-120.5 -57.5q-75 0 -121.5 57.5t-46.5 169.5t46.5 169.5t121.5 57.5zM166 17q0 -115 49 -115q48 0 48 115q0 117 -48 117q-49 0 -49 -117z" />
    <glyph glyph-name="one.sinf" unicode="&#xf273;" 
d="M87 133v104h195v-336h84v-104h-287v104h83v232h-75z" />
    <glyph glyph-name="two.sinf" unicode="&#xf274;" 
d="M59 -203v110q88 61 138 103q33 28 43.5 46.5t10.5 38.5q0 19 -12 30t-29 11t-29 -10.5t-12 -27.5t7 -35l-109 -15q-16 37 -16 68q0 51 43.5 89.5t115.5 38.5q79 0 121.5 -42t42.5 -97t-30.5 -94.5t-100.5 -88.5l-27 -19h159v-106h-316z" />
    <glyph glyph-name="three.sinf" unicode="&#xf275;" 
d="M209 -210q-76 0 -115.5 37t-39.5 100v19h122v-16q0 -42 32 -42q35 0 35 45q0 50 -51 50q-26 0 -48 -5v97l83 58h-155v104h282v-112l-93 -67q46 -5 77 -39t31 -83q0 -68 -43 -107t-117 -39z" />
    <glyph glyph-name="four.sinf" unicode="&#xf276;" 
d="M40 -109v122l148 226h141v-247h52v-101h-52v-92h-114v92h-175zM213 113l-76 -121h78v121h-2z" />
    <glyph glyph-name="five.sinf" unicode="&#xf277;" 
d="M376 -53q0 -71 -39.5 -114t-116.5 -43t-117 37t-40 100v19h122v-16q0 -42 32 -42q34 0 34 53q0 51 -39 51q-20 0 -32 -14l-103 10v249h281v-106h-176v-57h2q26 17 62 17q59 0 94.5 -40t35.5 -104z" />
    <glyph glyph-name="six.sinf" unicode="&#xf278;" 
d="M205 237h154l-14 -13q-115 -104 -153 -155l3 -2q23 13 54 13q57 0 96 -38.5t39 -97.5q0 -68 -45.5 -111t-116.5 -43q-77 0 -123.5 48.5t-46.5 120.5q0 135 140 266zM172 -62q0 -21 12 -35t35 -14q22 0 34 14t12 35q0 22 -12 36t-34 14q-23 0 -35 -14t-12 -36z" />
    <glyph glyph-name="seven.sinf" unicode="&#xf279;" 
d="M228 -203h-136l151 330h-184v110h309v-104z" />
    <glyph glyph-name="eight.sinf" unicode="&#xf280;" 
d="M215 -110q21 0 33 12t12 30t-12 30t-33 12t-33 -12t-12 -30t12 -30t33 -12zM215 244q71 0 114 -35.5t43 -88.5q0 -29 -16.5 -55.5t-47.5 -38.5q34 -13 53 -41.5t19 -62.5q0 -58 -45.5 -95t-119.5 -37q-75 0 -120.5 37t-45.5 95q0 34 19.5 62.5t53.5 41.5
q-31 12 -47.5 38.5t-16.5 55.5q0 53 42.5 88.5t114.5 35.5zM215 68q19 0 29 11.5t10 27.5t-10 27.5t-29 11.5q-20 0 -30 -11.5t-10 -27.5t10 -27.5t30 -11.5z" />
    <glyph glyph-name="nine.sinf" unicode="&#xf281;" 
d="M224 -203h-154l14 13q118 107 153 155l-3 2q-23 -13 -54 -13q-57 0 -96 38.5t-39 97.5q0 68 45.5 111t116.5 43q77 0 123.5 -48.5t46.5 -120.5q0 -135 -140 -266zM257 97q0 20 -12 34t-34 14q-23 0 -35 -14t-12 -34q0 -22 12 -36.5t35 -14.5q22 0 34 14.5t12 36.5z" />
    <glyph glyph-name="onefifth" unicode="&#xf282;" horiz-adv-x="1080" 
d="M87 596v104h195v-336h84v-104h-287v104h83v232h-75zM1021 149q0 -71 -39.5 -114t-116.5 -43t-117 37t-40 100v19h122v-16q0 -42 32 -42q34 0 34 53q0 51 -39 51q-20 0 -32 -14l-103 10v249h281v-106h-176v-57h2q25 17 62 17q59 0 94.5 -40t35.5 -104zM856 741l58 -55
l-673 -723l-58 55z" />
    <glyph glyph-name="twofifths" unicode="&#xf283;" horiz-adv-x="1080" 
d="M70 260v110q88 61 138 103q33 28 43.5 46.5t10.5 38.5q0 19 -12 30t-29 11t-29 -10.5t-12 -27.5t7 -35l-109 -15q-16 37 -16 68q0 51 43.5 89.5t115.5 38.5q79 0 121.5 -42t42.5 -97t-30.5 -94.5t-100.5 -88.5l-27 -19h159v-106h-316zM856 741l58 -55l-673 -723l-58 55z
M1021 149q0 -71 -39.5 -114t-116.5 -43t-117 37t-40 100v19h122v-16q0 -42 32 -42q34 0 34 53q0 51 -39 51q-20 0 -32 -14l-103 10v249h281v-106h-176v-57h2q25 17 62 17q59 0 94.5 -40t35.5 -104z" />
    <glyph glyph-name="threefifths" unicode="&#xf284;" horiz-adv-x="1080" 
d="M238 253q-76 0 -115.5 37t-39.5 100v19h122v-16q0 -42 32 -42q35 0 35 45q0 50 -51 50q-25 0 -48 -5v97l83 58h-155v104h282v-112l-93 -67q46 -5 77 -39t31 -83q0 -68 -43 -107t-117 -39zM856 741l58 -55l-673 -723l-58 55zM1021 149q0 -71 -39.5 -114t-116.5 -43
t-117 37t-40 100v19h122v-16q0 -42 32 -42q34 0 34 53q0 51 -39 51q-20 0 -32 -14l-103 10v249h281v-106h-176v-57h2q25 17 62 17q59 0 94.5 -40t35.5 -104z" />
    <glyph glyph-name="fourfifths" unicode="&#xf285;" horiz-adv-x="1080" 
d="M52 352v122l148 226h141v-247h52v-101h-52v-92h-114v92h-175zM225 574l-76 -121h78v121h-2zM856 741l58 -55l-673 -723l-58 55zM1021 149q0 -71 -39.5 -114t-116.5 -43t-117 37t-40 100v19h122v-16q0 -42 32 -42q34 0 34 53q0 51 -39 51q-20 0 -32 -14l-103 10v249h281
v-106h-176v-57h2q25 17 62 17q59 0 94.5 -40t35.5 -104z" />
    <glyph glyph-name="onesixth" unicode="&#xf286;" horiz-adv-x="1080" 
d="M87 596v104h195v-336h84v-104h-287v104h83v232h-75zM838 439h154l-14 -13q-115 -104 -153 -155l3 -2q23 13 54 13q57 0 96 -38.5t39 -97.5q0 -68 -45.5 -111t-116.5 -43q-77 0 -123.5 48.5t-46.5 120.5q0 135 140 266zM805 140q0 -21 12 -35t35 -14q22 0 34 14t12 35
q0 22 -12 36t-34 14q-23 0 -35 -14t-12 -36zM856 741l58 -55l-673 -723l-58 55z" />
    <glyph glyph-name="fivesixths" unicode="&#xf287;" horiz-adv-x="1080" 
d="M402 410q0 -71 -39.5 -114t-116.5 -43t-117 37t-40 100v19h122v-16q0 -42 32 -42q34 0 34 53q0 51 -39 51q-20 0 -32 -14l-103 10v249h281v-106h-176v-57h2q26 17 62 17q59 0 94.5 -40t35.5 -104zM856 741l58 -55l-673 -723l-58 55zM838 439h154l-14 -13
q-115 -104 -153 -155l3 -2q23 13 54 13q57 0 96 -38.5t39 -97.5q0 -68 -45.5 -111t-116.5 -43q-77 0 -123.5 48.5t-46.5 120.5q0 135 140 266zM805 140q0 -21 12 -35t35 -14q22 0 34 14t12 35q0 22 -12 36t-34 14q-23 0 -35 -14t-12 -36z" />
    <glyph glyph-name="oneseventh" unicode="&#xf288;" horiz-adv-x="1080" 
d="M87 596v104h195v-336h84v-104h-287v104h83v232h-75zM883 0h-136l151 330h-184v110h309v-104zM856 741l58 -55l-673 -723l-58 55z" />
    <glyph glyph-name="twosevenths" unicode="&#xf289;" horiz-adv-x="1080" 
d="M70 260v110q88 61 138 103q33 28 43.5 46.5t10.5 38.5q0 19 -12 30t-29 11t-29 -10.5t-12 -27.5t7 -35l-109 -15q-16 37 -16 68q0 51 43.5 89.5t115.5 38.5q79 0 121.5 -42t42.5 -97t-30.5 -94.5t-100.5 -88.5l-27 -19h159v-106h-316zM856 741l58 -55l-673 -723l-58 55z
M883 0h-136l151 330h-184v110h309v-104z" />
    <glyph glyph-name="threesevenths" unicode="&#xf290;" horiz-adv-x="1080" 
d="M238 253q-76 0 -115.5 37t-39.5 100v19h122v-16q0 -42 32 -42q35 0 35 45q0 50 -51 50q-25 0 -48 -5v97l83 58h-155v104h282v-112l-93 -67q46 -5 77 -39t31 -83q0 -68 -43 -107t-117 -39zM856 741l58 -55l-673 -723l-58 55zM883 0h-136l151 330h-184v110h309v-104z" />
    <glyph glyph-name="foursevenths" unicode="&#xf291;" horiz-adv-x="1080" 
d="M856 741l58 -55l-673 -723l-58 55zM52 352v122l148 226h141v-247h52v-101h-52v-92h-114v92h-175zM225 574l-76 -121h78v121h-2zM883 0h-136l151 330h-184v110h309v-104z" />
    <glyph glyph-name="fivesevenths" unicode="&#xf292;" horiz-adv-x="1080" 
d="M402 410q0 -71 -39.5 -114t-116.5 -43t-117 37t-40 100v19h122v-16q0 -42 32 -42q34 0 34 53q0 51 -39 51q-20 0 -32 -14l-103 10v249h281v-106h-176v-57h2q26 17 62 17q59 0 94.5 -40t35.5 -104zM856 741l58 -55l-673 -723l-58 55zM883 0h-136l151 330h-184v110h309
v-104z" />
    <glyph glyph-name="sixsevenths" unicode="&#xf293;" horiz-adv-x="1080" 
d="M249 700h154l-14 -13q-115 -104 -153 -155l3 -2q23 13 54 13q57 0 96 -38.5t39 -97.5q0 -68 -45.5 -111t-116.5 -43q-77 0 -123.5 48.5t-46.5 120.5q0 135 140 266zM216 401q0 -21 12 -35t35 -14q22 0 34 14t12 35q0 22 -12 36t-34 14q-23 0 -35 -14t-12 -36zM856 741
l58 -55l-673 -723l-58 55zM883 0h-136l151 330h-184v110h309v-104z" />
    <glyph glyph-name="oneninth" unicode="&#xf294;" horiz-adv-x="1080" 
d="M87 596v104h195v-336h84v-104h-287v104h83v232h-75zM854 0h-154l14 13q118 107 153 155l-3 2q-23 -13 -54 -13q-57 0 -96 38.5t-39 97.5q0 68 45.5 111t116.5 43q77 0 123.5 -48.5t46.5 -120.5q0 -135 -140 -266zM887 300q0 20 -12 34t-34 14q-23 0 -35 -14t-12 -34
q0 -22 12 -36.5t35 -14.5q22 0 34 14.5t12 36.5zM856 741l58 -55l-673 -723l-58 55z" />
    <glyph glyph-name="twoninths" unicode="&#xf295;" horiz-adv-x="1080" 
d="M70 260v110q88 61 138 103q33 28 43.5 46.5t10.5 38.5q0 19 -12 30t-29 11t-29 -10.5t-12 -27.5t7 -35l-109 -15q-16 37 -16 68q0 51 43.5 89.5t115.5 38.5q79 0 121.5 -42t42.5 -97t-30.5 -94.5t-100.5 -88.5l-27 -19h159v-106h-316zM856 741l58 -55l-673 -723l-58 55z
M854 0h-154l14 13q118 107 153 155l-3 2q-23 -13 -54 -13q-57 0 -96 38.5t-39 97.5q0 68 45.5 111t116.5 43q77 0 123.5 -48.5t46.5 -120.5q0 -135 -140 -266zM887 300q0 20 -12 34t-34 14q-23 0 -35 -14t-12 -34q0 -22 12 -36.5t35 -14.5q22 0 34 14.5t12 36.5z" />
    <glyph glyph-name="fourninths" unicode="&#xf296;" horiz-adv-x="1080" 
d="M856 741l58 -55l-673 -723l-58 55zM52 352v122l148 226h141v-247h52v-101h-52v-92h-114v92h-175zM225 574l-76 -121h78v121h-2zM854 0h-154l14 13q118 107 153 155l-3 2q-23 -13 -54 -13q-57 0 -96 38.5t-39 97.5q0 68 45.5 111t116.5 43q77 0 123.5 -48.5t46.5 -120.5
q0 -135 -140 -266zM887 300q0 20 -12 34t-34 14q-23 0 -35 -14t-12 -34q0 -22 12 -36.5t35 -14.5q22 0 34 14.5t12 36.5z" />
    <glyph glyph-name="fiveninths" unicode="&#xf297;" horiz-adv-x="1080" 
d="M402 410q0 -71 -39.5 -114t-116.5 -43t-117 37t-40 100v19h122v-16q0 -42 32 -42q34 0 34 53q0 51 -39 51q-20 0 -32 -14l-103 10v249h281v-106h-176v-57h2q26 17 62 17q59 0 94.5 -40t35.5 -104zM856 741l58 -55l-673 -723l-58 55zM854 0h-154l14 13q118 107 153 155
l-3 2q-23 -13 -54 -13q-57 0 -96 38.5t-39 97.5q0 68 45.5 111t116.5 43q77 0 123.5 -48.5t46.5 -120.5q0 -135 -140 -266zM887 300q0 20 -12 34t-34 14q-23 0 -35 -14t-12 -34q0 -22 12 -36.5t35 -14.5q22 0 34 14.5t12 36.5z" />
    <glyph glyph-name="sevenninths" unicode="&#xf298;" horiz-adv-x="1080" 
d="M282 260h-136l151 330h-184v110h309v-104zM856 741l58 -55l-673 -723l-58 55zM854 0h-154l14 13q118 107 153 155l-3 2q-23 -13 -54 -13q-57 0 -96 38.5t-39 97.5q0 68 45.5 111t116.5 43q77 0 123.5 -48.5t46.5 -120.5q0 -135 -140 -266zM887 300q0 20 -12 34t-34 14
q-23 0 -35 -14t-12 -34q0 -22 12 -36.5t35 -14.5q22 0 34 14.5t12 36.5z" />
    <glyph glyph-name="eightninths" unicode="&#xf299;" horiz-adv-x="1080" 
d="M235 353q21 0 33 12t12 30t-12 30t-33 12t-33 -12t-12 -30t12 -30t33 -12zM235 707q71 0 114 -35.5t43 -88.5q0 -29 -16.5 -55.5t-47.5 -38.5q34 -13 53 -41.5t19 -62.5q0 -58 -45.5 -95t-119.5 -37q-75 0 -120.5 37t-45.5 95q0 34 19.5 62.5t53.5 41.5
q-31 12 -47.5 38.5t-16.5 55.5q0 53 42.5 88.5t114.5 35.5zM235 531q19 0 29 11.5t10 27.5t-10 27.5t-29 11.5q-20 0 -30 -11.5t-10 -27.5t10 -27.5t30 -11.5zM856 741l58 -55l-673 -723l-58 55zM854 0h-154l14 13q118 107 153 155l-3 2q-23 -13 -54 -13q-57 0 -96 38.5
t-39 97.5q0 68 45.5 111t116.5 43q77 0 123.5 -48.5t46.5 -120.5q0 -135 -140 -266zM887 300q0 20 -12 34t-34 14q-23 0 -35 -14t-12 -34q0 -22 12 -36.5t35 -14.5q22 0 34 14.5t12 36.5z" />
    <glyph glyph-name="at.alt" unicode="&#xf300;" horiz-adv-x="898" 
d="M228 248q0 68 45.5 105.5t123.5 37.5h78q37 0 37 28v2q0 15 -15.5 24.5t-45.5 9.5q-31 0 -75.5 -12.5t-70.5 -28.5l-55 122q91 54 211 54q102 0 156.5 -45.5t54.5 -121.5v-192q0 -35 22 -35q31 0 53.5 34t31 74.5t8.5 77.5q0 141 -92 222t-233 81q-140 0 -239 -95
t-99 -246q0 -152 95 -246t244 -94q116 0 190 52l132 -16q-55 -55 -144 -86t-176 -31q-192 0 -314.5 118t-122.5 303q0 184 125 304t317 120q108 0 199.5 -43.5t150 -132t58.5 -205.5q0 -122 -57.5 -204t-161.5 -82q-87 0 -129 54q-56 -54 -140 -54q-77 0 -119.5 43
t-42.5 104zM444 211q29 0 48.5 17t19.5 49v31q-12 -14 -34 -14h-36q-23 0 -36.5 -10.5t-13.5 -28.5q0 -20 15.5 -32t36.5 -12z" />
    <glyph glyph-name="ct" unicode="&#xf303;" horiz-adv-x="889" 
d="M273 332q-40 0 -65.5 -28t-25.5 -71t25.5 -71.5t65.5 -28.5q33 0 56 20t31 54l158 -31q-17 -85 -85.5 -136.5t-160.5 -51.5q-105 0 -177.5 70t-72.5 175q0 97 62 164t156 78q-31 37 -31 85q0 21 7.5 42t24.5 42t50 34t78 13h394v-227h93v-135h-93v-164q0 -31 41 -31l53 3
v-137q-70 -6 -109 -6q-31 0 -54 4t-44.5 15.5t-33 34.5t-11.5 58v223h-65v135h65v99h-183q-39 0 -59.5 -18t-20.5 -46q0 -18 9 -33q64 -19 108.5 -65.5t58.5 -111.5l-158 -31q-8 34 -31 54t-56 20z" />
    <glyph glyph-name="i.locl" unicode="&#xf304;" horiz-adv-x="294" 
d="M244 465v-465h-160v328h-61v137h221zM62 619q0 41 28 69t68 28t68.5 -28t28.5 -69q0 -40 -28 -68t-69 -28q-40 0 -68 27.5t-28 68.5z" />
    <glyph glyph-name="questiondown.alt" unicode="&#xf305;" horiz-adv-x="496" 
d="M18 200q0 39 11 75t47.5 73.5t95.5 52.5l5 83h155l11 -186l-40 -2q-55 -2 -80.5 -27.5t-25.5 -58.5q0 -29 15.5 -46.5t42.5 -17.5q29 0 45 19t16 43v7h165v-19q0 -96 -62.5 -152t-165.5 -56q-100 0 -167.5 60t-67.5 152zM354 612q0 -42 -29.5 -71.5t-70.5 -29.5
q-42 0 -71.5 29.5t-29.5 71.5q0 41 29.5 70.5t71.5 29.5q41 0 70.5 -29.5t29.5 -70.5z" />
    <glyph glyph-name="exclamdown.alt" unicode="&#xf306;" horiz-adv-x="307" 
d="M76 473h155l14 -473h-183zM53 612q0 41 29.5 70.5t70.5 29.5q42 0 71.5 -29.5t29.5 -70.5q0 -42 -29.5 -71.5t-71.5 -29.5q-41 0 -70.5 29.5t-29.5 71.5z" />
    <glyph glyph-name="hyphen.alt" unicode="&#xf307;" horiz-adv-x="250" 
d="M20 283v148h210v-148h-210z" />
    <glyph glyph-name="endash.alt" unicode="&#xf308;" horiz-adv-x="500" 
d="M40 283v148h420v-148h-420z" />
    <glyph glyph-name="emdash.alt" unicode="&#xf309;" horiz-adv-x="1000" 
d="M40 283v148h920v-148h-920z" />
    <glyph glyph-name="guillemotleft.alt" unicode="&#xf310;" horiz-adv-x="637" 
d="M177 164l-130 192l130 191h165l-118 -191l118 -192h-165zM415 164l-130 192l130 191h165l-118 -191l118 -192h-165z" />
    <glyph glyph-name="guillemotright.alt" unicode="&#xf311;" horiz-adv-x="637" 
d="M352 356l-130 -192h-165l118 192l-118 191h165zM590 356l-130 -192h-165l118 192l-118 191h165z" />
    <glyph glyph-name="guilsinglleft.alt" unicode="&#xf312;" horiz-adv-x="400" 
d="M177 164l-130 192l130 191h165l-118 -191l118 -192h-165z" />
    <glyph glyph-name="guilsinglright.alt" unicode="&#xf313;" horiz-adv-x="400" 
d="M353 356l-130 -192h-165l118 192l-118 191h165z" />
    <glyph glyph-name="orn.1" unicode="&#xf314;" horiz-adv-x="860" 
d="M55 349q0 155 109.5 265t265.5 110q155 0 265 -110t110 -265q0 -156 -110 -265.5t-265 -109.5q-156 0 -265.5 109.5t-109.5 265.5zM381 350q0 117 49 117q48 0 48 -117q0 -115 -48 -115q-49 0 -49 115zM430 577q-75 0 -121.5 -57.5t-46.5 -169.5t46.5 -169.5t121.5 -57.5
q74 0 120.5 57.5t46.5 169.5t-46.5 169.5t-120.5 57.5z" />
    <glyph glyph-name="orn.2" unicode="&#xf315;" horiz-adv-x="860" 
d="M55 349q0 155 109.5 265t265.5 110q155 0 265 -110t110 -265q0 -156 -110 -265.5t-265 -109.5q-156 0 -265.5 109.5t-109.5 265.5zM304 575v-104h75v-232h-83v-104h287v104h-84v336h-195z" />
    <glyph glyph-name="orn.3" unicode="&#xf316;" horiz-adv-x="860" 
d="M55 349q0 155 109.5 265t265.5 110q155 0 265 -110t110 -265q0 -156 -110 -265.5t-265 -109.5q-156 0 -265.5 109.5t-109.5 265.5zM276 245v-110h316v106h-159l27 19q70 49 100.5 88.5t30.5 94.5t-42.5 97t-121.5 42q-72 0 -115.5 -38.5t-43.5 -89.5q0 -31 16 -68l109 15
q-7 18 -7 35t12 27.5t29 10.5t29 -11t12 -30q0 -20 -10.5 -38.5t-43.5 -46.5q-22 -19 -56.5 -44.5t-57.5 -41.5z" />
    <glyph glyph-name="orn.4" unicode="&#xf317;" horiz-adv-x="860" 
d="M55 349q0 155 109.5 265t265.5 110q155 0 265 -110t110 -265q0 -156 -110 -265.5t-265 -109.5q-156 0 -265.5 109.5t-109.5 265.5zM425 123q74 0 117 39t43 107q0 49 -31 83t-77 39l93 67v112h-282v-104h155l-83 -58v-97q22 5 48 5q51 0 51 -50q0 -45 -35 -45
q-32 0 -32 42v16h-122v-19q0 -63 39.5 -100t115.5 -37z" />
    <glyph glyph-name="orn.5" unicode="&#xf318;" horiz-adv-x="860" 
d="M55 349q0 155 109.5 265t265.5 110q155 0 265 -110t110 -265q0 -156 -110 -265.5t-265 -109.5q-156 0 -265.5 109.5t-109.5 265.5zM336 323l76 121h2v-121h-78zM239 344v-122h175v-92h114v92h52v101h-52v247h-141z" />
    <glyph glyph-name="orn.6" unicode="&#xf319;" horiz-adv-x="860" 
d="M55 349q0 155 109.5 265t265.5 110q155 0 265 -110t110 -265q0 -156 -110 -265.5t-265 -109.5q-156 0 -265.5 109.5t-109.5 265.5zM585 280q0 64 -35.5 104t-94.5 40q-37 0 -62 -17h-2v57h176v106h-281v-249l103 -10q12 14 32 14q39 0 39 -51q0 -53 -34 -53q-32 0 -32 42
v16h-122v-19q0 -63 40 -100t117 -37t116.5 43t39.5 114z" />
    <glyph glyph-name="orn.7" unicode="&#xf320;" horiz-adv-x="860" 
d="M55 349q0 155 109.5 265t265.5 110q155 0 265 -110t110 -265q0 -156 -110 -265.5t-265 -109.5q-156 0 -265.5 109.5t-109.5 265.5zM371 271q0 22 12 36t35 14q22 0 34 -14t12 -36q0 -21 -12 -35t-34 -14q-23 0 -35 14t-12 35zM558 570h-154l-13 -12q-140 -131 -140 -266
q0 -72 46.5 -120.5t123.5 -48.5q71 0 116.5 43t45.5 111q0 59 -39 97.5t-96 38.5q-31 0 -54 -13l-3 2q38 51 153 155z" />
    <glyph glyph-name="orn.8" unicode="&#xf321;" horiz-adv-x="860" 
d="M55 349q0 155 109.5 265t265.5 110q155 0 265 -110t110 -265q0 -156 -110 -265.5t-265 -109.5q-156 0 -265.5 109.5t-109.5 265.5zM316 145h134l134 315v92h-299v-103h173z" />
    <glyph glyph-name="orn.9" unicode="&#xf322;" horiz-adv-x="860" 
d="M55 349q0 155 109.5 265t265.5 110q155 0 265 -110t110 -265q0 -156 -110 -265.5t-265 -109.5q-156 0 -265.5 109.5t-109.5 265.5zM430 401q-20 0 -30 11.5t-10 27.5t10 27.5t30 11.5q19 0 29 -11.5t10 -27.5t-10 -27.5t-29 -11.5zM430 223q-21 0 -33 12t-12 30t12 30
t33 12t33 -12t12 -30t-12 -30t-33 -12zM430 577q-72 0 -114.5 -35.5t-42.5 -88.5q0 -29 16.5 -55.5t47.5 -38.5q-34 -13 -53.5 -41.5t-19.5 -62.5q0 -58 45.5 -95t120.5 -37q74 0 119.5 37t45.5 95q0 34 -19 62.5t-53 41.5q31 12 47.5 38.5t16.5 55.5q0 53 -43 88.5
t-114 35.5z" />
    <glyph glyph-name="orn.10" unicode="&#xf323;" horiz-adv-x="860" 
d="M805 349q0 -155 -109.5 -265t-265.5 -110q-155 0 -265 110t-110 265q0 156 110 265.5t265 109.5q156 0 265.5 -109.5t109.5 -265.5zM486 429q0 -22 -12 -36t-35 -14q-22 0 -34 14t-12 36q0 21 12 35t34 14q23 0 35 -14t12 -35zM299 130h154l13 12q140 131 140 266
q0 72 -46.5 120.5t-123.5 48.5q-71 0 -116.5 -43t-45.5 -111q0 -59 39 -97.5t96 -38.5q31 0 54 13l3 -2q-38 -51 -153 -155z" />
    <glyph glyph-name="arrow.up" unicode="&#xf324;" horiz-adv-x="715" 
d="M279 37v354l-143 -122l-104 107l325 300l326 -300l-104 -107l-143 122v-354h-157z" />
    <glyph glyph-name="arrow.down" unicode="&#xf325;" horiz-adv-x="715" 
d="M279 322v354h157v-354l143 122l104 -107l-326 -300l-325 300l104 107z" />
    <glyph glyph-name="arrowup.left" unicode="&#xf326;" horiz-adv-x="715" 
d="M509 75l-250 250l-15 -187l-149 2l17 442l443 18l2 -149l-187 -15l250 -250z" />
    <glyph glyph-name="arrowup.right" unicode="&#xf327;" horiz-adv-x="715" 
d="M456 325l-250 -250l-111 111l250 250l-187 15l2 149l443 -18l17 -442l-149 -2z" />
    <glyph glyph-name="arrowdown.left" unicode="&#xf328;" horiz-adv-x="715" 
d="M259 350l250 250l111 -111l-250 -250l187 -15l-2 -149l-443 18l-17 442l149 2z" />
    <glyph glyph-name="arrowdown.right" unicode="&#xf329;" horiz-adv-x="715" 
d="M206 600l250 -250l15 187l149 -2l-17 -442l-443 -18l-2 149l187 15l-250 250z" />
    <glyph glyph-name="revcommaaccent" unicode="&#xf330;" horiz-adv-x="291" 
d="M236 596q0 -38 -26 -64.5t-64 -26.5q-40 0 -68 26.5t-28 64.5q0 28 14 52l69 119h108l-39 -100q34 -26 34 -71z" />
    <glyph glyph-name="A.smcp" unicode="&#xf331;" horiz-adv-x="560" 
d="M347 111h-136l-28 -111h-171l165 560h203l171 -560h-173zM275 375l-34 -134h73l-35 134h-4z" />
    <glyph glyph-name="B.smcp" unicode="&#xf332;" horiz-adv-x="518" 
d="M464 414q0 -79 -66 -110v-5q93 -37 93 -138q0 -71 -49.5 -116t-137.5 -45h-245v560h223q85 0 133.5 -43.5t48.5 -102.5zM299 384q0 16 -11.5 27.5t-29.5 11.5h-39v-78h39q18 0 29.5 11.5t11.5 27.5zM219 228v-96h46q30 0 43 15t13 33t-13 33t-43 15h-46z" />
    <glyph glyph-name="C.smcp" unicode="&#xf333;" horiz-adv-x="636" 
d="M197 280q0 -60 34.5 -98.5t90.5 -38.5q40 0 71 21.5t41 58.5h184q-21 -109 -107 -171t-189 -62q-126 0 -210.5 82t-84.5 208t84.5 208t210.5 82q103 0 189 -62t107 -171h-184q-10 37 -41 58.5t-71 21.5q-56 0 -90.5 -38.5t-34.5 -98.5z" />
    <glyph glyph-name="D.smcp" unicode="&#xf334;" horiz-adv-x="617" 
d="M588 280q0 -126 -81.5 -203t-218.5 -77h-229v560h229q137 0 218.5 -77t81.5 -203zM418 280q0 73 -36.5 106.5t-88.5 33.5h-74v-280h74q52 0 88.5 33.5t36.5 106.5z" />
    <glyph glyph-name="E.smcp" unicode="&#xf335;" horiz-adv-x="552" 
d="M514 560v-139h-295v-66h145v-138h-145v-77h295v-140h-455v560h455z" />
    <glyph glyph-name="F.smcp" unicode="&#xf336;" horiz-adv-x="524" 
d="M435 202h-216v-202h-160v560h451v-139h-291v-80h216v-139z" />
    <glyph glyph-name="G.smcp" unicode="&#xf337;" horiz-adv-x="651" 
d="M331 138q69 0 111 50h-100v115h269v-303h-116v72l-1 -1q-51 -66 -142 -79l-37 -2q-124 0 -206 82t-82 208q0 125 87 207.5t213 82.5q103 0 189 -62t107 -171h-181q-10 37 -42 58.5t-72 21.5q-57 0 -93.5 -39t-36.5 -98q0 -68 41.5 -105t91.5 -37z" />
    <glyph glyph-name="H.smcp" unicode="&#xf338;" horiz-adv-x="611" 
d="M552 0h-160v217h-173v-217h-160v560h160v-205h173v205h160v-560z" />
    <glyph glyph-name="I.smcp" unicode="&#xf339;" horiz-adv-x="278" 
d="M59 0v560h160v-560h-160z" />
    <glyph glyph-name="J.smcp" unicode="&#xf340;" horiz-adv-x="531" 
d="M17 256h159v-32q0 -82 71 -82t71 82v336h160v-370q0 -86 -62.5 -143t-170.5 -57q-107 0 -167.5 57t-60.5 143v66z" />
    <glyph glyph-name="K.smcp" unicode="&#xf341;" horiz-adv-x="567" 
d="M219 560v-205h28l130 205h188l-185 -267l176 -293h-195l-115 217h-27v-217h-160v560h160z" />
    <glyph glyph-name="L.smcp" unicode="&#xf342;" horiz-adv-x="463" 
d="M449 0h-390v560h160v-420h230v-140z" />
    <glyph glyph-name="M.smcp" unicode="&#xf343;" horiz-adv-x="705" 
d="M358 326l88 234h200v-560h-160v321l-67 -181h-135l-67 181v-321h-158v560h217z" />
    <glyph glyph-name="N.smcp" unicode="&#xf344;" horiz-adv-x="611" 
d="M217 298v-298h-158v560h204l131 -297v297h158v-560h-198z" />
    <glyph glyph-name="O.smcp" unicode="&#xf345;" horiz-adv-x="644" 
d="M27 279q0 125 85.5 208t209.5 83t209.5 -83t85.5 -208t-85.5 -207.5t-209.5 -82.5t-209.5 82.5t-85.5 207.5zM447 279q0 60 -34.5 99t-90.5 39t-90.5 -39t-34.5 -99t34.5 -98.5t90.5 -38.5t90.5 38.5t34.5 98.5z" />
    <glyph glyph-name="P.smcp" unicode="&#xf346;" horiz-adv-x="510" 
d="M491 361q0 -87 -57 -145.5t-162 -58.5h-54v-157h-159v560h213q106 0 162.5 -56.5t56.5 -142.5zM218 421v-124h18q44 0 67.5 13.5t23.5 50.5q0 36 -23 48t-68 12h-18z" />
    <glyph glyph-name="Q.smcp" unicode="&#xf347;" horiz-adv-x="644" 
d="M27 279q0 125 85.5 208t209.5 83t209.5 -83t85.5 -208q0 -133 -94 -216q18 -28 54 -28q24 0 47 7v-129q-35 -13 -93 -13q-92 0 -136 72l-14 23q-29 -6 -59 -6q-124 0 -209.5 82.5t-85.5 207.5zM447 279q0 60 -34.5 99t-90.5 39t-90.5 -39t-34.5 -99t34.5 -98.5
t90.5 -38.5t90.5 38.5t34.5 98.5z" />
    <glyph glyph-name="R.smcp" unicode="&#xf348;" horiz-adv-x="550" 
d="M354 0l-93 180h-42v-180h-160v560h239q92 0 152 -53t60 -129q0 -113 -96 -164l118 -214h-178zM219 422v-108h57q64 0 64 54t-64 54h-57z" />
    <glyph glyph-name="S.smcp" unicode="&#xf349;" horiz-adv-x="486" 
d="M461 486l-93 -113q-26 27 -60.5 41t-62.5 14q-18 0 -27 -8.5t-9 -17.5q0 -21 32 -34l64 -25q82 -33 115 -72t34 -103q0 -71 -56 -124.5t-160 -53.5q-138 0 -222 84l88 123q24 -28 62 -46.5t74 -18.5q44 0 44 30q0 21 -43 38l-72 28q-65 26 -97 70.5t-32 97.5
q0 73 57.5 123.5t145.5 50.5q131 0 218 -84z" />
    <glyph glyph-name="T.smcp" unicode="&#xf350;" horiz-adv-x="510" 
d="M15 560h480v-145h-160v-415h-159v415h-161v145z" />
    <glyph glyph-name="U.smcp" unicode="&#xf351;" horiz-adv-x="565" 
d="M354 224v336h158v-370q0 -86 -61.5 -143t-169.5 -57q-107 0 -167.5 57t-60.5 143v370h159v-336q0 -82 71 -82t71 82z" />
    <glyph glyph-name="V.smcp" unicode="&#xf352;" horiz-adv-x="556" 
d="M195 0l-189 560h176l97 -332l100 332h171l-188 -560h-167z" />
    <glyph glyph-name="W.smcp" unicode="&#xf353;" horiz-adv-x="809" 
d="M656 0h-173l-79 324l-77 -324h-176l-134 560h172l58 -310h1l81 310h157l78 -310h1l61 310h166z" />
    <glyph glyph-name="X.smcp" unicode="&#xf354;" horiz-adv-x="547" 
d="M539 560l-170 -282l173 -278h-187l-87 157l-80 -157h-185l172 285l-164 275h187l78 -152l77 152h186z" />
    <glyph glyph-name="Y.smcp" unicode="&#xf355;" horiz-adv-x="593" 
d="M218 209l-210 351h199l89 -167h7l88 167h192l-206 -348v-212h-159v209z" />
    <glyph glyph-name="Z.smcp" unicode="&#xf356;" horiz-adv-x="562" 
d="M313 415h-270v145h479v-138l-265 -276h265v-146h-486v133z" />
    <glyph glyph-name="OE.smcp" unicode="&#xf357;" horiz-adv-x="880" 
d="M842 560v-139h-295v-66h146v-138h-146v-77h295v-140h-518q-136 0 -215.5 77t-79.5 203t79.5 203t215.5 77h518zM193 280q0 -66 38.5 -103t82.5 -37h73v281h-73q-44 0 -82.5 -37.5t-38.5 -103.5z" />
    <glyph glyph-name="AE.smcp" unicode="&#xf358;" horiz-adv-x="843" 
d="M805 560v-139h-295v-66h145v-138h-145v-77h295v-140h-455v105h-121l-40 -105h-191l256 560h551zM350 405h-1l-60 -162h61v162z" />
    <glyph glyph-name="Wacute.smcp" unicode="&#xf359;" horiz-adv-x="809" 
d="M656 0h-173l-79 324l-77 -324h-176l-134 560h172l58 -310h1l81 310h157l78 -310h1l61 310h166zM332 605l31 125h202l-80 -125h-153z" />
    <glyph glyph-name="Wdieresis.smcp" unicode="&#xf360;" horiz-adv-x="809" 
d="M656 0h-173l-79 324l-77 -324h-176l-134 560h172l58 -310h1l81 310h157l78 -310h1l61 310h166zM309 769q34 0 60 -25.5t26 -59.5q0 -33 -26 -58.5t-60 -25.5q-33 0 -59.5 25.5t-26.5 58.5q0 34 26.5 59.5t59.5 25.5zM499 769q34 0 60 -25.5t26 -59.5q0 -33 -26 -58.5
t-60 -25.5t-60 25.5t-26 58.5q0 34 26 59.5t60 25.5z" />
    <glyph glyph-name="Wgrave.smcp" unicode="&#xf361;" horiz-adv-x="809" 
d="M656 0h-173l-79 324l-77 -324h-176l-134 560h172l58 -310h1l81 310h157l78 -310h1l61 310h166zM451 730l31 -125h-153l-80 125h202z" />
    <glyph glyph-name="Ygrave.smcp" unicode="&#xf362;" horiz-adv-x="593" 
d="M218 209l-210 351h199l89 -167h7l88 167h192l-206 -348v-212h-159v209zM341 730l31 -125h-153l-80 125h202z" />
    <glyph glyph-name="uni021A.smcp" unicode="&#xf363;" horiz-adv-x="510" 
d="M15 560h480v-145h-160v-415h-159v415h-161v145zM164 -129q0 36 26.5 62.5t62.5 26.5q43 0 68 -26t25 -63q0 -33 -24 -64l-57 -81h-107l33 82q-27 27 -27 63z" />
    <glyph glyph-name="Tcommaaccent.smcp" unicode="&#xf364;" horiz-adv-x="510" 
d="M15 560h480v-145h-160v-415h-159v415h-161v145zM164 -129q0 36 26.5 62.5t62.5 26.5q43 0 68 -26t25 -63q0 -33 -24 -64l-57 -81h-107l33 82q-27 27 -27 63z" />
    <glyph glyph-name="Amacron.smcp" unicode="&#xf365;" horiz-adv-x="560" 
d="M347 111h-136l-28 -111h-171l165 560h203l171 -560h-173zM275 375l-34 -134h73l-35 134h-4zM127 605v125h298v-125h-298z" />
    <glyph glyph-name="Aogonek.smcp" unicode="&#xf366;" horiz-adv-x="560" 
d="M347 111h-136l-28 -111h-171l165 560h203l171 -560h-42q-41 -21 -41 -48q0 -11 9.5 -17.5t19.5 -6.5q6 0 48 6l-3 -87q-40 -16 -102 -16q-55 0 -90.5 22t-35.5 62q0 65 97 85h-33zM275 375l-34 -134h73l-35 134h-4z" />
    <glyph glyph-name="Aring.smcp" unicode="&#xf367;" horiz-adv-x="560" 
d="M347 111h-136l-28 -111h-171l165 560h203l171 -560h-173zM275 375l-34 -134h73l-35 134h-4zM242 710q0 -16 10 -26.5t24 -10.5t24 10.5t10 26.5t-10 26.5t-24 10.5t-24 -10.5t-10 -26.5zM393 710q0 -47 -33.5 -78.5t-83.5 -31.5t-83.5 31.5t-33.5 78.5t33.5 78.5
t83.5 31.5t83.5 -31.5t33.5 -78.5z" />
    <glyph glyph-name="Atilde.smcp" unicode="&#xf368;" horiz-adv-x="560" 
d="M347 111h-136l-28 -111h-171l165 560h203l171 -560h-173zM275 375l-34 -134h73l-35 134h-4zM333 600q-18 0 -53 10t-42 10q-10 0 -10 -11v-4h-108v11q0 15 0.5 21t2.5 25t8 29t16.5 23.5t28.5 19.5t43 6q18 0 53 -10t42 -10q10 0 10 11v4h108v-25v-16.5t-1.5 -18.5
t-5 -22t-10.5 -19t-17.5 -18t-27 -11t-37.5 -5z" />
    <glyph glyph-name="Cacute.smcp" unicode="&#xf369;" horiz-adv-x="636" 
d="M197 280q0 -60 34.5 -98.5t90.5 -38.5q40 0 71 21.5t41 58.5h184q-21 -109 -107 -171t-189 -62q-126 0 -210.5 82t-84.5 208t84.5 208t210.5 82q103 0 189 -62t107 -171h-184q-10 37 -41 58.5t-71 21.5q-56 0 -90.5 -38.5t-34.5 -98.5zM255 605l31 125h202l-80 -125h-153
z" />
    <glyph glyph-name="Ccaron.smcp" unicode="&#xf370;" horiz-adv-x="636" 
d="M197 280q0 -60 34.5 -98.5t90.5 -38.5q40 0 71 21.5t41 58.5h184q-21 -109 -107 -171t-189 -62q-126 0 -210.5 82t-84.5 208t84.5 208t210.5 82q103 0 189 -62t107 -171h-184q-10 37 -41 58.5t-71 21.5q-56 0 -90.5 -38.5t-34.5 -98.5zM321 694l25 36h145l-72 -125h-196
l-72 125h145z" />
    <glyph glyph-name="Ccedilla.smcp" unicode="&#xf371;" horiz-adv-x="637" 
d="M207 -134l37 133q-97 24 -157 100t-60 181q0 126 84.5 208t210.5 82q103 0 189 -62t107 -171h-184q-10 37 -41 58.5t-71 21.5q-56 0 -90.5 -38.5t-34.5 -98.5t34.5 -98.5t90.5 -38.5q40 0 71 21.5t41 58.5h184q-16 -83 -71 -139t-131 -80l-65 -138h-144z" />
    <glyph glyph-name="Ccircumflex.smcp" unicode="&#xf372;" horiz-adv-x="636" 
d="M197 280q0 -60 34.5 -98.5t90.5 -38.5q40 0 71 21.5t41 58.5h184q-21 -109 -107 -171t-189 -62q-126 0 -210.5 82t-84.5 208t84.5 208t210.5 82q103 0 189 -62t107 -171h-184q-10 37 -41 58.5t-71 21.5q-56 0 -90.5 -38.5t-34.5 -98.5zM348 605l-25 36l-25 -36h-145
l72 125h196l72 -125h-145z" />
    <glyph glyph-name="Cdotaccent.smcp" unicode="&#xf373;" horiz-adv-x="636" 
d="M197 280q0 -60 34.5 -98.5t90.5 -38.5q40 0 71 21.5t41 58.5h184q-21 -109 -107 -171t-189 -62q-126 0 -210.5 82t-84.5 208t84.5 208t210.5 82q103 0 189 -62t107 -171h-184q-10 37 -41 58.5t-71 21.5q-56 0 -90.5 -38.5t-34.5 -98.5zM320 769q34 0 60 -25.5t26 -59.5
q0 -33 -26 -58.5t-60 -25.5q-33 0 -59.5 25.5t-26.5 58.5q0 34 26.5 59.5t59.5 25.5z" />
    <glyph glyph-name="Dcaron.smcp" unicode="&#xf374;" horiz-adv-x="617" 
d="M588 280q0 -126 -81.5 -203t-218.5 -77h-229v560h229q137 0 218.5 -77t81.5 -203zM418 280q0 73 -36.5 106.5t-88.5 33.5h-74v-280h74q52 0 88.5 33.5t36.5 106.5zM317 694l25 36h145l-72 -125h-196l-72 125h145z" />
    <glyph glyph-name="Gbreve.smcp" unicode="&#xf375;" horiz-adv-x="651" 
d="M331 138q69 0 111 50h-100v115h269v-303h-116v72l-1 -1q-51 -66 -142 -79l-37 -2q-124 0 -206 82t-82 208q0 125 87 207.5t213 82.5q103 0 189 -62t107 -171h-181q-10 37 -42 58.5t-72 21.5q-57 0 -93.5 -39t-36.5 -98q0 -68 41.5 -105t91.5 -37zM323 705q25 0 25 23v7
h118v-12q0 -123 -142 -123t-142 123v12h118v-7q0 -23 23 -23z" />
    <glyph glyph-name="Gcircumflex.smcp" unicode="&#xf376;" horiz-adv-x="651" 
d="M331 138q69 0 111 50h-100v115h269v-303h-116v72l-1 -1q-51 -66 -142 -79l-37 -2q-124 0 -206 82t-82 208q0 125 87 207.5t213 82.5q103 0 189 -62t107 -171h-181q-10 37 -42 58.5t-72 21.5q-57 0 -93.5 -39t-36.5 -98q0 -68 41.5 -105t91.5 -37zM347 605l-25 36l-25 -36
h-145l72 125h196l72 -125h-145z" />
    <glyph glyph-name="Gdotaccent.smcp" unicode="&#xf377;" horiz-adv-x="651" 
d="M331 138q69 0 111 50h-100v115h269v-303h-116v72l-1 -1q-51 -66 -142 -79l-37 -2q-124 0 -206 82t-82 208q0 125 87 207.5t213 82.5q103 0 189 -62t107 -171h-181q-10 37 -42 58.5t-72 21.5q-57 0 -93.5 -39t-36.5 -98q0 -68 41.5 -105t91.5 -37zM323 769q34 0 60 -25.5
t26 -59.5q0 -33 -26 -58.5t-60 -25.5q-33 0 -59.5 25.5t-26.5 58.5q0 34 26.5 59.5t59.5 25.5z" />
    <glyph glyph-name="Hcircumflex.smcp" unicode="&#xf378;" horiz-adv-x="611" 
d="M552 0h-160v217h-173v-217h-160v560h160v-205h173v205h160v-560zM331 605l-25 36l-25 -36h-145l72 125h196l72 -125h-145z" />
    <glyph glyph-name="Iacute.smcp" unicode="&#xf379;" horiz-adv-x="278" 
d="M59 0v560h160v-560h-160zM65 605l31 125h202l-80 -125h-153z" />
    <glyph glyph-name="Ibreve.smcp" unicode="&#xf380;" horiz-adv-x="278" 
d="M59 0v560h160v-560h-160zM140 705q25 0 25 23v7h118v-12q0 -123 -142 -123t-142 123v12h118v-7q0 -23 23 -23z" />
    <glyph glyph-name="Icircumflex.smcp" unicode="&#xf381;" horiz-adv-x="278" 
d="M59 0v560h160v-560h-160zM166 605l-25 36l-25 -36h-145l72 125h196l72 -125h-145z" />
    <glyph glyph-name="Idieresis.smcp" unicode="&#xf382;" horiz-adv-x="278" 
d="M59 0v560h160v-560h-160zM45 769q34 0 60 -25.5t26 -59.5q0 -33 -26 -58.5t-60 -25.5q-33 0 -59.5 25.5t-26.5 58.5q0 34 26.5 59.5t59.5 25.5zM235 769q34 0 60 -25.5t26 -59.5q0 -33 -26 -58.5t-60 -25.5t-60 25.5t-26 58.5q0 34 26 59.5t60 25.5z" />
    <glyph glyph-name="Idotaccent.smcp" unicode="&#xf383;" horiz-adv-x="278" 
d="M59 0v560h160v-560h-160zM138 769q34 0 60 -25.5t26 -59.5q0 -33 -26 -58.5t-60 -25.5q-33 0 -59.5 25.5t-26.5 58.5q0 34 26.5 59.5t59.5 25.5z" />
    <glyph glyph-name="Igrave.smcp" unicode="&#xf384;" horiz-adv-x="278" 
d="M59 0v560h160v-560h-160zM185 730l31 -125h-153l-80 125h202z" />
    <glyph glyph-name="IJ.smcp" unicode="&#xf385;" horiz-adv-x="809" 
d="M59 0v560h160v-560h-160zM295 256h159v-32q0 -82 71 -82t71 82v336h160v-370q0 -86 -62.5 -143t-170.5 -57q-107 0 -167.5 57t-60.5 143v66z" />
    <glyph glyph-name="Iogonek.smcp" unicode="&#xf386;" horiz-adv-x="278" 
d="M59 0v560h160v-560h-12q-41 -21 -41 -48q0 -11 9.5 -17.5t19.5 -6.5q6 0 48 6l-3 -87q-40 -16 -102 -16q-55 0 -90.5 22t-35.5 62q0 65 97 85h-50z" />
    <glyph glyph-name="Itilde.smcp" unicode="&#xf387;" horiz-adv-x="278" 
d="M59 0v560h160v-560h-160zM198 600q-18 0 -53 10t-42 10q-10 0 -10 -11v-4h-108v11q0 15 0.5 21t2.5 25t8 29t16.5 23.5t28.5 19.5t43 6q18 0 53 -10t42 -10q10 0 10 11v4h108v-25v-16.5t-1.5 -18.5t-5 -22t-10.5 -19t-17.5 -18t-27 -11t-37.5 -5z" />
    <glyph glyph-name="Jcircumflex.smcp" unicode="&#xf388;" horiz-adv-x="531" 
d="M17 256h159v-32q0 -82 71 -82t71 82v336h160v-370q0 -86 -62.5 -143t-170.5 -57q-107 0 -167.5 57t-60.5 143v66zM277 605l-25 36l-25 -36h-145l72 125h196l72 -125h-145z" />
    <glyph glyph-name="Kcommaaccent.smcp" unicode="&#xf389;" horiz-adv-x="567" 
d="M219 560v-205h28l130 205h188l-185 -267l176 -293h-195l-115 217h-27v-217h-160v560h160zM187 -129q0 36 26.5 62.5t62.5 26.5q43 0 68 -26t25 -63q0 -33 -24 -64l-57 -81h-107l33 82q-27 27 -27 63z" />
    <glyph glyph-name="Lacute.smcp" unicode="&#xf390;" horiz-adv-x="463" 
d="M449 0h-390v560h160v-420h230v-140zM142 605l31 125h202l-80 -125h-153z" />
    <glyph glyph-name="Nacute.smcp" unicode="&#xf391;" horiz-adv-x="611" 
d="M217 298v-298h-158v560h204l131 -297v297h158v-560h-198zM220 605l31 125h202l-80 -125h-153z" />
    <glyph glyph-name="Ncaron.smcp" unicode="&#xf392;" horiz-adv-x="611" 
d="M217 298v-298h-158v560h204l131 -297v297h158v-560h-198zM307 694l25 36h145l-72 -125h-196l-72 125h145z" />
    <glyph glyph-name="Ncommaaccent.smcp" unicode="&#xf393;" horiz-adv-x="611" 
d="M217 298v-298h-158v560h204l131 -297v297h158v-560h-198zM222 -129q0 36 26.5 62.5t62.5 26.5q43 0 68 -26t25 -63q0 -33 -24 -64l-57 -81h-107l33 82q-27 27 -27 63z" />
    <glyph glyph-name="Ntilde.smcp" unicode="&#xf394;" horiz-adv-x="611" 
d="M217 298v-298h-158v560h204l131 -297v297h158v-560h-198zM364 600q-18 0 -53 10t-42 10q-10 0 -10 -11v-4h-108v11q0 15 0.5 21t2.5 25t8 29t16.5 23.5t28.5 19.5t43 6q18 0 53 -10t42 -10q10 0 10 11v4h108v-25v-16.5t-1.5 -18.5t-5 -22t-10.5 -19t-17.5 -18t-27 -11
t-37.5 -5z" />
    <glyph glyph-name="Oacute.smcp" unicode="&#xf395;" horiz-adv-x="644" 
d="M27 279q0 125 85.5 208t209.5 83t209.5 -83t85.5 -208t-85.5 -207.5t-209.5 -82.5t-209.5 82.5t-85.5 207.5zM447 279q0 60 -34.5 99t-90.5 39t-90.5 -39t-34.5 -99t34.5 -98.5t90.5 -38.5t90.5 38.5t34.5 98.5zM240 605l31 125h202l-80 -125h-153z" />
    <glyph glyph-name="Ograve.smcp" unicode="&#xf396;" horiz-adv-x="644" 
d="M27 279q0 125 85.5 208t209.5 83t209.5 -83t85.5 -208t-85.5 -207.5t-209.5 -82.5t-209.5 82.5t-85.5 207.5zM447 279q0 60 -34.5 99t-90.5 39t-90.5 -39t-34.5 -99t34.5 -98.5t90.5 -38.5t90.5 38.5t34.5 98.5zM364 730l31 -125h-153l-80 125h202z" />
    <glyph glyph-name="Otilde.smcp" unicode="&#xf397;" horiz-adv-x="644" 
d="M27 279q0 125 85.5 208t209.5 83t209.5 -83t85.5 -208t-85.5 -207.5t-209.5 -82.5t-209.5 82.5t-85.5 207.5zM447 279q0 60 -34.5 99t-90.5 39t-90.5 -39t-34.5 -99t34.5 -98.5t90.5 -38.5t90.5 38.5t34.5 98.5zM378 600q-18 0 -53 10t-42 10q-10 0 -10 -11v-4h-108v11
q0 15 0.5 21t2.5 25t8 29t16.5 23.5t28.5 19.5t43 6q18 0 53 -10t42 -10q10 0 10 11v4h108v-25v-16.5t-1.5 -18.5t-5 -22t-10.5 -19t-17.5 -18t-27 -11t-37.5 -5z" />
    <glyph glyph-name="Racute.smcp" unicode="&#xf398;" horiz-adv-x="550" 
d="M354 0l-93 180h-42v-180h-160v560h239q92 0 152 -53t60 -129q0 -113 -96 -164l118 -214h-178zM219 422v-108h57q64 0 64 54t-64 54h-57zM194 605l31 125h202l-80 -125h-153z" />
    <glyph glyph-name="Rcaron.smcp" unicode="&#xf399;" horiz-adv-x="550" 
d="M354 0l-93 180h-42v-180h-160v560h239q92 0 152 -53t60 -129q0 -113 -96 -164l118 -214h-178zM219 422v-108h57q64 0 64 54t-64 54h-57zM287 694l25 36h145l-72 -125h-196l-72 125h145z" />
    <glyph glyph-name="Rcommaaccent.smcp" unicode="&#xf400;" horiz-adv-x="550" 
d="M354 0l-93 180h-42v-180h-160v560h239q92 0 152 -53t60 -129q0 -113 -96 -164l118 -214h-178zM219 422v-108h57q64 0 64 54t-64 54h-57zM190 -129q0 36 26.5 62.5t62.5 26.5q43 0 68 -26t25 -63q0 -33 -24 -64l-57 -81h-107l33 82q-27 27 -27 63z" />
    <glyph glyph-name="Sacute.smcp" unicode="&#xf401;" horiz-adv-x="486" 
d="M461 486l-93 -113q-26 27 -60.5 41t-62.5 14q-18 0 -27 -8.5t-9 -17.5q0 -21 32 -34l64 -25q82 -33 115 -72t34 -103q0 -71 -56 -124.5t-160 -53.5q-138 0 -222 84l88 123q24 -28 62 -46.5t74 -18.5q44 0 44 30q0 21 -43 38l-72 28q-65 26 -97 70.5t-32 97.5
q0 73 57.5 123.5t145.5 50.5q131 0 218 -84zM186 605l31 125h202l-80 -125h-153z" />
    <glyph glyph-name="Scaron.smcp" unicode="&#xf402;" horiz-adv-x="486" 
d="M461 486l-93 -113q-26 27 -60.5 41t-62.5 14q-18 0 -27 -8.5t-9 -17.5q0 -21 32 -34l64 -25q82 -33 115 -72t34 -103q0 -71 -56 -124.5t-160 -53.5q-138 0 -222 84l88 123q24 -28 62 -46.5t74 -18.5q44 0 44 30q0 21 -43 38l-72 28q-65 26 -97 70.5t-32 97.5
q0 73 57.5 123.5t145.5 50.5q131 0 218 -84zM250 694l25 36h145l-72 -125h-196l-72 125h145z" />
    <glyph glyph-name="Scedilla.smcp" unicode="&#xf403;" horiz-adv-x="487" 
d="M119 -134l37 133q-84 19 -140 75l88 123q24 -28 62 -46.5t74 -18.5q44 0 44 30q0 21 -43 38l-72 28q-65 26 -97 70.5t-32 97.5q0 73 57.5 123.5t145.5 50.5q131 0 218 -84l-93 -113q-26 27 -60.5 41t-62.5 14q-18 0 -27 -8.5t-9 -17.5q0 -21 32 -34l64 -25
q82 -33 115 -72t34 -103q0 -53 -32.5 -98.5t-94.5 -66.5l-64 -137h-144z" />
    <glyph glyph-name="Scircumflex.smcp" unicode="&#xf404;" horiz-adv-x="486" 
d="M461 486l-93 -113q-26 27 -60.5 41t-62.5 14q-18 0 -27 -8.5t-9 -17.5q0 -21 32 -34l64 -25q82 -33 115 -72t34 -103q0 -71 -56 -124.5t-160 -53.5q-138 0 -222 84l88 123q24 -28 62 -46.5t74 -18.5q44 0 44 30q0 21 -43 38l-72 28q-65 26 -97 70.5t-32 97.5
q0 73 57.5 123.5t145.5 50.5q131 0 218 -84zM273 605l-25 36l-25 -36h-145l72 125h196l72 -125h-145z" />
    <glyph glyph-name="Scommaaccent.smcp" unicode="&#xf405;" horiz-adv-x="486" 
d="M461 486l-93 -113q-26 27 -60.5 41t-62.5 14q-18 0 -27 -8.5t-9 -17.5q0 -21 32 -34l64 -25q82 -33 115 -72t34 -103q0 -71 -56 -124.5t-160 -53.5q-138 0 -222 84l88 123q24 -28 62 -46.5t74 -18.5q44 0 44 30q0 21 -43 38l-72 28q-65 26 -97 70.5t-32 97.5
q0 73 57.5 123.5t145.5 50.5q131 0 218 -84zM146 -129q0 36 26.5 62.5t62.5 26.5q43 0 68 -26t25 -63q0 -33 -24 -64l-57 -81h-107l33 82q-27 27 -27 63z" />
    <glyph glyph-name="Tbar.smcp" unicode="&#xf406;" horiz-adv-x="516" 
d="M18 560h480v-145h-160v-99h80v-132h-80v-184h-159v184h-80v132h80v99h-161v145z" />
    <glyph glyph-name="Tcaron.smcp" unicode="&#xf407;" horiz-adv-x="510" 
d="M15 560h480v-145h-160v-415h-159v415h-161v145zM256 694l25 36h145l-72 -125h-196l-72 125h145z" />
    <glyph glyph-name="Thorn.smcp" unicode="&#xf408;" horiz-adv-x="515" 
d="M491 290q0 -87 -57 -145t-162 -58h-54v-87h-159v560h159v-70h54q106 0 162.5 -56.5t56.5 -143.5zM218 351v-126h18q44 0 67.5 14t23.5 51t-23 49t-68 12h-18z" />
    <glyph glyph-name="Uacute.smcp" unicode="&#xf409;" horiz-adv-x="565" 
d="M354 224v336h158v-370q0 -86 -61.5 -143t-169.5 -57q-107 0 -167.5 57t-60.5 143v370h159v-336q0 -82 71 -82t71 82zM204 605l31 125h202l-80 -125h-153z" />
    <glyph glyph-name="Ubreve.smcp" unicode="&#xf410;" horiz-adv-x="565" 
d="M354 224v336h158v-370q0 -86 -61.5 -143t-169.5 -57q-107 0 -167.5 57t-60.5 143v370h159v-336q0 -82 71 -82t71 82zM283 705q25 0 25 23v7h118v-12q0 -123 -142 -123t-142 123v12h118v-7q0 -23 23 -23z" />
    <glyph glyph-name="Ucircumflex.smcp" unicode="&#xf411;" horiz-adv-x="565" 
d="M354 224v336h158v-370q0 -86 -61.5 -143t-169.5 -57q-107 0 -167.5 57t-60.5 143v370h159v-336q0 -82 71 -82t71 82zM309 605l-25 36l-25 -36h-145l72 125h196l72 -125h-145z" />
    <glyph glyph-name="Yacute.smcp" unicode="&#xf412;" horiz-adv-x="593" 
d="M218 209l-210 351h199l89 -167h7l88 167h192l-206 -348v-212h-159v209zM224 605l31 125h202l-80 -125h-153z" />
    <glyph glyph-name="Zacute.smcp" unicode="&#xf413;" horiz-adv-x="562" 
d="M313 415h-270v145h479v-138l-265 -276h265v-146h-486v133zM204 605l31 125h202l-80 -125h-153z" />
    <glyph glyph-name="Gcommaaccent.smcp" unicode="&#xf414;" horiz-adv-x="651" 
d="M331 138q69 0 111 50h-100v115h269v-303h-116v72l-1 -1q-51 -66 -142 -79l-37 -2q-124 0 -206 82t-82 208q0 125 87 207.5t213 82.5q103 0 189 -62t107 -171h-181q-10 37 -42 58.5t-72 21.5q-57 0 -93.5 -39t-36.5 -98q0 -68 41.5 -105t91.5 -37zM228 -129
q0 36 26.5 62.5t62.5 26.5q43 0 68 -26t25 -63q0 -33 -24 -64l-57 -81h-107l33 82q-27 27 -27 63z" />
    <glyph glyph-name="Ohungarumlaut.smcp" unicode="&#xf415;" horiz-adv-x="644" 
d="M27 279q0 125 85.5 208t209.5 83t209.5 -83t85.5 -208t-85.5 -207.5t-209.5 -82.5t-209.5 82.5t-85.5 207.5zM447 279q0 60 -34.5 99t-90.5 39t-90.5 -39t-34.5 -99t34.5 -98.5t90.5 -38.5t90.5 38.5t34.5 98.5zM134 605l31 125h202l-80 -125h-153zM342 605l31 125h202
l-80 -125h-153z" />
    <glyph glyph-name="Uhungarumlaut.smcp" unicode="&#xf416;" horiz-adv-x="565" 
d="M354 224v336h158v-370q0 -86 -61.5 -143t-169.5 -57q-107 0 -167.5 57t-60.5 143v370h159v-336q0 -82 71 -82t71 82zM90 605l31 125h202l-80 -125h-153zM298 605l31 125h202l-80 -125h-153z" />
    <glyph glyph-name="Eng.smcp" unicode="&#xf417;" horiz-adv-x="611" 
d="M217 298v-298h-158v560h204l131 -297v297h158v-613q0 -72 -33 -107t-113 -35h-109v152h45q21 0 28.5 7t7.5 23v13h-24z" />
    <glyph glyph-name="Lcommaaccent.smcp" unicode="&#xf418;" horiz-adv-x="463" 
d="M449 0h-390v560h160v-420h230v-140zM157 -129q0 36 26.5 62.5t62.5 26.5q43 0 68 -26t25 -63q0 -33 -24 -64l-57 -81h-107l33 82q-27 27 -27 63z" />
    <glyph glyph-name="Imacron.smcp" unicode="&#xf419;" horiz-adv-x="278" 
d="M59 0v560h160v-560h-160zM-8 605v125h298v-125h-298z" />
    <glyph glyph-name="Lcaron.smcp" unicode="&#xf420;" horiz-adv-x="476" 
d="M449 0h-390v560h160v-420h230v-140zM293 480q0 36 26.5 62.5t62.5 26.5q43 0 68 -26t25 -63q0 -33 -24 -64l-57 -81h-107l33 82q-27 27 -27 63z" />
    <glyph glyph-name="Dcroat.smcp" unicode="&#xf421;" horiz-adv-x="620" 
d="M24 219v122h38v219h229q137 0 218.5 -77t81.5 -203t-81.5 -203t-218.5 -77h-229v219h-38zM421 280q0 73 -36.5 106.5t-88.5 33.5h-74v-79h124v-122h-124v-79h74q52 0 88.5 33.5t36.5 106.5z" />
    <glyph glyph-name="Eth.smcp" unicode="&#xf422;" horiz-adv-x="620" 
d="M24 219v122h38v219h229q137 0 218.5 -77t81.5 -203t-81.5 -203t-218.5 -77h-229v219h-38zM421 280q0 73 -36.5 106.5t-88.5 33.5h-74v-79h124v-122h-124v-79h74q52 0 88.5 33.5t36.5 106.5z" />
    <glyph glyph-name="Hbar.smcp" unicode="&#xf423;" horiz-adv-x="619" 
d="M16 402v106h47v52h160v-52h173v52h160v-52h47v-106h-47v-402h-160v217h-173v-217h-160v402h-47zM223 355h173v47h-173v-47z" />
    <glyph glyph-name="Oslash.smcp" unicode="&#xf424;" horiz-adv-x="644" 
d="M27 279q0 125 85.5 208t209.5 83q78 0 145 -36l21 25h131l-73 -87q71 -81 71 -193q0 -125 -85.5 -207.5t-209.5 -82.5q-81 0 -147 37l-30 -36h-131l82 98q-69 80 -69 191zM447 279q0 32 -11 60l-158 -190q18 -7 44 -7q56 0 90.5 38.5t34.5 98.5zM197 279q0 -32 10 -58
l157 189q-18 7 -42 7q-56 0 -90.5 -39t-34.5 -99z" />
    <glyph glyph-name="Ldot.smcp" unicode="&#xf425;" horiz-adv-x="464" 
d="M449 0h-390v560h160v-420h230v-140zM356 398q34 0 60 -25.5t26 -59.5q0 -33 -26 -58.5t-60 -25.5q-33 0 -59.5 25.5t-26.5 58.5q0 34 26.5 59.5t59.5 25.5z" />
    <glyph glyph-name="Lslash.smcp" unicode="&#xf426;" horiz-adv-x="468" 
d="M16 164v130l48 16v250h160v-197l111 37v-130l-111 -37v-93h230v-140h-390v180z" />
    <glyph glyph-name="Aacute.smcp" unicode="&#xf427;" horiz-adv-x="560" 
d="M347 111h-136l-28 -111h-171l165 560h203l171 -560h-173zM275 375l-34 -134h73l-35 134h-4zM207 605l31 125h202l-80 -125h-153z" />
    <glyph glyph-name="Abreve.smcp" unicode="&#xf428;" horiz-adv-x="560" 
d="M347 111h-136l-28 -111h-171l165 560h203l171 -560h-173zM275 375l-34 -134h73l-35 134h-4zM276 705q25 0 25 23v7h118v-12q0 -123 -142 -123t-142 123v12h118v-7q0 -23 23 -23z" />
    <glyph glyph-name="Acircumflex.smcp" unicode="&#xf429;" horiz-adv-x="560" 
d="M347 111h-136l-28 -111h-171l165 560h203l171 -560h-173zM275 375l-34 -134h73l-35 134h-4zM302 605l-25 36l-25 -36h-145l72 125h196l72 -125h-145z" />
    <glyph glyph-name="Adieresis.smcp" unicode="&#xf430;" horiz-adv-x="560" 
d="M347 111h-136l-28 -111h-171l165 560h203l171 -560h-173zM275 375l-34 -134h73l-35 134h-4zM182 769q34 0 60 -25.5t26 -59.5q0 -33 -26 -58.5t-60 -25.5q-33 0 -59.5 25.5t-26.5 58.5q0 34 26.5 59.5t59.5 25.5zM372 769q34 0 60 -25.5t26 -59.5q0 -33 -26 -58.5
t-60 -25.5t-60 25.5t-26 58.5q0 34 26 59.5t60 25.5z" />
    <glyph glyph-name="Agrave.smcp" unicode="&#xf431;" horiz-adv-x="560" 
d="M347 111h-136l-28 -111h-171l165 560h203l171 -560h-173zM275 375l-34 -134h73l-35 134h-4zM319 730l31 -125h-153l-80 125h202z" />
    <glyph glyph-name="Eacute.smcp" unicode="&#xf432;" horiz-adv-x="552" 
d="M514 560v-139h-295v-66h145v-138h-145v-77h295v-140h-455v560h455zM211 605l31 125h202l-80 -125h-153z" />
    <glyph glyph-name="Ebreve.smcp" unicode="&#xf433;" horiz-adv-x="552" 
d="M514 560v-139h-295v-66h145v-138h-145v-77h295v-140h-455v560h455zM292 705q25 0 25 23v7h118v-12q0 -123 -142 -123t-142 123v12h118v-7q0 -23 23 -23z" />
    <glyph glyph-name="Ecaron.smcp" unicode="&#xf434;" horiz-adv-x="552" 
d="M514 560v-139h-295v-66h145v-138h-145v-77h295v-140h-455v560h455zM293 694l25 36h145l-72 -125h-196l-72 125h145z" />
    <glyph glyph-name="Ecircumflex.smcp" unicode="&#xf435;" horiz-adv-x="552" 
d="M514 560v-139h-295v-66h145v-138h-145v-77h295v-140h-455v560h455zM313 605l-25 36l-25 -36h-145l72 125h196l72 -125h-145z" />
    <glyph glyph-name="Edieresis.smcp" unicode="&#xf436;" horiz-adv-x="552" 
d="M514 560v-139h-295v-66h145v-138h-145v-77h295v-140h-455v560h455zM189 769q34 0 60 -25.5t26 -59.5q0 -33 -26 -58.5t-60 -25.5q-33 0 -59.5 25.5t-26.5 58.5q0 34 26.5 59.5t59.5 25.5zM379 769q34 0 60 -25.5t26 -59.5q0 -33 -26 -58.5t-60 -25.5t-60 25.5t-26 58.5
q0 34 26 59.5t60 25.5z" />
    <glyph glyph-name="Edotaccent.smcp" unicode="&#xf437;" horiz-adv-x="552" 
d="M514 560v-139h-295v-66h145v-138h-145v-77h295v-140h-455v560h455zM291 769q34 0 60 -25.5t26 -59.5q0 -33 -26 -58.5t-60 -25.5q-33 0 -59.5 25.5t-26.5 58.5q0 34 26.5 59.5t59.5 25.5z" />
    <glyph glyph-name="Egrave.smcp" unicode="&#xf438;" horiz-adv-x="552" 
d="M514 560v-139h-295v-66h145v-138h-145v-77h295v-140h-455v560h455zM345 730l31 -125h-153l-80 125h202z" />
    <glyph glyph-name="Emacron.smcp" unicode="&#xf439;" horiz-adv-x="552" 
d="M514 560v-139h-295v-66h145v-138h-145v-77h295v-140h-455v560h455zM138 605v125h298v-125h-298z" />
    <glyph glyph-name="Eogonek.smcp" unicode="&#xf440;" horiz-adv-x="552" 
d="M514 560v-139h-295v-66h145v-138h-145v-77h295v-140h-22q-41 -21 -41 -48q0 -11 9.5 -17.5t19.5 -6.5q6 0 48 6l-3 -87q-40 -16 -102 -16q-55 0 -90.5 22t-35.5 62q0 65 97 85h-335v560h455z" />
    <glyph glyph-name="Udieresis.smcp" unicode="&#xf441;" horiz-adv-x="565" 
d="M354 224v336h158v-370q0 -86 -61.5 -143t-169.5 -57q-107 0 -167.5 57t-60.5 143v370h159v-336q0 -82 71 -82t71 82zM185 769q34 0 60 -25.5t26 -59.5q0 -33 -26 -58.5t-60 -25.5q-33 0 -59.5 25.5t-26.5 58.5q0 34 26.5 59.5t59.5 25.5zM375 769q34 0 60 -25.5t26 -59.5
q0 -33 -26 -58.5t-60 -25.5t-60 25.5t-26 58.5q0 34 26 59.5t60 25.5z" />
    <glyph glyph-name="Ugrave.smcp" unicode="&#xf442;" horiz-adv-x="565" 
d="M354 224v336h158v-370q0 -86 -61.5 -143t-169.5 -57q-107 0 -167.5 57t-60.5 143v370h159v-336q0 -82 71 -82t71 82zM325 730l31 -125h-153l-80 125h202z" />
    <glyph glyph-name="Umacron.smcp" unicode="&#xf443;" horiz-adv-x="565" 
d="M354 224v336h158v-370q0 -86 -61.5 -143t-169.5 -57q-107 0 -167.5 57t-60.5 143v370h159v-336q0 -82 71 -82t71 82zM134 605v125h298v-125h-298z" />
    <glyph glyph-name="Uogonek.smcp" unicode="&#xf444;" horiz-adv-x="567" 
d="M355 224v336h158v-370q0 -67 -38 -117.5t-107 -71.5l-1 -1q-41 -21 -41 -48q0 -11 9.5 -17.5t19.5 -6.5q6 0 48 6l-3 -87q-40 -16 -102 -16q-55 0 -90.5 22t-35.5 62q0 55 69 78q-89 10 -138 64.5t-49 132.5v370h159v-336q0 -82 71 -82t71 82z" />
    <glyph glyph-name="Uring.smcp" unicode="&#xf445;" horiz-adv-x="565" 
d="M354 224v336h158v-370q0 -86 -61.5 -143t-169.5 -57q-107 0 -167.5 57t-60.5 143v370h159v-336q0 -82 71 -82t71 82zM249 710q0 -16 10 -26.5t24 -10.5t24 10.5t10 26.5t-10 26.5t-24 10.5t-24 -10.5t-10 -26.5zM400 710q0 -47 -33.5 -78.5t-83.5 -31.5t-83.5 31.5
t-33.5 78.5t33.5 78.5t83.5 31.5t83.5 -31.5t33.5 -78.5z" />
    <glyph glyph-name="Obreve.smcp" unicode="&#xf446;" horiz-adv-x="644" 
d="M27 279q0 125 85.5 208t209.5 83t209.5 -83t85.5 -208t-85.5 -207.5t-209.5 -82.5t-209.5 82.5t-85.5 207.5zM447 279q0 60 -34.5 99t-90.5 39t-90.5 -39t-34.5 -99t34.5 -98.5t90.5 -38.5t90.5 38.5t34.5 98.5zM321 705q25 0 25 23v7h118v-12q0 -123 -142 -123t-142 123
v12h118v-7q0 -23 23 -23z" />
    <glyph glyph-name="Ocircumflex.smcp" unicode="&#xf447;" horiz-adv-x="644" 
d="M27 279q0 125 85.5 208t209.5 83t209.5 -83t85.5 -208t-85.5 -207.5t-209.5 -82.5t-209.5 82.5t-85.5 207.5zM447 279q0 60 -34.5 99t-90.5 39t-90.5 -39t-34.5 -99t34.5 -98.5t90.5 -38.5t90.5 38.5t34.5 98.5zM346 605l-25 36l-25 -36h-145l72 125h196l72 -125h-145z
" />
    <glyph glyph-name="Odieresis.smcp" unicode="&#xf448;" horiz-adv-x="644" 
d="M27 279q0 125 85.5 208t209.5 83t209.5 -83t85.5 -208t-85.5 -207.5t-209.5 -82.5t-209.5 82.5t-85.5 207.5zM447 279q0 60 -34.5 99t-90.5 39t-90.5 -39t-34.5 -99t34.5 -98.5t90.5 -38.5t90.5 38.5t34.5 98.5zM225 769q34 0 60 -25.5t26 -59.5q0 -33 -26 -58.5
t-60 -25.5q-33 0 -59.5 25.5t-26.5 58.5q0 34 26.5 59.5t59.5 25.5zM415 769q34 0 60 -25.5t26 -59.5q0 -33 -26 -58.5t-60 -25.5t-60 25.5t-26 58.5q0 34 26 59.5t60 25.5z" />
    <glyph glyph-name="Omacron.smcp" unicode="&#xf449;" horiz-adv-x="644" 
d="M27 279q0 125 85.5 208t209.5 83t209.5 -83t85.5 -208t-85.5 -207.5t-209.5 -82.5t-209.5 82.5t-85.5 207.5zM447 279q0 60 -34.5 99t-90.5 39t-90.5 -39t-34.5 -99t34.5 -98.5t90.5 -38.5t90.5 38.5t34.5 98.5zM172 605v125h298v-125h-298z" />
    <glyph glyph-name="Utilde.smcp" unicode="&#xf450;" horiz-adv-x="565" 
d="M354 224v336h158v-370q0 -86 -61.5 -143t-169.5 -57q-107 0 -167.5 57t-60.5 143v370h159v-336q0 -82 71 -82t71 82zM340 600q-18 0 -53 10t-42 10q-10 0 -10 -11v-4h-108v11q0 15 0.5 21t2.5 25t8 29t16.5 23.5t28.5 19.5t43 6q18 0 53 -10t42 -10q10 0 10 11v4h108v-25
v-16.5t-1.5 -18.5t-5 -22t-10.5 -19t-17.5 -18t-27 -11t-37.5 -5z" />
    <glyph glyph-name="Wcircumflex.smcp" unicode="&#xf451;" horiz-adv-x="809" 
d="M656 0h-173l-79 324l-77 -324h-176l-134 560h172l58 -310h1l81 310h157l78 -310h1l61 310h166zM429 605l-25 36l-25 -36h-145l72 125h196l72 -125h-145z" />
    <glyph glyph-name="Ycircumflex.smcp" unicode="&#xf452;" horiz-adv-x="593" 
d="M218 209l-210 351h199l89 -167h7l88 167h192l-206 -348v-212h-159v209zM328 605l-25 36l-25 -36h-145l72 125h196l72 -125h-145z" />
    <glyph glyph-name="Ydieresis.smcp" unicode="&#xf453;" horiz-adv-x="593" 
d="M218 209l-210 351h199l89 -167h7l88 167h192l-206 -348v-212h-159v209zM205 769q34 0 60 -25.5t26 -59.5q0 -33 -26 -58.5t-60 -25.5q-33 0 -59.5 25.5t-26.5 58.5q0 34 26.5 59.5t59.5 25.5zM395 769q34 0 60 -25.5t26 -59.5q0 -33 -26 -58.5t-60 -25.5t-60 25.5
t-26 58.5q0 34 26 59.5t60 25.5z" />
    <glyph glyph-name="Zdotaccent.smcp" unicode="&#xf454;" horiz-adv-x="562" 
d="M313 415h-270v145h479v-138l-265 -276h265v-146h-486v133zM292 769q34 0 60 -25.5t26 -59.5q0 -33 -26 -58.5t-60 -25.5q-33 0 -59.5 25.5t-26.5 58.5q0 34 26.5 59.5t59.5 25.5z" />
    <glyph glyph-name="Zcaron.smcp" unicode="&#xf455;" horiz-adv-x="562" 
d="M313 415h-270v145h479v-138l-265 -276h265v-146h-486v133zM290 694l25 36h145l-72 -125h-196l-72 125h145z" />
    <glyph glyph-name="greater.alt" unicode="&#xf456;" horiz-adv-x="538" 
d="M58 91v160l313 100l-313 100v160l446 -161v-198z" />
    <glyph glyph-name="less.alt" unicode="&#xf457;" horiz-adv-x="538" 
d="M480 251v-160l-446 161v198l446 161v-160l-313 -100z" />
    <glyph glyph-name="guilsinglleft.smcp" unicode="&#xf610;" horiz-adv-x="358" 
d="M146 122l-111 164l111 164h153l-100 -164l100 -164h-153z" />
    <glyph glyph-name="guillemotleft.smcp" unicode="&#xf611;" horiz-adv-x="568" 
d="M146 122l-111 164l111 164h153l-100 -164l100 -164h-153zM357 122l-111 164l111 164h152l-99 -164l99 -164h-152z" />
    <glyph glyph-name="guillemotright.smcp" unicode="&#xf612;" horiz-adv-x="568" 
d="M323 286l-112 -164h-152l100 164l-100 164h152zM533 286l-111 -164h-152l99 164l-99 164h152z" />
    <glyph glyph-name="guilsinglright.smcp" unicode="&#xf613;" horiz-adv-x="358" 
d="M323 286l-112 -164h-152l100 164l-100 164h152z" />
    <glyph glyph-name="plus.smcp" unicode="&#xf615;" horiz-adv-x="456" 
d="M301 467v-113h105v-137h-105v-114h-144v114h-107v137h107v113h144z" />
    <glyph glyph-name="minus.smcp" unicode="&#xf616;" horiz-adv-x="456" 
d="M406 354v-137h-356v137h356z" />
    <glyph glyph-name="equal.smcp" unicode="&#xf617;" horiz-adv-x="456" 
d="M50 129v137h356v-137h-356zM50 304v137h356v-137h-356z" />
    <glyph glyph-name="commaaccent.smcp" unicode="&#xf668;" horiz-adv-x="400" 
d="M112 -129q0 36 26.5 62.5t62.5 26.5q43 0 68 -26t25 -63q0 -33 -24 -64l-57 -81h-107l33 82q-27 27 -27 63z" />
    <glyph glyph-name="cent.smcp" unicode="&#xf685;" horiz-adv-x="534" 
d="M157 0l21 80q-64 24 -102.5 77.5t-38.5 124.5q0 93 66.5 155t162.5 62q4 0 11 -0.5t11 -0.5l17 62h64l-20 -74q61 -19 99.5 -64t48.5 -110l-154 -16q-5 37 -30 53l-39 -148q61 5 69 67l154 -16q-13 -88 -76 -137.5t-155 -49.5q-19 0 -28 1l-17 -66h-64zM187 282
q0 -40 28 -63l37 143q-28 -5 -46.5 -26.5t-18.5 -53.5z" />
    <glyph glyph-name="dollar.smcp" unicode="&#xf686;" horiz-adv-x="511" 
d="M476 486l-93 -113q-24 25 -57 40l-18 -66l12 -4q82 -33 115 -72t34 -103q0 -71 -56 -124.5t-160 -53.5q-15 0 -39 2l-16 -62h-64l19 73q-72 21 -122 71l88 123q27 -32 72 -51l19 72l-26 10q-65 26 -97 70.5t-32 97.5q0 73 57.5 123.5t145.5 50.5q22 0 45 -3l15 57h64
l-19 -71q67 -22 113 -67zM299 162q0 18 -31 33l-17 -63h4q44 0 44 30zM224 402q0 -20 27 -32l15 58h-6q-18 0 -27 -8.5t-9 -17.5z" />
    <glyph glyph-name="Euro.smcp" unicode="&#xf687;" horiz-adv-x="677" 
d="M32 295v68h57q24 94 98.5 150.5t178.5 56.5t183 -63.5t94 -170.5h-181q-8 39 -34 60t-63 21q-67 0 -98 -54h130v-68h-148v-15v-14h148v-68h-130q29 -55 98 -55q37 0 63 21t34 60h181q-15 -107 -94 -170.5t-183 -63.5t-178.5 56.5t-98.5 151.5h-57v68h47v14v15h-47z" />
    <glyph glyph-name="breve.smcp" unicode="&#xf6f4;" horiz-adv-x="400" 
d="M199 705q25 0 25 23v7h118v-12q0 -123 -142 -123t-142 123v12h118v-7q0 -23 23 -23z" />
    <glyph glyph-name="caron.smcp" unicode="&#xf6f5;" horiz-adv-x="400" 
d="M200 694l25 36h145l-72 -125h-196l-72 125h145z" />
    <glyph glyph-name="circumflex.smcp" unicode="&#xf6f6;" horiz-adv-x="400" 
d="M225 605l-25 36l-25 -36h-145l72 125h196l72 -125h-145z" />
    <glyph glyph-name="dotaccent.smcp" unicode="&#xf6f7;" horiz-adv-x="400" 
d="M200 769q34 0 60 -25.5t26 -59.5q0 -33 -26 -58.5t-60 -25.5q-33 0 -59.5 25.5t-26.5 58.5q0 34 26.5 59.5t59.5 25.5z" />
    <glyph glyph-name="hungarumlaut.smcp" unicode="&#xf6f8;" horiz-adv-x="400" 
d="M-20 605l31 125h202l-80 -125h-153zM188 605l31 125h202l-80 -125h-153z" />
    <glyph glyph-name="ogonek.smcp" unicode="&#xf6fb;" horiz-adv-x="400" 
d="M234 7l48 -2l-3 -5q-41 -21 -41 -48q0 -11 9.5 -17.5t19.5 -6.5q6 0 48 6l-3 -87q-40 -16 -102 -16q-55 0 -90.5 22t-35.5 62q0 80 150 92z" />
    <glyph glyph-name="ring.smcp" unicode="&#xf6fc;" horiz-adv-x="400" 
d="M166 710q0 -16 10 -26.5t24 -10.5t24 10.5t10 26.5t-10 26.5t-24 10.5t-24 -10.5t-10 -26.5zM317 710q0 -47 -33.5 -78.5t-83.5 -31.5t-83.5 31.5t-33.5 78.5t33.5 78.5t83.5 31.5t83.5 -31.5t33.5 -78.5z" />
    <glyph glyph-name="tilde.smcp" unicode="&#xf6fe;" horiz-adv-x="400" 
d="M257 600q-18 0 -53 10t-42 10q-10 0 -10 -11v-4h-108v11q0 15 0.5 21t2.5 25t8 29t16.5 23.5t28.5 19.5t43 6q18 0 53 -10t42 -10q10 0 10 11v4h108v-25v-16.5t-1.5 -18.5t-5 -22t-10.5 -19t-17.5 -18t-27 -11t-37.5 -5z" />
    <glyph glyph-name="grave.smcp" unicode="&#xf760;" horiz-adv-x="400" 
d="M285 730l31 -125h-153l-80 125h202z" />
    <glyph glyph-name="dieresis.smcp" unicode="&#xf7a8;" horiz-adv-x="400" 
d="M105 769q34 0 60 -25.5t26 -59.5q0 -33 -26 -58.5t-60 -25.5q-33 0 -59.5 25.5t-26.5 58.5q0 34 26.5 59.5t59.5 25.5zM295 769q34 0 60 -25.5t26 -59.5q0 -33 -26 -58.5t-60 -25.5t-60 25.5t-26 58.5q0 34 26 59.5t60 25.5z" />
    <glyph glyph-name="macron.smcp" unicode="&#xf7af;" horiz-adv-x="400" 
d="M51 605v125h298v-125h-298z" />
    <glyph glyph-name="acute.smcp" unicode="&#xf7b4;" horiz-adv-x="400" 
d="M83 605l31 125h202l-80 -125h-153z" />
    <glyph glyph-name="cedilla.smcp" unicode="&#xf7b8;" horiz-adv-x="400" 
d="M92 -134l43 153h173l-72 -153h-144z" />
    <glyph glyph-name="apple" unicode="&#xf8ff;" horiz-adv-x="1200" 
d="M1053 734q48 -49 74.5 -118t26.5 -143q0 -85 -32 -168t-84 -151.5t-121.5 -130t-141.5 -107t-146 -78.5q-31 -14 -62 0q-97 44 -187 107.5t-166.5 144.5t-122.5 181.5t-46 203.5q0 74 27 143t75 119q92 93 235 93q124 0 222 -86q94 84 217 84q141 0 232 -94zM1110 474
q0 67 -24.5 128.5t-69.5 105.5q-82 79 -198 79q-121 0 -218 -87q-102 88 -221 88q-114 0 -195 -78q-45 -44 -70 -106.5t-25 -130.5q0 -137 90 -268q67 -98 171 -180q53 -43 113.5 -80.5t87.5 -51t38 -17.5q9 -4 18 0q11 4 38 17.5t88 51t115 79.5q106 83 171 179
q91 133 91 271zM818 751q103 0 172 -69q83 -81 83 -209q0 -125 -84 -250q-62 -89 -164 -170q-108 -86 -227 -143q-116 56 -226 144q-103 82 -163 172q-83 120 -83 248t84 210q71 68 172 68t192 -77q-55 -58 -99 -135q-77 -135 -123 -319l-50 10q-7 2 -13.5 -2t-7.5 -11
q-4 -16 14 -20l135 -29q16 -4 20 13q3 17 -13 21l-48 10q39 155 100 274q52 -19 109 -19q60 0 112 20q62 -124 98 -276l-48 -10q-16 -4 -14 -20q4 -18 21 -14l135 28q17 4 13 20q-1 7 -7 11.5t-13 2.5l-49 -10v1q-1 1 -1 2q-47 186 -123 320q-43 78 -95 131q90 77 191 77z
M747 97q0 7 -5.5 12.5t-12.5 5.5h-179q34 18 57 32.5t53.5 39t46.5 54.5t16 63q0 50 -33 87t-90 37q-56 0 -93.5 -32.5t-37.5 -83.5q0 -36 24.5 -64.5t62.5 -28.5q30 0 54 19t24 54q0 23 -11.5 33.5t-24.5 10.5q-14 0 -23.5 -9.5t-9.5 -22.5q0 -17 15 -27q1 -1 0 -6.5
t-7.5 -10.5t-18.5 -5q-22 0 -34.5 18.5t-12.5 39.5q0 36 25 58t66 22q40 0 62.5 -26t22.5 -62q0 -68 -109 -139q-22 -14 -46.5 -27t-38.5 -20.5t-15 -8.5q-8 -10 -4 -20q5 -11 17 -11h241q19 0 19 18zM791 595l26 -50q11 -22 35 -30q29 -8 55 7q25 13 34.5 39.5t-2.5 49.5
l-33 67q-3 7 -11 9t-14 -1l-135 -74q-16 -9 -7 -25t25 -7zM1031 403l-40 89q-3 7 -10 10q-8 2 -14 -1l-129 -62q-16 -9 -9 -24l47 -105q7 -16 23 -9q7 3 10 10t0 13l-40 90l33 15l15 -33q7 -16 24 -9q16 7 9 24l-15 34l31 15l32 -72q7 -16 24 -9q16 7 9 24zM598 506
q-48 0 -92 14q47 82 94 130q43 -44 93 -129q-44 -15 -95 -15zM352 597l-98 -22q-18 -4 -14 -22t22 -14l104 23l9 -22q-7 -9 -7 -18q0 -10 8 -18t18 -8q11 0 17 8q13 12 4 34l-63 159q-7 17 -24 10t-10 -24zM209 362l17 50l114 -40q18 -7 23 11q3 7 -0.5 14t-10.5 9l-115 41
l15 47q5 18 -12 23q-7 2 -14 -1.5t-9 -10.5l-43 -132q-2 -7 1.5 -14t10.5 -9q18 -5 23 12zM849 561l-26 52l59 32l25 -50q5 -12 0 -24t-17 -18q-29 -13 -41 8zM566 3q0 -14 9.5 -23.5t22.5 -9.5t22.5 10t9.5 22q0 14 -9 23.5t-23 9.5t-23 -9.5t-9 -22.5zM421 655
q0 -14 9.5 -23.5t22.5 -9.5t22.5 10t9.5 22q0 14 -9 23.5t-23 9.5t-23 -9.5t-9 -22.5z" />
    <glyph glyph-name="st" unicode="&#xfb06;" horiz-adv-x="815" 
d="M427 406l-91 -99q-52 45 -103 45q-15 0 -23.5 -5.5t-8.5 -12.5q0 -16 24 -23l70 -21q75 -24 105 -59t30 -87q0 -61 -51.5 -108.5t-147.5 -47.5q-78 0 -134 22t-86 51l86 107q26 -23 63.5 -39t72.5 -16q30 0 30 20q0 18 -38 28l-65 17q-62 16 -94 56t-32 90q0 55 42 97
t109 53q-31 37 -31 86q0 21 7.5 42t24.5 42t50 34t78 13h375v-227h93v-135h-93v-164q0 -31 41 -31l53 3v-137q-70 -6 -109 -6q-31 0 -54.5 4t-45 15.5t-33 34.5t-11.5 58v223h-64v135h64v99h-164q-39 0 -59 -18t-20 -46q0 -15 7 -29q76 -15 133 -64z" />
    </font>
</defs>
</svg>
