<svg width="32" height="32" viewBox="0 0 32 32" fill="none" xmlns="http://www.w3.org/2000/svg">
<circle cx="16" cy="16" r="16" fill="#2CA1C6"/>
<path d="M23.9563 12.7038C23.9188 11.8537 23.7813 11.2692 23.5844 10.7628C23.3812 10.2252 23.0687 9.74388 22.6592 9.34377C22.2591 8.93744 21.7746 8.62171 21.2432 8.42171C20.7338 8.22478 20.1524 8.0873 19.3023 8.04981C18.4458 8.00916 18.1739 7.99976 16.0016 7.99976C13.8293 7.99976 13.5574 8.00916 12.7041 8.04664C11.8539 8.08412 11.2694 8.22172 10.7631 8.41854C10.2254 8.62171 9.74412 8.93427 9.34402 9.34377C8.93769 9.74388 8.62207 10.2283 8.42196 10.7597C8.22502 11.2692 8.08754 11.8505 8.05006 12.7006C8.0094 13.5571 8 13.829 8 16.0013C8 18.1736 8.0094 18.4456 8.04688 19.2989C8.08437 20.149 8.22197 20.7335 8.41891 21.2399C8.62207 21.7775 8.93769 22.2588 9.34402 22.6589C9.74412 23.0652 10.2286 23.381 10.7599 23.581C11.2694 23.7779 11.8507 23.9154 12.701 23.9529C13.5542 23.9905 13.8262 23.9998 15.9985 23.9998C18.1708 23.9998 18.4427 23.9905 19.2961 23.9529C20.1462 23.9154 20.7307 23.7779 21.237 23.581C22.3123 23.1652 23.1624 22.3151 23.5782 21.2399C23.775 20.7304 23.9126 20.149 23.9501 19.2989C23.9875 18.4456 23.9969 18.1736 23.9969 16.0013C23.9969 13.829 23.9938 13.5571 23.9563 12.7038ZM22.5155 19.2364C22.481 20.0178 22.3498 20.4397 22.2404 20.721C21.9715 21.4181 21.4183 21.9713 20.7213 22.2401C20.44 22.3495 20.015 22.4808 19.2366 22.5151C18.3927 22.5527 18.1396 22.562 16.0048 22.562C13.8699 22.562 13.6137 22.5527 12.7728 22.5151C11.9914 22.4808 11.5694 22.3495 11.2881 22.2401C10.9413 22.1119 10.6255 21.9088 10.3692 21.6431C10.1036 21.3836 9.9004 21.0711 9.7722 20.7242C9.66281 20.4429 9.53155 20.0178 9.49725 19.2395C9.45964 18.3956 9.45036 18.1424 9.45036 16.0076C9.45036 13.8727 9.45964 13.6165 9.49725 12.7757C9.53155 11.9943 9.66281 11.5724 9.7722 11.2911C9.9004 10.9441 10.1036 10.6285 10.3724 10.3721C10.6317 10.1064 10.9443 9.90321 11.2913 9.77513C11.5726 9.66574 11.9977 9.53448 12.776 9.50005C13.6199 9.46257 13.8731 9.45317 16.0078 9.45317C18.1458 9.45317 18.3989 9.46257 19.2398 9.50005C20.0212 9.53448 20.4431 9.66574 20.7244 9.77513C21.0713 9.90321 21.3871 10.1064 21.6433 10.3721C21.909 10.6315 22.1122 10.9441 22.2404 11.2911C22.3498 11.5724 22.481 11.9974 22.5155 12.7757C22.5529 13.6196 22.5623 13.8727 22.5623 16.0076C22.5623 18.1424 22.5529 18.3924 22.5155 19.2364Z" fill="white"/>
<path d="M16.0018 11.8906C13.7327 11.8906 11.8916 13.7316 11.8916 16.0008C11.8916 18.2701 13.7327 20.111 16.0018 20.111C18.271 20.111 20.112 18.2701 20.112 16.0008C20.112 13.7316 18.271 11.8906 16.0018 11.8906ZM16.0018 18.667C14.5297 18.667 13.3356 17.473 13.3356 16.0008C13.3356 14.5286 14.5297 13.3346 16.0018 13.3346C17.474 13.3346 18.668 14.5286 18.668 16.0008C18.668 17.473 17.474 18.667 16.0018 18.667Z" fill="white"/>
<path d="M21.234 11.7291C21.234 12.259 20.8044 12.6886 20.2744 12.6886C19.7445 12.6886 19.3148 12.259 19.3148 11.7291C19.3148 11.1991 19.7445 10.7695 20.2744 10.7695C20.8044 10.7695 21.234 11.1991 21.234 11.7291Z" fill="white"/>
</svg>
