<svg width="68" height="34" viewBox="0 0 68 34" fill="none" xmlns="http://www.w3.org/2000/svg">
<path d="M1.83986 32.2106H66.1601V1.78936H1.83986V32.2106ZM68 34H0V0H68V34Z" fill="white"/>
<path d="M13.0611 13.0859V16.6208H13.995C15.3551 16.6208 16.366 16.1667 16.366 14.8065C16.366 13.465 15.3551 13.0859 13.995 13.0859H13.0611ZM13.0611 23.5033H9.73694V10.2695H14.6547C18.0559 10.2695 19.7866 12.3109 19.7866 14.8065C19.7866 17.302 18.0559 19.4392 14.6547 19.4392H13.0611V23.5033Z" fill="white"/>
<path d="M22.8966 19.0977C22.8966 20.1746 23.6163 20.9891 24.6465 20.9891C25.6575 20.9891 26.3964 20.1767 26.3964 19.0977C26.3964 18.002 25.6575 17.225 24.6465 17.225C23.6163 17.2271 22.8966 18.002 22.8966 19.0977ZM19.7866 19.0977C19.7866 16.4126 21.9435 14.4836 24.6465 14.4836C27.3496 14.4836 29.5064 16.4126 29.5064 19.0977C29.5064 21.7827 27.3496 23.7304 24.6465 23.7304C21.9456 23.7304 19.7866 21.7827 19.7866 19.0977Z" fill="white"/>
<path d="M36.2939 17.2125H35.1673C33.8265 17.2125 33.4752 18.3415 33.4752 19.458V23.5034H30.3652V14.7128H33.3596V16.1105C33.5459 15.1106 34.2077 14.6794 34.8096 14.6794C35.0431 14.6794 36.2961 14.7128 36.2961 14.7128V17.2125H36.2939Z" fill="white"/>
<path d="M41.6657 11.5735V14.7127H43.4734V17.1915H41.6657V20.3849C41.6657 20.8953 42.1112 20.9723 42.4625 20.9723C43.0451 20.9723 43.4734 20.9161 43.4734 20.9161V23.5054C43.4734 23.5054 42.0148 23.6178 41.2566 23.6178C39.798 23.6178 38.5536 23.22 38.5536 21.4056V17.1936H37.2128V14.7127H38.5536V11.5735H41.6657Z" fill="white"/>
<path d="M47.2411 19.0977C47.2411 20.1746 47.9608 20.9891 48.991 20.9891C50.002 20.9891 50.7409 20.1767 50.7409 19.0977C50.7409 18.002 50.002 17.225 48.991 17.225C47.9586 17.2271 47.2411 18.002 47.2411 19.0977ZM44.1311 19.0977C44.1311 16.4126 46.288 14.4836 48.991 14.4836C51.6919 14.4836 53.8509 16.4126 53.8509 19.0977C53.8509 21.7827 51.6919 23.7304 48.991 23.7304C46.288 23.7304 44.1311 21.7827 44.1311 19.0977Z" fill="white"/>
<path d="M56.3011 19.9309C57.3892 19.9309 58.2631 20.7808 58.2631 21.839C58.2631 22.8785 57.3892 23.7304 56.3011 23.7304C55.2323 23.7304 54.3563 22.8785 54.3563 21.839C54.3563 20.7808 55.2323 19.9309 56.3011 19.9309Z" fill="white"/>
</svg>
