<svg width="81" height="64" viewBox="0 0 81 64" fill="none" xmlns="http://www.w3.org/2000/svg">
<path d="M6.78292 42.088V47.2031C6.78292 47.2974 6.82525 47.3816 6.89782 47.4377C6.95426 47.4798 7.02279 47.5019 7.09738 47.5019C7.12963 47.5019 7.1639 47.4979 7.19615 47.4878L8.09718 47.2512C8.27859 47.2031 8.41566 47.0387 8.41566 46.8703V44.6646L9.45981 46.6076C9.49005 46.6657 9.60897 46.8542 9.91738 46.772L10.9797 46.4913C11.1611 46.4432 11.2982 46.2787 11.2982 46.1103V40.9952C11.2982 40.901 11.2558 40.8168 11.1833 40.7606C11.1026 40.6984 10.9938 40.6804 10.8829 40.7085L9.9839 40.9451C9.80248 40.9932 9.66541 41.1576 9.66541 41.3261V43.7222L8.61724 41.6068C8.56079 41.4764 8.41566 41.3581 8.17176 41.4203L7.09939 41.703C6.91999 41.7532 6.78292 41.9176 6.78292 42.088ZM1.39085 47.8748V48.6107C1.39085 48.703 1.43318 48.7872 1.50575 48.8433C1.56219 48.8854 1.63274 48.9095 1.70934 48.9095C1.7436 48.9095 1.77989 48.9055 1.81415 48.8955L5.57953 47.9029C5.76498 47.8548 5.90608 47.6884 5.90608 47.5199V46.784C5.90608 46.6918 5.86375 46.6076 5.7932 46.5514C5.71056 46.4873 5.59768 46.4692 5.48479 46.4993L4.49507 46.76V43.8104L5.48681 43.5498C5.67427 43.4996 5.81336 43.3352 5.81336 43.1668V42.4309C5.81336 42.3387 5.77103 42.2524 5.69846 42.1983C5.61582 42.1341 5.50294 42.1161 5.39006 42.1462L1.81214 43.0886C1.62468 43.1367 1.48559 43.3031 1.48559 43.4716V44.2074C1.48559 44.2997 1.52792 44.3839 1.60049 44.44C1.68112 44.5022 1.794 44.5223 1.90889 44.4922L2.80388 44.2556V47.2051L1.7174 47.4919C1.53195 47.54 1.39085 47.7064 1.39085 47.8748ZM4.46282 26.7768C4.46282 25.7261 5.01513 25.0684 6.15402 24.7656C6.64384 24.6353 7.0752 24.6894 7.37353 24.916C7.66581 25.1406 7.82102 25.5155 7.82102 26.0028V26.1331C7.82102 26.3477 7.9077 26.5362 8.05686 26.6505C8.19393 26.7567 8.37535 26.7888 8.55475 26.7407L11.0422 26.077C11.3909 25.9848 11.665 25.6098 11.665 25.2228V25.0925C11.665 23.4282 11.1087 22.0868 10.0968 21.3148C9.08085 20.5388 7.67791 20.3583 6.04114 20.7934C2.7555 21.6697 0.368878 24.5411 0.368878 27.6209C0.368878 30.5505 1.92502 32.1465 4.86798 32.2348C7.89359 32.331 7.89359 32.8804 7.89359 33.877C7.89359 34.9517 7.15785 35.7899 5.92624 36.1187C5.31547 36.2811 4.78937 36.225 4.44266 35.9603C4.12619 35.7177 3.95889 35.3106 3.95889 34.7793V34.2559C3.95889 34.0414 3.87221 33.8529 3.72305 33.7386C3.58598 33.6343 3.40255 33.6003 3.22516 33.6484L0.620844 34.3422C0.274139 34.4384 0 34.8134 0 35.1984V35.7217C0 37.396 0.564404 38.7134 1.63274 39.5275C2.35437 40.0769 3.26951 40.3576 4.30156 40.3576C4.85186 40.3576 5.4344 40.2774 6.0371 40.117C9.59486 39.1685 11.9855 36.1648 11.9855 32.6398C11.9855 29.6682 10.4697 28.1804 7.34733 28.0881C4.66843 28.02 4.46282 27.5006 4.46282 26.7768ZM27.555 34.1076V8.08689C27.555 7.71394 27.2688 7.33296 26.918 7.23872L23.5477 6.34042C23.197 6.24818 22.9108 6.47677 22.9108 6.84972V20.1859C22.9108 20.3884 22.7838 20.4907 22.5923 20.4405L19.0244 19.4901C18.8329 19.44 18.706 19.2695 18.706 19.067V11.8024C18.706 11.4295 18.4197 11.0485 18.069 10.9542L14.6987 10.0559C14.3479 9.9637 14.0637 10.1923 14.0637 10.5652V30.5124C14.0637 30.8853 14.35 31.2663 14.6987 31.3605L17.9097 32.2167C18.2585 32.309 18.7039 32.1225 18.7039 31.7495V24.894C18.7039 24.6894 18.8309 24.5892 19.0224 24.6393L22.5903 25.5897C22.7818 25.6399 22.9087 25.8103 22.9087 26.0128V32.8684C22.9087 33.2413 23.195 33.6223 23.5457 33.7166L26.916 34.6149C27.2688 34.7111 27.555 34.4805 27.555 34.1076ZM23.6143 42.7698C23.6143 44.1593 22.691 44.8972 21.3889 44.5503L18.8753 43.8806C18.6838 43.8305 18.5568 43.66 18.5568 43.4575V39.3891C18.5568 39.1866 18.6838 39.0843 18.8753 39.1344L21.3889 39.8042C22.6931 40.151 23.6143 41.3802 23.6143 42.7698ZM28.2262 43.9989C28.2262 39.76 25.5231 36.1588 21.5481 35.1001L14.741 33.2855C14.3923 33.1932 14.1061 33.4218 14.1061 33.7948V53.6015C14.1061 53.9745 14.3923 54.3554 14.741 54.4497L17.9218 55.2979C18.2706 55.3901 18.5568 55.1615 18.5568 54.7886V48.8834C18.5568 48.6809 18.6838 48.5786 18.8753 48.6288L21.5481 49.3406C25.5554 50.4073 28.2262 48.2378 28.2262 43.9989ZM39.2402 51.7026C39.2361 53.6015 39.1978 55.727 38.9842 56.6132C38.7262 57.6679 38.4137 58.2915 37.5853 58.5121C36.7588 58.7327 36.4444 58.2755 36.1863 57.3591C35.9807 56.6213 35.9384 54.6662 35.9303 52.8396C35.9283 52.5428 35.9283 12.3779 35.9303 12.0992C35.9384 10.2524 35.9787 8.2433 36.1863 7.3871C36.4444 6.3344 36.7568 5.71081 37.5853 5.49024C38.4117 5.26968 38.7262 5.72685 38.9842 6.6432C39.1918 7.3871 39.2321 9.37219 39.2402 11.2129C39.2402 11.4916 39.2402 51.4921 39.2402 51.7026ZM44.3279 51.0309C44.3299 50.7322 44.3299 9.58874 44.3258 9.25188C44.3077 6.62715 44.1868 4.5358 43.5196 3.02793C42.5077 0.742076 40.7117 -0.58332 37.5853 0.250818C34.4589 1.08295 32.6628 3.3648 31.651 6.19204C30.9878 8.04078 30.8648 10.1803 30.8447 12.7889C30.8426 13.1439 30.8406 54.3274 30.8426 54.6241C30.8588 57.305 30.9737 59.4385 31.651 60.9684C32.6649 63.2562 34.4609 64.5796 37.5853 63.7475C40.7117 62.9154 42.5077 60.6315 43.5196 57.8043C44.1968 55.9154 44.3117 53.7218 44.3279 51.0309ZM52.0824 34.5768C52.0824 34.3742 52.2094 34.272 52.4009 34.3221L55.1039 35.042C56.4081 35.3888 57.3293 36.618 57.3293 38.0096C57.3293 39.3991 56.4081 40.137 55.1039 39.7901L52.4009 39.0703C52.2094 39.0202 52.0824 38.8497 52.0824 38.6472V34.5768ZM47.6316 28.9824V55.5946C47.6316 55.9676 47.9179 56.3485 48.2666 56.4428L51.4474 57.291C51.7981 57.3832 52.0824 57.1546 52.0824 56.7817V44.0691C52.0824 43.8666 52.2094 43.7643 52.4009 43.8144L53.2273 44.035C53.4813 44.1032 53.705 44.3318 53.7998 44.6285L56.5391 54.975C56.7306 55.5004 56.9201 55.6869 57.3333 55.7971L60.5142 56.6453C60.9919 56.7716 61.3084 56.519 61.3084 56.0779C61.3084 55.8753 61.2761 55.7651 61.1491 55.3921L58.442 45.4266C58.315 45.0536 58.2827 44.8752 58.2827 44.7408C58.2827 44.5363 58.4097 44.436 58.6315 44.3598C60.8891 43.5718 61.9393 41.8855 61.9393 39.2407C61.9393 35.0019 59.2362 31.4006 55.2612 30.3419L48.2646 28.4771C47.9159 28.3809 47.6316 28.6095 47.6316 28.9824ZM58.4319 15.8648C58.4319 15.9049 58.4319 15.951 58.4299 15.9891C58.3775 17.3025 57.4724 17.9863 56.2065 17.6494L52.4029 16.6388C52.2114 16.5887 52.0844 16.4182 52.0844 16.2157V12.1413C52.0844 11.9388 52.2114 11.8365 52.4029 11.8866L56.2065 12.8972C57.5087 13.2461 58.4319 14.4753 58.4319 15.8648ZM63.0419 17.2243C63.0419 17.1822 63.0419 17.1361 63.0419 17.094C63.0419 12.8551 60.3388 9.25388 56.3638 8.19317L48.2666 6.03764C47.9179 5.94541 47.6316 6.17399 47.6316 6.54695V25.678C47.6316 26.0509 47.9179 26.4319 48.2666 26.5261L51.4474 27.3743C51.7961 27.4665 52.0824 27.238 52.0824 26.865V21.6416C52.0824 21.4371 52.2094 21.3368 52.4009 21.387L56.3638 22.4397C60.3327 23.4984 62.9895 21.381 63.0419 17.2243ZM75.4487 24.6814V21.2907C75.4487 20.9178 75.1625 20.6892 74.8137 20.7814L58.9177 25.0183C58.569 25.1105 58.2827 25.4935 58.2827 25.8664V29.2571C58.2827 29.6301 58.569 29.8587 58.9177 29.7664L64.0377 28.4009C64.2291 28.3508 64.3561 28.4511 64.3561 28.6556V50.4715C64.3561 50.8444 64.6424 51.073 64.9931 50.9808L68.1719 50.1326C68.5227 50.0404 68.8089 49.6574 68.8089 49.2844V27.4706C68.8089 27.266 68.9359 27.0976 69.1274 27.0475L74.8158 25.5316C75.1625 25.4353 75.4487 25.0544 75.4487 24.6814ZM77.3394 36.5999C77.3394 36.624 77.3374 36.6521 77.3374 36.6802C77.3213 38.3103 77.2548 39.3069 77.1379 39.726C77.029 40.113 76.8617 40.3696 76.64 40.4879C76.4747 40.5761 76.2772 40.5902 76.0353 40.532C75.4447 40.3917 75.0435 39.9084 74.844 39.1004C74.7311 38.6392 74.6666 37.6727 74.6464 36.1448C74.6444 35.9463 74.6424 35.8961 74.6424 35.8721C74.6424 35.856 74.6444 35.8079 74.6484 35.6014C74.6686 34.0955 74.7331 33.1692 74.844 32.7681C74.9528 32.3811 75.1201 32.1245 75.3398 32.0062C75.4386 31.954 75.5495 31.926 75.6765 31.926C75.7591 31.926 75.8478 31.938 75.9446 31.9601C76.5352 32.1004 76.9363 32.5837 77.1358 33.3917C77.2528 33.8669 77.3173 34.8856 77.3354 36.5077C77.3394 36.5398 77.3394 36.5719 77.3394 36.5999ZM80.996 37.0531L80.9919 36.8847C80.9617 35.5152 80.875 33.9311 80.4457 32.5776C79.6797 30.1615 78.0732 28.4992 76.0373 28.0119C73.9651 27.5147 72.3243 28.431 71.5422 30.5224C71.1088 31.6793 71.0221 33.1792 70.9939 34.6289L70.9899 34.8414C70.9838 35.072 70.9838 35.072 70.9899 35.3066L70.9939 35.4951C71.0221 36.9829 71.1088 38.5489 71.5422 39.9144C72.3082 42.3286 73.9147 43.9929 75.9506 44.4801C76.3195 44.5684 76.6763 44.6125 77.0169 44.6125C78.5831 44.6125 79.8027 43.6881 80.4457 41.9697C80.8791 40.8107 80.9657 39.3049 80.9939 37.8491L80.996 37.7268C81.002 37.384 81.002 37.384 80.996 37.0531Z" fill="#2CA1C6"/>
</svg>
