<svg width="32" height="32" viewBox="0 0 32 32" fill="none" xmlns="http://www.w3.org/2000/svg">
<circle cx="16" cy="16" r="16" fill="#2CA1C6"/>
<path d="M22.1955 10.5406C20.8971 10.1853 15.7033 10.1853 15.7033 10.1853C15.7033 10.1853 10.5097 10.1853 9.21131 10.5271C8.51424 10.7183 7.94013 11.2924 7.74892 12.0032C7.40723 13.3015 7.40723 15.994 7.40723 15.994C7.40723 15.994 7.40723 18.7001 7.74892 19.9849C7.94033 20.6956 8.50057 21.256 9.21141 21.4474C10.5234 21.8027 15.7035 21.8027 15.7035 21.8027C15.7035 21.8027 20.8971 21.8027 22.1955 21.461C22.9064 21.2696 23.4667 20.7093 23.6581 19.9986C23.9999 18.7001 23.9999 16.0077 23.9999 16.0077C23.9999 16.0077 24.0134 13.3015 23.6579 12.0032C23.4667 11.2923 22.9063 10.732 22.1955 10.5406ZM14.0497 18.4815V13.5066L18.3686 15.994L14.0497 18.4815Z" fill="white"/>
</svg>
