<svg width="22" height="22" viewBox="0 0 22 22" fill="none" xmlns="http://www.w3.org/2000/svg">
<path d="M13.1604 2.59998H8.84035C8.57635 2.59998 8.36035 2.81598 8.36035 3.07998C8.36035 3.34398 8.57635 3.55998 8.84035 3.55998H13.1604C13.4244 3.55998 13.6404 3.34398 13.6404 3.07998C13.6404 2.81598 13.4244 2.59998 13.1604 2.59998Z" fill="#10324D"/>
<path d="M6.68 16.9999C7.616 16.9999 8.36 16.2559 8.36 15.3199C8.36 14.3839 7.616 13.6399 6.68 13.6399C5.744 13.6399 5 14.3839 5 15.3199C5 16.2559 5.744 16.9999 6.68 16.9999ZM6.68 14.5999C7.088 14.5999 7.4 14.9119 7.4 15.3199C7.4 15.7039 7.088 16.0399 6.68 16.0399C6.272 16.0399 5.96 15.7039 5.96 15.3199C5.96 14.9119 6.272 14.5999 6.68 14.5999Z" fill="#10324D"/>
<path d="M15.3201 16.9999C16.2561 16.9999 17.0001 16.2559 17.0001 15.3199C17.0001 14.3839 16.2561 13.6399 15.3201 13.6399C14.3841 13.6399 13.6401 14.3839 13.6401 15.3199C13.6401 16.2559 14.3841 16.9999 15.3201 16.9999ZM15.3201 14.5999C15.7281 14.5999 16.0401 14.9119 16.0401 15.3199C16.0401 15.7039 15.7281 16.0399 15.3201 16.0399C14.9121 16.0399 14.6001 15.7039 14.6001 15.3199C14.6001 14.9119 14.9121 14.5999 15.3201 14.5999Z" fill="#10324D"/>
<path d="M20.3602 5.95995H19.4002V3.07995C19.4002 1.49595 18.1042 0.199951 16.5202 0.199951H5.4802C3.89619 0.199951 2.6002 1.49595 2.6002 3.07995V5.95995H1.6402C0.848195 5.95995 0.200195 6.60795 0.200195 7.39995V9.31995C0.200195 10.1119 0.848195 10.76 1.6402 10.76H2.6002V17.9599C2.6002 18.7519 3.2482 19.4 4.04019 19.4V20.3599C4.04019 21.1519 4.68819 21.7999 5.4802 21.7999H6.92019C7.71219 21.7999 8.36019 21.1519 8.36019 20.3599V19.4H13.6402V20.3599C13.6402 21.1519 14.2882 21.7999 15.0802 21.7999H16.5202C17.3122 21.7999 17.9602 21.1519 17.9602 20.3599V19.4C18.7522 19.4 19.4002 18.7519 19.4002 17.9599V10.76H20.3602C21.1522 10.76 21.8002 10.1119 21.8002 9.31995V7.39995C21.8002 6.60795 21.1522 5.95995 20.3602 5.95995ZM2.6002 9.79995H1.6402C1.3762 9.79995 1.1602 9.58395 1.1602 9.31995V7.39995C1.1602 7.13595 1.3762 6.91995 1.6402 6.91995H2.6002V9.79995ZM3.56019 5.95995H10.5202V11.24H3.56019V5.95995ZM7.40019 20.3599C7.40019 20.6239 7.18419 20.8399 6.92019 20.8399H5.4802C5.2162 20.8399 5.0002 20.6239 5.0002 20.3599V19.4H7.40019V20.3599ZM17.0002 20.3599C17.0002 20.6239 16.7842 20.8399 16.5202 20.8399H15.0802C14.8162 20.8399 14.6002 20.6239 14.6002 20.3599V19.4H17.0002V20.3599ZM18.4402 17.9599C18.4402 18.2239 18.2242 18.4399 17.9602 18.4399H4.04019C3.7762 18.4399 3.56019 18.2239 3.56019 17.9599V12.2H18.4402V17.9599ZM18.4402 11.24H11.4802V5.95995H18.4402V11.24ZM18.4402 4.99995H3.56019V3.07995C3.56019 2.02395 4.42419 1.15995 5.4802 1.15995H16.5202C17.5762 1.15995 18.4402 2.02395 18.4402 3.07995V4.99995ZM20.8402 9.31995C20.8402 9.58395 20.6242 9.79995 20.3602 9.79995H19.4002V6.91995H20.3602C20.6242 6.91995 20.8402 7.13595 20.8402 7.39995V9.31995Z" fill="#10324D"/>
<path d="M9.80031 14.5999H12.2003C12.4643 14.5999 12.6803 14.3839 12.6803 14.1199C12.6803 13.8559 12.4643 13.6399 12.2003 13.6399H9.80031C9.53631 13.6399 9.32031 13.8559 9.32031 14.1199C9.32031 14.3839 9.53631 14.5999 9.80031 14.5999Z" fill="#10324D"/>
<path d="M9.80031 16.9999H12.2003C12.4643 16.9999 12.6803 16.7839 12.6803 16.5199C12.6803 16.2559 12.4643 16.0399 12.2003 16.0399H9.80031C9.53631 16.0399 9.32031 16.2559 9.32031 16.5199C9.32031 16.7839 9.53631 16.9999 9.80031 16.9999Z" fill="#10324D"/>
</svg>
