<svg width="24" height="24" viewBox="0 0 24 24" fill="none" xmlns="http://www.w3.org/2000/svg">
<path fill-rule="evenodd" clip-rule="evenodd" d="M21.1197 11.5201C22.0557 11.5201 22.7997 10.7761 22.7997 9.84006C22.7997 8.90406 22.0557 8.16006 21.1197 8.16006H20.2797L18.8637 3.16806C18.5757 2.16006 17.6157 1.44006 16.5597 1.44006H7.43971C6.38371 1.44006 5.42371 2.16006 5.13571 3.16806L3.71971 8.16006H2.87971C1.94371 8.16006 1.19971 8.90406 1.19971 9.84006C1.19971 10.7761 1.94371 11.5201 2.87971 11.5201H3.59971V17.4241C3.59971 18.8833 4.71971 19.2161 5.27971 19.2001C6.21571 19.2001 6.95971 18.4561 6.95971 17.5201V16.3201H17.0397V17.5201C17.0397 18.4561 17.7837 19.2001 18.7197 19.2001C19.2797 19.1361 20.3997 18.6913 20.3997 17.4241V11.5201H21.1197ZM21.1198 9.12008H20.3998V10.5601H21.1198C21.5278 10.5601 21.8398 10.2241 21.8398 9.84008C21.8398 9.43208 21.5278 9.12008 21.1198 9.12008ZM7.43979 2.40008C6.81579 2.40008 6.23979 2.83208 6.07179 3.43208L4.72779 8.16008H12.2878C12.5038 6.79208 13.7038 5.76008 15.1198 5.76008C16.5358 5.76008 17.7118 6.79208 17.9518 8.16008H19.2718L17.9518 3.43208C17.7598 2.83208 17.2078 2.40008 16.5598 2.40008H7.43979ZM15.1198 6.72008C14.2318 6.72008 13.4878 7.34408 13.2718 8.16008H16.9678C16.7518 7.34408 16.0078 6.72008 15.1198 6.72008ZM19.4398 9.12008H4.55979V13.9201C4.55979 14.7121 5.20779 15.3601 5.99979 15.3601H17.9998C18.7918 15.3601 19.4398 14.7121 19.4398 13.9201V9.12008ZM19.4398 17.5201V15.8401C19.0318 16.1281 18.5278 16.3201 17.9998 16.3201V17.5201C17.9998 17.9041 18.3118 18.2401 18.7198 18.2401C19.1278 18.2401 19.4398 17.9041 19.4398 17.5201ZM5.99979 16.3201C5.47179 16.3201 4.96779 16.1521 4.55979 15.8401V17.5201C4.55979 17.9041 4.87179 18.2401 5.27979 18.2401C5.68779 18.2401 5.99979 17.9041 5.99979 17.5201V16.3201ZM2.15979 9.84008C2.15979 10.2241 2.47179 10.5601 2.87979 10.5601H3.59979V9.12008H2.87979C2.47179 9.12008 2.15979 9.43208 2.15979 9.84008ZM9.35979 12.2401C9.35979 13.1761 8.61579 13.9201 7.67979 13.9201C6.74379 13.9201 5.99979 13.1761 5.99979 12.2401C5.99979 11.3041 6.74379 10.5601 7.67979 10.5601C8.61579 10.5601 9.35979 11.3041 9.35979 12.2401ZM8.39979 12.2401C8.39979 11.8321 8.08779 11.5201 7.67979 11.5201C7.27179 11.5201 6.95979 11.8321 6.95979 12.2401C6.95979 12.6241 7.27179 12.9601 7.67979 12.9601C8.08779 12.9601 8.39979 12.6241 8.39979 12.2401ZM17.9998 12.2401C17.9998 13.1761 17.2558 13.9201 16.3198 13.9201C15.3838 13.9201 14.6398 13.1761 14.6398 12.2401C14.6398 11.3041 15.3838 10.5601 16.3198 10.5601C17.2558 10.5601 17.9998 11.3041 17.9998 12.2401ZM17.0398 12.2401C17.0398 11.8321 16.7278 11.5201 16.3198 11.5201C15.9118 11.5201 15.5998 11.8321 15.5998 12.2401C15.5998 12.6241 15.9118 12.9601 16.3198 12.9601C16.7278 12.9601 17.0398 12.6241 17.0398 12.2401Z" fill="#10324D"/>
</svg>
