<svg width="24" height="24" viewBox="0 0 24 24" fill="none" xmlns="http://www.w3.org/2000/svg">
<path d="M20.6162 14.472C20.0642 14.328 19.6082 14.184 19.2242 13.992C19.2002 13.968 19.1762 13.968 19.1282 13.944C19.0082 13.872 18.8882 13.8 18.7682 13.728C17.3522 12.792 15.6962 11.088 15.8402 8.15998C15.8642 7.89598 15.6482 7.67998 15.4082 7.65598C15.3602 7.65598 10.8002 7.27198 10.4402 4.75198C10.2002 3.14398 8.92819 2.51998 8.28019 2.42398C8.08819 2.39998 7.92019 2.47198 7.80019 2.61598L4.2242 7.75198C4.2002 7.77598 4.17619 7.79998 4.15219 7.84798C4.12819 7.87198 4.1282 7.89598 4.1282 7.91998L1.2962 11.952C1.2722 11.976 1.2722 12 1.2482 12.048C1.2482 12.072 1.2242 12.096 1.2242 12.096V12.12C1.2242 12.144 1.2242 12.144 1.2242 12.168C1.2242 12.192 1.2242 12.192 1.2242 12.216C1.2002 12.24 1.2002 12.24 1.2002 12.264C1.2002 12.288 1.2002 12.288 1.2002 12.312C1.2002 12.336 1.2002 12.36 1.2242 12.36V12.384C1.2242 12.408 1.2482 12.432 1.2482 12.432C1.2482 12.432 1.2482 12.456 1.2722 12.456C1.2722 12.48 1.2962 12.504 1.3202 12.504C1.3202 12.504 1.3202 12.528 1.3442 12.528C1.3682 12.552 1.3682 12.552 1.3922 12.576L1.4162 12.6L13.8962 21.408C13.9442 21.432 13.9682 21.456 14.0162 21.456C14.0882 21.528 14.2082 21.552 14.3042 21.552H18.3122H22.3202C22.5842 21.552 22.8002 21.336 22.8002 21.072V18.672V17.232C22.8002 15.936 21.8882 14.784 20.6162 14.472ZM8.40019 3.45598C8.76019 3.59998 9.36019 3.98398 9.4802 4.89598C9.8882 7.63198 13.5602 8.39998 14.8802 8.56798C14.8802 9.14398 14.9522 9.69598 15.0722 10.176L13.5602 10.56C13.2962 10.632 13.1522 10.896 13.2002 11.136C13.2482 11.352 13.4402 11.496 13.6562 11.496C13.7042 11.496 13.7282 11.496 13.7762 11.472L15.3362 11.088C15.5522 11.664 15.8402 12.144 16.1762 12.576L14.7842 13.752C14.5922 13.92 14.5682 14.232 14.7362 14.424C14.8322 14.544 14.9762 14.592 15.0962 14.592C15.2162 14.592 15.3122 14.544 15.4082 14.472L16.7762 13.296C17.2802 13.824 17.7842 14.208 18.2162 14.496C18.2162 14.496 18.2162 14.496 18.2402 14.496L17.3522 15.744C17.2082 15.96 17.2562 16.248 17.4722 16.416C17.5682 16.488 17.6642 16.512 17.7602 16.512C17.9042 16.512 18.0482 16.44 18.1442 16.32L19.1042 14.976C19.4882 15.144 19.8962 15.264 20.3762 15.384C21.2402 15.6 21.8402 16.368 21.8402 17.256V18.216H15.0722L5.90419 11.688C6.12019 11.256 6.24019 10.776 6.24019 10.296C6.24019 9.40798 5.85619 8.59198 5.2082 7.99198L8.40019 3.45598ZM4.65619 8.78398C5.04019 9.19198 5.28019 9.71998 5.28019 10.296C5.28019 10.584 5.20819 10.872 5.11219 11.136L3.7202 10.152L4.65619 8.78398ZM21.8402 20.616H18.2882H14.4242L2.3522 12.096L3.1682 10.92L14.6402 19.08C14.6642 19.08 14.6642 19.104 14.6882 19.104C14.6882 19.104 14.7122 19.104 14.7122 19.128C14.7362 19.128 14.7362 19.128 14.7602 19.152C14.7842 19.152 14.7842 19.152 14.8082 19.176C14.8322 19.176 14.8322 19.176 14.8562 19.176C14.8802 19.176 14.9042 19.176 14.9042 19.176H21.8402V20.616ZM9.12019 21.096C9.12019 21.36 8.90419 21.576 8.64019 21.576H5.76019C5.49619 21.576 5.28019 21.36 5.28019 21.096C5.28019 20.832 5.49619 20.616 5.76019 20.616H8.64019C8.90419 20.616 9.12019 20.832 9.12019 21.096ZM5.04019 18.696C5.04019 18.96 4.82419 19.176 4.56019 19.176H1.6802C1.4162 19.176 1.2002 18.96 1.2002 18.696C1.2002 18.432 1.4162 18.216 1.6802 18.216H4.56019C4.82419 18.216 5.04019 18.432 5.04019 18.696Z" fill="#10324D"/>
</svg>
