<svg width="24" height="24" viewBox="0 0 24 24" fill="none" xmlns="http://www.w3.org/2000/svg">
<path d="M17.3281 1.19995H6.67207C5.06407 1.19995 3.76807 2.51995 3.76807 4.10395V15.5039C3.76807 17.1119 5.08807 18.4079 6.67207 18.4079H17.3521C18.9601 18.4079 20.2561 17.0879 20.2561 15.5039V4.10395C20.2561 2.51995 18.9361 1.19995 17.3281 1.19995ZM4.96807 4.10395C4.96807 3.31195 5.85607 2.39995 6.67207 2.39995H17.3521C18.1441 2.39995 19.0561 3.28795 19.0561 4.10395V9.31195C19.0561 10.5359 17.8081 11.544 16.5841 11.544H7.44007C6.21607 11.544 4.96807 10.5359 4.96807 9.31195V4.10395ZM17.3281 17.2079H6.67207C5.88007 17.2079 4.96807 16.3199 4.96807 15.5039V11.592C5.54407 12.144 6.57607 12.504 7.44007 12.504H16.5601C17.4241 12.504 18.4561 12.1679 19.0321 11.592V15.5039C19.0321 16.3199 18.1441 17.2079 17.3281 17.2079Z" fill="#10324D"/>
<path d="M7.63197 13.344C6.81597 13.344 6.16797 13.992 6.16797 14.808C6.16797 15.624 6.81597 16.272 7.63197 16.272C8.44797 16.272 9.09597 15.624 9.09597 14.808C9.09597 13.992 8.42397 13.344 7.63197 13.344ZM7.63197 15.288C7.36797 15.288 7.15197 15.072 7.15197 14.808C7.15197 14.544 7.36797 14.328 7.63197 14.328C7.89597 14.328 8.11197 14.544 8.11197 14.808C8.11197 15.072 7.89597 15.288 7.63197 15.288Z" fill="#10324D"/>
<path d="M16.3683 13.344C15.5523 13.344 14.9043 13.992 14.9043 14.808C14.9043 15.624 15.5523 16.272 16.3683 16.272C17.1843 16.272 17.8323 15.624 17.8323 14.808C17.8323 13.992 17.1843 13.344 16.3683 13.344ZM16.3683 15.288C16.1043 15.288 15.8883 15.072 15.8883 14.808C15.8883 14.544 16.1043 14.328 16.3683 14.328C16.6323 14.328 16.8483 14.544 16.8483 14.808C16.8483 15.072 16.6323 15.288 16.3683 15.288Z" fill="#10324D"/>
<path d="M7.12812 18.888L4.44012 21.552C4.15212 21.84 4.15212 22.296 4.44012 22.584C4.58412 22.728 4.77612 22.8 4.94412 22.8C5.13612 22.8 5.32812 22.728 5.44812 22.584L8.13612 19.92C8.42412 19.632 8.42412 19.176 8.13612 18.888C7.87212 18.6 7.39212 18.6 7.12812 18.888Z" fill="#10324D"/>
<path d="M16.872 18.888C16.584 18.6 16.128 18.6 15.84 18.888C15.552 19.176 15.552 19.632 15.84 19.92L18.504 22.584C18.648 22.728 18.84 22.8 19.008 22.8C19.2 22.8 19.392 22.728 19.512 22.584C19.8 22.296 19.8 21.84 19.512 21.552L16.872 18.888Z" fill="#10324D"/>
</svg>
