<svg width="12" height="16" viewBox="0 0 12 16" fill="none" xmlns="http://www.w3.org/2000/svg">
<path fill-rule="evenodd" clip-rule="evenodd" d="M6 15.5517L6.43849 15.1688C10.1258 11.9491 12 9.1378 12 6.66663C12 3.16707 9.26863 0.666626 6 0.666626C2.73137 0.666626 0 3.16707 0 6.66663C0 9.1378 1.87421 11.9491 5.56151 15.1688L6 15.5517ZM6 13.7756C2.87107 10.9557 1.33333 8.56611 1.33333 6.66663C1.33333 3.93103 3.44274 1.99996 6 1.99996C8.55726 1.99996 10.6667 3.93103 10.6667 6.66663C10.6667 8.56611 9.12893 10.9557 6 13.7756ZM6 3.33329C7.84095 3.33329 9.33333 4.82568 9.33333 6.66663C9.33333 8.50758 7.84095 9.99996 6 9.99996C4.15905 9.99996 2.66667 8.50758 2.66667 6.66663C2.66667 4.82568 4.15905 3.33329 6 3.33329ZM4 6.66663C4 5.56206 4.89543 4.66663 6 4.66663C7.10457 4.66663 8 5.56206 8 6.66663C8 7.7712 7.10457 8.66663 6 8.66663C4.89543 8.66663 4 7.7712 4 6.66663Z" fill="#2CA1C6"/>
</svg>
